<svg xmlns="http://www.w3.org/2000/svg" width="555" height="774.285" viewBox="0 0 555 774.285">
  <g id="Group_3715" data-name="Group 3715" transform="translate(-987 -175.715)">
    <ellipse id="Ellipse_260" data-name="Ellipse 260" cx="277.5" cy="40.5" rx="277.5" ry="40.5" transform="translate(987 869)" fill="#adadad" opacity="0.203"/>
    <g id="Group_3714" data-name="Group 3714" transform="translate(205.091 84.705)">
      <g id="Group_3537" data-name="Group 3537" transform="translate(1116.443 397.144)">
        <g id="Group_3533" data-name="Group 3533">
          <path id="Path_10664" data-name="Path 10664" d="M952.418,242.714c4.357-5.733,9.867-11.118,14.79-16.386,4.458-4.771,9.941-10.664,13.035-16.415l.109-.2.266-.374.154-.17a8.554,8.554,0,0,1,4.392-2.626c4.957-1.171,9.944,2.236,13.154,5.69,3.17,3.409,6.949,9.5,4.793,14.269l-.1.21-.236.39-.141.178c-10.143,12.854-18.183,29.524-24.943,44.377l-.871,1.917-4.185.494-1.3-1.662q-4.827-6.189-9.628-12.4c-2.207-2.857-4.413-5.717-6.593-8.6-.73-.961-1.46-1.925-2.169-2.9-.223-.305-.446-.613-.656-.927A4.013,4.013,0,0,1,952.418,242.714Z" transform="translate(-951.536 -206.303)" fill="#337321" fill-rule="evenodd"/>
        </g>
        <g id="Group_3536" data-name="Group 3536" transform="translate(3.147 3.741)">
          <g id="Group_3534" data-name="Group 3534" transform="translate(0.544)">
            <path id="Path_10665" data-name="Path 10665" d="M952.929,242.861c7.188-9.538,22.466-22.644,28.3-33.512,5.892-6.471,18.563,7.971,16.168,13.279-10.488,13.29-19.41,31.953-25.411,45.145,0,0-19.33-24.776-19.062-24.912Zm4.958-5.9c3.2.789,11.2,6.941,15.6,12.5,20.44-32,9.543-25.48,15.753-35.057-3.465-2.985-6.131-6.569-8.858-3.574C976.845,217.429,962.745,231.9,957.886,236.964Zm0,0c3.2.789,11.2,6.941,15.6,12.5,20.44-32,9.543-25.48,15.753-35.057-3.465-2.985-6.131-6.569-8.858-3.574C976.845,217.429,962.745,231.9,957.886,236.964Z" transform="translate(-952.926 -207.712)" fill="#54c247" fill-rule="evenodd"/>
          </g>
          <g id="Group_3535" data-name="Group 3535" transform="translate(0 27.056)">
            <path id="Path_10666" data-name="Path 10666" d="M952.724,225.685l5.438-5.52c2.4.438,11.266,6.874,15.669,12.437,3.975-6.224,6.763-10.987,8.722-14.7l5.682,1.851a316.917,316.917,0,0,0-15.9,31.154S952.455,225.82,952.724,225.685Z" transform="translate(-952.721 -217.902)" fill="#0db02b" fill-rule="evenodd"/>
          </g>
        </g>
      </g>
      <g id="Group_3541" data-name="Group 3541" transform="translate(1136.787 389.8)">
        <g id="Group_3538" data-name="Group 3538">
          <path id="Path_10667" data-name="Path 10667" d="M959.674,218.291c-3.051,18.81,9.054,34.471,21.871,44.056,4.609,2.368,3.316-8.683,12.166-16.51,9.248-2.172.738-17.992-5.215-27.731-3.277-6.9-11.927-21.208-18.969-11.022C967.106,214.561,961.105,211.876,959.674,218.291Z" transform="translate(-959.197 -203.538)" fill="#595959" fill-rule="evenodd"/>
        </g>
        <g id="Group_3539" data-name="Group 3539" transform="translate(2.241 3.45)">
          <path id="Path_10668" data-name="Path 10668" d="M960.462,217.861c-2.693,16.606,7.995,30.434,19.312,38.9,3.574,1.837,2.546-6.338,7.535-13.035-3.324-.632-7.19-2.607-12.015-6.975a60.335,60.335,0,0,0,14.073,4.663q.191-.179.39-.358c8.165-1.92,1.407-14.755-3.847-23.353-2.892-6.1-10.531-18.725-16.747-9.732a11.136,11.136,0,0,1-.422,1.1,57.475,57.475,0,0,0-.019,11.149,36.667,36.667,0,0,1-2.366-8.1C964.033,213.873,961.32,214.022,960.462,217.861Z" transform="translate(-960.042 -204.837)" fill="#d9d6d1" fill-rule="evenodd"/>
        </g>
        <g id="Group_3540" data-name="Group 3540" transform="translate(2.241 5.383)">
          <path id="Path_10669" data-name="Path 10669" d="M960.462,216.656c-2.143,13.215,4.187,24.67,12.565,33.063.735-3.33,2.082-7.557,6.468-10.656l.082-.074a43.338,43.338,0,0,1-4.283-3.447,51.763,51.763,0,0,0,6.2,2.536c5.783-3.292-.34-14.93-5.2-22.907a39.084,39.084,0,0,0-6.184-9.607,10.77,10.77,0,0,0-.951,1.2,11.136,11.136,0,0,1-.422,1.1,57.475,57.475,0,0,0-.019,11.149,36.667,36.667,0,0,1-2.366-8.1C964.033,212.668,961.32,212.816,960.462,216.656Z" transform="translate(-960.042 -205.565)" fill="#fff" fill-rule="evenodd"/>
        </g>
      </g>
      <g id="Group_3546" data-name="Group 3546" transform="translate(1149.823 278.121)">
        <g id="Group_3542" data-name="Group 3542" transform="translate(1.455 5.258)">
          <path id="Path_10670" data-name="Path 10670" d="M972.985,273.542c-1.883-1.36-2.084-4.182-3.479-5.281-3.316,4.116-5.024,13.919-4.838,19.333.12,3.5,26.465,33.687,15.666,10.371.866-1.206-.186-6.075,3.593-11.118.767-1.025,1.843-1.686,2.408-2.69-1.511-4.782-3.948-7.459-2.653-15.013.871-5.079,3.794-8.014,8.011-10.233-1.028-5.263-3.789-11.7,1.49-18.908,7.934-10.847,23.061-9.3,29.309,2.337,2.475,4.612.868,3.667,6.71,5.087,1.986.483,7.873,1.6,9.094,2.881-2.836,2.435-11.433.589-14.859-.852-2.777-1.168-9.315-5.032-9.8-7.8l5.026,2.281c-.81-2.931-4.92-5.961-7.756-6.859-10.239-3.234-22.965,7.591-14.357,23.364,8.045,14.731,25.153,18.685,40.737,18.226,22.891-.674,21.5-21.635,11.577-33.738-7.2-8.776-17.222-13.688-27.843-16.89-11.805-3.561-7.066-.47-11.439.212,3.574-14.322,14.535-32.091,4.227-49.605a29.77,29.77,0,0,0-16.954-13.842c-11.577-3.683-16.8.117-15.969,12.132,1.4,20.111,13.284,27.649,4.365,49.751-5.937,14.713-14.113,20.913-13.072,33.116C972.454,262.966,973.771,270.99,972.985,273.542Z" transform="translate(-964.655 -163.458)" fill="#fff" fill-rule="evenodd"/>
        </g>
        <g id="Group_3543" data-name="Group 3543" transform="translate(0 0)">
          <path id="Path_10671" data-name="Path 10671" d="M1032.4,327.132c11.455-3.81,15.276-10.263,13.725-22.7,9.1-6.912,10.632-12.408,9.535-23.857-.229-2.376,1.288-3.539,2.488-5.775a19.314,19.314,0,0,0,1.991-6.673c1.136-13.128-8.566-25.079-19.1-32.033-8.343-5.5-15.43-7.257-24.8-9.87,6.89-14.936,11.7-30.5,3.492-46.207a34.5,34.5,0,0,0-14.516-14.593c-6.383-3.513-16.686-5.99-23.138-1.585-12.456,8.507-1.652,33.448,1.553,44.956,4.556,16.362-9.9,32.094-13.677,43.684-1.811,5.565-.282,8.654-.839,13.337a15.139,15.139,0,0,1-1.641,4.394h0c-7.312,15.639-3.125,38.132,16.911,41.337a22.584,22.584,0,0,0,3.077,3.988c11.983,11.165,29.261,16.813,44.943,11.6Zm-62.154-55.6c1.394,1.1,1.766,3.927,3.648,5.287.786-2.552-.531-10.576-.8-13.736-1.041-12.2,7.135-18.4,13.072-33.116,8.919-22.1-2.963-29.641-4.365-49.751-.836-12.015,4.392-15.815,15.969-12.132a29.77,29.77,0,0,1,16.954,13.842c10.308,17.514-.653,35.283-4.227,49.605,4.373-.682-.366-3.773,11.439-.212,10.621,3.2,20.642,8.114,27.843,16.89,9.928,12.1,11.314,33.063-11.577,33.738-15.583.459-32.691-3.494-40.737-18.226-8.608-15.772,4.118-26.6,14.357-23.364,2.836.9,6.946,3.927,7.756,6.859l-5.026-2.281c.48,2.767,7.018,6.63,9.8,7.8,3.425,1.442,12.023,3.287,14.859.852-1.221-1.277-7.108-2.4-9.094-2.881-5.842-1.421-4.235-.475-6.71-5.087-6.248-11.641-21.375-13.183-29.309-2.337-5.279,7.212-2.517,13.645-1.49,18.908-4.217,2.22-7.14,5.154-8.011,10.233-1.3,7.554,1.142,10.231,2.653,15.013-.566,1-1.641,1.665-2.408,2.69-3.983,5.18-4.488,11.925-2.167,17.942-11.728-6.673-18.5-20.634-12.424-36.534Zm16.327,36.215c-3.436-8.006,1.046-18.122,3.84-16.232,5.435,3.675,4.663,4.9,14.206,9.187,8.468,3.8,19.028,6.888,28.451,6.718,1.62-.029,9-1.317,9.485-1.134.8,2.549-.1,7.567-1.25,10.074-1.3,2.838-3.194,4.2-5.921,5.528-17.328,8.43-44.7-4.559-48.809-14.142Zm65.707-25.5c.271,9.516-1.726,17.79-12.068,20.238-14.394,3.409-39.94-5.1-47.768-14.755-4.8-5.921-6.481-18.013,1.962-21.669,1.118,1.065,3.037,4.19,4.325,5.733,9.811,11.765,31.736,16.2,46.183,13.239a23.8,23.8,0,0,0,4.028-1.134C1050.36,283.315,1050.934,282.51,1052.277,282.247Z" transform="translate(-964.107 -161.478)" fill="#595959" fill-rule="evenodd"/>
        </g>
        <g id="Group_3544" data-name="Group 3544" transform="translate(24.349 104.583)">
          <path id="Path_10672" data-name="Path 10672" d="M1037.1,217.051c-1.344.263-1.917,1.067-3.337,1.652a23.8,23.8,0,0,1-4.028,1.134c-14.447,2.961-36.372-1.474-46.183-13.239-1.288-1.543-3.208-4.668-4.325-5.733-8.444,3.656-6.76,15.748-1.962,21.669,7.828,9.657,33.374,18.165,47.768,14.755C1035.372,234.842,1037.369,226.568,1037.1,217.051Z" transform="translate(-973.277 -200.865)" fill="#fff" fill-rule="evenodd"/>
        </g>
        <g id="Group_3545" data-name="Group 3545" transform="translate(21.22 129.808)">
          <path id="Path_10673" data-name="Path 10673" d="M1029.323,225.367c-.489-.183-7.865,1.1-9.485,1.134-9.423.17-19.983-2.915-28.451-6.718-9.543-4.288-8.77-5.512-14.206-9.187-2.793-1.891-7.275,8.226-3.84,16.232,5.388,12.562,31.76,22.437,48.809,14.142,2.727-1.328,4.623-2.69,5.921-5.528C1029.222,232.934,1030.125,227.916,1029.323,225.367Z" transform="translate(-972.099 -210.365)" fill="#fff" fill-rule="evenodd"/>
        </g>
      </g>
      <g id="Group_3573" data-name="Group 3573" transform="translate(1082.397 622.085)">
        <g id="Group_3547" data-name="Group 3547" transform="translate(4.943)">
          <path id="Path_10674" data-name="Path 10674" d="M997.129,291.088l.027-.069,2.939.181a59.045,59.045,0,0,1,7.788.985c10.722,2.066,20.2,7.233,27.073,15.9,8.351,10.536,11.242,24.181,10.4,37.389-.064.982-.146,1.968-.25,2.947a84.962,84.962,0,0,1-12.8,35.971q-1.067,1.7-2.2,3.34c-4.089,5.932-9.185,11.51-14.038,16.829q-.844.924-1.689,1.845-2.246,2.45-4.479,4.912c1.519,5.958,14.657,14.089,18.794,16.55,5.77,3.428,11.734,6.484,17.719,9.514l.539.271c4.017-.584,8.051-1.067,12.02-1.29,5.366-.3,13.611-.369,16.84,4.843a9.242,9.242,0,0,1,.714,7.631l-.035.112a18.1,18.1,0,0,1-4.8,8.077c-3.547,3.247-8.274,4.185-12.926,4.466a118.394,118.394,0,0,1-17.421-.643,13.54,13.54,0,0,1-2.124,5.523c-7.4,11.094-28.905,8.746-40.02,6.495a106.394,106.394,0,0,1-11.529-3.011c-7.472-2.1-15.408-4.386-22.418-7.721-5.8-2.759-11.489-6.561-14.482-12.44-3.426-6.723-2.318-14.134.252-20.923.536-2.488-.072-4.9-.351-7.376a33.463,33.463,0,0,1-6.171-8.576,13.526,13.526,0,0,1-1.208-2.716c-7.336-18.5,1.628-42.561,9.577-59.5,4.2-8.935,8.946-17.6,13.853-26.162,3.752-6.543,7.729-13.066,11.269-19.721.735-2.137,1.468-4.278,2.177-6.426.165-.5.356-1.041.534-1.585l-2.594-3.794,6.439-.99c.9-.13,1.808-.252,2.714-.35l.072-.008c.85-.093,1.7-.181,2.552-.244l.218-.019q1.175-.092,2.358-.149l.353-.016q1.075-.048,2.151-.061l.555-.005C996.059,291.072,996.592,291.077,997.129,291.088Z" transform="translate(-940.575 -291.019)" fill="#337321" fill-rule="evenodd"/>
        </g>
        <g id="Group_3548" data-name="Group 3548" transform="translate(75.769 9.277)">
          <path id="Path_10675" data-name="Path 10675" d="M967.249,294.513c17.5,6.147,30.281,27.009,24.3,51.111C992.628,327.43,979.7,304.855,967.249,294.513Z" transform="translate(-967.249 -294.513)" fill="#d6e164" fill-rule="evenodd"/>
        </g>
        <g id="Group_3549" data-name="Group 3549" transform="translate(8.999 4.12)">
          <path id="Path_10676" data-name="Path 10676" d="M1003.657,410.382c3.728,10.942,28.244,22.9,40.124,28.934,15.825-2.35,28.924-3.144,26.316,5.823-3.33,10.353-10.294,11.017-34.38,8.778a6.646,6.646,0,0,1-.834.759c1.458,16.872-27.591,15.515-48.564,8.725-25.535-7.169-42.471-13.839-33.926-36.008,1.03-4.232-.26-7.108-.305-10.406a29.47,29.47,0,0,1-6.537-8.677,9.136,9.136,0,0,1-.945-2.124c-12.084-30.023,22.915-80.348,34.6-102.408,2.172-6.306,3.473-10.252,3.377-10.393h0l.024-.005q1.3-.187,2.575-.332l.072-.008q1.227-.139,2.424-.234l.218-.019q1.127-.088,2.225-.138l.356-.019q1.011-.04,2-.056l.555-.005q.86,0,1.7.013c.266.005.531.013.8.021.475.016.948.034,1.415.061l.369.024,0-.005c.112.005.22.019.332.026h.034l.016,0,.316.021c.3.024.605.048.905.074l.016,0h.016l.016,0c.284.024.563.053.842.082h.021l.021,0,.021,0,.547.061.359.042.01,0h.021l.01,0,.011,0h.01c.351.042.7.09,1.046.138l.024.005.024,0c.244.034.483.072.725.109l.048.008a47.15,47.15,0,0,1,10.674,2.955l.005,0q.765.315,1.508.659l.027.013c.483.22.956.451,1.423.688l.08.04c.457.234.9.475,1.346.722l.1.053c.438.25.871.5,1.3.762l.09.056q.633.39,1.245.8l.106.072c.406.273.8.552,1.2.842l.09.064c.4.295.786.592,1.171.9l.059.048q.586.47,1.155.961l.013.013a40.254,40.254,0,0,1,10.653,14.888l.029.064c.186.443.364.89.536,1.341l.056.146c.165.428.319.86.47,1.293l.08.228q.211.625.406,1.259l.09.287c.125.414.244.834.361,1.253l.085.311c.109.406.212.818.311,1.227l.093.382c.093.406.183.813.268,1.221l.077.382c.085.409.162.823.234,1.237l.069.4c.069.409.135.823.194,1.237l.059.419q.088.621.159,1.251l.042.4c.048.427.088.855.125,1.288l.032.393c.032.433.064.868.088,1.306l.019.385c.024.446.042.889.056,1.338l.005.361c.01.457.016.913.016,1.373l0,.3c0,.489-.008.974-.021,1.466v.019a67.775,67.775,0,0,1-.786,8.46l-.05.353c-.066.406-.138.815-.21,1.224-.037.207-.072.414-.111.621-.066.369-.144.736-.218,1.1-.048.244-.1.489-.149.733-.074.358-.156.714-.239,1.07-.058.255-.114.507-.175.762-.085.356-.175.712-.265,1.07-.064.255-.13.512-.2.77-.09.34-.186.68-.281,1.02q-.115.422-.239.844c-.1.329-.194.656-.295.985-.085.281-.173.56-.263.842-.106.34-.218.677-.332,1.014-.09.276-.183.55-.276.823-.117.337-.237.674-.356,1.009l-.3.828c-.125.337-.252.672-.382,1.006-.109.279-.218.56-.332.839-.13.327-.263.651-.4.977q-.183.442-.374.884c-.13.308-.263.613-.4.921s-.281.627-.425.943c-.133.289-.266.581-.4.871-.151.324-.308.648-.465.969-.138.281-.273.563-.412.842-.167.335-.34.666-.51,1-.138.268-.276.536-.417.8-.186.351-.377.7-.566,1.044-.138.252-.274.5-.414.754-.2.353-.4.7-.6,1.054-.141.247-.281.494-.428.741-.22.374-.449.746-.677,1.118-.133.218-.26.435-.4.653-.292.467-.592.935-.9,1.4l-.226.353q-.578.884-1.187,1.766h0l-.212.308h0l-.215.313h0l-.22.313v0l-.223.316h0l-.228.313h0l-.231.316h0l-.234.319h0l-.236.319,0,0-.239.319h0l-.244.321h0l-.247.321h0l-.25.321h0l-.252.324-.255.324v0l-.257.327h0l-.26.324h0l-.263.327h0l-.263.327v0l-.268.329h0l-.271.327h0l-.271.329h0l-.276.329-.276.329h0l-.279.332h0l-.279.329h0l-.281.332h0l-.284.332-.284.332-.29.335-.289.332h0l-.29.335h0l-.292.335-.295.334-.295.335-.295.335-.3.335-.3.335-.3.335-.3.337-.3.337-.3.335h0l-.3.337-.305.334h0l-.305.337-.3.337-.308.334-.305.337h0l-.305.337-.308.335h0l-.305.337-.308.335-.308.335-.305.337-.308.335-.308.334-.305.335-.308.335-.305.335-.305.332-.305.335-.305.332-.3.332-.305.332-.3.332c-4.809,5.518-13.29,7.91-19.71,7.613,0,0,10.727,2.185,17.126-1.187Zm33.063,30.036c-8.33-2.146-20.992-5.579-39.4-10.592-.422-.127-.844-.255-1.264-.388,4.219,7.148,15.653,9.017,25.506,13.3C1026.434,442.1,1031.617,441.242,1036.721,440.418Z" transform="translate(-942.103 -292.571)" fill="#54c247" fill-rule="evenodd"/>
        </g>
        <g id="Group_3550" data-name="Group 3550" transform="translate(8.999 4.12)">
          <path id="Path_10677" data-name="Path 10677" d="M949.105,361.157c8.73-22.317,23.326-44.592,30.1-57.377,2.172-6.306,3.473-10.252,3.377-10.393h0l.024-.005q1.3-.187,2.575-.332l.072-.008q1.227-.139,2.424-.234l.218-.019q1.127-.088,2.225-.138l.356-.019q1.011-.04,2-.056l.555-.005q.86,0,1.7.013c.266.005.531.013.8.021.475.016.948.034,1.415.061l.369.024,0-.005c.112.005.22.019.332.026h.034l.016,0,.316.021c.3.024.605.048.905.074l.016,0h.016l.016,0c.284.024.563.053.842.082h.021l.021,0,.021,0,.547.061.359.042.01,0h.021l.01,0,.011,0h.01c.351.042.7.09,1.046.138l.024.005.024,0c.244.034.483.072.725.109l.048.008a47.15,47.15,0,0,1,10.674,2.955l.005,0q.765.315,1.508.659l.027.013c.483.22.956.451,1.423.688l.08.04c.457.234.9.475,1.346.722l.1.053c.438.25.871.5,1.3.762l.09.056q.633.39,1.245.8l.106.072c.406.273.8.552,1.2.842l.09.064.319.239q-1.191,4.839-2.788,9.6a118.024,118.024,0,0,1-37.28,54.17c-19.179,15.539-45.439,15.584-32.458,47.84a9.326,9.326,0,0,0,.945,2.127c.207.417.425.831.65,1.237a29.208,29.208,0,0,1-5.735-7.913,9.136,9.136,0,0,1-.945-2.124c-5.082-12.623-1.837-28.839,4.5-45.03Z" transform="translate(-942.103 -292.571)" fill="#0db02b" fill-rule="evenodd"/>
        </g>
        <g id="Group_3551" data-name="Group 3551" transform="translate(89.94 20.461)">
          <path id="Path_10678" data-name="Path 10678" d="M972.586,298.725c12.039,10.512,14.28,30.461,1.922,45.761C979.1,330.607,978.276,309.181,972.586,298.725Z" transform="translate(-972.586 -298.725)" fill="#98da91" fill-rule="evenodd"/>
        </g>
        <g id="Group_3558" data-name="Group 3558" transform="translate(34.15 87.506)">
          <g id="Group_3552" data-name="Group 3552" transform="translate(20.719 3.003)">
            <path id="Path_10679" data-name="Path 10679" d="M959.378,332.018c8.839,11.856,10.528,1.306,10.932-6.912C967.891,334.426,967.761,338.725,959.378,332.018Z" transform="translate(-959.378 -325.106)" fill="#0db02b" fill-rule="evenodd"/>
          </g>
          <g id="Group_3557" data-name="Group 3557">
            <g id="Group_3553" data-name="Group 3553" transform="translate(7.103)">
              <path id="Path_10680" data-name="Path 10680" d="M971.35,328.537c-6.7,19.094-13.218,6.006-17.1-4.562C961.212,335.159,963.14,340.722,971.35,328.537Z" transform="translate(-954.25 -323.975)" fill="#0db02b" fill-rule="evenodd"/>
            </g>
            <g id="Group_3554" data-name="Group 3554" transform="translate(16.155 13.194)">
              <path id="Path_10681" data-name="Path 10681" d="M967.874,328.944c-.088,11.71-6.107,5.767-10.215.712C963.567,334.47,965.667,337.154,967.874,328.944Z" transform="translate(-957.659 -328.944)" fill="#0db02b" fill-rule="evenodd"/>
            </g>
            <g id="Group_3555" data-name="Group 3555" transform="translate(0 7.151)">
              <path id="Path_10682" data-name="Path 10682" d="M965.343,330.343c-5.4,15.374-10.64,4.835-13.768-3.675C957.183,335.675,958.734,340.151,965.343,330.343Z" transform="translate(-951.575 -326.668)" fill="#0db02b" fill-rule="evenodd"/>
            </g>
            <g id="Group_3556" data-name="Group 3556" transform="translate(9.32 17.349)">
              <path id="Path_10683" data-name="Path 10683" d="M965.3,330.509c-.088,11.707-6.107,5.767-10.215.706C960.993,336.035,963.093,338.716,965.3,330.509Z" transform="translate(-955.085 -330.509)" fill="#0db02b" fill-rule="evenodd"/>
            </g>
          </g>
        </g>
        <g id="Group_3572" data-name="Group 3572" transform="translate(0 119.257)">
          <g id="Group_3559" data-name="Group 3559">
            <path id="Path_10684" data-name="Path 10684" d="M1044.529,343.506q1.525-.813,3.181-1.519a11.73,11.73,0,0,1,7.809-.972c2.918.539,6.88,2.209,8.468,5.034.372.1.738.207,1.107.313a13.53,13.53,0,0,1,4.968.045c2.748.507,6.42,2.018,8.167,4.549q1.179.462,2.315.919l.125.05.122.061c7.3,3.531,18.579,9.739,25,17.687l.048.021.651.866a24.637,24.637,0,0,1,2.129,3.346,16.951,16.951,0,0,1,2.095,7.477c.122,4.055-1.444,8.053-4.933,11.744l-.082.088h0l-.069.072-.072.069a83.605,83.605,0,0,1-22.485,15.637,92.367,92.367,0,0,1-24.981,7.1,284.923,284.923,0,0,1-32.046,2.568l-.085,0h-.082c-10.488-.04-21.027-.345-31.481-1.224a171.413,171.413,0,0,1-24.758-3.64c-10.031-2.361-23.671-7-27.45-17.766a18.044,18.044,0,0,1-.9-7.74q.08-.829.22-1.657c-7-12.631-.125-29.71,11.922-33.631l1.128-.366,1.145.321a129.122,129.122,0,0,0,39.061,4.437c-1.261-2.376-2.331-4.854-2.09-7.626.595-6.811,8.624-9.628,14.182-11.173,9.227-2.565,19.1-4.394,28.1-.061a46.472,46.472,0,0,1,7.913,5.117Q1043.7,343.561,1044.529,343.506Z" transform="translate(-938.714 -335.933)" fill="#212121" fill-rule="evenodd"/>
          </g>
          <g id="Group_3560" data-name="Group 3560" transform="translate(57.876 3.971)">
            <path id="Path_10685" data-name="Path 10685" d="M1008.291,347.3c-10.533-8.093-15.273-13.157-36.451-7.4-23.175,6.569-2.992,15.05-6.734,24.492C965.106,364.392,1008.521,347.2,1008.291,347.3Z" transform="translate(-960.51 -337.428)" fill="#e62129" fill-rule="evenodd"/>
          </g>
          <g id="Group_3561" data-name="Group 3561" transform="translate(61.945 8.907)">
            <path id="Path_10686" data-name="Path 10686" d="M1005.754,344.22c-1.259-.966-2.435-1.89-3.566-2.756-6.224-2.8-13.736-3.2-27.57.566-17.981,5.1-12.448,11.232-8.906,18.04C975.68,356.124,1005.945,344.141,1005.754,344.22Z" transform="translate(-962.043 -339.287)" fill="#c7252e" fill-rule="evenodd"/>
          </g>
          <g id="Group_3562" data-name="Group 3562" transform="translate(4.691 11.388)">
            <path id="Path_10687" data-name="Path 10687" d="M951.732,349.633c24.32,6.827,56.058,6.872,76-4.275,11.922-9.033,28.43-4.965,48.427,3.059,18.653,9.022,35.644,22.554,23.783,34.994-20.631,19.513-39.569,22.8-76.968,24.232-54.406-.207-85.236-8.138-80.242-28.756C937.386,370.3,942.022,352.793,951.732,349.633Z" transform="translate(-940.48 -340.222)" fill="#e62129" fill-rule="evenodd"/>
          </g>
          <g id="Group_3563" data-name="Group 3563" transform="translate(4.694 20.8)">
            <path id="Path_10688" data-name="Path 10688" d="M1094.856,354.18c8.595,7.294,12.541,15.544,5.085,23.364-20.631,19.513-39.569,22.8-76.968,24.232-54.406-.207-85.236-8.138-80.242-28.756a10.671,10.671,0,0,1-1.949-5.409q-.123-.713-.194-1.45l-.005-.024h0c-.858-8.853,3.616-19.92,11.144-22.371q1.92.538,3.9,1.02c-2.735,1.336-5.637,3.914-7.767,8.784-10.151,23.191,38.594,30.91,52.229,32.293a185.915,185.915,0,0,0,50.572-2.159c7.074-1.434,15.432-3.879,20.714-9.11,3.444-3.415,5.024-7.509,7.74-11.37a20.889,20.889,0,0,1,8.669-7.3A11.175,11.175,0,0,1,1094.856,354.18Z" transform="translate(-940.482 -343.766)" fill="#c7252e" fill-rule="evenodd"/>
          </g>
          <g id="Group_3564" data-name="Group 3564" transform="translate(6.418 35.244)">
            <path id="Path_10689" data-name="Path 10689" d="M1099.358,350.943c4.291,5.722,5.055,11.779-.491,17.6-20.631,19.513-39.569,22.8-76.968,24.232-54.406-.207-85.236-8.138-80.242-28.756-.106-.173-.207-.348-.305-.526,31.366,16.925,67.868,22.365,109.043,15.191,32.636-6.617,24.216-21.964,38.254-28.18C1092.329,348.081,1095.933,349.541,1099.358,350.943Z" transform="translate(-941.131 -349.206)" fill="#f0eada" fill-rule="evenodd"/>
          </g>
          <g id="Group_3565" data-name="Group 3565" transform="translate(59.784 10.836)">
            <path id="Path_10690" data-name="Path 10690" d="M1007.383,340.652c-11.235-4.033-32.742,12.307-46.154,13.59C977.291,357.566,988.647,347.535,1007.383,340.652Z" transform="translate(-961.229 -340.013)" fill="#212121" fill-rule="evenodd"/>
          </g>
          <g id="Group_3568" data-name="Group 3568" transform="translate(93.661 10.306)">
            <g id="Group_3566" data-name="Group 3566" transform="translate(14.872 4.408)">
              <path id="Path_10691" data-name="Path 10691" d="M990.1,362.36c-2.6,6.2-12.376,2.106-10.2-3.255,5.356-8.144,10.252-13.136,17.137-16.563,4.346-3.069,14.452,1.192,10.663,3.829C999.645,349.963,993.745,356.4,990.1,362.36Z" transform="translate(-979.589 -341.474)" fill="#c7252e" fill-rule="evenodd"/>
            </g>
            <g id="Group_3567" data-name="Group 3567">
              <path id="Path_10692" data-name="Path 10692" d="M984.5,360.7c-2.6,6.2-12.376,2.106-10.2-3.255,5.356-8.144,10.249-13.136,17.137-16.563,4.347-3.069,14.453,1.192,10.664,3.829C994.044,348.3,988.144,354.742,984.5,360.7Z" transform="translate(-973.987 -339.814)" fill="#c7252e" fill-rule="evenodd"/>
            </g>
          </g>
          <g id="Group_3571" data-name="Group 3571" transform="translate(92.12 8.749)">
            <g id="Group_3569" data-name="Group 3569" transform="translate(14.543 5.391)">
              <path id="Path_10693" data-name="Path 10693" d="M989.266,361.392c-3.011,6.017-12.488,1.275-9.957-3.927,5.889-7.769,11.107-12.424,18.2-15.385,4.543-2.772,14.341,2.156,10.387,4.532C999.619,349.659,993.3,355.692,989.266,361.392Z" transform="translate(-978.884 -341.258)" fill="#f0eada" fill-rule="evenodd"/>
            </g>
            <g id="Group_3570" data-name="Group 3570">
              <path id="Path_10694" data-name="Path 10694" d="M983.786,359.361c-3.011,6.017-12.485,1.277-9.955-3.927,5.887-7.769,11.1-12.424,18.2-15.382,4.543-2.775,14.341,2.153,10.385,4.53C994.142,347.627,987.825,353.66,983.786,359.361Z" transform="translate(-973.407 -339.228)" fill="#f0eada" fill-rule="evenodd"/>
            </g>
          </g>
        </g>
      </g>
      <g id="Group_3578" data-name="Group 3578" transform="translate(936.809 499.325)">
        <g id="Group_3574" data-name="Group 3574">
          <path id="Path_10695" data-name="Path 10695" d="M932.659,273.558c-3.656,6.2-8.5,12.2-12.772,18-3.871,5.26-8.627,11.755-11.024,17.83l-.085.212-.22.406-.133.186a8.577,8.577,0,0,1-4.055,3.123c-4.787,1.742-10.138-1.057-13.73-4.113-3.547-3.016-8.011-8.616-6.428-13.613l.069-.218.191-.414.117-.194c8.571-13.953,14.609-31.449,19.583-46.99l.643-2.007,4.1-.98,1.481,1.5q5.516,5.58,11.011,11.189,3.792,3.867,7.554,7.764c.836.868,1.673,1.742,2.493,2.626.258.279.512.558.759.844A4.014,4.014,0,0,1,932.659,273.558Z" transform="translate(-883.883 -244.786)" fill="#337321" fill-rule="evenodd"/>
        </g>
        <g id="Group_3577" data-name="Group 3577" transform="translate(3.743 4.126)">
          <g id="Group_3575" data-name="Group 3575">
            <path id="Path_10696" data-name="Path 10696" d="M927.243,268.851c-6.022,10.313-19.665,25.116-24.192,36.592-5.1,7.116-19.367-5.746-17.61-11.3,8.861-14.426,15.539-34.006,19.957-47.808,0,0,22.092,22.344,21.845,22.511Zm-4.235,6.436c-3.269-.409-11.938-5.584-16.959-10.592-16.558,34.173-6.5,26.42-11.545,36.658,3.792,2.56,6.858,5.807,9.216,2.515C906.466,296.907,918.776,280.885,923.008,275.288Zm0,0c-3.269-.409-11.938-5.584-16.959-10.592-16.558,34.173-6.5,26.42-11.545,36.658,3.792,2.56,6.858,5.807,9.216,2.515C906.466,296.907,918.776,280.885,923.008,275.288Z" transform="translate(-885.293 -246.34)" fill="#54c247" fill-rule="evenodd"/>
          </g>
          <g id="Group_3576" data-name="Group 3576" transform="translate(7.953)">
            <path id="Path_10697" data-name="Path 10697" d="M922.865,269.1l-4.761,6.118c-2.432-.151-11.991-5.51-17.012-10.517-3.221,6.646-5.43,11.7-6.944,15.618l-5.86-1.174a317.18,317.18,0,0,0,12.153-32.8S923.112,268.931,922.865,269.1Z" transform="translate(-888.288 -246.34)" fill="#0db02b" fill-rule="evenodd"/>
          </g>
        </g>
      </g>
      <g id="Group_3579" data-name="Group 3579" transform="translate(1111.455 432.702)">
        <path id="Path_10698" data-name="Path 10698" d="M954.1,219.7c.167.064.334.13.5.2,9.917,5.621,19.259,11.93,25.817,21.579,5.258,6.341,2.677,13.106-2.91,16.117-7.047-12.068-13.924-22.275-27.28-27.686l0-.008C948.587,224.554,950.652,221,954.1,219.7Z" transform="translate(-949.657 -219.695)" fill="#a92f33" fill-rule="evenodd"/>
      </g>
      <g id="Group_3580" data-name="Group 3580" transform="translate(883.477 546.579)">
        <path id="Path_10699" data-name="Path 10699" d="M888.383,292.793c5.027-6.261,5.528-16.771,4.835-22.955-1.243-7.639-23.337-7.376-29.42-7.2C863.8,262.643,888.155,292.838,888.383,292.793Z" transform="translate(-863.798 -262.582)" fill="#337321" fill-rule="evenodd"/>
      </g>
      <g id="Group_3581" data-name="Group 3581" transform="translate(894.491 559.678)">
        <path id="Path_10700" data-name="Path 10700" d="M921.691,309.963c4.424-12.283-.358-28.717-4.689-37.859-5.945-11.1-39.792.98-49.056,4.469C867.946,276.573,921.362,310.154,921.691,309.963Z" transform="translate(-867.946 -267.516)" fill="#337321" fill-rule="evenodd"/>
      </g>
      <g id="Group_3582" data-name="Group 3582" transform="translate(940.788 553.478)">
        <path id="Path_10701" data-name="Path 10701" d="M945.146,304.835c-3.2-16.155-19.041-30.809-29.665-37.877-21.537-11.75-22.354,38.228-30.1,48.015C885.382,314.973,944.915,305.255,945.146,304.835Z" transform="translate(-885.382 -265.181)" fill="#337321" fill-rule="evenodd"/>
      </g>
      <g id="Group_3583" data-name="Group 3583" transform="translate(851.909 413.762)">
        <path id="Path_10702" data-name="Path 10702" d="M1152.568,329.069a122.686,122.686,0,0,1,23.414,65.051,118.039,118.039,0,0,1-14.386,64.167,107.528,107.528,0,0,1-68.043,52.346c-53.028,15.3-107.615,3.768-154.22-24.184-38.068-22.83-59.65-66.878-70.072-108.5a197.682,197.682,0,0,0-12.121-34.4c-1.4-3.075-2.977-6.248-4.139-9.41-1.091-2.966-1.79-6.229.027-9.1a7.318,7.318,0,0,1,2.913-2.6l.1-.05.207-.093.106-.042c11.168-4.387,30.642,14.835,36.446,23.119,9.915,14.145,22.867,30.334,39.654,36.411,10.573,3.826,21.558,3.316,32.349.7,24.136-5.85,44.7-19.352,53.949-43.148,6.466-16.635,6.091-35.264,1.4-52.3a113.739,113.739,0,0,0-29.487-49.982l-.122-.127c-4.965-5.295-9.848-10.685-14.784-16.008l-2.225-2.4,2.711-5.961,75.815,2.334,1.461.523,1.951,1.5.627.712.241.409c12.374,21.1,28.225,37.678,45.867,54.342,15.615,14.75,32.4,29.4,44.561,47.25C1148.851,322.686,1150.792,325.83,1152.568,329.069Z" transform="translate(-851.909 -212.562)" fill="#337321" fill-rule="evenodd"/>
      </g>
      <g id="Group_3584" data-name="Group 3584" transform="translate(856.825 418.781)">
        <path id="Path_10703" data-name="Path 10703" d="M1049.037,217.4c29.306,49.972,74.782,71.655,96.306,111.181,46.164,63.147,19.925,154.586-56.219,174.2-56.5,16.311-110.344.3-150.327-23.677C913,463.631,885.4,431.28,870.968,373.626c-8.842-35.312-21.324-47.176-15.878-49.924,7.14-2.8,24.6,12.769,30.623,21.364,22.352,31.892,42.946,47.367,77.185,39.072,79.416-19.24,76.859-105.4,28.172-153.7-2.244-2.39-7.9-8.584-14.766-15.985l71.771,2.207Z" transform="translate(-853.76 -214.452)" fill="#54c247" fill-rule="evenodd"/>
      </g>
      <g id="Group_3585" data-name="Group 3585" transform="translate(941.967 627.608)">
        <path id="Path_10704" data-name="Path 10704" d="M1002.206,378.728c-43.812,3.378-84.493-10.645-116.38-29.744a57.834,57.834,0,0,1,3.364-18.252c8.234-22.809,31.356-28.4,54.629-32.962,7.058-3.043,7.878-5.536,15.576-4.384,11.869,1.776,25.1,4.187,32.272,13.051,16.842,20.825,23.146,39.954,13.741,65.447A43.44,43.44,0,0,1,1002.206,378.728Z" transform="translate(-885.826 -293.099)" fill="#0db02b" fill-rule="evenodd"/>
      </g>
      <g id="Group_3586" data-name="Group 3586" transform="translate(987.236 448.164)">
        <path id="Path_10705" data-name="Path 10705" d="M986.51,225.518c24.073,28.706,52.285,47.824,70.529,73.566l4.559,6.935q1.271,2.087,2.448,4.243a118.981,118.981,0,0,1,16.433,31.324,53.6,53.6,0,0,1-11.131,10.2c-12.166,8.656-27.577,15.1-41.817,19.367a181.11,181.11,0,0,1-57.566,7.69c-21.518-.725-42.54-5.722-61.6-15.865-.058-.032-.106-.058-.162-.093a17.308,17.308,0,0,1-5.324-4.695c43.52-21.6,50.187-69.759,31.537-110.716a70.981,70.981,0,0,0,29.993,4.41,2.7,2.7,0,0,1,1.3.191c5.709,2.3,11,5.425,14.986,10.188a31.031,31.031,0,0,1,3.263,4.764,36.643,36.643,0,0,0-6.726-15.913,2.819,2.819,0,0,1,1.354-4.331c2.331-.8,5.592-1.957,7.19-3.962a12.428,12.428,0,0,0,1.4-2.35c-1.02-1.33-2.212-2.61-3.306-3.816a48.187,48.187,0,0,1-4.724-5.754,2.819,2.819,0,0,1,1.527-4.232A26.1,26.1,0,0,1,986.51,225.518Z" transform="translate(-902.875 -225.518)" fill="#0db02b" fill-rule="evenodd"/>
      </g>
      <g id="Group_3587" data-name="Group 3587" transform="translate(972.925 543.652)">
        <path id="Path_10706" data-name="Path 10706" d="M1079.964,261.48c36.093,62.319,8.709,144.932-63.216,163.455-42.93,12.392-84.32,6.126-119.263-8.114,105.193,2.568,170.9-28.217,152.09-148.553C1050.321,267.77,1063.528,264.908,1079.964,261.48Z" transform="translate(-897.485 -261.48)" fill="#54c247" fill-rule="evenodd"/>
      </g>
      <g id="Group_3588" data-name="Group 3588" transform="translate(1141.018 549.916)">
        <path id="Path_10707" data-name="Path 10707" d="M978.552,263.839a127.8,127.8,0,0,1,6.181,14.66c-4.363,4.91-8.773,7.953-16.951,13.619l-6.991-16.439Z" transform="translate(-960.791 -263.839)" fill="#0db02b" fill-rule="evenodd"/>
      </g>
      <g id="Group_3589" data-name="Group 3589" transform="translate(894.571 419.673)">
        <path id="Path_10708" data-name="Path 10708" d="M1100.138,486.378c-53.285,37.6-130.2,25.2-184.872-7.833-16.274-9.83-33.326-26.3-47.29-51.692,61.453,69.716,177.891,69.254,191.707-6.123,9.131-59.212-22.5-143.766-77.892-205.941l41.616,1.28C1013.93,233.324,1231.4,385.8,1100.138,486.378Z" transform="translate(-867.976 -214.788)" fill="#fff7a0" fill-rule="evenodd"/>
      </g>
      <g id="Group_3590" data-name="Group 3590" transform="translate(941.967 665.589)">
        <path id="Path_10709" data-name="Path 10709" d="M1001.691,355.909c-39.893,2.262-82.106-10.233-115.865-30.6a58.553,58.553,0,0,1,2.209-14.668c42.365,19.946,90.1,19.11,118.432-3.237,4.57,12.469,4.591,25.488-1.06,40.8A42.621,42.621,0,0,1,1001.691,355.909Z" transform="translate(-885.826 -307.403)" fill="#f3ec8b" fill-rule="evenodd"/>
      </g>
      <g id="Group_3591" data-name="Group 3591" transform="translate(1048.066 448.368)">
        <path id="Path_10710" data-name="Path 10710" d="M965.48,376.554c-1.158-38.374-15.538-83.165-39.7-124.738q.354-.024.7-.056a2.7,2.7,0,0,1,1.3.191c5.709,2.3,11,5.425,14.986,10.188a31.031,31.031,0,0,1,3.263,4.764,36.643,36.643,0,0,0-6.726-15.913,2.819,2.819,0,0,1,1.354-4.331c2.331-.8,5.592-1.957,7.19-3.962a12.428,12.428,0,0,0,1.4-2.35c-1.02-1.33-2.212-2.61-3.306-3.816a48.187,48.187,0,0,1-4.724-5.754,2.819,2.819,0,0,1,1.527-4.232,28.024,28.024,0,0,1,4.049-.951c25.846,28.1,70.6,73.434,90.2,121.677a69.368,69.368,0,0,1-5.576,4.389c-12.166,8.656-27.577,15.1-41.817,19.367A187.524,187.524,0,0,1,965.48,376.554Z" transform="translate(-925.784 -225.595)" fill="#f3ec8b" fill-rule="evenodd"/>
      </g>
      <g id="Group_3592" data-name="Group 3592" transform="translate(914.132 597.198)">
        <path id="Path_10711" data-name="Path 10711" d="M1128.545,281.646c.39,2.2.733,4.4.985,6.6-45.06,11.688-76.58,3.741-76.58,3.741,30.1-.088,54.879-3.6,75.6-10.34ZM876.2,345.3c-.287-.321-.573-.643-.86-.969,3.284-2.823,5.257-4.19,5.257-4.19q-2.254,2.593-4.4,5.159Zm16.662,15.642q-.892-.717-1.784-1.452c4.941-5.884,8-8.847,8-8.847q-3.2,5.19-6.219,10.3Zm195.079,14.766q-1.207.852-2.432,1.668c-31.454-11.654-47.917-26.89-47.917-26.89,19.261,10.44,36.919,17.942,53.36,22.8-1,.81-1.965,1.625-3.011,2.427Zm37.752-49.037c-.8,2.331-1.718,4.652-2.743,6.962-46.854,2.138-76.259-12.358-76.259-12.358C1077.471,327.778,1103.357,329.406,1125.7,326.674Z" transform="translate(-875.343 -281.646)" fill="#f3ec8b" fill-rule="evenodd"/>
      </g>
      <g id="Group_3593" data-name="Group 3593" transform="translate(988.343 429.031)">
        <path id="Path_10712" data-name="Path 10712" d="M931.143,249.492c9.251,4.819,23.727,6.851,33.881,5.839a2.7,2.7,0,0,1,1.3.181c5.733,2.238,11.049,5.313,15.087,10.034a30.907,30.907,0,0,1,3.314,4.732,36.656,36.656,0,0,0-6.885-15.844,2.82,2.82,0,0,1,1.309-4.347c2.321-.828,5.571-2.013,7.151-4.033a12.173,12.173,0,0,0,1.37-2.363c-1.033-1.32-2.236-2.586-3.34-3.781a47.353,47.353,0,0,1-4.782-5.709,2.818,2.818,0,0,1,1.484-4.246c7.849-2.523,14.556-1.466,20.491,4.352,1.84,1.806,3.324,3.794,5,5.73a11.324,11.324,0,0,0,2.26,2.13,43.449,43.449,0,0,1,4.639-5.834,23.28,23.28,0,0,0,2.96-3.741c-3.646-10.586,6.189-17.214,16.075-12.989a2.776,2.776,0,0,1,.281.141c10.326,5.852,19.888,12.392,26.685,22.339,3.067,3.76,4.413,8.515,2.621,13.178a14.019,14.019,0,0,1-7.422,7.594c.027,12.511-3.348,26.576,3.019,38.013q7.914,11.777,15.828,23.557c4.729.879,10.151,2.907,11.707,7.846,2.663,8.449-8.361,17.649-14.208,21.9-12.076,8.778-27.423,15.379-41.618,19.787a181.01,181.01,0,0,1-57.484,8.268c-21.526-.5-42.6-5.289-61.761-15.241-.058-.029-.109-.056-.165-.09-3.1-1.88-6.774-4.716-6.646-8.746.087-2.862,2.076-5.1,4.182-6.813a54.685,54.685,0,0,1,8.574-5.366c16.824-11.03,15.8-33.464,4.153-47.824,3.231-10.483-.058-36.475,6.306-29.274.311.348-8.245-23.881-7.9-23.523a6.026,6.026,0,0,1,.568-3.351,5.487,5.487,0,0,1,4.153-2.812,2.8,2.8,0,0,1,3.144,1.853,13.534,13.534,0,0,0,1.428,2.663c.767,1.206,1.559,2.379,2.239,3.638A17.99,17.99,0,0,1,931.143,249.492Z" transform="translate(-903.292 -218.312)" fill="#b01c2e" fill-rule="evenodd"/>
      </g>
      <g id="Group_3594" data-name="Group 3594" transform="translate(991.162 431.855)">
        <path id="Path_10713" data-name="Path 10713" d="M1008.592,243.361c2-3.986,5.608-7.063,7.66-9.862a14.418,14.418,0,0,0,5.714,3.054,24.1,24.1,0,0,1-4.352-5.794c-3.722-8.94,4.251-13.627,11.975-10.324,9.917,5.619,19.259,11.93,25.817,21.577,5.958,7.188,1.848,14.917-5.289,17.113a21.1,21.1,0,0,0-6.9-3.266c4.394,3.059,5.674,4.894,6.811,6.867-.2,9.036-1.928,19.572.231,29.269-4.721-6.317-11.131-14.386-17.328-19.519,8.12,10.071,18.722,25.467,22.45,31.066l.042-.074,14.628,21.768c1.325,2.159,2.982,4.857,5.321,8.555a42.244,42.244,0,0,0-2.509-7.982c39.789,9.875-75.1,82.666-163.213,36.913-7.761-4.713-6.378-8.338.2-12.663l-.01.016c3.922-2.254,10.369-2.512,19.375-.9-3.893-2.711-7.575-4.078-11.3-4.089,16.614-12.764,14.442-36.162,2.6-50.625-10.2-9.673-4.559-46.13.507-45.654-.021-2.1-3.7-7.785,1.033-8.606,1.014,2.921,3.991,5.865,5.005,9.477,8.815,4.976,24.227,7.918,36.483,6.7,17.971,7.021,17.865,17.445,23.491,26.778-.364-10.725-.659-21.449-8.693-32.171,7.626-2.722,8.723-4.6,10.807-9.394-2.318-3.478-6.691-7.233-9.012-10.711C999.062,224.8,1001.176,245.039,1008.592,243.361Z" transform="translate(-904.354 -219.376)" fill="#e62129" fill-rule="evenodd"/>
      </g>
      <g id="Group_3595" data-name="Group 3595" transform="translate(1128.487 447.579)">
        <path id="Path_10714" data-name="Path 10714" d="M964.142,225.3a51.4,51.4,0,0,1,5.658,6.912c5.958,7.188,1.848,14.917-5.289,17.113a21.708,21.708,0,0,0-2.69-1.644,38.2,38.2,0,0,1,4.315-5.658c2.339-2.549-.305-11.718-1.994-16.723Zm-3,23.52a40.053,40.053,0,0,0-4.971,22.74c3.107,3.579,6.022,7.344,8.484,10.634-2.161-9.694-.436-20.233-.234-29.269A15.447,15.447,0,0,0,961.139,248.818Z" transform="translate(-956.072 -225.298)" fill="#c7252e" fill-rule="evenodd"/>
      </g>
      <g id="Group_3602" data-name="Group 3602" transform="translate(922.838 614.402)">
        <g id="Group_3596" data-name="Group 3596" transform="translate(17.263)">
          <path id="Path_10715" data-name="Path 10715" d="M887.265,300.726c-7.339-18.181,5.772-12.825,15.358-7.621C890.4,289.423,885.441,286.611,887.265,300.726Z" transform="translate(-885.123 -288.125)" fill="#0db02b" fill-rule="evenodd"/>
        </g>
        <g id="Group_3601" data-name="Group 3601" transform="translate(0 1.165)">
          <g id="Group_3597" data-name="Group 3597" transform="translate(11.198 10.057)">
            <path id="Path_10716" data-name="Path 10716" d="M899.506,293.47c-26.239-5.56-15.905,10.831-6.612,22.509C885.024,300.389,880.053,294.373,899.506,293.47Z" transform="translate(-882.839 -292.352)" fill="#0db02b" fill-rule="evenodd"/>
          </g>
          <g id="Group_3598" data-name="Group 3598" transform="translate(9.412)">
            <path id="Path_10717" data-name="Path 10717" d="M892.338,291.338c-13.322-7.966-10.738,2.945-7.841,11.08C883.114,292.408,881.52,288.184,892.338,291.338Z" transform="translate(-882.166 -288.564)" fill="#0db02b" fill-rule="evenodd"/>
          </g>
          <g id="Group_3599" data-name="Group 3599" transform="translate(0.165 17.776)">
            <path id="Path_10718" data-name="Path 10718" d="M892.1,296.159c-21.128-4.477-12.806,8.72-5.324,18.125C880.445,301.73,876.443,296.887,892.1,296.159Z" transform="translate(-878.684 -295.259)" fill="#0db02b" fill-rule="evenodd"/>
          </g>
          <g id="Group_3600" data-name="Group 3600" transform="translate(0 4.879)">
            <path id="Path_10719" data-name="Path 10719" d="M888.792,293.174c-13.319-7.963-10.738,2.947-7.838,11.083C879.568,294.247,877.974,290.023,888.792,293.174Z" transform="translate(-878.622 -290.402)" fill="#0db02b" fill-rule="evenodd"/>
          </g>
        </g>
      </g>
      <g id="Group_3603" data-name="Group 3603" transform="translate(954.582 557.669)">
        <path id="Path_10720" data-name="Path 10720" d="M916.325,275.819c-13.781-14.6-22.243-10.042-25.748,2.947C896.974,267.917,905.786,266.613,916.325,275.819Z" transform="translate(-890.577 -266.759)" fill="#0db02b" fill-rule="evenodd"/>
      </g>
      <g id="Group_3604" data-name="Group 3604" transform="translate(919.488 561.48)">
        <path id="Path_10721" data-name="Path 10721" d="M901.857,287.827c.348-20.09-10.687-23.037-24.5-16.545C891.863,268.363,900.5,273.823,901.857,287.827Z" transform="translate(-877.36 -268.194)" fill="#0db02b" fill-rule="evenodd"/>
      </g>
      <g id="Group_3605" data-name="Group 3605" transform="translate(898.033 549.607)">
        <path id="Path_10722" data-name="Path 10722" d="M880.822,279.352c4.543-12.315-1.628-16.508-11.542-15.48C878.852,265.2,883,270.422,880.822,279.352Z" transform="translate(-869.28 -263.723)" fill="#0db02b" fill-rule="evenodd"/>
      </g>
      <g id="Group_3606" data-name="Group 3606" transform="translate(903.96 579.097)">
        <path id="Path_10723" data-name="Path 10723" d="M932.134,290.726c-30.121,3.231-44.916-.319-60.622-15.9C885.619,302.717,911.729,298.971,932.134,290.726Z" transform="translate(-871.512 -274.829)" fill="#98da91" fill-rule="evenodd"/>
      </g>
      <g id="Group_3609" data-name="Group 3609" transform="translate(1058.188 494.162)">
        <g id="Group_3607" data-name="Group 3607">
          <path id="Path_10724" data-name="Path 10724" d="M969.294,259.99c1.551,2.387,3.128,4.732,4.448,7.265a36.985,36.985,0,0,1,3.205,8.43c-.008-.061-.013-.122-.019-.183a6.785,6.785,0,0,1,.558-3.473c1.4-3.123,5.016-4.931,8.239-5.52a10.468,10.468,0,0,1,8.988,2.122,5.9,5.9,0,0,1,.717.762,91.438,91.438,0,0,1,5.709,7.995,41.316,41.316,0,0,1,3.263,6.128c1.545,3.747,2.35,8.1.176,11.779a10.084,10.084,0,0,1-7.507,4.7c-4.926,1.028-10.071,3.8-14.463,6.189a160.492,160.492,0,0,1-14.476,7.493c-5,2.1-10.6,3.563-15.966,1.952a16.089,16.089,0,0,1-8.208-5.826c-.04-.05-.08-.1-.119-.154-2.7-3.685-5.143-8.454-2.124-12.772a7.47,7.47,0,0,1,1.211-1.346,9.212,9.212,0,0,1,1.71-1.174,16.4,16.4,0,0,1,2.461-1.033c.2-.066.446-.141.682-.223a13.651,13.651,0,0,0,1.214-6.789q-.04-.681-.127-1.354a33.6,33.6,0,0,0-4.62-12.289,45.71,45.71,0,0,0-2.86-4.283,10.182,10.182,0,0,1-2.512-.265A12.1,12.1,0,0,1,933.1,264.7c-2.82-2.9-4.591-7.328-2.753-11.2,1.455-4.065,5.847-5.807,9.686-6.874a101.454,101.454,0,0,1,12.512-2.392c3.051-.449,6.11-.85,9.161-1.317.1-.016.2-.029.308-.037a7.875,7.875,0,0,1,4.442.844C972.082,246.65,973.58,255.88,969.294,259.99Z" transform="translate(-929.596 -242.842)" fill="#fefefe" fill-rule="evenodd"/>
        </g>
        <g id="Group_3608" data-name="Group 3608" transform="translate(4.927 4.935)">
          <path id="Path_10725" data-name="Path 10725" d="M961.552,253.927c-.491.117-1.415.236-1.6.743-.358,1,.914,3.008,1.41,3.808,1.521,2.438,3.152,4.708,4.541,7.249,4.02,7.358,5.016,14.694,2.807,22.615l1.548-.393a29.978,29.978,0,0,0,6.234-2.066,5.288,5.288,0,0,0,2.2-2.1,9.433,9.433,0,0,0,.972-4.256,35.739,35.739,0,0,0-.831-7.252c-.961-3.038,6.617-5.632,9.524-3.038a1.206,1.206,0,0,1,.127.133,86.433,86.433,0,0,1,5.4,7.56c1.9,3.032,5.483,9.206,3.37,12.78a5.334,5.334,0,0,1-4.1,2.35c-5.48,1.107-11.094,4.057-15.977,6.72a157.343,157.343,0,0,1-14.028,7.275c-3.845,1.617-8.489,3.022-12.634,1.776a11.287,11.287,0,0,1-5.767-4.171c-1.227-1.675-3.545-4.91-2.061-7.031,1.354-1.938,4.9-1.617,5.932-3.438a18.276,18.276,0,0,0,2.228-10.239c-.035-.568-.088-1.136-.162-1.7a38.6,38.6,0,0,0-5.417-14.418,49.1,49.1,0,0,0-3.29-4.849,18.817,18.817,0,0,0-1.665-1.962c-.276.042-.762.189-.98.234a5.489,5.489,0,0,1-2.406-.011,7.263,7.263,0,0,1-3.362-2.06c-1.365-1.4-2.838-3.927-1.718-5.857.619-2.329,4.453-3.468,6.436-4.02a98.1,98.1,0,0,1,11.9-2.265c3.062-.449,6.131-.852,9.19-1.32l.056-.005C963.828,244.275,965.5,253.258,961.552,253.927Z" transform="translate(-931.452 -244.7)" fill="#fddc00" fill-rule="evenodd"/>
        </g>
      </g>
      <g id="Group_3620" data-name="Group 3620" transform="translate(913.3 618.24)">
        <g id="Group_3610" data-name="Group 3610" transform="translate(0.327 4.854)">
          <path id="Path_10726" data-name="Path 10726" d="M893.9,476.417a28.965,28.965,0,0,1-11.776-3c-3.351-1.808-6.115-4.657-6.811-8.518-.842-4.671,1.694-8.914,5.063-11.925,4.44-3.967,10.717-6.466,16.385-8.03l.088-.024a63.679,63.679,0,0,0,6.192-1.914c6.67-2.43,4.153-15.167,10.313-18.661,5.533-3.141,11.715-8.276,14.553-14.381a74.43,74.43,0,0,0-4.357-10.032c-12.339-20.828-20.939-46.985-12.79-70.9,7.775-22.809,29.6-28.4,51.565-32.962,6.662-3.043,7.437-5.536,14.7-4.384,11.2,1.776,23.693,4.187,30.458,13.051,15.9,20.825,21.85,39.954,12.973,65.447-6.468,18.573-20.153,23.069-34.818,33.363-1.229,4.015-2.347,9-1.7,13.016a8.779,8.779,0,0,0,3.277,5.791,22.688,22.688,0,0,0,4.708,2.769c3.969,1.869,8.141,3.409,11.216,6.7,3.821,4.089,4.376,9.344,3.447,14.654-1.928,15.308-22.763,25.613-35.729,29.651-13.414,4.177-35.66,7.193-46.22-4.649q-.3-.335-.581-.685c-.531-.106-1.06-.234-1.58-.377A48.967,48.967,0,0,1,911.05,473.4c-4.952.762-.584,12.488-4.981,10.353A69.3,69.3,0,0,1,893.9,476.417Z" transform="translate(-875.153 -291.399)" fill="#337321" fill-rule="evenodd"/>
        </g>
        <g id="Group_3611" data-name="Group 3611">
          <path id="Path_10727" data-name="Path 10727" d="M962.593,292.822C906.312,310.9,900.492,355.8,927.3,400.98c3.006,5.725,7.729,11.986,13.7,14.511a53.384,53.384,0,0,0,14.747,3.646c-7.944.074-18.215-1.511-22.7-4.055-8.786,17.185-11.362,25.544-27.785,29.68-25.437,7.023-41.613,15.61-20.514,16.261,3.627,3.359,18.929,12.464,25.884,11.391a45.345,45.345,0,0,0,11.855-3.279,16.758,16.758,0,0,0,4.033.905c13.5,20.584,73.566,1.359,76.248-21.138,4.328-24.2-32.6-7.387-20.389-44.85l8.17-21.566-3.1,18.1c18.292-11.874,34.468-17.055,32.553-59.162C1014.939,302.946,988.314,280.87,962.593,292.822Z" transform="translate(-875.029 -289.571)" fill="#54c247" fill-rule="evenodd"/>
        </g>
        <g id="Group_3618" data-name="Group 3618" transform="translate(39.916 53.517)">
          <g id="Group_3612" data-name="Group 3612">
            <path id="Path_10728" data-name="Path 10728" d="M903.545,325.583c-18.866,8.81-13.929-5.4-8.951-15.857C891.381,322.893,888.678,328.313,903.545,325.583Z" transform="translate(-890.062 -309.726)" fill="#0db02b" fill-rule="evenodd"/>
          </g>
          <g id="Group_3617" data-name="Group 3617" transform="translate(1.743 6.898)">
            <g id="Group_3613" data-name="Group 3613" transform="translate(10.264)">
              <path id="Path_10729" data-name="Path 10729" d="M895.306,312.324c-4.413,28.143,12.386,16.258,24.245,5.738C903.463,327.292,897.363,332.9,895.306,312.324Z" transform="translate(-894.584 -312.324)" fill="#0db02b" fill-rule="evenodd"/>
            </g>
            <g id="Group_3614" data-name="Group 3614" transform="translate(0 9.259)">
              <path id="Path_10730" data-name="Path 10730" d="M893.263,315.811c-7.7,14.577,3.73,11.221,12.2,7.69C894.92,325.532,890.528,327.462,893.263,315.811Z" transform="translate(-890.719 -315.811)" fill="#0db02b" fill-rule="evenodd"/>
            </g>
            <g id="Group_3615" data-name="Group 3615" transform="translate(19.167 14.721)">
              <path id="Path_10731" data-name="Path 10731" d="M898.518,317.868c-3.553,22.66,9.973,13.088,19.521,4.62C905.087,329.917,900.175,334.437,898.518,317.868Z" transform="translate(-897.937 -317.868)" fill="#0db02b" fill-rule="evenodd"/>
            </g>
            <g id="Group_3616" data-name="Group 3616" transform="translate(5.706 18.964)">
              <path id="Path_10732" data-name="Path 10732" d="M895.412,319.466c-7.695,14.577,3.731,11.224,12.2,7.69C897.069,329.19,892.68,331.117,895.412,319.466Z" transform="translate(-892.868 -319.466)" fill="#0db02b" fill-rule="evenodd"/>
            </g>
          </g>
        </g>
        <g id="Group_3619" data-name="Group 3619" transform="translate(46.995 21.633)">
          <path id="Path_10733" data-name="Path 10733" d="M918.008,297.718c-17.625.55-28.971,15.355-24.176,36.058C893.84,318.673,905.839,302.659,918.008,297.718Z" transform="translate(-892.729 -297.718)" fill="#98da91" fill-rule="evenodd"/>
        </g>
      </g>
      <g id="Group_3621" data-name="Group 3621" transform="translate(913.3 747.631)">
        <path id="Path_10734" data-name="Path 10734" d="M930.688,339.1c-7.22,14.415-10.377,21.213-25.422,25-25.437,7.023-41.613,15.61-20.514,16.261,3.627,3.359,18.929,12.464,25.884,11.391a45.345,45.345,0,0,0,11.855-3.279,16.758,16.758,0,0,0,4.033.905c13.5,20.584,73.566,1.359,76.248-21.138,2.286-12.782-6.935-14.123-14.349-18.064-.125.1-.252.2-.388.3a31.967,31.967,0,0,1-10.464,4.933,30.332,30.332,0,0,1-6.965,1.3v0h0C970.8,339.225,943.215,336.622,930.688,339.1Z" transform="translate(-875.029 -338.301)" fill="#0db02b" fill-rule="evenodd"/>
      </g>
      <g id="Group_3625" data-name="Group 3625" transform="translate(969.92 592.38)">
        <g id="Group_3622" data-name="Group 3622" transform="translate(7.878 19.173)">
          <path id="Path_10735" data-name="Path 10735" d="M905.395,287.088c-4.636.515-7.289,2.432-5.526,7.536,1.235,3.266,3.946,3.956,8.364,1.925C915.923,293.166,913.185,286.507,905.395,287.088Z" transform="translate(-899.32 -287.053)" fill="#299926" fill-rule="evenodd"/>
        </g>
        <g id="Group_3623" data-name="Group 3623" transform="translate(0 15.114)">
          <path id="Path_10736" data-name="Path 10736" d="M901.405,286.2c-2.408-1.158-4.28-1.033-4.976,1.981-.39,1.96.714,3.12,3.479,3.476C904.669,292.353,905.365,288.288,901.405,286.2Z" transform="translate(-896.353 -285.524)" fill="#299926" fill-rule="evenodd"/>
        </g>
        <g id="Group_3624" data-name="Group 3624" transform="translate(3.609)">
          <path id="Path_10737" data-name="Path 10737" d="M913.318,280.57c12.148,5.781,11.022,19.436-4.485,17.172-8.648-1.115-12.108-4.742-10.881-10.881C899.2,281.479,907.469,278.308,913.318,280.57Z" transform="translate(-897.713 -279.832)" fill="#299926" fill-rule="evenodd"/>
        </g>
      </g>
      <g id="Group_3639" data-name="Group 3639" transform="translate(880.849 748.264)">
        <g id="Group_3626" data-name="Group 3626">
          <path id="Path_10738" data-name="Path 10738" d="M1026.674,391.643l.1-.1a30.179,30.179,0,0,0,5.887-8.932,15.955,15.955,0,0,0,1.181-5.494l0-.17,0-.09a12.409,12.409,0,0,0-.271-2.621,11.079,11.079,0,0,0-1.6-3.824c-.18-.268-.369-.526-.573-.775l-.94-1.155.072-1.49c.01-.21.024-.422.032-.635.074-1.66.178-3.316.183-4.979.01-3.757-.451-7.814-2.865-10.857-3.871-4.875-9.631-4.325-14.989-3.176-.433,3.962-.85,5.284-4.307,7.915a31.969,31.969,0,0,1-10.464,4.933,48.029,48.029,0,0,1-8.773,1.644l-4.3.4.042-4.318c0-.337-.008-.672-.029-1.006-1.415-19.872-39.972-24.335-55.864-9.9l-1.134,1.033-1.535-.021c-2.315-.032-4.631.016-6.944.122-9.354.441-18.741,3.659-26.892,8.173A69.8,69.8,0,0,0,870.4,375.465c-4.6,6.285-8.263,14.211-7.493,22.179.8,8.258,6.176,14.336,12.87,18.735,9.24,6.073,22.67,8.375,33.43,10.57l.021.005.088.013c45.195,7.6,83.964-3.473,117.25-35.227Z" transform="translate(-862.808 -338.539)" fill="#212121" fill-rule="evenodd"/>
        </g>
        <g id="Group_3627" data-name="Group 3627" transform="translate(66.484 3.651)">
          <path id="Path_10739" data-name="Path 10739" d="M933.361,367.307c-14.575-5.353-30.936-11.9-45.514-17.251C908.954,328.621,955.322,344.414,933.361,367.307Z" transform="translate(-887.847 -339.914)" fill="#e62129" fill-rule="evenodd"/>
        </g>
        <g id="Group_3628" data-name="Group 3628" transform="translate(66.487 10.271)">
          <path id="Path_10740" data-name="Path 10740" d="M933.359,363.18c-14.575-5.353-30.936-11.9-45.511-17.251.167-.173.343-.335.515-.5,20.907-9.538,49.085,5.834,47.986,14.076A27.073,27.073,0,0,1,933.359,363.18Z" transform="translate(-887.848 -342.408)" fill="#c7252e" fill-rule="evenodd"/>
        </g>
        <g id="Group_3629" data-name="Group 3629" transform="translate(4.611 11.862)">
          <path id="Path_10741" data-name="Path 10741" d="M916.9,344.64c16.263-.794,28.658,1.389,47.893,11.006,21.021,7.735,46.8-1.19,48.785-12.493,14.776-1.885,9.025,14.97,10.411,20.228,3.173,1.883,6.049,8.229-2.974,18.143-36.489,34.707-75.954,40.556-113.929,34.21-25.782-5.255-42.638-8.725-42.54-32.423C867.758,361.883,898.086,345.5,916.9,344.64Z" transform="translate(-864.545 -343.007)" fill="#e62129" fill-rule="evenodd"/>
        </g>
        <g id="Group_3630" data-name="Group 3630" transform="translate(4.611 11.987)">
          <path id="Path_10742" data-name="Path 10742" d="M1023.775,359.371l0,.141,0,.005v.074l0,.072,0,.074,0,.069v0l0,.072v.072l0,.072,0,.072v.093l-.005.258v.473l0,.133v.085l0,.045.005.194v.072l0,.053.011.247h0l.018.287v0l0,.011.021.228,0,.037,0,.021c.016.167.037.329.066.483v.016l0,0c.013.08.026.157.042.231l0,.008v.008c.019.074.034.149.053.22l.135.082.013.008h0l.12.08.027.019.008.005.1.069.035.027.024.019.008.005.034.024.066.053.019.016.013.008.032.027.066.056.032.027h0l.035.026.032.029.053.048.042.037.032.029.032.029.032.029.005.005.027.027.032.029.032.032.032.032.008.011.05.048,0,.005.032.032.029.032.032.035.029.032.032.035.029.035.029.032.008.008.053.064.029.035.029.034.029.037.027.035h0l.029.037.029.037.027.037h0l.053.072,0,0,.027.04.029.037,0,.005.05.072.029.04.026.04.027.04.042.069.008.013.027.04c1.885,2.987,2.018,8.518-4.955,16.178-36.489,34.707-75.954,40.556-113.932,34.21-25.78-5.255-42.635-8.725-42.537-32.423a26.829,26.829,0,0,1,1.052-4.379c8.773-4.3,16.8-4.933,26.946-2.552l.149.037c7.135,1.96,11.208,5.231,16.2,10.414,3.407,3.537,6.07,6.234,10.783,8.045,7.57,2.907,17.9,2.451,25.828,1.66,17.429-3.032,80.627-20.435,75.292-45.421a25.3,25.3,0,0,0-3.306-7.984C1025.23,344.214,1024,353.3,1023.775,359.371Z" transform="translate(-864.545 -343.054)" fill="#c7252e" fill-rule="evenodd"/>
        </g>
        <g id="Group_3631" data-name="Group 3631" transform="translate(4.617 32.356)">
          <path id="Path_10743" data-name="Path 10743" d="M1024.175,350.725c3.094,2.021,5.677,8.308-3.165,18.024-36.489,34.707-75.954,40.556-113.929,34.21-25.5-5.2-42.261-8.651-42.534-31.643,6.822-3.919,14.346-6.739,27.065-3.755,20.228,5.552,12.2,24.489,54.436,20.225C974.084,382.928,1002.115,373.31,1024.175,350.725Z" transform="translate(-864.547 -350.725)" fill="#f0eada" fill-rule="evenodd"/>
        </g>
        <g id="Group_3632" data-name="Group 3632" transform="translate(66.219 13.032)">
          <path id="Path_10744" data-name="Path 10744" d="M887.747,343.821c21.067-2.446,32.272,7.7,51.748,13.863C925.452,357.814,908.944,345.366,887.747,343.821Z" transform="translate(-887.747 -343.448)" fill="#212121" fill-rule="evenodd"/>
        </g>
        <g id="Group_3635" data-name="Group 3635" transform="translate(38.603 16.728)">
          <g id="Group_3633" data-name="Group 3633" transform="translate(0 5.853)">
            <path id="Path_10745" data-name="Path 10745" d="M879.9,352.807c-6.941-1.715,1.829-6.93,7.817-5.526a71.582,71.582,0,0,1,32.017,17.756c3.794,3.855-4.049,8.574-7.437,5.032A110.345,110.345,0,0,0,879.9,352.807Z" transform="translate(-877.347 -347.044)" fill="#c7252e" fill-rule="evenodd"/>
          </g>
          <g id="Group_3634" data-name="Group 3634" transform="translate(12.661)">
            <path id="Path_10746" data-name="Path 10746" d="M884.667,350.6c-6.941-1.713,1.832-6.93,7.817-5.523A71.579,71.579,0,0,1,924.5,362.831c3.8,3.858-4.047,8.576-7.437,5.032A110.312,110.312,0,0,0,884.667,350.6Z" transform="translate(-882.115 -344.839)" fill="#c7252e" fill-rule="evenodd"/>
          </g>
        </g>
        <g id="Group_3638" data-name="Group 3638" transform="translate(38.219 14.26)">
          <g id="Group_3636" data-name="Group 3636" transform="translate(0 6.699)">
            <path id="Path_10747" data-name="Path 10747" d="M879.879,352.591c-7.042-1.237,1.357-7.039,7.424-6.043a71.619,71.619,0,0,1,33.148,15.539c4.049,3.59-3.454,8.831-7.079,5.526A110.327,110.327,0,0,0,879.879,352.591Z" transform="translate(-877.202 -346.433)" fill="#f0eada" fill-rule="evenodd"/>
          </g>
          <g id="Group_3637" data-name="Group 3637" transform="translate(12.234)">
            <path id="Path_10748" data-name="Path 10748" d="M884.485,350.068c-7.039-1.237,1.357-7.039,7.424-6.043a71.617,71.617,0,0,1,33.151,15.539c4.049,3.59-3.457,8.831-7.079,5.526A110.34,110.34,0,0,0,884.485,350.068Z" transform="translate(-881.809 -343.91)" fill="#f0eada" fill-rule="evenodd"/>
          </g>
        </g>
      </g>
      <g id="Group_3640" data-name="Group 3640" transform="translate(946.227 454.645)">
        <path id="Path_10749" data-name="Path 10749" d="M912.585,296.534c-8.327-5.82-23.162-17.442-24.941-27.593-1.737-9.9,7.406-11.112,16.077-12.044,3.479-5.581,3.914-11.452,13.8-18.393,9.445-6.633,14.726-5.876,26.539-7.1l.94-3.441c.486,1.277.7,2.371,1.6,3.186,1.516,1.373.988.523,2.334,2.406-1.882.343-.2.125-.972.64-.951.635,6.211,15.589,4.755,15.966-1.242.324-12.124-7.249-24.144-.035-8.569,5.143-5.81,4.878-9.07,12.875-4.487.773-13.8-3.25-17.549-.563s-5.818-.712-3.367,2.923c6.537,9.692-.332-4.429,7.007,1.344,1.723,1.354,6.978,2.732,8.943,3.967,3.409,2.145,1.139,6.083,4.567,7.817,2.857,1.444,3.072-.595,6.747-.717,6.588-.226,7.22,5.515,6.912.12-1.62-3.359,20.071,10.05,20.071,10.05s-5.14,3.688-5.117,8.38C950.6,319.05,923.971,304.494,912.585,296.534Z" transform="translate(-887.43 -227.959)" fill="#af1e2e" fill-rule="evenodd"/>
      </g>
      <g id="Group_3641" data-name="Group 3641" transform="translate(949.414 460.237)">
        <path id="Path_10750" data-name="Path 10750" d="M958.781,252.207c-.111,3.247-3.29,4.649-3.948,7.621-.725,3.266,1.341,4.955,3.837,5.985l1.938,1.952c-.874,2.7-3.818,5.937-5.382,7.976l-6.025,7.634c-.4.287-6.319,7.015-6.917,7.8.311,5.4,1.439,9.941-5.151,10.164-3.672.125-8.943-1.715-11.8-3.16-3.425-1.734-6.264-3.47-9.673-5.613a46.851,46.851,0,0,1-4.729-3.29c-7.339-5.773-13.377-9.6-19.914-19.3-2.448-3.635-3.805-8.2-.064-10.884s8.844-1.835,13.329-2.607c3.263-8,6.03-14.747,14.6-19.891,12.021-7.212,24.585-4.819,25.828-5.143,1.614-.42.725-1.115,2.243-1.391,1.182.305,4.015,2.079,5.738,2.677C957.99,239.951,958.969,245.242,958.781,252.207Z" transform="translate(-888.631 -230.065)" fill="#e62129" fill-rule="evenodd"/>
      </g>
      <g id="Group_3642" data-name="Group 3642" transform="translate(1004.935 442.521)">
        <path id="Path_10751" data-name="Path 10751" d="M909.563,241.406a8.042,8.042,0,0,0,1.192.441c5.51,13.173,29.173,14.7,48.995,10.045a34.231,34.231,0,0,1,5.342,3.409c-22.8,9.769-56.541.73-55.529-13.895Zm63.947,8.956q-.613-1.223-1.344-2.443c1.625-.682,3.173-1.41,4.62-2.18a4.96,4.96,0,0,1,.64-2.414,4.647,4.647,0,0,1,3.731-2.376c3.608-10.833-3.216-15.839-9.357-16.542,11.447-4.352,15.6,6.065,10.2,16.6a4.715,4.715,0,0,1,.828.228,13.282,13.282,0,0,1,12.273-5.653,8.753,8.753,0,0,1,1.519.35,4.773,4.773,0,0,0,1.909.823c3.871,2.05,6.67,5.443,14.577.842,6-3.173,6.113,3.792,5.613,5.905a92.9,92.9,0,0,1-5.629,18.791,4.009,4.009,0,0,1,3.186,6.15c-1.187,1.867-4.065,2.963-5.932,1.776-1.275-.81-.637-1.224-1.739.568-1.014,2.392-6.452,9.28-9.124,2.013-3.993-10.13-7.108-5.7-14.431-9.941-4.421-2.427-6.391-6.965-5.951-11.85-.295-.117.406.366-.863-.441-.648-.412-1.179-1.755-1.375-3.245a31.568,31.568,0,0,1-3.351,3.038Zm7.395-7.427c-.462.735-.969,1.468-1.527,2.191a3.086,3.086,0,0,0,1.224,1.537,18.549,18.549,0,0,1,1.5-3.537,3.913,3.913,0,0,0-1.192-.191Zm-1.527,2.191c.375-.733.706-1.444,1-2.132a1.958,1.958,0,0,0-.361.106,3.7,3.7,0,0,0-.4.52,1.934,1.934,0,0,0-.276.656l.117-.072c-.045.061-.093.12-.138.181A1.684,1.684,0,0,0,979.377,245.126Z" transform="translate(-909.541 -223.393)" fill="#c7252e" fill-rule="evenodd"/>
      </g>
      <g id="Group_3665" data-name="Group 3665" transform="translate(1003.149 439.582)">
        <g id="Group_3643" data-name="Group 3643" transform="translate(0 15.876)">
          <path id="Path_10752" data-name="Path 10752" d="M909.28,228.265c-5.772,19.652,50.769,30.95,69.52,4.936C959,245.572,913.863,249.358,909.28,228.265Z" transform="translate(-908.868 -228.265)" fill="#8a2e30" fill-rule="evenodd"/>
        </g>
        <g id="Group_3644" data-name="Group 3644" transform="translate(67.248 12.131)">
          <path id="Path_10753" data-name="Path 10753" d="M934.841,234.657c1.288-2.029,3.314-2.876,5.4-2.087a13.287,13.287,0,0,1,12.273-5.656c6.173.852,8,7.841,18.008,2.018,6-3.176,6.11,3.789,5.611,5.9a92.75,92.75,0,0,1-5.629,18.794,4,4,0,0,1,3.186,6.147c-1.187,1.869-4.065,2.963-5.932,1.776-1.275-.81-.635-1.221-1.739.568-1.014,2.4-6.452,9.28-9.124,2.013-3.991-10.13-7.105-5.693-14.431-9.941-4.418-2.427-6.389-6.965-5.948-11.85-.295-.117.406.366-.865-.441s-2.1-5.215-.81-7.244Zm3.178,3.34a18.321,18.321,0,0,1,1.776-4.031,2.082,2.082,0,0,0-2.759.985C936.461,235.859,936.612,236.959,938.019,238Z" transform="translate(-934.195 -226.855)" fill="#8a2e30" fill-rule="evenodd"/>
        </g>
        <g id="Group_3645" data-name="Group 3645" transform="translate(67.396 18.459)">
          <path id="Path_10754" data-name="Path 10754" d="M934.924,231.269a4.671,4.671,0,1,1,1.537,6.282,4.575,4.575,0,0,1-1.537-6.282Zm1.686-.191c-.637,1,.112,2.618,1.673,3.609s3.34.982,3.975-.019-.112-2.615-1.673-3.606S937.245,230.077,936.61,231.078Z" transform="translate(-934.25 -229.238)" fill="#eb9215" fill-rule="evenodd"/>
        </g>
        <g id="Group_3648" data-name="Group 3648" transform="translate(68.982 11.589)">
          <g id="Group_3646" data-name="Group 3646">
            <path id="Path_10755" data-name="Path 10755" d="M959.3,267.832l-.088,0c-1.845-.042-3.285-1.429-4.272-4.116-2.154-5.462-3.869-5.754-6.981-6.285a18.847,18.847,0,0,1-6.909-2.3c-6.221-3.428-7.2-10.9-5.4-16.784,1.925-6.309,7.374-12.363,15.406-11.635a13.965,13.965,0,0,1,5.719,2.443c3.08,1.936,5.5,3.46,11.189.154,2.376-1.253,4.246-1.344,5.611-.292,2.584,2,1.476,6.827,1.431,7.031-1.636,9.123-5.464,19.726-9.516,26.306C964.957,263.645,962.466,267.832,959.3,267.832Zm-9.543-38.379c-5.82,0-9.915,4.761-11.423,9.71-1.466,4.806-.773,10.849,4.081,13.513l.029.016a16.04,16.04,0,0,0,5.988,1.97c3.428.582,6.386,1.086,9.131,8.051.534,1.445,1.171,2.3,1.718,2.31,1.25.117,3.048-2.376,3.717-3.954,3.98-6.5,7.663-16.709,9.256-25.594.369-1.577.266-3.725-.4-4.24-.388-.3-1.335-.106-2.531.528-7.108,4.132-10.788,1.811-14.043-.234a11.652,11.652,0,0,0-4.546-2.031C950.4,229.469,950.079,229.453,949.758,229.453Z" transform="translate(-934.847 -226.651)" fill="#b84631"/>
          </g>
          <g id="Group_3647" data-name="Group 3647" transform="translate(1.391 1.405)">
            <path id="Path_10756" data-name="Path 10756" d="M940.872,253.03c-10.9-5.982-4.44-27.025,9.19-25.8,5.935.82,8.115,8.013,17.74,2.414,5.767-3.051,5.449,3.17,4.968,5.2-1.583,8.826-5.295,19.317-9.344,25.894-.977,2.3-5.465,8.6-8.035,1.612C951.554,252.613,947.914,257.116,940.872,253.03Z" transform="translate(-935.371 -227.18)" fill="none" fill-rule="evenodd"/>
          </g>
        </g>
        <g id="Group_3649" data-name="Group 3649" transform="translate(70.375 21.756)">
          <path id="Path_10757" data-name="Path 10757" d="M940.871,247.567c-3.887-2.132-5.565-6.181-5.5-10.456,2.523-4.118,6.766-7.06,12.111-6.58,5.937.818,8.114,8.011,17.74,2.414,5.767-3.054,5.448,3.17,4.97,5.2-.247,1.373-.544,2.788-.889,4.219a68.443,68.443,0,0,1-5.881,12.913c-.977,2.3-5.465,8.6-8.035,1.612C951.553,247.15,947.912,251.654,940.871,247.567Z" transform="translate(-935.372 -230.48)" fill="#f3b502" fill-rule="evenodd"/>
        </g>
        <g id="Group_3650" data-name="Group 3650" transform="translate(89.633 14.632)">
          <path id="Path_10758" data-name="Path 10758" d="M953.517,229.776a19.8,19.8,0,0,0,2.278-1.152c5.767-3.051,5.449,3.17,4.968,5.2-.21,1.176-.459,2.379-.741,3.6A143.944,143.944,0,0,1,953.27,256.4c-.6,1.187-1.224,2.3-1.851,3.319-.977,2.3-5.465,8.6-8.035,1.612-.252-.643-.5-1.221-.759-1.747A55.192,55.192,0,0,1,953.517,229.776Z" transform="translate(-942.625 -227.796)" fill="#f4bb00" fill-rule="evenodd"/>
        </g>
        <g id="Group_3651" data-name="Group 3651" transform="translate(89.636 23.393)">
          <path id="Path_10759" data-name="Path 10759" d="M957.764,239.29c-1.357,4.036-2.875,7.976-4.5,11.649-.6,1.187-1.224,2.3-1.851,3.319-.977,2.3-5.465,8.6-8.035,1.612-.252-.643-.5-1.221-.757-1.747a55.352,55.352,0,0,1,5.093-20.145,14.426,14.426,0,0,0,5.5-2.052c5.767-3.054,5.448,3.17,4.97,5.2Q957.993,238.193,957.764,239.29Z" transform="translate(-942.626 -231.096)" fill="#efa509" fill-rule="evenodd"/>
        </g>
        <g id="Group_3654" data-name="Group 3654" transform="translate(93.459 15.289)">
          <g id="Group_3652" data-name="Group 3652">
            <path id="Path_10760" data-name="Path 10760" d="M944.719,264.485a.47.47,0,0,1-.436-.3c-1.043-2.682,1.851-12.36,4.644-19.832,1.434-3.832,6.314-16.311,9.108-16.311h.021a.472.472,0,0,1,.393.236c.911,1.585.651,4.124.385,5.244-1.625,9.068-5.406,19.54-9.4,26.029-.539,1.285-2.414,4.27-4.58,4.912A.446.446,0,0,1,944.719,264.485Zm13.072-35.432c-1.131.6-4.023,5.032-7.984,15.629-3.266,8.725-5.149,16.178-4.764,18.7a9.722,9.722,0,0,0,3.558-4.259c3.975-6.463,7.706-16.8,9.314-25.793A7.887,7.887,0,0,0,957.791,229.053Z" transform="translate(-944.066 -228.044)" fill="#b84631"/>
          </g>
          <g id="Group_3653" data-name="Group 3653" transform="translate(0.463 0.47)">
            <path id="Path_10761" data-name="Path 10761" d="M957.758,228.221c.81,1.413.6,3.789.332,4.9-1.583,8.826-5.295,19.317-9.344,25.894-.579,1.365-2.4,4.14-4.315,4.708-.852-2.2,1.232-10.361,4.649-19.5S956.069,228.187,957.758,228.221Z" transform="translate(-944.24 -228.221)" fill="none" fill-rule="evenodd"/>
          </g>
        </g>
        <g id="Group_3657" data-name="Group 3657" transform="translate(93.582 17.678)">
          <g id="Group_3655" data-name="Group 3655">
            <path id="Path_10762" data-name="Path 10762" d="M944.638,259.666a.4.4,0,0,1-.138-.024c-1.612-.6,2.217-11.394,3.938-16h0c1.726-4.615,5.937-15.246,7.506-14.673,1.612.6-2.22,11.394-3.94,16C950.33,249.454,946.332,259.666,944.638,259.666Zm.35-.759h0Zm4.325-14.941h0c-2.8,7.5-4.19,12.695-4.339,14.4,1-1.391,3.354-6.229,6.152-13.728s4.193-12.695,4.344-14.407c-1,1.391-3.356,6.232-6.158,13.73Z" transform="translate(-944.112 -228.944)" fill="#b84631"/>
          </g>
          <g id="Group_3656" data-name="Group 3656" transform="translate(0.388 0.452)">
            <path id="Path_10763" data-name="Path 10763" d="M948.633,243.519c3.072-8.229,6.163-14.676,6.906-14.4s-1.145,7.172-4.217,15.4-6.16,14.676-6.9,14.4S945.564,251.748,948.633,243.519Z" transform="translate(-944.258 -229.114)" fill="none" fill-rule="evenodd"/>
          </g>
        </g>
        <g id="Group_3660" data-name="Group 3660" transform="translate(94.854 37.206)">
          <g id="Group_3658" data-name="Group 3658">
            <path id="Path_10764" data-name="Path 10764" d="M951.9,246.433a4.726,4.726,0,0,1-2.549-.743,4.78,4.78,0,0,1-2.111-4.989l-2.228-1.415a.919.919,0,0,1-.281-1.264l.826-1.3a.916.916,0,0,1,1.264-.281l2.228,1.415a4.776,4.776,0,0,1,5.414-.207,4.763,4.763,0,0,1-2.562,8.784Zm-2.761-6.524a.911.911,0,0,1,.021.714,2.938,2.938,0,1,0,5.613.409,2.938,2.938,0,0,0-4.979-1.4A.91.91,0,0,1,949.142,239.909Z" transform="translate(-944.591 -236.298)" fill="#b84631"/>
          </g>
          <g id="Group_3659" data-name="Group 3659" transform="translate(0.916 0.916)">
            <path id="Path_10765" data-name="Path 10765" d="M948.568,238.425a3.846,3.846,0,1,1-.828,1.3l-2.8-1.784.826-1.3Z" transform="translate(-944.936 -236.643)" fill="none" fill-rule="evenodd"/>
          </g>
        </g>
        <g id="Group_3661" data-name="Group 3661" transform="translate(74.19 14.219)">
          <path id="Path_10766" data-name="Path 10766" d="M936.867,232.883c2.987-5.52,9.657-7.355,16.656-2.191C947.045,228.9,935.906,235.7,936.867,232.883Z" transform="translate(-936.809 -227.641)" fill="#fefefe" fill-rule="evenodd"/>
        </g>
        <g id="Group_3662" data-name="Group 3662" transform="translate(100.353 15.294)">
          <path id="Path_10767" data-name="Path 10767" d="M946.662,230.521c1.853.438,3.077-1.628,5.584-2.244C950.3,227.138,947.562,230.574,946.662,230.521Z" transform="translate(-946.662 -228.046)" fill="#fefefe" fill-rule="evenodd"/>
        </g>
        <g id="Group_3663" data-name="Group 3663" transform="translate(99.984 39.338)">
          <path id="Path_10768" data-name="Path 10768" d="M946.523,237.927c2.679.191,5.8,3.97,5.489,1.811C951.611,236.965,947.505,236.41,946.523,237.927Z" transform="translate(-946.523 -237.101)" fill="#fefefe" fill-rule="evenodd"/>
        </g>
        <g id="Group_3664" data-name="Group 3664" transform="translate(62.268)">
          <path id="Path_10769" data-name="Path 10769" d="M932.319,223.3c12.953-4.923,16.569,9.054,7.578,20.724C946.944,230.281,939.207,224.089,932.319,223.3Z" transform="translate(-932.319 -222.286)" fill="#8a2e30" fill-rule="evenodd"/>
        </g>
      </g>
      <g id="Group_3666" data-name="Group 3666" transform="translate(1004.724 512.248)">
        <path id="Path_10770" data-name="Path 10770" d="M909.461,294.97c15.417-13.367,13.69-29.5,6.285-45.317,8.762,10.135,12.49,24.343,12.01,39.125,11.365,5.555,22.121,12.323,43.78,18.332,0,0-27.145-3.784-50.808-8.059l.032.008C916.864,296.348,913.181,294.981,909.461,294.97Z" transform="translate(-909.461 -249.653)" fill="#c7252e" fill-rule="evenodd"/>
      </g>
      <g id="Group_3671" data-name="Group 3671" transform="translate(877.548 442.851)">
        <g id="Group_3667" data-name="Group 3667" transform="translate(3.675 5.438)">
          <path id="Path_10771" data-name="Path 10771" d="M948.953,330.137c1.466-1.9.836-4.75,1.9-6.248,4.485,3.1,9.052,12.3,10.454,17.713.908,3.5-16.314,41.093-12.461,14.853-1.211-.937-1.6-6.065-6.816-9.946-1.059-.789-2.315-1.129-3.17-1.954.093-5.175,1.723-8.537-1.774-15.634-2.353-4.771-6.107-6.819-10.929-7.78-.526-5.507.321-12.681-7.015-18.271-11.03-8.407-25.546-2.448-28.316,10.9-1.1,5.292.215,3.885-5.148,7-1.824,1.059-7.321,3.893-8.155,5.515,3.521,1.577,11.484-2.767,14.453-5.2,2.406-1.973,7.742-7.711,7.408-10.589l-4.307,3.728c-.056-3.136,3.123-7.339,5.664-9.057,9.184-6.2,24.951.781,21.053,18.908-3.64,16.935-19.41,25.862-34.967,29.975-22.848,6.043-27.617-15.106-21.343-29.988,4.551-10.8,13.03-18.595,22.6-24.877,10.637-6.981,6.853-2.533,11.38-3.141-7.735-13.122-23.788-27.5-18.722-47.845a30.7,30.7,0,0,1,12.719-18.666c10.377-7.039,16.662-4.809,19.357,7.323,4.509,20.31-5.042,31.255,10.265,50.511,10.186,12.817,20.092,16.555,22.639,28.937C946.38,319.516,947.429,327.843,948.953,330.137Z" transform="translate(-862.949 -225.565)" fill="#fff" fill-rule="evenodd"/>
        </g>
        <g id="Group_3668" data-name="Group 3668">
          <path id="Path_10772" data-name="Path 10772" d="M908.1,400.458c-12.45-.414-18.122-5.677-20.233-18.438-11.032-4.169-14.158-9.161-16.428-20.812-.473-2.422-2.31-3.125-4.156-4.987a19.976,19.976,0,0,1-3.927-6.019c-4.971-12.655,1.126-27.328,9.514-37.293,6.641-7.891,13.141-11.7,21.651-17.039-11.2-12.758-20.525-26.752-17-44.7a35.6,35.6,0,0,1,10.09-18.693c5.284-5.348,14.753-10.82,22.429-8.351,14.819,4.766,11.439,32.612,11.641,44.94.287,17.527,19.2,28.855,26.337,39.218,3.423,4.976,2.815,8.478,4.74,12.95a15.582,15.582,0,0,0,2.913,3.869h0c11.818,13.332,14.267,36.815-4.62,45.859a23.423,23.423,0,0,1-1.875,4.849c-8.584,14.561-24.027,25.214-41.074,24.646Zm45.208-73.232c-1.06,1.5-.6,4.405-2.063,6.3-1.524-2.294-2.573-10.621-3.234-13.826-2.546-12.381-12.453-16.12-22.639-28.937-15.307-19.256-5.756-30.2-10.265-50.511-2.7-12.132-8.98-14.362-19.357-7.323A30.7,30.7,0,0,0,883.03,251.6c-5.066,20.35,10.988,34.723,18.722,47.845-4.527.608-.743-3.839-11.38,3.141-9.572,6.282-18.05,14.081-22.6,24.877-6.274,14.883-1.505,36.032,21.343,29.988,15.557-4.113,31.327-13.04,34.967-29.975,3.9-18.127-11.869-25.111-21.053-18.908-2.541,1.718-5.719,5.921-5.664,9.057l4.307-3.728c.334,2.878-5,8.616-7.408,10.589-2.969,2.43-10.932,6.773-14.453,5.2.834-1.622,6.33-4.456,8.155-5.515,5.364-3.12,4.052-1.713,5.148-7,2.77-13.348,17.286-19.306,28.316-10.9,7.336,5.589,6.49,12.764,7.015,18.271,4.822.961,8.576,3.008,10.929,7.78,3.5,7.1,1.867,10.459,1.774,15.634.855.826,2.111,1.166,3.17,1.954,5.459,3.959,7.937,10.485,7.4,17.118,9.649-10.039,12.265-25.841,1.588-39.792Zm-5.542,40.62c1.054-8.93-6.346-17.623-8.558-14.936-4.3,5.231-3.176,6.216-11.365,13.255-7.262,6.243-16.81,12.392-26.184,14.986-1.612.446-9.288,1.336-9.716,1.657-.048,2.759,2.318,7.459,4.188,9.6,2.119,2.427,4.394,3.221,7.482,3.733,19.617,3.263,42.893-17.612,44.152-28.3Zm-72.494-5.974c2.522,9.5,6.922,17.1,17.873,16.489,15.244-.844,38.029-16.752,42.943-28.6,3.011-7.267,1.134-19.726-8.292-20.87-.794,1.381-1.779,5.037-2.6,6.943-6.261,14.516-26.653,25.331-41.818,26.635a24.733,24.733,0,0,1-4.32.061C877.483,362.365,876.679,361.739,875.272,361.871Z" transform="translate(-861.565 -223.517)" fill="#595959" fill-rule="evenodd"/>
        </g>
        <g id="Group_3669" data-name="Group 3669" transform="translate(13.707 105.373)">
          <path id="Path_10773" data-name="Path 10773" d="M866.727,296.183c1.407-.133,2.212.494,3.786.659a24.733,24.733,0,0,0,4.32-.061c15.164-1.3,35.557-12.119,41.818-26.635.821-1.906,1.805-5.563,2.6-6.943,9.426,1.144,11.3,13.6,8.292,20.87-4.915,11.848-27.7,27.755-42.943,28.6C873.649,313.28,869.25,305.678,866.727,296.183Z" transform="translate(-866.727 -263.202)" fill="#fff" fill-rule="evenodd"/>
        </g>
        <g id="Group_3670" data-name="Group 3670" transform="translate(30.378 128.897)">
          <path id="Path_10774" data-name="Path 10774" d="M873.006,302.455c.428-.321,8.1-1.211,9.716-1.657,9.373-2.594,18.922-8.744,26.184-14.986,8.189-7.039,7.063-8.024,11.365-13.255,2.212-2.687,9.612,6.006,8.558,14.936-1.652,14.009-24.851,31.51-44.152,28.3-3.088-.512-5.364-1.306-7.482-3.733C875.325,309.914,872.959,305.214,873.006,302.455Z" transform="translate(-873.005 -272.061)" fill="#fff" fill-rule="evenodd"/>
        </g>
      </g>
      <g id="Group_3713" data-name="Group 3713" transform="translate(889.895 91.009)">
        <g id="Group_3672" data-name="Group 3672" transform="translate(5.698 41.555)">
          <path id="Path_10775" data-name="Path 10775" d="M1010.29,279.842c2.685,10.257-7.782,16.81-10.459,5.061-2.034-8.935,7.164-17.641,10.459-5.061Zm-34.89,10.5c5.09,10.308-4.862,15.09-10.334,4.161-4.8-9.572,5.207-14.543,10.334-4.161Zm109.872-19.375.94-1.721a62.721,62.721,0,0,1,10.977,11.311c-3.194-10.9-14.131-25.2-24.4-19.723l8.292,5.356c.34,16.436-9.594,47.808-24.253,60.062-20.355,17.01-37.657,2.01-61.663,7.95-16.964,4.2-41.4,26.47-63.606,22.787-10.483-1.739-20.193-8.428-27.424-21.226-11.672-20.663-5.608-21.654,3.308-29.42-8.653.773-22.84,9.689-15.86,24.354.874-2.1.356-.507.77-2.655.321-1.675-.059-.258.183-1.721.377-2.292.077-1.776,1.511-4.015l9.867,17.538c8.013,11.776,21.452,18.5,32.936,20.942,9.888,6.691,16.356,5.125,20.2,15.377,16.574,10.964,38.443,18.905,55.957,13.353a88.661,88.661,0,0,0,30.4-16.85c20.939-31.975,28.278-37.636,33.586-70.173,1.1-6.766,6.277-24.261,8.271-31.526ZM907.292,134.594c12.411,2.191,6.872,32.853-23.783,20.52l.08.215c4.782,4.713,3.51,4.777,5.008,10.04,1.774,6.234,3.465,5.637,7.076,9.408-6.89,42.858-16.091,84.511-27.312,127.526a109.115,109.115,0,0,0,74.83,103.855,150.714,150.714,0,0,0,59.172,7.228c23.7-1.79,41.116-8.653,62.17-28.839,19.819-19,27.867-35.19,34.311-56.8,5.863-19.673,8.826-38.57,4.086-60.017-5.767-26.1-19.365-42.033-40.3-62.074-19.466-18.632-27.439-40.365-37.415-62.69,3.4-4.36,4.909-7.084,2.164-13.542-15.2,18.834-36.868-7.082-24.583-21.409-6.911-2.042-9.214-.863-16.258,4.336-3.149,1.591-2.783,1.155-3.643,6.367-2.833-4.928-.271-3.9-1.216-7.844-3.962-3.648-12.859-3.192-16.324-2.185,1.511,5.656,7.448,11.911-2.833,4.649-5.738-4.992-14.638-7.636-21.513-6.351-8.237,1.537-16.938,4.437-23.177,12.567l4.386,6.1c-5.127-1.6-10.987-7.467-22.981,1.569Z" transform="translate(-868.361 -106.66)" fill="#56ba4a" fill-rule="evenodd"/>
        </g>
        <g id="Group_3673" data-name="Group 3673" transform="translate(69.14 237.386)">
          <path id="Path_10776" data-name="Path 10776" d="M893.834,240.668c3.731,5.634,17.068,14.875,22.66,17.928,16.574,10.966,39.455,14.391,56.969,8.839a88.661,88.661,0,0,0,30.4-16.85c11.664-9.947,13.749-16.346,21.446-26.741.961-3.393,3.213-7.3,4.607-10.871,1.469-3.765,2.589-7.188,3.625-10.825,1.617-5.69,4.291-17.318,3.908-21.736-1.477.358-3.983,6.885-5.38,9.246-11.93,11.824-14,25.82-60.123,21.077-30.028-3.088-54.823,30.2-79.695,27.8Z" transform="translate(-892.254 -180.412)" fill="#24462d" fill-rule="evenodd"/>
        </g>
        <g id="Group_3674" data-name="Group 3674" transform="translate(1.216 58.776)">
          <path id="Path_10777" data-name="Path 10777" d="M1081.682,364.406c11.5-14.078,19.859-31.648,24.9-48.047,14.4-46.823,2.878-84.5-31.414-118.687-5.021-5.005-10.714-9.179-15.2-14.453-8.717-10.239-15.459-23.958-21.152-35.458-5.343-10.791-7.852-12.543-5.218-17.288,3.176-5.722,3.741-10.194.281-16.646l-1.556-.682-2.153,5.539c2.745,6.458,1.235,9.182-2.164,13.542,9.976,22.325,17.949,44.059,37.415,62.69,20.939,20.042,34.537,35.979,40.3,62.074,4.74,21.446,1.776,40.344-4.086,60.017-6.444,21.614-14.492,37.8-34.311,56.8-21.053,20.188-38.467,27.052-62.17,28.841a150.714,150.714,0,0,1-59.172-7.228,109.115,109.115,0,0,1-74.83-103.855c-.611-10,1.845-23.223,4.532-32.075,3.553-11.71,11.179-27.692,12.156-31.311a173.949,173.949,0,0,0,5.446-31.943c.542-6.232,1.861-26.252,5.177-32.2-3.611-3.77-5.3-3.17-7.076-9.408-1.5-5.263-.226-5.326-5.008-10.04-2.979,10.971,5.156,20.514,5.172,20.589-.728,4.283-1.691,5.685-2.068,10-.322,3.659-.765,5.86-.81,9.429-.7,56.812-17,53.086-21.489,95.35-1.052,9.925-.677,26.452,2.875,38.873,14.012,49,45.224,75.457,93.515,85.794C1021.564,416.542,1052.378,400.271,1081.682,364.406Z" transform="translate(-866.673 -113.145)" fill="#2d7536" fill-rule="evenodd"/>
        </g>
        <g id="Group_3675" data-name="Group 3675" transform="translate(41.631 85.481)">
          <path id="Path_10778" data-name="Path 10778" d="M981.086,196.993l-1.927.157c-.159,0-.422-.019-.592-.027l-6.933.037c-2.629-.189-3.2.977-8.868-4.137-19.931-17.968-20.068-64.841,3.834-64.677,14.086.1,24.72,20.589,27.036,33.337,1.606,8.853,2.111,33.536-12.549,35.31Zm-50.256,10.09c18.287-16.221-3.218-71.692-26.741-62.3-17.758,7.092-15.331,39.651-5.069,55.543,3.635,5.629,11.7,14.609,17.27,13.231l1.42-.489c.218-.1.436-.178.672-.295.4-.191,1.384-.815,1.819-1.081,6.54-3.98,6.381-2.682,10.629-4.61Zm-26.345,4.695,7.581,4.262a282.1,282.1,0,0,0-24.009,19.744l-6.163,7.05c15.422-12.2,22.1-17.912,39.515-25.95a167.1,167.1,0,0,1,38.021-11.962c16.641-3.2,38.961-2.6,55.476-.935l18,2.14c-5.146-2.876-11.306-3.189-16.006-5.552-4.835-.316-9.139-1.583-14.349-2.217-2.921-.356-12.567-.834-15.077-2l5.345-7.4c11.975-29.733-6.41-62.921-24.617-65.526-25.719-3.683-32.036,36.847-16.89,60.946,4.4,6.325,8.109,8.757,11.771,13.513-11.566,1.052-20.137,5.183-26.9,6.351l3.8-17.535c-.536-1.774-.377-8.59-2.557-17.4-10.7-43.257-57.314-40.291-50.984,8.085C888.017,189.4,893.285,202.309,904.485,211.778Z" transform="translate(-881.894 -123.203)" fill="#2d7536" fill-rule="evenodd"/>
        </g>
        <g id="Group_3676" data-name="Group 3676" transform="translate(31.557)">
          <path id="Path_10779" data-name="Path 10779" d="M878.1,150.852c2.313,2.294,2.323,2.249,5.013,2.27,11.994-9.036,17.854-3.165,22.981-1.569l-4.386-6.1c6.24-8.13,14.941-11.03,23.177-12.567,6.875-1.285,15.775,1.359,21.513,6.351l-2.937-5.576c7.233-4.224,21.146-2.921,26.953,4.588,7.044-5.2,9.347-6.378,16.258-4.336,2.772-1.675,2.655-1.46,4.477-3.93-8.877-4.466-11.76-1.66-21.417,2.294-8.027-5.754-7.87-2.477-12.042-11.885a173.169,173.169,0,0,0-9.137-17.1c-10.106-17.384-16.431-15.873-23.592,1.715-10.815,26.574.457,18.881-14.089,27.742-10.31,6.282-8.04,10.3-15.507,10.417C886.679,143.3,885.72,146.567,878.1,150.852Z" transform="translate(-878.1 -91.009)" fill="#2d7536" fill-rule="evenodd"/>
        </g>
        <g id="Group_3677" data-name="Group 3677" transform="translate(108.801 286.806)">
          <path id="Path_10780" data-name="Path 10780" d="M973.843,199.953c-14.208-4.5-27.394,8.388-38.424,16.067a41.886,41.886,0,0,1,11.364-12.249c-6.21-1.192-27.224,3.359-33.931,7.682-6.641,4.283-7.945,10.244-1.187,15.2,3.394,2.491,10.5,3.858,14.652,4.27C967.024,234.957,985.415,202.489,973.843,199.953Z" transform="translate(-907.191 -199.024)" fill="#ea1c25" fill-rule="evenodd"/>
        </g>
        <g id="Group_3678" data-name="Group 3678" transform="translate(5.604 104.459)">
          <path id="Path_10781" data-name="Path 10781" d="M868.42,263.089c1.458-1.535,6.426-12.339,7.756-15,7.881-15.767,16.407-26.741,20.589-44.462,4.031-17.081,6.115-41.839,3.874-61.039,4.493-5.1,6.553-6.059,8.2-12.238l-3.531,1.365c-7.979,4.307-5.26,2.034-9.573,3.847-3.316,5.945-4.636,25.966-5.177,32.2a173.949,173.949,0,0,1-5.446,31.943c-.977,3.619-8.6,19.6-12.156,31.311C870.265,239.866,867.809,253.089,868.42,263.089Z" transform="translate(-868.325 -130.35)" fill="#2db24b" fill-rule="evenodd"/>
        </g>
        <g id="Group_3679" data-name="Group 3679" transform="translate(107.953 90.625)">
          <path id="Path_10782" data-name="Path 10782" d="M930.29,193.954c.053-2.406-2.626-1.009-8.191-8.372a33.615,33.615,0,0,1-5.584-10.868c-3.526-10.743-1.617-13.475-1.806-20.82,7.1,2.095,3.415,2.777,7.092,8.186,9.158,9.129,14.832-7.955,5.247-14.184-3.6-1.144-2.132-.605-6,.722-2.254-2.392-3.117-2.209-2.31-4.408.858-2.339,6.622-6.628,12.995-4.352,3.131,1.115,5.743,3.378,8.218,6.386,3.268,3.972,4.726,6.71,4.936,9.485,4.75,8.088,5.337,23.552.364,29.9-.558,4.41-2.456,3.409-5.247,7.642a2.183,2.183,0,0,0-.263.518c14.66-1.774,14.155-26.457,12.549-35.31-2.315-12.748-12.95-33.241-27.036-33.337-23.9-.165-23.765,46.709-3.834,64.677C927.093,194.931,927.661,193.765,930.29,193.954Z" transform="translate(-906.872 -125.14)" fill="#fcfdfb" fill-rule="evenodd"/>
        </g>
        <g id="Group_3680" data-name="Group 3680" transform="translate(50.761 105.998)">
          <path id="Path_10783" data-name="Path 10783" d="M910.6,200.767c1.436-3.465-1.519.489-8.5-7.246-8.731-9.673-9.53-22.732-9.068-33.361,7.047.775,3.441,2.862,7.676,8.117,6.505,6.811,14.835-2.751,5.64-14.551-9.416-.959-4.91,2.584-10.034-2.722,10.645-11.885,20.583-3.287,25.379,5.658,1.625,3.035,1.1,3.263,1.139,3.731,5.714,8.576,5.4,23.079,1.635,29.986-.414,2.477.138,1.1-1.487,3,.2.053,1.752.778,2.161.911,18.287-16.221-3.218-71.692-26.741-62.3-17.758,7.092-15.331,39.651-5.069,55.543C896.964,193.165,905.026,202.145,910.6,200.767Z" transform="translate(-885.332 -130.93)" fill="#fcfdfb" fill-rule="evenodd"/>
        </g>
        <g id="Group_3681" data-name="Group 3681" transform="translate(130.249 32.561)">
          <path id="Path_10784" data-name="Path 10784" d="M954.454,116.133l-7.084-7.318a18.505,18.505,0,0,1,7.666,5.433,24.972,24.972,0,0,0,2.557-3.885,7.724,7.724,0,0,0,1.174-2.2,5.249,5.249,0,0,0,.563-2.408c-6.306-7.177-19.638,3.1-25.344,6.906,2.769,2.846,5.488,1.16,9.6,6.991L933.212,113.5l-9.769,6.083c6.649,3.624,9.049,1.086,15.987,9.171-7.8-.462-13.99-13.632-22.232-4.312-2.668,3.016-2.225,7.586-.738,10.987,1.535,3.51,18.223,23.961,28.109,2.87C948.113,130.735,950.078,123.727,954.454,116.133Z" transform="translate(-915.268 -103.272)" fill="#f2ebc7" fill-rule="evenodd"/>
        </g>
        <g id="Group_3682" data-name="Group 3682" transform="translate(4.056 60.549)">
          <path id="Path_10785" data-name="Path 10785" d="M889.766,121.614a120.565,120.565,0,0,1-8.237,11.566l5.964,6.606c-.76-1.861,3.423-4.748,5.494-6.11l5.427-2.443c1.222-.271,1.179-.191,1.8-.388l-11.041,10.791a57.208,57.208,0,0,0,6.344,7.5c2.379,2.376,3.075,2.987,5.993,2.015,4.641-1.545,9.376-6.4,11.6-10.541,6.428-11.951,1.644-16.117-10.427-19.917-1.4-.441-2-.6-3.226-1.036l-3.271-1.139c-4.761-1.407-14.32-4.371-18.605-4.679-2.552-.183-12.923.568-8.932,6.319,2.153,3.1,8.221,8.064,11.316,11.423C882.9,126.534,883.274,125.037,889.766,121.614Z" transform="translate(-867.743 -113.813)" fill="#f2ebc7" fill-rule="evenodd"/>
        </g>
        <g id="Group_3683" data-name="Group 3683" transform="translate(65.302 126.691)">
          <path id="Path_10786" data-name="Path 10786" d="M903.276,156.1c2.873,1.264,4.333,5.194,1.484,5.982-2.9.8-4.442-3.223-1.484-5.982Zm-11.635-.725c-1.516,2.544-.664,6.049.226,9.4a35.661,35.661,0,0,0,4.307,10.109c5.68,8.4,12.243,10.369,19.227,2.589,3.768-6.906,4.079-21.409-1.635-29.986-2.568-3.038-4.841-6.455-8.444-7.979-2.427-1.025-6.572-1.474-8.04,1.312C906.475,152.626,898.146,162.188,891.641,155.377Z" transform="translate(-890.809 -138.723)" fill="#1d1e1d" fill-rule="evenodd"/>
        </g>
        <g id="Group_3684" data-name="Group 3684" transform="translate(122.502 111.387)">
          <path id="Path_10787" data-name="Path 10787" d="M926,156.5c-3.4-1.516-4.363-3.863-.539-6.442,2.5,2.584,2.836,4.171.539,6.442Zm-13.268-7.363a4.609,4.609,0,0,0-.38,1.851l.111,3.436a35.253,35.253,0,0,0,5.162,14.484c5.552,8.436,11.481,10.225,18.558,3.776,4.973-6.346,4.386-21.81-.364-29.9-5.226-7.148-10.494-13.061-17.841-7.833C927.563,141.182,921.889,158.266,912.731,149.137Z" transform="translate(-912.351 -132.959)" fill="#1d1e1d" fill-rule="evenodd"/>
        </g>
        <g id="Group_3685" data-name="Group 3685" transform="translate(202.197 205.861)">
          <path id="Path_10788" data-name="Path 10788" d="M954.5,200.065c.382,4.418-2.292,16.046-3.908,21.736-1.036,3.638-2.156,7.06-3.625,10.825-1.394,3.571-3.646,7.477-4.607,10.871,13.914-11.168,19.872-23.831,21.959-36.624a97.264,97.264,0,0,0,1.418-18.905c-.093-3.614-.446-15.082-2.966-19.428-1.1,2.2-3.25,15.87-5.948,23.6Z" transform="translate(-942.365 -168.539)" fill="#2dad48" fill-rule="evenodd"/>
        </g>
        <g id="Group_3686" data-name="Group 3686" transform="translate(127.844 28.641)">
          <path id="Path_10789" data-name="Path 10789" d="M955.953,118.577c-4.376,7.594-6.341,14.6-9.885,22.169-9.885,21.091-26.574.64-28.109-2.87-1.487-3.4-1.93-7.971.738-10.987,8.242-9.32,14.431,3.85,22.232,4.312-6.938-8.085-9.338-5.547-15.987-9.171l9.769-6.083,10.371,6.152c-4.11-5.831-6.829-4.145-9.6-6.991,5.706-3.808,19.038-14.083,25.344-6.906a5.249,5.249,0,0,1-.563,2.408,7.724,7.724,0,0,1-1.174,2.2,24.972,24.972,0,0,1-2.557,3.885,18.505,18.505,0,0,0-7.666-5.433l7.084,7.318Zm-4.721,18.892,2.156-5.539,1.553.682c-.149-3.218-.847-2.793.99-6.195,1.224-2.265,2.233-4.078,3.441-6.351,2.366-4.442,4.97-7.544,5.6-12.209-4.625-7.294-9.888-6.84-16.221-4.639-6.373,2.212-11.41,6.845-15.807,8.38l-1.824.531c-1.822,2.469-1.7,2.254-4.477,3.93-6.149,4.923-12.379,7.2-12.286,14.328.072,5.372,3.5,11.991,9.108,16.29C943.293,161.866,949.384,140.053,951.232,137.469Z" transform="translate(-914.362 -101.796)" fill="#ecd5bb" fill-rule="evenodd"/>
        </g>
        <g id="Group_3687" data-name="Group 3687" transform="translate(0 56.865)">
          <path id="Path_10790" data-name="Path 10790" d="M891.7,143.934l11.041-10.791c-.619.2-.576.117-1.8.388l-5.427,2.443c-2.071,1.362-6.253,4.248-5.494,6.11l-5.964-6.606a120.565,120.565,0,0,0,8.237-11.566c-6.492,3.423-6.869,4.92-9.8,9.965-3.1-3.359-9.163-8.319-11.316-11.423-3.991-5.751,6.381-6.5,8.932-6.319,4.286.308,13.844,3.271,18.605,4.679l3.271,1.139c1.224.438,1.827.595,3.226,1.036,12.071,3.8,16.856,7.966,10.427,19.917-2.225,4.14-6.959,9-11.6,10.541-2.918.972-3.614.361-5.993-2.015a57.208,57.208,0,0,1-6.344-7.5Zm-4.639,1.636c7.267,1.843,8.595,20.6,28.313.754,2.95-4.272,4.057-7.252,4.572-11.367.8-6.338-.807-6.853-4.843-12.875l-12.318-4.408c-2.69-.021-2.7.024-5.013-2.27-2.87,1.492-6.216-1.062-14.02-2.435-3.824-.672-11.022-1.466-15.2,2.65-5.589,5.5.011,9.559,4.692,14.137C877.871,134.274,883.8,139.614,887.061,145.57Z" transform="translate(-866.215 -112.425)" fill="#ecd5bb" fill-rule="evenodd"/>
        </g>
        <g id="Group_3688" data-name="Group 3688" transform="translate(85.27 169.882)">
          <path id="Path_10791" data-name="Path 10791" d="M898.329,169.4c19.641-2.78,36.106-8.672,58.535-5.353,5.215.773,14.88,3.638,18.547-1.543C966.962,145.643,911.008,161.282,898.329,169.4Z" transform="translate(-898.329 -154.989)" fill="#a6d497" fill-rule="evenodd"/>
        </g>
        <g id="Group_3689" data-name="Group 3689" transform="translate(39.685 275.503)">
          <path id="Path_10792" data-name="Path 10792" d="M934.856,234.835c-6.612-3.614-13.491-13.529-23.218-19.978-4.163-2.764-11.348-2.467-15.153-4.748-6.665-4-10.34-8.64-15.323-15.342-.106,8.879,15.562,24.986,23.364,30.265C914.413,231.723,924.02,233.982,934.856,234.835Z" transform="translate(-881.161 -194.767)" fill="#31b24a" fill-rule="evenodd"/>
        </g>
        <g id="Group_3690" data-name="Group 3690" transform="translate(115.441 119.379)">
          <path id="Path_10793" data-name="Path 10793" d="M925.622,176.029l6.933-.037c.17.008.433.024.592.027l1.927-.157a2.183,2.183,0,0,1,.263-.518c2.791-4.233,4.689-3.231,5.247-7.642-7.076,6.45-13.006,4.66-18.558-3.776a35.253,35.253,0,0,1-5.162-14.484l-.111-3.436a4.609,4.609,0,0,1,.38-1.851c-3.677-5.409.008-6.091-7.092-8.186.188,7.344-1.721,10.077,1.806,20.82a33.615,33.615,0,0,0,5.584,10.868C923,175.02,925.675,173.623,925.622,176.029Z" transform="translate(-909.691 -135.969)" fill="#5ab64d" fill-rule="evenodd"/>
        </g>
        <g id="Group_3691" data-name="Group 3691" transform="translate(95.918 146.662)">
          <path id="Path_10794" data-name="Path 10794" d="M917.471,146.244a75.426,75.426,0,0,1-11.327,2.329l-3.8,17.535c6.766-1.168,15.337-5.3,26.9-6.351C925.58,155,921.868,152.569,917.471,146.244Z" transform="translate(-902.339 -146.244)" fill="#2dad48" fill-rule="evenodd"/>
        </g>
        <g id="Group_3692" data-name="Group 3692" transform="translate(58.356 135.228)">
          <path id="Path_10795" data-name="Path 10795" d="M905.864,182.545l1.42-.489c.218-.1.436-.178.672-.295.4-.191,1.384-.815,1.819-1.081,6.54-3.98,6.381-2.682,10.629-4.61-.409-.133-1.957-.858-2.161-.911,1.625-1.906,1.073-.526,1.487-3-6.983,7.78-13.547,5.807-19.227-2.589A35.661,35.661,0,0,1,896.2,159.46c-.889-3.356-1.742-6.861-.226-9.4-4.235-5.255-.629-7.342-7.676-8.117-.462,10.629.337,23.687,9.068,33.361C904.345,183.033,907.3,179.08,905.864,182.545Z" transform="translate(-888.193 -141.938)" fill="#5ab64d" fill-rule="evenodd"/>
        </g>
        <g id="Group_3693" data-name="Group 3693" transform="translate(46.191 65.026)">
          <path id="Path_10796" data-name="Path 10796" d="M886.309,116.994c4.036,6.022,5.64,6.537,4.843,12.875-.515,4.116-1.622,7.095-4.572,11.367-.072.255-.425.382-.329.72l-2.374,4.155a2.813,2.813,0,0,0-.265.571c7.966-1.4,11.574-10.621,12.588-16.354,1.6-9.025-.8-13.12-10.48-14.83Z" transform="translate(-883.611 -115.499)" fill="#31b24a" fill-rule="evenodd"/>
        </g>
        <g id="Group_3694" data-name="Group 3694" transform="translate(101.136 219.457)">
          <path id="Path_10797" data-name="Path 10797" d="M915.9,179.439c-5.127-10.382-15.13-5.411-10.334,4.161C911.043,194.529,920.995,189.747,915.9,179.439Z" transform="translate(-904.304 -173.659)" fill="#2d7536" fill-rule="evenodd"/>
        </g>
        <g id="Group_3695" data-name="Group 3695" transform="translate(47.794 174.056)">
          <path id="Path_10798" data-name="Path 10798" d="M884.215,180.567a282.1,282.1,0,0,1,24.009-19.744l-7.581-4.262c-4.453,3.9-7.14,7.692-10.34,12.257a62.733,62.733,0,0,0-3.818,5.738C885.107,177.07,884.512,178.169,884.215,180.567Z" transform="translate(-884.215 -156.561)" fill="#31b24a" fill-rule="evenodd"/>
        </g>
        <g id="Group_3696" data-name="Group 3696" transform="translate(136.877 208.444)">
          <path id="Path_10799" data-name="Path 10799" d="M928.514,175.805c-3.3-12.581-12.493-3.874-10.459,5.061C920.732,192.615,931.2,186.062,928.514,175.805Z" transform="translate(-917.765 -169.512)" fill="#2d7536" fill-rule="evenodd"/>
        </g>
        <g id="Group_3697" data-name="Group 3697" transform="translate(96.919 40.268)">
          <path id="Path_10800" data-name="Path 10800" d="M905.653,114.136l7.419,5.239c-.38-3.5-2.278-6.033-4.586-9.888,3.465-1.006,11.943.231,15.9,3.879.948,3.94-1.466,4.246,1.367,9.177,1.692-3.579,1.235-4.981,3.914-9.394-5.807-7.509-19.72-8.813-26.953-4.588Z" transform="translate(-902.716 -106.175)" fill="#31b24a" fill-rule="evenodd"/>
        </g>
        <g id="Group_3698" data-name="Group 3698" transform="translate(119.524 104.698)">
          <path id="Path_10801" data-name="Path 10801" d="M919.834,139.123c7.347-5.228,12.615.685,17.841,7.833-.21-2.775-1.668-5.512-4.936-9.485-2.475-3.008-5.088-5.271-8.218-6.386-6.373-2.276-12.137,2.013-12.995,4.352-.807,2.2.056,2.015,2.31,4.408C917.7,138.518,916.234,137.979,919.834,139.123Z" transform="translate(-911.229 -130.44)" fill="#5ab64d" fill-rule="evenodd"/>
        </g>
        <g id="Group_3699" data-name="Group 3699" transform="translate(61.74 120.258)">
          <path id="Path_10802" data-name="Path 10802" d="M899.5,144.837c1.469-2.785,5.613-2.337,8.04-1.312,3.6,1.524,5.876,4.941,8.444,7.979-.042-.467.486-.7-1.139-3.731-4.8-8.946-14.734-17.543-25.379-5.658C894.592,147.42,890.086,143.878,899.5,144.837Z" transform="translate(-889.467 -136.3)" fill="#5ab64d" fill-rule="evenodd"/>
        </g>
        <g id="Group_3700" data-name="Group 3700" transform="translate(147.212 151.242)">
          <path id="Path_10803" data-name="Path 10803" d="M951.083,159.58a113.131,113.131,0,0,0-12.241-6.537c-3.444-1.6-9.522-3.441-11.84-5.074l-5.345,7.4c2.509,1.163,12.156,1.641,15.077,2C941.943,158,946.247,159.264,951.083,159.58Z" transform="translate(-921.657 -147.969)" fill="#31b24a" fill-rule="evenodd"/>
        </g>
        <g id="Group_3701" data-name="Group 3701" transform="translate(81.336 7.367)">
          <path id="Path_10804" data-name="Path 10804" d="M896.868,113.382c5.828-7.945,7.4-19.561,18.327-9.519-.032-.226-.26-.733-.149-.669a13.853,13.853,0,0,0-8.975-9.41C899.638,97.833,896.56,109.11,896.868,113.382Z" transform="translate(-896.847 -93.784)" fill="#36aa49" fill-rule="evenodd"/>
        </g>
        <g id="Group_3702" data-name="Group 3702" transform="translate(76.174 144.07)">
          <path id="Path_10805" data-name="Path 10805" d="M896.5,145.268c-2.958,2.759-1.418,6.787,1.484,5.982C900.832,150.462,899.372,146.532,896.5,145.268Z" transform="translate(-894.903 -145.268)" fill="#f9f9f9" fill-rule="evenodd"/>
        </g>
        <g id="Group_3703" data-name="Group 3703" transform="translate(133.143 128.487)">
          <path id="Path_10806" data-name="Path 10806" d="M919.366,145.841c2.3-2.27,1.965-3.858-.539-6.442C915,141.977,915.965,144.324,919.366,145.841Z" transform="translate(-916.358 -139.399)" fill="#fcfdfb" fill-rule="evenodd"/>
        </g>
        <g id="Group_3704" data-name="Group 3704" transform="translate(92.71 213.01)">
          <path id="Path_10807" data-name="Path 10807" d="M914.7,172.959c-10.244-1.612-13.837,2.541-10.73,11.357C896.32,174.539,905.563,167.93,914.7,172.959Z" transform="translate(-901.131 -171.231)" fill="#337321" fill-rule="evenodd"/>
        </g>
        <g id="Group_3705" data-name="Group 3705" transform="translate(135.534 200.156)">
          <path id="Path_10808" data-name="Path 10808" d="M917.259,172.218c8.088-6.487,13.268-4.668,14.954,4.525C933.995,164.456,922.689,163.312,917.259,172.218Z" transform="translate(-917.259 -166.39)" fill="#337321" fill-rule="evenodd"/>
        </g>
        <g id="Group_3706" data-name="Group 3706" transform="translate(27.053 194.521)">
          <path id="Path_10809" data-name="Path 10809" d="M889.036,245.25c4.984,6.7,8.659,11.346,15.323,15.342,9.938,4.843,14.052,5.789,24.216,4.373,22.439-3.123,35.556-20.31,54.844-24.473,8.186-1.768,13.882-.566,21.837.077,24.1,1.944,37.37,2.278,53.052-24.189,1.4-2.361,3.9-8.887,5.38-9.246l2.323-7.923c2.7-7.732,4.846-21.407,5.948-23.6l.94-1.721a62.721,62.721,0,0,1,10.977,11.311c-3.194-10.9-14.131-25.2-24.4-19.723l8.292,5.356c.34,16.436-10.685,46.127-25.347,58.381-20.353,17.009-37.506,2.148-61.509,8.088-16.964,4.2-40.458,28.013-62.667,24.33-10.483-1.739-20.193-8.428-27.424-21.226-11.672-20.663-5.608-21.654,3.308-29.42-8.653.773-22.84,9.689-15.86,24.354.874-2.1.356-.507.77-2.655.321-1.675-.059-.258.183-1.721.377-2.292.077-1.776,1.511-4.015Z" transform="translate(-876.404 -164.268)" fill="#2d7536" fill-rule="evenodd"/>
        </g>
        <g id="Group_3709" data-name="Group 3709" transform="translate(77.987 290.866)">
          <g id="Group_3707" data-name="Group 3707">
            <path id="Path_10810" data-name="Path 10810" d="M911.432,200.553c1.452,3.733,4.232,11.911-.943,13.295-.032.008-.061.013-.093.019-5.149.882-11.569-5.172-14.811-8.871A129.343,129.343,0,0,0,911.432,200.553Z" transform="translate(-895.586 -200.553)" fill="#e8d4bf" fill-rule="evenodd"/>
          </g>
          <g id="Group_3708" data-name="Group 3708" transform="translate(1.166 0.337)">
            <path id="Path_10811" data-name="Path 10811" d="M896.025,204.538c3.006,3.327,8.958,8.871,13.47,8.1,3.662-.98,2.183-6.925.231-11.959A129.711,129.711,0,0,1,896.025,204.538Z" transform="translate(-896.025 -200.68)" fill="#f2e8c7" fill-rule="evenodd"/>
          </g>
        </g>
        <g id="Group_3712" data-name="Group 3712" transform="translate(175.52 266.663)">
          <g id="Group_3710" data-name="Group 3710">
            <path id="Path_10812" data-name="Path 10812" d="M932.318,196.252c.791,3.924,2.868,12.31,7.968,10.682l.09-.035c4.809-2.039,6.944-10.6,7.677-15.461A129.745,129.745,0,0,1,932.318,196.252Z" transform="translate(-932.318 -191.438)" fill="#e8d4bf" fill-rule="evenodd"/>
          </g>
          <g id="Group_3711" data-name="Group 3711" transform="translate(1.004 0.42)">
            <path id="Path_10813" data-name="Path 10813" d="M946.312,191.6c-.733,4.424-2.751,12.3-6.965,14.091-3.609,1.152-5.576-4.649-6.651-9.941A129.726,129.726,0,0,0,946.312,191.6Z" transform="translate(-932.696 -191.596)" fill="#f2e8c7" fill-rule="evenodd"/>
          </g>
        </g>
      </g>
    </g>
  </g>
</svg>
