<svg xmlns="http://www.w3.org/2000/svg" xmlns:xlink="http://www.w3.org/1999/xlink" width="1365" height="523" viewBox="0 0 1365 523">
  <defs>
    <clipPath id="clip-path">
      <rect id="Rectangle_10205" data-name="Rectangle 10205" width="1365" height="523" transform="translate(278 2014)" fill="#fff" stroke="#707070" stroke-width="1"/>
    </clipPath>
    <linearGradient id="linear-gradient" x1="0.5" x2="0.5" y2="1" gradientUnits="objectBoundingBox">
      <stop offset="0" stop-color="#f5797b"/>
      <stop offset="1" stop-color="#f55f83"/>
    </linearGradient>
  </defs>
  <g id="Mask_Group_3" data-name="Mask Group 3" transform="translate(-278 -2014)" clip-path="url(#clip-path)">
    <g id="Group_3715" data-name="Group 3715">
      <path id="Path_10506" data-name="Path 10506" d="M3099.912,1311.7s-128.881-226.9,69.327-345.213S3359.084,789.1,3359.084,789.1l-901.579.836s-5.969.279-6.144,6.99,0,504.773,0,504.773.385,10.49,11.074,10.49S3099.912,1311.7,3099.912,1311.7Z" transform="translate(-2149 1225)" opacity="0.39" fill="url(#linear-gradient)"/>
      <path id="Path_10501" data-name="Path 10501" d="M3099.912,1311.7s-128.881-226.9,69.327-345.213S3359.084,789.1,3359.084,789.1l-901.579.836s-5.969.279-6.144,6.99,0,504.773,0,504.773.385,10.49,11.074,10.49S3099.912,1311.7,3099.912,1311.7Z" transform="translate(-2173 1225)" fill="url(#linear-gradient)"/>
    </g>
  </g>
</svg>
