<svg xmlns="http://www.w3.org/2000/svg" width="20.942" height="23.224" viewBox="0 0 20.942 23.224">
  <g id="recipt" transform="translate(-19.856 -17.031) rotate(30)">
    <path id="Path_10508" data-name="Path 10508" d="M61.055,51.686h3.613a.686.686,0,0,0,0-1.373H61.055a.686.686,0,1,0,0,1.373Z" transform="translate(-23.9 -45.708)" fill="#fff"/>
    <path id="Path_10509" data-name="Path 10509" d="M67.915,81.994H61.055a.686.686,0,1,0,0,1.373h6.859a.686.686,0,1,0,0-1.373Z" transform="translate(-23.9 -74.489)" fill="#fff"/>
    <path id="Path_10510" data-name="Path 10510" d="M61.055,115.055H65.94a.686.686,0,0,0,0-1.373H61.055a.686.686,0,1,0,0,1.373Z" transform="translate(-23.9 -103.277)" fill="#fff"/>
    <path id="Path_10511" data-name="Path 10511" d="M67.915,145.367H61.055a.686.686,0,1,0,0,1.373h6.859a.686.686,0,1,0,0-1.373Z" transform="translate(-23.9 -132.061)" fill="#fff"/>
    <path id="Path_10512" data-name="Path 10512" d="M46.909,1.661,45.449.2a.686.686,0,0,0-.971,0l-.974.974L42.53.2a.687.687,0,0,0-.971,0l-.974.974L39.611.2a.687.687,0,0,0-.971,0l-.974.974L36.692.2a.686.686,0,0,0-.971,0l-1.459,1.46a.687.687,0,0,0-.2.485V17.138a.687.687,0,0,0,.2.485l1.459,1.459a.686.686,0,0,0,.971,0l.974-.974.974.974a.686.686,0,0,0,.971,0l.973-.974.974.974a.686.686,0,0,0,.971,0l.974-.974.974.974a.687.687,0,0,0,.971,0l1.459-1.459a.686.686,0,0,0,.2-.485V2.146A.687.687,0,0,0,46.909,1.661ZM45.737,16.854l-.773.773-.974-.974a.686.686,0,0,0-.971,0l-.974.974-.974-.974a.686.686,0,0,0-.971,0l-.973.974-.974-.974a.686.686,0,0,0-.971,0l-.974.974-.773-.773V2.431l.773-.773.974.974a.686.686,0,0,0,.971,0l.974-.974.974.974a.687.687,0,0,0,.971,0l.974-.974.974.974a.687.687,0,0,0,.971,0l.974-.974.773.773V16.854Z" transform="translate(0 0)" fill="#fff"/>
  </g>
</svg>
