<svg xmlns="http://www.w3.org/2000/svg" xmlns:xlink="http://www.w3.org/1999/xlink" width="1920" height="534" viewBox="0 0 1920 534">
  <defs>
    <clipPath id="clip-path">
      <rect id="Rectangle_10228" data-name="Rectangle 10228" width="1920" height="534" transform="translate(-8631 -1423)" fill="rgba(255,255,255,0.61)" stroke="#707070" stroke-width="1"/>
    </clipPath>
    <linearGradient id="linear-gradient" x1="10.307" y1="0.831" x2="10.905" y2="0.082" gradientUnits="objectBoundingBox">
      <stop offset="0.046" stop-color="#c0c9b9"/>
      <stop offset="0.535" stop-color="#8b9aaa"/>
      <stop offset="1" stop-color="#afd6c5"/>
    </linearGradient>
    <linearGradient id="linear-gradient-2" x1="12.168" y1="1.132" x2="12.598" y2="-0.049" gradientUnits="objectBoundingBox">
      <stop offset="0"/>
      <stop offset="1" stop-color="#a9cfff"/>
    </linearGradient>
    <linearGradient id="linear-gradient-3" x1="89.437" y1="0.898" x2="93.921" y2="0.113" xlink:href="#linear-gradient-2"/>
    <linearGradient id="linear-gradient-4" x1="69.949" y1="2.164" x2="70.181" y2="-1.078" gradientUnits="objectBoundingBox">
      <stop offset="0.046" stop-color="#c5a69d"/>
      <stop offset="0.535" stop-color="#6f617a"/>
      <stop offset="1" stop-color="#c2929d"/>
    </linearGradient>
    <linearGradient id="linear-gradient-5" x1="70.366" y1="2.164" x2="70.597" y2="-1.078" xlink:href="#linear-gradient-4"/>
    <linearGradient id="linear-gradient-6" x1="67.123" y1="2.237" x2="67.353" y2="-1.151" xlink:href="#linear-gradient-4"/>
    <linearGradient id="linear-gradient-7" x1="71.347" y1="1.484" x2="71.688" y2="-0.494" xlink:href="#linear-gradient-4"/>
    <linearGradient id="linear-gradient-8" x1="67.237" y1="3.379" x2="67.476" y2="-2.379" xlink:href="#linear-gradient-4"/>
    <linearGradient id="linear-gradient-9" x1="67.38" y1="3.379" x2="67.619" y2="-2.379" xlink:href="#linear-gradient-4"/>
    <linearGradient id="linear-gradient-10" x1="81.708" y1="1.121" x2="82.237" y2="-0.088" xlink:href="#linear-gradient-4"/>
    <linearGradient id="linear-gradient-11" x1="116.278" y1="0.997" x2="117.103" y2="0.027" xlink:href="#linear-gradient-4"/>
    <linearGradient id="linear-gradient-12" x1="600.227" y1="0.898" x2="604.008" y2="0.073" xlink:href="#linear-gradient-4"/>
    <linearGradient id="linear-gradient-13" x1="92.209" y1="0.788" x2="92.606" y2="0.221" xlink:href="#linear-gradient-4"/>
    <linearGradient id="linear-gradient-14" x1="57.338" y1="0.714" x2="57.433" y2="0.296" xlink:href="#linear-gradient-4"/>
    <linearGradient id="linear-gradient-29" x1="10.307" y1="0.169" x2="10.905" y2="0.918" xlink:href="#linear-gradient"/>
    <linearGradient id="linear-gradient-30" x1="12.168" y1="-0.132" x2="12.598" y2="1.049" xlink:href="#linear-gradient-2"/>
    <linearGradient id="linear-gradient-31" x1="89.437" y1="0.102" x2="93.921" y2="0.887" xlink:href="#linear-gradient-2"/>
    <linearGradient id="linear-gradient-32" x1="69.949" y1="-1.164" x2="70.181" y2="2.078" xlink:href="#linear-gradient-4"/>
    <linearGradient id="linear-gradient-33" x1="70.366" y1="-1.164" x2="70.597" y2="2.078" xlink:href="#linear-gradient-4"/>
    <linearGradient id="linear-gradient-34" x1="67.123" y1="-1.237" x2="67.353" y2="2.151" xlink:href="#linear-gradient-4"/>
    <linearGradient id="linear-gradient-35" x1="71.347" y1="-0.484" x2="71.688" y2="1.494" xlink:href="#linear-gradient-4"/>
    <linearGradient id="linear-gradient-36" x1="67.237" y1="-2.379" x2="67.476" y2="3.379" xlink:href="#linear-gradient-4"/>
    <linearGradient id="linear-gradient-37" x1="67.38" y1="-2.379" x2="67.619" y2="3.379" xlink:href="#linear-gradient-4"/>
    <linearGradient id="linear-gradient-38" x1="81.708" y1="-0.121" x2="82.237" y2="1.088" xlink:href="#linear-gradient-4"/>
    <linearGradient id="linear-gradient-39" x1="116.278" y1="0.003" x2="117.103" y2="0.973" xlink:href="#linear-gradient-4"/>
    <linearGradient id="linear-gradient-40" x1="600.227" y1="0.102" x2="604.008" y2="0.927" xlink:href="#linear-gradient-4"/>
    <linearGradient id="linear-gradient-41" x1="92.209" y1="0.212" x2="92.606" y2="0.779" xlink:href="#linear-gradient-4"/>
    <linearGradient id="linear-gradient-42" x1="57.338" y1="0.286" x2="57.433" y2="0.704" xlink:href="#linear-gradient-4"/>
  </defs>
  <g id="background-section-1" transform="translate(8631 1423)" clip-path="url(#clip-path)">
    <g id="Group_2376" data-name="Group 2376" transform="translate(-8729.598 -896.719) rotate(-88)">
      <g id="Group_2361" data-name="Group 2361" transform="translate(0.836 1.171)">
        <path id="Path_10252" data-name="Path 10252" d="M0,71.093l.012.505,8.21,162.5H28.23c0-.212,0-.424-.012-.635L19.995,70.846A51.151,51.151,0,0,1,71.079,20H84.03a45.409,45.409,0,0,1,45.355,45.355v19.1a10,10,0,0,0,20,0v-19.1A65.427,65.427,0,0,0,84.03,0H71.079A71.165,71.165,0,0,0,0,71.093Z" fill="url(#linear-gradient)"/>
      </g>
      <g id="Group_2362" data-name="Group 2362" transform="translate(12.963 3.736)" opacity="0.55">
        <path id="Path_10253" data-name="Path 10253" d="M119.119,84.475V66.417A61.84,61.84,0,0,0,57.35,4.647H45.11A66.937,66.937,0,0,0,0,22.082,67.04,67.04,0,0,1,49.757,0H62a61.84,61.84,0,0,1,61.769,61.77V79.828a9.444,9.444,0,0,1-5.514,8.584A9.385,9.385,0,0,0,119.119,84.475Z" transform="translate(9.904 0)" fill="url(#linear-gradient-2)"/>
        <path id="Path_10254" data-name="Path 10254" d="M0,38.239l8.01,158.4h5.129q.018-.353,0-.705L4.917,33.322A50.852,50.852,0,0,1,17.537,0,50.973,50.973,0,0,0,0,38.239Z" transform="translate(0 34.888)" fill="url(#linear-gradient-3)"/>
      </g>
      <path id="Path_10255" data-name="Path 10255" d="M22.851,0,0,.993V3.247l23.133-.784Z" transform="translate(7.364 222.284)" fill="url(#linear-gradient-4)"/>
      <path id="Path_10256" data-name="Path 10256" d="M22.851,0,0,.993V3.247l23.133-.784Z" transform="translate(2.545 124.739)" fill="url(#linear-gradient-5)"/>
      <path id="Path_10257" data-name="Path 10257" d="M24.028,0,0,.993V3.247l24.309-.784Z" transform="translate(0.22 92.323)" fill="url(#linear-gradient-6)"/>
      <path id="Path_10258" data-name="Path 10258" d="M22.586,5.275.22,0,0,1.129,22.867,7.738Z" transform="translate(0 58.775)" fill="url(#linear-gradient-7)"/>
      <rect id="Rectangle_10191" data-name="Rectangle 10191" width="24.113" height="1.964" transform="translate(5.394 192.151)" fill="url(#linear-gradient-8)"/>
      <rect id="Rectangle_10192" data-name="Rectangle 10192" width="24.113" height="1.964" transform="translate(3.678 160.252)" fill="url(#linear-gradient-9)"/>
      <path id="Path_10259" data-name="Path 10259" d="M18.938,16.911,0,2.145,1.584,0,19.71,15.8Z" transform="translate(10.79 29.688)" fill="url(#linear-gradient-10)"/>
      <path id="Path_10260" data-name="Path 10260" d="M0,1.385,12.277,22.447,13.453,21.1,2.494,0Z" transform="translate(35.168 7.682)" fill="url(#linear-gradient-11)"/>
      <path id="Path_10261" data-name="Path 10261" d="M2.485,0l-.72,22.327H.882L0,0Z" transform="translate(74.659 0)" fill="url(#linear-gradient-12)"/>
      <path id="Path_10262" data-name="Path 10262" d="M0,20.43,14.048,0l1.557,1.082L2,21.47Z" transform="translate(98.566 4.4)" fill="url(#linear-gradient-13)"/>
      <g id="Group_2363" data-name="Group 2363" transform="translate(119.538 30.178)">
        <path id="Path_10263" data-name="Path 10263" d="M23.721,0,0,8.871l.784,1.96L24.321,2.189Z" transform="translate(0 0)" fill="url(#linear-gradient-14)"/>
      </g>
      <g id="Group_2364" data-name="Group 2364" transform="translate(2 94.868)" opacity="0.36">
        <path id="Path_10264" data-name="Path 10264" d="M19.988,0,0,.7.091,2.154,20.023.7Z" fill="#093668"/>
      </g>
      <g id="Group_2365" data-name="Group 2365" transform="translate(3.636 127.261)" opacity="0.36">
        <path id="Path_10265" data-name="Path 10265" d="M19.989,0,0,.688.108,2.818,20.064,1.485Z" fill="#093668"/>
      </g>
      <g id="Group_2366" data-name="Group 2366" transform="translate(5.367 162.217)" opacity="0.36">
        <path id="Path_10266" data-name="Path 10266" d="M20.088,1.226.165,3.273,0,0H20.026Z" fill="#093668"/>
      </g>
      <g id="Group_2367" data-name="Group 2367" transform="translate(6.979 194.116)" opacity="0.36">
        <path id="Path_10267" data-name="Path 10267" d="M20.027,0l.082,1.628L.153,3.033,0,0Z" fill="#093668"/>
      </g>
      <g id="Group_2368" data-name="Group 2368" transform="translate(8.68 224.813)" opacity="0.36">
        <path id="Path_10268" data-name="Path 10268" d="M19.878,0V1.98L0,2.972V.674Z" fill="#093668"/>
      </g>
      <g id="Group_2369" data-name="Group 2369" transform="translate(1.407 60.43)" opacity="0.36">
        <path id="Path_10269" data-name="Path 10269" d="M19.8,5.6.414,0,0,2.8,19.651,7Z" fill="#093668"/>
      </g>
      <g id="Group_2370" data-name="Group 2370" transform="translate(10.949 33.205)" opacity="0.36">
        <path id="Path_10270" data-name="Path 10270" d="M17.435,12.346,1.6,0,0,2.541,16.806,13.394Z" fill="#093668"/>
      </g>
      <g id="Group_2371" data-name="Group 2371" transform="translate(33.595 10.821)" opacity="0.36">
        <path id="Path_10271" data-name="Path 10271" d="M12.664,17.273l-1.422.861L0,1.591,2.6,0Z" fill="#093668"/>
      </g>
      <g id="Group_2372" data-name="Group 2372" transform="translate(72.88 1.172)" opacity="0.36">
        <path id="Path_10272" data-name="Path 10272" d="M2.616,20H1.029L0,0H1.825Z" transform="translate(0 0)" fill="#093668"/>
      </g>
      <g id="Group_2373" data-name="Group 2373" transform="translate(101.579 7.47)" opacity="0.36">
        <path id="Path_10273" data-name="Path 10273" d="M0,16.89,11.267,0l2.187,1.091L.847,17.237Z" transform="translate(0 0)" fill="#093668"/>
      </g>
      <g id="Group_2374" data-name="Group 2374" transform="translate(121.934 33.358)" opacity="0.36">
        <path id="Path_10274" data-name="Path 10274" d="M0,7.059,19.225,0l1.462,2.606L.725,8.118Z" transform="translate(0 0)" fill="#093668"/>
      </g>
    </g>
    <g id="Group_4074" data-name="Group 4074" transform="translate(-8588.359 -1169.229) rotate(90)">
      <g id="Group_2361-2" data-name="Group 2361" transform="translate(0.836 1.171)">
        <path id="Path_10252-2" data-name="Path 10252" d="M0,71.093l.012.505,8.21,162.5H28.23c0-.212,0-.424-.012-.635L19.995,70.846A51.151,51.151,0,0,1,71.079,20H84.03a45.409,45.409,0,0,1,45.355,45.355v19.1a10,10,0,0,0,20,0v-19.1A65.427,65.427,0,0,0,84.03,0H71.079A71.165,71.165,0,0,0,0,71.093Z" fill="url(#linear-gradient)"/>
      </g>
      <g id="Group_2362-2" data-name="Group 2362" transform="translate(12.963 3.736)" opacity="0.55">
        <path id="Path_10253-2" data-name="Path 10253" d="M119.119,84.475V66.417A61.84,61.84,0,0,0,57.35,4.647H45.11A66.937,66.937,0,0,0,0,22.082,67.04,67.04,0,0,1,49.757,0H62a61.84,61.84,0,0,1,61.769,61.77V79.828a9.444,9.444,0,0,1-5.514,8.584A9.385,9.385,0,0,0,119.119,84.475Z" transform="translate(9.904 0)" fill="url(#linear-gradient-2)"/>
        <path id="Path_10254-2" data-name="Path 10254" d="M0,38.239l8.01,158.4h5.129q.018-.353,0-.705L4.917,33.322A50.852,50.852,0,0,1,17.537,0,50.973,50.973,0,0,0,0,38.239Z" transform="translate(0 34.888)" fill="url(#linear-gradient-3)"/>
      </g>
      <path id="Path_10255-2" data-name="Path 10255" d="M22.851,0,0,.993V3.247l23.133-.784Z" transform="translate(7.364 222.284)" fill="url(#linear-gradient-4)"/>
      <path id="Path_10256-2" data-name="Path 10256" d="M22.851,0,0,.993V3.247l23.133-.784Z" transform="translate(2.545 124.739)" fill="url(#linear-gradient-5)"/>
      <path id="Path_10257-2" data-name="Path 10257" d="M24.028,0,0,.993V3.247l24.309-.784Z" transform="translate(0.22 92.323)" fill="url(#linear-gradient-6)"/>
      <path id="Path_10258-2" data-name="Path 10258" d="M22.586,5.275.22,0,0,1.129,22.867,7.738Z" transform="translate(0 58.775)" fill="url(#linear-gradient-7)"/>
      <rect id="Rectangle_10191-2" data-name="Rectangle 10191" width="24.113" height="1.964" transform="translate(5.394 192.151)" fill="url(#linear-gradient-8)"/>
      <rect id="Rectangle_10192-2" data-name="Rectangle 10192" width="24.113" height="1.964" transform="translate(3.678 160.252)" fill="url(#linear-gradient-9)"/>
      <path id="Path_10259-2" data-name="Path 10259" d="M18.938,16.911,0,2.145,1.584,0,19.71,15.8Z" transform="translate(10.79 29.688)" fill="url(#linear-gradient-10)"/>
      <path id="Path_10260-2" data-name="Path 10260" d="M0,1.385,12.277,22.447,13.453,21.1,2.494,0Z" transform="translate(35.168 7.682)" fill="url(#linear-gradient-11)"/>
      <path id="Path_10261-2" data-name="Path 10261" d="M2.485,0l-.72,22.327H.882L0,0Z" transform="translate(74.659 0)" fill="url(#linear-gradient-12)"/>
      <path id="Path_10262-2" data-name="Path 10262" d="M0,20.43,14.048,0l1.557,1.082L2,21.47Z" transform="translate(98.566 4.4)" fill="url(#linear-gradient-13)"/>
      <g id="Group_2363-2" data-name="Group 2363" transform="translate(119.538 30.178)">
        <path id="Path_10263-2" data-name="Path 10263" d="M23.721,0,0,8.871l.784,1.96L24.321,2.189Z" transform="translate(0)" fill="url(#linear-gradient-14)"/>
      </g>
      <g id="Group_2364-2" data-name="Group 2364" transform="translate(2 94.868)" opacity="0.36">
        <path id="Path_10264-2" data-name="Path 10264" d="M19.988,0,0,.7.091,2.154,20.023.7Z" fill="#093668"/>
      </g>
      <g id="Group_2365-2" data-name="Group 2365" transform="translate(3.636 127.261)" opacity="0.36">
        <path id="Path_10265-2" data-name="Path 10265" d="M19.989,0,0,.688.108,2.818,20.064,1.485Z" fill="#093668"/>
      </g>
      <g id="Group_2366-2" data-name="Group 2366" transform="translate(5.367 162.217)" opacity="0.36">
        <path id="Path_10266-2" data-name="Path 10266" d="M20.088,1.226.165,3.273,0,0H20.026Z" fill="#093668"/>
      </g>
      <g id="Group_2367-2" data-name="Group 2367" transform="translate(6.979 194.116)" opacity="0.36">
        <path id="Path_10267-2" data-name="Path 10267" d="M20.027,0l.082,1.628L.153,3.033,0,0Z" fill="#093668"/>
      </g>
      <g id="Group_2368-2" data-name="Group 2368" transform="translate(8.68 224.813)" opacity="0.36">
        <path id="Path_10268-2" data-name="Path 10268" d="M19.878,0V1.98L0,2.972V.674Z" fill="#093668"/>
      </g>
      <g id="Group_2369-2" data-name="Group 2369" transform="translate(1.407 60.43)" opacity="0.36">
        <path id="Path_10269-2" data-name="Path 10269" d="M19.8,5.6.414,0,0,2.8,19.651,7Z" fill="#093668"/>
      </g>
      <g id="Group_2370-2" data-name="Group 2370" transform="translate(10.949 33.205)" opacity="0.36">
        <path id="Path_10270-2" data-name="Path 10270" d="M17.435,12.346,1.6,0,0,2.541,16.806,13.394Z" fill="#093668"/>
      </g>
      <g id="Group_2371-2" data-name="Group 2371" transform="translate(33.595 10.821)" opacity="0.36">
        <path id="Path_10271-2" data-name="Path 10271" d="M12.664,17.273l-1.422.861L0,1.591,2.6,0Z" fill="#093668"/>
      </g>
      <g id="Group_2372-2" data-name="Group 2372" transform="translate(72.88 1.172)" opacity="0.36">
        <path id="Path_10272-2" data-name="Path 10272" d="M2.616,20H1.029L0,0H1.825Z" transform="translate(0 0)" fill="#093668"/>
      </g>
      <g id="Group_2373-2" data-name="Group 2373" transform="translate(101.579 7.47)" opacity="0.36">
        <path id="Path_10273-2" data-name="Path 10273" d="M0,16.89,11.267,0l2.187,1.091L.847,17.237Z" transform="translate(0)" fill="#093668"/>
      </g>
      <g id="Group_2374-2" data-name="Group 2374" transform="translate(121.934 33.358)" opacity="0.36">
        <path id="Path_10274-2" data-name="Path 10274" d="M0,7.059,19.225,0l1.462,2.606L.725,8.118Z" transform="translate(0)" fill="#093668"/>
      </g>
    </g>
    <g id="Group_2382" data-name="Group 2382" transform="translate(-6818.751 -1298.108) rotate(-3)">
      <g id="Group_2361-3" data-name="Group 2361" transform="translate(0.925 0)">
        <path id="Path_10252-3" data-name="Path 10252" d="M0,180.271l.013-.559L9.093,0H31.221c0,.234,0,.468-.013.7L22.113,180.544a56.57,56.57,0,0,0,56.5,56.236H92.932a50.22,50.22,0,0,0,50.16-50.16V165.493a11.058,11.058,0,0,1,22.115,0V186.62A72.359,72.359,0,0,1,92.932,258.9H78.61A78.7,78.7,0,0,1,0,180.271Z" transform="translate(0)" fill="url(#linear-gradient-29)"/>
      </g>
      <g id="Group_2362-3" data-name="Group 2362" transform="translate(14.336 0)" opacity="0.55">
        <path id="Path_10253-3" data-name="Path 10253" d="M131.739,4.354V24.324A68.391,68.391,0,0,1,63.426,92.639H49.889A74.028,74.028,0,0,1,0,73.356,74.142,74.142,0,0,0,55.029,97.778H68.565a68.391,68.391,0,0,0,68.313-68.315V9.493A10.444,10.444,0,0,0,130.78,0,10.379,10.379,0,0,1,131.739,4.354Z" transform="translate(10.953 158.281)" fill="url(#linear-gradient-30)"/>
        <path id="Path_10254-3" data-name="Path 10254" d="M0,175.185,8.859,0h5.672q.019.39,0,.78L5.438,180.623A56.239,56.239,0,0,0,19.4,217.476,56.373,56.373,0,0,1,0,175.185Z" transform="translate(0 0)" fill="url(#linear-gradient-31)"/>
      </g>
      <path id="Path_10255-3" data-name="Path 10255" d="M25.272,3.591,0,2.493V0L25.583.867Z" transform="translate(8.144 10.766)" fill="url(#linear-gradient-32)"/>
      <path id="Path_10256-3" data-name="Path 10256" d="M25.272,3.591,0,2.493V0L25.583.867Z" transform="translate(2.814 118.645)" fill="url(#linear-gradient-33)"/>
      <path id="Path_10257-3" data-name="Path 10257" d="M26.573,3.591,0,2.493V0L26.884.867Z" transform="translate(0.244 154.495)" fill="url(#linear-gradient-34)"/>
      <path id="Path_10258-3" data-name="Path 10258" d="M24.978,2.724.244,8.558,0,7.309,25.29,0Z" transform="translate(0 186.631)" fill="url(#linear-gradient-35)"/>
      <rect id="Rectangle_10191-3" data-name="Rectangle 10191" width="26.668" height="2.173" transform="translate(5.965 45.51)" fill="url(#linear-gradient-36)"/>
      <rect id="Rectangle_10192-3" data-name="Rectangle 10192" width="26.668" height="2.173" transform="translate(4.068 80.789)" fill="url(#linear-gradient-37)"/>
      <path id="Path_10259-3" data-name="Path 10259" d="M20.945,0,0,16.33,1.752,18.7,21.8,1.225Z" transform="translate(11.933 208.655)" fill="url(#linear-gradient-38)"/>
      <path id="Path_10260-3" data-name="Path 10260" d="M0,23.293,13.577,0l1.3,1.491L2.758,24.825Z" transform="translate(38.893 226.87)" fill="url(#linear-gradient-39)"/>
      <path id="Path_10261-3" data-name="Path 10261" d="M2.748,24.692,1.951,0H.976L0,24.692Z" transform="translate(82.569 235.499)" fill="url(#linear-gradient-40)"/>
      <path id="Path_10262-3" data-name="Path 10262" d="M0,1.15,15.537,23.745l1.722-1.2L2.217,0Z" transform="translate(109.008 231.58)" fill="url(#linear-gradient-41)"/>
      <g id="Group_2363-3" data-name="Group 2363" transform="translate(132.202 214.837)">
        <path id="Path_10263-3" data-name="Path 10263" d="M26.234,11.979,0,2.168.867,0,26.9,9.557Z" transform="translate(0 0)" fill="url(#linear-gradient-42)"/>
      </g>
      <g id="Group_2364-3" data-name="Group 2364" transform="translate(2.212 152.89)" opacity="0.36">
        <path id="Path_10264-3" data-name="Path 10264" d="M22.105,2.382,0,1.606.1,0,22.144,1.606Z" transform="translate(0 0)" fill="#093668"/>
      </g>
      <g id="Group_2365-3" data-name="Group 2365" transform="translate(4.021 116.331)" opacity="0.36">
        <path id="Path_10265-3" data-name="Path 10265" d="M22.107,3.116,0,2.355.119,0,22.19,1.474Z" transform="translate(0 0)" fill="#093668"/>
      </g>
      <g id="Group_2366-3" data-name="Group 2366" transform="translate(5.935 77.169)" opacity="0.36">
        <path id="Path_10266-3" data-name="Path 10266" d="M22.216,2.264.183,0,0,3.62H22.147Z" transform="translate(0 0)" fill="#093668"/>
      </g>
      <g id="Group_2367-3" data-name="Group 2367" transform="translate(7.718 42.156)" opacity="0.36">
        <path id="Path_10267-3" data-name="Path 10267" d="M22.148,3.354l.091-1.8L.169,0,0,3.354Z" transform="translate(0 0)" fill="#093668"/>
      </g>
      <g id="Group_2368-3" data-name="Group 2368" transform="translate(9.599 8.273)" opacity="0.36">
        <path id="Path_10268-3" data-name="Path 10268" d="M21.984,3.287V1.1L0,0V2.542Z" transform="translate(0 0)" fill="#093668"/>
      </g>
      <g id="Group_2369-3" data-name="Group 2369" transform="translate(1.556 185.614)" opacity="0.36">
        <path id="Path_10269-3" data-name="Path 10269" d="M21.9,1.547.458,7.744,0,4.646,21.733,0Z" transform="translate(0 0)" fill="#093668"/>
      </g>
      <g id="Group_2370-3" data-name="Group 2370" transform="translate(12.109 208.655)" opacity="0.36">
        <path id="Path_10270-3" data-name="Path 10270" d="M19.282,1.159,1.77,14.813,0,12,18.587,0Z" transform="translate(0 0)" fill="#093668"/>
      </g>
      <g id="Group_2371-3" data-name="Group 2371" transform="translate(37.154 228.168)" opacity="0.36">
        <path id="Path_10271-3" data-name="Path 10271" d="M14.005.952,12.432,0,0,18.3l2.87,1.76Z" transform="translate(0 0)" fill="#093668"/>
      </g>
      <g id="Group_2372-3" data-name="Group 2372" transform="translate(80.602 236.78)" opacity="0.36">
        <path id="Path_10272-3" data-name="Path 10272" d="M2.893,0H1.138L0,22.115H2.019Z" transform="translate(0 0)" fill="#093668"/>
      </g>
      <g id="Group_2373-3" data-name="Group 2373" transform="translate(112.34 232.867)" opacity="0.36">
        <path id="Path_10273-3" data-name="Path 10273" d="M0,.384,12.46,19.063l2.419-1.207L.937,0Z" transform="translate(0 0)" fill="#093668"/>
      </g>
      <g id="Group_2374-3" data-name="Group 2374" transform="translate(134.853 214.32)" opacity="0.36">
        <path id="Path_10274-3" data-name="Path 10274" d="M0,1.172,21.262,8.978,22.878,6.1.8,0Z" transform="translate(0 0)" fill="#093668"/>
      </g>
    </g>
    <g id="Group_2375" data-name="Group 2375" transform="translate(-6821.999 -1249.25) rotate(-90)">
      <g id="Group_2361-4" data-name="Group 2361" transform="translate(0.959 1.343)">
        <path id="Path_10252-4" data-name="Path 10252" d="M0,81.518l.013.579L9.427,268.423H32.37c0-.243,0-.486-.013-.729L22.927,81.235A58.651,58.651,0,0,1,81.5,22.929H96.352a52.068,52.068,0,0,1,52.006,52.006v21.9a11.464,11.464,0,0,0,22.929,0v-21.9A75.022,75.022,0,0,0,96.352,0H81.5A81.6,81.6,0,0,0,0,81.518Z" transform="translate(0 0)" fill="url(#linear-gradient)"/>
      </g>
      <g id="Group_2362-4" data-name="Group 2362" transform="translate(14.864 4.283)" opacity="0.55">
        <path id="Path_10253-4" data-name="Path 10253" d="M136.587,96.862V76.157A70.908,70.908,0,0,0,65.76,5.328H51.725A76.752,76.752,0,0,0,0,25.321,76.87,76.87,0,0,1,57.054,0H71.089a70.908,70.908,0,0,1,70.827,70.829V91.534a10.829,10.829,0,0,1-6.323,9.842A10.762,10.762,0,0,0,136.587,96.862Z" transform="translate(11.356 0)" fill="url(#linear-gradient-2)"/>
        <path id="Path_10254-4" data-name="Path 10254" d="M0,43.847,9.185,225.479h5.881q.02-.4,0-.809L5.638,38.208A58.309,58.309,0,0,1,20.109,0,58.448,58.448,0,0,0,0,43.847Z" transform="translate(0 40.004)" fill="url(#linear-gradient-3)"/>
      </g>
      <path id="Path_10255-4" data-name="Path 10255" d="M26.2,0,0,1.138V3.723l26.525-.9Z" transform="translate(8.444 254.88)" fill="url(#linear-gradient-4)"/>
      <path id="Path_10256-4" data-name="Path 10256" d="M26.2,0,0,1.138V3.723l26.525-.9Z" transform="translate(2.918 143.031)" fill="url(#linear-gradient-5)"/>
      <path id="Path_10257-4" data-name="Path 10257" d="M27.551,0,0,1.138V3.723l27.874-.9Z" transform="translate(0.253 105.862)" fill="url(#linear-gradient-6)"/>
      <path id="Path_10258-4" data-name="Path 10258" d="M25.9,6.048.253,0,0,1.295,26.22,8.873Z" transform="translate(0 67.394)" fill="url(#linear-gradient-7)"/>
      <rect id="Rectangle_10191-4" data-name="Rectangle 10191" width="27.649" height="2.253" transform="translate(6.185 220.329)" fill="url(#linear-gradient-8)"/>
      <rect id="Rectangle_10192-4" data-name="Rectangle 10192" width="27.649" height="2.253" transform="translate(4.218 183.752)" fill="url(#linear-gradient-9)"/>
      <path id="Path_10259-4" data-name="Path 10259" d="M21.716,19.391,0,2.46,1.817,0,22.6,18.121Z" transform="translate(12.373 34.041)" fill="url(#linear-gradient-10)"/>
      <path id="Path_10260-4" data-name="Path 10260" d="M0,1.588,14.077,25.738l1.349-1.545L2.86,0Z" transform="translate(40.325 8.809)" fill="url(#linear-gradient-11)"/>
      <path id="Path_10261-4" data-name="Path 10261" d="M2.849,0,2.023,25.6H1.012L0,0Z" transform="translate(85.608 0)" fill="url(#linear-gradient-12)"/>
      <path id="Path_10262-4" data-name="Path 10262" d="M0,23.426,16.108,0l1.785,1.24L2.3,24.618Z" transform="translate(113.02 5.046)" fill="url(#linear-gradient-13)"/>
      <g id="Group_2363-4" data-name="Group 2363" transform="translate(137.067 34.603)">
        <path id="Path_10263-4" data-name="Path 10263" d="M27.2,0,0,10.171l.9,2.248L27.887,2.51Z" fill="url(#linear-gradient-14)"/>
      </g>
      <g id="Group_2364-4" data-name="Group 2364" transform="translate(2.293 108.78)" opacity="0.36">
        <path id="Path_10264-4" data-name="Path 10264" d="M22.919,0,0,.8.1,2.47,22.959.8Z" fill="#093668"/>
      </g>
      <g id="Group_2365-4" data-name="Group 2365" transform="translate(4.169 145.923)" opacity="0.36">
        <path id="Path_10265-4" data-name="Path 10265" d="M22.921,0,0,.789.123,3.231,23.007,1.7Z" fill="#093668"/>
      </g>
      <g id="Group_2366-4" data-name="Group 2366" transform="translate(6.154 186.005)" opacity="0.36">
        <path id="Path_10266-4" data-name="Path 10266" d="M23.033,1.405.19,3.753,0,0H22.962Z" fill="#093668"/>
      </g>
      <g id="Group_2367-4" data-name="Group 2367" transform="translate(8.002 222.582)" opacity="0.36">
        <path id="Path_10267-4" data-name="Path 10267" d="M22.964,0l.094,1.867L.176,3.477,0,0Z" fill="#093668"/>
      </g>
      <g id="Group_2368-4" data-name="Group 2368" transform="translate(9.953 257.78)" opacity="0.36">
        <path id="Path_10268-4" data-name="Path 10268" d="M22.793,0V2.271L0,3.408V.773Z" fill="#093668"/>
      </g>
      <g id="Group_2369-4" data-name="Group 2369" transform="translate(1.613 69.292)" opacity="0.36">
        <path id="Path_10269-4" data-name="Path 10269" d="M22.706,6.425.474,0,0,3.212,22.533,8.029Z" transform="translate(0 0)" fill="#093668"/>
      </g>
      <g id="Group_2370-4" data-name="Group 2370" transform="translate(12.555 38.074)" opacity="0.36">
        <path id="Path_10270-4" data-name="Path 10270" d="M19.992,14.156,1.835,0,0,2.913,19.271,15.358Z" transform="translate(0 0)" fill="#093668"/>
      </g>
      <g id="Group_2371-4" data-name="Group 2371" transform="translate(38.521 12.407)" opacity="0.36">
        <path id="Path_10271-4" data-name="Path 10271" d="M14.521,19.806l-1.631.987L0,1.825,2.976,0Z" fill="#093668"/>
      </g>
      <g id="Group_2372-4" data-name="Group 2372" transform="translate(83.568 1.344)" opacity="0.36">
        <path id="Path_10272-4" data-name="Path 10272" d="M3,22.928H1.18L0,0H2.093Z" transform="translate(0 0)" fill="#093668"/>
      </g>
      <g id="Group_2373-4" data-name="Group 2373" transform="translate(116.474 8.565)" opacity="0.36">
        <path id="Path_10273-4" data-name="Path 10273" d="M0,19.367,12.919,0l2.508,1.252L.971,19.765Z" fill="#093668"/>
      </g>
      <g id="Group_2374-4" data-name="Group 2374" transform="translate(139.815 38.25)" opacity="0.36">
        <path id="Path_10274-4" data-name="Path 10274" d="M0,8.094,22.044,0,23.72,2.988.831,9.308Z" fill="#093668"/>
      </g>
    </g>
  </g>
</svg>
