<svg xmlns="http://www.w3.org/2000/svg" xmlns:xlink="http://www.w3.org/1999/xlink" width="1927" height="1654" viewBox="0 0 1927 1654">
  <defs>
    <clipPath id="clip-path">
      <rect id="Rectangle_10227" data-name="Rectangle 10227" width="1927" height="1654" transform="translate(-7 3752)" fill="#fff" stroke="#707070" stroke-width="1"/>
    </clipPath>
    <linearGradient id="linear-gradient" x1="0.5" x2="0.5" y2="0.739" gradientUnits="objectBoundingBox">
      <stop offset="0" stop-color="#31882d"/>
      <stop offset="0" stop-color="#68d163"/>
      <stop offset="1" stop-color="#113410"/>
    </linearGradient>
    <linearGradient id="linear-gradient-2" x1="0.5" y1="-0.058" x2="0.5" y2="0.89" gradientUnits="objectBoundingBox">
      <stop offset="0" stop-color="#368832"/>
      <stop offset="1" stop-color="#143e13"/>
    </linearGradient>
  </defs>
  <g id="Mask_Group_4" data-name="Mask Group 4" transform="translate(7 -3752)" clip-path="url(#clip-path)">
    <g id="Group_4324" data-name="Group 4324">
      <g id="Group_4323" data-name="Group 4323">
        <circle id="Ellipse_244" data-name="Ellipse 244" cx="1427.5" cy="1427.5" r="1427.5" transform="translate(-447 3752)" fill="url(#linear-gradient)"/>
        <g id="Group_3467" data-name="Group 3467" transform="translate(8 2679)">
          <text id="_" data-name="+" transform="translate(214 1299)" fill="#fff" font-size="35" font-family="Montserrat-Bold, Montserrat" font-weight="700" opacity="0.265"><tspan x="0" y="34">+</tspan></text>
          <text id="_2" data-name="+" transform="translate(61 1647)" fill="#fff" font-size="35" font-family="Montserrat-Light, Montserrat" font-weight="300" opacity="0.265"><tspan x="0" y="34">+</tspan></text>
          <circle id="Ellipse_17" data-name="Ellipse 17" cx="121" cy="121" r="121" transform="translate(158 1410)" fill="#fff" opacity="0.117"/>
          <g id="Ellipse_18" data-name="Ellipse 18" transform="translate(83 1383)" fill="none" stroke="#fff" stroke-width="2" opacity="0.265">
            <circle cx="75" cy="75" r="75" stroke="none"/>
            <circle cx="75" cy="75" r="74" fill="none"/>
          </g>
          <path id="Path_9640" data-name="Path 9640" d="M180.885,559.548s2.892,19.746,11.168,19.548,10.152-19.451,19.035-19.486,4.381,19.325,18.117,19.184,9.047-20.012,19.633-19.792,1.1,15.587,16.1,20.095" transform="translate(-142.977 695.542)" fill="none" stroke="#53b84f" stroke-width="3" opacity="0.661"/>
        </g>
        <g id="Group_4322" data-name="Group 4322">
          <rect id="Rectangle_10193" data-name="Rectangle 10193" width="1924" height="26" transform="translate(0 4785)" fill="#277424"/>
          <g id="Group_4079" data-name="Group 4079">
            <path id="Path_11211" data-name="Path 11211" d="M1994.92,666.095V624.37h-58.653l-22.2-164.236h-3.332V440.4h-11.662v19.73h-2.887v-7.38h-8.162v7.38h-16.91v-17.2h-4.665V430.981h-33.235v11.953h-4.665v17.2h-4.663v98.641h-29.542V308.49h-9.718V253.6h-3.109V308.49h-7.387V232.349h-3.109V308.49h-6.414V267.275H1761.5V308.49h-57.334V486.146h-63.75V601.234h-59.532L1533.608,514.1a122.56,122.56,0,0,0,22.342-16.506l9.693,10.345a9.879,9.879,0,1,0,.872-.682l-9.762-10.418c.826-.785,1.645-1.576,2.453-2.384a122.381,122.381,0,0,0,24.377-34.683l10.8,4.984a9.931,9.931,0,1,0,.333-1.06l-10.666-4.925a121.662,121.662,0,0,0,10.886-46.246l11.623.379a9.909,9.909,0,1,0,.03-1.1l-11.62-.379q.048-1.707.048-3.421a122.357,122.357,0,0,0-7.279-41.746l9.707-3.573a9.9,9.9,0,1,0-.381-1.035l-9.707,3.573a121.61,121.61,0,0,0-25.008-40.413l7.6-7.118a9.892,9.892,0,1,0-.755-.8l-7.6,7.118q-1.174-1.239-2.384-2.453a122.081,122.081,0,0,0-39.474-26.495l4.179-10.173a9.958,9.958,0,1,0-1.03-.395l-4.167,10.15a121.849,121.849,0,0,0-41.436-8.814l.452-13.906c.106,0,.211.007.317.007a9.919,9.919,0,1,0-1.416-.1l-.454,13.966q-1.707-.048-3.421-.048a122.436,122.436,0,0,0-40.14,6.712l-4-11.35a10,10,0,1,0-1.042.36l4,11.354a121.577,121.577,0,0,0-42.012,25.591l-7.251-7.738a9.943,9.943,0,1,0-.789.769l7.238,7.724q-1.239,1.177-2.453,2.387a122.351,122.351,0,0,0-24.377,34.683l-9.214-4.254a9.937,9.937,0,1,0-.411,1.026l9.161,4.227a121.67,121.67,0,0,0-10.886,46.246l-11.827-.383a9.916,9.916,0,1,0-.03,1.1l11.822.385c-.03,1.136-.048,2.276-.048,3.419a122.337,122.337,0,0,0,7.281,41.746l-9.709,3.573a9.853,9.853,0,1,0,.383,1.037l9.7-3.575a121.69,121.69,0,0,0,25.01,40.415l-7.6,7.116a9.891,9.891,0,1,0,.755.8l7.6-7.118q1.174,1.243,2.384,2.455a123.023,123.023,0,0,0,25.6,19.645l-47.274,87.136h-38.288V542.163h-15.607V429.99h6.07v-2.437h-134.12v2.437h6.07v56.57H1175.6l-12.545,64.473V339.589h-5.5V263.016h-27.709V233.861h-14.824V209.372h-5.2v-41.98h-1.345v41.98h-5.2v24.489h-14.824v29.155h-27.5v76.573h-5.716V478.615H1012.6V601.234H871.16V364.14h11.368v-3.734H871.16v-6.678H856.749V342.758H738.906v10.971H724.5v6.678H713.129v3.734H724.5V511.735H705.224v-27.7H586.31v33.817H560.387v62.972H518.4V375.006H504.411V361.012H493.332V323.989H491v37.023h-5.248V314.659h-2.331v46.354h-6.451v13.993h-3.463V580.829H386.632v-120.7h4.082v-8.162H363.894V429.815h-12.83v22.156H339.4V429.815H327.742v22.156H305.059V429.815H235.618v22.156H219.4v8.162h9.218v45.479H202.966v102.62H167.751v-27.4h-39.2v59.764h-47.4v25.5H11.223V739.18H2057.395V666.095ZM1532.029,511.189l-16.373-30.18a85.069,85.069,0,0,0,14.581-10.856l23.45,25.026A119.2,119.2,0,0,1,1532.029,511.189Zm-61.29-96.826a6.817,6.817,0,0,0,1.248.266l-2.481,76.353a82.554,82.554,0,0,1-27.789-5.95Zm-30.04,70.251a82.878,82.878,0,0,1-8.144-3.961l36.429-67.148a6.645,6.645,0,0,0,.737.438Zm32.39-69.948a6.764,6.764,0,0,0,1.356-.209l25.4,72.055a82.661,82.661,0,0,1-27.087,4.541q-1.074,0-2.146-.028Zm2.4-.576a6.688,6.688,0,0,0,1.04-.585l36.429,67.148a82.894,82.894,0,0,1-12.073,5.494Zm6.129,4.172,47.494,50.686a83.715,83.715,0,0,1-14.241,10.609Zm-2.077-3.828-1.372-2.529a6.861,6.861,0,0,0,.395-.617l69.356,32.018a83.493,83.493,0,0,1-18,24.891Zm-.514-4.147a6.537,6.537,0,0,0,.356-1.519l76.355,2.483a82.469,82.469,0,0,1-7.352,31.057Zm.395-2.621a6.7,6.7,0,0,0-.234-1.446l71.7-26.4A82.715,82.715,0,0,1,1555.805,408q0,1.077-.028,2.148Zm-.615-2.478a6.622,6.622,0,0,0-.821-1.329l55.718-52.21a83.178,83.178,0,0,1,16.8,27.142Zm-1.574-2.134a6.8,6.8,0,0,0-1.439-.994l29.021-70.669a83.39,83.39,0,0,1,28.138,19.45Zm-2.458-1.414a6.634,6.634,0,0,0-1.248-.264L1476,325.022a82.511,82.511,0,0,1,27.789,5.953Zm-2.352-.3a6.734,6.734,0,0,0-1.354.207l-25.4-72.055a82.657,82.657,0,0,1,27.085-4.539q1.077,0,2.148.028Zm-2.393.576a6.613,6.613,0,0,0-1.413.861l-52.21-55.721a83.2,83.2,0,0,1,28.225-17.2Zm-2.219,1.611a6.62,6.62,0,0,0-.856,1.189L1397.595,372.7a83.392,83.392,0,0,1,18-24.891Zm-1.319,2.189a6.553,6.553,0,0,0-.358,1.519l-76.355-2.483a82.5,82.5,0,0,1,7.352-31.055Zm-.395,2.621a6.674,6.674,0,0,0,.234,1.446l-71.7,26.4A82.648,82.648,0,0,1,1389.706,408q0-1.077.027-2.148Zm.615,2.478a6.708,6.708,0,0,0,.638,1.09l-.454.835-55.083,51.613a83.192,83.192,0,0,1-16.8-27.142Zm-1.482,5-34.584,63.743a83.688,83.688,0,0,1-18.08-14.395Zm-33.457,66.293a84.254,84.254,0,0,0,8.3,4.036l-13.036,31.743a117.336,117.336,0,0,1-11.634-5.611Zm9.321,4.454a84.154,84.154,0,0,0,28.363,6.076l-1.113,34.237a118.537,118.537,0,0,1-40.284-8.571Zm29.464,6.118q1.1.028,2.2.028a84.351,84.351,0,0,0,27.638-4.633l11.4,32.358a119.1,119.1,0,0,1-39.04,6.524q-1.659,0-3.314-.046Zm30.878-4.973a84.225,84.225,0,0,0,12.311-5.6l16.368,30.169a117.139,117.139,0,0,1-17.275,7.788Zm55.436,4.408q-1.177,1.174-2.377,2.311L1531.045,469.4a85.138,85.138,0,0,0,18.372-25.4l31.16,14.383A118.99,118.99,0,0,1,1556.867,492.113Zm24.173-34.728L1549.885,443a84.117,84.117,0,0,0,7.5-31.7l34.237,1.113A118.3,118.3,0,0,1,1581.04,457.384ZM1591.706,408q0,1.663-.046,3.314l-34.23-1.113c.018-.732.027-1.464.027-2.2a84.337,84.337,0,0,0-5.026-28.748l32.2-11.852A118.981,118.981,0,0,1,1591.706,408Zm-31.773-80.933a118.427,118.427,0,0,1,24.315,39.295l-32.2,11.857a84.877,84.877,0,0,0-17.142-27.7Zm-3.066-3.178q1.174,1.174,2.309,2.375l-25.022,23.448a85.042,85.042,0,0,0-28.714-19.852l13.036-31.743A118.808,118.808,0,0,1,1556.867,323.89Zm-79.7-34.761a118.548,118.548,0,0,1,40.284,8.571l-13.036,31.743a84.084,84.084,0,0,0-28.363-6.074Zm-4.417-.08q1.662,0,3.313.046l-1.113,34.231q-1.095-.027-2.2-.028a84.339,84.339,0,0,0-27.636,4.633l-11.4-32.356A119.106,119.106,0,0,1,1472.754,289.05Zm-40.082,6.891,11.407,32.358a84.845,84.845,0,0,0-28.808,17.552l-23.45-25.026A118.312,118.312,0,0,1,1432.672,295.941Zm-44.029,27.95q1.174-1.174,2.375-2.311l23.448,25.022a85.152,85.152,0,0,0-18.374,25.4l-31.16-14.386A119,119,0,0,1,1388.643,323.89Zm-24.175,34.731L1395.626,373a84.122,84.122,0,0,0-7.5,31.7l-34.24-1.113A118.37,118.37,0,0,1,1364.468,358.621ZM1353.8,408c0-1.106.018-2.212.048-3.314l34.228,1.113q-.028,1.1-.027,2.2a84.273,84.273,0,0,0,5.028,28.748l-32.2,11.855A119.048,119.048,0,0,1,1353.8,408Zm31.775,80.933a118.333,118.333,0,0,1-24.315-39.295l32.2-11.857a84.829,84.829,0,0,0,17.142,27.7Zm3.066,3.178q-1.174-1.174-2.311-2.375l25.022-23.445a85.294,85.294,0,0,0,18.5,14.716l-16.375,30.18A119.532,119.532,0,0,1,1388.643,492.113Zm25.178,23.069a120.511,120.511,0,0,0,11.956,5.764l-4.179,10.175a9.932,9.932,0,1,0,1.031.392l4.17-10.15a121.9,121.9,0,0,0,41.434,8.816l-.337,10.4a9.91,9.91,0,1,0,1.1.034l.34-10.407q1.7.048,3.419.048a122.389,122.389,0,0,0,40.142-6.712l3.566,10.117a9.842,9.842,0,1,0,1.023-.413l-3.55-10.067a120.578,120.578,0,0,0,17.752-8l46.689,86.052H1367.135Z" transform="translate(203.777 4019.994)" fill="#2b7128"/>
            <path id="Path_11212" data-name="Path 11212" d="M1994.92,666.095V624.37h-58.653l-22.2-164.236h-3.332V440.4h-11.662v19.73h-2.887v-7.38h-8.162v7.38h-16.91v-17.2h-4.665V430.981h-33.235v11.953h-4.665v17.2h-4.663v98.641h-29.542V308.49h-9.718V253.6h-3.109V308.49h-7.387V232.349h-3.109V308.49h-6.414V267.275H1761.5V308.49h-57.334V486.146h-63.75V601.234h-59.532L1533.608,514.1a122.56,122.56,0,0,0,22.342-16.506l9.693,10.345a9.879,9.879,0,1,0,.872-.682l-9.762-10.418c.826-.785,1.645-1.576,2.453-2.384a122.381,122.381,0,0,0,24.377-34.683l10.8,4.984a9.931,9.931,0,1,0,.333-1.06l-10.666-4.925a121.662,121.662,0,0,0,10.886-46.246l11.623.379a9.909,9.909,0,1,0,.03-1.1l-11.62-.379q.048-1.707.048-3.421a122.357,122.357,0,0,0-7.279-41.746l9.707-3.573a9.9,9.9,0,1,0-.381-1.035l-9.707,3.573a121.61,121.61,0,0,0-25.008-40.413l7.6-7.118a9.892,9.892,0,1,0-.755-.8l-7.6,7.118q-1.174-1.239-2.384-2.453a122.081,122.081,0,0,0-39.474-26.495l4.179-10.173a9.958,9.958,0,1,0-1.03-.395l-4.167,10.15a121.849,121.849,0,0,0-41.436-8.814l.452-13.906c.106,0,.211.007.317.007a9.919,9.919,0,1,0-1.416-.1l-.454,13.966q-1.707-.048-3.421-.048a122.436,122.436,0,0,0-40.14,6.712l-4-11.35a10,10,0,1,0-1.042.36l4,11.354a121.577,121.577,0,0,0-42.012,25.591l-7.251-7.738a9.943,9.943,0,1,0-.789.769l7.238,7.724q-1.239,1.177-2.453,2.387a122.351,122.351,0,0,0-24.377,34.683l-9.214-4.254a9.937,9.937,0,1,0-.411,1.026l9.161,4.227a121.67,121.67,0,0,0-10.886,46.246l-11.827-.383a9.916,9.916,0,1,0-.03,1.1l11.822.385c-.03,1.136-.048,2.276-.048,3.419a122.337,122.337,0,0,0,7.281,41.746l-9.709,3.573a9.853,9.853,0,1,0,.383,1.037l9.7-3.575a121.69,121.69,0,0,0,25.01,40.415l-7.6,7.116a9.891,9.891,0,1,0,.755.8l7.6-7.118q1.174,1.243,2.384,2.455a123.023,123.023,0,0,0,25.6,19.645l-47.274,87.136h-38.288V542.163h-15.607V429.99h6.07v-2.437h-134.12v2.437h6.07v56.57H1175.6l-12.545,64.473V339.589h-5.5V263.016h-27.709V233.861h-14.824V209.372h-5.2v-41.98h-1.345v41.98h-5.2v24.489h-14.824v29.155h-27.5v76.573h-5.716V478.615H1012.6V601.234H871.16V364.14h11.368v-3.734H871.16v-6.678H856.749V342.758H738.906v10.971H724.5v6.678H713.129v3.734H724.5V511.735H705.224v-27.7H586.31v33.817H560.387v62.972H518.4V375.006H504.411V361.012H493.332V323.989H491v37.023h-5.248V314.659h-2.331v46.354h-6.451v13.993h-3.463V580.829H386.632v-120.7h4.082v-8.162H363.894V429.815h-12.83v22.156H339.4V429.815H327.742v22.156H305.059V429.815H235.618v22.156H219.4v8.162h9.218v45.479H202.966v102.62H167.751v-27.4h-39.2v59.764h-47.4v25.5H11.223V739.18H2057.395V666.095ZM1532.029,511.189l-16.373-30.18a85.069,85.069,0,0,0,14.581-10.856l23.45,25.026A119.2,119.2,0,0,1,1532.029,511.189Zm-61.29-96.826a6.817,6.817,0,0,0,1.248.266l-2.481,76.353a82.554,82.554,0,0,1-27.789-5.95Zm-30.04,70.251a82.878,82.878,0,0,1-8.144-3.961l36.429-67.148a6.645,6.645,0,0,0,.737.438Zm32.39-69.948a6.764,6.764,0,0,0,1.356-.209l25.4,72.055a82.661,82.661,0,0,1-27.087,4.541q-1.074,0-2.146-.028Zm2.4-.576a6.688,6.688,0,0,0,1.04-.585l36.429,67.148a82.894,82.894,0,0,1-12.073,5.494Zm6.129,4.172,47.494,50.686a83.715,83.715,0,0,1-14.241,10.609Zm-2.077-3.828-1.372-2.529a6.861,6.861,0,0,0,.395-.617l69.356,32.018a83.493,83.493,0,0,1-18,24.891Zm-.514-4.147a6.537,6.537,0,0,0,.356-1.519l76.355,2.483a82.469,82.469,0,0,1-7.352,31.057Zm.395-2.621a6.7,6.7,0,0,0-.234-1.446l71.7-26.4A82.715,82.715,0,0,1,1555.805,408q0,1.077-.028,2.148Zm-.615-2.478a6.622,6.622,0,0,0-.821-1.329l55.718-52.21a83.178,83.178,0,0,1,16.8,27.142Zm-1.574-2.134a6.8,6.8,0,0,0-1.439-.994l29.021-70.669a83.39,83.39,0,0,1,28.138,19.45Zm-2.458-1.414a6.634,6.634,0,0,0-1.248-.264L1476,325.022a82.511,82.511,0,0,1,27.789,5.953Zm-2.352-.3a6.734,6.734,0,0,0-1.354.207l-25.4-72.055a82.657,82.657,0,0,1,27.085-4.539q1.077,0,2.148.028Zm-2.393.576a6.613,6.613,0,0,0-1.413.861l-52.21-55.721a83.2,83.2,0,0,1,28.225-17.2Zm-2.219,1.611a6.62,6.62,0,0,0-.856,1.189L1397.595,372.7a83.392,83.392,0,0,1,18-24.891Zm-1.319,2.189a6.553,6.553,0,0,0-.358,1.519l-76.355-2.483a82.5,82.5,0,0,1,7.352-31.055Zm-.395,2.621a6.674,6.674,0,0,0,.234,1.446l-71.7,26.4A82.648,82.648,0,0,1,1389.706,408q0-1.077.027-2.148Zm.615,2.478a6.708,6.708,0,0,0,.638,1.09l-.454.835-55.083,51.613a83.192,83.192,0,0,1-16.8-27.142Zm-1.482,5-34.584,63.743a83.688,83.688,0,0,1-18.08-14.395Zm-33.457,66.293a84.254,84.254,0,0,0,8.3,4.036l-13.036,31.743a117.336,117.336,0,0,1-11.634-5.611Zm9.321,4.454a84.154,84.154,0,0,0,28.363,6.076l-1.113,34.237a118.537,118.537,0,0,1-40.284-8.571Zm29.464,6.118q1.1.028,2.2.028a84.351,84.351,0,0,0,27.638-4.633l11.4,32.358a119.1,119.1,0,0,1-39.04,6.524q-1.659,0-3.314-.046Zm30.878-4.973a84.225,84.225,0,0,0,12.311-5.6l16.368,30.169a117.139,117.139,0,0,1-17.275,7.788Zm55.436,4.408q-1.177,1.174-2.377,2.311L1531.045,469.4a85.138,85.138,0,0,0,18.372-25.4l31.16,14.383A118.99,118.99,0,0,1,1556.867,492.113Zm24.173-34.728L1549.885,443a84.117,84.117,0,0,0,7.5-31.7l34.237,1.113A118.3,118.3,0,0,1,1581.04,457.384ZM1591.706,408q0,1.663-.046,3.314l-34.23-1.113c.018-.732.027-1.464.027-2.2a84.337,84.337,0,0,0-5.026-28.748l32.2-11.852A118.981,118.981,0,0,1,1591.706,408Zm-31.773-80.933a118.427,118.427,0,0,1,24.315,39.295l-32.2,11.857a84.877,84.877,0,0,0-17.142-27.7Zm-3.066-3.178q1.174,1.174,2.309,2.375l-25.022,23.448a85.042,85.042,0,0,0-28.714-19.852l13.036-31.743A118.808,118.808,0,0,1,1556.867,323.89Zm-79.7-34.761a118.548,118.548,0,0,1,40.284,8.571l-13.036,31.743a84.084,84.084,0,0,0-28.363-6.074Zm-4.417-.08q1.662,0,3.313.046l-1.113,34.231q-1.095-.027-2.2-.028a84.339,84.339,0,0,0-27.636,4.633l-11.4-32.356A119.106,119.106,0,0,1,1472.754,289.05Zm-40.082,6.891,11.407,32.358a84.845,84.845,0,0,0-28.808,17.552l-23.45-25.026A118.312,118.312,0,0,1,1432.672,295.941Zm-44.029,27.95q1.174-1.174,2.375-2.311l23.448,25.022a85.152,85.152,0,0,0-18.374,25.4l-31.16-14.386A119,119,0,0,1,1388.643,323.89Zm-24.175,34.731L1395.626,373a84.122,84.122,0,0,0-7.5,31.7l-34.24-1.113A118.37,118.37,0,0,1,1364.468,358.621ZM1353.8,408c0-1.106.018-2.212.048-3.314l34.228,1.113q-.028,1.1-.027,2.2a84.273,84.273,0,0,0,5.028,28.748l-32.2,11.855A119.048,119.048,0,0,1,1353.8,408Zm31.775,80.933a118.333,118.333,0,0,1-24.315-39.295l32.2-11.857a84.829,84.829,0,0,0,17.142,27.7Zm3.066,3.178q-1.174-1.174-2.311-2.375l25.022-23.445a85.294,85.294,0,0,0,18.5,14.716l-16.375,30.18A119.532,119.532,0,0,1,1388.643,492.113Zm25.178,23.069a120.511,120.511,0,0,0,11.956,5.764l-4.179,10.175a9.932,9.932,0,1,0,1.031.392l4.17-10.15a121.9,121.9,0,0,0,41.434,8.816l-.337,10.4a9.91,9.91,0,1,0,1.1.034l.34-10.407q1.7.048,3.419.048a122.389,122.389,0,0,0,40.142-6.712l3.566,10.117a9.842,9.842,0,1,0,1.023-.413l-3.55-10.067a120.578,120.578,0,0,0,17.752-8l46.689,86.052H1367.135Z" transform="translate(-433.223 4019.994)" fill="#2b7128"/>
          </g>
          <g id="Group_4078" data-name="Group 4078" transform="translate(-42.301 4150.837)">
            <path id="Path_11209" data-name="Path 11209" d="M819.078,287.7a2.164,2.164,0,1,0-2.131,2.541A2.362,2.362,0,0,0,819.078,287.7Z" transform="translate(851.183 0)" fill="#357932"/>
            <path id="Path_11210" data-name="Path 11210" d="M1902.642,593.736l-13.23-88.5h-27.059V431.8h3.346v-6.644h-13.136v-28.6h-1.6v28.6h-9.079V401.724h-1.6v23.434H1785.55V431.8h3.738v149H1726.8V514.062h-35.585V350.054h3.255v-8.047h-7.106v-10.3h-8.179V305.838h-9.87V287.58h-2.374v18.259h-5.32l-3.218,10.22h-21.534v15.649h-56.365v10.3H1573.4v8.047h3.255V456.763H1529.5V561.61l-52.331-23.186V436.657h8.444V429.18h-14.852V408.887h-63.6V429.18h-20.778V408.887h-10.681V429.18h-10.681V408.887h-11.749V429.18H1328.7v7.476h3.738V577.712h-23.856v-1.48h-4.318v-40.2h4.318v-3.224h-4.318v-40.2h4.318v-3.224h-4.318V449.2h4.318v-3.224h-4.318v-40.2h4.318V402.55h-4.318v-40.2h4.318V359.13h-4.318v-41.6h7.4V314.3h3.764v-8.819h-70.256V295.67h2.285v-2.832H1209.2v2.832h2.284v9.808h-17.411V314.3h3.764v3.235h7.4v41.6h-4.319v3.225h4.319v40.2h-4.319v3.225h4.319v40.2h-4.319V449.2h4.319v40.2h-4.319v3.224h4.319v40.2h-4.319v3.224h4.319v40.2h-4.319v3.224h4.319V612.3H1181.26V485.375h-96.488v92.337h-15.665V290.067h-11.59v7.4l-21.387,5.232v-4.809h-11.59v7.644l-21.387,5.231v-5.514h-11.59v8.35l-21.387,5.231v-4.55h-11.59v7.385L937.2,326.9v-3.919h-11.59V605.454H909.3V454.86H848.91v92.6H787V468.5h-7.627V442.562H783.9v-2.606H763.859V431.8h-2.136v8.154h-6.409V398.1h-1.6v41.858h-8.347v2.606h4.911V468.5H709.415v60.241h-39.78l-20.777,76.718H607.173V354.97H551.98V346h3.136v-3.15h-41.8V346H516.6V540.951H490.575V476.134h9.251v-5.868H434.344V431.109H421.851v-8.047H393.968v8.047H371.28V570.926H296.848v-103.7H234.174v81.906H179.784v52.405H140.567v-65.88H88.994v56.169H42.3v39.759H1966.315v-37.85Z" transform="translate(0 2.663)" fill="#357932"/>
          </g>
        </g>
        <path id="Path_9829" data-name="Path 9829" d="M180.885,559.614s3.237,22.1,12.5,21.879,11.363-21.771,21.3-21.81,4.9,21.63,20.277,21.472,10.126-22.4,21.974-22.153,1.231,17.446,18.022,22.491" transform="translate(1433.623 3559.641)" fill="none" stroke="#f0f0f0" stroke-width="5" opacity="0.158"/>
      </g>
      <rect id="Rectangle_10194" data-name="Rectangle 10194" width="1924" height="263" transform="translate(0 4812)" fill="url(#linear-gradient-2)"/>
    </g>
  </g>
</svg>
