<svg xmlns="http://www.w3.org/2000/svg" xmlns:xlink="http://www.w3.org/1999/xlink" width="1920" height="489" viewBox="0 0 1920 489">
  <defs>
    <clipPath id="clip-path">
      <rect id="Rectangle_10230" data-name="Rectangle 10230" width="1920" height="489" transform="translate(0 1975)" fill="none" stroke="#707070" stroke-width="1"/>
    </clipPath>
  </defs>
  <g id="Mask_Group_5" data-name="Mask Group 5" transform="translate(0 -1975)" clip-path="url(#clip-path)">
    <g id="Group_4295" data-name="Group 4295" transform="translate(-314.558 1535.543)">
      <path id="Path_11391" data-name="Path 11391" d="M2255.721,1196.337V458.457c-24.118,12.371-47.8,25.582-75.178,29.472-18.559,2.624-37.857.764-56.106,4.789-52.182,11.478-76.411,65.071-124.832,85.363-34.168,14.337-78.084,10.98-106.547,32.666-24.929,18.995-29.9,51.632-53.464,71.891-25.4,21.82-66.206,23.924-101.307,17.365-35.142-6.525-68.184-20.194-103.638-25.25-45.465-6.447-93.577,2.065-132.331,23.416-15.06,8.318-133.592,92.821-252.057,189.662,9.89,7.551-169.626-124.715-182.59-131.854-38.735-21.357-86.871-29.859-132.31-23.388-35.456,5.046-68.519,18.7-103.633,25.242-35.137,6.543-75.927,4.45-101.312-17.36-23.569-20.262-28.537-52.907-53.487-71.907-28.449-21.673-72.36-18.311-106.549-32.651-48.389-20.308-72.648-73.883-124.832-85.389-18.223-4.015-37.518-2.145-56.08-4.777-27.387-3.883-51.089-17.112-75.191-29.49v680.078Z" transform="translate(0 0)" fill="#d5d5d5" opacity="0.091"/>
      <path id="Path_11392" data-name="Path 11392" d="M2170.788,535.562c-20,2.624-40.807.764-60.486,4.787-56.256,11.48-82.374,65.071-134.582,85.363-36.826,14.34-84.177,10.98-114.864,32.669-26.877,18.995-32.236,51.63-57.634,71.891-27.385,21.821-71.378,23.924-109.22,17.363-37.883-6.522-73.51-20.191-111.735-25.248-49.011-6.447-100.877,2.062-142.656,23.414-16.236,8.32-144.028,92.823-271.748,189.664C1178.528,943.014,985,810.75,971.022,803.612c-41.763-21.357-93.652-29.861-142.645-23.39-38.22,5.051-73.862,18.7-111.72,25.245-37.873,6.543-81.864,4.447-109.22-17.363-25.411-20.261-30.768-52.9-57.67-71.9C519.1,694.524,471.76,697.889,434.9,683.549,387.249,665,361.291,618.711,314.28,602.063V1243.97H2251.839V506.09C2225.84,518.461,2200.3,531.669,2170.788,535.562Z" transform="translate(0 75.751)" fill="#d5d5d5" opacity="0.157"/>
    </g>
    <g id="Group_4294" data-name="Group 4294" transform="translate(-229.28 1446.472)">
      <path id="Path_11386" data-name="Path 11386" d="M1128.211,1017.593l60.3-2.244L907.517,905.632,772.775,864.8,714.1,826.773l-84.506-42.245L505.468,843.672l-89.1,36.612L228.28,949.168l.723,68.425h899.208Z" transform="translate(17 -9)" fill="#389835"/>
      <path id="Path_11387" data-name="Path 11387" d="M1742.657,1017.593l60.3-2.244L1521.962,905.632,1387.22,864.8l-58.677-38.022-84.506-42.245-124.124,59.144-89.1,36.612L842.725,949.168l.724,68.425h899.208Z" transform="translate(276.357 -9)" fill="#389835"/>
      <path id="Path_11388" data-name="Path 11388" d="M793.089,999.91,652.326,944.949,517.587,904.112l-58.675-38.022-84.507-42.245L250.283,882.988l-21.5,8.835V999.91Z" transform="translate(0.224 17.683)" fill="#53b84f"/>
      <path id="Path_11389" data-name="Path 11389" d="M1081.81,998.6l223.031-53.651,134.739-40.837,58.675-38.022,84.507-42.245,124.123,59.144,21.5,8.835V999.91Z" transform="translate(420.891 17.683)" fill="#53b84f"/>
      <path id="Path_11390" data-name="Path 11390" d="M1160.694,1000.307h293.467l-336.982-118.2L993.056,822.961,908.55,865.207l-58.675,38.023L715.137,944.066,571.1,1000.307Z" transform="translate(154.188 17.286)" fill="#53b84f"/>
    </g>
    <path id="Path_11393" data-name="Path 11393" d="M716.58,101.793a127.479,127.479,0,0,0-23.8,1.926,6.443,6.443,0,0,0-6.434,5.637c-1.175,3.911-.91,9.419-1.778,13.41a77.872,77.872,0,0,0-13.648-7.037c-1.64-.65-3.567-1.228-5.1-.347a5.684,5.684,0,0,0-1.979,2.4,36.138,36.138,0,0,0-4.181,15.308c1.145-5.379,6.451-8.2,11.9-8.968s10.935.836,16.081,2.774c.968-9.714,9.064-18.951,18.515-21.395C710.758,104.31,713.181,105.117,716.58,101.793Z" transform="translate(913.1 2088.711)" fill="#0097a7"/>
    <path id="Path_11394" data-name="Path 11394" d="M659.664,101.789a84.123,84.123,0,0,1,15.705,1.271,4.252,4.252,0,0,1,4.246,3.72c.776,2.581.6,6.215,1.173,8.849a51.389,51.389,0,0,1,9.006-4.644c1.082-.429,2.354-.81,3.363-.229a3.752,3.752,0,0,1,1.306,1.584,23.848,23.848,0,0,1,2.759,10.1c-.755-3.549-4.257-5.414-7.85-5.918s-7.216.552-10.611,1.83a17.144,17.144,0,0,0-12.218-14.118C663.506,103.45,661.907,103.983,659.664,101.789Z" transform="matrix(0.921, -0.391, 0.391, 0.921, 99.905, 2443.036)" fill="#0097a7"/>
    <path id="Path_11395" data-name="Path 11395" d="M659.664,101.791a109.735,109.735,0,0,1,20.487,1.658,5.546,5.546,0,0,1,5.539,4.852c1.012,3.367.783,8.108,1.53,11.543a67.035,67.035,0,0,1,11.748-6.057c1.412-.56,3.07-1.057,4.387-.3a4.893,4.893,0,0,1,1.7,2.066,31.107,31.107,0,0,1,3.6,13.177c-.985-4.63-5.553-7.063-10.24-7.72s-9.413.72-13.842,2.388c-.833-8.362-7.8-16.313-15.938-18.417C664.676,103.958,662.59,104.653,659.664,101.791Z" transform="matrix(0.921, -0.391, 0.391, 0.921, -455.587, 2321.375)" fill="#0097a7"/>
    <path id="Path_11396" data-name="Path 11396" d="M523.722,592.364h432.4s20.154-40.466-65.094-33.72c0,0,1.556-55.653-46.492-26.99,0,0-20.143-33.273-35.645-8.2,0,0-72.838-87.619-123.981-9.354,0,0-46.5-12.28-49.6,22.874,0,0-55.794-12.059-52.688,30.092C582.62,567.066,529.925,560.329,523.722,592.364Z" transform="translate(1078.277 1502.498)" fill="#ebebeb"/>
    <path id="Path_11417" data-name="Path 11417" d="M523.722,534.277H729.389s9.586-19.247-30.962-16.039c0,0,.74-26.471-22.114-12.838,0,0-9.581-15.826-16.954-3.9,0,0-34.645-41.675-58.971-4.449,0,0-22.119-5.841-23.592,10.88,0,0-26.538-5.736-25.061,14.313C551.737,522.244,526.673,519.039,523.722,534.277Z" transform="translate(59.277 1652.586)" fill="#f5f5f5"/>
  </g>
</svg>
