<svg xmlns="http://www.w3.org/2000/svg" xmlns:xlink="http://www.w3.org/1999/xlink" width="1920" height="388" viewBox="0 0 1920 388">
  <defs>
    <clipPath id="clip-path">
      <rect id="Rectangle_10229" data-name="Rectangle 10229" width="1920" height="388" transform="translate(0 3435)" fill="none" stroke="#707070" stroke-width="1"/>
    </clipPath>
    <linearGradient id="linear-gradient" x1="0.5" y1="0.676" x2="0.5" y2="1" gradientUnits="objectBoundingBox">
      <stop offset="0" stop-color="#53b84f"/>
      <stop offset="1" stop-color="#489145"/>
    </linearGradient>
  </defs>
  <g id="Mask_Group_4" data-name="Mask Group 4" transform="translate(0 -3435)" clip-path="url(#clip-path)">
    <rect id="Rectangle_10231" data-name="Rectangle 10231" width="1920" height="1367" transform="translate(0 2456)" fill="url(#linear-gradient)"/>
    <g id="Group_4298" data-name="Group 4298" transform="translate(0 58)">
      <g id="Group_4297" data-name="Group 4297" transform="translate(1507.93 3141.416)">
        <path id="Path_11401" data-name="Path 11401" d="M-1341.7,371.647c1.547.223,3.042,1.423,3.125,2.442.107,1.33-1.214,1.509-2.86,1.693a4,4,0,0,0-3.232,1.693c35.469-4.245,70.891-9.214,106.162-11.975,84.524-6.615,169.87-10.99,254.782-8.878,48.642,1.206,97.119,4.553,145.6,7.9-2.2-1.412-1.957-2.725.507-4.061.713-.388,1.517-.708,2.274-1.06,2.186-1.019,2.533-2.018.84-3.342a29.735,29.735,0,0,0-4.168-2.58c-1.9-1.038-3.934-1.977-5.878-2.984-1.181-.619-1.272-1.258.146-1.814.534-.207,1.074-.4,1.6-.611,1.426-.564,2.918-1.071,4.261-1.71,1.363-.644,1.379-1.495.286-2.293q-1.491-1.082-3.122-2.078c-2-1.211-4.152-2.324-6.043-3.6-2.095-1.415-1.889-1.891.226-3.3,2.731-1.814,5.429-3.659,7.953-5.594,2.868-2.2,4.592-4.749,4.7-7.7.044-1.049-.385-1.828-2.07-2.125-2.282-.4-4.537-.881-6.849-1.162-4.867-.586-7.689-4.11-6.037-6.687,1.233-1.908,3.358-3.059,5.836-4.066,3.667-1.5,6.384-3.449,7.656-6.153a4.317,4.317,0,0,0,.088-4.366c-.46.077-.754.113-1.049.173-4.57.931-6.527-.085-6.156-3.191a11.5,11.5,0,0,0,.207-2.406c-.044-.468-.512-.922-.79-1.382a18.375,18.375,0,0,0-1.853.575,15.14,15.14,0,0,1-9.646,1.332c-3.692-.809-4.867-3.716-2.516-5.657a26.332,26.332,0,0,0,4.05-4.03c1.585-2.065,2.651-4.264,2.276-6.626-.308-1.966-1.657-2.417-4.223-1.4-1.432.559-2.764,1.236-4.2,1.795-1.96.757-3.821.168-3.733-1.3a3.265,3.265,0,0,1,1.556-2.431c2.538-1.489,2.8-3.047,1.869-5.1-1.129-2.48-2.247-5.054.259-7.587.372-.377-.162-1.352-.735-1.82a4.683,4.683,0,0,0-2.431-.493,19.243,19.243,0,0,0-2.913.44c-1.682.281-2.877-.08-3.229-1.2s-.421-2.323-.845-3.447c-1.085-2.871-3.146-5.313-7.529-6.657-1.363-.413-2.557-.355-3.169.537a35.154,35.154,0,0,0-1.784,3.405c-1.77,3.3-3.609,6.535-9.9,7.386-2.692.366-3.3,1.076-2.981,2.86a33.335,33.335,0,0,0,.966,3.81c.482,1.6.074,2.935-2.186,3.912a3.863,3.863,0,0,0-1.682,1.247c-1.1,1.828-2.065,3.683-2.99,5.547-.68,1.346-1.178,2.8-3.081,3.62a73.644,73.644,0,0,1-9,3.389c-1.845.52-2.071,1.132-1.933,2.186.41,3.188,2.811,5.77,5.834,8.185,2.3,1.839,2.235,2.12-.686,3.6a5.268,5.268,0,0,1-1.076.473c-2.654.669-5.3,1.377-8,1.952-1.363.289-2.378.738-2.291,1.644a9.186,9.186,0,0,0,1,4.107,44.023,44.023,0,0,0,4.157,4.831c1.008,1.164,1.941,2.312,1.178,3.76-1.657,3.152-4.917,5.646-8.036,8.2a2.828,2.828,0,0,1-1.839.184c-3.466-2.15-7.083-4.322-8.559-7.342-1.709-3.51-3.312-7.056-3.587-10.792a16.947,16.947,0,0,0-1.3-4.851c-.177-.468-1.219-.8-1.853-1.195-.5.44-1.258.834-1.453,1.321-.845,2.139-1.465,4.314-2.288,6.458-1.016,2.646-2.081,5.277-3.281,7.893a2.578,2.578,0,0,1-1.757,1.173,3.728,3.728,0,0,1-2.343-1.087c-.889-1.31-1.349-2.739-2.106-4.094-.564-1.013-.581-2.29-2.94-2.863-.76,2.153-1.4,4.146-2.194,6.12a8.813,8.813,0,0,1-1.669,2.78c-1.241,1.321-2.747,1.454-4.468.4a20.7,20.7,0,0,1-3.232-2.637c-1.817-1.721-3.35-3.587-5.382-5.2-1.919-1.522-4.5-2.1-6.712.08a5.13,5.13,0,0,1-.7.564c-1.811,1.255-3.95,1.085-4.812-.509a45.04,45.04,0,0,1-2.271-5.324c-1.079-2.8-1.547-5.759-3.254-8.383a23.668,23.668,0,0,1-3.21-8.856,37.539,37.539,0,0,0-2.045-6.731,13.318,13.318,0,0,0-2.266-2.849c-.281.041-.57.08-.854.118l-.823,3.758c-.509,2.351-.944,4.708-1.563,7.045-.8,3.009-1.74,6-2.635,9-.881,2.921-1.919,5.82-2.621,8.757-.757,3.2-1.272,6.436-1.767,9.666a5.582,5.582,0,0,1-3.262,4.674,3.632,3.632,0,0,1-4.2-.41,7.91,7.91,0,0,1-1.657-2.91c-1.189-3.774-2.114-7.6-3.414-11.359-.393-1.154-.41-2.582-2.577-3.471a6.712,6.712,0,0,0-.427,1.291c-.4,3.645-.622,7.3-1.187,10.935a31.91,31.91,0,0,1-1.82,6.373c-.471,1.258-1.679,2.4-2.09,3.664-.9,2.7-1.3,5.476-2.307,8.157-.633,1.682-1.908,3.306-4.98,4.138-.118-.531-.248-.95-.314-1.365-.377-2.48-2.032-4.5-5.429-5.729-1.3-.463-1.492-.79-.961-1.657,2.125-3.439.732-7.317-3.26-9.484-2.386-1.3-4.57-1.123-5.985.644a16.785,16.785,0,0,0-1.9,3.5,30.882,30.882,0,0,1-2.312,4.818,6.083,6.083,0,0,1-3.331,1.853,3.809,3.809,0,0,1-3.736-1.418,12.581,12.581,0,0,1-2.04-3.46c-.864-2.346-1.368-4.743-2.252-7.081a12.934,12.934,0,0,0-2.021-2.758c-2.128.779-2.86,1.778-3.031,2.935-.209,1.4-.124,2.825-.385,4.215a42.876,42.876,0,0,1-1.864,7.953c-.806,2.015-2.709,3.763-5.894,4.749a4.866,4.866,0,0,1-4.1-.5c-1.087-.619-1.443-1.382-1.007-2.389a19.148,19.148,0,0,0,1.64-10.624,5.087,5.087,0,0,0-2.888-3.934c-1.283-.661-1.349-1.387-.9-2.235s1.1-1.624,1.459-2.472a29.485,29.485,0,0,0,1.467-4.2c.226-.889-.556-1.613-1.844-1.894-2.048-.451-2.516-1.407-2.508-2.64a48.989,48.989,0,0,0-.089-5.432c-.187-1.886-3.077-3.565-5.877-3.593a3.887,3.887,0,0,0-4.116,3.207,1.038,1.038,0,0,0-.058.24,31.477,31.477,0,0,1-3.444,11.444,34.035,34.035,0,0,1-2.811,4.845c-.8,1.129-2.114,1.151-3.353.187a2.912,2.912,0,0,1-.952-1.024,35.492,35.492,0,0,1-2.125-5.847,11.829,11.829,0,0,0-3.758-6.475c-2.4-2.194-3.8-4.564-3.562-7.323a21.347,21.347,0,0,0-.234-5.31c-.234-1.374-.476-2.858-2.555-3.884a5,5,0,0,0-.364.573q-2.052,6.805-4.11,13.608c-.961,3.158-2.023,6.3-2.888,9.467-.721,2.687-1.255,5.39-1.828,8.094-.427,2.034-.708,4.083-2.524,5.867a3,3,0,0,1-3.1,1.131,3.824,3.824,0,0,1-2.323-1.781c-.886-2.458-1.294-4.988-2.142-7.463a27.6,27.6,0,0,0-2.557-5.255c-.355-.586-1.5-.969-2.288-1.44-.451.661-1.258,1.316-1.3,1.993-.229,3.009-.091,6.029-.388,9.032a44.534,44.534,0,0,1-1.434,6.764,1.9,1.9,0,0,1-1.255.966,3.628,3.628,0,0,1-2.021-.859c-.909-1.137-1.514-2.368-2.288-3.549-.862-1.321-1.233-2.866-3.692-3.678a3.937,3.937,0,0,0-.4.886c-1.022,5.839-2.046,11.672-3.023,17.514a49.61,49.61,0,0,1-4.353,14.043,10.112,10.112,0,0,1-5.462,4.749,10.569,10.569,0,0,1-2.436.292c-.1-.526-.46-1.09-.275-1.566a13.092,13.092,0,0,1,1.462-2.208c1.36-2.056,2.891-4.077,4.036-6.18.952-1.756-.088-3.2-2.434-4.237-1.082-.476-2.145-.975-3.127-1.525a26.787,26.787,0,0,1-9.432-8.716,4.37,4.37,0,0,0-3.8-1.861c-1.814-.044-3.273.518-3.766,1.624a50.332,50.332,0,0,0-1.836,5.379c-.749,2.4-1.346,4.818-2.211,7.2-.589,1.624-2.69,2.681-4.729,2.646-2.805-.041-3.95.856-3.064,2.593a18.2,18.2,0,0,0,2.12,2.794,1.485,1.485,0,0,1-.619,2.588,4.266,4.266,0,0,1-3.78-.179,13.584,13.584,0,0,1-6.464-6.9c-1.288-2.591-2.216-5.264-3.419-7.876-.594-1.283-1.456-2.516-2.2-3.771-.193-.022-.394-.039-.595-.061-.363.407-.952.8-1.057,1.231-.46,1.861-.653,3.76-1.2,5.613a36.442,36.442,0,0,1-1.952,4.738c-.644,1.4-1.522,2.767-2.084,4.187-1.509,3.766-2.645,7.6-4.421,11.306-1.36,2.855-4.559,4.65-9.484,4.8-2.219.063-3.733-.955-3.353-2.357a4.45,4.45,0,0,1,1.054-1.911c2.685-2.819,2.126-6.117-.9-8.443-3.945-3.023-6.651-6.392-7.86-10.252-.308-.983-1.233-1.412-2.6-1.379a12.544,12.544,0,0,0-3.227.468c-1.856.562-3.562,1.313-5.4,1.9-1.585.5-2.021.245-2.464-.807-1.467-3.48-2.935-6.962-4.636-10.4-1.839-3.722-3.749-7.408-3.458-11.4a11.311,11.311,0,0,0-.394-3.606,6.038,6.038,0,0,0-1.33-2.367,1.787,1.787,0,0,0-2.959.1,17.153,17.153,0,0,0-1.836,4.019c-1.1,4.077-1.963,8.179-3.07,12.253-.586,2.147-3.045,3.061-6.379,2.593-3.243-.454-4.215-2.054-2.274-3.755a12.885,12.885,0,0,1,1.151-.947c2.469-1.7,2.692-3.538.95-5.533-.49-.556-.939-1.129-1.412-1.7-2.106-2.516-4.416-5.06-4.429-7.978-.017-2.417-1.269-4.446-2.99-6.472-1.847-2.186-2.992-4.43-1.019-6.882a1.467,1.467,0,0,0,.209-1.41,29.658,29.658,0,0,0-2.271-4.939c-1.754-2.792-3.92-5.489-3.551-8.639a.933.933,0,0,0-.187-.82,3.5,3.5,0,0,0-1.666-.969,2.427,2.427,0,0,0-1.641.757,2.1,2.1,0,0,0-.476,1.729c1.236,4.184-.818,8.058-2.667,11.931-1.426,2.987-2.574,5.96-2.029,9.118a2.314,2.314,0,0,1-.38,1.517,1.761,1.761,0,0,1-1.151.782,2.188,2.188,0,0,1-1.41-.622c-.925-1.074-1.709-2.194-2.67-3.463-.465.341-1.1.6-1.269.953a12.46,12.46,0,0,0-1.189,3.265c-.677,4.2-.691,8.443-2.794,12.509a6.117,6.117,0,0,0-.234.953c-.581,1.765-1.145,3.538-1.775,5.294-1.11,3.133-2.439,6.235-3.35,9.39-.956,3.315-1.344,6.7-2.307,10.01-.925,3.188-2,6.379-4.886,9.167-.407.394-.193,1.129-.028,1.679.355,1.131,1.258,2.244,1.233,3.353-.047,2.585-.875,3.67-4.435,4.636a13.036,13.036,0,0,0-3.623,1.649C-1345.349,370.028-1344.752,371.215-1341.7,371.647Z" transform="translate(223.075 0)" fill="#44a340" fill-rule="evenodd"/>
        <path id="Path_11402" data-name="Path 11402" d="M-1250.463,373.891c46.69,2.434,93.5-2.6,140.216-8.352.08-.041.16-.077.242-.116,2.181-1.013,2.525-2.015.829-3.342a30.04,30.04,0,0,0-4.157-2.577c-1.905-1.035-3.934-1.977-5.875-2.984-1.187-.622-1.275-1.258.14-1.817.526-.206,1.071-.4,1.6-.608,1.426-.564,2.916-1.074,4.265-1.71,1.365-.644,1.376-1.495.275-2.293q-1.482-1.086-3.114-2.078c-2-1.214-4.154-2.323-6.043-3.6-2.1-1.415-1.885-1.886.229-3.292,2.731-1.814,5.429-3.659,7.951-5.594,2.871-2.2,4.595-4.752,4.708-7.7.039-1.049-.385-1.828-2.073-2.128-2.28-.4-4.534-.881-6.855-1.162-4.87-.581-7.691-4.11-6.029-6.681,1.228-1.913,3.361-3.064,5.828-4.072,3.673-1.5,6.384-3.45,7.664-6.15a4.329,4.329,0,0,0,.083-4.366c-.457.077-.762.116-1.052.171-4.562.93-6.525-.085-6.153-3.191a11.669,11.669,0,0,0,.207-2.4c-.039-.471-.509-.925-.787-1.388a19.065,19.065,0,0,0-1.847.581,15.2,15.2,0,0,1-9.646,1.335c-3.7-.812-4.873-3.722-2.524-5.663a26.193,26.193,0,0,0,4.047-4.03c1.586-2.062,2.657-4.262,2.277-6.621-.308-1.971-1.652-2.42-4.223-1.407-1.429.562-2.756,1.233-4.2,1.795-1.968.76-3.829.171-3.73-1.3a3.253,3.253,0,0,1,1.547-2.431c2.546-1.484,2.811-3.045,1.877-5.093-1.134-2.483-2.252-5.054.253-7.587.377-.38-.162-1.354-.732-1.822a4.706,4.706,0,0,0-2.431-.49,19.141,19.141,0,0,0-2.91.44c-1.69.275-2.877-.08-3.235-1.209s-.418-2.318-.848-3.444c-1.079-2.871-3.141-5.31-7.527-6.654-1.36-.416-2.554-.361-3.168.54a35.678,35.678,0,0,0-1.779,3.4c-1.776,3.306-3.615,6.538-9.905,7.394-2.7.363-3.3,1.074-2.987,2.86a33.939,33.939,0,0,0,.972,3.8c.476,1.6.072,2.937-2.186,3.915a3.885,3.885,0,0,0-1.685,1.247c-1.093,1.828-2.062,3.683-2.992,5.544-.672,1.346-1.17,2.8-3.081,3.623a71.9,71.9,0,0,1-8.991,3.386c-1.847.523-2.07,1.131-1.935,2.186.41,3.188,2.811,5.776,5.836,8.187,2.3,1.839,2.233,2.117-.683,3.6a5.216,5.216,0,0,1-1.079.474c-2.656.669-5.3,1.376-8,1.952-1.363.292-2.381.74-2.29,1.646a9.191,9.191,0,0,0,1,4.1,43.268,43.268,0,0,0,4.163,4.834c1,1.164,1.938,2.312,1.176,3.758-1.663,3.155-4.917,5.649-8.036,8.2a2.844,2.844,0,0,1-1.836.182c-3.466-2.147-7.089-4.319-8.559-7.342-1.709-3.507-3.32-7.056-3.59-10.792a17.163,17.163,0,0,0-1.3-4.848c-.182-.468-1.22-.8-1.861-1.192-.5.438-1.258.829-1.451,1.316-.845,2.142-1.464,4.319-2.285,6.458-1.013,2.648-2.081,5.28-3.281,7.893a2.584,2.584,0,0,1-1.759,1.176,3.688,3.688,0,0,1-2.34-1.09c-.892-1.3-1.352-2.739-2.106-4.091-.564-1.013-.586-2.293-2.943-2.866-.76,2.153-1.4,4.149-2.194,6.123a8.82,8.82,0,0,1-1.663,2.78c-1.244,1.321-2.753,1.454-4.471.4a19.972,19.972,0,0,1-3.227-2.637c-1.828-1.721-3.358-3.587-5.387-5.2-1.916-1.52-4.5-2.095-6.712.083a5.725,5.725,0,0,1-.7.564c-1.809,1.258-3.945,1.085-4.8-.509a43.98,43.98,0,0,1-2.28-5.327c-1.076-2.8-1.544-5.756-3.254-8.38a23.682,23.682,0,0,1-3.2-8.859,38.15,38.15,0,0,0-2.048-6.731,13.26,13.26,0,0,0-2.271-2.849c-.281.041-.567.085-.848.121-.272,1.253-.548,2.5-.823,3.755-.512,2.354-.942,4.708-1.561,7.047-.8,3.009-1.745,6-2.643,9-.873,2.918-1.919,5.82-2.615,8.757-.757,3.2-1.272,6.434-1.765,9.663a5.591,5.591,0,0,1-3.268,4.674,3.638,3.638,0,0,1-4.2-.4,8.016,8.016,0,0,1-1.66-2.915c-1.187-3.774-2.111-7.593-3.4-11.359-.4-1.154-.416-2.577-2.579-3.471a7.156,7.156,0,0,0-.435,1.291c-.391,3.645-.619,7.3-1.178,10.937a32.247,32.247,0,0,1-1.82,6.37c-.471,1.258-1.677,2.4-2.095,3.664-.9,2.7-1.294,5.478-2.307,8.157-.633,1.688-1.908,3.306-4.972,4.14-.126-.531-.25-.953-.316-1.368-.377-2.478-2.031-4.5-5.434-5.726-1.3-.465-1.49-.793-.955-1.657,2.123-3.439.729-7.32-3.262-9.487-2.387-1.3-4.567-1.123-5.982.65a16.768,16.768,0,0,0-1.9,3.494,30.636,30.636,0,0,1-2.312,4.818,6.087,6.087,0,0,1-3.328,1.856,3.817,3.817,0,0,1-3.741-1.421,12.434,12.434,0,0,1-2.034-3.458c-.862-2.343-1.371-4.743-2.255-7.081a13.223,13.223,0,0,0-2.018-2.761c-2.134.779-2.86,1.781-3.033,2.937-.209,1.4-.121,2.822-.388,4.217a42.488,42.488,0,0,1-1.861,7.951c-.8,2.012-2.709,3.763-5.891,4.746a4.859,4.859,0,0,1-4.1-.5c-1.087-.619-1.443-1.379-1.008-2.392a19.163,19.163,0,0,0,1.643-10.624,5.09,5.09,0,0,0-2.9-3.934c-1.28-.658-1.338-1.387-.889-2.233s1.1-1.627,1.459-2.475a30.1,30.1,0,0,0,1.465-4.2c.226-.886-.551-1.616-1.842-1.9-2.048-.449-2.519-1.4-2.508-2.635a49.63,49.63,0,0,0-.088-5.432c-.187-1.888-3.078-3.562-5.877-3.6a3.891,3.891,0,0,0-4.119,3.2,1.271,1.271,0,0,0-.055.242,31.541,31.541,0,0,1-3.441,11.447,34.267,34.267,0,0,1-2.816,4.842c-.8,1.129-2.114,1.151-3.35.19a2.924,2.924,0,0,1-.955-1.027,37.037,37.037,0,0,1-2.128-5.85,11.786,11.786,0,0,0-3.75-6.469c-2.4-2.191-3.8-4.564-3.568-7.326a21.289,21.289,0,0,0-.231-5.308,4.423,4.423,0,0,0-2.555-3.882,3.509,3.509,0,0,0-.363.57q-2.061,6.805-4.116,13.608c-.955,3.158-2.018,6.3-2.876,9.467-.732,2.684-1.264,5.39-1.831,8.091-.429,2.034-.713,4.083-2.53,5.866a3.009,3.009,0,0,1-3.1,1.134,3.807,3.807,0,0,1-2.318-1.778c-.884-2.464-1.3-4.994-2.147-7.463a27.539,27.539,0,0,0-2.549-5.261c-.352-.581-1.506-.966-2.291-1.44-.454.663-1.255,1.319-1.308,2-.229,3.009-.085,6.029-.383,9.032a45.308,45.308,0,0,1-1.437,6.764,1.873,1.873,0,0,1-1.255.964,3.647,3.647,0,0,1-2.021-.859c-.906-1.131-1.514-2.365-2.288-3.546-.864-1.324-1.233-2.863-3.691-3.681a4.485,4.485,0,0,0-.4.889c-1.016,5.836-2.043,11.67-3.02,17.514a49.67,49.67,0,0,1-4.347,14.04,10.143,10.143,0,0,1-5.473,4.752,10.367,10.367,0,0,1-2.431.289c-.107-.523-.454-1.087-.27-1.561a12.769,12.769,0,0,1,1.453-2.211c1.365-2.059,2.9-4.077,4.039-6.183.95-1.756-.091-3.193-2.434-4.234-1.076-.479-2.145-.975-3.127-1.525a26.872,26.872,0,0,1-9.429-8.716,4.376,4.376,0,0,0-3.8-1.864c-1.814-.039-3.279.52-3.763,1.624a50.073,50.073,0,0,0-1.839,5.382c-.749,2.4-1.346,4.815-2.21,7.2a3.24,3.24,0,0,1-.482.76v31.645h193.535A52.828,52.828,0,0,1-1250.463,373.891Z" transform="translate(0 10.56)" fill="#44a340" fill-rule="evenodd"/>
        <path id="Path_11403" data-name="Path 11403" d="M-1225.288,318.068c1.55.118,3.05.754,3.13,1.294.033.245-.151.4-.41.523,11.469.063,22.929.206,34.392.493,32.854.815,65.631,2.613,98.393,4.719,60.485-.055,118.377-.044,118.765.2h49.324a9.872,9.872,0,0,1,1.219-.044c.394.005.787.025,1.184.044h12.306c.807-.226,15.394-.306,18.885-.129,1.019.05,2.032.088,3.056.129H-718.1c-.361-.407-.735-.812-1.145-1.211a5.524,5.524,0,0,0-3.86-1.861c-.991-.143-1.321-.452-.4-.774.572-.2,1.115-.4,1.726-.578,10.811-3.177,9.552-3.356,3.246-8.482-2.522-2.051-7.447-7.378-10.145-8.8-6.337-3.328-22.035-5.988-29.925-7.342-5.514-.947-11.521-.24-15.507-4.578-5.354,3.7-10.668-1.489-16.567-1.988-8.5-.719-19.962,5.134-26.5-1.977-1.707-1.861-3.32-3.741-3.584-5.718a6.218,6.218,0,0,0-1.308-2.569c-.184-.25-1.214-.424-1.861-.636a5.615,5.615,0,0,0-1.451.7c-.848,1.131-1.465,2.285-2.29,3.422-1.008,1.4-2.078,2.8-3.279,4.182a3.239,3.239,0,0,1-1.757.622,5.519,5.519,0,0,1-2.34-.575,27.28,27.28,0,0,1-2.111-2.169c-.562-.537-.578-1.217-2.94-1.517-.757,1.137-1.4,2.2-2.194,3.243a5.343,5.343,0,0,1-1.66,1.473,5.421,5.421,0,0,1-4.474.209,22.4,22.4,0,0,1-3.221-1.4c-1.831-.911-3.364-1.9-5.393-2.753a8.043,8.043,0,0,0-6.714.044,6.1,6.1,0,0,1-.694.3c-1.814.663-3.951.575-4.8-.27a20.291,20.291,0,0,1-2.282-2.822c-1.077-1.484-1.536-3.047-3.251-4.44a9.78,9.78,0,0,1-3.2-4.691,14.607,14.607,0,0,0-2.051-3.565,10.2,10.2,0,0,0-2.271-1.511c-.278.022-.564.041-.845.063-.275.666-.551,1.324-.823,1.99-.518,1.247-.942,2.494-1.567,3.73-.8,1.6-1.742,3.182-2.643,4.771-.867,1.544-1.916,3.086-2.607,4.639a36.27,36.27,0,0,0-1.765,5.121c-.286.964-.919,1.853-3.276,2.475a6.34,6.34,0,0,1-4.2-.212,4.688,4.688,0,0,1-1.666-1.544c-1.181-2-2.109-4.022-3.4-6.018-.4-.611-.421-1.368-2.582-1.839a2.7,2.7,0,0,0-.432.686c-.4,1.93-.619,3.865-1.178,5.795a12.133,12.133,0,0,1-1.822,3.375c-.477.663-1.674,1.269-2.1,1.938-.9,1.432-1.3,2.9-2.3,4.322-.636.895-1.911,1.754-4.972,2.194a6.088,6.088,0,0,1-.316-.727c-.377-1.31-2.037-2.384-5.443-3.034-1.294-.248-1.486-.418-.95-.875,2.123-1.822.727-3.876-3.262-5.027-2.387-.683-4.57-.595-5.982.341a9.453,9.453,0,0,0-1.9,1.853,15.617,15.617,0,0,1-2.312,2.552,8.353,8.353,0,0,1-3.331.983,5.815,5.815,0,0,1-3.739-.752,7.454,7.454,0,0,1-2.034-1.831c-.859-1.244-1.377-2.513-2.255-3.752a9.561,9.561,0,0,0-2.015-1.462c-2.136.41-2.871.942-3.037,1.555-.212.743-.124,1.492-.388,2.235a14.39,14.39,0,0,1-1.861,4.212c-.8,1.068-2.709,1.99-5.894,2.513a8.708,8.708,0,0,1-4.1-.267c-1.09-.328-1.445-.729-1.01-1.266,1.489-1.839,2.208-3.716,1.643-5.63-.231-.8-1-1.561-2.89-2.078-1.286-.352-1.341-.738-.9-1.187s1.1-.864,1.459-1.313a11.824,11.824,0,0,0,1.47-2.222c.226-.468-.55-.856-1.839-1.008-2.048-.234-2.524-.74-2.508-1.39a14.009,14.009,0,0,0-.091-2.882c-.19-1-3.078-1.888-5.88-1.9-2.145-.014-3.54.559-4.121,1.7a.492.492,0,0,0-.047.129c-.267,2.078-1.643,4.091-3.449,6.065a19.886,19.886,0,0,1-2.816,2.566,3.532,3.532,0,0,1-3.347.1,2.638,2.638,0,0,1-.953-.542,15.417,15.417,0,0,1-2.125-3.1c-.512-1.255-1.616-2.4-3.752-3.427-2.4-1.164-3.8-2.42-3.571-3.882a5.964,5.964,0,0,0-.234-2.816c-.226-.724-.465-1.511-2.555-2.054-.176.149-.317.223-.353.3-1.376,2.4-2.739,4.807-4.118,7.21-.961,1.671-2.026,3.339-2.877,5.016a44.676,44.676,0,0,0-1.83,4.289,4.782,4.782,0,0,1-2.533,3.105,4.651,4.651,0,0,1-3.1.6,4.334,4.334,0,0,1-2.321-.942c-.875-1.3-1.3-2.643-2.142-3.956a13.94,13.94,0,0,0-2.557-2.786,9.772,9.772,0,0,0-2.288-.763c-.452.35-1.25.7-1.308,1.057-.225,1.6-.085,3.193-.377,4.787a15.015,15.015,0,0,1-1.443,3.584,2.206,2.206,0,0,1-1.25.506,5.514,5.514,0,0,1-2.023-.454,27.914,27.914,0,0,1-2.288-1.878,5.8,5.8,0,0,0-3.692-1.946c-.179.2-.355.328-.4.468-1.016,3.094-2.04,6.186-3.02,9.28a19.056,19.056,0,0,1-4.347,7.438c-.958,1.021-2.739,1.919-5.473,2.516a19.4,19.4,0,0,1-2.431.151c-.108-.275-.454-.575-.267-.826a8.452,8.452,0,0,1,1.451-1.173c1.368-1.09,2.893-2.156,4.039-3.276.95-.928-.091-1.69-2.436-2.241-1.068-.256-2.142-.515-3.127-.809a27.368,27.368,0,0,1-9.429-4.617,6.148,6.148,0,0,0-3.8-.988c-1.822-.019-3.281.278-3.763.862a19.6,19.6,0,0,0-1.839,2.852c-.751,1.269-1.346,2.549-2.216,3.807-.589.862-2.692,1.423-4.732,1.407-2.8-.025-3.948.449-3.053,1.374a13.244,13.244,0,0,0,2.12,1.478c.832.545.683,1.06-.628,1.371a7.751,7.751,0,0,1-3.782-.094,12.026,12.026,0,0,1-6.456-3.656c-1.291-1.374-2.219-2.791-3.425-4.176a26.145,26.145,0,0,0-2.191-1.993l-.605-.033c-.364.212-.942.419-1.055.65-.46.986-.655,1.99-1.2,2.97a16.457,16.457,0,0,1-1.952,2.516c-.644.74-1.525,1.465-2.086,2.213-1.5,2-2.646,4.025-4.41,6-1.36,1.511-4.57,2.461-9.5,2.541-2.214.033-3.73-.509-3.348-1.247a2.486,2.486,0,0,1,1.052-1.01c2.684-1.495,2.139-3.246-.9-4.476-3.928-1.6-6.648-3.389-7.854-5.434-.311-.52-1.233-.746-2.607-.729a22.863,22.863,0,0,0-3.213.248c-1.853.3-3.562.7-5.4,1-1.594.27-2.023.132-2.469-.427-1.47-1.842-2.932-3.686-4.63-5.506-1.847-1.971-3.75-3.926-3.458-6.037a3.435,3.435,0,0,0-.4-1.913,3.484,3.484,0,0,0-1.33-1.253,2.816,2.816,0,0,0-2.948.052,8.2,8.2,0,0,0-1.844,2.131c-1.107,2.158-1.963,4.333-3.064,6.494-.586,1.134-3.048,1.621-6.376,1.374-3.248-.242-4.223-1.093-2.282-1.99.372-.174.732-.35,1.151-.5,2.467-.9,2.7-1.875.955-2.929-.5-.295-.944-.6-1.415-.9-2.109-1.332-4.416-2.679-4.432-4.223-.014-1.283-1.264-2.359-2.987-3.43-1.847-1.156-2.99-2.345-1.019-3.648a.505.505,0,0,0,.212-.743,14.765,14.765,0,0,0-2.274-2.618c-1.756-1.478-3.915-2.91-3.557-4.575a.345.345,0,0,0-.185-.44,4.853,4.853,0,0,0-1.666-.509,3.551,3.551,0,0,0-1.638.4c-.388.275-.639.625-.476.914,1.233,2.219-.82,4.27-2.665,6.321-1.429,1.583-2.58,3.158-2.035,4.829.088.267-.1.556-.377.807a2.177,2.177,0,0,1-1.153.416,3.289,3.289,0,0,1-1.407-.333c-.931-.57-1.713-1.159-2.67-1.831a5.062,5.062,0,0,0-1.267.5,5.141,5.141,0,0,0-1.192,1.726c-.677,2.224-.694,4.476-2.8,6.629-.152.16-.129.339-.234.5-.578.939-1.145,1.872-1.773,2.805-1.112,1.66-2.442,3.3-3.356,4.974-.947,1.759-1.335,3.549-2.3,5.3a10.425,10.425,0,0,1-4.884,4.856c-.41.209-.193.6-.03.889.352.6,1.255,1.187,1.236,1.778-.044,1.368-.875,1.944-4.438,2.456a20.4,20.4,0,0,0-3.617.87C-1228.927,317.209-1228.333,317.84-1225.288,318.068Z" transform="translate(427.522 36.243)" fill="#44a340" fill-rule="evenodd"/>
        <path id="Path_11404" data-name="Path 11404" d="M-1194.6,310.732q19.524.987,39.031,2.205a6.828,6.828,0,0,1-.975-6.007c1.379-5.057-1.707-7.978-6.519-10.123-.234-.1-.355-.383-.556-.606,3.158-3.064.933-5.454-.928-8.273-1.9-2.869-7.238-4.017-5.709-8.823.432-1.33-1.649-3.584-3.2-4.875-.757-.633-2.916-.047-4.449-.008.113,2.436-4.11,3.838-2.186,6.77.218.322-.391,1.209-.85,1.66-2.269,2.194-5.027,4.113-6.814,6.555-1.539,2.1-3.014,4.82.4,7.02-2.232,1.44-4.324,2.447-5.858,3.89a4.823,4.823,0,0,0-1.55,3.75A16.133,16.133,0,0,1-1194.6,310.732Z" transform="translate(485.812 47.949)" fill="#44a340" fill-rule="evenodd"/>
        <path id="Path_11405" data-name="Path 11405" d="M-1094.54,324.323c15.857-.039,31.728-.091,47.557.127-1.176-1.478-3.917-2.885-.581-5.14.611-.413.033-3.262-.994-4.08-2.973-2.381-3.986-5.016-3.1-8.292,1.376-5.057-1.712-7.981-6.513-10.123-.234-.107-.358-.385-.559-.611,3.163-3.058.936-5.451-.933-8.27-1.894-2.869-7.229-4.019-5.7-8.823.416-1.327-1.663-3.582-3.2-4.873-.76-.636-2.929-.047-4.449-.008.113,2.434-4.113,3.835-2.186,6.767.212.325-.394,1.209-.862,1.66-2.263,2.2-5.021,4.116-6.8,6.558-1.542,2.1-3.017,4.818.394,7.02-2.233,1.44-4.32,2.447-5.853,3.89a4.808,4.808,0,0,0-1.555,3.747c.749,4.336,1.313,8.394-3.45,11.587-.862.581-1.352,3.012-.779,3.474C-1091.107,321.35-1092.919,322.749-1094.54,324.323Z" transform="translate(661.542 47.962)" fill="#44a340" fill-rule="evenodd"/>
        <path id="Path_11406" data-name="Path 11406" d="M-1075.3,316.272c13.187.245,26.332.752,39.43,1.638a6.833,6.833,0,0,1-1.129-6.263c1.379-5.057-1.707-7.981-6.519-10.123-.226-.1-.355-.385-.551-.608,3.16-3.061.936-5.454-.933-8.273-1.905-2.869-7.238-4.019-5.7-8.823.421-1.327-1.657-3.582-3.207-4.873-.757-.636-2.915-.047-4.449-.008.124,2.436-4.11,3.835-2.183,6.77.215.322-.4,1.206-.856,1.657-2.266,2.2-5.021,4.116-6.808,6.557-1.542,2.1-3.017,4.82.4,7.02-2.23,1.44-4.327,2.447-5.861,3.89a4.837,4.837,0,0,0-1.547,3.747C-1074.748,311.3-1074.354,313.916-1075.3,316.272Z" transform="translate(695.262 56.217)" fill="#44a340" fill-rule="evenodd"/>
        <path id="Path_11407" data-name="Path 11407" d="M-1186.979,303.368q8.449.491,16.908,1.021a20,20,0,0,0-1.434-1.941c-1.855-2.186-3-4.424-1.024-6.88a1.489,1.489,0,0,0,.209-1.409,29.385,29.385,0,0,0-2.274-4.942c-1.757-2.789-3.917-5.489-3.551-8.636a.928.928,0,0,0-.187-.82,3.521,3.521,0,0,0-1.668-.972,2.42,2.42,0,0,0-1.638.763,2.1,2.1,0,0,0-.474,1.726c1.242,4.182-.82,8.058-2.667,11.931-1.426,2.984-2.574,5.96-2.026,9.115A2.006,2.006,0,0,1-1186.979,303.368Z" transform="translate(499.502 56.446)" fill="#44a340" fill-rule="evenodd"/>
        <path id="Path_11408" data-name="Path 11408" d="M-891.694,338.292c-2.277-.4-4.531-.881-6.855-1.162-4.864-.584-7.689-4.107-6.026-6.684,1.222-1.911,3.361-3.061,5.825-4.069,3.675-1.5,6.384-3.449,7.667-6.153a4.312,4.312,0,0,0,.083-4.361c-.46.074-.76.113-1.049.171-4.564.928-6.53-.085-6.161-3.191a11.375,11.375,0,0,0,.212-2.406c-.042-.471-.509-.925-.79-1.385a18.085,18.085,0,0,0-1.847.578,15.175,15.175,0,0,1-9.646,1.33c-3.7-.807-4.87-3.714-2.522-5.657a26.04,26.04,0,0,0,4.044-4.03c1.586-2.062,2.659-4.262,2.282-6.626-.314-1.966-1.652-2.412-4.223-1.4-1.434.562-2.758,1.236-4.2,1.795-1.966.757-3.829.171-3.73-1.3a3.241,3.241,0,0,1,1.544-2.428c2.552-1.487,2.813-3.047,1.88-5.1-1.137-2.483-2.247-5.054.25-7.587.38-.38-.162-1.354-.732-1.823a4.712,4.712,0,0,0-2.426-.493,19.181,19.181,0,0,0-2.913.44c-1.693.281-2.877-.08-3.235-1.2s-.424-2.321-.842-3.447c-1.082-2.871-3.144-5.313-7.535-6.654-1.354-.416-2.557-.358-3.16.537-2.775,4.058-3.711,6.789-8.118,9.569-4.818,3.05-5.525.063-6.26,5.878-.773,6.147,2.015,10.728-5.613,14.637-6.6,3.389-15.221,1.261-22.043,3.612-7.334,2.522-7.5,9.156-10.6,14.7a33.657,33.657,0,0,0-7.119-2.99c-1.949,3.909-4.867,2.392-8.32,3.827.446-.179-9.241,3.615-5.721,4.154-3.722-.573-6.183,1.376-6.222,4.754-6.6-2.544-3.022,9.927-12.724,2.244-1.921-1.52-4.5-2.1-6.717.08a5.13,5.13,0,0,1-.7.564c-1.806,1.258-3.942,1.087-4.807-.506a43.067,43.067,0,0,1-2.277-5.327c-1.074-2.8-1.545-5.759-3.249-8.383a23.7,23.7,0,0,1-3.213-8.856,38.671,38.671,0,0,0-2.042-6.731,13.271,13.271,0,0,0-2.274-2.849c-.284.044-.564.083-.848.121q-.405,1.879-.82,3.755c-.515,2.351-.942,4.71-1.564,7.048-.8,3.009-1.74,6-2.643,9-.872,2.921-1.922,5.825-2.613,8.76-.76,3.2-1.275,6.434-1.767,9.663a5.6,5.6,0,0,1-3.27,4.674,3.636,3.636,0,0,1-4.2-.407,7.949,7.949,0,0,1-1.657-2.91c-1.187-3.777-2.114-7.6-3.4-11.361-.394-1.154-.418-2.58-2.577-3.471a6.722,6.722,0,0,0-.437,1.294c-.394,3.645-.622,7.3-1.178,10.937a32.945,32.945,0,0,1-1.82,6.37,8.99,8.99,0,0,1-1.041,1.787c44.766.14,89.369,1.729,132.794,11.918,16.749-.482,33.467,0,50.134,1.118,2.194-1.476,4.358-2.973,6.4-4.537,2.874-2.2,4.6-4.749,4.71-7.7C-889.577,339.371-890,338.589-891.694,338.292Z" transform="translate(680.63 32.642)" fill="#44a340" fill-rule="evenodd"/>
        <path id="Path_11409" data-name="Path 11409" d="M-1026.792,334.981c-.146.041-.289.05-.432.08V347.6c44.851.908,89.421,7.785,133.738,12.435,53.129,5.577,106.319,10.7,159.352,16.933,51.64,6.073,103.2,13.412,153.645,24.119,13.517-13.894,23.821-32.815,19.675-46.943-5.239-17.858-10.67-10.483-22.72-18.227-14.161-9.109-10.907-14.2-28.719-13.792-7.1.16-16.223,6.684-20.493,6.511-7.281-.292-14.205-3.119-20.54-7.16-10.219-6.533-18.893-16.22-25-23.516,2.046-1.55,5.49-4.892,4.735-7.565-.721-2.585-1.423-5.261,1.454-7.485.435-.333.055-1.357-.435-1.886a4.609,4.609,0,0,0-2.34-.771,18.63,18.63,0,0,0-2.948.1c-1.715.083-2.835-.41-3.006-1.564-.185-1.173-.058-2.348-.3-3.518-.619-2.968-2.271-5.624-6.406-7.458-1.28-.573-2.472-.65-3.224.165a36.272,36.272,0,0,0-2.3,3.166c-2.282,3.07-4.608,6.059-10.979,6.18-2.734.05-3.441.683-3.408,2.494a33.148,33.148,0,0,0,.355,3.882c.226,1.638-.388,2.915-2.783,3.623a4.1,4.1,0,0,0-1.861,1.043c-1.379,1.682-2.637,3.411-3.846,5.151-.875,1.255-1.6,2.637-3.626,3.232a76.1,76.1,0,0,1-9.445,2.321c-1.911.306-2.235.881-2.255,1.941-.11,3.2,1.866,6.045,4.476,8.782,1.993,2.087,1.88,2.357-1.239,3.488a5.592,5.592,0,0,1-1.145.344c-2.739.358-5.464.752-8.237,1.01-1.4.132-2.472.46-2.522,1.363a9.069,9.069,0,0,0,.339,4.187,41.638,41.638,0,0,0,3.361,5.272c.815,1.269,1.553,2.511.573,3.857-2.145,2.935-5.765,5.03-9.261,7.2a2.831,2.831,0,0,1-1.845-.03c-3.094-2.527-6.345-5.1-7.32-8.262-1.145-3.672-2.177-7.375-1.853-11.108a16.884,16.884,0,0,0-.526-4.955c-.1-.485-1.079-.928-1.657-1.393-.559.38-1.374.677-1.649,1.134-1.167,2.029-2.125,4.107-3.276,6.136-1.429,2.511-2.9,4.994-4.5,7.441a2.719,2.719,0,0,1-1.927.961,3.521,3.521,0,0,1-2.156-1.346c-.675-1.4-.9-2.871-1.44-4.3-.4-1.068-.209-2.34-2.458-3.18-1.1,2.043-2.048,3.953-3.144,5.814a9.439,9.439,0,0,1-2.087,2.563,3.243,3.243,0,0,1-4.49-.124,19.035,19.035,0,0,1-2.792-2.987c-1.528-1.913-2.756-3.937-4.509-5.767-1.654-1.726-4.121-2.6-6.667-.691a6.329,6.329,0,0,1-.774.479c-2,1.032-4.085.617-4.683-1.063a42.622,42.622,0,0,1-1.418-5.539c-.619-2.9-.614-5.883-1.894-8.68a22.844,22.844,0,0,1-1.781-9.145,36.558,36.558,0,0,0-.966-6.9,12.291,12.291,0,0,0-1.8-3.086c-.284.008-.573.017-.856.022-.474,1.208-.939,2.417-1.41,3.626-.878,2.271-1.679,4.556-2.659,6.8-1.275,2.893-2.676,5.748-4.05,8.617-1.318,2.794-2.819,5.547-3.969,8.375-1.258,3.086-2.282,6.23-3.276,9.371a5.907,5.907,0,0,1-3.978,4.253c-1.555.562-3.353.228-4.1-.887a7.491,7.491,0,0,1-1.184-3.072c-.581-3.876-.892-7.766-1.577-11.65-.212-1.187,0-2.607-2.01-3.736a7.111,7.111,0,0,0-.628,1.225c-.969,3.571-1.776,7.166-2.9,10.706a33.661,33.661,0,0,1-2.808,6.1c-.663,1.189-2.042,2.186-2.654,3.389-1.324,2.574-2.145,5.277-3.571,7.816-.895,1.6-2.42,3.059-5.586,3.529-.041-.54-.1-.972-.1-1.39.017-2.5-1.3-4.694-4.482-6.3-1.208-.608-1.343-.955-.683-1.748,2.651-3.163,1.877-7.171-1.731-9.779-2.161-1.555-4.347-1.638-6.029-.047a17.982,17.982,0,0,0-2.436,3.246,32.678,32.678,0,0,1-3.045,4.5,6.417,6.417,0,0,1-3.6,1.456,3.644,3.644,0,0,1-3.48-1.836,12.09,12.09,0,0,1-1.479-3.661c-.482-2.428-.6-4.862-1.109-7.279a12.609,12.609,0,0,0-1.564-2.97c-2.232.531-3.119,1.437-3.477,2.563-.427,1.363-.562,2.78-1.049,4.135a43.156,43.156,0,0,1-3.1,7.661c-1.109,1.905-3.268,3.414-6.582,4.025a4.774,4.774,0,0,1-3.983-.969,1.683,1.683,0,0,1-.617-2.486,19.743,19.743,0,0,0,3.3-10.34,4.843,4.843,0,0,0-2.249-4.231c-1.159-.8-1.107-1.525-.526-2.318.564-.774,1.346-1.481,1.839-2.279a31.681,31.681,0,0,0,2.114-3.986c.361-.856-.294-1.666-1.525-2.1-1.96-.685-2.274-1.682-2.07-2.9a49.237,49.237,0,0,0,.768-5.4c.115-1.891-2.489-3.884-5.25-4.24a4.082,4.082,0,0,0-4.586,2.7.8.8,0,0,0-.1.234,32.824,32.824,0,0,1-5.228,10.946,35.638,35.638,0,0,1-3.551,4.474c-.967,1.027-2.274.895-3.345-.2a2.709,2.709,0,0,1-.79-1.126,35.837,35.837,0,0,1-1.178-6.04,11.207,11.207,0,0,0-2.7-6.841c-2.029-2.453-3.045-4.964-2.365-7.678a21.354,21.354,0,0,0,.6-5.28c-.008-1.388-.019-2.885-1.922-4.14a3.509,3.509,0,0,0-.443.52q-3.114,6.508-6.227,13.01c-1.451,3.017-3,6.01-4.353,9.046-1.145,2.577-2.106,5.2-3.089,7.81-.749,1.963-1.354,3.961-3.433,5.522-.862.639-1.927,1.343-3.257.76a3.587,3.587,0,0,1-2.015-2.029c-.479-2.541-.5-5.093-.95-7.645a25.859,25.859,0,0,0-1.7-5.5c-.256-.619-1.335-1.132-2.045-1.693-.545.606-1.448,1.162-1.6,1.828-.7,2.954-1.038,5.963-1.8,8.9a46.472,46.472,0,0,1-2.5,6.538,1.981,1.981,0,0,1-1.4.809,3.431,3.431,0,0,1-1.864-1.082,40.047,40.047,0,0,1-1.707-3.777c-.653-1.412-.774-2.981-3.078-4.074a5.166,5.166,0,0,0-.542.831c-1.933,5.671-3.868,11.331-5.762,17.013a51.83,51.83,0,0,1-6.527,13.407,10.756,10.756,0,0,1-6.167,4.077,10.6,10.6,0,0,1-2.458.006c-.025-.531-.284-1.129-.025-1.58a14.145,14.145,0,0,1,1.792-2.021c1.682-1.883,3.521-3.705,4.977-5.663,1.225-1.624.418-3.174-1.743-4.476-.988-.6-1.966-1.208-2.849-1.872a25.27,25.27,0,0,1-7.972-9.721,4.152,4.152,0,0,0-3.474-2.282c-1.787-.256-3.325.135-3.981,1.175a52.354,52.354,0,0,0-2.676,5.118c-1.12,2.285-2.087,4.617-3.32,6.874-.848,1.542-3.1,2.348-5.112,2.076-1.709-.229-2.761.025-3.246.636v1.982a22.889,22.889,0,0,0,1.465,2.613C-1025.1,333.607-1025.4,334.555-1026.792,334.981Z" transform="translate(779.544 36.443)" fill="#44a340" fill-rule="evenodd"/>
        <path id="Path_11410" data-name="Path 11410" d="M-960.307,342.983c36.314,3.716,72.628,7.455,108.871,11.717,41.242,4.845,82.39,10.489,123.076,18.057,20.3,3.78,40.218,9.2,60.5,12.911,14.838,2.714,28.752,8.7,43.675,11.045,13.156,2.059,35.621,13.432,45.1,9.5,14.527-6.018,23.527-31.419,33.746-41.757,6.384-6.458-17.052-32.958-30.962-33.435-11.984-.407-23.348-3.149-34.481-4.435-20.562-2.376-20.3.341-17.33-15.18-1.539.311-12.581,1.9-11.863-.933a3.476,3.476,0,0,1,2-2.167c2.8-1.1,3.378-2.6,2.863-4.749-.622-2.612-1.217-5.3,1.757-7.441.443-.319.11-1.357-.363-1.9a4.569,4.569,0,0,0-2.3-.842,19.329,19.329,0,0,0-2.959.016c-1.718.03-2.811-.5-2.94-1.654-.14-1.175.042-2.351-.157-3.521-.487-2.987-2.037-5.687-6.092-7.648-1.255-.611-2.448-.724-3.229.069a36.555,36.555,0,0,0-2.425,3.094c-2.412,3-4.865,5.919-11.229,5.847-2.734-.033-3.474.578-3.513,2.387a31.432,31.432,0,0,0,.2,3.9c.149,1.638-.518,2.9-2.937,3.538a4.164,4.164,0,0,0-1.908.983c-1.448,1.644-2.767,3.334-4.05,5.032-.933,1.231-1.715,2.591-3.752,3.125a76.6,76.6,0,0,1-9.539,2.032c-1.924.248-2.263.818-2.345,1.875-.226,3.2,1.63,6.1,4.127,8.911,1.9,2.147,1.784,2.409-1.385,3.447a5.691,5.691,0,0,1-1.159.311c-2.748.273-5.492.589-8.273.763-1.393.088-2.491.388-2.577,1.288a8.885,8.885,0,0,0,.171,4.193,39.913,39.913,0,0,0,3.138,5.365c.76,1.294,1.454,2.56.416,3.879-2.268,2.866-5.974,4.851-9.555,6.913a2.838,2.838,0,0,1-1.844-.085c-2.99-2.618-6.125-5.288-6.979-8.479-.983-3.7-1.872-7.43-1.385-11.152a16.778,16.778,0,0,0-.325-4.966c-.088-.49-1.038-.966-1.594-1.448-.581.363-1.412.639-1.7,1.09-1.255,1.988-2.3,4.039-3.538,6.032-1.522,2.464-3.094,4.9-4.8,7.3a2.769,2.769,0,0,1-1.966.906,3.483,3.483,0,0,1-2.092-1.412c-.622-1.42-.793-2.9-1.266-4.339-.355-1.082-.113-2.345-2.329-3.248-1.178,2.007-2.2,3.884-3.378,5.712a9.482,9.482,0,0,1-2.194,2.5,3.241,3.241,0,0,1-4.482-.256A18.761,18.761,0,0,1-750.5,332.6c-1.459-1.96-2.594-4.022-4.27-5.9-1.589-1.776-4.014-2.714-6.635-.892a6.75,6.75,0,0,1-.8.46c-2.042.972-4.107.493-4.639-1.2a43.393,43.393,0,0,1-1.192-5.578c-.5-2.918-.372-5.9-1.539-8.732a22.821,22.821,0,0,1-1.393-9.192,36.606,36.606,0,0,0-.688-6.929,12.152,12.152,0,0,0-1.666-3.138c-.292,0-.573,0-.865,0-.515,1.192-1.038,2.384-1.553,3.579-.977,2.244-1.864,4.5-2.946,6.72-1.385,2.849-2.907,5.663-4.388,8.487-1.437,2.75-3.048,5.456-4.317,8.251-1.385,3.045-2.538,6.156-3.656,9.266a6.012,6.012,0,0,1-4.151,4.132c-1.58.509-3.361.127-4.052-1.008a7.376,7.376,0,0,1-1.065-3.111c-.418-3.893-.573-7.788-1.1-11.689-.16-1.195.107-2.6-1.85-3.794a7.713,7.713,0,0,0-.685,1.209c-1.118,3.535-2.065,7.105-3.331,10.61a34.34,34.34,0,0,1-3.064,6.015c-.716,1.167-2.125,2.123-2.786,3.306-1.429,2.53-2.373,5.209-3.893,7.706a7.1,7.1,0,0,1-5.732,3.353c-.016-.54-.058-.969-.033-1.388.113-2.5-1.11-4.729-4.223-6.434-1.184-.65-1.313-1-.611-1.77,2.78-3.081,2.175-7.108-1.33-9.825-2.1-1.622-4.281-1.767-6.023-.226a18.1,18.1,0,0,0-2.571,3.169,32.924,32.924,0,0,1-3.229,4.41,6.445,6.445,0,0,1-3.653,1.346,3.6,3.6,0,0,1-3.4-1.938,11.833,11.833,0,0,1-1.322-3.706c-.383-2.436-.41-4.873-.812-7.306a12.223,12.223,0,0,0-1.445-3.012c-2.255.46-3.174,1.338-3.571,2.456-.482,1.346-.685,2.764-1.217,4.1a44.211,44.211,0,0,1-3.417,7.565c-1.195,1.869-3.414,3.315-6.745,3.827a4.759,4.759,0,0,1-3.95-1.093,1.672,1.672,0,0,1-.515-2.5,19.9,19.9,0,0,0,3.73-10.235,4.775,4.775,0,0,0-2.07-4.295c-1.129-.837-1.049-1.561-.432-2.332s1.409-1.443,1.93-2.227a31.669,31.669,0,0,0,2.274-3.92c.4-.842-.226-1.674-1.434-2.139-1.933-.738-2.208-1.748-1.949-2.959a50.045,50.045,0,0,0,.991-5.365c.19-1.889-2.323-3.959-5.082-4.4a4.128,4.128,0,0,0-4.688,2.563,1.505,1.505,0,0,0-.1.229,33.359,33.359,0,0,1-5.666,10.783,36.5,36.5,0,0,1-3.741,4.363c-1,1-2.313.826-3.337-.3a2.685,2.685,0,0,1-.74-1.151,36.3,36.3,0,0,1-.936-6.07,11.018,11.018,0,0,0-2.406-6.918c-1.93-2.513-2.838-5.052-2.059-7.741a21.371,21.371,0,0,0,.826-5.261c.044-1.388.1-2.885-1.745-4.2a3.651,3.651,0,0,0-.465.509c-2.266,4.273-4.509,8.545-6.764,12.812-1.569,2.973-3.24,5.919-4.721,8.914-1.25,2.538-2.312,5.129-3.408,7.708-.832,1.941-1.517,3.923-3.659,5.415-.881.619-1.979,1.286-3.281.666a3.538,3.538,0,0,1-1.935-2.09c-.38-2.555-.284-5.107-.628-7.667a26.209,26.209,0,0,0-1.47-5.547c-.231-.628-1.288-1.173-1.971-1.754-.581.589-1.5,1.115-1.685,1.778-.826,2.932-1.286,5.927-2.169,8.845a48.158,48.158,0,0,1-2.767,6.458,2.012,2.012,0,0,1-1.423.768,3.438,3.438,0,0,1-1.823-1.142,40.479,40.479,0,0,1-1.55-3.827c-.586-1.429-.65-3-2.91-4.162a5.3,5.3,0,0,0-.573.818c-2.167,5.608-4.336,11.207-6.453,16.826a52.587,52.587,0,0,1-7.08,13.2A10.862,10.862,0,0,1-960.307,342.983Z" transform="translate(896.846 58.709)" fill="#44a340" fill-rule="evenodd"/>
        <path id="Path_11411" data-name="Path 11411" d="M-975.668,315.529q23.876,2.507,47.777,4.936a2.048,2.048,0,0,1,.074-1.3,13.826,13.826,0,0,1,1.866-1.966c1.759-1.831,3.667-3.6,5.208-5.509,1.291-1.588.545-3.16-1.555-4.529-.966-.625-1.916-1.269-2.778-1.955a24.909,24.909,0,0,1-7.562-9.955,4.085,4.085,0,0,0-3.381-2.384c-1.77-.306-3.325.033-4.027,1.052a53.4,53.4,0,0,0-2.877,5.038c-1.217,2.249-2.282,4.548-3.609,6.769-.9,1.517-3.185,2.252-5.195,1.922-2.756-.451-4.052.27-3.527,2.114a16.012,16.012,0,0,0,1.539,3.059c.611,1.137.272,2.076-1.137,2.458a4.187,4.187,0,0,1-3.686-.721,12.629,12.629,0,0,1-4.994-7.741c-.757-2.739-1.134-5.506-1.806-8.253a40.771,40.771,0,0,0-1.42-4.039l-.578-.143c-.435.347-1.087.647-1.283,1.054-.818,1.77-1.39,3.612-2.3,5.357a38.323,38.323,0,0,1-2.871,4.391c-.908,1.288-2.045,2.505-2.882,3.818-1.272,1.99-2.461,4.011-3.675,6.021C-978.786,315.191-977.223,315.37-975.668,315.529Z" transform="translate(861.725 80.946)" fill="#44a340" fill-rule="evenodd"/>
        <path id="Path_11412" data-name="Path 11412" d="M-1018.811,342.206c31.651,1.888,63.158,6.065,94.542,9.657a6.028,6.028,0,0,0-1.734-3.8c-3.279-3.549-5.286-7.262-5.707-11.243-.1-1.013-.933-1.572-2.293-1.737a12.59,12.59,0,0,0-3.265-.006c-1.935.281-3.771.779-5.7,1.087-1.668.267-2.04-.05-2.271-1.151-.76-3.645-1.509-7.284-2.5-10.916-1.082-3.937-2.227-7.843-1.145-11.733a11.312,11.312,0,0,0,.322-3.615,5.666,5.666,0,0,0-.84-2.524,1.778,1.778,0,0,0-2.932-.33,18.49,18.49,0,0,0-2.612,3.694c-1.9,3.854-3.554,7.777-5.456,11.634-1,2.029-3.6,2.571-6.792,1.63-3.114-.919-3.76-2.637-1.5-4.03a13.116,13.116,0,0,1,1.321-.768c2.775-1.313,3.356-3.1,2.032-5.313-.369-.622-.7-1.25-1.046-1.877-1.58-2.786-3.35-5.63-2.789-8.5.476-2.384-.361-4.564-1.652-6.813-1.4-2.42-2.073-4.8.361-6.926a1.545,1.545,0,0,0,.487-1.36,27.606,27.606,0,0,0-1.261-5.195c-1.176-3.009-2.772-5.979-1.781-9.032a.924.924,0,0,0-.022-.834A3.254,3.254,0,0,0-974.5,271a2.556,2.556,0,0,0-1.765.515,2.208,2.208,0,0,0-.815,1.632c.394,4.3-2.412,7.824-5,11.375-2,2.731-3.722,5.495-3.8,8.686a2.433,2.433,0,0,1-.688,1.44,1.859,1.859,0,0,1-1.289.606,2.063,2.063,0,0,1-1.263-.82c-.694-1.189-1.25-2.409-1.944-3.8-.523.267-1.2.429-1.434.754a13.477,13.477,0,0,0-1.831,3.042c-1.492,4.039-2.351,8.22-5.228,11.92a5.753,5.753,0,0,0-.421.908c-.928,1.657-1.839,3.317-2.805,4.964-1.715,2.926-3.642,5.787-5.164,8.768-1.6,3.127-2.654,6.406-4.267,9.528-1.544,3.006-3.232,6-6.629,8.328-.485.325-.424,1.082-.366,1.649A10.821,10.821,0,0,0-1018.811,342.206Z" transform="translate(793.529 42.758)" fill="#44a340" fill-rule="evenodd"/>
        <path id="Path_11413" data-name="Path 11413" d="M-976.868,308.256q9.394.987,18.8,1.944c-.4-.281-.823-.545-1.195-.837a24.907,24.907,0,0,1-7.56-9.957,4.1,4.1,0,0,0-3.375-2.387c-1.784-.306-3.328.036-4.031,1.054a51.7,51.7,0,0,0-2.877,5.038c-.873,1.6-1.693,3.232-2.555,4.842C-978.732,308.052-977.8,308.16-976.868,308.256Z" transform="translate(862.926 88.22)" fill="#44a340" fill-rule="evenodd"/>
        <path id="Path_11414" data-name="Path 11414" d="M-1026.953,333.929c23.3.146,46.514,1.99,69.663,4.435-.7-3.381-1.412-6.753-2.332-10.12-1.079-3.937-2.222-7.843-1.145-11.733a11.314,11.314,0,0,0,.325-3.615,5.743,5.743,0,0,0-.84-2.522,1.778,1.778,0,0,0-2.935-.33,18.169,18.169,0,0,0-2.61,3.692c-1.9,3.857-3.554,7.777-5.456,11.631-1,2.032-3.6,2.577-6.8,1.632-3.105-.917-3.75-2.634-1.492-4.03a13.159,13.159,0,0,1,1.322-.768c2.764-1.316,3.353-3.1,2.034-5.316-.375-.619-.7-1.244-1.06-1.875-1.569-2.783-3.345-5.63-2.778-8.5.465-2.384-.364-4.564-1.652-6.811-1.4-2.422-2.07-4.8.352-6.932a1.512,1.512,0,0,0,.493-1.357,28.412,28.412,0,0,0-1.258-5.2c-1.176-3.006-2.772-5.979-1.781-9.03a.924.924,0,0,0-.025-.834,3.216,3.216,0,0,0-1.451-1.2c-2.475-.68-8.355,19.444-11.474,22.324-7.9,7.281-22.916,3.722-30.379,12.4-6.855,7.973-.187,13.525,1.063,21.569A18.575,18.575,0,0,1-1026.953,333.929Z" transform="translate(772.429 50.041)" fill="#44a340" fill-rule="evenodd"/>
        <path id="Path_11415" data-name="Path 11415" d="M-1131.865,291.275c12.906.719,25.814,1.376,38.734,1.888,14.228.564,28.521.746,42.825.79C-1078.549,292.624-1105.9,291.7-1131.865,291.275Z" transform="translate(596.114 78.34)" fill="#44a340"/>
      </g>
      <g id="Group_4296" data-name="Group 4296" transform="translate(0 45)">
        <path id="Path_11399" data-name="Path 11399" d="M1286.738,640.1v77.86H-723.129V544.128c46.337-3.193,109.009-7.108,183.627-10.889,150.964-7.594,350.718-14.5,562.865-13.125,194.084,1.307,398.5,9.588,585.346,30.647C1028.9,598.143,1212.568,626.732,1286.738,640.1Z" transform="translate(723.129 2923.836)" fill="#4ba847"/>
        <path id="Path_11398" data-name="Path 11398" d="M1171.172,613.67v511.552h-1923V679.686s5.516,1.283,15.961,3.592c63.7,14.137,310.885,66.734,611.435,101.679,293,34.073,636.733,51.417,910.622,0,.411-.077.847-.151,1.257-.231,57.7-10.879,112.3-24.811,162.638-42.309q25.789-8.925,49.98-19.14c1.668-.69,3.284-1.386,4.929-2.076C1070.445,693.027,1126.865,657.621,1171.172,613.67Z" transform="translate(751.828 2778.158)" fill="#4baf47"/>
        <path id="Path_11400" data-name="Path 11400" d="M1168.172,581.68v592.7h-1920V1022.806c749.94,47.778,1209-23.949,1489.073-122.552q40.962-14.41,76.926-29.511Q843.3,858.562,869.323,846.1q11.989-5.722,23.314-11.451c26.1-13.218,49.8-26.565,71.264-39.835q17.714-10.913,33.43-21.749c1.127-.768,2.229-1.537,3.333-2.3C1101.67,700.648,1143.451,635.6,1159.36,603.2,1166.071,589.544,1168.172,581.68,1168.172,581.68Z" transform="translate(751.828 2819.988)" fill="#4da849"/>
      </g>
    </g>
  </g>
</svg>
