<svg xmlns="http://www.w3.org/2000/svg" width="256" height="381" viewBox="0 0 256 381">
  <g id="Group_150" data-name="Group 150" transform="translate(-1235.98 -4436.615)" opacity="0.541">
    <ellipse id="Ellipse_3" data-name="Ellipse 3" cx="4" cy="4.5" rx="4" ry="4.5" transform="translate(1235.98 4436.615)" fill="#53b84f"/>
    <ellipse id="Ellipse_141" data-name="Ellipse 141" cx="4" cy="4.5" rx="4" ry="4.5" transform="translate(1235.98 4585.615)" fill="#53b84f"/>
    <circle id="Ellipse_51" data-name="Ellipse 51" cx="4.5" cy="4.5" r="4.5" transform="translate(1433.98 4436.615)" fill="#53b84f"/>
    <circle id="Ellipse_142" data-name="Ellipse 142" cx="4.5" cy="4.5" r="4.5" transform="translate(1433.98 4585.615)" fill="#53b84f"/>
    <ellipse id="Ellipse_27" data-name="Ellipse 27" cx="4" cy="4.5" rx="4" ry="4.5" transform="translate(1235.98 4510.615)" fill="#53b84f"/>
    <ellipse id="Ellipse_99" data-name="Ellipse 99" cx="4" cy="4.5" rx="4" ry="4.5" transform="translate(1235.98 4659.615)" fill="#53b84f"/>
    <ellipse id="Ellipse_157" data-name="Ellipse 157" cx="4" cy="4.5" rx="4" ry="4.5" transform="translate(1235.98 4759.615)" fill="#53b84f"/>
    <circle id="Ellipse_55" data-name="Ellipse 55" cx="4.5" cy="4.5" r="4.5" transform="translate(1433.98 4510.615)" fill="#53b84f"/>
    <circle id="Ellipse_123" data-name="Ellipse 123" cx="4.5" cy="4.5" r="4.5" transform="translate(1433.98 4659.615)" fill="#53b84f"/>
    <circle id="Ellipse_189" data-name="Ellipse 189" cx="4.5" cy="4.5" r="4.5" transform="translate(1433.98 4759.615)" fill="#53b84f"/>
    <circle id="Ellipse_11" data-name="Ellipse 11" cx="4" cy="4" r="4" transform="translate(1235.98 4461.615)" fill="#53b84f"/>
    <ellipse id="Ellipse_127" data-name="Ellipse 127" cx="4" cy="4.5" rx="4" ry="4.5" transform="translate(1235.98 4610.615)" fill="#53b84f"/>
    <ellipse id="Ellipse_52" data-name="Ellipse 52" cx="4.5" cy="4" rx="4.5" ry="4" transform="translate(1433.98 4461.615)" fill="#53b84f"/>
    <circle id="Ellipse_128" data-name="Ellipse 128" cx="4.5" cy="4.5" r="4.5" transform="translate(1433.98 4610.615)" fill="#53b84f"/>
    <ellipse id="Ellipse_28" data-name="Ellipse 28" cx="4" cy="4.5" rx="4" ry="4.5" transform="translate(1235.98 4535.615)" fill="#53b84f"/>
    <ellipse id="Ellipse_93" data-name="Ellipse 93" cx="4" cy="5" rx="4" ry="5" transform="translate(1235.98 4684.615)" fill="#53b84f"/>
    <ellipse id="Ellipse_159" data-name="Ellipse 159" cx="4" cy="4.5" rx="4" ry="4.5" transform="translate(1235.98 4784.615)" fill="#53b84f"/>
    <circle id="Ellipse_67" data-name="Ellipse 67" cx="4.5" cy="4.5" r="4.5" transform="translate(1433.98 4535.615)" fill="#53b84f"/>
    <ellipse id="Ellipse_124" data-name="Ellipse 124" cx="4.5" cy="5" rx="4.5" ry="5" transform="translate(1433.98 4684.615)" fill="#53b84f"/>
    <circle id="Ellipse_190" data-name="Ellipse 190" cx="4.5" cy="4.5" r="4.5" transform="translate(1433.98 4784.615)" fill="#53b84f"/>
    <ellipse id="Ellipse_19" data-name="Ellipse 19" cx="4" cy="4.5" rx="4" ry="4.5" transform="translate(1235.98 4485.615)" fill="#53b84f"/>
    <ellipse id="Ellipse_112" data-name="Ellipse 112" cx="4" cy="4.5" rx="4" ry="4.5" transform="translate(1235.98 4634.615)" fill="#53b84f"/>
    <ellipse id="Ellipse_158" data-name="Ellipse 158" cx="4" cy="4.5" rx="4" ry="4.5" transform="translate(1235.98 4734.615)" fill="#53b84f"/>
    <circle id="Ellipse_56" data-name="Ellipse 56" cx="4.5" cy="4.5" r="4.5" transform="translate(1433.98 4485.615)" fill="#53b84f"/>
    <circle id="Ellipse_125" data-name="Ellipse 125" cx="4.5" cy="4.5" r="4.5" transform="translate(1433.98 4634.615)" fill="#53b84f"/>
    <circle id="Ellipse_191" data-name="Ellipse 191" cx="4.5" cy="4.5" r="4.5" transform="translate(1433.98 4734.615)" fill="#53b84f"/>
    <circle id="Ellipse_29" data-name="Ellipse 29" cx="4" cy="4" r="4" transform="translate(1235.98 4559.615)" fill="#53b84f"/>
    <ellipse id="Ellipse_91" data-name="Ellipse 91" cx="4" cy="4.5" rx="4" ry="4.5" transform="translate(1235.98 4709.615)" fill="#53b84f"/>
    <ellipse id="Ellipse_172" data-name="Ellipse 172" cx="4" cy="4.5" rx="4" ry="4.5" transform="translate(1235.98 4808.615)" fill="#53b84f"/>
    <ellipse id="Ellipse_86" data-name="Ellipse 86" cx="4.5" cy="4" rx="4.5" ry="4" transform="translate(1433.98 4559.615)" fill="#53b84f"/>
    <circle id="Ellipse_126" data-name="Ellipse 126" cx="4.5" cy="4.5" r="4.5" transform="translate(1433.98 4709.615)" fill="#53b84f"/>
    <circle id="Ellipse_192" data-name="Ellipse 192" cx="4.5" cy="4.5" r="4.5" transform="translate(1433.98 4808.615)" fill="#53b84f"/>
    <circle id="Ellipse_6" data-name="Ellipse 6" cx="4.5" cy="4.5" r="4.5" transform="translate(1283.98 4436.615)" fill="#53b84f"/>
    <circle id="Ellipse_143" data-name="Ellipse 143" cx="4.5" cy="4.5" r="4.5" transform="translate(1283.98 4585.615)" fill="#53b84f"/>
    <circle id="Ellipse_57" data-name="Ellipse 57" cx="4.5" cy="4.5" r="4.5" transform="translate(1482.98 4436.615)" fill="#53b84f"/>
    <circle id="Ellipse_151" data-name="Ellipse 151" cx="4.5" cy="4.5" r="4.5" transform="translate(1482.98 4585.615)" fill="#53b84f"/>
    <circle id="Ellipse_30" data-name="Ellipse 30" cx="4.5" cy="4.5" r="4.5" transform="translate(1283.98 4510.615)" fill="#53b84f"/>
    <circle id="Ellipse_100" data-name="Ellipse 100" cx="4.5" cy="4.5" r="4.5" transform="translate(1283.98 4659.615)" fill="#53b84f"/>
    <circle id="Ellipse_160" data-name="Ellipse 160" cx="4.5" cy="4.5" r="4.5" transform="translate(1283.98 4759.615)" fill="#53b84f"/>
    <circle id="Ellipse_58" data-name="Ellipse 58" cx="4.5" cy="4.5" r="4.5" transform="translate(1482.98 4510.615)" fill="#53b84f"/>
    <circle id="Ellipse_152" data-name="Ellipse 152" cx="4.5" cy="4.5" r="4.5" transform="translate(1482.98 4659.615)" fill="#53b84f"/>
    <circle id="Ellipse_193" data-name="Ellipse 193" cx="4.5" cy="4.5" r="4.5" transform="translate(1482.98 4759.615)" fill="#53b84f"/>
    <ellipse id="Ellipse_12" data-name="Ellipse 12" cx="4.5" cy="4" rx="4.5" ry="4" transform="translate(1283.98 4461.615)" fill="#53b84f"/>
    <circle id="Ellipse_129" data-name="Ellipse 129" cx="4.5" cy="4.5" r="4.5" transform="translate(1283.98 4610.615)" fill="#53b84f"/>
    <ellipse id="Ellipse_59" data-name="Ellipse 59" cx="4.5" cy="4" rx="4.5" ry="4" transform="translate(1482.98 4461.615)" fill="#53b84f"/>
    <circle id="Ellipse_153" data-name="Ellipse 153" cx="4.5" cy="4.5" r="4.5" transform="translate(1482.98 4610.615)" fill="#53b84f"/>
    <circle id="Ellipse_31" data-name="Ellipse 31" cx="4.5" cy="4.5" r="4.5" transform="translate(1283.98 4535.615)" fill="#53b84f"/>
    <ellipse id="Ellipse_94" data-name="Ellipse 94" cx="4.5" cy="5" rx="4.5" ry="5" transform="translate(1283.98 4684.615)" fill="#53b84f"/>
    <circle id="Ellipse_161" data-name="Ellipse 161" cx="4.5" cy="4.5" r="4.5" transform="translate(1283.98 4784.615)" fill="#53b84f"/>
    <circle id="Ellipse_68" data-name="Ellipse 68" cx="4.5" cy="4.5" r="4.5" transform="translate(1482.98 4535.615)" fill="#53b84f"/>
    <ellipse id="Ellipse_154" data-name="Ellipse 154" cx="4.5" cy="5" rx="4.5" ry="5" transform="translate(1482.98 4684.615)" fill="#53b84f"/>
    <circle id="Ellipse_194" data-name="Ellipse 194" cx="4.5" cy="4.5" r="4.5" transform="translate(1482.98 4784.615)" fill="#53b84f"/>
    <circle id="Ellipse_20" data-name="Ellipse 20" cx="4.5" cy="4.5" r="4.5" transform="translate(1283.98 4485.615)" fill="#53b84f"/>
    <circle id="Ellipse_113" data-name="Ellipse 113" cx="4.5" cy="4.5" r="4.5" transform="translate(1283.98 4634.615)" fill="#53b84f"/>
    <circle id="Ellipse_162" data-name="Ellipse 162" cx="4.5" cy="4.5" r="4.5" transform="translate(1283.98 4734.615)" fill="#53b84f"/>
    <circle id="Ellipse_60" data-name="Ellipse 60" cx="4.5" cy="4.5" r="4.5" transform="translate(1482.98 4485.615)" fill="#53b84f"/>
    <circle id="Ellipse_155" data-name="Ellipse 155" cx="4.5" cy="4.5" r="4.5" transform="translate(1482.98 4634.615)" fill="#53b84f"/>
    <circle id="Ellipse_195" data-name="Ellipse 195" cx="4.5" cy="4.5" r="4.5" transform="translate(1482.98 4734.615)" fill="#53b84f"/>
    <ellipse id="Ellipse_32" data-name="Ellipse 32" cx="4.5" cy="4" rx="4.5" ry="4" transform="translate(1283.98 4559.615)" fill="#53b84f"/>
    <circle id="Ellipse_95" data-name="Ellipse 95" cx="4.5" cy="4.5" r="4.5" transform="translate(1283.98 4709.615)" fill="#53b84f"/>
    <circle id="Ellipse_173" data-name="Ellipse 173" cx="4.5" cy="4.5" r="4.5" transform="translate(1283.98 4808.615)" fill="#53b84f"/>
    <ellipse id="Ellipse_87" data-name="Ellipse 87" cx="4.5" cy="4" rx="4.5" ry="4" transform="translate(1482.98 4559.615)" fill="#53b84f"/>
    <circle id="Ellipse_156" data-name="Ellipse 156" cx="4.5" cy="4.5" r="4.5" transform="translate(1482.98 4709.615)" fill="#53b84f"/>
    <circle id="Ellipse_196" data-name="Ellipse 196" cx="4.5" cy="4.5" r="4.5" transform="translate(1482.98 4808.615)" fill="#53b84f"/>
    <ellipse id="Ellipse_8" data-name="Ellipse 8" cx="4" cy="4.5" rx="4" ry="4.5" transform="translate(1334.98 4436.615)" fill="#53b84f"/>
    <ellipse id="Ellipse_144" data-name="Ellipse 144" cx="4" cy="4.5" rx="4" ry="4.5" transform="translate(1334.98 4585.615)" fill="#53b84f"/>
    <ellipse id="Ellipse_39" data-name="Ellipse 39" cx="4" cy="4.5" rx="4" ry="4.5" transform="translate(1334.98 4510.615)" fill="#53b84f"/>
    <ellipse id="Ellipse_101" data-name="Ellipse 101" cx="4" cy="4.5" rx="4" ry="4.5" transform="translate(1334.98 4659.615)" fill="#53b84f"/>
    <ellipse id="Ellipse_166" data-name="Ellipse 166" cx="4" cy="4.5" rx="4" ry="4.5" transform="translate(1334.98 4759.615)" fill="#53b84f"/>
    <circle id="Ellipse_13" data-name="Ellipse 13" cx="4" cy="4" r="4" transform="translate(1334.98 4461.615)" fill="#53b84f"/>
    <ellipse id="Ellipse_130" data-name="Ellipse 130" cx="4" cy="4.5" rx="4" ry="4.5" transform="translate(1334.98 4610.615)" fill="#53b84f"/>
    <ellipse id="Ellipse_40" data-name="Ellipse 40" cx="4" cy="4.5" rx="4" ry="4.5" transform="translate(1334.98 4535.615)" fill="#53b84f"/>
    <ellipse id="Ellipse_102" data-name="Ellipse 102" cx="4" cy="5" rx="4" ry="5" transform="translate(1334.98 4684.615)" fill="#53b84f"/>
    <ellipse id="Ellipse_167" data-name="Ellipse 167" cx="4" cy="4.5" rx="4" ry="4.5" transform="translate(1334.98 4784.615)" fill="#53b84f"/>
    <ellipse id="Ellipse_21" data-name="Ellipse 21" cx="4" cy="4.5" rx="4" ry="4.5" transform="translate(1334.98 4485.615)" fill="#53b84f"/>
    <ellipse id="Ellipse_114" data-name="Ellipse 114" cx="4" cy="4.5" rx="4" ry="4.5" transform="translate(1334.98 4634.615)" fill="#53b84f"/>
    <ellipse id="Ellipse_168" data-name="Ellipse 168" cx="4" cy="4.5" rx="4" ry="4.5" transform="translate(1334.98 4734.615)" fill="#53b84f"/>
    <circle id="Ellipse_41" data-name="Ellipse 41" cx="4" cy="4" r="4" transform="translate(1334.98 4559.615)" fill="#53b84f"/>
    <ellipse id="Ellipse_103" data-name="Ellipse 103" cx="4" cy="4.5" rx="4" ry="4.5" transform="translate(1334.98 4709.615)" fill="#53b84f"/>
    <ellipse id="Ellipse_174" data-name="Ellipse 174" cx="4" cy="4.5" rx="4" ry="4.5" transform="translate(1334.98 4808.615)" fill="#53b84f"/>
    <circle id="Ellipse_10" data-name="Ellipse 10" cx="4.5" cy="4.5" r="4.5" transform="translate(1383.98 4436.615)" fill="#53b84f"/>
    <circle id="Ellipse_145" data-name="Ellipse 145" cx="4.5" cy="4.5" r="4.5" transform="translate(1383.98 4585.615)" fill="#53b84f"/>
    <circle id="Ellipse_45" data-name="Ellipse 45" cx="4.5" cy="4.5" r="4.5" transform="translate(1383.98 4510.615)" fill="#53b84f"/>
    <circle id="Ellipse_109" data-name="Ellipse 109" cx="4.5" cy="4.5" r="4.5" transform="translate(1383.98 4659.615)" fill="#53b84f"/>
    <circle id="Ellipse_181" data-name="Ellipse 181" cx="4.5" cy="4.5" r="4.5" transform="translate(1383.98 4759.615)" fill="#53b84f"/>
    <ellipse id="Ellipse_14" data-name="Ellipse 14" cx="4.5" cy="4" rx="4.5" ry="4" transform="translate(1383.98 4461.615)" fill="#53b84f"/>
    <circle id="Ellipse_131" data-name="Ellipse 131" cx="4.5" cy="4.5" r="4.5" transform="translate(1383.98 4610.615)" fill="#53b84f"/>
    <circle id="Ellipse_46" data-name="Ellipse 46" cx="4.5" cy="4.5" r="4.5" transform="translate(1383.98 4535.615)" fill="#53b84f"/>
    <ellipse id="Ellipse_110" data-name="Ellipse 110" cx="4.5" cy="5" rx="4.5" ry="5" transform="translate(1383.98 4684.615)" fill="#53b84f"/>
    <circle id="Ellipse_182" data-name="Ellipse 182" cx="4.5" cy="4.5" r="4.5" transform="translate(1383.98 4784.615)" fill="#53b84f"/>
    <circle id="Ellipse_22" data-name="Ellipse 22" cx="4.5" cy="4.5" r="4.5" transform="translate(1383.98 4485.615)" fill="#53b84f"/>
    <circle id="Ellipse_115" data-name="Ellipse 115" cx="4.5" cy="4.5" r="4.5" transform="translate(1383.98 4634.615)" fill="#53b84f"/>
    <circle id="Ellipse_183" data-name="Ellipse 183" cx="4.5" cy="4.5" r="4.5" transform="translate(1383.98 4734.615)" fill="#53b84f"/>
    <ellipse id="Ellipse_47" data-name="Ellipse 47" cx="4.5" cy="4" rx="4.5" ry="4" transform="translate(1383.98 4559.615)" fill="#53b84f"/>
    <circle id="Ellipse_111" data-name="Ellipse 111" cx="4.5" cy="4.5" r="4.5" transform="translate(1383.98 4709.615)" fill="#53b84f"/>
    <circle id="Ellipse_184" data-name="Ellipse 184" cx="4.5" cy="4.5" r="4.5" transform="translate(1383.98 4808.615)" fill="#53b84f"/>
    <ellipse id="Ellipse_4" data-name="Ellipse 4" cx="4" cy="4.5" rx="4" ry="4.5" transform="translate(1260.98 4436.615)" fill="#53b84f"/>
    <ellipse id="Ellipse_146" data-name="Ellipse 146" cx="4" cy="4.5" rx="4" ry="4.5" transform="translate(1260.98 4585.615)" fill="#53b84f"/>
    <ellipse id="Ellipse_53" data-name="Ellipse 53" cx="4" cy="4.5" rx="4" ry="4.5" transform="translate(1458.98 4436.615)" fill="#53b84f"/>
    <ellipse id="Ellipse_147" data-name="Ellipse 147" cx="4" cy="4.5" rx="4" ry="4.5" transform="translate(1458.98 4585.615)" fill="#53b84f"/>
    <ellipse id="Ellipse_33" data-name="Ellipse 33" cx="4" cy="4.5" rx="4" ry="4.5" transform="translate(1260.98 4510.615)" fill="#53b84f"/>
    <ellipse id="Ellipse_104" data-name="Ellipse 104" cx="4" cy="4.5" rx="4" ry="4.5" transform="translate(1260.98 4659.615)" fill="#53b84f"/>
    <ellipse id="Ellipse_163" data-name="Ellipse 163" cx="4" cy="4.5" rx="4" ry="4.5" transform="translate(1260.98 4759.615)" fill="#53b84f"/>
    <ellipse id="Ellipse_61" data-name="Ellipse 61" cx="4" cy="4.5" rx="4" ry="4.5" transform="translate(1458.98 4510.615)" fill="#53b84f"/>
    <ellipse id="Ellipse_136" data-name="Ellipse 136" cx="4" cy="4.5" rx="4" ry="4.5" transform="translate(1458.98 4659.615)" fill="#53b84f"/>
    <ellipse id="Ellipse_197" data-name="Ellipse 197" cx="4" cy="4.5" rx="4" ry="4.5" transform="translate(1458.98 4759.615)" fill="#53b84f"/>
    <circle id="Ellipse_15" data-name="Ellipse 15" cx="4" cy="4" r="4" transform="translate(1260.98 4461.615)" fill="#53b84f"/>
    <ellipse id="Ellipse_132" data-name="Ellipse 132" cx="4" cy="4.5" rx="4" ry="4.5" transform="translate(1260.98 4610.615)" fill="#53b84f"/>
    <circle id="Ellipse_54" data-name="Ellipse 54" cx="4" cy="4" r="4" transform="translate(1458.98 4461.615)" fill="#53b84f"/>
    <ellipse id="Ellipse_137" data-name="Ellipse 137" cx="4" cy="4.5" rx="4" ry="4.5" transform="translate(1458.98 4610.615)" fill="#53b84f"/>
    <ellipse id="Ellipse_34" data-name="Ellipse 34" cx="4" cy="4.5" rx="4" ry="4.5" transform="translate(1260.98 4535.615)" fill="#53b84f"/>
    <ellipse id="Ellipse_96" data-name="Ellipse 96" cx="4" cy="5" rx="4" ry="5" transform="translate(1260.98 4684.615)" fill="#53b84f"/>
    <ellipse id="Ellipse_164" data-name="Ellipse 164" cx="4" cy="4.5" rx="4" ry="4.5" transform="translate(1260.98 4784.615)" fill="#53b84f"/>
    <ellipse id="Ellipse_74" data-name="Ellipse 74" cx="4" cy="4.5" rx="4" ry="4.5" transform="translate(1458.98 4535.615)" fill="#53b84f"/>
    <ellipse id="Ellipse_138" data-name="Ellipse 138" cx="4" cy="5" rx="4" ry="5" transform="translate(1458.98 4684.615)" fill="#53b84f"/>
    <ellipse id="Ellipse_198" data-name="Ellipse 198" cx="4" cy="4.5" rx="4" ry="4.5" transform="translate(1458.98 4784.615)" fill="#53b84f"/>
    <ellipse id="Ellipse_23" data-name="Ellipse 23" cx="4" cy="4.5" rx="4" ry="4.5" transform="translate(1260.98 4485.615)" fill="#53b84f"/>
    <ellipse id="Ellipse_116" data-name="Ellipse 116" cx="4" cy="4.5" rx="4" ry="4.5" transform="translate(1260.98 4634.615)" fill="#53b84f"/>
    <ellipse id="Ellipse_165" data-name="Ellipse 165" cx="4" cy="4.5" rx="4" ry="4.5" transform="translate(1260.98 4734.615)" fill="#53b84f"/>
    <ellipse id="Ellipse_62" data-name="Ellipse 62" cx="4" cy="4.5" rx="4" ry="4.5" transform="translate(1458.98 4485.615)" fill="#53b84f"/>
    <ellipse id="Ellipse_139" data-name="Ellipse 139" cx="4" cy="4.5" rx="4" ry="4.5" transform="translate(1458.98 4634.615)" fill="#53b84f"/>
    <ellipse id="Ellipse_199" data-name="Ellipse 199" cx="4" cy="4.5" rx="4" ry="4.5" transform="translate(1458.98 4734.615)" fill="#53b84f"/>
    <circle id="Ellipse_35" data-name="Ellipse 35" cx="4" cy="4" r="4" transform="translate(1260.98 4559.615)" fill="#53b84f"/>
    <ellipse id="Ellipse_92" data-name="Ellipse 92" cx="4" cy="4.5" rx="4" ry="4.5" transform="translate(1260.98 4709.615)" fill="#53b84f"/>
    <ellipse id="Ellipse_175" data-name="Ellipse 175" cx="4" cy="4.5" rx="4" ry="4.5" transform="translate(1260.98 4808.615)" fill="#53b84f"/>
    <circle id="Ellipse_90" data-name="Ellipse 90" cx="4" cy="4" r="4" transform="translate(1458.98 4559.615)" fill="#53b84f"/>
    <ellipse id="Ellipse_140" data-name="Ellipse 140" cx="4" cy="4.5" rx="4" ry="4.5" transform="translate(1458.98 4709.615)" fill="#53b84f"/>
    <ellipse id="Ellipse_200" data-name="Ellipse 200" cx="4" cy="4.5" rx="4" ry="4.5" transform="translate(1458.98 4808.615)" fill="#53b84f"/>
    <circle id="Ellipse_5" data-name="Ellipse 5" cx="4.5" cy="4.5" r="4.5" transform="translate(1308.98 4436.615)" fill="#53b84f"/>
    <circle id="Ellipse_148" data-name="Ellipse 148" cx="4.5" cy="4.5" r="4.5" transform="translate(1308.98 4585.615)" fill="#53b84f"/>
    <circle id="Ellipse_36" data-name="Ellipse 36" cx="4.5" cy="4.5" r="4.5" transform="translate(1308.98 4510.615)" fill="#53b84f"/>
    <circle id="Ellipse_105" data-name="Ellipse 105" cx="4.5" cy="4.5" r="4.5" transform="translate(1308.98 4659.615)" fill="#53b84f"/>
    <circle id="Ellipse_169" data-name="Ellipse 169" cx="4.5" cy="4.5" r="4.5" transform="translate(1308.98 4759.615)" fill="#53b84f"/>
    <ellipse id="Ellipse_16" data-name="Ellipse 16" cx="4.5" cy="4" rx="4.5" ry="4" transform="translate(1308.98 4461.615)" fill="#53b84f"/>
    <circle id="Ellipse_133" data-name="Ellipse 133" cx="4.5" cy="4.5" r="4.5" transform="translate(1308.98 4610.615)" fill="#53b84f"/>
    <circle id="Ellipse_37" data-name="Ellipse 37" cx="4.5" cy="4.5" r="4.5" transform="translate(1308.98 4535.615)" fill="#53b84f"/>
    <ellipse id="Ellipse_97" data-name="Ellipse 97" cx="4.5" cy="5" rx="4.5" ry="5" transform="translate(1308.98 4684.615)" fill="#53b84f"/>
    <circle id="Ellipse_170" data-name="Ellipse 170" cx="4.5" cy="4.5" r="4.5" transform="translate(1308.98 4784.615)" fill="#53b84f"/>
    <circle id="Ellipse_24" data-name="Ellipse 24" cx="4.5" cy="4.5" r="4.5" transform="translate(1308.98 4485.615)" fill="#53b84f"/>
    <circle id="Ellipse_117" data-name="Ellipse 117" cx="4.5" cy="4.5" r="4.5" transform="translate(1308.98 4634.615)" fill="#53b84f"/>
    <circle id="Ellipse_171" data-name="Ellipse 171" cx="4.5" cy="4.5" r="4.5" transform="translate(1308.98 4734.615)" fill="#53b84f"/>
    <ellipse id="Ellipse_38" data-name="Ellipse 38" cx="4.5" cy="4" rx="4.5" ry="4" transform="translate(1308.98 4559.615)" fill="#53b84f"/>
    <circle id="Ellipse_98" data-name="Ellipse 98" cx="4.5" cy="4.5" r="4.5" transform="translate(1308.98 4709.615)" fill="#53b84f"/>
    <circle id="Ellipse_176" data-name="Ellipse 176" cx="4.5" cy="4.5" r="4.5" transform="translate(1308.98 4808.615)" fill="#53b84f"/>
    <ellipse id="Ellipse_7" data-name="Ellipse 7" cx="4" cy="4.5" rx="4" ry="4.5" transform="translate(1358.98 4436.615)" fill="#53b84f"/>
    <ellipse id="Ellipse_149" data-name="Ellipse 149" cx="4" cy="4.5" rx="4" ry="4.5" transform="translate(1358.98 4585.615)" fill="#53b84f"/>
    <ellipse id="Ellipse_42" data-name="Ellipse 42" cx="4" cy="4.5" rx="4" ry="4.5" transform="translate(1358.98 4510.615)" fill="#53b84f"/>
    <ellipse id="Ellipse_106" data-name="Ellipse 106" cx="4" cy="4.5" rx="4" ry="4.5" transform="translate(1358.98 4659.615)" fill="#53b84f"/>
    <ellipse id="Ellipse_177" data-name="Ellipse 177" cx="4" cy="4.5" rx="4" ry="4.5" transform="translate(1358.98 4759.615)" fill="#53b84f"/>
    <circle id="Ellipse_17" data-name="Ellipse 17" cx="4" cy="4" r="4" transform="translate(1358.98 4461.615)" fill="#53b84f"/>
    <ellipse id="Ellipse_134" data-name="Ellipse 134" cx="4" cy="4.5" rx="4" ry="4.5" transform="translate(1358.98 4610.615)" fill="#53b84f"/>
    <ellipse id="Ellipse_43" data-name="Ellipse 43" cx="4" cy="4.5" rx="4" ry="4.5" transform="translate(1358.98 4535.615)" fill="#53b84f"/>
    <ellipse id="Ellipse_107" data-name="Ellipse 107" cx="4" cy="5" rx="4" ry="5" transform="translate(1358.98 4684.615)" fill="#53b84f"/>
    <ellipse id="Ellipse_178" data-name="Ellipse 178" cx="4" cy="4.5" rx="4" ry="4.5" transform="translate(1358.98 4784.615)" fill="#53b84f"/>
    <ellipse id="Ellipse_25" data-name="Ellipse 25" cx="4" cy="4.5" rx="4" ry="4.5" transform="translate(1358.98 4485.615)" fill="#53b84f"/>
    <ellipse id="Ellipse_118" data-name="Ellipse 118" cx="4" cy="4.5" rx="4" ry="4.5" transform="translate(1358.98 4634.615)" fill="#53b84f"/>
    <ellipse id="Ellipse_179" data-name="Ellipse 179" cx="4" cy="4.5" rx="4" ry="4.5" transform="translate(1358.98 4734.615)" fill="#53b84f"/>
    <circle id="Ellipse_44" data-name="Ellipse 44" cx="4" cy="4" r="4" transform="translate(1358.98 4559.615)" fill="#53b84f"/>
    <ellipse id="Ellipse_108" data-name="Ellipse 108" cx="4" cy="4.5" rx="4" ry="4.5" transform="translate(1358.98 4709.615)" fill="#53b84f"/>
    <ellipse id="Ellipse_180" data-name="Ellipse 180" cx="4" cy="4.5" rx="4" ry="4.5" transform="translate(1358.98 4808.615)" fill="#53b84f"/>
    <circle id="Ellipse_9" data-name="Ellipse 9" cx="4.5" cy="4.5" r="4.5" transform="translate(1408.98 4436.615)" fill="#53b84f"/>
    <circle id="Ellipse_150" data-name="Ellipse 150" cx="4.5" cy="4.5" r="4.5" transform="translate(1408.98 4585.615)" fill="#53b84f"/>
    <circle id="Ellipse_48" data-name="Ellipse 48" cx="4.5" cy="4.5" r="4.5" transform="translate(1408.98 4510.615)" fill="#53b84f"/>
    <circle id="Ellipse_119" data-name="Ellipse 119" cx="4.5" cy="4.5" r="4.5" transform="translate(1408.98 4659.615)" fill="#53b84f"/>
    <circle id="Ellipse_185" data-name="Ellipse 185" cx="4.5" cy="4.5" r="4.5" transform="translate(1408.98 4759.615)" fill="#53b84f"/>
    <ellipse id="Ellipse_18" data-name="Ellipse 18" cx="4.5" cy="4" rx="4.5" ry="4" transform="translate(1408.98 4461.615)" fill="#53b84f"/>
    <circle id="Ellipse_135" data-name="Ellipse 135" cx="4.5" cy="4.5" r="4.5" transform="translate(1408.98 4610.615)" fill="#53b84f"/>
    <circle id="Ellipse_49" data-name="Ellipse 49" cx="4.5" cy="4.5" r="4.5" transform="translate(1408.98 4535.615)" fill="#53b84f"/>
    <ellipse id="Ellipse_120" data-name="Ellipse 120" cx="4.5" cy="5" rx="4.5" ry="5" transform="translate(1408.98 4684.615)" fill="#53b84f"/>
    <circle id="Ellipse_186" data-name="Ellipse 186" cx="4.5" cy="4.5" r="4.5" transform="translate(1408.98 4784.615)" fill="#53b84f"/>
    <circle id="Ellipse_26" data-name="Ellipse 26" cx="4.5" cy="4.5" r="4.5" transform="translate(1408.98 4485.615)" fill="#53b84f"/>
    <circle id="Ellipse_121" data-name="Ellipse 121" cx="4.5" cy="4.5" r="4.5" transform="translate(1408.98 4634.615)" fill="#53b84f"/>
    <circle id="Ellipse_187" data-name="Ellipse 187" cx="4.5" cy="4.5" r="4.5" transform="translate(1408.98 4734.615)" fill="#53b84f"/>
    <ellipse id="Ellipse_50" data-name="Ellipse 50" cx="4.5" cy="4" rx="4.5" ry="4" transform="translate(1408.98 4559.615)" fill="#53b84f"/>
    <circle id="Ellipse_122" data-name="Ellipse 122" cx="4.5" cy="4.5" r="4.5" transform="translate(1408.98 4709.615)" fill="#53b84f"/>
    <circle id="Ellipse_188" data-name="Ellipse 188" cx="4.5" cy="4.5" r="4.5" transform="translate(1408.98 4808.615)" fill="#53b84f"/>
  </g>
</svg>
