<svg xmlns="http://www.w3.org/2000/svg" width="2423.365" height="157.786" viewBox="0 0 2423.365 157.786">
  <g id="Group_149" data-name="Group 149" transform="translate(273 -882.461)">
    <path id="Path_500" data-name="Path 500" d="M523.722,540.986H1125.2s28.034-21.7-90.548-18.081c0,0,2.164-29.842-64.671-14.473,0,0-28.019-17.841-49.583-4.4,0,0-101.319-46.982-172.461-5.015,0,0-64.687-6.585-68.994,12.266,0,0-77.611-6.466-73.29,16.136C605.651,527.421,532.351,523.809,523.722,540.986Z" transform="translate(1022.278 445.367)" fill="#eaeaea"/>
    <path id="Path_501" data-name="Path 501" d="M523.722,540.986H1125.2s28.034-21.7-90.548-18.081c0,0,2.164-29.842-64.671-14.473,0,0-28.019-17.841-49.583-4.4,0,0-101.319-46.982-172.461-5.015,0,0-64.687-6.585-68.994,12.266,0,0-77.611-6.466-73.29,16.136C605.651,527.421,532.351,523.809,523.722,540.986Z" transform="translate(-796.722 445.367)" fill="#eaeaea"/>
    <path id="Path_505" data-name="Path 505" d="M-4.111,95.822,675.241,79.776s33.166-35.75-101.02-26.751c0,0,4.509-48.2-72.043-21.621,0,0-30.412-28.033-55.7-5.771,0,0-111.186-73.085-194.443-3.49,0,0-72.607-8.9-78.776,21.627,0,0-87.212-8.36-83.9,27.984C89.365,71.754,6.824,67.882-4.111,95.822Z" transform="translate(230.957 899.102) rotate(3)" fill="#eaeaea"/>
    <path id="Path_504" data-name="Path 504" d="M523.722,561.154h680.193s31.7-29.065-102.4-24.22c0,0,2.447-39.974-73.135-19.386,0,0-31.686-23.9-56.072-5.891,0,0-114.579-62.933-195.032-6.718,0,0-73.153-8.82-78.024,16.43,0,0-87.768-8.661-82.882,21.614C616.373,542.983,533.48,538.144,523.722,561.154Z" transform="translate(73.73 435.283)" fill="#eaeaea"/>
    <path id="Path_506" data-name="Path 506" d="M5.184,100.131l678.779,20.234S713.706,84.732,580.2,86.84c0,0-.162-50.231-74.246-26.571,0,0-33.177-31.017-56.339-9.081,0,0-118.441-82.6-195.064-14.256,0,0-73.575-13.276-76.791,18.355,0,0-88.15-13.51-81.3,24.734C96.459,80.021,13.423,71.465,5.184,100.131Z" transform="matrix(0.998, -0.07, 0.07, 0.998, 970.731, 920.537)" fill="#eaeaea"/>
  </g>
</svg>
