<svg xmlns="http://www.w3.org/2000/svg" width="2065.424" height="197.262" viewBox="0 0 2065.424 197.262"><g transform="matrix(0.999, 0.035, -0.035, 0.999, 24.319, -4655.593)" opacity="0.403"><path d="M523.722,625.68h562.436s26.214-52.635-84.671-43.861c0,0,2.023-72.39-60.473-35.107,0,0-26.2-43.279-46.365-10.667,0,0-94.743-113.969-161.267-12.167,0,0-60.488-15.973-64.516,29.754,0,0-72.573-15.685-68.533,39.142C600.333,592.774,531.791,584.01,523.722,625.68Z" transform="translate(888.169 4135.649)" fill="#d3622e"/><path d="M523.722,625.68h562.436s26.214-52.635-84.671-43.861c0,0,2.023-72.39-60.473-35.107,0,0-26.2-43.279-46.365-10.667,0,0-94.743-113.969-161.267-12.167,0,0-60.488-15.973-64.516,29.754,0,0-72.573-15.685-68.533,39.142C600.333,592.774,531.791,584.01,523.722,625.68Z" transform="translate(1114.168 4119.649)" fill="#d3622e"/><path d="M523.722,625.68h562.436s26.214-52.635-84.671-43.861c0,0,2.023-72.39-60.473-35.107,0,0-26.2-43.279-46.365-10.667,0,0-94.743-113.969-161.267-12.167,0,0-60.488-15.973-64.516,29.754,0,0-72.573-15.685-68.533,39.142C600.333,592.774,531.791,584.01,523.722,625.68Z" transform="translate(259.169 4163.649)" fill="#d3622e"/><path d="M523.722,625.68h562.436s26.214-52.635-84.671-43.861c0,0,2.023-72.39-60.473-35.107,0,0-26.2-43.279-46.365-10.667,0,0-94.743-113.969-161.267-12.167,0,0-60.488-15.973-64.516,29.754,0,0-72.573-15.685-68.533,39.142C600.333,592.774,531.791,584.01,523.722,625.68Z" transform="translate(-379.831 4191.649)" fill="#d3622e"/><path d="M523.722,625.68h562.436s26.214-52.635-84.671-43.861c0,0,2.023-72.39-60.473-35.107,0,0-26.2-43.279-46.365-10.667,0,0-94.743-113.969-161.267-12.167,0,0-60.488-15.973-64.516,29.754,0,0-72.573-15.685-68.533,39.142C600.333,592.774,531.791,584.01,523.722,625.68Z" transform="translate(642.169 4163.649)" fill="#d3622e"/><path d="M523.722,625.68h562.436s26.214-52.635-84.671-43.861c0,0,2.023-72.39-60.473-35.107,0,0-26.2-43.279-46.365-10.667,0,0-94.743-113.969-161.267-12.167,0,0-60.488-15.973-64.516,29.754,0,0-72.573-15.685-68.533,39.142C600.333,592.774,531.791,584.01,523.722,625.68Z" transform="translate(13.169 4191.649)" fill="#d3622e"/></g></svg>