<svg xmlns="http://www.w3.org/2000/svg" width="2059.137" height="216.095" viewBox="0 0 2059.137 216.095"><g transform="translate(-143.891 -4601.234)"><path d="M523.722,625.68h562.436s26.214-52.635-84.671-43.861c0,0,2.023-72.39-60.473-35.107,0,0-26.2-43.279-46.365-10.667,0,0-94.743-113.969-161.267-12.167,0,0-60.488-15.973-64.516,29.754,0,0-72.573-15.685-68.533,39.142C600.333,592.774,531.791,584.01,523.722,625.68Z" transform="translate(888.169 4135.649)" fill="#f77a41"/><path d="M523.722,625.68h562.436s26.214-52.635-84.671-43.861c0,0,2.023-72.39-60.473-35.107,0,0-26.2-43.279-46.365-10.667,0,0-94.743-113.969-161.267-12.167,0,0-60.488-15.973-64.516,29.754,0,0-72.573-15.685-68.533,39.142C600.333,592.774,531.791,584.01,523.722,625.68Z" transform="translate(1114.168 4119.649)" fill="#f77a41"/><path d="M523.722,625.68h562.436s26.214-52.635-84.671-43.861c0,0,2.023-72.39-60.473-35.107,0,0-26.2-43.279-46.365-10.667,0,0-94.743-113.969-161.267-12.167,0,0-60.488-15.973-64.516,29.754,0,0-72.573-15.685-68.533,39.142C600.333,592.774,531.791,584.01,523.722,625.68Z" transform="translate(259.169 4163.649)" fill="#f77a41"/><path d="M523.722,625.68h562.436s26.214-52.635-84.671-43.861c0,0,2.023-72.39-60.473-35.107,0,0-26.2-43.279-46.365-10.667,0,0-94.743-113.969-161.267-12.167,0,0-60.488-15.973-64.516,29.754,0,0-72.573-15.685-68.533,39.142C600.333,592.774,531.791,584.01,523.722,625.68Z" transform="translate(-379.831 4191.649)" fill="#f77a41"/><path d="M523.722,625.68h562.436s26.214-52.635-84.671-43.861c0,0,2.023-72.39-60.473-35.107,0,0-26.2-43.279-46.365-10.667,0,0-94.743-113.969-161.267-12.167,0,0-60.488-15.973-64.516,29.754,0,0-72.573-15.685-68.533,39.142C600.333,592.774,531.791,584.01,523.722,625.68Z" transform="translate(642.169 4163.649)" fill="#f77a41"/><path d="M523.722,625.68h562.436s26.214-52.635-84.671-43.861c0,0,2.023-72.39-60.473-35.107,0,0-26.2-43.279-46.365-10.667,0,0-94.743-113.969-161.267-12.167,0,0-60.488-15.973-64.516,29.754,0,0-72.573-15.685-68.533,39.142C600.333,592.774,531.791,584.01,523.722,625.68Z" transform="translate(13.169 4191.649)" fill="#f77a41"/></g></svg>