<svg xmlns="http://www.w3.org/2000/svg" width="2423.365" height="261.806" viewBox="0 0 2423.365 261.806">
  <g id="Group_148" data-name="Group 148" transform="translate(273 -948)">
    <path id="Path_500" data-name="Path 500" d="M523.722,635.682H1125.2s28.034-56.289-90.548-46.905c0,0,2.164-77.415-64.671-37.544,0,0-28.019-46.283-49.583-11.408,0,0-101.319-121.88-172.461-13.011,0,0-64.687-17.082-68.994,31.819,0,0-77.611-16.774-73.29,41.859C605.651,600.492,532.351,591.12,523.722,635.682Z" transform="translate(1022.278 466.415)" fill="#fff"/>
    <path id="Path_501" data-name="Path 501" d="M523.722,635.682H1125.2s28.034-56.289-90.548-46.905c0,0,2.164-77.415-64.671-37.544,0,0-28.019-46.283-49.583-11.408,0,0-101.319-121.88-172.461-13.011,0,0-64.687-17.082-68.994,31.819,0,0-77.611-16.774-73.29,41.859C605.651,600.492,532.351,591.12,523.722,635.682Z" transform="translate(-796.722 479.415)" fill="#fff"/>
    <path id="Path_505" data-name="Path 505" d="M523.722,655.849h680.193s31.7-63.656-102.4-53.044c0,0,2.447-87.547-73.135-42.458,0,0-31.686-52.34-56.072-12.9,0,0-114.579-137.831-195.032-14.714,0,0-73.153-19.318-78.024,35.983,0,0-87.768-18.969-82.882,47.337C616.373,616.054,533.48,605.455,523.722,655.849Z" transform="translate(-266.843 479.817) rotate(3)" fill="#fff"/>
    <path id="Path_504" data-name="Path 504" d="M523.722,655.849h680.193s31.7-63.656-102.4-53.044c0,0,2.447-87.547-73.135-42.458,0,0-31.686-52.34-56.072-12.9,0,0-114.579-137.831-195.032-14.714,0,0-73.153-19.318-78.024,35.983,0,0-87.768-18.969-82.882,47.337C616.373,616.054,533.48,605.455,523.722,655.849Z" transform="translate(73.73 533.331)" fill="#fff"/>
    <path id="Path_506" data-name="Path 506" d="M523.722,655.849h680.193s31.7-63.656-102.4-53.044c0,0,2.447-87.547-73.135-42.458,0,0-31.686-52.34-56.072-12.9,0,0-114.579-137.831-195.032-14.714,0,0-73.153-19.318-78.024,35.983,0,0-87.768-18.969-82.882,47.337C616.373,616.054,533.48,605.455,523.722,655.849Z" transform="matrix(0.998, -0.07, 0.07, 0.998, 414.691, 592.088)" fill="#fff"/>
  </g>
</svg>
