<svg xmlns="http://www.w3.org/2000/svg" width="36" height="36" viewBox="0 0 36 36">
  <g id="icon-instagram" transform="translate(-1456 -1589)">
    <circle id="Ellipse_239" data-name="Ellipse 239" cx="18" cy="18" r="18" transform="translate(1492 1589) rotate(90)" fill="#b55eb2"/>
    <g id="instagram-logo" transform="translate(1466.197 1599.792)">
      <path id="Path_64" data-name="Path 64" d="M11.735,0H4.473A4.478,4.478,0,0,0,0,4.473v7.263a4.478,4.478,0,0,0,4.473,4.473h7.263a4.478,4.478,0,0,0,4.473-4.473V4.473A4.478,4.478,0,0,0,11.735,0ZM14.77,11.735a3.038,3.038,0,0,1-3.035,3.035H4.473a3.038,3.038,0,0,1-3.035-3.035V4.473A3.038,3.038,0,0,1,4.473,1.438h7.263A3.038,3.038,0,0,1,14.77,4.473v7.263Z" fill="#fff"/>
      <path id="Path_65" data-name="Path 65" d="M45.145,40.97a4.176,4.176,0,1,0,4.177,4.176A4.181,4.181,0,0,0,45.145,40.97Zm0,6.915a2.738,2.738,0,1,1,2.738-2.738A2.741,2.741,0,0,1,45.145,47.885Z" transform="translate(-37.04 -37.042)" fill="#fff"/>
      <path id="Path_66" data-name="Path 66" d="M119.976,28.251a1.054,1.054,0,1,0,.746.309A1.059,1.059,0,0,0,119.976,28.251Z" transform="translate(-107.52 -25.543)" fill="#fff"/>
    </g>
  </g>
</svg>
