<svg xmlns="http://www.w3.org/2000/svg" width="107.455" height="100.684" viewBox="0 0 107.455 100.684">
  <g id="icon-marker-maps" transform="translate(-384.589 -382.358)">
    <g id="Group_4317" data-name="Group 4317" transform="translate(384.589 382.358)">
      <path id="Path_11418" data-name="Path 11418" d="M419.313,405.455s17.765-9.815,36.807-10.4,25.421.982,26.8,4.908-.249,5.868-.838,5.868-9.86-6.261-22.326-1.451-12.073,14.33-12.171,21.789,4.711,31.212,4.711,31.212l-23.36.49s-8.637-27.678-8.735-31.212-.2-5.2-.2-5.2,19.434,5.594,22.967-.393,3.7-13.852,1.767-14.723-16.686-2.748-23.36,1.375-4.711-.589-4.711-.589Z" transform="translate(-403.917 -389.999)" fill="#369" fill-rule="evenodd"/>
      <g id="Group_4299" data-name="Group 4299" transform="translate(33.427 38.506)">
        <path id="Path_11419" data-name="Path 11419" d="M477.032,492.848c3.089-2.051,4.782-6.606,5.343-9.424.6-5.492-9.876-1.378-12.578-2.151C469.8,481.273,476.925,492.836,477.032,492.848Z" transform="translate(-469.797 -480.514)" fill="#337321" fill-rule="evenodd"/>
        <path id="Path_11420" data-name="Path 11420" d="M493.465,487.442c1.858-4.121.185-5.492-2.821-5.108C493.451,482.735,494.478,484.459,493.465,487.442Z" transform="translate(-482.466 -481.582)" fill="#0db02b" fill-rule="evenodd"/>
      </g>
      <g id="Group_4300" data-name="Group 4300" transform="translate(31.071 29.078)">
        <path id="Path_11421" data-name="Path 11421" d="M468.5,468.042c3.1-1.366,5.343-5.206,6.289-7.658,1.4-4.855-8.685-2.786-11-3.905C463.791,456.479,468.407,468.015,468.5,468.042Z" transform="translate(-463.791 -456.479)" fill="#337321" fill-rule="evenodd"/>
        <path id="Path_11422" data-name="Path 11422" d="M484.325,464.766c2.319-3.423,1.025-4.921-1.743-5.045C485.049,460.522,485.705,462.236,484.325,464.766Z" transform="translate(-475.21 -458.449)" fill="#0db02b" fill-rule="evenodd"/>
      </g>
      <g id="Group_4301" data-name="Group 4301" transform="translate(22.333 22.866)">
        <path id="Path_11423" data-name="Path 11423" d="M452.341,451.084c1.5-2.6,1.078-6.517.466-8.762-.9-2.753-9.05-1.384-11.288-.969C441.519,441.353,452.258,451.114,452.341,451.084Z" transform="translate(-441.519 -440.645)" fill="#337321" fill-rule="evenodd"/>
        <path id="Path_11424" data-name="Path 11424" d="M461.254,446.9c.89-4.535-1.49-5.647-4.879-4.735C459.777,442.087,461.511,443.672,461.254,446.9Z" transform="translate(-450.547 -441.388)" fill="#0db02b" fill-rule="evenodd"/>
      </g>
      <g id="Group_4302" data-name="Group 4302" transform="translate(14.211 18.797)">
        <path id="Path_11425" data-name="Path 11425" d="M431.308,436.523c.072-2.229-1.571-4.648-2.757-5.906-1.551-1.49-6.415,2.256-7.737,3.311C420.815,433.929,431.265,436.572,431.308,436.523Z" transform="translate(-420.815 -430.272)" fill="#337321" fill-rule="evenodd"/>
        <path id="Path_11426" data-name="Path 11426" d="M435.53,434.672c-1.046-3.493-3.116-3.4-5.147-1.512C432.73,431.856,434.524,432.325,435.53,434.672Z" transform="translate(-426.629 -431.239)" fill="#0db02b" fill-rule="evenodd"/>
      </g>
      <g id="Group_4303" data-name="Group 4303" transform="translate(61.896 47.585)">
        <path id="Path_11427" data-name="Path 11427" d="M545.91,503.656l-3.542,14.668.12.184a1.9,1.9,0,0,0,1.16.749,3.855,3.855,0,0,0,3.122-1.315,7.819,7.819,0,0,0,1.918-4.01,22.168,22.168,0,0,0,.455-3.664c.027-.568.044-1.156.025-1.726l-.005-.149Z" transform="translate(-542.368 -503.656)" fill="#b01c2e" fill-rule="evenodd"/>
        <path id="Path_11428" data-name="Path 11428" d="M546.987,506.8l2.519,3.67s.222,6.732-2.234,9.008-3.507.662-3.507.662Z" transform="translate(-543.217 -505.566)" fill="#c7252e" fill-rule="evenodd"/>
      </g>
      <path id="Path_11429" data-name="Path 11429" d="M533.514,486.936l.1-.634s.06-.444,1.323-.268,3.41,2.256,3.41,2.256l-4.6,2.256Z" transform="translate(-475.091 -445.337)" fill="#b01c2e" fill-rule="evenodd"/>
      <path id="Path_11430" data-name="Path 11430" d="M401.939,428.995a18.559,18.559,0,0,0,6.535,2.678c2.169.486,4.385.755,6.568,1.176a28.177,28.177,0,0,1,7.107,2.249,9.312,9.312,0,0,1,2.207,1.5,15.19,15.19,0,0,1,3.732,6.1c.91,2.467,1.524,5.063,2.2,7.6a37.178,37.178,0,0,0,2.819,7.916,7.319,7.319,0,0,0,4.167,3.367c1.255-.416,2.513-.825,3.764-1.253,1.77-.6,3.557-1.243,5.263-2.009a13.791,13.791,0,0,0,3.642-2.179,17.886,17.886,0,0,0,1.967-2.282,43.256,43.256,0,0,0,2.923-4.466l.158-.278,12.871-.8a1.021,1.021,0,0,1,.96.382c.4.583-.106,1.352-.447,1.832a22.363,22.363,0,0,1-1.845,2.173c-1.872,2.015-3.852,3.948-5.768,5.924-.985,1.016-1.961,2.043-2.908,3.1-.829.922-1.647,1.873-2.389,2.867-1.324,1.772-2.66,3.536-4.027,5.276-1.794,2.283-3.642,4.531-5.593,6.682a58.4,58.4,0,0,1-5.8,5.659c-3.218,2.681-7.462,5.384-11.836,5.033-6.4-.514-10.219-7.326-12.418-12.579a18.4,18.4,0,0,1-1.47-9.633,41.094,41.094,0,0,1,2.068-7.611,30.631,30.631,0,0,0,.941-3.445c.383-1.913.8-4.441-.085-6.274a5.847,5.847,0,0,0-2.215-2.324,21.073,21.073,0,0,0-4.649-2.053,18.11,18.11,0,0,1-8.811-6.635c-1.362-1.867-2.97-4.848-3.127-7.2-.046-.692,0-1.678.774-1.965C400.141,427.171,401.341,428.321,401.939,428.995Z" transform="translate(-392.998 -409.762)" fill="#337321" fill-rule="evenodd"/>
      <path id="Path_11431" data-name="Path 11431" d="M402.459,430.356s-2.726-3.146-2.517,0,3.985,10.8,11.536,13.319,8.6,5.034,7.341,11.326-5.349,11.326-1.573,20.345c10.593,25.306,26.483,6.1,38.659-10.2,4.492-6.013,15.848-15.513,12.908-15.331l-12.551.778a37.548,37.548,0,0,1-5,6.886c-2.334,2.2-8.3,4.048-13.082,5.637a7.989,7.989,0,0,1-4.68-3.714c-4.09-7.656-3.566-19.4-10.7-22.862C415.432,432.966,408.788,434.67,402.459,430.356Z" transform="translate(-393.912 -410.677)" fill="#54c247" fill-rule="evenodd"/>
      <path id="Path_11432" data-name="Path 11432" d="M513.124,521.106a23.5,23.5,0,0,0,4.968-10.856c.883-4.447.9-9.863-.706-14.153l.2-.457c-6.579-2.378-8.545-7.7-8.5-9.072-.861.8-1.421,1.4-2.263,2.22-1.124,1.094-2.287,2.162-3.5,3.162a22.092,22.092,0,0,1-3.549,2.5c-.5.267-1.68.832-2.251.506a.749.749,0,0,1-.3-.364c-.613-1.377-1.736-1.539-2.949-.8-.548.336-.821,1.511-.936,2.094a16.787,16.787,0,0,0-.222,4.133,26.413,26.413,0,0,0,4.206,12.448A35.91,35.91,0,0,0,506,522.18c1.21.881,4.415,2.946,5.976,1.967a2.534,2.534,0,0,0,1.267-2.162A3.206,3.206,0,0,0,513.124,521.106Z" transform="translate(-450.518 -445.686)" fill="#b01c2e" fill-rule="evenodd"/>
      <path id="Path_11433" data-name="Path 11433" d="M513.335,522.508a2.164,2.164,0,0,1-.841,2.724c-1.616,1.013-8.146-2.367-13.951-11.519s-4.129-17.4-3.212-17.966,1.718-.549,2.215.568c1.64,3.686,12.093-7.25,12.093-7.25.573,2.768,3.1,5.727,8.06,8.729C520.28,504.688,518.989,516.32,513.335,522.508Z" transform="translate(-451.31 -447.204)" fill="#e62128" fill-rule="evenodd"/>
      <path id="Path_11434" data-name="Path 11434" d="M528.621,562.65h0q-.41-.115-.831-.266c-4.13-1.492-8.254-7.265-8.254-7.265s4.012,5.269,10.218,6.139A16.337,16.337,0,0,1,528.621,562.65Z" transform="translate(-466.596 -487.346)" fill="#c7252e" fill-rule="evenodd"/>
      <path id="Path_11435" data-name="Path 11435" d="M583.113,550.359c-.891.069-1.512,1.163-1.694,2.043a2.671,2.671,0,0,0,.727,2.668,1.024,1.024,0,0,0,.292.128.962.962,0,0,0,.14.025l.7.074,0,1.541-.753.067a8.85,8.85,0,0,1-1.643-.045,8.2,8.2,0,0,1-3.441-1.037,3.3,3.3,0,0,1-1.7-2.375,2.813,2.813,0,0,1,.351-1.675c1.229-2.245,4.785-3.308,6.94-3.1l.743.072.066,1.556Z" transform="translate(-500.748 -483.413)" fill="#d1ccc4" fill-rule="evenodd"/>
      <path id="Path_11436" data-name="Path 11436" d="M583.408,557.409a14.237,14.237,0,0,1-1.729-.043c-3.679-.32-5.781-2.024-4.693-3.807.931-1.526,3.9-2.614,7.039-2.7a3.248,3.248,0,0,0-2.65,2.7c-.409,1.783.382,3.487,1.767,3.807A2.083,2.083,0,0,0,583.408,557.409Z" transform="translate(-501.334 -484.759)" fill="#dbdddd" fill-rule="evenodd"/>
      <path id="Path_11437" data-name="Path 11437" d="M590.124,548.775a2.434,2.434,0,0,1,.7.3c1.386.881,1.789,2.877,1.452,4.513s-1.481,3.234-3.072,3.348a2.328,2.328,0,0,1-.749-.068,2.444,2.444,0,0,1-.7-.3c-1.386-.881-1.789-2.877-1.452-4.513s1.481-3.234,3.072-3.349A2.327,2.327,0,0,1,590.124,548.775Z" transform="translate(-507.103 -483.445)" fill="#d1ccc4" fill-rule="evenodd"/>
      <path id="Path_11438" data-name="Path 11438" d="M591.446,550.9c1.378.32,2.165,2.024,1.758,3.807s-1.855,2.968-3.233,2.648-2.165-2.024-1.758-3.806S590.068,550.584,591.446,550.9Z" transform="translate(-508.267 -484.751)" fill="#feed7f" fill-rule="evenodd"/>
      <path id="Path_11439" data-name="Path 11439" d="M558,578.544c4.637,1.6,6.643,7.3,4.479,12.712s-7.677,8.506-12.315,6.9-6.643-7.3-4.479-12.712S553.366,576.939,558,578.544Z" transform="translate(-481.96 -501.323)" fill="#5e5d5d" fill-rule="evenodd"/>
      <g id="Group_4304" data-name="Group 4304" transform="translate(39.107 78.733)">
        <path id="Path_11440" data-name="Path 11440" d="M499.444,583.515a8.8,8.8,0,0,1,4.205,2.874,10.588,10.588,0,0,1,1.074,10.841,13.2,13.2,0,0,1-4.976,5.873,11.43,11.43,0,0,1-7,1.873,9.589,9.589,0,0,1-2.2-.43,8.8,8.8,0,0,1-4.2-2.874,10.589,10.589,0,0,1-1.074-10.841,13.2,13.2,0,0,1,4.976-5.873,11.433,11.433,0,0,1,7-1.873A9.606,9.606,0,0,1,499.444,583.515Z" transform="translate(-484.277 -583.055)" fill="#d1ccc4" fill-rule="evenodd"/>
        <path id="Path_11441" data-name="Path 11441" d="M500.365,585.378c4.993,1.6,7.152,7.3,4.822,12.712s-8.266,8.506-13.259,6.9-7.152-7.3-4.823-12.712S495.372,583.774,500.365,585.378Z" transform="translate(-485.426 -584.209)" fill="#fff" fill-rule="evenodd"/>
        <path id="Path_11442" data-name="Path 11442" d="M506.151,600.143a2.863,2.863,0,0,0-2.914,3.171,3.717,3.717,0,0,0,2.5,3.486,6.209,6.209,0,0,1-3.444,1.345,4.678,4.678,0,0,0,2.731.047,7.452,7.452,0,0,0,3.405-2.142h0a3.3,3.3,0,0,0,.806-2.316A3.6,3.6,0,0,0,506.151,600.143Z" transform="translate(-495.228 -593.435)" fill="#d1ccc4" fill-rule="evenodd"/>
        <path id="Path_11443" data-name="Path 11443" d="M516.783,604.633c.359,2.724-1.6,5.24-3.841,6.83a6.387,6.387,0,0,0-1.324,1.093,1.728,1.728,0,0,0-.389,1.6,1.667,1.667,0,0,0,1.677.974,4.207,4.207,0,0,0,1.923-.733,12.893,12.893,0,0,0,4.728-4.654,7.585,7.585,0,0,0,.535-6.465Z" transform="translate(-500.613 -595.346)" fill="#e4e4e4" fill-rule="evenodd"/>
        <path id="Path_11444" data-name="Path 11444" d="M499.946,590.274a6.925,6.925,0,0,0-3.377,2.765,7.684,7.684,0,0,0-1.441,2.536c-.526,1.893.332,3.866,1.169,5.643-1.158.438-2.346-.627-2.9-1.732a7.458,7.458,0,0,1,5.387-10.716Z" transform="translate(-489.337 -586.529)" fill="#e4e4e4" fill-rule="evenodd"/>
      </g>
      <path id="Path_11445" data-name="Path 11445" d="M391.273,564.281c-.625,1.255-1.064,2.249-1.064,2.249a14.471,14.471,0,0,0,1.267,6.427,8.585,8.585,0,0,0,4.932,4.125l8.982-3.18c-1.4-4.147-1.465-9.267-1.6-10.351C402.806,555.915,394.555,559.2,391.273,564.281Z" transform="translate(-387.997 -489.724)" fill="#006" fill-rule="evenodd"/>
      <path id="Path_11446" data-name="Path 11446" d="M407.715,565.564a9.96,9.96,0,0,1,5.29,2.295c3.413,2.9,4.45,7.564,3.516,11.822a14.947,14.947,0,0,1-4.274,7.595,12.945,12.945,0,0,1-7.378,3.581,10.9,10.9,0,0,1-2.536-.007,9.96,9.96,0,0,1-5.29-2.295c-3.413-2.9-4.45-7.564-3.516-11.822a14.946,14.946,0,0,1,4.274-7.595,12.942,12.942,0,0,1,7.378-3.581A10.876,10.876,0,0,1,407.715,565.564Z" transform="translate(-389.822 -493.645)" fill="#d1ccc4" fill-rule="evenodd"/>
      <ellipse id="Ellipse_246" data-name="Ellipse 246" cx="12.266" cy="10.545" rx="12.266" ry="10.545" transform="translate(0 90.09) rotate(-60.67)" fill="#fff"/>
      <path id="Path_11447" data-name="Path 11447" d="M430.5,600.959a11.915,11.915,0,0,1-.831,8.873,8.992,8.992,0,0,0,5.37-7.557c.021-.337-.055-.778-.388-.836Z" transform="translate(-411.986 -515.202)" fill="#e4e4e4" fill-rule="evenodd"/>
      <path id="Path_11448" data-name="Path 11448" d="M426.179,573.744a4.859,4.859,0,0,1-.149,1.927c-.219.492-.483.475-.837.92-.21.264-.362.573-.593.82a2.181,2.181,0,0,1-1.925.582c-1.109-.175-1.712-1.236-2.751-1.366l-2.049-.256a1.535,1.535,0,0,0-1.468.4c-1.073.822-2.234,1.793-2.382,3.136-.969-2.231-.214-4.9,1.224-6.861a8.457,8.457,0,0,1,3.2-2.732,5.737,5.737,0,0,1,4.144-.325,6.108,6.108,0,0,1,1.873,1.046A4.137,4.137,0,0,1,426.179,573.744Z" transform="translate(-402.213 -496.232)" fill="#e4e4e4" fill-rule="evenodd"/>
      <path id="Path_11449" data-name="Path 11449" d="M417.541,585.638a3.242,3.242,0,0,0-2.657,4.089,4.209,4.209,0,0,0,3.452,3.42,7.034,7.034,0,0,1-3.592,2.15,5.3,5.3,0,0,0,3.058-.462,8.433,8.433,0,0,0,3.4-3.032h0a3.729,3.729,0,0,0,.463-2.737A4.078,4.078,0,0,0,417.541,585.638Z" transform="translate(-402.915 -505.882)" fill="#d1ccc4" fill-rule="evenodd"/>
      <path id="Path_11450" data-name="Path 11450" d="M465.983,536.2c5.439-1.91,9.711,3.3,9.574,8.262l1.279-2.557C474.912,537.456,471.106,533.115,465.983,536.2Z" transform="translate(-434.052 -475.216)" fill="#337321" fill-rule="evenodd"/>
      <path id="Path_11451" data-name="Path 11451" d="M448.686,542.829a20.4,20.4,0,0,0,8.261,1.894,19.864,19.864,0,0,0,9.963-2.045l1.363-.717-.4,1.488q-1.6,6-3.306,11.981a22.69,22.69,0,0,0-.819,6.341,21.166,21.166,0,0,0,.242,3.242l.056.335-.235.244a6.888,6.888,0,0,1-2.088,1.673,4.976,4.976,0,0,1-1.147.134c-.561.02-1.128.01-1.69-.008-1.477-.047-2.963-.16-4.433-.309-.908-.092-1.816-.2-2.719-.331l-1.113-.161.666-.906a5.753,5.753,0,0,0,.871-2.557c.761-5.583-2.257-14.219-4.4-19.436l-.678-1.652Z" transform="translate(-422.568 -479.349)" fill="#008ed6" fill-rule="evenodd"/>
      <path id="Path_11452" data-name="Path 11452" d="M450.4,545.469a20.784,20.784,0,0,0,8.536,1.963,20.252,20.252,0,0,0,10.3-2.122c-1.472,5.514-2.768,10.1-3.3,11.97a24.508,24.508,0,0,0-.594,9.878,6.418,6.418,0,0,1-1.792,1.494c-.991.291-5.955.008-9.7-.535a6.2,6.2,0,0,0,1-2.865C455.59,559.8,452.856,551.445,450.4,545.469Z" transform="translate(-424.585 -481.385)" fill="#00a1e8" fill-rule="evenodd"/>
      <path id="Path_11453" data-name="Path 11453" d="M449.416,551.534a2.546,2.546,0,0,1,2.1,1c1.893,1.97,2.926,4.588,4.352,6.919s3.55,4.553,6.272,4.8c.975.088,2.147,0,2.719.79a2.191,2.191,0,0,1,.336,1.113,6.584,6.584,0,0,1-.383,2.81,2.828,2.828,0,0,1-.712,1.158,3.062,3.062,0,0,1-1.566.63,12.751,12.751,0,0,1-8.1-1.586,9.728,9.728,0,0,1-2.848-2.2c-2.011-2.391-2.143-5.792-2.156-8.916Z" transform="translate(-423.984 -485.154)" fill="#008ed6" fill-rule="evenodd"/>
      <path id="Path_11454" data-name="Path 11454" d="M578.574,570.4a5.533,5.533,0,0,1,4.777-1.764,5.761,5.761,0,0,1,4.447,3.129,8.014,8.014,0,0,1-.372,7.028,12.779,12.779,0,0,1-3.975,4.932,8.256,8.256,0,0,1-2.295,1.2l-.338.095-.271-.222q-1.558-1.273-3.105-2.559c-.694-.576-1.388-1.154-2.073-1.74a5.981,5.981,0,0,1-1.159-1.133,1.184,1.184,0,0,1,.156-.958c.148-.328.31-.654.471-.976.47-.94.96-1.873,1.451-2.8q1.083-2.053,2.19-4.1l.04-.074Z" transform="translate(-499.789 -495.532)" fill="#006" fill-rule="evenodd"/>
      <path id="Path_11455" data-name="Path 11455" d="M580.114,571.9c3.685-4,11.417-.075,7.746,7.646-2.27,4.774-5.843,5.776-5.843,5.776s-6.043-4.941-6.143-5.175S580.114,571.9,580.114,571.9Z" transform="translate(-500.832 -496.577)" fill="#369" fill-rule="evenodd"/>
      <path id="Path_11456" data-name="Path 11456" d="M576.771,577.744a6.726,6.726,0,0,1,3.526-3.062c2.164-.573,4.486,1.051,5.223,3.164a8.107,8.107,0,0,1-.906,6.455,9.672,9.672,0,0,1-4.729,4.426,4.165,4.165,0,0,1-3.408.047,2.232,2.232,0,0,1-1.037-2.957Z" transform="translate(-500.421 -499.163)" fill="#1a4d77" fill-rule="evenodd"/>
      <g id="Group_4305" data-name="Group 4305" transform="translate(48.423 52.16)">
        <rect id="Rectangle_10201" data-name="Rectangle 10201" width="10.972" height="4.892" transform="translate(0 7.738) rotate(-44.85)" fill="#337321"/>
        <rect id="Rectangle_10202" data-name="Rectangle 10202" width="9.992" height="3.912" transform="translate(0.693 7.74) rotate(-44.849)" fill="#54c247"/>
      </g>
      <path id="Path_11457" data-name="Path 11457" d="M415.817,453.407c-.343-1.87-.773-3.73-1.232-5.575-.524-2.109-1.091-4.208-1.666-6.3-1.266-4.614-2.571-9.216-3.715-13.863-.8-3.257-1.528-6.541-2.088-9.849a69.392,69.392,0,0,1-1.013-9.5c-.162-5.442.536-11.355,3.736-15.928a17.991,17.991,0,0,1,10.694-6.977q2.6-.668,5.247-1.164a127.433,127.433,0,0,1,28.419-1.766q5.347.209,10.675.745c2.034.2,4.054.451,6.081.7,3.38.422,6.366,1.73,8.243,4.716a14.275,14.275,0,0,1,1.905,7.21,40.531,40.531,0,0,1-1.845,11.932q-1.847,6.464-4.059,12.809c-1.105,3.182-2.279,6.334-3.448,9.493-.8,2.169-1.645,4.394-2.271,6.619a11.238,11.238,0,0,0-.569,4.047c.608,4.712.743,10.068,3.645,14.076a2.064,2.064,0,0,1,.43,1.739,2.721,2.721,0,0,1-1.882,1.644,16.325,16.325,0,0,1-3.178.716c-1.375.2-2.767.339-4.15.47-1.547.146-3.094.28-4.639.439-1.938.2-3.895.435-5.806.816a16.762,16.762,0,0,0-4.435,1.4,55.9,55.9,0,0,0-7.489,4.717c-.617.467-1.225.953-1.807,1.464-.2.172-.4.352-.584.536l-1.138,1.139-.288-1.585a20.829,20.829,0,0,1-.271-3.2,24.336,24.336,0,0,1,.875-7.117q1.7-5.965,3.221-11.98c1.588-6.307,3.027-12.673,4.192-19.072.674-3.7,1.258-7.427,1.677-11.166a80.56,80.56,0,0,0,.579-10.062c-.047-3.291-.428-9.912-3.716-11.8a4.277,4.277,0,0,0-2.173-.539c-1.859,0-3.717-.019-5.576-.005-1.661.012-3.331.051-4.987.2a15.718,15.718,0,0,0-7.636,2.293c-3.621,2.542-4.48,7.287-4.671,11.417a120.169,120.169,0,0,0,.907,21.2,98.762,98.762,0,0,0,3,14.75c.866,2.955,1.989,5.861,3.005,8.769a65.855,65.855,0,0,1,2.221,7.416,20.035,20.035,0,0,1,.507,6.893c-.306,2.245-1.253,4.467-3.683,4.986a5.567,5.567,0,0,1-1.7.078,14.711,14.711,0,0,1-3.524-.968c-1.046-.361-1.553-2.311-1.807-3.26-.477-1.776-.808-3.641-1.1-5.456-.448-2.746-.823-5.544-1.116-8.313ZM448.723,439.8h0c-.242,1.438-.487,3.853.866,4.87,1.567,1.177,5.189.43,6.972.1a36.236,36.236,0,0,1,4.916-.717,2.7,2.7,0,0,0,1.6-.468c.8-.642,1.241-2.473,1.5-3.418.69-2.5,1.422-5,2.135-7.5q1.9-6.64,3.772-13.286,1.379-4.9,2.728-9.816c.7-2.57,1.4-5.146,2.047-7.73a9.421,9.421,0,0,0,.085-5.149,4.791,4.791,0,0,0-2.027-2.554,8.581,8.581,0,0,0-2.945-1.107,23.549,23.549,0,0,0-2.442-.308,10.97,10.97,0,0,0-4.86.478,9.179,9.179,0,0,0-5.285,5.4,34.05,34.05,0,0,0-1.236,3.611c-.5,1.694-.944,3.408-1.366,5.123-1.037,4.22-1.943,8.485-2.8,12.744Q450.393,429.9,448.723,439.8Z" transform="translate(-397.65 -382.358)" fill="#008ed6" fill-rule="evenodd"/>
      <path id="Path_11458" data-name="Path 11458" d="M417.959,455.029c-3.733-20.388-22.076-60.331,4.091-67.054,21.036-5.405,45.433-2.045,50.108-1.461s13.148,3.36,7.6,22.789-10.957,28.779-10.372,33.308.731,10.226,3.8,14.462-16.508,2.337-23.374,5.99a45.568,45.568,0,0,0-10.08,6.866A24.44,24.44,0,0,1,440.31,460c2.659-9.307,18.513-65.719,2.967-65.692-13.009.022-22.981-1.069-23.712,14.708a115.61,115.61,0,0,0,3.945,36.23c2.094,7.144,6.584,16.3,5.707,22.727s-5.988,4.035-7.791,3.412-3.467-16.352-3.467-16.352ZM449.2,441.4h0c-1.7,10.084,7.906,5.477,13.621,5.239,2.515-.1,3.038-1.467,3.877-4.505s8.277-28.708,10.687-38.347-5.867-9.953-8.068-10.163-8.068-.524-11,6.391-7.439,31.432-9.115,41.386Zm-8.025,25.662,2.225-3.047a109.222,109.222,0,0,0,2.257-17.118c-.947,6.85-4.758,13.256-4.482,20.165Zm10.062-60.073h0c.068-.827.535-.772,1.213-2.689a12.163,12.163,0,0,0-.983-10.105,6.084,6.084,0,0,0-2.786-2.674c-2.133-.863-4.6.173-6.626.875q.005.291.01.582a14.793,14.793,0,0,1,3.221.27c5.29,1.236,6.436,9.245,5.95,13.741-.089.823.244-.792,0,0Zm16.872,44.66.814.015c.272.013.335-.376.3-.647l-.228-1.622c-.091-.65-.256-1.4-.851-1.681a1.869,1.869,0,0,0-1.2-.012,14.238,14.238,0,0,0-8.683,6.072c3.382.41,6.508-2.775,9.852-2.125Zm-49.86-.954,3.377,2.878c.648.706,1.941.226,2.346-.643a4.263,4.263,0,0,0-.034-2.815,35.132,35.132,0,0,0-1.649-5.151c-2.359-5.592-6.794-10.11-9.17-15.695l5.13,21.426Zm5.543,4.962,3.255,9.776a3.748,3.748,0,0,0,.443-2.372,20.207,20.207,0,0,0-2.056-8.882,1.261,1.261,0,0,0-.459-.541.914.914,0,0,0-1.176.565,2.652,2.652,0,0,0-.007,1.454Z" transform="translate(-398.956 -383.931)" fill="#00a1e8" fill-rule="evenodd"/>
      <path id="Path_11459" data-name="Path 11459" d="M400.792,547.1c4.932-.491,8.938,1.761,11.981,5.5a26.71,26.71,0,0,1,4.4,8.1,15.637,15.637,0,0,1,.784,5.69c-.259,3.792-2.409,6.056-6.325,6.235a5.51,5.51,0,0,1-3.094-.739c-2.4-1.41-3.583-4.533-4.214-7.1a37.236,37.236,0,0,1-.861-5.44c-.063-.684-.113-1.368-.158-2.054-.025-.383-.04-.792-.089-1.172-.184-1.436-.716-3.026-2.148-3.652a4.882,4.882,0,0,0-3.5.116,11.354,11.354,0,0,0-3.87,2.448c-2.557,2.417-2.7,4.021-3.527,7.167C388.515,554.411,392.628,547.91,400.792,547.1Z" transform="translate(-387.763 -482.43)" fill="#006" fill-rule="evenodd"/>
      <path id="Path_11460" data-name="Path 11460" d="M391.078,560.046c-.049-.342.244-10.206,10.549-11.232s14.846,10.646,15.676,13.136,2.54,10.7-4.932,11.037-7.472-14.016-7.716-15.92C403.536,548.345,392.93,553.874,391.078,560.046Z" transform="translate(-388.53 -483.475)" fill="#369" fill-rule="evenodd"/>
      <path id="Path_11461" data-name="Path 11461" d="M508.3,559.754a11.9,11.9,0,0,1,.809-1.648,18.282,18.282,0,0,1,2.641-3.528A18.721,18.721,0,0,1,524.4,548.9a15.387,15.387,0,0,1,12.774,4.971,18.069,18.069,0,0,1,2.662,3.8,13.145,13.145,0,0,1,.812,1.822l.245.727-19.656,3.908-13.2-3.695Z" transform="translate(-459.612 -483.544)" fill="#008ed6" fill-rule="evenodd"/>
      <path id="Path_11462" data-name="Path 11462" d="M510.312,561.036a17.647,17.647,0,0,1,15.511-10.414c11.894-.767,15.566,10.14,15.566,10.14l-18.745,3.727Z" transform="translate(-460.991 -484.589)" fill="#00a1e8" fill-rule="evenodd"/>
      <path id="Path_11463" data-name="Path 11463" d="M541.838,555.691a2.8,2.8,0,0,1,3.473.136,4.2,4.2,0,0,1,1.352,3.383,8.748,8.748,0,0,1-1.079,3.585,3.654,3.654,0,0,1-2.257,2.2,3.238,3.238,0,0,1-2.83-1.295,8.087,8.087,0,0,1-1.938-3.948Z" transform="translate(-478.157 -487.363)" fill="#008ed6" fill-rule="evenodd"/>
      <path id="Path_11464" data-name="Path 11464" d="M537.565,577.141a17.785,17.785,0,0,1,.909-1.984,22.061,22.061,0,0,1,2.735-4.1,14.418,14.418,0,0,1,4.755-3.772,11,11,0,0,1,6.926-.823c4.471.867,6.9,3.753,7.072,8.254a16.875,16.875,0,0,1-.481,4.472,16.047,16.047,0,0,1-.59,2l-.139.364-15.406,2.465-7.12-2.281,1.33-4.568Z" transform="translate(-476.74 -494.1)" fill="#d1ccc4" fill-rule="evenodd"/>
      <path id="Path_11465" data-name="Path 11465" d="M539.486,578.422s4.518-12.2,14.565-10.255,5.5,13.821,5.5,13.821l-14.862,2.378-6.341-2.031Z" transform="translate(-478.027 -495.146)" fill="#dbdddd" fill-rule="evenodd"/>
      <path id="Path_11466" data-name="Path 11466" d="M554.872,571.712a5.955,5.955,0,0,1,4.578,3.968,7.555,7.555,0,0,1,.335,1.6,12.857,12.857,0,0,1-.433,4.464,15.06,15.06,0,0,1-.69,2.088l-.147.341-11.279,1.8-7.528-1.322.21-.723C541.764,577.6,547.3,569.878,554.872,571.712Z" transform="translate(-478.856 -497.262)" fill="#d1ccc4" fill-rule="evenodd"/>
      <path id="Path_11467" data-name="Path 11467" d="M556.043,573.414c.062.015.122.032.182.048-.475,2.952-1.521,9.65-1.88,11.955l-2.057.329,1.628-12.587a8.872,8.872,0,0,1,2.127.255Zm.978.305h0l-2.015,11.592,1.73-.277c.59-2.885,1.583-7.72,2.1-10.184a5.47,5.47,0,0,0-1.814-1.131Zm2.484,1.925h0c2.271,3.382-.133,8.968-.133,8.968l-1.934.31,2.067-9.277Zm-7.863,10.2h0c.224-2.011,1.086-9.727,1.43-12.647a8.585,8.585,0,0,0-2.289.571l-.908,12.359,1.767-.282Zm-2.4.383h0l-.672.107-1.177-.206.21-10.364a11.635,11.635,0,0,1,2.328-1.608c-.22,3.682-.628,10.978-.689,12.071Zm-2.476-.209h0l-4.871-.856a21.5,21.5,0,0,1,4.905-8.637C546.785,579.967,546.772,584.459,546.768,586.024Z" transform="translate(-480.185 -498.308)" fill="#464442" fill-rule="evenodd"/>
      <path id="Path_11468" data-name="Path 11468" d="M552.3,600.742c.573-.069,1.155-.2,1.72-.317a20.029,20.029,0,0,1,2.07-.374c.629-.064,1.482-.058,1.755.649a4.406,4.406,0,0,1-1.333,3.839,9.425,9.425,0,0,1-2.647.84c-2.042.428-4.173.69-6.246.912-1.6.171-3.229.239-4.84.27-2.187.041-4.382.006-6.569-.073-1.007-.036-2.019-.078-3.024-.142l-.472-.03-.133-.454a7.572,7.572,0,0,1-.045-4.113,1.908,1.908,0,0,1,1.179-1.292,2.761,2.761,0,0,1,1.665.074c.357.107.719.265,1.068.352a6.33,6.33,0,0,0,.862.055c.617.022,1.237.029,1.855.035,1.743.016,3.489.007,5.232-.011,1.668-.017,3.336-.043,5-.088.618-.016,1.236-.036,1.854-.064C551.6,600.795,551.959,600.783,552.3,600.742Z" transform="translate(-474.335 -514.634)" fill="#d1ccc4" fill-rule="evenodd"/>
      <path id="Path_11469" data-name="Path 11469" d="M534.271,606.714a107.654,107.654,0,0,0,14.318-.052c5.618-.6,8-1.254,8.6-1.646a3.961,3.961,0,0,0,1.071-3.031c-.261-.679-3.109.261-4.833.47s-15.17.357-16.09.126-2.566-1.224-3.115.423A7.278,7.278,0,0,0,534.271,606.714Z" transform="translate(-475.379 -515.678)" fill="#dbdddd" fill-rule="evenodd"/>
      <path id="Path_11470" data-name="Path 11470" d="M481.465,577.66c-7.878,4.952-9.518,5.281-18.327,2.916l3.122-1.021a10.914,10.914,0,0,0,5.932-4.22c1.58-2.2,2.656-4.662,4.463-6.719a12.681,12.681,0,0,1,9.075-4.2c3.488-.284,6.991.4,9.15,3.386,2.355,3.263,2.273,8.163,1.723,11.985-.361,2.513-1.575,4.913-4.02,5.937a5.143,5.143,0,0,1-2.519.4,2.248,2.248,0,0,1-1.781-.98c-.5-.947-.19-2.693-.049-3.723a20.779,20.779,0,0,0,.275-4.829,1.655,1.655,0,0,0-.554-1.248C486.606,574.465,482.591,576.952,481.465,577.66Z" transform="translate(-432.323 -492.959)" fill="#006" fill-rule="evenodd"/>
      <path id="Path_11471" data-name="Path 11471" d="M486.209,578.133c3.962-2.491,7.735-4.075,8.075-.566s-.981,7.019-.3,8.3,6.151,1.17,7.056-5.132.49-15.471-10.15-14.6c-12.681,1.034-9.536,12.526-19.353,15.118C478.438,583.105,480.132,581.952,486.209,578.133Z" transform="translate(-437.426 -494.004)" fill="#369" fill-rule="evenodd"/>
      <path id="Path_11472" data-name="Path 11472" d="M527.469,563.682a3.411,3.411,0,0,0-1.637,1.135c-.066.084-.13.193-.087.29a.325.325,0,0,0,.162.135,5.106,5.106,0,0,1,2.232,3.472,19.317,19.317,0,0,0,1.089,4.1,1.978,1.978,0,0,0,1.055,1.087,1.472,1.472,0,0,0,1.368-.327,2.64,2.64,0,0,0,.756-1.239,7.89,7.89,0,0,0-.592-5.107c-.535-1.4-2.123-1.533-2.845-2.841Z" transform="translate(-470.361 -492.549)" fill="#1a4d77" fill-rule="evenodd"/>
      <path id="Path_11473" data-name="Path 11473" d="M524.724,589.906s1.914-.25,1.939,3.327c.018,2.583-.877,4.7-.359,7.009.246,1.1,2.861.48,3.441.279,0,0-2.5.077-1.672-3.427S527.441,588.741,524.724,589.906Z" transform="translate(-469.749 -508.378)" fill="#1a4d77" fill-rule="evenodd"/>
      <path id="Path_11474" data-name="Path 11474" d="M529.484,551.586c-1,.068-1.689,1.163-1.892,2.043a2.489,2.489,0,0,0,.812,2.668,1.2,1.2,0,0,0,.326.127,1.113,1.113,0,0,0,.157.025l.787.074,0,1.541-.841.068a11.051,11.051,0,0,1-1.836-.046,9.965,9.965,0,0,1-3.845-1.037,3.347,3.347,0,0,1-1.9-2.375A2.568,2.568,0,0,1,521.65,553c1.373-2.245,5.346-3.309,7.754-3.1l.83.073.074,1.555Z" transform="translate(-467.631 -484.158)" fill="#d1ccc4" fill-rule="evenodd"/>
      <path id="Path_11475" data-name="Path 11475" d="M529.318,558.542a15.472,15.472,0,0,1-1.848-.046c-3.934-.336-6.181-2.129-5.018-4,1-1.6,4.166-2.75,7.525-2.836a3.445,3.445,0,0,0-2.832,2.836c-.438,1.876.408,3.668,1.889,4A2.241,2.241,0,0,0,529.318,558.542Z" transform="translate(-468.182 -485.241)" fill="#dbdddd" fill-rule="evenodd"/>
      <path id="Path_11476" data-name="Path 11476" d="M537.318,550a2.889,2.889,0,0,1,.781.305,4.433,4.433,0,0,1-1.81,7.861,2.884,2.884,0,0,1-1.617-.373,4.433,4.433,0,0,1,1.81-7.861A2.908,2.908,0,0,1,537.318,550Z" transform="translate(-474.732 -484.19)" fill="#d1ccc4" fill-rule="evenodd"/>
      <path id="Path_11477" data-name="Path 11477" d="M538.814,552.129a2.951,2.951,0,0,1,1.974,3.807,3.307,3.307,0,0,1-3.63,2.648,2.951,2.951,0,0,1-1.974-3.807A3.308,3.308,0,0,1,538.814,552.129Z" transform="translate(-476.032 -485.497)" fill="#feed7f" fill-rule="evenodd"/>
      <path id="Path_11478" data-name="Path 11478" d="M561.453,599.093l7.878-.43a1.721,1.721,0,0,1,1.822,1.727v3.952a1.879,1.879,0,0,1-1.758,1.858l-7.878.43A1.721,1.721,0,0,1,559.7,604.9v-3.953A1.879,1.879,0,0,1,561.453,599.093Z" transform="translate(-491.001 -513.806)" fill="#d1ccc4" fill-rule="evenodd"/>
      <path id="Path_11479" data-name="Path 11479" d="M562.4,600.6l7.878-.43a1.129,1.129,0,0,1,1.2,1.138v3.952a1.287,1.287,0,0,1-1.2,1.268l-7.878.43a1.129,1.129,0,0,1-1.2-1.137v-3.953A1.288,1.288,0,0,1,562.4,600.6Z" transform="translate(-491.916 -514.72)" fill="#dbdddd" fill-rule="evenodd"/>
      <path id="Path_11480" data-name="Path 11480" d="M562.818,605.856a10.077,10.077,0,0,0-.03,1.865,2.412,2.412,0,0,0,.542,1.29c.763.855,1.791.488,2.721.267a2.421,2.421,0,0,1-2.215-.709,3.717,3.717,0,0,1-.973-2.18Z" transform="translate(-492.859 -518.178)" fill="#fff" fill-rule="evenodd"/>
      <g id="Group_4312" data-name="Group 4312" transform="translate(55.388 4.492)">
        <g id="Group_4306" data-name="Group 4306" transform="translate(36.155 45.654)">
          <path id="Path_11481" data-name="Path 11481" d="M620.287,510.839c-.1.584-.379,1.834-1.14,1.612l-.013,0c-.72-.284-1.068-1.544-1.195-2.261A19.23,19.23,0,0,0,620.287,510.839Z" transform="translate(-617.939 -510.185)" fill="#e8d4bf" fill-rule="evenodd"/>
          <path id="Path_11482" data-name="Path 11482" d="M618.363,510.334c.125.652.454,1.811,1.085,2.06.539.157.808-.709.947-1.5A19.319,19.319,0,0,1,618.363,510.334Z" transform="translate(-618.197 -510.276)" fill="#f2e8c7" fill-rule="evenodd"/>
        </g>
        <g id="Group_4307" data-name="Group 4307" transform="translate(18.855)">
          <path id="Path_11483" data-name="Path 11483" d="M578.323,401.543a.816.816,0,0,1-.054.27c-.3.781-1.6.883-2.3.824-.888-.076-2.182-.5-2.126-1.612a13.091,13.091,0,0,1,.5-2.518,4.861,4.861,0,0,0-.093-3.111c-.02-.054-.038-.109-.053-.165-.112-.4-.175-1.121.255-1.359.337-.187.706.069.947.295l.007.007A9.4,9.4,0,0,1,578.323,401.543Z" transform="translate(-573.839 -393.808)" fill="#e8d4bf" fill-rule="evenodd"/>
          <path id="Path_11484" data-name="Path 11484" d="M578.464,401.932a9.13,9.13,0,0,0-2.842-7.182c-.841-.791-1,.21-.734.954.873,2.342-.282,3.712-.4,5.73C574.422,403.106,578.43,403.194,578.464,401.932Z" transform="translate(-574.235 -394.205)" fill="#f0eada" fill-rule="evenodd"/>
          <path id="Path_11485" data-name="Path 11485" d="M578.146,400.351q-.074-.181-.157-.36a5.023,5.023,0,0,0-2.268-.42,10.258,10.258,0,0,1,2.425.78Zm-1.017-1.843h0c-.051-.072-.1-.143-.156-.215a3.459,3.459,0,0,0-1.341.276,13.146,13.146,0,0,1,1.5-.061Zm-2.026,3.568h0c-.035.137-.07.274-.1.413a7.078,7.078,0,0,1,3.472-.194A4.185,4.185,0,0,0,575.1,402.076Z" transform="translate(-574.544 -396.534)" fill="#e8d4bf" fill-rule="evenodd"/>
        </g>
        <g id="Group_4308" data-name="Group 4308" transform="translate(18.86 4.553)">
          <path id="Path_11486" data-name="Path 11486" d="M573.9,406.02s.626-1.061,2.581-.375a3.434,3.434,0,0,1,2.245,2.528l-3.94-.931Z" transform="translate(-573.882 -405.414)" fill="#337321" fill-rule="evenodd"/>
          <path id="Path_11487" data-name="Path 11487" d="M573.852,406.579s.591-.922,2.546-.235a3.435,3.435,0,0,1,2.281,2.388l-3.941-.931Z" transform="translate(-573.852 -405.824)" fill="#0db02b" fill-rule="evenodd"/>
        </g>
        <path id="Path_11488" data-name="Path 11488" d="M544.218,416.072a1.42,1.42,0,0,0,.932.857l-.005.011,2.06.952-.04.014C544.127,418.989,542.854,417.332,544.218,416.072Z" transform="translate(-536.652 -407.338)" fill="#337321" fill-rule="evenodd"/>
        <path id="Path_11489" data-name="Path 11489" d="M654.411,484.7c.192-1.565-.552-2.36-1.517-1.854a2.926,2.926,0,0,0-.925,3.245C652.473,487.373,654.2,486.07,654.411,484.7Z" transform="translate(-602.375 -447.824)" fill="#337321" fill-rule="evenodd"/>
        <g id="Group_4309" data-name="Group 4309" transform="translate(46.705 42.472)">
          <path id="Path_11490" data-name="Path 11490" d="M646.1,504.6c-.821.334-1.115-1.013-1.262-1.543a.152.152,0,0,1,.079-.178c.093-.047.194-.113.284-.167.177-.1.355-.206.536-.3.208-.111,1.032-.588,1.162-.18a.15.15,0,0,1,.007.056c-.048.741-.025,1.909-.793,2.307Z" transform="translate(-644.832 -502.074)" fill="#e8d4bf" fill-rule="evenodd"/>
          <path id="Path_11491" data-name="Path 11491" d="M645.223,503.253c.146-.074,1.67-1.045,1.767-.739-.043.668-.018,1.821-.711,2.181C645.7,504.929,645.456,504.1,645.223,503.253Z" transform="translate(-645.069 -502.305)" fill="#fdf2d8" fill-rule="evenodd"/>
        </g>
        <path id="Path_11492" data-name="Path 11492" d="M535.937,465.23c-3.191-1.273-7.092.189-9.2,1.5-3.814,2.957,4.936,7.08,6.117,9.809C532.85,476.535,536,465.327,535.937,465.23Z" transform="translate(-525.776 -436.914)" fill="#337321" fill-rule="evenodd"/>
        <path id="Path_11493" data-name="Path 11493" d="M533.645,468.613c-5.761-.108-6.173,2.355-4.373,4.191C529.166,471.655,527.4,469.671,533.645,468.613Z" transform="translate(-527.326 -439.265)" fill="#54c247" fill-rule="evenodd"/>
        <path id="Path_11494" data-name="Path 11494" d="M538.657,445.82c-3.191-1.273-7.092.188-9.2,1.5-3.814,2.957,4.936,7.08,6.117,9.809C535.57,457.124,538.716,445.916,538.657,445.82Z" transform="translate(-527.429 -425.118)" fill="#337321" fill-rule="evenodd"/>
        <path id="Path_11495" data-name="Path 11495" d="M535.506,448.029c-5.713.65-5.8,3.141-3.774,4.721C531.475,451.628,529.464,449.9,535.506,448.029Z" transform="translate(-528.665 -426.758)" fill="#54c247" fill-rule="evenodd"/>
        <path id="Path_11496" data-name="Path 11496" d="M556.484,407.173c-.781-4.848-6.813-9.551-9.152-11.368-4.729-2.894-3.43,11.672-5.054,14.929C542.278,410.734,556.437,407.309,556.484,407.173Z" transform="translate(-535.804 -394.792)" fill="#337321" fill-rule="evenodd"/>
        <path id="Path_11497" data-name="Path 11497" d="M539.027,418.495c-3.191-1.273-7.292-.015-9.2,1.5-3.814,2.957,4.936,7.079,6.117,9.809C535.94,429.8,539.086,418.591,539.027,418.495Z" transform="translate(-527.654 -408.492)" fill="#337321" fill-rule="evenodd"/>
        <path id="Path_11498" data-name="Path 11498" d="M535.348,420.1c-5.829,1.062-5.743,3.629-3.555,5.113C531.452,424.074,529.265,422.433,535.348,420.1Z" transform="translate(-528.597 -409.783)" fill="#0db02b" fill-rule="evenodd"/>
        <path id="Path_11499" data-name="Path 11499" d="M555.671,403.139c-4.429-5.627-6.939-7.928-7.767-2.253C549.266,396.146,551.849,399.2,555.671,403.139Z" transform="translate(-539.223 -396.116)" fill="#0db02b" fill-rule="evenodd"/>
        <path id="Path_11500" data-name="Path 11500" d="M548.37,406.917a5.766,5.766,0,0,1,4.534-.816c3.714.921,6.264,5.455,6.217,9.107.161.858.336,1.719.552,2.564a11.959,11.959,0,0,0,.517,1.634c.148.354.4.9.8,1.036a5.065,5.065,0,0,0,1.44.016c3.583-.159,8.107,1.373,11.264,2.979,3.5,1.781,7.731,4.86,8.849,8.9l.045-.011.255.461a9.564,9.564,0,0,1,.911,6.865c-.5,2.04-1.975,4.585-4.265,4.829a7.994,7.994,0,0,1-5.039,3.358c-2.967.555-6.154-.641-8.793-1.905-1.4-.672-4.287-2.5-4.287-2.5-3.719,4.731-28.162,5.353-24.438-14.464l.022-.05.013-.024c.9-1.692,2.092-3.66,2.328-5.582a5.31,5.31,0,0,0-.189-2.233,15.277,15.277,0,0,1,.12-10.338c.987-2.3,2.906-4.366,5.508-4.672A5.664,5.664,0,0,1,548.37,406.917Z" transform="translate(-532.32 -401.179)" fill="#337321" fill-rule="evenodd"/>
        <path id="Path_11501" data-name="Path 11501" d="M559.467,416.325c1.209,6.449,1.978,5.966,4.022,5.875,6.421-.286,19.7,5.539,19.681,13.27a10.827,10.827,0,0,0,.1-1.288c2.269,4.1.8,9.329-2.457,10.687a5.277,5.277,0,0,0,.558-2.193c-5.3,11.723-13.911,3.115-19.736.967-4.282,5.347-26.464,4.131-23.04-13.364,1.46-2.758,3.1-5.363,2.188-8.334-3.144-10.264,3.5-16.78,8.616-13.149C554.625,405.088,559.578,411.407,559.467,416.325Z" transform="translate(-533.351 -402.239)" fill="#54c247" fill-rule="evenodd"/>
        <path id="Path_11502" data-name="Path 11502" d="M585.348,414.095c.86-.59,5.054.622,1.976,2.544C586.685,416.714,584.262,414.9,585.348,414.095Z" transform="translate(-561.81 -406.045)" fill="#337321" fill-rule="evenodd"/>
        <path id="Path_11503" data-name="Path 11503" d="M538.011,435.321c-.142-.27-.82-3.681.842-5.914l.068-.128.068-.128h0l.067-.128.067-.128.067-.128.066-.127h0l.065-.127.065-.127h0l.064-.127.063-.128h0l.063-.127.062-.127.06-.127.06-.128.058-.127h0l.057-.127.057-.127.055-.128c.018-.042.036-.085.053-.127h0l.052-.128.051-.128c.016-.042.033-.085.049-.128h0c.016-.043.032-.086.047-.128s.031-.085.046-.128l.044-.129h0q.022-.064.042-.128c.014-.043.027-.086.04-.129h0c.013-.043.026-.086.039-.129h0c.012-.043.024-.086.036-.129l.035-.129c.011-.043.022-.086.032-.129s.02-.086.03-.13.019-.087.027-.13.018-.087.026-.13.016-.087.023-.131.014-.087.021-.131.013-.087.018-.131.011-.087.016-.131.009-.088.013-.132.007-.088.01-.132.006-.088.008-.132,0-.089.005-.133h0c0-.044,0-.089,0-.133s0-.089,0-.133,0-.089,0-.134h0c0-.045,0-.09-.007-.135h0c0-.045-.006-.09-.01-.135h0c0-.045-.008-.09-.013-.135s-.01-.09-.016-.135h0c-.006-.046-.013-.091-.02-.136h0c-.007-.046-.015-.091-.023-.137s-.017-.091-.026-.137-.02-.092-.03-.138h0c-.011-.046-.022-.092-.033-.138h0c-.012-.046-.024-.092-.037-.138h0q-.019-.069-.04-.139h0l0-.011c-.042-.138-.082-.276-.121-.413l-.027-.1q-.056-.2-.108-.406l-.018-.073q-.047-.185-.089-.368l-.017-.072q-.045-.2-.084-.394l-.02-.1c-.026-.134-.052-.267-.075-.4l0-.018c-.022-.127-.042-.255-.062-.381l-.014-.094q-.028-.189-.051-.376l-.009-.077c-.014-.115-.026-.228-.037-.342l-.006-.062q-.018-.185-.03-.368l-.006-.091c-.008-.124-.015-.247-.02-.368v-.027c0-.117-.007-.232-.009-.347v-.08q0-.174,0-.346l0-.085c0-.1,0-.2.009-.3l0-.061c0-.113.011-.224.019-.335l.007-.088c.008-.11.017-.22.028-.328l.005-.05c.01-.1.021-.2.034-.292l.01-.079c.014-.106.029-.21.045-.313l.012-.073c.015-.093.031-.184.049-.275l.01-.056c.019-.1.04-.2.061-.3l.02-.087c.022-.1.044-.192.069-.286l.017-.065c.021-.08.043-.16.065-.239l.023-.081q.039-.134.082-.267l.027-.083q.038-.114.077-.226l.02-.058c.031-.086.064-.171.1-.255l.033-.082q.049-.123.1-.243l.033-.074q.041-.093.084-.184l.04-.084q.054-.113.111-.223l.042-.08c.032-.061.065-.121.1-.181l.042-.077c.037-.065.075-.128.113-.191l.049-.081c.041-.066.083-.132.125-.2l.051-.075.1-.14.056-.079c.042-.059.086-.117.13-.174l.064-.082.1-.126.082-.1c.036-.042.072-.084.109-.124l.071-.079c.046-.05.093-.1.14-.149l.069-.069.1-.1.076-.073c.048-.044.1-.088.145-.13l.081-.07.1-.082.124-.1.1-.076.091-.066c.044-.031.088-.062.132-.091l.016-.011c.555.332,1.922.434,2.508.748a.944.944,0,0,1,.228,1.515c-.871,2.185-4.687,1.82-4.693,4.88.305,10.993,4.783,9.928-3.306,19.349Zm5.6-26.7h0c3.777-.763,4.545.559,8.969,1.9a21.373,21.373,0,0,1-3.354-1.654l-.119.081a4.955,4.955,0,0,0-4.419-.8l-.042.014-.045.015a6.484,6.484,0,0,0-.989.442Z" transform="translate(-533.055 -402.394)" fill="#0db02b" fill-rule="evenodd"/>
        <path id="Path_11504" data-name="Path 11504" d="M571.037,437.466c.475,1.734.93,2.453,1.5,2.731a61.32,61.32,0,0,0-6.88,2.688c-2.751.988-8.182,2.777-9.482-3.787C561.4,438.364,566.012,438.061,571.037,437.466Z" transform="translate(-544.251 -420.339)" fill="#0db02b" fill-rule="evenodd"/>
        <path id="Path_11505" data-name="Path 11505" d="M637.118,482.988c-.344-.934-.991-1.167-1.387-.6a1.849,1.849,0,0,0,.416,2.09C636.8,485.05,637.4,483.819,637.118,482.988Z" transform="translate(-592.488 -447.452)" fill="#337321" fill-rule="evenodd"/>
        <path id="Path_11506" data-name="Path 11506" d="M636.11,479.849c-1.174-.991-1.948-.74-2.231.615C633.66,478.638,635.339,478.51,636.11,479.849Z" transform="translate(-591.458 -445.551)" fill="#337321" fill-rule="evenodd"/>
        <path id="Path_11507" data-name="Path 11507" d="M654.768,484.031c-.459-1.214-1.134-1.347-1.9-.463C653.457,482.129,654.748,482.725,654.768,484.031Z" transform="translate(-603.01 -447.848)" fill="#337321" fill-rule="evenodd"/>
        <path id="Path_11508" data-name="Path 11508" d="M546.08,405.625a.829.829,0,0,1,.07.266c.072.832-1.058,1.5-1.714,1.746-.832.319-2.183.5-2.616-.523a13.1,13.1,0,0,1-.644-2.486,4.861,4.861,0,0,0-1.44-2.759c-.042-.04-.082-.082-.12-.125-.274-.308-.647-.932-.363-1.334.222-.315.665-.246.98-.147l.01,0A9.411,9.411,0,0,1,546.08,405.625Z" transform="translate(-533.904 -397.681)" fill="#e8d4bf" fill-rule="evenodd"/>
        <path id="Path_11509" data-name="Path 11509" d="M546.248,406.124a9.133,9.133,0,0,0-5.69-5.223c-1.1-.345-.809.625-.244,1.179,1.808,1.727,1.366,3.463,2.142,5.329C543.122,408.943,546.766,407.275,546.248,406.124Z" transform="translate(-534.305 -398.075)" fill="#f2e8c7" fill-rule="evenodd"/>
        <path id="Path_11510" data-name="Path 11510" d="M545.724,403.98q-.145-.13-.3-.255a5.021,5.021,0,0,0-2.224.612,10.251,10.251,0,0,1,2.522-.357ZM544,402.766h0q-.115-.064-.233-.126a3.447,3.447,0,0,0-1.086.833,13.075,13.075,0,0,1,1.32-.708Zm-.266,4.094h0q.041.208.088.417a7.08,7.08,0,0,1,3.039-1.689A4.187,4.187,0,0,0,543.738,406.86Z" transform="translate(-536.052 -399.175)" fill="#e8d4bf" fill-rule="evenodd"/>
        <path id="Path_11511" data-name="Path 11511" d="M629.061,457.828c-.593,1.519-5.452-5.8-10.55-6.551C622.763,451.033,629.619,456.447,629.061,457.828Z" transform="translate(-582.131 -428.727)" fill="#a1de9a" fill-rule="evenodd"/>
        <path id="Path_11512" data-name="Path 11512" d="M654.145,485.077c.18-1.471-.519-2.218-1.426-1.743a2.752,2.752,0,0,0-.87,3.051C652.323,487.592,653.948,486.367,654.145,485.077Z" transform="translate(-602.307 -448.127)" fill="#54c247" fill-rule="evenodd"/>
        <path id="Path_11513" data-name="Path 11513" d="M654.4,486.378c.121-.988-.349-1.49-.958-1.171a1.849,1.849,0,0,0-.584,2.049C653.178,488.067,654.27,487.244,654.4,486.378Z" transform="translate(-602.949 -449.293)" fill="#337321" fill-rule="evenodd"/>
        <path id="Path_11514" data-name="Path 11514" d="M544.825,413.768s.66,1.131,2.541.461,1.777-1.969,1.527-2.255c3.118.785.891,2.636-1.181,3.356C544.762,416.355,543.755,415.157,544.825,413.768Z" transform="translate(-537.1 -404.848)" fill="#54c247" fill-rule="evenodd"/>
        <path id="Path_11515" data-name="Path 11515" d="M558.369,416.691c-2.633.353-4.367,3.624-3.874,7.3a6.626,6.626,0,0,0,2.841,5.332,17.485,17.485,0,0,1,5.887-2.167,7.429,7.429,0,0,0,.808-4.444C563.537,419.036,561,416.338,558.369,416.691Z" transform="translate(-543.178 -407.695)" fill="#337321" fill-rule="evenodd"/>
        <path id="Path_11516" data-name="Path 11516" d="M559.312,418.05c-2.436.326-4.04,3.351-3.583,6.756a6.063,6.063,0,0,0,2.839,5.058,18.174,18.174,0,0,1,5.064-1.8,6.942,6.942,0,0,0,.916-4.436C564.091,420.219,561.747,417.724,559.312,418.05Z" transform="translate(-543.931 -408.523)" fill="#fff" fill-rule="evenodd"/>
        <g id="Group_4310" data-name="Group 4310" transform="translate(14.14 11.931)">
          <path id="Path_11517" data-name="Path 11517" d="M565.475,424.235c1.741.2,2.929,2.329,2.653,4.763-.015,3.2-3.471,5.775-5.547,2.5a4.973,4.973,0,0,1-.755-3.216C562.1,425.851,563.735,424.038,565.475,424.235Z" transform="translate(-561.822 -424.221)" fill="#54c247" fill-rule="evenodd"/>
          <path id="Path_11518" data-name="Path 11518" d="M567.086,426.334c1.492.169,2.51,2,2.274,4.082-.013,2.739-2.976,4.95-4.755,2.144a4.263,4.263,0,0,1-.648-2.756C564.193,427.719,565.594,426.165,567.086,426.334Z" transform="translate(-563.117 -425.498)" fill="#212121" fill-rule="evenodd"/>
          <path id="Path_11519" data-name="Path 11519" d="M567.3,426.153c.529.06.891.708.807,1.448,0,.972-1.056,1.756-1.687.761a1.514,1.514,0,0,1-.23-.978C566.279,426.645,566.776,426.093,567.3,426.153Z" transform="translate(-564.479 -425.392)" fill="#fdfdfd" fill-rule="evenodd"/>
          <path id="Path_11520" data-name="Path 11520" d="M564.723,426.026c.308.035.518.412.47.843,0,.566-.615,1.023-.982.443a.879.879,0,0,1-.134-.57C564.125,426.312,564.414,425.991,564.723,426.026Z" transform="translate(-563.191 -425.316)" fill="#fdfdfd" fill-rule="evenodd"/>
          <path id="Path_11521" data-name="Path 11521" d="M570.409,433.563c.208.024.35.278.317.568,0,.381-.414.689-.662.3a.6.6,0,0,1-.09-.384C570.006,433.756,570.2,433.54,570.409,433.563Z" transform="translate(-566.775 -429.897)" fill="#fdfdfd" fill-rule="evenodd"/>
        </g>
        <path id="Path_11522" data-name="Path 11522" d="M584.74,414.66c.847-.581,4.848.439,1.946,2.505C586.062,417.247,583.943,414.777,584.74,414.66Z" transform="translate(-561.501 -406.382)" fill="#54c247" fill-rule="evenodd"/>
        <path id="Path_11523" data-name="Path 11523" d="M583.974,417.389c-2.244.128-3.919,2.774-3.741,5.912a5.791,5.791,0,0,0,1.263,3.919,23.406,23.406,0,0,1,5.363.072c.1-.121.2-.249.3-.387a6.382,6.382,0,0,0,1.2-4.065C588.182,419.7,586.218,417.261,583.974,417.389Z" transform="translate(-558.862 -408.135)" fill="#337321" fill-rule="evenodd"/>
        <path id="Path_11524" data-name="Path 11524" d="M584.441,418.454c-2.078.118-3.628,2.568-3.464,5.473a5.315,5.315,0,0,0,1.412,3.9,23.475,23.475,0,0,1,4.486.055,5.355,5.355,0,0,0,.515-.62,5.906,5.906,0,0,0,1.11-3.763C588.337,420.6,586.519,418.336,584.441,418.454Z" transform="translate(-559.315 -408.783)" fill="#fff" fill-rule="evenodd"/>
        <g id="Group_4311" data-name="Group 4311" transform="translate(23.087 12.014)">
          <path id="Path_11525" data-name="Path 11525" d="M588.624,424.507c1.541.418,2.315,2.5,1.73,4.657a3.948,3.948,0,0,1-2.233,3,23.177,23.177,0,0,0-2.5-.544,3.582,3.582,0,0,1-.61-.974,4.532,4.532,0,0,1-.236-3C585.361,425.5,587.084,424.089,588.624,424.507Z" transform="translate(-584.628 -424.433)" fill="#54c247" fill-rule="evenodd"/>
          <path id="Path_11526" data-name="Path 11526" d="M589.941,426.521c1.32.359,1.984,2.146,1.483,3.991a3.107,3.107,0,0,1-2.715,2.739q-.371-.092-.744-.173a2.452,2.452,0,0,1-1.12-1.293,3.883,3.883,0,0,1-.2-2.572C587.144,427.369,588.621,426.163,589.941,426.521Z" transform="translate(-585.776 -425.664)" fill="#212121" fill-rule="evenodd"/>
          <path id="Path_11527" data-name="Path 11527" d="M590.769,426.007a1.1,1.1,0,0,1,.526,1.416c-.138.874-1.194,1.435-1.625.452a1.375,1.375,0,0,1-.072-.912C589.777,426.308,590.3,425.88,590.769,426.007Z" transform="translate(-587.622 -425.376)" fill="#fdfdfd" fill-rule="evenodd"/>
          <path id="Path_11528" data-name="Path 11528" d="M588.6,425.448a.64.64,0,0,1,.307.825c-.081.509-.7.836-.946.263a.8.8,0,0,1-.042-.531C588.023,425.623,588.328,425.374,588.6,425.448Z" transform="translate(-586.612 -425.042)" fill="#fdfdfd" fill-rule="evenodd"/>
          <path id="Path_11529" data-name="Path 11529" d="M592.743,432.983a.432.432,0,0,1,.206.556c-.054.344-.468.564-.638.177a.54.54,0,0,1-.028-.358C592.353,433.1,592.559,432.934,592.743,432.983Z" transform="translate(-589.27 -429.624)" fill="#fdfdfd" fill-rule="evenodd"/>
        </g>
        <path id="Path_11530" data-name="Path 11530" d="M558.691,445.853c2.217-2.5,9.2-4.292,15-3.524.159.713,2.408-.268,2.039.83-2.637.465-7.2,1.781-8.8,2.834a10.725,10.725,0,0,1,4.5-2.694C567.1,443.35,562.572,443.717,558.691,445.853Z" transform="translate(-545.779 -423.186)" fill="#337321" fill-rule="evenodd"/>
        <path id="Path_11531" data-name="Path 11531" d="M576.77,477.248a6.1,6.1,0,0,1,2.593-3.5c1.963-1.206,4.019-.176,4.067,1.39.052,1.724-1.968,3.619-2.311,6.788a18.9,18.9,0,0,1-3.344-3.017C577.076,477.812,576.77,477.248,576.77,477.248Z" transform="translate(-556.765 -442.065)" fill="#c7252e" fill-rule="evenodd"/>
        <path id="Path_11532" data-name="Path 11532" d="M580.066,481.719a5.574,5.574,0,0,1-.459-.528,26.606,26.606,0,0,1,3.482-4.469C582.053,478.41,580.849,479.535,580.066,481.719Z" transform="translate(-558.489 -444.195)" fill="#b01c2e" fill-rule="evenodd"/>
        <path id="Path_11533" data-name="Path 11533" d="M573.336,464.025c-1.561-.033-2-.362-3.529,1.084C570.708,463.218,571.628,463.248,573.336,464.025Z" transform="translate(-552.534 -436.176)" fill="#337321" fill-rule="evenodd"/>
        <path id="Path_11534" data-name="Path 11534" d="M573.242,463.642c.677,8.281,3.093,10.9,11.752,15.016C573.8,476.712,572.553,468.508,573.242,463.642Z" transform="translate(-554.528 -436.246)" fill="#337321" fill-rule="evenodd"/>
      </g>
      <g id="Group_4314" data-name="Group 4314" transform="translate(26.586 43.845)">
        <path id="Path_11535" data-name="Path 11535" d="M467.906,498.825c5.435.552,2.983-2.542.846-4.7C470.687,497.108,471.825,498.217,467.906,498.825Z" transform="translate(-461.807 -494.123)" fill="#0db02b" fill-rule="evenodd"/>
        <g id="Group_4313" data-name="Group 4313" transform="translate(0 2.418)">
          <path id="Path_11536" data-name="Path 11536" d="M457.871,500.287c3.526,6.591-1.663,5.1-5.511,3.518C457.144,504.7,459.14,505.563,457.871,500.287Z" transform="translate(-452.36 -500.287)" fill="#0db02b" fill-rule="evenodd"/>
          <path id="Path_11537" data-name="Path 11537" d="M470.128,504.273c3.166,2.947.046,3.1-2.357,2.959C470.557,506.825,471.812,506.923,470.128,504.273Z" transform="translate(-461.725 -502.709)" fill="#0db02b" fill-rule="evenodd"/>
          <path id="Path_11538" data-name="Path 11538" d="M457.244,511.514c2.839,5.307-1.339,4.105-4.437,2.833C456.659,515.067,458.266,515.762,457.244,511.514Z" transform="translate(-452.632 -507.11)" fill="#0db02b" fill-rule="evenodd"/>
          <path id="Path_11539" data-name="Path 11539" d="M468.663,511.66c3.166,2.946.046,3.1-2.357,2.959C469.093,514.212,470.347,514.31,468.663,511.66Z" transform="translate(-460.835 -507.198)" fill="#0db02b" fill-rule="evenodd"/>
        </g>
      </g>
      <path id="Path_11540" data-name="Path 11540" d="M562.516,527.493l3.957-1.225.137.391a22.256,22.256,0,0,1,.747,2.654c.166.778.448,2.266-.051,2.958a2.348,2.348,0,0,1-3.759.288c-.736-.964-.974-3.493-1.019-4.737Z" transform="translate(-492.716 -469.812)" fill="#337321" fill-rule="evenodd"/>
      <path id="Path_11541" data-name="Path 11541" d="M563.641,528.631s.122,3.432.931,4.492a1.921,1.921,0,0,0,3.07-.279c.725-1-.754-5.218-.754-5.218Z" transform="translate(-493.399 -470.637)" fill="#54c247" fill-rule="evenodd"/>
      <path id="Path_11542" data-name="Path 11542" d="M538.407,497.74a6.884,6.884,0,0,1,5.261,3.447,9.165,9.165,0,0,1,1.209,3.517l.111.834h-3.5l-.152-.535a4.865,4.865,0,0,0-.575-1.291,3.529,3.529,0,0,0-2.73-1.708,4.145,4.145,0,0,0-3.261,1.423,5.86,5.86,0,0,0-1.089,1.668l-.193.443h-3.955l.262-.935a10.356,10.356,0,0,1,2.364-4.263A7.627,7.627,0,0,1,538.407,497.74Z" transform="translate(-472.674 -452.458)" fill="#64540c" fill-rule="evenodd"/>
      <path id="Path_11543" data-name="Path 11543" d="M539.842,499.616a6.152,6.152,0,0,1,4.7,3.094,8.422,8.422,0,0,1,1.109,3.234h-2.1a5.594,5.594,0,0,0-.663-1.486,4.263,4.263,0,0,0-3.3-2.045,4.855,4.855,0,0,0-3.849,1.654,6.6,6.6,0,0,0-1.226,1.878h-2.5a9.622,9.622,0,0,1,2.193-3.959A6.887,6.887,0,0,1,539.842,499.616Z" transform="translate(-474.177 -453.6)" fill="#8c7402" fill-rule="evenodd"/>
      <g id="Group_4315" data-name="Group 4315" transform="translate(65.854 48.894)">
        <path id="Path_11544" data-name="Path 11544" d="M554.212,511.87a5.046,5.046,0,0,0,.237.477,1.414,1.414,0,0,0,.326,2.306l.228.489c-.869,1.639,2.045,3.012,4.662,2.436,1.889-.6,3.058-3.273,1.006-4.489a3.107,3.107,0,0,1,.358-2.834c.858-1.194-.159-2.592-2.038-2.939-2.141-.432-4.164-.5-4.9.241-1.187-.333-2.013.939-1.468,2.246.2.767-.509,2.266.425,2.259A2.382,2.382,0,0,0,554.212,511.87Z" transform="translate(-552.456 -506.993)" fill="#5e5d5d" fill-rule="evenodd"/>
        <path id="Path_11545" data-name="Path 11545" d="M554.889,510.265a2,2,0,0,0,.017,2.3c.726.687,1.867.787,2.785,1.127a1.908,1.908,0,0,1,.218-.446,1.607,1.607,0,0,0,.128,1.031c-.068-.116-.234-.257-.266-.373a8.387,8.387,0,0,1-2.883-1.16,1.306,1.306,0,0,0,.2,2.028,4.115,4.115,0,0,0,3.178.409,2.471,2.471,0,0,1-.53.3c-.015.111.09.134.386.316a5.392,5.392,0,0,0-.9-.226,13.764,13.764,0,0,1-1.875-.507l.167.357a1.689,1.689,0,0,0-.091.205c.732.347,2.608,1.067,4.038.235,1.651-.94.963-1.79,1.14-2.952a3.162,3.162,0,0,1,.484-2.374c.858-1.195-.109-2.389-1.987-2.737-3.34-.674-5.952-.621-4.246,2.19,1.255,1.3,3.272,1.344,2.946,2.2-.161-.725-1.867-.955-2.9-1.919Zm-.646-2.3h0c-.3.441-.231,1.114.384,2.085-.073.574-.592.868-.23,1.893a1.708,1.708,0,0,1-.909.219c-.934.006-.226-1.244-.425-2.011-.506-1.212.14-2.309,1.179-2.186Zm1.122,7.828h0c1.195.376,2.148,1.14,4.123.23,1.732-1.035,1.294-1.393,1.246-2.647,2.032,1.219.991,3.63-.894,4.226C557.426,518.136,555.042,517.227,555.365,515.8Z" transform="translate(-552.718 -507.266)" fill="#fdfdfd" fill-rule="evenodd"/>
      </g>
      <g id="Group_4316" data-name="Group 4316" transform="translate(51.686 47.858)">
        <path id="Path_11546" data-name="Path 11546" d="M537.474,510.764c.488.459,1.3.374,1.55,1.448.093.268,2.249-.839,2.245,1.266-.065,1.225-1.708,2.472-3.512,2.036-.419.638-1.242.753-1.824,1.161a1.646,1.646,0,0,1-1.877,1.015C532.747,517.251,535.186,509.514,537.474,510.764Z" transform="translate(-526.883 -508.166)" fill="#5e5d5d" fill-rule="evenodd"/>
        <path id="Path_11547" data-name="Path 11547" d="M537.251,511.128c.477.448,1.264.377,1.533,1.38-.137.022-.29.04-.462.058,1.2.236,2.8-.633,2.724,1.275-.064,1.2-1.56,2.095-3.285,1.732a2.1,2.1,0,0,1-.989-.707,1.815,1.815,0,0,0,.783.83c-.476.535-1.44.782-1.976,1.158a1.53,1.53,0,0,1-1.455,1C532.815,517.415,535.225,510.443,537.251,511.128Z" transform="translate(-526.922 -508.441)" fill="#fdfdfd" fill-rule="evenodd"/>
        <path id="Path_11548" data-name="Path 11548" d="M526.568,509.274c-.246.734.343,1.375-1.338,2.555.288,1.524-.424,1.948-1.456,2.173l-.47.383c.078,2.083-3.54,2.047-5.906.186-1.619-1.527-1.5-4.8,1.175-5.031A3.489,3.489,0,0,0,519.6,506.5c-.284-1.627,1.427-2.544,3.5-1.978C526.853,505.484,529.878,507.215,526.568,509.274Z" transform="translate(-516.341 -504.353)" fill="#5e5d5d" fill-rule="evenodd"/>
        <path id="Path_11549" data-name="Path 11549" d="M526.526,509.78c-.114.654.3,1.271-1.142,2.32-1.071.341-2.273-.116-3.368-.22a2.125,2.125,0,0,0,0-.558,1.806,1.806,0,0,1-.632.98c.126-.084.362-.146.452-.248a9.417,9.417,0,0,0,3.482.235c.206,1.286-.34,1.722-1.189,1.955a4.623,4.623,0,0,1-3.414-1.139,2.794,2.794,0,0,0,.389.563c-.039.119-.156.092-.545.131a6.057,6.057,0,0,1,1.024.213,15.459,15.459,0,0,0,2.144.4l-.343.28a1.824,1.824,0,0,1-.007.252c-.911-.006-3.159-.195-4.2-1.736-1.211-1.757-.1-2.281.289-3.542a3.552,3.552,0,0,0,.67-2.638c-.284-1.627,1.277-2.364,3.347-1.8,3.708.949,6.323,2.28,3.225,4.289-1.905.7-3.965-.238-4.052.781.517-.654,2.355-.055,3.872-.524Zm-3.183,5.362h0c-1.392-.2-2.729.1-4.282-1.781-1.246-1.894-.628-2.041.033-3.286-2.651.24-2.776,3.188-1.16,4.711C520.114,516.5,522.971,516.746,523.343,515.142Z" transform="translate(-516.666 -504.773)" fill="#fdfdfd" fill-rule="evenodd"/>
      </g>
      <path id="Path_11550" data-name="Path 11550" d="M542.383,553.259a2.549,2.549,0,0,1,1.705,3.289,2.9,2.9,0,0,1-2.967,2.316,3.025,3.025,0,0,0,2.421-2.316,2.55,2.55,0,0,0-1.705-3.289c-.057-.012-.113-.021-.17-.028A2.193,2.193,0,0,1,542.383,553.259Z" transform="translate(-479.714 -486.188)" fill="#fff" fill-rule="evenodd"/>
      <path id="Path_11551" data-name="Path 11551" d="M594.558,551.991c1.2.278,1.881,1.759,1.528,3.308a2.648,2.648,0,0,1-2.7,2.324,2.884,2.884,0,0,0,2.126-2.324c.354-1.549-.33-3.03-1.527-3.308-.037-.008-.073-.016-.11-.022A1.759,1.759,0,0,1,594.558,551.991Z" transform="translate(-511.476 -485.417)" fill="#fff" fill-rule="evenodd"/>
      <path id="Path_11552" data-name="Path 11552" d="M544.314,527.32a10.234,10.234,0,0,1-2.16,3.429,7.81,7.81,0,0,1-5.24,2.5,6.7,6.7,0,0,1-5.287-2.282,8.483,8.483,0,0,1-1.878-3.647l-.1-.408a5.443,5.443,0,0,0,2.072.35,2.181,2.181,0,0,0,1.638-.941l.113.366a4.634,4.634,0,0,0,.871,1.625,3.42,3.42,0,0,0,2.723,1.266,4.212,4.212,0,0,0,2.894-1.382,5.885,5.885,0,0,0,1.151-1.764,1.642,1.642,0,0,0,.528.208c.509.164,2.054.53,2.939-.131Z" transform="translate(-472.743 -469.844)" fill="#64540c" fill-rule="evenodd"/>
      <path id="Path_11553" data-name="Path 11553" d="M544.969,527.422a10.644,10.644,0,0,1-2.082,3.387,7.075,7.075,0,0,1-4.741,2.274,5.912,5.912,0,0,1-4.706-2.038,7.74,7.74,0,0,1-1.712-3.331,3.574,3.574,0,0,0,1.141.151,2.117,2.117,0,0,0,1.163-.391,5.355,5.355,0,0,0,1.012,1.883,4.146,4.146,0,0,0,3.3,1.526,4.934,4.934,0,0,0,3.408-1.609,6.641,6.641,0,0,0,1.31-2.015,4.826,4.826,0,0,0,.717.15A5.19,5.19,0,0,0,544.969,527.422Z" transform="translate(-474.006 -470.414)" fill="#8c7402" fill-rule="evenodd"/>
      <path id="Path_11554" data-name="Path 11554" d="M426.906,560.744a8.183,8.183,0,0,1,1.558,3.721c.55,2.733.168,13.767,5.116,14.331a4.368,4.368,0,0,0,5.27-3.951s-4.31,2.589-6.135-.36C430.388,570.724,429.417,561.188,426.906,560.744Z" transform="translate(-410.305 -490.763)" fill="#1a4d77" fill-rule="evenodd"/>
    </g>
  </g>
</svg>
