<svg xmlns="http://www.w3.org/2000/svg" width="36" height="36" viewBox="0 0 36 36">
  <g id="icon-twitter" transform="translate(-1556 -1589)">
    <circle id="Ellipse_237" data-name="Ellipse 237" cx="18" cy="18" r="18" transform="translate(1592 1589) rotate(90)" fill="#6eccdd"/>
    <g id="twitter-logo-silhouette" transform="translate(1565.368 1600.862)">
      <g id="Group_74" data-name="Group 74" transform="translate(0 0)">
        <path id="Path_67" data-name="Path 67" d="M17.191,59.093a7.042,7.042,0,0,1-2.025.555,3.541,3.541,0,0,0,1.55-1.95,7.109,7.109,0,0,1-2.241.856A3.529,3.529,0,0,0,8.467,61.77,10.012,10.012,0,0,1,1.2,58.085,3.531,3.531,0,0,0,2.29,62.793a3.527,3.527,0,0,1-1.6-.443v.044a3.53,3.53,0,0,0,2.828,3.458,3.572,3.572,0,0,1-.929.124,3.385,3.385,0,0,1-.664-.066,3.528,3.528,0,0,0,3.294,2.449,7.075,7.075,0,0,1-4.38,1.507A7.493,7.493,0,0,1,0,69.818,9.968,9.968,0,0,0,5.406,71.4,9.964,9.964,0,0,0,15.439,61.372l-.012-.457A7.042,7.042,0,0,0,17.191,59.093Z" transform="translate(-0.001 -57.441)" fill="#fff"/>
      </g>
    </g>
  </g>
</svg>
