<svg xmlns="http://www.w3.org/2000/svg" width="218.907" height="310.639" viewBox="0 0 218.907 310.639">
  <g id="Group_6042" data-name="Group 6042" transform="translate(-1413.081 -2535.534)">
    <g id="Group_5857" data-name="Group 5857" transform="translate(1453.24 2535.534)">
      <path id="Path_11768" data-name="Path 11768" d="M1381.183,734.788h-25.155l4.838-271.252h15.478Z" transform="translate(-1279.071 -424.149)" fill="#7d6443"/>
      <path id="Path_11769" data-name="Path 11769" d="M1495.927,535.735a84.061,84.061,0,1,1-84.061-84.059A84.061,84.061,0,0,1,1495.927,535.735Z" transform="translate(-1317.18 -440.164)" fill="#359a53"/>
      <path id="Path_11770" data-name="Path 11770" d="M1491.406,530.839a84.061,84.061,0,1,1-84.061-84.061A84.062,84.062,0,0,1,1491.406,530.839Z" transform="translate(-1323.284 -446.778)" fill="#84c73d"/>
    </g>
    <g id="Group_5858" data-name="Group 5858" transform="translate(1413.081 2642.363)">
      <path id="Path_11768-2" data-name="Path 11768" d="M1372.533,641.5h-16.5l3.175-177.968h10.155Z" transform="translate(-1305.537 -437.695)" fill="#7d6443"/>
      <path id="Path_11769-2" data-name="Path 11769" d="M1438.11,506.827a55.152,55.152,0,1,1-55.152-55.151A55.152,55.152,0,0,1,1438.11,506.827Z" transform="translate(-1320.834 -444.123)" fill="#359a53"/>
      <path id="Path_11770-2" data-name="Path 11770" d="M1433.588,501.93a55.152,55.152,0,1,1-55.152-55.152A55.153,55.153,0,0,1,1433.588,501.93Z" transform="translate(-1323.284 -446.778)" fill="#84c73d"/>
    </g>
  </g>
</svg>
