<svg xmlns="http://www.w3.org/2000/svg" width="126.379" height="326.497" viewBox="0 0 126.379 326.497">
  <g id="Pagoda" transform="translate(0)">
    <rect id="Rectangle_10198" data-name="Rectangle 10198" width="62.698" height="156.799" transform="translate(32.425 72.432)" fill="#7c4b2a"/>
    <rect id="Rectangle_10199" data-name="Rectangle 10199" width="9.655" height="26.552" transform="translate(58.804 0)" fill="#a06137"/>
    <path id="Path_10415" data-name="Path 10415" d="M-410.247,105.452l-.177-.176,1.747-1.963s8.242,1.952,11.738-3.542c0,0,.5-.044,1-.044h.265L-385.7,85.15h6.742l9.974,14.577h.015a9.3,9.3,0,0,1,1,.062c3.5,5.5,11.738,3.778,11.738,3.778l1.747,1.819-.177.067h.177l-1.249,2.6h-20.477l-5.994,5.993-6.1-5.993h-20.867l-.75-1.041h.037l-.535-1.562Z" transform="translate(445.645 -67.182)" fill="#e0874b"/>
    <path id="Path_10416" data-name="Path 10416" d="M-470.914,470.685l-.4-1.023,3.946-4.747s18.62,3.538,26.519-8.876a4.167,4.167,0,0,1,2.256-.972h.6l22.535-33.319h15.232l22.533,33.319h.035a4.411,4.411,0,0,1,2.256.857c7.9,12.413,26.519,8.895,26.519,8.895l3.95,4.91-.4.956h.4l-2.824,3.123h-46.264l-13.541,13.54-13.786-13.54H-468.5l-1.694-2.082h.084l-1.209-1.041Z" transform="translate(471.315 -209.08)" fill="#e0874b"/>
    <path id="Path_10417" data-name="Path 10417" d="M-435.071,484.247l-.269-.752,2.646-3.216s12.489,2.453,17.786-5.873a2.98,2.98,0,0,1,1.514-.571h.4l15.114-22.385h10.216l15.112,22.385h.024a3.309,3.309,0,0,1,1.513.477c5.3,8.327,17.786,5.917,17.786,5.917l2.649,3.335-.269.683h.269l-1.894,2.082H-383.5l-9.082,9.081-9.246-9.081h-31.619l-1.136-2.082h-.486Z" transform="translate(456.149 -221.601)" fill="#efa26f"/>
    <g id="Group_2446" data-name="Group 2446" transform="translate(26.381 212.149)">
      <path id="Path_10418" data-name="Path 10418" d="M-414.954,427.59H-353.6a6.2,6.2,0,0,0-6.2-6.2h-48.956a6.2,6.2,0,0,0-6.2,6.2Z" transform="translate(420.997 -421.078)" fill="#e0874b"/>
      <g id="Group_2445" data-name="Group 2445">
        <path id="Path_10419" data-name="Path 10419" d="M-425.724,431.275h0a2,2,0,0,0,2-2v-3.487a2,2,0,0,0-2-2h0a2,2,0,0,0-2,2v3.487A2,2,0,0,0-425.724,431.275Z" transform="translate(498.508 -422.087)" fill="#0a7c79"/>
        <path id="Path_10420" data-name="Path 10420" d="M-303.36,431.275h0a2,2,0,0,0,2-2v-3.487a2,2,0,0,0-2-2h0a2,2,0,0,0-2,2v3.487A2,2,0,0,0-303.36,431.275Z" transform="translate(305.363 -422.087)" fill="#0a7c79"/>
        <path id="Path_10421" data-name="Path 10421" d="M-426.609,429.737l2.212-2.675s8.962,1.64,14.148-3.49l1.467-1.957a2.152,2.152,0,0,1,1.306-.766h36.1a2.259,2.259,0,0,1,1.335.766c4.68,7.354,15.365,5.4,15.365,5.4l2,2.724v.333l-.029,1.192h.049l-1,.52H-425.19l-1-.52h.049l-.465-1.192Z" transform="translate(426.803 -420.85)" fill="#e0874b"/>
        <rect id="Rectangle_10200" data-name="Rectangle 10200" width="62.698" height="23.935" transform="translate(6.044 11.577)" fill="#fce4c8"/>
        <rect id="Rectangle_10201" data-name="Rectangle 10201" width="62.698" height="9.215" transform="translate(6.044 26.297)" fill="#dbbb9c"/>
        <rect id="Rectangle_10202" data-name="Rectangle 10202" width="62.698" height="5.505" transform="translate(6.044 11.577)" fill="#e03f3f"/>
        <rect id="Rectangle_10203" data-name="Rectangle 10203" width="62.698" height="2.419" transform="translate(6.044 11.577)" fill="#c63232"/>
        <rect id="Rectangle_10204" data-name="Rectangle 10204" width="2.259" height="18.43" transform="translate(56.131 17.082)" fill="#e03f3f"/>
        <rect id="Rectangle_10205" data-name="Rectangle 10205" width="2.259" height="18.43" transform="translate(17.723 17.082)" fill="#e03f3f"/>
        <rect id="Rectangle_10206" data-name="Rectangle 10206" width="15.722" height="13.39" transform="translate(29.197 22.122)" fill="#0a7c79"/>
        <rect id="Rectangle_10207" data-name="Rectangle 10207" width="15.722" height="4.882" transform="translate(29.197 30.631)" fill="#2ca39d"/>
        <path id="Path_10422" data-name="Path 10422" d="M-409.026,462.708a3.612,3.612,0,0,0-3.612-3.613,3.613,3.613,0,0,0-3.613,3.613,3.613,3.613,0,0,0,3.613,3.613A3.612,3.612,0,0,0-409.026,462.708Z" transform="translate(477.173 -436.973)" fill="#0a7c79"/>
        <path id="Path_10423" data-name="Path 10423" d="M-318.561,462.708a3.612,3.612,0,0,0-3.613-3.613,3.612,3.612,0,0,0-3.613,3.613,3.613,3.613,0,0,0,3.613,3.613A3.613,3.613,0,0,0-318.561,462.708Z" transform="translate(334.381 -436.973)" fill="#0a7c79"/>
        <path id="Path_10424" data-name="Path 10424" d="M-363.964,431.275h0a2,2,0,0,0,2-2v-3.487a2,2,0,0,0-2-2h0a2,2,0,0,0-2,2v3.487A2,2,0,0,0-363.964,431.275Z" transform="translate(401.022 -422.087)" fill="#0a7c79"/>
        <rect id="Rectangle_10208" data-name="Rectangle 10208" width="74.785" height="2.358" transform="translate(0 9.219)" fill="#ad6432"/>
      </g>
    </g>
    <g id="Group_2448" data-name="Group 2448" transform="translate(26.381 177.416)">
      <path id="Path_10425" data-name="Path 10425" d="M-414.954,367H-353.6a6.2,6.2,0,0,0-6.2-6.2h-48.956a6.2,6.2,0,0,0-6.2,6.2Z" transform="translate(420.997 -360.804)" fill="#e0874b"/>
      <g id="Group_2447" data-name="Group 2447" transform="translate(0 0.374)">
        <path id="Path_10426" data-name="Path 10426" d="M-425.724,370.688h0a2,2,0,0,0,2-2V365.2a2,2,0,0,0-2-2h0a2,2,0,0,0-2,2v3.487A2,2,0,0,0-425.724,370.688Z" transform="translate(498.508 -362.186)" fill="#0a7c79"/>
        <path id="Path_10427" data-name="Path 10427" d="M-303.36,370.688h0a2,2,0,0,0,2-2V365.2a2,2,0,0,0-2-2h0a2,2,0,0,0-2,2v3.487A2,2,0,0,0-303.36,370.688Z" transform="translate(305.363 -362.186)" fill="#0a7c79"/>
        <path id="Path_10428" data-name="Path 10428" d="M-426.609,369.651l2.212-2.675s8.962,1.64,14.148-3.49l1.467-1.613a2.736,2.736,0,0,1,1.306-.422h36.1a2.913,2.913,0,0,1,1.335.422c4.68,7.354,15.365,5.226,15.365,5.226l2,2.552v.333l-.029.838h.049l-1,1.041H-425.19l-1-1.041h.049l-.465-.838Z" transform="translate(426.803 -361.45)" fill="#e0874b"/>
        <rect id="Rectangle_10209" data-name="Rectangle 10209" width="62.698" height="23.935" transform="translate(6.044 10.891)" fill="#fce4c8"/>
        <rect id="Rectangle_10210" data-name="Rectangle 10210" width="62.698" height="9.215" transform="translate(6.044 25.61)" fill="#dbbb9c"/>
        <rect id="Rectangle_10211" data-name="Rectangle 10211" width="62.698" height="5.504" transform="translate(6.044 10.891)" fill="#e03f3f"/>
        <rect id="Rectangle_10212" data-name="Rectangle 10212" width="62.698" height="2.42" transform="translate(6.044 10.891)" fill="#c63232"/>
        <rect id="Rectangle_10213" data-name="Rectangle 10213" width="2.259" height="18.431" transform="translate(56.131 16.395)" fill="#e03f3f"/>
        <rect id="Rectangle_10214" data-name="Rectangle 10214" width="2.259" height="18.431" transform="translate(17.723 16.395)" fill="#e03f3f"/>
        <rect id="Rectangle_10215" data-name="Rectangle 10215" width="15.722" height="13.39" transform="translate(29.197 21.436)" fill="#0a7c79"/>
        <rect id="Rectangle_10216" data-name="Rectangle 10216" width="15.722" height="4.882" transform="translate(29.197 29.944)" fill="#2ca39d"/>
        <path id="Path_10429" data-name="Path 10429" d="M-409.026,402.12a3.612,3.612,0,0,0-3.612-3.612,3.613,3.613,0,0,0-3.613,3.612,3.613,3.613,0,0,0,3.613,3.613A3.612,3.612,0,0,0-409.026,402.12Z" transform="translate(477.173 -377.072)" fill="#0a7c79"/>
        <path id="Path_10430" data-name="Path 10430" d="M-318.561,402.12a3.613,3.613,0,0,0-3.613-3.612,3.613,3.613,0,0,0-3.613,3.612,3.612,3.612,0,0,0,3.613,3.613A3.612,3.612,0,0,0-318.561,402.12Z" transform="translate(334.381 -377.072)" fill="#0a7c79"/>
        <path id="Path_10431" data-name="Path 10431" d="M-363.964,370.688h0a2,2,0,0,0,2-2V365.2a2,2,0,0,0-2-2h0a2,2,0,0,0-2,2v3.487A2,2,0,0,0-363.964,370.688Z" transform="translate(401.022 -362.186)" fill="#0a7c79"/>
        <rect id="Rectangle_10217" data-name="Rectangle 10217" width="74.785" height="2.358" transform="translate(0 8.533)" fill="#ad6432"/>
      </g>
    </g>
    <g id="Group_2450" data-name="Group 2450" transform="translate(26.381 142.37)">
      <path id="Path_10432" data-name="Path 10432" d="M-414.954,306.415H-353.6a6.2,6.2,0,0,0-6.2-6.2h-48.956a6.2,6.2,0,0,0-6.2,6.2Z" transform="translate(420.997 -300.216)" fill="#e0874b"/>
      <g id="Group_2449" data-name="Group 2449" transform="translate(0 0.019)">
        <path id="Path_10433" data-name="Path 10433" d="M-425.724,310.1h0a2,2,0,0,0,2-2v-3.487a2,2,0,0,0-2-2h0a2,2,0,0,0-2,2V308.1A2,2,0,0,0-425.724,310.1Z" transform="translate(498.508 -301.244)" fill="#0a7c79"/>
        <path id="Path_10434" data-name="Path 10434" d="M-303.36,310.1h0a2,2,0,0,0,2-2v-3.487a2,2,0,0,0-2-2h0a2,2,0,0,0-2,2V308.1A2,2,0,0,0-303.36,310.1Z" transform="translate(305.363 -301.244)" fill="#0a7c79"/>
        <path id="Path_10435" data-name="Path 10435" d="M-426.609,308.8l2.212-2.674s8.962,1.639,14.148-3.491l1.467-1.79a2.285,2.285,0,0,1,1.306-.6h36.1a2.415,2.415,0,0,1,1.335.6c4.68,7.354,15.365,5.315,15.365,5.315l2,2.64v.333l-.029,1.523h.049l-1,1.562H-425.19l-1-1.562h.049l-.465-1.523Z" transform="translate(426.803 -300.249)" fill="#e0874b"/>
        <rect id="Rectangle_10218" data-name="Rectangle 10218" width="62.698" height="23.934" transform="translate(6.044 11.246)" fill="#fce4c8"/>
        <rect id="Rectangle_10219" data-name="Rectangle 10219" width="62.698" height="9.215" transform="translate(6.044 25.965)" fill="#dbbb9c"/>
        <rect id="Rectangle_10220" data-name="Rectangle 10220" width="62.698" height="5.504" transform="translate(6.044 11.246)" fill="#e03f3f"/>
        <rect id="Rectangle_10221" data-name="Rectangle 10221" width="62.698" height="2.419" transform="translate(6.044 11.246)" fill="#c63232"/>
        <rect id="Rectangle_10222" data-name="Rectangle 10222" width="2.259" height="18.43" transform="translate(56.131 16.75)" fill="#e03f3f"/>
        <rect id="Rectangle_10223" data-name="Rectangle 10223" width="2.259" height="18.43" transform="translate(17.723 16.75)" fill="#e03f3f"/>
        <rect id="Rectangle_10224" data-name="Rectangle 10224" width="15.722" height="13.39" transform="translate(29.197 21.79)" fill="#0a7c79"/>
        <rect id="Rectangle_10225" data-name="Rectangle 10225" width="15.722" height="4.881" transform="translate(29.197 30.299)" fill="#2ca39d"/>
        <path id="Path_10436" data-name="Path 10436" d="M-409.026,341.534a3.612,3.612,0,0,0-3.612-3.614,3.613,3.613,0,0,0-3.613,3.614,3.613,3.613,0,0,0,3.613,3.613A3.612,3.612,0,0,0-409.026,341.534Z" transform="translate(477.173 -316.13)" fill="#0a7c79"/>
        <path id="Path_10437" data-name="Path 10437" d="M-318.561,341.534a3.613,3.613,0,0,0-3.613-3.614,3.613,3.613,0,0,0-3.613,3.614,3.613,3.613,0,0,0,3.613,3.613A3.613,3.613,0,0,0-318.561,341.534Z" transform="translate(334.381 -316.13)" fill="#0a7c79"/>
        <path id="Path_10438" data-name="Path 10438" d="M-363.964,310.1h0a2,2,0,0,0,2-2v-3.487a2,2,0,0,0-2-2h0a2,2,0,0,0-2,2V308.1A2,2,0,0,0-363.964,310.1Z" transform="translate(401.022 -301.244)" fill="#0a7c79"/>
        <rect id="Rectangle_10226" data-name="Rectangle 10226" width="74.785" height="2.358" transform="translate(0 8.888)" fill="#ad6432"/>
      </g>
    </g>
    <g id="Group_2452" data-name="Group 2452" transform="translate(26.381 107.324)">
      <path id="Path_10439" data-name="Path 10439" d="M-414.954,245.828H-353.6a6.2,6.2,0,0,0-6.2-6.2h-48.956a6.2,6.2,0,0,0-6.2,6.2Z" transform="translate(420.997 -239.629)" fill="#e0874b"/>
      <g id="Group_2451" data-name="Group 2451" transform="translate(0 0.186)">
        <path id="Path_10440" data-name="Path 10440" d="M-425.724,249.513h0a2,2,0,0,0,2-2v-3.487a2,2,0,0,0-2-2h0a2,2,0,0,0-2,2v3.487A2,2,0,0,0-425.724,249.513Z" transform="translate(498.508 -240.823)" fill="#0a7c79"/>
        <path id="Path_10441" data-name="Path 10441" d="M-303.36,249.513h0a2,2,0,0,0,2-2v-3.487a2,2,0,0,0-2-2h0a2,2,0,0,0-2,2v3.487A2,2,0,0,0-303.36,249.513Z" transform="translate(305.363 -240.823)" fill="#0a7c79"/>
        <path id="Path_10442" data-name="Path 10442" d="M-426.609,248.339l2.212-2.674s8.962,1.64,14.148-3.49l1.467-1.708a2.441,2.441,0,0,1,1.306-.516h36.1a2.589,2.589,0,0,1,1.335.516c4.68,7.354,15.365,5.273,15.365,5.273l2,2.6v.333l-.029,1.169h.049l-1,1.562H-425.19l-1-1.562h.049l-.465-1.169Z" transform="translate(426.803 -239.95)" fill="#e0874b"/>
        <rect id="Rectangle_10227" data-name="Rectangle 10227" width="62.698" height="23.935" transform="translate(6.044 11.079)" fill="#fce4c8"/>
        <rect id="Rectangle_10228" data-name="Rectangle 10228" width="62.698" height="9.215" transform="translate(6.044 25.798)" fill="#dbbb9c"/>
        <rect id="Rectangle_10229" data-name="Rectangle 10229" width="62.698" height="5.505" transform="translate(6.044 11.079)" fill="#e03f3f"/>
        <rect id="Rectangle_10230" data-name="Rectangle 10230" width="62.698" height="2.42" transform="translate(6.044 11.079)" fill="#c63232"/>
        <rect id="Rectangle_10231" data-name="Rectangle 10231" width="2.259" height="18.43" transform="translate(56.131 16.583)" fill="#e03f3f"/>
        <rect id="Rectangle_10232" data-name="Rectangle 10232" width="2.259" height="18.43" transform="translate(17.723 16.583)" fill="#e03f3f"/>
        <rect id="Rectangle_10233" data-name="Rectangle 10233" width="15.722" height="13.39" transform="translate(29.197 21.624)" fill="#0a7c79"/>
        <rect id="Rectangle_10234" data-name="Rectangle 10234" width="15.722" height="4.882" transform="translate(29.197 30.132)" fill="#2ca39d"/>
        <path id="Path_10443" data-name="Path 10443" d="M-409.026,280.946a3.612,3.612,0,0,0-3.612-3.613,3.613,3.613,0,0,0-3.613,3.613,3.613,3.613,0,0,0,3.613,3.614A3.612,3.612,0,0,0-409.026,280.946Z" transform="translate(477.173 -255.71)" fill="#0a7c79"/>
        <path id="Path_10444" data-name="Path 10444" d="M-318.561,280.946a3.613,3.613,0,0,0-3.613-3.613,3.613,3.613,0,0,0-3.613,3.613,3.613,3.613,0,0,0,3.613,3.614A3.613,3.613,0,0,0-318.561,280.946Z" transform="translate(334.381 -255.71)" fill="#0a7c79"/>
        <path id="Path_10445" data-name="Path 10445" d="M-363.964,249.513h0a2,2,0,0,0,2-2v-3.487a2,2,0,0,0-2-2h0a2,2,0,0,0-2,2v3.487A2,2,0,0,0-363.964,249.513Z" transform="translate(401.022 -240.823)" fill="#0a7c79"/>
        <rect id="Rectangle_10235" data-name="Rectangle 10235" width="74.785" height="2.358" transform="translate(0 8.721)" fill="#ad6432"/>
      </g>
    </g>
    <g id="Group_2454" data-name="Group 2454" transform="translate(26.381 72.278)">
      <path id="Rectangle_10236" data-name="Rectangle 10236" d="M6.2,0H55.154a6.2,6.2,0,0,1,6.2,6.2v0a0,0,0,0,1,0,0H0a0,0,0,0,1,0,0v0A6.2,6.2,0,0,1,6.2,0Z" transform="translate(6.044)" fill="#e0874b"/>
      <g id="Group_2453" data-name="Group 2453" transform="translate(0 0.352)">
        <path id="Path_10446" data-name="Path 10446" d="M-425.724,188.926h0a2,2,0,0,0,2-2v-3.487a2,2,0,0,0-2-2h0a2,2,0,0,0-2,2v3.487A2,2,0,0,0-425.724,188.926Z" transform="translate(498.508 -180.402)" fill="#0a7c79"/>
        <path id="Path_10447" data-name="Path 10447" d="M-303.36,188.926h0a2,2,0,0,0,2-2v-3.487a2,2,0,0,0-2-2h0a2,2,0,0,0-2,2v3.487A2,2,0,0,0-303.36,188.926Z" transform="translate(305.363 -180.402)" fill="#0a7c79"/>
        <path id="Path_10448" data-name="Path 10448" d="M-426.609,187.872l2.212-2.674s8.962,1.639,14.148-3.49l1.467-1.625a2.693,2.693,0,0,1,1.306-.433h36.1a2.866,2.866,0,0,1,1.335.433c4.68,7.354,15.365,5.232,15.365,5.232l2,2.557v.333l-.029,1.336h-73.431l-.465-1.336Z" transform="translate(426.803 -179.65)" fill="#e0874b"/>
        <rect id="Rectangle_10237" data-name="Rectangle 10237" width="62.698" height="23.934" transform="translate(6.044 10.913)" fill="#fce4c8"/>
        <rect id="Rectangle_10238" data-name="Rectangle 10238" width="62.698" height="9.215" transform="translate(6.044 25.632)" fill="#dbbb9c"/>
        <rect id="Rectangle_10239" data-name="Rectangle 10239" width="62.698" height="5.504" transform="translate(6.044 10.913)" fill="#e03f3f"/>
        <rect id="Rectangle_10240" data-name="Rectangle 10240" width="62.698" height="2.419" transform="translate(6.044 10.913)" fill="#c63232"/>
        <rect id="Rectangle_10241" data-name="Rectangle 10241" width="2.259" height="18.43" transform="translate(56.131 16.417)" fill="#e03f3f"/>
        <rect id="Rectangle_10242" data-name="Rectangle 10242" width="2.259" height="18.43" transform="translate(17.723 16.417)" fill="#e03f3f"/>
        <rect id="Rectangle_10243" data-name="Rectangle 10243" width="15.722" height="13.39" transform="translate(29.197 21.457)" fill="#0a7c79"/>
        <rect id="Rectangle_10244" data-name="Rectangle 10244" width="15.722" height="4.881" transform="translate(29.197 29.966)" fill="#2ca39d"/>
        <path id="Path_10449" data-name="Path 10449" d="M-409.026,220.359a3.612,3.612,0,0,0-3.612-3.613,3.613,3.613,0,0,0-3.613,3.613,3.613,3.613,0,0,0,3.613,3.613A3.612,3.612,0,0,0-409.026,220.359Z" transform="translate(477.173 -195.288)" fill="#0a7c79"/>
        <path id="Path_10450" data-name="Path 10450" d="M-318.561,220.359a3.612,3.612,0,0,0-3.613-3.613,3.613,3.613,0,0,0-3.613,3.613,3.613,3.613,0,0,0,3.613,3.613A3.613,3.613,0,0,0-318.561,220.359Z" transform="translate(334.381 -195.288)" fill="#0a7c79"/>
        <path id="Path_10451" data-name="Path 10451" d="M-363.964,188.926h0a2,2,0,0,0,2-2v-3.487a2,2,0,0,0-2-2h0a2,2,0,0,0-2,2v3.487A2,2,0,0,0-363.964,188.926Z" transform="translate(401.022 -180.402)" fill="#0a7c79"/>
        <rect id="Rectangle_10245" data-name="Rectangle 10245" width="74.785" height="2.358" transform="translate(0 8.555)" fill="#ad6432"/>
      </g>
    </g>
    <g id="Group_2456" data-name="Group 2456" transform="translate(26.381 37.233)">
      <path id="Path_10452" data-name="Path 10452" d="M-414.954,124.653H-353.6a6.2,6.2,0,0,0-6.2-6.2h-48.956a6.2,6.2,0,0,0-6.2,6.2Z" transform="translate(420.997 -118.455)" fill="#e0874b"/>
      <g id="Group_2455" data-name="Group 2455" transform="translate(0 0.518)">
        <path id="Path_10453" data-name="Path 10453" d="M-425.724,128.339h0a2,2,0,0,0,2-2v-3.487a2,2,0,0,0-2-2h0a2,2,0,0,0-2,2v3.487A2,2,0,0,0-425.724,128.339Z" transform="translate(498.508 -119.981)" fill="#0a7c79"/>
        <path id="Path_10454" data-name="Path 10454" d="M-303.36,128.339h0a2,2,0,0,0,2-2v-3.487a2,2,0,0,0-2-2h0a2,2,0,0,0-2,2v3.487A2,2,0,0,0-303.36,128.339Z" transform="translate(305.363 -119.981)" fill="#0a7c79"/>
        <path id="Path_10455" data-name="Path 10455" d="M-426.609,127.406l2.212-2.674s8.962,1.64,14.148-3.49l1.467-1.542a3.111,3.111,0,0,1,1.306-.351h36.1a3.323,3.323,0,0,1,1.335.351c4.68,7.353,15.365,5.19,15.365,5.19l2,2.516v.333l-.029,2.023h.049l-1,.52H-425.19l-1-.52h.049l-.465-2.023Z" transform="translate(426.803 -119.35)" fill="#e0874b"/>
        <rect id="Rectangle_10246" data-name="Rectangle 10246" width="62.698" height="23.934" transform="translate(6.044 10.747)" fill="#fce4c8"/>
        <rect id="Rectangle_10247" data-name="Rectangle 10247" width="62.698" height="9.215" transform="translate(6.044 25.466)" fill="#dbbb9c"/>
        <rect id="Rectangle_10248" data-name="Rectangle 10248" width="62.698" height="5.504" transform="translate(6.044 10.747)" fill="#e03f3f"/>
        <rect id="Rectangle_10249" data-name="Rectangle 10249" width="62.698" height="2.419" transform="translate(6.044 10.747)" fill="#c63232"/>
        <rect id="Rectangle_10250" data-name="Rectangle 10250" width="2.259" height="18.43" transform="translate(56.131 16.251)" fill="#e03f3f"/>
        <rect id="Rectangle_10251" data-name="Rectangle 10251" width="2.259" height="18.43" transform="translate(17.723 16.251)" fill="#e03f3f"/>
        <rect id="Rectangle_10252" data-name="Rectangle 10252" width="15.722" height="13.39" transform="translate(29.197 21.291)" fill="#0a7c79"/>
        <rect id="Rectangle_10253" data-name="Rectangle 10253" width="15.722" height="4.882" transform="translate(29.197 29.8)" fill="#2ca39d"/>
        <path id="Path_10456" data-name="Path 10456" d="M-409.026,159.772a3.612,3.612,0,0,0-3.612-3.613,3.613,3.613,0,0,0-3.613,3.613,3.613,3.613,0,0,0,3.613,3.613A3.612,3.612,0,0,0-409.026,159.772Z" transform="translate(477.173 -134.867)" fill="#0a7c79"/>
        <path id="Path_10457" data-name="Path 10457" d="M-318.561,159.772a3.613,3.613,0,0,0-3.613-3.613,3.613,3.613,0,0,0-3.613,3.613,3.613,3.613,0,0,0,3.613,3.613A3.613,3.613,0,0,0-318.561,159.772Z" transform="translate(334.381 -134.867)" fill="#0a7c79"/>
        <path id="Path_10458" data-name="Path 10458" d="M-363.964,128.339h0a2,2,0,0,0,2-2v-3.487a2,2,0,0,0-2-2h0a2,2,0,0,0-2,2v3.487A2,2,0,0,0-363.964,128.339Z" transform="translate(401.022 -119.981)" fill="#0a7c79"/>
        <rect id="Rectangle_10254" data-name="Rectangle 10254" width="74.785" height="2.358" transform="translate(0 8.388)" fill="#ad6432"/>
      </g>
    </g>
    <rect id="Rectangle_10255" data-name="Rectangle 10255" width="121.965" height="4.032" transform="translate(1.59 264.405)" fill="#0a7c79"/>
    <rect id="Rectangle_10256" data-name="Rectangle 10256" width="121.965" height="2.016" transform="translate(1.59 266.42)" fill="#0a5b57"/>
    <rect id="Rectangle_10257" data-name="Rectangle 10257" width="90.9" height="58.061" transform="translate(20.809 268.436)" fill="#c6ad99"/>
    <rect id="Rectangle_10258" data-name="Rectangle 10258" width="90.9" height="25.486" transform="translate(20.809 268.436)" fill="#a08673"/>
    <rect id="Rectangle_10259" data-name="Rectangle 10259" width="16.586" height="42.406" transform="translate(95.123 284.091)" fill="#5e5148"/>
    <rect id="Rectangle_10260" data-name="Rectangle 10260" width="16.586" height="42.406" transform="translate(22.093 284.091)" fill="#5e5148"/>
    <rect id="Rectangle_10261" data-name="Rectangle 10261" width="37.278" height="42.406" transform="translate(46.363 284.091)" fill="#5e5148"/>
    <rect id="Rectangle_10262" data-name="Rectangle 10262" width="16.586" height="21.204" transform="translate(95.123 305.293)" fill="#3f3934"/>
    <rect id="Rectangle_10263" data-name="Rectangle 10263" width="16.586" height="21.204" transform="translate(22.093 305.293)" fill="#3f3934"/>
    <rect id="Rectangle_10264" data-name="Rectangle 10264" width="37.278" height="21.204" transform="translate(46.363 305.293)" fill="#3f3934"/>
    <rect id="Rectangle_10265" data-name="Rectangle 10265" width="37.278" height="9.379" transform="translate(46.363 270.517)" fill="#5e5148"/>
    <path id="Path_10459" data-name="Path 10459" d="M-367.379,474.529h5.316V466.6a2.658,2.658,0,0,0-2.658-2.659h0a2.659,2.659,0,0,0-2.658,2.659Z" transform="translate(428.322 -226.868)" fill="#e5b94c"/>
    <rect id="Rectangle_10266" data-name="Rectangle 10266" width="5.316" height="6.442" transform="translate(60.943 241.218)" fill="#ba8c25"/>
    <path id="Path_10460" data-name="Path 10460" d="M-367.379,413.942h5.316v-7.928a2.657,2.657,0,0,0-2.658-2.658h0a2.658,2.658,0,0,0-2.658,2.658Z" transform="translate(428.322 -201.327)" fill="#e5b94c"/>
    <rect id="Rectangle_10267" data-name="Rectangle 10267" width="5.316" height="6.443" transform="translate(60.943 206.172)" fill="#ba8c25"/>
    <path id="Path_10461" data-name="Path 10461" d="M-367.379,353.354h5.316v-7.927a2.658,2.658,0,0,0-2.658-2.659h0a2.659,2.659,0,0,0-2.658,2.659Z" transform="translate(428.322 -175.785)" fill="#e5b94c"/>
    <rect id="Rectangle_10268" data-name="Rectangle 10268" width="5.316" height="6.442" transform="translate(60.943 171.127)" fill="#ba8c25"/>
    <path id="Path_10462" data-name="Path 10462" d="M-367.379,292.767h5.316v-7.928a2.658,2.658,0,0,0-2.658-2.658h0a2.659,2.659,0,0,0-2.658,2.658Z" transform="translate(428.322 -150.243)" fill="#e5b94c"/>
    <rect id="Rectangle_10269" data-name="Rectangle 10269" width="5.316" height="6.443" transform="translate(60.943 136.081)" fill="#ba8c25"/>
    <path id="Path_10463" data-name="Path 10463" d="M-367.379,232.179h5.316v-7.927a2.658,2.658,0,0,0-2.658-2.659h0a2.658,2.658,0,0,0-2.658,2.659Z" transform="translate(428.322 -124.702)" fill="#e5b94c"/>
    <rect id="Rectangle_10270" data-name="Rectangle 10270" width="5.316" height="6.442" transform="translate(60.943 101.035)" fill="#ba8c25"/>
    <path id="Path_10464" data-name="Path 10464" d="M-367.379,171.592h5.316v-7.928a2.658,2.658,0,0,0-2.658-2.658h0a2.659,2.659,0,0,0-2.658,2.658Z" transform="translate(428.322 -99.16)" fill="#e5b94c"/>
    <rect id="Rectangle_10271" data-name="Rectangle 10271" width="5.316" height="6.442" transform="translate(60.943 65.989)" fill="#ba8c25"/>
  </g>
</svg>
