<svg xmlns="http://www.w3.org/2000/svg" width="203.614" height="162.539" viewBox="0 0 203.614 162.539">
  <g id="Group_2444" data-name="Group 2444" transform="translate(-1512.988 -541.827)">
    <path id="Path_10393" data-name="Path 10393" d="M1527.923,683.84s-9.7-11.53-9.7-30.917h13.1s-4.716-21.487,8.385-35.636l7.153,5.241s-.195-29.87,17.026-38.777l6.213,9.432s1.126-26.726,16.284-33.539l3.107,11s3.958-28.823,25.3-28.823,25.3,28.823,25.3,28.823l3.11-11c15.158,6.813,16.281,33.539,16.281,33.539l6.216-9.432c17.221,8.907,17.026,38.777,17.026,38.777l7.153-5.241c13.1,14.149,8.383,35.636,8.383,35.636h13.1c0,19.387-9.694,30.917-9.694,30.917H1716.6c0,22.009-34.787,20.5-34.787,20.5,0-38.274-67.021-48.276-67.021-48.276s-67.021,10-67.021,48.276c0,0-34.784,1.506-34.784-20.5Z" transform="translate(0)" fill="#ffc63a"/>
    <path id="Path_10394" data-name="Path 10394" d="M1520.295,661.4h11.564s-7.5-8.93-7.5-23.94H1534.5s-3.65-16.639,6.492-27.593l5.541,4.059s-.154-23.129,13.18-30.027l4.814,7.3s.871-20.7,12.608-25.971l2.405,8.524s3.066-22.318,19.588-22.318,19.589,22.318,19.589,22.318l2.408-8.524c11.737,5.276,12.608,25.971,12.608,25.971l4.81-7.3c13.335,6.9,13.184,30.027,13.184,30.027l5.541-4.059c10.143,10.954,6.489,27.593,6.489,27.593H1673.9c0,15.01-7.509,23.94-7.509,23.94h11.564c0,8.294-6.386,12.259-12.935,14.158-8.643-31.539-65.9-40.107-65.9-40.107s-57.253,8.568-65.892,40.107C1526.681,673.662,1520.295,669.7,1520.295,661.4Z" transform="translate(15.668 20.614)" fill="#fbb03b"/>
    <g id="Group_2443" data-name="Group 2443" transform="translate(1556.381 594.596)">
      <g id="Group_2426" data-name="Group 2426" transform="translate(0 35.872)">
        <g id="Group_2425" data-name="Group 2425">
          <g id="Group_2423" data-name="Group 2423" transform="translate(11.52)">
            <path id="Path_10395" data-name="Path 10395" d="M1535.346,570.019s4.9,3.022,4.9,8.207-4.9,8.206-4.9,8.206-4.893-3.025-4.893-8.206S1535.346,570.019,1535.346,570.019Z" transform="translate(-1530.453 -570.019)" fill="#aa6d22"/>
            <path id="Path_10396" data-name="Path 10396" d="M1535.346,575.239s4.9,3.021,4.9,8.206-4.9,8.206-4.9,8.206-4.893-3.025-4.893-8.206S1535.346,575.239,1535.346,575.239Z" transform="translate(-1530.453 -558.826)" fill="#aa6d22"/>
          </g>
          <g id="Group_2424" data-name="Group 2424" transform="translate(0 11.517)">
            <path id="Path_10397" data-name="Path 10397" d="M1548.421,578.578s-3.022,4.9-8.207,4.9-8.206-4.9-8.206-4.9,3.024-4.9,8.206-4.9S1548.421,578.578,1548.421,578.578Z" transform="translate(-1515.596 -573.682)" fill="#aa6d22"/>
            <path id="Path_10398" data-name="Path 10398" d="M1543.2,578.578s-3.022,4.9-8.206,4.9-8.207-4.9-8.207-4.9,3.025-4.9,8.207-4.9S1543.2,578.578,1543.2,578.578Z" transform="translate(-1526.789 -573.682)" fill="#aa6d22"/>
          </g>
        </g>
      </g>
      <g id="Group_2430" data-name="Group 2430" transform="translate(42 35.872)">
        <g id="Group_2429" data-name="Group 2429">
          <g id="Group_2427" data-name="Group 2427" transform="translate(11.52)">
            <path id="Path_10399" data-name="Path 10399" d="M1548.7,570.019s4.9,3.022,4.9,8.207-4.9,8.206-4.9,8.206-4.892-3.025-4.892-8.206S1548.7,570.019,1548.7,570.019Z" transform="translate(-1543.811 -570.019)" fill="#aa6d22"/>
            <path id="Path_10400" data-name="Path 10400" d="M1548.7,575.239s4.9,3.021,4.9,8.206-4.9,8.206-4.9,8.206-4.892-3.025-4.892-8.206S1548.7,575.239,1548.7,575.239Z" transform="translate(-1543.811 -558.826)" fill="#aa6d22"/>
          </g>
          <g id="Group_2428" data-name="Group 2428" transform="translate(0 11.517)">
            <path id="Path_10401" data-name="Path 10401" d="M1561.78,578.578s-3.021,4.9-8.206,4.9-8.207-4.9-8.207-4.9,3.025-4.9,8.207-4.9S1561.78,578.578,1561.78,578.578Z" transform="translate(-1528.955 -573.682)" fill="#aa6d22"/>
            <path id="Path_10402" data-name="Path 10402" d="M1556.56,578.578s-3.021,4.9-8.206,4.9-8.207-4.9-8.207-4.9,3.025-4.9,8.207-4.9S1556.56,578.578,1556.56,578.578Z" transform="translate(-1540.147 -573.682)" fill="#aa6d22"/>
          </g>
        </g>
      </g>
      <g id="Group_2434" data-name="Group 2434" transform="translate(84 35.872)">
        <g id="Group_2433" data-name="Group 2433">
          <g id="Group_2431" data-name="Group 2431" transform="translate(11.517)">
            <path id="Path_10403" data-name="Path 10403" d="M1562.063,570.019s4.9,3.022,4.9,8.207-4.9,8.206-4.9,8.206-4.9-3.025-4.9-8.206S1562.063,570.019,1562.063,570.019Z" transform="translate(-1557.168 -570.019)" fill="#aa6d22"/>
            <path id="Path_10404" data-name="Path 10404" d="M1562.063,575.239s4.9,3.021,4.9,8.206-4.9,8.206-4.9,8.206-4.9-3.025-4.9-8.206S1562.063,575.239,1562.063,575.239Z" transform="translate(-1557.168 -558.826)" fill="#aa6d22"/>
          </g>
          <g id="Group_2432" data-name="Group 2432" transform="translate(0 11.517)">
            <path id="Path_10405" data-name="Path 10405" d="M1575.138,578.578s-3.021,4.9-8.206,4.9-8.206-4.9-8.206-4.9,3.025-4.9,8.206-4.9S1575.138,578.578,1575.138,578.578Z" transform="translate(-1542.313 -573.682)" fill="#aa6d22"/>
            <path id="Path_10406" data-name="Path 10406" d="M1569.917,578.578s-3.021,4.9-8.206,4.9-8.206-4.9-8.206-4.9,3.025-4.9,8.206-4.9S1569.917,578.578,1569.917,578.578Z" transform="translate(-1553.505 -573.682)" fill="#aa6d22"/>
          </g>
        </g>
      </g>
      <g id="Group_2438" data-name="Group 2438" transform="translate(63)">
        <g id="Group_2437" data-name="Group 2437">
          <g id="Group_2435" data-name="Group 2435" transform="translate(11.517)">
            <path id="Path_10407" data-name="Path 10407" d="M1555.384,558.61s4.9,3.021,4.9,8.206-4.9,8.207-4.9,8.207-4.9-3.025-4.9-8.207S1555.384,558.61,1555.384,558.61Z" transform="translate(-1550.489 -558.61)" fill="#aa6d22"/>
            <path id="Path_10408" data-name="Path 10408" d="M1555.384,563.83s4.9,3.022,4.9,8.206-4.9,8.206-4.9,8.206-4.9-3.025-4.9-8.206S1555.384,563.83,1555.384,563.83Z" transform="translate(-1550.489 -547.417)" fill="#aa6d22"/>
          </g>
          <g id="Group_2436" data-name="Group 2436" transform="translate(0 11.517)">
            <path id="Path_10409" data-name="Path 10409" d="M1568.459,567.169s-3.021,4.892-8.206,4.892-8.207-4.892-8.207-4.892,3.025-4.9,8.207-4.9S1568.459,567.169,1568.459,567.169Z" transform="translate(-1535.633 -562.273)" fill="#aa6d22"/>
            <path id="Path_10410" data-name="Path 10410" d="M1563.238,567.169s-3.022,4.892-8.206,4.892-8.206-4.892-8.206-4.892,3.024-4.9,8.206-4.9S1563.238,567.169,1563.238,567.169Z" transform="translate(-1546.826 -562.273)" fill="#aa6d22"/>
          </g>
        </g>
      </g>
      <g id="Group_2442" data-name="Group 2442" transform="translate(21)">
        <g id="Group_2441" data-name="Group 2441">
          <g id="Group_2439" data-name="Group 2439" transform="translate(11.52)">
            <path id="Path_10411" data-name="Path 10411" d="M1542.024,558.61s4.9,3.021,4.9,8.206-4.9,8.207-4.9,8.207-4.892-3.025-4.892-8.207S1542.024,558.61,1542.024,558.61Z" transform="translate(-1537.132 -558.61)" fill="#aa6d22"/>
            <path id="Path_10412" data-name="Path 10412" d="M1542.024,563.83s4.9,3.022,4.9,8.206-4.9,8.206-4.9,8.206-4.892-3.025-4.892-8.206S1542.024,563.83,1542.024,563.83Z" transform="translate(-1537.132 -547.417)" fill="#aa6d22"/>
          </g>
          <g id="Group_2440" data-name="Group 2440" transform="translate(0 11.517)">
            <path id="Path_10413" data-name="Path 10413" d="M1555.1,567.169s-3.021,4.892-8.206,4.892-8.207-4.892-8.207-4.892,3.025-4.9,8.207-4.9S1555.1,567.169,1555.1,567.169Z" transform="translate(-1522.275 -562.273)" fill="#aa6d22"/>
            <path id="Path_10414" data-name="Path 10414" d="M1549.88,567.169s-3.021,4.892-8.207,4.892-8.206-4.892-8.206-4.892,3.025-4.9,8.206-4.9S1549.88,567.169,1549.88,567.169Z" transform="translate(-1533.468 -562.273)" fill="#aa6d22"/>
          </g>
        </g>
      </g>
    </g>
  </g>
</svg>
