<svg xmlns="http://www.w3.org/2000/svg" xmlns:xlink="http://www.w3.org/1999/xlink" width="1920" height="1006" viewBox="0 0 1920 1006">
  <defs>
    <clipPath id="clip-path">
      <rect id="Rectangle_10221" data-name="Rectangle 10221" width="1920" height="1006" transform="translate(0 3607)" fill="rgba(255,0,0,0.87)" stroke="#707070" stroke-width="1"/>
    </clipPath>
  </defs>
  <g id="background-balalantara-wahana-lain" transform="translate(0 -3607)" clip-path="url(#clip-path)">
    <g id="Group_4502" data-name="Group 4502" transform="translate(765.425 3720.066)" opacity="0.082">
      <g id="Group_4501" data-name="Group 4501" transform="translate(-1052.425 30.606)">
        <g id="Group_4495" data-name="Group 4495">
          <path id="Path_11423" data-name="Path 11423" d="M-633.187,395.2l13.9,7.318s10.243,5.855,14.635,5.855,17.558-2.928,17.558,0-10.243,5.119,2.926,5.119,38.78,7.319,46.829,4.393,2.924,2.153,13.9-11,13.9-7.3,16.828-11.689,8.78-12.435,8.78-12.435l5.85-5.854L-481,366.672h8.781l4.389-8.048h9.512s9.511.731,9.511,6.582-.729,9.512,5.121,6.585,6.588-3.658,13.169-2.928,27.8,3.662,30,3.662,25.609,7.316,25.609,9.511,35.119,8.737,38.776,6.563,16.1-1.485,19.756,0-3.659-2.9,5.121-6.563,12.435-.731,15.366,1.462,7.315,1.465,9.511.732,1.464-13.17,5.123-13.17,10.974,1.462,15.359,4.389,10.981,4.392,12.442-2.923-5.12-13.17,12.438-13.9,32.924-3.661,32.924-6.585-6.583-6.586,0-6.586,17.563-8.048,19.025-10.976-5.12-2.192,1.466-2.926,24.873,0,24.873,0,2.93-6.585,0-8.778,7.321,14.632-7.313,0-16.829-21.95-16.829-21.95-5.125,2.194-9.511,0-21.952-13.17-21.952-13.17,7.315-8.782,8.047-11.708,3.661-5.851.731-5.851,0,2.927-10.243,4.39-20.486,3.658-27.8,0-14.634-9.51-12.438-10.243,5.123,2.926,13.167,0,22.681-3.659,22.681-3.659h12.442s-1.461-8.048-5.854-8.781S-249.8,233.51-249.8,233.51s-2.2,2.194-10.241-5.854-.736-16.829-14.634-16.1-16.1,4.3-22.681-.044-2.2-12.4-9.512-10.2a23.473,23.473,0,0,1-13.9-.37,38.459,38.459,0,0,0-7.521,0c-4.917.37-10.769,4.759-10.769,4.759s-5.854-7.656-12.442-4.925-6.582,2-10.975,2.73-21.218-6.585-23.41-6.585-24.88-16.1-24.88-16.1-5.12-10.24-8.047-7.315-4.389,8.049-4.389,8.049-15.368-1.049-13.173-8.573,10.976-11.183,2.2-7.523-10.245,10.974-14.635,12.439-7.317,8.046-8.782,1.461-4.387-2.926-1.461-6.582,4.389-5.79,3.66-8.751a50.261,50.261,0,0,1-.733-8.81s-2.922,6.583-6.584,0-11.7-9.512-13.9-9.512-8.044,10.974-10.975,0-5.852-9.511-5.852-9.511-14.634,12.438.732-5.851,20.488-15.369,13.169-21.219-17.563-9.513-23.41-14.635-8.055-8.047-12.44-10.244-.736.733-6.583-5.851-12.44,0-12.44,0-6.586-12.439-11.707-8.78-9.513,13.9-12.438,5.851.729-19.023.729-19.023l-13.9-7.313s-16.829-19.024-20.487-13.9-19.023,7.317-19.023,7.317-1.467-20.043-6.583-8.192-15.37,2.339-15.37,2.339c-4.385,5.12,2.2,7.317-4.385,5.12s-8.051-13.9-10.977-5.12-8.782-4.39-13.171,4.39S-676.354,48.4-676.354,48.4s-13.9-2.93-14.63,1.461-5.12,7.317-10.243,0,5.123-13.172-5.12-7.32-27.8-.729-27.8-.729l-16.093,8.05-19.025-6.587s-5.123,1.464-8.051,5.123-16.828-1.464-16.828-1.464-5.854-5.853-8.78-2.2S-816.1,49.13-818.3,49.13s-14.63-3.659-16.826,2.2-24.142-2.193-24.873,8.05-12.445,11.7-14.637,13.167,10.977,4.392,11.706,8.781-7.079,31.459-11.954,37.314-15.494,18.291-15.494,18.291-14.985-.73-16.451,4.389-4.391,7.319,0,16.1,2.192,11.706,8.049,19.023,28.534,5.855,29.266,18.29-9.513,11.709-11.708,13.17-16.829,4.39-18.29,8.051-8.78.461-5.12,8.645-1.713,6.721-4.515,8.913-25.485,1.465-25.485,5.854-8.78,10.243-8.78,10.243-9.513-3.657-10.975,4.39-6.585,6.586-9.512,10.976-11.7,13.9-11.7,13.9,8.042,4.39,11.7,6.585,21.662,0,14.124,8.048-28.755,10.245-30.22,13.9-10.975-1.465-7.317,6.586-2.926,6.583-9.51,8.046-21.218-.731-24.148,3.658-8.044-2.194-12.435,6.585-19.024,16.829-19.024,19.024,14.632,8.777,20.487,13.169-5.854,6.585,6.586,21.217,16.1,29.265,16.1,29.265l14.635,24.147,23.414,13.9h18.288l20.49-3.661s-7.319-13.167,4.389-11.7,10.243-11.706,18.287-10.976-1.461-4.387,13.173,3.659,19.022-8.046,23.415.729,11.706-4.389,19.021,1.467,10.245-11.708,13.9,2.195,7.317,6.586,11.707,7.313-2.195-8.779,4.391.733,24.871.733,24.871.733l10.245,9.512s2.93-8.051,8.78-8.051,5.123,2.931,9.51,0-1.459-12.435,8.784-7.314,10.971-7.316,18.292-5.12,21.947-10.978,21.947-10.978-13.936,7.32,5.471-2.925l19.408-10.241s16.827-3.661,16.827-5.857v-8.779s-7.317-15.366-11.7-13.169-6.588-16.1-6.588-16.1,1.465-22.682,16.831-16.1,14.631,2.928,20.482,2.928,3.66-6.586,5.857,0,1.463-1.464,2.192,6.584,13.9-4.389,12.438,5.853,1.463,13.171-2.924,14.633,2.926,2.2,2.195,9.512-5.123,10.976.73,11.708A6.478,6.478,0,0,0-633.187,395.2Z" transform="translate(1052.425 -30.606)" fill="#0c120e"/>
          <path id="Path_11424" data-name="Path 11424" d="M-476.149,456.952s-19.935,81.51-21.361,89.886,0,30.447-6.407,37.567-20.651,17.8-23.5,23.5-18.515,46.28-22.076,57.675-3.559,38.451-5.7,46.28-7.12,6.411-4.269,17.091,3.559,67.641,3.559,67.641,4.984,52.7,4.984,59.1,2.138,37.027,2.138,37.027l-55.54,10.678s2.848-31.326,0-47.705-2.849-63.372-2.849-68.358,4.276-17.8,0-31.331-9.968-37.023-16.379-56.25-9.766-39.874-13.07-42.719-26.8-30.618-31.785-42.725-5.7-16.771-12.816-33.308-13.54-27.068-17.09-34.167S-711.12,538.127-714.681,531-721.8,506.8-721.8,506.8l19.223-2.139s23.5,46.283,24.209,48.418,14.241,19.937,16.379,23.5,11.391,19.938,11.391,19.938l7.853,11.393s2.153-23.5,0-30.617-2.831-13.529,0-20.647,3.738-9.258,6.132-26.347-2.394-24.92,0-29.2,5.242-14.238,5.242-14.238.979,4.933,2.133,11.391,2.85,15.665.713,24.211-9.772,24.921-8.089,31.329-3.818,24.923,0,32.753,3.1,39.163,3.1,39.163,14.958,20.648,15.671,22.784,7.117,8.542,9.254,17.089,7.83,14.954,9.61,19.934,16.734,29.2,16.734,29.2,9.97-21.363,11.393-23.5,4.273-9.257,5.7-19.935,10.68-28.485,10.68-34.893,4.983-21.359,7.832-28.481,6.409-15.664,9.97-18.514,13.53-5.7,16.379-15.664,4.269-27.771,3.561-29.906-7.124-12.1-10.683-14.951-8.544-3.56-14.241-12.82-10.857-23.237-10.857-23.237l.177-10.937,9.255.712s7.573,7.118,5.7,12.1,14.951,19.938,14.951,19.938l9.255,9.258,6.407,1.425s5.408-11.714,5.2-17.249,9.049-55.379,9.049-55.379Z" transform="translate(978.924 -124.437)" fill="#0c120e"/>
        </g>
        <g id="Group_4500" data-name="Group 4500" transform="translate(119.216 285.603)">
          <g id="Group_4496" data-name="Group 4496" transform="translate(261.727)">
            <path id="Path_11425" data-name="Path 11425" d="M-404.279,630.346c26.608,0,59.492-31.581,97.879-94.052,30.242-49.212,53.165-100.577,53.393-101.092l-7.743-3.444c-24.867,55.946-99.962,199.063-148.1,189.68-24.068-4.7-56.862-44.621-94.837-115.457-29.051-54.2-50.835-107.6-51.049-108.13l-7.853,3.189c3.586,8.828,88.574,216.312,152.115,228.712A32.25,32.25,0,0,0-404.279,630.346Z" transform="translate(562.586 -397.851)" fill="#0c120e"/>
          </g>
          <g id="Group_4497" data-name="Group 4497" transform="translate(70.872 41.568)">
            <path id="Path_11426" data-name="Path 11426" d="M-685.661,679.226c82.337,0,139.872-216.325,142.346-225.783l-8.2-2.142c-.153.583-15.548,58.958-40.836,115.036-22.856,50.685-58.558,109.868-98.919,104-79.17-11.511-108.084-184.579-108.365-186.323L-808,485.37c.072.449,7.458,45.4,25,91.222,23.927,62.515,54.382,96.881,90.513,102.14A48.17,48.17,0,0,0-685.661,679.226Z" transform="translate(807.999 -451.301)" fill="#0c120e"/>
          </g>
          <g id="Group_4498" data-name="Group 4498" transform="translate(363.524 55.597)">
            <path id="Path_11427" data-name="Path 11427" d="M-427.452,651.019a4.238,4.238,0,0,0,4.235-4.235V473.579a4.238,4.238,0,0,0-4.235-4.238,4.237,4.237,0,0,0-4.238,4.238V646.784A4.237,4.237,0,0,0-427.452,651.019Z" transform="translate(431.69 -469.341)" fill="#0c120e"/>
          </g>
          <g id="Group_4499" data-name="Group 4499" transform="translate(0 104.003)">
            <path id="Path_11428" data-name="Path 11428" d="M-894.894,676.2a4.236,4.236,0,0,0,4.24-4.234V535.822a4.239,4.239,0,0,0-4.24-4.238,4.237,4.237,0,0,0-4.236,4.238V671.963A4.233,4.233,0,0,0-894.894,676.2Z" transform="translate(899.13 -531.584)" fill="#0c120e"/>
          </g>
        </g>
      </g>
    </g>
    <g id="Group_4494" data-name="Group 4494" transform="translate(55.725 3532.383)" opacity="0.151">
      <g id="Group_4493" data-name="Group 4493" transform="translate(1275.559 243.682)">
        <g id="Group_4488" data-name="Group 4488" transform="translate(216.111 74.248)">
          <path id="Path_11418" data-name="Path 11418" d="M1593.709,509.281s14.029,8.1,19.965,8.634,9.714-1.078,11.333,0,18.888.114,18.888.114l11.333-4.138,10.791-4.61,9.716,4.572,2.7-4.572a33.733,33.733,0,0,0-2.51-10.1c-2.157-4.856-3.9-22-3.9-22l-1.687-15.932,1.687-5.231s9.4.886,7.24,2.506,3.342,37.036,3.342,37.036,2.366,10.648,6.683,12.808,3.175,4.2,6.413,5.521,30.221,4.535,30.221,4.535a34.155,34.155,0,0,0,16.189,0c9.174-2.129,34.538-5.908,38.853-6.986s24.285-4.317,24.285-4.317,16.727-1.081,20.505-1.081,29.143.54,29.143.54l10.253-.54-12.95-15.728s-16.19-14.488-16.73-16.11-11.333-7.014-12.411-12.953a53.229,53.229,0,0,0-3.238-10.792l-12.41-9.174-50.242-34-3.186-17.809,25.9,3.779,52.346,21.047s16.19,12.411,16.729,14.031,11.875,14.03,16.19,16.728,35.617,45.871,35.617,45.871l11.87,15.108,5.941,13.333,6.677,14.731,7.924-11.859s-.522-17.3,0-25.156,2.1-34.065,0-39.306-5.237-12.052-5.237-12.052l-2.687-13.628s-10.94-10.481-14.085-13.1-13.1-6.289-14.672-6.289-12.581-.522-16.25-1.049-20.437-4.191-20.437-4.191l-13.625-7.338,11.007-4.193,14.674,2.1,15.723.523h6.288l-12.054-17.3s-7.862-11.005-9.956-15.721-2.621-7.859-2.1-9.435,1.57-4.716,1.57-4.716l10.484,3.146s4.716,8.908,6.291,11.528,14.148,18.867,15.719,22.013,12.58,12.575,12.58,12.575l15.723,6.29,9.956-7.337s6.288-5.243,6.288-10.481,11.532-20.438,11.532-20.438l8.909,1.572s-7.338,18.867-8.387,21.486-6.814,18.867-6.814,20.966,5.239,28.1,5.239,30.035,2.1,31.281,2.1,41.236,2.1,42.975,2.1,42.975l.527,59.742s5.241,18.343,5.241,20.437-1.05,51.884,0,55.554,4.19,71.793,4.19,71.793l6.815,23.585s9.957,48.218,9.957,53.457-1.574,40.878,0,47.687,5.239,42.975,5.239,42.975-2.619,11.528-2.619,13.628,5.766,24.107,5.766,24.107,11,39.3,13.625,42.449,5.763,10.481,5.763,14.15-2.094,21.485,0,24.63,8.911,17.293,8.911,17.293-13.1,15.2-26.728,16.773-41.927,3.141-43.5,2.619-20.373,1.25-25.679.1-47.688-2.2-51.356-3.249-23.792-13.063-23.792-13.063,7.365-19.634,8.591-23.317,11.045-6.135,12.274-34.365-2.454-20.863,8.591-35.591,12.272-11.046,19.637-28.229,12.272-84.687,12.272-98.186-8.476-40.5,0-46.636,8.478-3.682,8.478-15.957V736.035c0-4.908-13.386-31.911-13.386-31.911V637.851s-8.591-31.911-9.817-35.594-11.719-29.453-11.719-29.453l-16.511-39.275-25.774-8.592s-28.229-3.679-40.5,0-31.909,3.684-35.59,4.911-36.819,2.453-36.819,2.453l-35.594,2.455s-14.726-15.544-18.409-11.452-17.181-5.464-20.866-.689-24.545,8.458-24.545,8.458l-19.639-3.682-27-13.5" transform="translate(-1589.085 -351.399)" fill="#0c120e"/>
        </g>
        <g id="Group_4489" data-name="Group 4489">
          <path id="Path_11419" data-name="Path 11419" d="M1502.009,482.175s.538,9.137,1.79,11.105,8.239,5.2,9.135,5.734,11.464,6.626,11.464,6.626l-15.4-1.434s8.062,20.065,8.062,20.6-14.151-9.852-14.151-9.852-2.865,11.108-4.3,11.465-5.913-17.914-5.913-17.914l-6.806,3.225V505.1s-2.506,1.791-2.688,3.225-1.25,6.448-2.5,4.477-2.329-13.255-4.837-10.209-5.017,10.926-6.807,11.106-3.761-11.822-6.271-10.213-7.7,1.8-8.418-.176-1.254-5.731-4.656-1.612-6.45,16.121-7.706,10.568,5.736-18.45,0-14.689-19.881,14.153-16.48,7.882,10.927-7.524,8.241-12.182-5.373-.178-9.492,4.838-3.583-6.63-5.377-8.061-14.33,4.657-13.254,2.149,12.36-9.316,10.929-11.464-17.375-9.316-16.3-10.571,22.032,3.584,23.285,1.255.9-5.371-4.479-6.8,1.256-4.3,1.792-5.732-8.6-2.151-8.6-2.151,9.494-12.719,4.121-10.39-16.945,10.748-16.174,7.882,12.589-13.791,7.215-13.614-11.465,7.344-9.852,1.971,6.629-6.45,6.271-7.167-5.733-1.791-8.063-4.837,3.941-5.91,4.479-6.088,5.2-5.914-2.508-5.2-25.973.539-12.179-2.506,17.735-1.256,16.3-5.734-5.733-15.583-7.7-9.852-3.406,5.193-5.373,1.614-.721-6.45-5.554,2.507-2.686.179-4.658-2.867-1.79-8.775-4.3,2.508-3.764,16.66-3.941,11.286,3.4-35.826-1.612-23.824-5.554,36.181-9.852,24.719-2.508-28.3-4.3-23.464-9.494,14.151-8.24,8.239,4.835-15.047,3.4-16.3-17.733,2.329-20.419,5.733-7.524,9.851-6.093,1.075,8.6-17.2,5.377-17.376-8.958,5.016-12.183,6.628-3.582,3.761-2.865-3.224,2.15-9.315-4.836-7.7-18.091,5.552-12.717,1.791,13.971-6.805,7.165-6.987-23.823-2.508-12.181-5.374,18.808-5.552,15.4-8.956-5.015-5.373-8.954-1.255-4.479,4.123-4.479.181-.181-6.089-7.525-4.3-13.971,3.583-6.806-1.791,18.45-9.135,11.821-11.105-18.631-5.376-10.927-5.735,14.869.719,15.406-1.252-17.017-9.852-9.494-9.135,16.839,2.866,17.375.9l.538-1.971a29.3,29.3,0,0,0,3.76-13.974c0-7.881,9.315-10.031,12.181-5.015s5.734,14.329,10.748,8.6,4.3-24.36,12.18-17.911,25.793,10.747,27.227,7.165l1.435-3.582s7.165,5.015,9.313,1.432a13.611,13.611,0,0,0,2.15-6.353l13.612,4.2,4.016-15.763s19.628-20.779,24.645-7.882,12.895,31.528,15.763,17.914-2.869-15.048,2.865-13.615a26.436,26.436,0,0,1,9.314,4.3s8.6-10.75,12.181-7.881,6.448,10.745,11.465,7.881,9.316-15.606,11.464-12.819,15.763,10.668,16.479,12.819,13.973-2.866,20.241,1.434,17.017,8.6,17.734,12.181,12.181-1.436,14.331-5.016,6.448,7.165,3.583,11.464,15.047,5.731,15.047,5.731,4.922,1.673-4.751,4.6-23.4-1.124-13.052,4.951,12.376,7.639,4.276,7.307-9.226-.105-6.978,3.043,4.727,7.2-1.574,6.976-8.1-1.349-6.075,5.85-1.349,22.279-3.6,12.377-4.95-11.475-6.075-6.752-10.124,0-9.452,2.476,8.777,6.976,4.05,9-11.024-7.874-8.773,0,7.2,14.4,2.024,11.027-8.55-4.052-6.976-.451-.9,2.477-6.752,3.6-13.274,4.947-4.274,5.625,14.4-1.8,9.9,3.377-10.575,10.8-3.376,8.325,8.777-13.052,9-3.826,3.15,19.577,4.5,8.325-4.726-27.678,3.147-16.426,10.126,18.451,10.351,11.475,2.027-15.752,5.852-14.176,8.777,3.149,6.3-2.927.223-12.6,2.249-11.7,7.2,11.927,4.052-.674-11.027-17.1-2.474-13.727,12.6,10.351,9.9,1.35-3.825-15.526-.225-11.024,6.075,12.373,7.876,3.6,2.476-18.9,4.5-8.325,6.3,16.2,6.972,9.9-1.124-9.677,3.6-4.952,11.03,8.326,8.553,1.8-10.128-17.112-3.6-13.169,10.8,1.918,7.426-2.358-6.526-17.325-.451-12.6,10.352,4.727,12.375-1.573,3.152-14.178,6.073-6.526,12.155,11.475,15.08,5.174,3.6-12.6,4.5-6.975,5.177,14.4,5.85,14.4,13.051-9.471,6.976-2.027-11.475,12.59-7.2,12.483,7.652,1.694,5.625,3.719,9-15.525,9-12.6.228,9.491,5.4,3.846,1.573-13.744,4.723-9.245,3.827,8.55,5.4,4.276,8.553-19.578,12.827-15.076,1.349,13.725,6.748,6.526,2.25-21.155,5.852-15.3,3.827,14.4,7.652,8.777,2.25-14.177,4.05-7.878,3.6,10.353,3.6,11.252a19.706,19.706,0,0,0,4.391-12.16c0-7.256,2.418-7.256,6.986-6.45s7.525,4.03,6.987-2.419-2.15-12.627,3.222-9.4,13.973,7.253,13.973,2.686.537-12.629,6.45-8.329,9.4,9.042,16.926,1.88,9.672-22.569,13.435-14.239-3.491,20.151,10.21,10.747,12.092-18.785,17.2-13.151,6.717,7.424,6.985,9.48,7.256-8.152,8.6-6.807,6.72,2.87,6.452,6.807,9.671-1.972,10.478-3.046,8.328.805,7.79,6.181,5.913,7.968,8.868,2.417,6.18-9.136,3.761-1.076,31.7,0,27.944,6.719-9.362,14.239.291,9.94,17.979-6.179,11.531,2.956-12.9,12.36-6.716,11.823,10.75-1.612,6.985,2.688-6.717.265-.535,5.641,8.06,7.253,10.746,7.522.535,3.928-1.341,6.263-7.793,6.635-2.42,6.635,15.851,2.417,9.94,6.18-7.791,3.225-2.148,6.716-9.4,8.061-9.4,8.061,0,1.881,2.687,5.641.536,5.915-3.5,4.838-8.058-2.419-3.76,3.222,6.985,7.794-.269,6.181-16.926-1.343-13.165,2.419c2.344,2.341,6.195,5.991,3.759,3.764,0,0-10.053,5.88-12.281,2.262s-6.4-10.3-6.96-3.619-.28,7.516-4.456,3.34-4.177-10.024-7.8-5.57-3.344,7.52-5.571,2.508,2.856-12.794-5.569-7.8-6.406,13.09-9.748,4.178-.277-12.251-5.569-10.584-7.24,3.624-7.517-1.391,1.949-15.872-3.9-9.745-7.519,3.9-8.635.835-7.794-15.594-10.581-9.189-4.175,6.128-5.847,4.179-3.171-8.616-5.015-1.115,1.116,6.963,5.571,8.074,10.858,3.779,3.622,4.179-11.695-.278-10.582,1.671-2.672,5.1-6.961,3.9-3.99-4.7-3.251.3,3.251,9.17-1.206,7.218-6.126-8.353-6.4-3.9,2.228,8.355,2.783,9.746,9.747,23.67,7.8,24.784-4.175-10.676-7.8-5.758-2.5,8.262-5.012,2.694-4.456-7.89-5.569-2.694-2.783,8.262-3.342,2.414,1.394-10.024-1.947-6.125-6.4,5.569-5.848,2.228,4.177-11.975-1.114-7.8-10.86-5.013-12.252-.278,1.672,3.62-1.115,6.125-6.705-3.274-9.48,1.288,3.631,5.4-4.721,5.953-32.856-.836-36.2,1.67-11.32-11.109-14.57-1.656-6.592,13.353-6.871,7.5,1.951-13.643-4.176-9.747-10.58-5.1-11.415-1.579,3.338,2.694-.837,3.53-10.027-2.783-9.468-1.116,23.669,3.344,19.212,6.963-17.541-3.621-13.365,3.342,9.746,14.479,6.964,15.314-7.517-13.644-11.7-7.24-5.847,12.533-6.685,7.8-.555-15.315-3.34-10.861-1.671,7.517-4.732,5.29-4.456-3.34-4.177.558-2.508,3.621-5.014,2.785-6.96-.835-4.734,3.064,1.951,5.847-1.949,4.732-4.453-3.341-4.734.28-7.8-2.785-7.517,3.619,1.671,11.695-.557,12.252-7.216-6.683-5.835-1.391,8.063,7.24,7.227,10.86-6.124.276-9.746-3.066-3.9.837-5.847,2.231-3.9-7.241-5.291-9.19-8.881,2.808-8.837,2.894.159-3.109-2.185-3.838-8.192,1.222-8.468,2.615-1.953,6.125-4.458,2.785,1.114-12.255-4.453-7.521-7.522,4.736-8.632,2.231-3.9-.56-5.57,1.949-4.736,2.226-5.012.278-1.672-11.972-5.291-5.29,1.393,4.176-5.847,5.569-14.2-1.392-7.24,3.062,14.2-.558,17.264,4.735-8.077,6.4-2.506,5.849,27.846-3.063,14.48,1.113-21.72.833-18.657,5.011,12.254,7.518,6.683,7.518-2.506,6.406-2.506,6.406-4.734-1.394-8.355-2.228-4.177-3.341-4.733,1.392-1.39,6.126-6.683,5.29-5.849-5.567-5.29-.835,2.784,6.406-1.673,5.292S1502.009,482.175,1502.009,482.175Z" transform="translate(-1275.559 -243.682)" fill="#0c120e"/>
        </g>
        <g id="Group_4490" data-name="Group 4490" transform="translate(259.426 126.858)">
          <path id="Path_11420" data-name="Path 11420" d="M1801.561,627.852c.611,0,1.221-.008,1.831-.017,27.661-.376,50.8-10.46,68.763-29.972,21.353-23.186,35.147-58.911,41-106.184a375.856,375.856,0,0,0,2.416-63.956l-7.5.517c.077,1.11,7.045,111.89-41.455,164.537-16.509,17.924-37.815,27.187-63.321,27.536-48.987.678-88.057-26.508-116.142-80.784-21.168-40.912-27.721-82.5-27.784-82.915l-7.439,1.144c.272,1.745,6.814,43.231,28.543,85.225,12.84,24.821,28.336,44.557,46.059,58.663A117.723,117.723,0,0,0,1801.561,627.852Z" transform="translate(-1651.925 -427.723)" fill="#0c120e"/>
        </g>
        <g id="Group_4491" data-name="Group 4491" transform="translate(190.126 130.032)">
          <path id="Path_11421" data-name="Path 11421" d="M1618.93,717.764q.783,0,1.571-.055c15.18-1.071,29.241-15.7,42.993-44.711,10.45-22.059,20.6-52.431,30.169-90.275C1709.9,518.494,1719,453.942,1719.089,453.3a3.762,3.762,0,1,0-7.451-1.043c-9.865,70.645-45.566,254.7-91.666,257.949-4.419.309-8.589-1.368-12.713-5.13-40-36.516-47.354-235.014-48.245-265.225H1792.3V697.267a3.761,3.761,0,1,0,7.523,0V436.087a3.761,3.761,0,0,0-3.764-3.759H1555.148a3.758,3.758,0,0,0-3.76,3.838c.2,9.492,5.34,232.966,50.8,274.466C1607.378,715.368,1613,717.764,1618.93,717.764Z" transform="translate(-1551.387 -432.328)" fill="#0c120e"/>
        </g>
        <g id="Group_4492" data-name="Group 4492" transform="translate(362.856 112.508)">
          <path id="Path_11422" data-name="Path 11422" d="M1805.742,662.255a3.763,3.763,0,0,0,3.76-3.761V410.663a3.763,3.763,0,0,0-7.525,0v247.83A3.762,3.762,0,0,0,1805.742,662.255Z" transform="translate(-1801.977 -406.904)" fill="#0c120e"/>
        </g>
      </g>
    </g>
    <path id="Path_11432" data-name="Path 11432" d="M523.722,543.488H765.343s11.262-22.612-36.374-18.842c0,0,.869-31.1-25.979-15.082,0,0-11.256-18.592-19.918-4.583,0,0-40.7-48.961-69.28-5.227,0,0-25.986-6.862-27.716,12.782,0,0-31.177-6.738-29.442,16.815C556.634,529.352,527.188,525.587,523.722,543.488Z" transform="translate(-382.931 3568.512)" fill="#f8f8f8" opacity="0.107"/>
    <path id="Path_11431" data-name="Path 11431" d="M180.885,559.614s3.237,22.1,12.5,21.879,11.363-21.771,21.3-21.81,4.9,21.63,20.277,21.472,10.126-22.4,21.974-22.153,1.231,17.446,18.022,22.491" transform="translate(1513.623 3643.641)" fill="none" stroke="#245a21" stroke-width="5" opacity="0.432"/>
    <text id="_" data-name="+" transform="translate(175 4308)" fill="#61c75d" font-size="70" font-family="Montserrat-Medium, Montserrat" font-weight="500" opacity="0.266"><tspan x="0" y="68">+</tspan></text>
  </g>
</svg>
