<svg xmlns="http://www.w3.org/2000/svg" xmlns:xlink="http://www.w3.org/1999/xlink" width="1920" height="288" viewBox="0 0 1920 288">
  <defs>
    <clipPath id="clip-path">
      <rect id="Rectangle_10674" data-name="Rectangle 10674" width="1920" height="288" transform="translate(0 1116)" fill="#fff" stroke="#707070" stroke-width="1"/>
    </clipPath>
  </defs>
  <g id="Mask_Group_1" data-name="Mask Group 1" transform="translate(0 -1116)" clip-path="url(#clip-path)">
    <g id="Group_6048" data-name="Group 6048">
      <g id="Group_5891" data-name="Group 5891" transform="translate(1628.633 964.167)">
        <line id="Line_29" data-name="Line 29" x2="33.16" y2="137.021" transform="translate(81.668 328.919)" fill="none" stroke="#fff" stroke-miterlimit="10" stroke-width="1"/>
        <line id="Line_30" data-name="Line 30" x1="33.161" y2="137.021" transform="translate(114.828 328.919)" fill="none" stroke="#fff" stroke-miterlimit="10" stroke-width="1"/>
        <line id="Line_31" data-name="Line 31" y2="183.656" transform="translate(114.828 282.284)" fill="none" stroke="#fff" stroke-miterlimit="10" stroke-width="1"/>
        <g id="Group_5888" data-name="Group 5888" transform="translate(64.083 152.168)">
          <path id="Path_11905" data-name="Path 11905" d="M90.692,237.06h-7.35l-7.321,17.006s1.441,4.036,5.187,2.306c0,0,2.421-3.169,4.152-.72,0,0,2.448,3.6,5.332.575,0,0,1.154-4.321,4.467-.718,0,0,3.316.719,3.46-2.307Z" transform="translate(-36.574 -117.132)" fill="#00adb9"/>
          <path id="Path_11906" data-name="Path 11906" d="M149.278,213.786c0,34.029-22.65,61.615-50.591,61.615S48.1,247.815,48.1,213.786s22.649-61.618,50.589-61.618S149.278,179.755,149.278,213.786Z" transform="translate(-48.098 -152.168)" fill="#00adb9"/>
          <path id="Path_11907" data-name="Path 11907" d="M114.974,167.377a25.19,25.19,0,0,0-6.176-5.028c-8.8-4.9-20.508.462-23.911,9.585a41.708,41.708,0,0,0-2.4,14.369,60.329,60.329,0,0,0,4.566,22.972,50.605,50.605,0,0,0,5.029,9.468,29.44,29.44,0,0,0,7.442,7.641c4.723,3.242,11.478,4.792,17.073,3.155,4.807-1.408,8.116-5.281,9.883-9.847,2.091-5.412,2.454-11.417,2.056-17.159a67.619,67.619,0,0,0-4.227-19.182A48.959,48.959,0,0,0,114.974,167.377Z" transform="translate(-33.905 -148.731)" fill="#fff" opacity="0.1"/>
          <path id="Path_11908" data-name="Path 11908" d="M135.4,252.35c-6.186,6.123-14.256,10.424-23.061,10.745a39.4,39.4,0,0,1-25.974-8.447,27.673,27.673,0,0,1-8.493-11.066,10.827,10.827,0,0,1-.9-6.144,11.038,11.038,0,0,1,2.291-4.326,42.386,42.386,0,0,0,3.978-5.589c1.243-2.283,2.945-4.75,3.208-7.411.374-3.782-3.7-6.046-6-8.407-3.4-3.489-5.806-7.516-6.349-12.428a31.808,31.808,0,0,1,2.3-14.812,52.572,52.572,0,0,1,7.651-13.432,35.739,35.739,0,0,1,11.87-10.225c7.168-3.588,15.115-3.944,22.983-3.522a42.85,42.85,0,0,0-20.213-5.12c-27.941,0-50.589,27.587-50.589,61.618S70.747,275.4,98.687,275.4c20.861,0,38.772-15.38,46.508-37.336A48.78,48.78,0,0,1,135.4,252.35Z" transform="translate(-48.098 -152.168)" fill="#e94f70" opacity="0.3"/>
          <path id="Path_11909" data-name="Path 11909" d="M115,200.547a3.792,3.792,0,0,0-.7-1.447c-1.88-2.4-7.829-2.372-9.188.722-1.184,2.7.349,7.137,3.4,7.8C112,208.386,115.819,203.96,115,200.547Z" transform="translate(-24.733 -133.504)" fill="#fff"/>
          <path id="Path_11910" data-name="Path 11910" d="M115.438,202.547c2.3-1.444,2.146-5.618,2.075-7.941a46.915,46.915,0,0,0-1.6-10.735c-1.74-6.46-4.957-15.109-11.159-18.484-2.869-1.56-6.983-2.149-9.673.119-2.3,1.94-3.1,7.144-1.769,9.844,1.814,3.672,6.27,4.97,8.235,8.574,2.327,4.268,3.259,9.163,5.656,13.4A12.375,12.375,0,0,0,111.763,202C112.8,202.6,114.281,203.272,115.438,202.547Z" transform="translate(-29.706 -147.282)" fill="#fff"/>
        </g>
        <g id="Group_5889" data-name="Group 5889" transform="translate(9.367 199.605)">
          <path id="Path_11911" data-name="Path 11911" d="M62.072,267.953l-7.08,1.971L52.5,288.271s2.471,3.5,5.617.831c0,0,1.482-3.7,3.8-1.807,0,0,3.327,2.811,5.292-.876,0,0-.047-4.473,4.111-1.89,0,0,3.388-.2,2.714-3.15Z" transform="translate(8.433 -151.82)" fill="#e94f70"/>
          <path id="Path_11912" data-name="Path 11912" d="M109.58,233.088c9.123,32.785-5.3,65.432-32.221,72.923S21.225,293,12.1,260.212s5.3-65.434,32.22-72.923S100.457,200.3,109.58,233.088Z" transform="translate(-9.367 -185.747)" fill="#e94f70"/>
          <path id="Path_11913" data-name="Path 11913" d="M66.585,194.82a25.2,25.2,0,0,0-7.3-3.188c-9.79-2.358-19.635,5.943-20.469,15.644a41.741,41.741,0,0,0,1.544,14.486A60.34,60.34,0,0,0,50.918,242.67a50.614,50.614,0,0,0,7.383,7.773,29.459,29.459,0,0,0,9.219,5.365c5.418,1.858,12.341,1.54,17.292-1.537,4.255-2.646,6.4-7.264,6.883-12.135.564-5.777-.7-11.658-2.621-17.081a67.549,67.549,0,0,0-9.214-17.348A48.992,48.992,0,0,0,66.585,194.82Z" transform="translate(2.737 -183.485)" fill="#fff" opacity="0.1"/>
          <path id="Path_11914" data-name="Path 11914" d="M106.546,273.961c-4.319,7.557-10.939,13.864-19.334,16.534a39.424,39.424,0,0,1-27.289-1.173,27.67,27.67,0,0,1-11.148-8.387,10.829,10.829,0,0,1-2.515-5.678,11.053,11.053,0,0,1,1.05-4.781,42.221,42.221,0,0,0,2.334-6.45c.586-2.533,1.564-5.365,1.1-8-.654-3.744-5.187-4.833-8.035-6.491-4.213-2.451-7.609-5.683-9.448-10.27a31.788,31.788,0,0,1-1.757-14.886,52.566,52.566,0,0,1,3.771-14.99,35.72,35.72,0,0,1,8.694-13.034c5.943-5.38,13.505-7.852,21.2-9.553a42.842,42.842,0,0,0-20.846.486c-26.916,7.489-41.341,40.139-32.22,72.923s38.338,53.289,65.256,45.8c20.1-5.591,33.23-25.21,34.8-48.438A48.8,48.8,0,0,1,106.546,273.961Z" transform="translate(-9.367 -185.746)" fill="#e94f70" opacity="0.3"/>
          <path id="Path_11915" data-name="Path 11915" d="M76.743,225.6a3.82,3.82,0,0,0-1.061-1.206c-2.458-1.812-8.178-.186-8.658,3.159-.417,2.914,2.25,6.782,5.364,6.606C75.955,233.957,78.448,228.669,76.743,225.6Z" transform="translate(14.411 -170.107)" fill="#fff"/>
          <path id="Path_11916" data-name="Path 11916" d="M77.483,227.563c1.829-2.007.561-5.986-.129-8.2a46.92,46.92,0,0,0-4.425-9.912c-3.409-5.758-8.825-13.229-15.705-14.815-3.183-.733-7.3-.2-9.289,2.707-1.7,2.485-1.074,7.715.937,9.957,2.732,3.05,7.369,3.107,10.231,6.052,3.385,3.489,5.6,7.955,9.04,11.391a12.365,12.365,0,0,0,5.651,3.282C74.96,228.324,76.562,228.573,77.483,227.563Z" transform="translate(6.145 -182.202)" fill="#fff"/>
        </g>
        <g id="Group_5890" data-name="Group 5890" transform="translate(119.354 203.537)">
          <path id="Path_11917" data-name="Path 11917" d="M112.005,269.674l6.958,2.372,1.444,18.458s-2.666,3.354-5.655.509c0,0-1.27-3.78-3.7-2.02,0,0-3.481,2.618-5.233-1.175,0,0,.3-4.464-4-2.122,0,0-3.371-.389-2.53-3.3Z" transform="translate(-82.295 -155.042)" fill="#f0ac30"/>
          <path id="Path_11918" data-name="Path 11918" d="M91.2,232.789C80.22,265,92.761,298.417,119.205,307.43s56.787-9.791,67.762-42-1.561-65.629-28.008-74.642S102.175,200.579,91.2,232.789Z" transform="translate(-87.223 -188.53)" fill="#f0ac30"/>
          <path id="Path_11919" data-name="Path 11919" d="M121.44,196.535a25.219,25.219,0,0,1,7.469-2.766c9.909-1.8,19.264,7.054,19.542,16.787a41.749,41.749,0,0,1-2.366,14.374A60.365,60.365,0,0,1,134.352,245.2a50.7,50.7,0,0,1-7.814,7.339,29.493,29.493,0,0,1-9.51,4.831c-5.515,1.546-12.409.833-17.176-2.52-4.1-2.885-5.98-7.617-6.179-12.508-.236-5.8,1.36-11.6,3.588-16.9a67.6,67.6,0,0,1,10.19-16.794A49,49,0,0,1,121.44,196.535Z" transform="translate(-84.57 -186.465)" fill="#fff" opacity="0.1"/>
          <path id="Path_11920" data-name="Path 11920" d="M91.893,273.769c3.881,7.791,10.129,14.466,18.361,17.609a39.4,39.4,0,0,0,27.31.384,27.667,27.667,0,0,0,11.608-7.736,10.814,10.814,0,0,0,2.834-5.525,11.061,11.061,0,0,0-.776-4.834,42.246,42.246,0,0,1-1.961-6.57c-.441-2.563-1.256-5.447-.647-8.051.866-3.7,5.454-4.529,8.393-6.022,4.344-2.207,7.92-5.24,10.017-9.715a31.806,31.806,0,0,0,2.605-14.761,52.587,52.587,0,0,0-2.91-15.181,35.731,35.731,0,0,0-7.937-13.507c-5.628-5.71-13.036-8.61-20.618-10.748a42.84,42.84,0,0,1,20.784,1.674c26.447,9.013,38.988,42.432,28.008,74.642s-41.315,51.016-67.762,42c-19.744-6.729-31.736-27.063-31.975-50.342A48.781,48.781,0,0,0,91.893,273.769Z" transform="translate(-87.22 -188.529)" fill="#e94f70" opacity="0.3"/>
          <path id="Path_11921" data-name="Path 11921" d="M96.311,226.5a3.792,3.792,0,0,1,1.126-1.144c2.557-1.668,8.175.281,8.464,3.646.25,2.934-2.632,6.644-5.73,6.289C96.621,234.885,94.432,229.464,96.311,226.5Z" transform="translate(-83.756 -173.583)" fill="#fff"/>
          <path id="Path_11922" data-name="Path 11922" d="M102.067,228.446c-1.714-2.109-.219-6.008.6-8.185a46.855,46.855,0,0,1,4.983-9.643c3.732-5.555,9.565-12.7,16.524-13.9,3.22-.551,7.3.219,9.119,3.232,1.553,2.578.631,7.763-1.5,9.888-2.9,2.889-7.535,2.681-10.56,5.459-3.578,3.289-6.039,7.622-9.676,10.857a12.386,12.386,0,0,1-5.827,2.954C104.541,229.349,102.928,229.505,102.067,228.446Z" transform="translate(-81.421 -185.218)" fill="#fff"/>
        </g>
      </g>
      <g id="Group_5907" data-name="Group 5907" transform="matrix(0.995, -0.105, 0.105, 0.995, -143.26, 1035.286)">
        <g id="Group_5906" data-name="Group 5906" transform="translate(42.543 176.535)">
          <g id="Group_5899" data-name="Group 5899" transform="translate(62.905)">
            <path id="Path_11962" data-name="Path 11962" d="M81.225,184.586s-6.184,8.626-2.384,16.911c4.36,9.509,46.307,46.487,46.307,46.487l9.128-10.695Z" transform="translate(-77.606 -170.141)" fill="#9b1247"/>
            <g id="Group_5898" data-name="Group 5898" transform="translate(0.897)">
              <path id="Path_11963" data-name="Path 11963" d="M135.553,251.088l62.188-25.033s-43.447-31.423-67.538-44.4-51.549.813-52.093,18.21S135.553,251.088,135.553,251.088Z" transform="translate(-78.106 -176.535)" fill="#e54452"/>
            </g>
          </g>
          <path id="Path_11964" data-name="Path 11964" d="M233.8,248.286l-2.975,7.6s-48.32,21.332-111.9,11.977-66.073-40.074-66.073-40.074l74.926.54Z" transform="translate(-34.357 -135.836)" fill="#9ba4b3"/>
          <path id="Path_11965" data-name="Path 11965" d="M122.726,217.184c35.638-17.44,130.9-36.212,151.134-29.689s23.4,15.056,36.793,19a121.479,121.479,0,0,1,15.135,5.644,16.561,16.561,0,0,1,5.506,26.267c-14.929,16.1-54.655,32.46-100.289,50.521-66.376,26.273-84.763-10.381-84.763-10.381-17.681-3.963-88.71-2.951-93.212-17.717C47.859,243.871,94.148,231.167,122.726,217.184Z" transform="translate(-34.533 -168.883)" fill="#cedaed"/>
          <path id="Path_11966" data-name="Path 11966" d="M203.138,238.537c-32.087,2.133-72.4,11.626-98.056,18.422,3.3,5.363,24.007,33.379,84.272,9.525,45.634-18.061,85.361-34.423,100.289-50.521a16.507,16.507,0,0,0,1.25-1.523C270.619,223.368,236.192,236.339,203.138,238.537Z" transform="translate(7.117 -146.436)" fill="#becadb"/>
          <path id="Path_11967" data-name="Path 11967" d="M52.853,237.712c1.773,12.11,14.067,22.06,24.871,27.708,38.828,20.417,107.387,17.571,150.45,1.2,41.151-16.375,82.867-32.245,102.943-51.329-21.321,20.573-66.433,37.218-102.767,51.786C175.563,287.3,79.459,286.192,56.2,246.693A25.506,25.506,0,0,1,52.853,237.712Z" transform="translate(-34.357 -145.761)" fill="#788696"/>
          <rect id="Rectangle_10635" data-name="Rectangle 10635" width="16.693" height="31.891" rx="3.271" transform="translate(231.591 69.023) rotate(164.863)" fill="#d9e2ff"/>
          <path id="Rectangle_10636" data-name="Rectangle 10636" d="M3.013,0h8.945A3.012,3.012,0,0,1,14.97,3.012V27.133a3.012,3.012,0,0,1-3.012,3.012H3.012A3.012,3.012,0,0,1,0,27.133V3.013A3.013,3.013,0,0,1,3.013,0Z" transform="translate(230.533 68.418) rotate(164.869)" fill="#cedaed"/>
          <path id="Path_11968" data-name="Path 11968" d="M76.493,252.089l-11.809-5.974L42.543,192.489l4.073-1.6Z" transform="translate(-42.543 -165.136)" fill="#9ba4b3"/>
          <path id="Path_11969" data-name="Path 11969" d="M132.687,236.118s-23.96-35.137-38.774-40.783-49.1-4.392-49.1-4.392l29.879,61.2S118.466,248.005,132.687,236.118Z" transform="translate(-40.741 -165.188)" fill="#cedaed"/>
          <path id="Path_11970" data-name="Path 11970" d="M50.3,203.7l32-3.394a1.956,1.956,0,0,0-.413-3.89l-33.413,3.545Z" transform="translate(-37.834 -160.756)" fill="#ce2409"/>
          <path id="Path_11971" data-name="Path 11971" d="M52.643,208.99,91.191,204.5a1.956,1.956,0,1,0-.452-3.886l-39.915,4.648Z" transform="translate(-35.968 -157.424)" fill="#ce2409"/>
          <path id="Path_11972" data-name="Path 11972" d="M55.132,214.548l45.521-5.522a1.956,1.956,0,0,0-.472-3.884l-46.867,5.687Z" transform="translate(-33.99 -153.83)" fill="#ce2409"/>
          <path id="Path_11973" data-name="Path 11973" d="M55.536,196.274c10.413-.185,22.631.759,32.023,5.7,11.357,5.969,20.716,19.078,26.267,22.839,3.45,2.338,14.254-2.124,17.663-3.021,12.063-3.179,24.007-6.823,35.961-10.39,21.735-6.487,43.1-14.837,65.658-18.106,14.972-2.169,34.825-2.894,47.809,6.132-2.4-1.665-9.358-1.111-12.259-1.279a142.268,142.268,0,0,0-47.638,5.574c-15.309,4.426-29.886,11.044-45.227,15.37q-18.671,5.267-37.7,9.132c-10.142,2.06-23.537,6.674-32.724-.418-4.049-3.131-7.054-7.384-10.485-11.184A63.629,63.629,0,0,0,55.536,196.274Z" transform="translate(-32.226 -164.335)" fill="#deebff" opacity="0.36"/>
          <path id="Path_11974" data-name="Path 11974" d="M198.793,227.255c8.456-1.88,12.164-12.311,12.878-22.736q-1.058-.336-2.144-.658c-10.37-3.055-14.534-8.933-25.411-14.367.023,4.293.109,9.871-1.774,14.01-2.191,4.81-3.468,10.013-1.064,14.719C184.139,223.83,189.4,229.343,198.793,227.255Z" transform="translate(66.593 -166.245)" fill="#777f91"/>
          <path id="Path_11975" data-name="Path 11975" d="M144.1,240.437l-21.461-3.572.854,6.832s55.855,41.949,63.12,46.165c16.4,9.521,35.083,4.311,45.869-6.475,1-1,4.43-5.233,4.43-5.233Z" transform="translate(21.056 -128.627)" fill="#9b1247"/>
          <g id="Group_5900" data-name="Group 5900" transform="translate(143.691 84.093)">
            <path id="Path_11976" data-name="Path 11976" d="M186.162,223.407l-63.527,24.145s42.025,33.736,65.54,47.843,51.7.614,53.082-17.369S186.162,223.407,186.162,223.407Z" transform="translate(-122.635 -223.407)" fill="#e54452"/>
          </g>
          <g id="Group_5901" data-name="Group 5901" transform="translate(115.128 72.643)">
            <path id="Path_11977" data-name="Path 11977" d="M106.717,226.813A10.037,10.037,0,1,0,117,217.028,10.038,10.038,0,0,0,106.717,226.813Z" transform="translate(-106.714 -217.025)" fill="#d9e2ff"/>
            <path id="Path_11978" data-name="Path 11978" d="M107.9,225.93a7.92,7.92,0,1,0,8.115-7.722A7.921,7.921,0,0,0,107.9,225.93Z" transform="translate(-105.777 -216.088)" fill="#8f95a8"/>
            <path id="Path_11979" data-name="Path 11979" d="M113.244,217.767a.391.391,0,1,1-.389-.391A.39.39,0,0,1,113.244,217.767Z" transform="translate(-102.15 -216.747)" fill="#8f95a8"/>
            <circle id="Ellipse_242" data-name="Ellipse 242" cx="0.424" cy="0.424" r="0.424" transform="translate(3.759 2.781)" fill="#8f95a8"/>
            <path id="Path_11980" data-name="Path 11980" d="M107.951,221.935a.415.415,0,1,1-.416-.416A.415.415,0,0,1,107.951,221.935Z" transform="translate(-106.392 -213.457)" fill="#8f95a8"/>
            <path id="Path_11981" data-name="Path 11981" d="M108.53,225.268a.423.423,0,1,1-.423-.423A.422.422,0,0,1,108.53,225.268Z" transform="translate(-105.945 -210.816)" fill="#8f95a8"/>
            <path id="Path_11982" data-name="Path 11982" d="M110.749,227.376a.424.424,0,1,1-.425-.423A.425.425,0,0,1,110.749,227.376Z" transform="translate(-104.185 -209.142)" fill="#8f95a8"/>
            <path id="Path_11983" data-name="Path 11983" d="M113.7,227.825a.4.4,0,1,1-.4-.4A.4.4,0,0,1,113.7,227.825Z" transform="translate(-101.804 -208.767)" fill="#8f95a8"/>
            <path id="Path_11984" data-name="Path 11984" d="M116.249,226.528a.449.449,0,1,1-.449-.447A.449.449,0,0,1,116.249,226.528Z" transform="translate(-99.855 -209.834)" fill="#8f95a8"/>
            <path id="Path_11985" data-name="Path 11985" d="M117.691,224.279a.415.415,0,1,1-.414-.416A.415.415,0,0,1,117.691,224.279Z" transform="translate(-98.658 -211.595)" fill="#8f95a8"/>
            <path id="Path_11986" data-name="Path 11986" d="M117.481,220.948a.31.31,0,1,1-.31-.31A.31.31,0,0,1,117.481,220.948Z" transform="translate(-98.658 -214.156)" fill="#8f95a8"/>
            <path id="Path_11987" data-name="Path 11987" d="M115.369,218.512a.318.318,0,1,1-.318-.319A.317.317,0,0,1,115.369,218.512Z" transform="translate(-100.346 -216.098)" fill="#8f95a8"/>
          </g>
          <g id="Group_5902" data-name="Group 5902" transform="translate(145.866 62.934)">
            <path id="Path_11988" data-name="Path 11988" d="M123.85,221.4a10.037,10.037,0,1,0,10.284-9.785A10.037,10.037,0,0,0,123.85,221.4Z" transform="translate(-123.847 -211.613)" fill="#d9e2ff"/>
            <path id="Path_11989" data-name="Path 11989" d="M125.03,220.516a7.919,7.919,0,1,0,8.113-7.72A7.92,7.92,0,0,0,125.03,220.516Z" transform="translate(-122.91 -210.676)" fill="#8f95a8"/>
            <path id="Path_11990" data-name="Path 11990" d="M130.377,212.355a.391.391,0,1,1-.393-.391A.391.391,0,0,1,130.377,212.355Z" transform="translate(-119.283 -211.335)" fill="#8f95a8"/>
            <path id="Path_11991" data-name="Path 11991" d="M126.791,213.586a.424.424,0,1,1-.425-.423A.425.425,0,0,1,126.791,213.586Z" transform="translate(-122.184 -210.383)" fill="#8f95a8"/>
            <path id="Path_11992" data-name="Path 11992" d="M125.083,216.523a.415.415,0,1,1-.416-.416A.417.417,0,0,1,125.083,216.523Z" transform="translate(-123.526 -208.045)" fill="#8f95a8"/>
            <path id="Path_11993" data-name="Path 11993" d="M125.664,219.856a.424.424,0,1,1-.423-.423A.424.424,0,0,1,125.664,219.856Z" transform="translate(-123.079 -205.404)" fill="#8f95a8"/>
            <path id="Path_11994" data-name="Path 11994" d="M127.881,221.964a.424.424,0,1,1-.423-.423A.425.425,0,0,1,127.881,221.964Z" transform="translate(-121.318 -203.73)" fill="#8f95a8"/>
            <path id="Path_11995" data-name="Path 11995" d="M130.829,222.412a.4.4,0,1,1-.4-.4A.4.4,0,0,1,130.829,222.412Z" transform="translate(-118.937 -203.354)" fill="#8f95a8"/>
            <circle id="Ellipse_243" data-name="Ellipse 243" cx="0.449" cy="0.449" r="0.449" transform="translate(15.495 16.246)" fill="#8f95a8"/>
            <path id="Path_11996" data-name="Path 11996" d="M134.824,218.866a.416.416,0,1,1-.416-.414A.417.417,0,0,1,134.824,218.866Z" transform="translate(-115.791 -206.183)" fill="#8f95a8"/>
            <path id="Path_11997" data-name="Path 11997" d="M134.613,215.535a.31.31,0,1,1-.31-.309A.31.31,0,0,1,134.613,215.535Z" transform="translate(-115.791 -208.744)" fill="#8f95a8"/>
            <path id="Path_11998" data-name="Path 11998" d="M132.5,213.1a.318.318,0,1,1-.319-.318A.318.318,0,0,1,132.5,213.1Z" transform="translate(-117.48 -210.685)" fill="#8f95a8"/>
          </g>
          <g id="Group_5903" data-name="Group 5903" transform="translate(174.631 50.921)">
            <path id="Path_11999" data-name="Path 11999" d="M139.883,214.707a10.037,10.037,0,1,0,10.284-9.787A10.04,10.04,0,0,0,139.883,214.707Z" transform="translate(-139.88 -204.917)" fill="#d9e2ff"/>
            <path id="Path_12000" data-name="Path 12000" d="M141.063,213.821a7.92,7.92,0,1,0,8.115-7.72A7.92,7.92,0,0,0,141.063,213.821Z" transform="translate(-138.943 -203.979)" fill="#8f95a8"/>
            <path id="Path_12001" data-name="Path 12001" d="M146.41,205.658a.391.391,0,1,1-.391-.389A.391.391,0,0,1,146.41,205.658Z" transform="translate(-135.316 -204.638)" fill="#8f95a8"/>
            <circle id="Ellipse_244" data-name="Ellipse 244" cx="0.424" cy="0.424" r="0.424" transform="translate(3.759 2.782)" fill="#8f95a8"/>
            <path id="Path_12002" data-name="Path 12002" d="M141.117,209.828a.415.415,0,1,1-.416-.416A.416.416,0,0,1,141.117,209.828Z" transform="translate(-139.558 -201.348)" fill="#8f95a8"/>
            <path id="Path_12003" data-name="Path 12003" d="M141.7,213.162a.423.423,0,1,1-.423-.425A.423.423,0,0,1,141.7,213.162Z" transform="translate(-139.111 -198.708)" fill="#8f95a8"/>
            <path id="Path_12004" data-name="Path 12004" d="M143.913,215.27a.423.423,0,1,1-.423-.425A.423.423,0,0,1,143.913,215.27Z" transform="translate(-137.351 -197.034)" fill="#8f95a8"/>
            <path id="Path_12005" data-name="Path 12005" d="M146.864,215.718a.4.4,0,1,1-.4-.4A.4.4,0,0,1,146.864,215.718Z" transform="translate(-134.97 -196.658)" fill="#8f95a8"/>
            <path id="Path_12006" data-name="Path 12006" d="M149.415,214.422a.449.449,0,1,1-.449-.449A.45.45,0,0,1,149.415,214.422Z" transform="translate(-133.021 -197.726)" fill="#8f95a8"/>
            <path id="Path_12007" data-name="Path 12007" d="M150.857,212.172a.415.415,0,1,1-.414-.416A.413.413,0,0,1,150.857,212.172Z" transform="translate(-131.824 -199.487)" fill="#8f95a8"/>
            <path id="Path_12008" data-name="Path 12008" d="M150.645,208.84a.309.309,0,1,1-.309-.31A.31.31,0,0,1,150.645,208.84Z" transform="translate(-131.824 -202.048)" fill="#8f95a8"/>
            <path id="Path_12009" data-name="Path 12009" d="M148.535,206.4a.318.318,0,1,1-.318-.318A.317.317,0,0,1,148.535,206.4Z" transform="translate(-133.512 -203.989)" fill="#8f95a8"/>
          </g>
          <g id="Group_5904" data-name="Group 5904" transform="translate(210.256 48.587)">
            <rect id="Rectangle_10637" data-name="Rectangle 10637" width="15.793" height="1.565" transform="matrix(0.962, -0.273, 0.273, 0.962, 0, 4.316)" fill="#d9e2ff"/>
          </g>
          <g id="Group_5905" data-name="Group 5905" transform="translate(213.446 60.204)">
            <rect id="Rectangle_10638" data-name="Rectangle 10638" width="15.824" height="1.565" transform="matrix(0.96, -0.28, 0.28, 0.96, 0, 4.43)" fill="#d9e2ff"/>
          </g>
        </g>
        <path id="Path_12010" data-name="Path 12010" d="M193.227,283.234c21.909,2.74,25.108-17.062,17.261-24.909S176.4,228.461,176.4,228.461l-41.081,18.127S171.318,280.5,193.227,283.234Z" transform="translate(73.675 41.234)" fill="#fc4b5a"/>
        <path id="Path_12011" data-name="Path 12011" d="M101.23,179.566s-15.316,0-17.139,9.458,21.515,24.025,21.515,24.025l31.359-13.014S111.8,179.566,101.23,179.566Z" transform="translate(32.912 2.407)" fill="#fc4b5a"/>
      </g>
    </g>
  </g>
</svg>
