<svg xmlns="http://www.w3.org/2000/svg" xmlns:xlink="http://www.w3.org/1999/xlink" width="1920" height="401" viewBox="0 0 1920 401">
  <defs>
    <clipPath id="clip-path">
      <rect id="Rectangle_10218" data-name="Rectangle 10218" width="1920" height="401" transform="translate(0 1873)" fill="rgba(255,255,255,0.46)" stroke="#707070" stroke-width="1"/>
    </clipPath>
    <radialGradient id="radial-gradient" cx="-31.131" cy="-95.678" r="2.018" gradientTransform="matrix(0.911, 0.644, -0.928, 0.924, -87.742, 12.486)" gradientUnits="objectBoundingBox">
      <stop offset="0" stop-color="#818998"/>
      <stop offset="0.082" stop-color="#817d83"/>
      <stop offset="0.397" stop-color="#83523a"/>
      <stop offset="0.543" stop-color="#84421d"/>
      <stop offset="1" stop-color="#581b0b"/>
    </radialGradient>
    <radialGradient id="radial-gradient-2" cx="-136.548" cy="-142.219" r="2.719" gradientTransform="matrix(1.089, 0.644, -1.109, 0.924, -139.419, 74.596)" xlink:href="#radial-gradient"/>
    <radialGradient id="radial-gradient-3" cx="-600.367" cy="-494.391" r="9.296" gradientTransform="matrix(1.122, 0.644, -1.143, 0.924, -471.525, 336.9)" xlink:href="#radial-gradient"/>
    <radialGradient id="radial-gradient-4" cx="-47.924" cy="-114.942" r="2.403" gradientTransform="matrix(0.938, 0.644, -0.955, 0.924, -108.097, 21.526)" xlink:href="#radial-gradient"/>
    <radialGradient id="radial-gradient-5" cx="47.699" cy="-68.486" r="2.749" gradientTransform="matrix(0.376, 0.644, -0.383, 0.924, 3.502, -34.49)" xlink:href="#radial-gradient"/>
    <radialGradient id="radial-gradient-6" cx="66.718" cy="-164.812" r="5.179" gradientTransform="matrix(0.584, 0.644, -0.595, 0.924, -67.311, -53.214)" xlink:href="#radial-gradient"/>
    <radialGradient id="radial-gradient-7" cx="62.027" cy="-155.466" r="4.566" gradientTransform="matrix(0.608, 0.644, -0.619, 0.924, -68.83, -49.604)" xlink:href="#radial-gradient"/>
    <radialGradient id="radial-gradient-8" cx="100.307" cy="-190.265" r="15.705" gradientTransform="matrix(0.098, 0.644, -0.099, 0.924, 68.677, -75.717)" xlink:href="#radial-gradient"/>
    <radialGradient id="radial-gradient-9" cx="142.714" cy="-342.948" r="30.24" gradientTransform="matrix(0.089, 0.644, -0.091, 0.924, 94.574, -112.795)" xlink:href="#radial-gradient"/>
    <radialGradient id="radial-gradient-10" cx="50.696" cy="-99.591" r="4.262" gradientTransform="matrix(0.653, 0.644, -0.665, 0.924, -46.378, -38.748)" xlink:href="#radial-gradient"/>
    <radialGradient id="radial-gradient-11" cx="122.177" cy="-125.585" r="9.215" gradientTransform="matrix(0.506, 0.644, -0.515, 0.924, -3.367, -85.102)" xlink:href="#radial-gradient"/>
    <radialGradient id="radial-gradient-12" cx="50.95" cy="-62.244" r="8.481" gradientTransform="matrix(0.138, 0.644, -0.14, 0.924, 34.007, -36.103)" xlink:href="#radial-gradient"/>
    <radialGradient id="radial-gradient-13" cx="42.243" cy="-54.138" r="3.842" gradientTransform="matrix(0.208, 0.644, -0.212, 0.924, 21.182, -30.109)" xlink:href="#radial-gradient"/>
    <radialGradient id="radial-gradient-14" cx="54.386" cy="-103.25" r="7.224" gradientTransform="matrix(0.134, 0.644, -0.136, 0.924, 31.869, -41.18)" xlink:href="#radial-gradient"/>
    <radialGradient id="radial-gradient-15" cx="76.577" cy="-482.103" r="40.409" gradientTransform="matrix(0.031, 0.644, -0.032, 0.924, 56.113, -82.003)" xlink:href="#radial-gradient"/>
    <radialGradient id="radial-gradient-16" cx="8.614" cy="-250.999" r="6.002" gradientTransform="matrix(0.757, 0.644, -0.771, 0.924, -183.506, -23.352)" xlink:href="#radial-gradient"/>
    <radialGradient id="radial-gradient-17" cx="67.77" cy="-282.275" r="7.427" gradientTransform="matrix(0.664, 0.644, -0.677, 0.924, -161.141, -62.298)" xlink:href="#radial-gradient"/>
    <radialGradient id="radial-gradient-18" cx="46.654" cy="-84.39" r="3.648" gradientTransform="matrix(0.581, 0.644, -0.592, 0.924, -28.942, -35.083)" xlink:href="#radial-gradient"/>
    <radialGradient id="radial-gradient-19" cx="43.442" cy="-89.12" r="3.693" gradientTransform="matrix(0.638, 0.644, -0.65, 0.924, -40.209, -33.456)" xlink:href="#radial-gradient"/>
    <radialGradient id="radial-gradient-20" cx="80.34" cy="-64.282" r="7.686" gradientTransform="matrix(0.228, 0.644, -0.232, 0.924, 45.497, -54.426)" xlink:href="#radial-gradient"/>
    <radialGradient id="radial-gradient-21" cx="-544.86" cy="-527.261" r="8.889" gradientTransform="matrix(1.627, 0.644, -1.656, 0.924, -511.214, 298.157)" xlink:href="#radial-gradient"/>
    <radialGradient id="radial-gradient-22" cx="-8661.546" cy="-2431.208" r="16.957" gradientTransform="matrix(3.255, 0.644, -3.315, 0.924, 11097.731, 5225.871)" xlink:href="#radial-gradient"/>
    <radialGradient id="radial-gradient-23" cx="123.218" cy="-98.56" r="16.178" gradientTransform="matrix(0.237, 0.644, -0.241, 0.924, 68.094, -83.599)" xlink:href="#radial-gradient"/>
    <radialGradient id="radial-gradient-24" cx="70.357" cy="-88.948" r="9.947" gradientTransform="matrix(0.252, 0.644, -0.257, 0.924, 29.085, -50.242)" xlink:href="#radial-gradient"/>
    <radialGradient id="radial-gradient-25" cx="117.385" cy="-129.789" r="13.745" gradientTransform="matrix(0.254, 0.644, -0.258, 0.924, 52.488, -82.256)" xlink:href="#radial-gradient"/>
    <radialGradient id="radial-gradient-26" cx="65.999" cy="-90.226" r="5.375" gradientTransform="matrix(0.374, 0.644, -0.381, 0.924, 6.971, -47.505)" xlink:href="#radial-gradient"/>
    <radialGradient id="radial-gradient-27" cx="149.855" cy="-349.844" r="27.14" gradientTransform="matrix(0.105, 0.644, -0.107, 0.924, 92.758, -117.803)" xlink:href="#radial-gradient"/>
    <radialGradient id="radial-gradient-28" cx="18.097" cy="-151.443" r="3.846" gradientTransform="matrix(0.748, 0.644, -0.761, 0.924, -106.119, -22.085)" xlink:href="#radial-gradient"/>
  </defs>
  <g id="background-balalantara-slider" transform="translate(0 -1873)" clip-path="url(#clip-path)">
    <g id="Group_3558" data-name="Group 3558" transform="translate(1443.498 1880.226)">
      <path id="Path_10485" data-name="Path 10485" d="M-421.491,199.258a644.182,644.182,0,0,0,.619-64.911c-.456-9.434-3.407-18.6-3.443-28.011-.025-5.949,5.316-2.793,8.169-1.363A105.3,105.3,0,0,1-398.729,115.7V400.483c-1.565-7.979-3.052-15.993-5.061-23.832-3.81-14.869-10.589-27.647-11.493-43.3-.872-15.109,1.211-30.171,2.41-45.184.611-7.655.935-15.324,1.495-22.982.2-2.736.452-5.442.628-8.123C-416.724,237.444-422.592,220.352-421.491,199.258Z" transform="translate(939.389 89.215)" fill="#733c19"/>
      <path id="Path_10486" data-name="Path 10486" d="M-423.492,257.112v17.494a35.727,35.727,0,0,1-.653-11.326C-423.967,261.213-423.732,259.161-423.492,257.112Z" transform="translate(964.152 247.841)" fill="#733c19"/>
      <path id="Path_10487" data-name="Path 10487" d="M-421.491,199.258a644.182,644.182,0,0,0,.619-64.911c-.456-9.434-3.407-18.6-3.443-28.011-.025-5.949,5.316-2.793,8.169-1.363A105.3,105.3,0,0,1-398.729,115.7V400.483c-1.565-7.979-3.052-15.993-5.061-23.832-3.81-14.869-10.589-27.647-11.493-43.3-.872-15.109,1.211-30.171,2.41-45.184.611-7.655.935-15.324,1.495-22.982.2-2.736.452-5.442.628-8.123C-416.724,237.444-422.592,220.352-421.491,199.258Z" transform="translate(939.389 89.215)" fill="#733c19" opacity="0.4"/>
      <path id="Path_10488" data-name="Path 10488" d="M-423.492,257.112v17.494a35.727,35.727,0,0,1-.653-11.326C-423.967,261.213-423.732,259.161-423.492,257.112Z" transform="translate(964.152 247.841)" fill="#733c19" opacity="0.4"/>
      <path id="Path_10489" data-name="Path 10489" d="M-423.492,257.112v17.494a35.727,35.727,0,0,1-.653-11.326C-423.967,261.213-423.732,259.161-423.492,257.112Z" transform="translate(964.152 247.841)" fill="#733c19" opacity="0.4"/>
      <path id="Path_10490" data-name="Path 10490" d="M-421.491,199.258a644.182,644.182,0,0,0,.619-64.911c-.456-9.434-3.407-18.6-3.443-28.011-.025-5.949,5.316-2.793,8.169-1.363,1.871.937,3.774,1.961,5.683,3.032,4.977,17.094,9.743,34.424,11.735,52.161v48.257c-.848,15.4-1.778,30.8-.865,46.233.244,4.107.35,8.466.865,12.669V400.483c-1.565-7.979-3.052-15.993-5.061-23.832-3.81-14.869-10.589-27.647-11.493-43.3-.872-15.109,1.211-30.171,2.41-45.184.611-7.655.935-15.324,1.495-22.982.2-2.736.452-5.442.628-8.123C-416.724,237.444-422.592,220.352-421.491,199.258Z" transform="translate(939.389 89.215)" fill="#733c19" opacity="0.4"/>
      <g id="Group_3557" data-name="Group 3557">
        <g id="Group_3471" data-name="Group 3471" transform="translate(119.599 61.878)">
          <path id="Path_10491" data-name="Path 10491" d="M-193.3,39.518c-2.265,3.211-3.419,8.184-3.91,13.064a97.785,97.785,0,0,0-.144,15.275c.543,9.217,1.767,18.749-.3,28.013-2.257,10.1-5.325,20.315-6.141,30.7a167.38,167.38,0,0,0,.422,31.978,69.205,69.205,0,0,0,1.347,7.4c.511,2.466,1.05,4.931,1.4,7.424a106.235,106.235,0,0,1,.838,16.427,65.263,65.263,0,0,1-.6,7.59c-.407,2.517-.921,5.02-1.479,7.513-1.118,4.994-2.442,9.941-3.513,14.881-1.09,5.29-2.092,10.513-2.656,15.764a85.417,85.417,0,0,0-.229,15.936c.388,5.105.8,10.208,1.33,15.334.477,5.119,1.094,10.269,1.307,15.407.337,7.4,1.065,14.784-.337,22.078-.717,3.85-1.5,7.673-2.372,11.492-.849,3.649-1.033,7.452-2.567,10.969-.089.2-.965.448-.853.138,1.756-4.833.725-10.478,1.408-15.5a88.079,88.079,0,0,0,.9-16.062c-.3-5.176-.95-10.342-1.619-15.49s-1.54-10.3-1.984-15.423c-.484-4.955-.812-9.837-1.1-14.713a76.179,76.179,0,0,1,.5-14.614c1.578-10.287,4.279-20.38,6.559-30.666.562-2.635,1.031-5.3,1.349-7.981.24-2.681.365-5.383.369-8.081a89.512,89.512,0,0,0-1.411-16.1,141.641,141.641,0,0,1-2.043-30.459,145.13,145.13,0,0,1,4.737-31.448c2.59-9.862,4.584-19.7,4.045-29.688-.384-7.223-1.2-14.543-1.112-21.857a49.328,49.328,0,0,1,1.182-10.784,20,20,0,0,1,4.406-9.255C-195.234,38.4-193.036,39.082-193.3,39.518Z" transform="translate(216.996 -38.664)" fill="#6f9740"/>
          <path id="Path_10492" data-name="Path 10492" d="M-199.879,92.338c.9,6.45,3.962,12.5,4.837,18.94.481,3.917,1.517,7.8,1.877,11.774a114.832,114.832,0,0,1,.388,14.293,59.428,59.428,0,0,1-1.7,11.786c-.88,3.88-1.941,7.726-2.949,11.586a85,85,0,0,1-4.629,12.62,101.271,101.271,0,0,0-4.915,12.484,33.219,33.219,0,0,0-1.256,10.332,69.18,69.18,0,0,0,1.116,10.468c1.3,7.622,2.756,15.269,3.7,22.96.931,7.095-1.016,13.971-1.375,21.043-.174,3.655.433,7.336.225,11a39.117,39.117,0,0,1-.723,4.9c-.227,1.292-1.01,3.166-.946,4.442.013.379-1.464,1.03-1.693.562-.942-1.925-.454-4.543-.35-6.484a52.859,52.859,0,0,0-.477-11.068c-.592-3.906.331-8.105.868-11.91.409-3.274,1.307-6.764.586-10.115-.787-3.608-1.249-7.223-1.74-10.845-.532-3.629-1.035-7.249-1.761-10.835-1.345-6.667-1.635-14.005.221-20.467,1.182-3.951,2.686-7.821,4.268-11.689s3.258-7.736,4.574-11.687c1.326-3.85,1.888-7.9,3-11.825a79.864,79.864,0,0,0,2.562-13.417c.636-8.156-.148-16.281-1.226-24.341-1.01-8.064-2.686-16.038-3.311-24.112C-200.721,92.508-199.911,92.088-199.879,92.338Z" transform="translate(211.883 16.45)" fill="#416123"/>
          <path id="Path_10493" data-name="Path 10493" d="M-198.58,40.321c-.821,4.276-1.7,8.933-1.294,13.756a47.955,47.955,0,0,1,.019,5.663c.062,2.623.971,5.121,1.578,7.709.974,4.353-.352,8.874-.465,13.281a43.09,43.09,0,0,1-2.488,14.654c-1.858,4.953-3.876,9.9-4.994,15.034-1.12,5.46-2.7,11.07-3.371,16.583-.621,4.894-2.276,9.87-1.548,14.8.706,4.933-2.032,9.819-.861,14.735.023.1-.3.3-.367.183-2.357-4.186-.532-8.628-.726-13a67.688,67.688,0,0,1,1.035-13.865c1.587-10.553,3.594-21.262,7.363-31.416A44.925,44.925,0,0,0-201.408,82.9c.074-4.9.98-9.752.709-14.6-.3-4.781-.938-9.62-1.148-14.5-.115-4.779.272-9.764,2.4-13.6C-199.365,40.059-198.54,40.093-198.58,40.321Z" transform="translate(220.324 -37.17)" fill="#416123"/>
          <path id="Path_10494" data-name="Path 10494" d="M-204.386,110.637a.454.454,0,0,0,.155.235c.687,5.927.772,11.894,1.761,17.829-.151,2.9-.543,5.795-.865,8.687s-.566,5.777-.6,8.673a75.573,75.573,0,0,1-1.644,12.922c-.774,4.268-1.837,8.513-2.073,12.855-.3,4.728.469,9.49.329,14.212-.049,2.4.435,4.773.187,7.178-.218,2.14-.753,4.407-.335,6.561.021.126-.411.322-.477.166a12.579,12.579,0,0,1-.732-5.065,68.991,68.991,0,0,0-.481-7.194,118.381,118.381,0,0,1-.617-13.9,49.878,49.878,0,0,1,1.621-13.052,57.3,57.3,0,0,0,1.833-13.667c.042-4.487.515-8.939.906-13.4a80.574,80.574,0,0,0,.017-13.445c-.166-1.71-.409-3.414-.7-5.111a68.757,68.757,0,0,0-1.12-8.734c-.28-1.6-.564-3.233-.849-4.86A53.971,53.971,0,0,1-204.386,110.637Z" transform="translate(217.695 25.975)" fill="#98c239"/>
          <path id="Path_10495" data-name="Path 10495" d="M-207.2,41.2a15.626,15.626,0,0,1-.543,2.221l-.586,2.219a16.464,16.464,0,0,0-.787,4.582c-.049,1.507-.026,3.022.074,4.564s.144,3.03.31,4.562c.288,3.02.066,6,.532,9.04a78.673,78.673,0,0,1,1,10.456c.027,3.215.134,6.409.03,9.576a54.146,54.146,0,0,1-.938,9.58c-.518,2.734.066,5.466-.3,8.229a50.412,50.412,0,0,1-1.065,5.292c-.454,1.868-1.81,3.635-1.493,5.582.019.1-.329.294-.369.176-.81-2.28.624-5.046.891-7.373a64.7,64.7,0,0,0,.11-9.338c-.085-3.292.868-6.588.884-9.9.019-3.625-.123-7.211-.2-10.837-.017-6.5-1.574-13.107-1.58-19.678-.011-6.513.6-12.993,3.156-18.948C-208.008,41.041-207.162,40.954-207.2,41.2Z" transform="translate(225.725 -36.213)" fill="#98c239"/>
        </g>
        <g id="Group_3472" data-name="Group 3472" transform="translate(433.52 135.695)">
          <path id="Path_10496" data-name="Path 10496" d="M-358.981,75.432c-2.49,3.111-3.8,7.515-4.6,11.9a91.879,91.879,0,0,0-1.192,13.65c-.168,8.231.288,16.768-.857,25.051-1.251,9.038-2.775,18.131-3.152,27.366a248.218,248.218,0,0,0,.452,28.471c.163,2.215.458,4.405.755,6.592.257,2.191.53,4.387.7,6.6.376,4.817.484,9.744.433,14.587-.028,2.262-.108,4.507-.3,6.746-.25,2.237-.549,4.464-.874,6.685-.67,4.387-1.364,8.924-2.028,13.265-.316,2.422-.621,4.758-.923,7.048q-.5,3.5-.84,7.012a134.625,134.625,0,0,0-.653,14.161c-.009,4.43-.019,8.981-.028,13.553-.015,4.519.1,9.058-.114,13.583-.28,6.517-.269,13.009-1.508,19.478-.628,3.407-1.258,6.815-1.992,10.2-.715,3.231-1.075,6.584-2.159,9.722-.062.184-.532.442-.446.17,1.294-4.3,1.188-9.219,1.89-13.66a127.749,127.749,0,0,0,1.521-14.19c.149-4.556.121-9.1.083-13.632s-.272-9.074-.242-13.608c.032-4.448.064-8.837.095-13.046a122.1,122.1,0,0,1,.749-13.02c1.218-9.192,2.626-18.238,3.986-27.412.327-2.345.622-4.718.812-7.109q.179-3.59.176-7.2a141.27,141.27,0,0,0-.719-14.338,236.532,236.532,0,0,1-1.262-27.118,206.313,206.313,0,0,1,2.265-27.97,173.633,173.633,0,0,0,2.382-26.489c-.023-6.438-.133-12.953.422-19.425.155-1.615.3-3.237.607-4.823.148-.8.291-1.594.435-2.385.176-.783.407-1.552.617-2.326a20.031,20.031,0,0,1,4.2-8.263C-359.993,74.921-358.69,75.028-358.981,75.432Z" transform="translate(379.052 -75.057)" fill="#6f9740"/>
          <path id="Path_10497" data-name="Path 10497" d="M-365.069,122.88c.5,5.744,2.113,11.152,2.607,16.887.244,3.487.766,6.931.95,10.458q.332,6.331.206,12.685a72.968,72.968,0,0,1-.974,10.47c-.509,3.454-1.107,6.878-1.684,10.322a108.242,108.242,0,0,1-2.579,11.285c-1.065,3.706-2.123,7.4-2.893,11.2a52.391,52.391,0,0,0-.982,9.223c-.072,3.061-.076,6.119.089,9.269.282,6.722.713,13.462.7,20.216.059,6.231-1.305,12.379-1.992,18.613-.34,3.225-.255,6.442-.655,9.671-.165,1.462-.471,2.9-.74,4.339-.208,1.148-.759,2.819-.834,3.929-.019.333-.831.98-.91.586-.323-1.635.138-3.961.333-5.673a72.881,72.881,0,0,0,.564-9.717,66.589,66.589,0,0,1,1.247-10.541c.4-2.915,1.056-6.03.885-8.969-.189-3.156-.2-6.346-.255-9.539-.095-3.2-.176-6.4-.375-9.563a75.4,75.4,0,0,1,.978-18.21c.728-3.549,1.614-7.024,2.539-10.5s1.913-6.939,2.618-10.48c.73-3.444,1.088-7.052,1.72-10.551A118.443,118.443,0,0,0-363,166.338a181.511,181.511,0,0,0-.634-21.63c-.469-7.178-1.489-14.289-1.846-21.475C-365.489,123.024-365.088,122.659-365.069,122.88Z" transform="translate(374.869 -25.953)" fill="#416123"/>
          <path id="Path_10498" data-name="Path 10498" d="M-366.306,76.419a40.49,40.49,0,0,0-2.715,12.255c-.083,1.661-.271,3.408-.437,5.071a50.509,50.509,0,0,0,.365,6.858,32.545,32.545,0,0,1-.178,5.935c-.166,2.006-.411,4.02-.505,5.987a72,72,0,0,1-1.479,13.123c-.993,4.438-2,8.845-2.588,13.421-.55,4.866-1.356,9.859-1.655,14.764-.29,4.351-1.092,8.766-.681,13.157.388,4.389-.938,8.72-.3,13.1.011.085-.149.266-.184.16-1.224-3.734-.358-7.675-.484-11.571a101.863,101.863,0,0,1,.424-12.324,212,212,0,0,1,3.7-27.968,73.281,73.281,0,0,0,1.865-13.892c.148-4.377.736-8.728.814-13.066.051-4.266.021-8.584.337-12.892.361-4.257,1.169-8.606,3.22-12.1C-366.715,76.314-366.234,76.221-366.306,76.419Z" transform="translate(384.536 -73.775)" fill="#416123"/>
          <path id="Path_10499" data-name="Path 10499" d="M-369.889,139.181a.5.5,0,0,0,.076.207c.352,5.276.4,10.58.9,15.851-.053,2.58-.3,5.158-.52,7.726s-.39,5.144-.46,7.718c-.108,3.88-.575,7.7-1.056,11.5-.445,3.813-1.184,7.594-1.43,11.458-.312,4.209-.089,8.424-.318,12.616-.091,2.134.034,4.219-.2,6.357a35.834,35.834,0,0,0-.48,5.825c.008.105-.223.3-.248.162a18.947,18.947,0,0,1-.131-4.47c.119-2.154.115-4.219.083-6.369-.076-4.089-.036-8.237.161-12.332a82.265,82.265,0,0,1,1.245-11.638,89.717,89.717,0,0,0,1.163-12.182c.1-3.99.422-7.957.7-11.936a114.678,114.678,0,0,0,.023-11.963c-.081-1.521-.208-3.038-.354-4.549-.053-2.621-.327-5.245-.568-7.783-.14-1.426-.284-2.88-.429-4.338A74.174,74.174,0,0,1-369.889,139.181Z" transform="translate(380.538 -17.488)" fill="#98c239"/>
          <path id="Path_10500" data-name="Path 10500" d="M-370.854,77.369c-.386,1.322-.916,2.572-1.271,3.911l-.581,1.99a20.6,20.6,0,0,0-.352,2.063,78.326,78.326,0,0,0-.543,8.052c-.015,2.683-.316,5.34-.184,8.044.078,3.065.259,6.229.165,9.32-.132,5.752-.066,11.364-.747,17.113-.288,2.432.006,4.872-.193,7.336-.123,1.58-.341,3.154-.545,4.72-.227,1.657-.9,3.235-.742,4.965.008.1-.165.27-.184.158-.409-2.026.308-4.491.435-6.564.2-2.84.121-5.507.1-8.322-.028-2.935.5-5.878.534-8.829q.042-4.813.087-9.657c.174-5.8-.435-11.657-.03-17.476.4-5.766,1.211-11.476,3.572-16.731C-371.272,77.317-370.794,77.156-370.854,77.369Z" transform="translate(386.876 -72.786)" fill="#98c239"/>
        </g>
        <g id="Group_3473" data-name="Group 3473" transform="translate(312.649 54.821)">
          <path id="Path_10501" data-name="Path 10501" d="M-306.77,35.277a32.384,32.384,0,0,1,1.256,3.367c.377,1.1.639,2.134.912,3.162.31,1.047.516,2.04.77,3.046.269,1.012.492,2,.717,2.988q1.379,5.711,2.83,11.75c1.7,6.939,3.364,14.119,1.542,21.072-1.973,7.58-5.08,15.015-6.031,22.567a99.676,99.676,0,0,0-.354,23.3c.375,3.649,1.8,7.235,2.473,10.829a54.958,54.958,0,0,1,.751,11.811,58.855,58.855,0,0,1-1.725,10.926c-.884,3.641-1.964,7.288-2.8,10.951a50,50,0,0,0-.242,23.218c1.865,7.284,4.495,14.423,6.629,21.6,1.58,5.158,3.271,10.216,3.36,15.541.038,2.805-.074,5.643-.127,8.458-.045,2.679.516,5.381-.142,8.073-.036.156-.831.548-.793.31.594-3.641-1.58-7.348-1.9-10.989a51.866,51.866,0,0,0-2.056-11.456c-2.251-7.2-5.9-14.243-8.106-21.55-2.227-7.042-4.2-14.04-3.734-21.354.4-7.707,2.98-15.348,4.671-22.938a50.349,50.349,0,0,0,.976-5.868,48.236,48.236,0,0,0,.416-5.9,48.407,48.407,0,0,0-1.326-11.77c-1.807-7.44-1.873-14.817-1.3-22.218a90.5,90.5,0,0,1,5.132-22.784c2.546-7.186,4.342-14.535,3.18-21.928-.853-5.338-2.4-10.685-3.666-16-.653-2.657-1.213-5.3-1.689-7.977-.45-2.689-.783-5.345-1.343-8.361C-308.556,36.749-306.991,34.733-306.77,35.277Z" transform="translate(315.212 -35.184)" fill="#6f9740"/>
          <path id="Path_10502" data-name="Path 10502" d="M-304.34,76.242c.742,4.714,3.543,9.241,4.266,13.957.458,2.84,1.476,5.639,1.814,8.488a57.933,57.933,0,0,1,.308,10.208c-.331,5.7-2.075,11.271-3.757,16.958-1.892,6.348-5.986,12.537-7.658,19.007-1.387,5.286-.095,10.176,2.1,15.163,2.3,5.353,4.6,10.7,6.845,15.91,2.058,4.866,1.177,10.074,2.236,15.1.537,2.592,1.742,5.048,2.348,7.618a19.983,19.983,0,0,1,.323,3.541c.042.953-.291,2.4.059,3.239.106.245-1.173,1.067-1.5.817-1.356-1.061-1.474-3-1.769-4.377a33.637,33.637,0,0,0-2.707-7.651c-1.305-2.635-1.205-5.807-1.379-8.606-.123-2.416.2-5.061-1.05-7.322-2.715-4.882-4.224-10.085-6.576-15.1-2.208-4.669-3.5-10.054-2.143-15.026,1.644-6.083,4.491-11.965,6.848-17.9,1.137-2.89,1.51-5.868,2.437-8.76a45.907,45.907,0,0,0,1.941-9.793c1.362-11.73-3-23.412-3.816-35.2C-305.186,76.34-304.367,76.064-304.34,76.242Z" transform="translate(313.14 6.975)" fill="#416123"/>
          <path id="Path_10503" data-name="Path 10503" d="M-307.72,36.937c2.193,3.706,2.811,7.632,4.455,11.263a26.7,26.7,0,0,1,1.2,4.4c.428,1.982,1.807,3.815,2.666,5.726,1.515,3.286.532,6.892.727,10.239a22.647,22.647,0,0,1-1.911,11.085c-1.689,3.736-3.738,7.367-4.8,11.125-1.162,3.99-2.728,8.056-3.515,12.048-.687,3.554-2.437,7.115-1.85,10.711s-2.283,7.054-1.281,10.663c.019.071-.312.2-.375.118-2.217-3.12-.246-6.273-.346-9.45a38.361,38.361,0,0,1,1.338-10.02c1.812-7.624,3.81-15.344,7.439-22.861,1.85-3.886,2.961-7.574,2.741-11.628-.2-3.661.373-7.387-.473-11.06a95.108,95.108,0,0,0-3.528-10.78,66.807,66.807,0,0,1-3.188-11.028C-308.447,37.349-307.834,36.749-307.72,36.937Z" transform="translate(316.827 -33.419)" fill="#416123"/>
          <path id="Path_10504" data-name="Path 10504" d="M-306.3,89.635a.391.391,0,0,0,.153.17c.656,4.308.709,8.634,1.669,12.9a88.139,88.139,0,0,0-.823,12.6c.293,6.31-2.338,12.585-2.028,18.932.14,3.452,1.339,6.815,1.633,10.231.138,1.744.935,3.377,1,5.134.06,1.56-.178,3.255.513,4.742.04.085-.365.286-.448.187A7.11,7.11,0,0,1-306,150.991a49.88,49.88,0,0,0-1.368-5.121,63.912,63.912,0,0,1-1.892-10.012,25.94,25.94,0,0,1,.448-9.632,31.285,31.285,0,0,0,1.177-10.066,92.218,92.218,0,0,1,.267-9.78,51.256,51.256,0,0,0,.006-9.786c-.153-1.243-.39-2.485-.67-3.726a37.86,37.86,0,0,0-1.069-6.4c-.272-1.178-.549-2.387-.825-3.59A36.366,36.366,0,0,1-306.3,89.635Z" transform="translate(315.785 13.855)" fill="#98c239"/>
          <path id="Path_10505" data-name="Path 10505" d="M-311.262,38.541c1.018,2.225.7,4.681,1.493,6.927.749,2.12,1.54,4.351,2.325,6.568.755,2.191.982,4.448,1.725,6.659a34.472,34.472,0,0,1,1.892,7.728c.448,4.807.942,9.482-.18,14.263-.486,2.022.117,4.028-.221,6.065a23.666,23.666,0,0,1-1.052,3.89c-.467,1.367-1.829,2.653-1.519,4.077.015.073-.329.215-.373.126-.8-1.673.653-3.683.931-5.389a33.662,33.662,0,0,0,.04-6.845c-.093-2.41.717-4.86.662-7.3-.057-2.673-.435-5.326-.67-7.987-.48-4.823-2.493-9.543-3.574-14.257A108.879,108.879,0,0,1-312.008,39C-312.021,38.869-311.342,38.364-311.262,38.541Z" transform="translate(318.867 -31.771)" fill="#98c239"/>
        </g>
        <g id="Group_3544" data-name="Group 3544">
          <path id="Path_10506" data-name="Path 10506" d="M-359.215,87.316c4.035-.564,14.155,1.986,20.787-6.927s16.022-10.912,25.082-13.859,7.711-4.075.935-6.444c-6.754-2.357-29.545-23.337-34.948-25.212s-19.819,3.142-25.85,5.985c-6.022,2.86-14.446,1.724-24.641-6.123-10.172-7.835-10.513-7.458-16.224-6.31s-6.4-.1-9.113-3.022,3.681-2.168,6.338-3.888c2.686-1.706,4.381-.953,9.082-.953s21.028,12.942,27.083,13.4c6.082.469,26.845-7.14,31.836-11.488,5-4.371,10.462,2.15,18.262,6.687s17.337,15.792,28.181,23.55c10.867,7.74,28.1,11.586,41.2,11.387,13.125-.209,16.572,7.939,24.388,13.119,7.792,5.2,13.657,17.319,21.837,27.439a70.367,70.367,0,0,0,27.172,20.7c10.133,4.525,39.518,11.959,44.233,13.267,4.726,1.324,11.8,1.984-.384-4.91-12.208-6.886-11.315-17.313-24.272-32.718-12.978-15.421-2.535-15.912-7.993-21.11-5.428-5.182-2.785-9.559-8.239-14.756s-3.846-13.713-11.614-15.612-36.821-11.685-43.234-13.75c-6.43-2.081-8.439-1.124-16.879-4.908-8.473-3.769-8.156-6.793-10.568-10.774s-4.822-9.261-6.175-11.056a4.284,4.284,0,0,0-2.439-.866h12.662a38.543,38.543,0,0,0,3.6,3.874c1.37,1.128,5.793,5.472,8.125,4.146s0,0,2.622-6.346a10.05,10.05,0,0,0,.526-1.673h7.781a25.778,25.778,0,0,1-.193,9.1c-1.027,3.736,1.088,2.886,1.088,2.886a18.993,18.993,0,0,0,8.122,3.489c5.051.933,8.146,4.807,12.146,2.921,4.026-1.9,4.045.091,7.359-3.7,1.445-1.641.373-7.943-1.389-14.7h14.7c2.21,4.308,4.945,9.44,6.156,9.269,2.011-.286,12.808,2.16,14.166,3.29s4.41,2.357,6.05-.868c.605-1.189,2.544-5.635,4.947-11.691h13.848a94.951,94.951,0,0,1-1.61,12.894c-2.565,11.667-1.163,16.109,3.6,20.753,4.76,4.629,9.665,22.5,10.727,26s5.952,4.294,5.952,4.294,14.6-3.56,20.579-9.722,10.846-21.788,12.138-26.615,13.674-12.9,22.965-22.842c1.476-1.576,3.116-3.174,4.824-4.762h9.945c-2.938,2.339-4.828,4.055-4.346,4.27,1.7.748,22.568,1.769,22.568,1.769s-.619,4.732-5.31,5.4c-4.711.669-16.83-.266-22.225-.164s-14.31,12.334-14.31,12.334c-9.342,8.628-13.125,30.394-10.462,28.692,2.679-1.706,28.311,2.608,35.36,1.278s18.071-7.872,26.444-12.058S-18.97,27.3-12.992,19.833A76.262,76.262,0,0,1-1.488,8.156H5.289c-1.922,3.2-6.733,8.107-10.865,11.94C-11.9,25.97-15.529,32.8-19.169,38.962s-6.307,7.2-9.629,10.987S-24.405,52.3-17.3,53.622c7.068,1.322,13.438-1.245,18.171.065,4.72,1.331,7.4.937-3.676,4.17C-13.864,61.1-38.081,61.9-42.476,62.189c-4.359.282-15.755,5.215-22.108,7.789s-21.864.779-32.95,2.024c-11.109,1.251-28.447,14.342-30.118,16.234s-5.265,10.7-.159,14.954,12.946,14.76,19.075,21.167c6.128,6.442,19.266,6.908,26,7.28s24.225-1.46,32.662.986,50.4-7.835,62.8-12.579,18.107-5.884,28.455,5.795,25.04,22.441,33.866,28.477c8.8,6.067,12.588,13.135,20.884,31.878,3.865,8.73,11.918,19.676,20.42,30.112V405.831c-2.541-.359-5.078-.744-7.618-1.093-1.26-2.209-2.5-4.294-2.662-6.584-.4-5.594-1-29.718.885-41.273s-14.5-32.463-21.709-43.714S76.066,275.3,73.262,265.76c-2.794-9.561-17.993-43.239-18.016-45.227s-.416-8.245-9.588-15.894c-9.189-7.663-26.259-29.791-29.692-35.947S6.5,163.4-9.322,165.332c-15.791,1.913-26.221,2.4-40.733-.519s-20.2-1.091-27.526,5.253-17.806,3.521-27.231,2.872-32.276,3.923-58.23.649-29.408-13.4-48.113-29c-18.682-15.6-20.118-23.356-23.869-27.8s-20.129-23.343-25.222-28.274c-5.125-4.912-38.48-4.525-38.48-4.525A135.648,135.648,0,0,1-308.7,95.35c-4.376,4.221-3.835,11.88-6.141,17.2-2.287,5.3,2.543,17.224,3.318,25.084.76,7.837,11.236,11.989,6.222,14.362s-10.886-9.724-11.563-10.951-7.526-10.218-6.584-15.979c.953-5.783,3.574-11.472-6.506-10.046-10.087,1.448-20.3,19.812-24.891,23.867s-8.118,2.4-1.489-5.841,12.253-17.336,20.6-21.518c8.383-4.18,10.095-2.1,13.782-10.166s6.881-10.02,7.128-15.7c.288-5.685-14.03,9.951-20.364,12.517-6.37,2.566-19.454,7.417-29.827,11.876-10.39,4.47-7.738.781-15.53-4.424s-10.142-3.868-14.213-5.943c-2.883-1.481-17.8-.41-29.563,2.008V91.784c.649-.264,1.288-.523,1.892-.773,8.371-3.507,13.763-.961,8.328-6.162-5.28-5.042-6.761-8.1-10.22-8.711V66.781c9.134,6.249,19.213,15.468,23.341,18.526C-394.189,90.311-363.254,87.906-359.215,87.316Z" transform="translate(424.316 -8.156)" fill="#733c19"/>
          <path id="Path_10507" data-name="Path 10507" d="M-290.536,69.752c-4.194-4.919-8.636-10.354-12.189-13.857,3,3.225,4.425,6.243,6.79,10.143A9.775,9.775,0,0,0-290.536,69.752Z" transform="translate(601.168 40.933)" fill="#733c19" opacity="0.4"/>
          <path id="Path_10508" data-name="Path 10508" d="M-256.9,22.853c1.445-1.641.373-7.943-1.389-14.7h9.242c1.916,7.444,2.456,15.036,5.925,21.173-4.111-1.3-8.228-2.608-12.24-4.2-.91-.391-1.822-.712-2.745-1.022C-257.744,23.766-257.368,23.376-256.9,22.853Z" transform="translate(469.683 -8.156)" fill="#733c19" opacity="0.4"/>
          <path id="Path_10509" data-name="Path 10509" d="M-266.215,12.714a21.408,21.408,0,0,0,5.993,9.677,36.188,36.188,0,0,0,3.384-8.06c-3.636-.941-8.1-1.761-9.308-1.592C-266.173,12.738-266.2,12.714-266.215,12.714Z" transform="translate(498.398 -3.469)" fill="#733c19" opacity="0.4"/>
          <path id="Path_10510" data-name="Path 10510" d="M-316.893,62.376c5.982-6.16,10.846-21.788,12.138-26.615s13.674-12.9,22.965-22.842c1.476-1.576,3.116-3.174,4.824-4.762h9.945c-2.938,2.339-4.828,4.055-4.346,4.27,1.7.748,22.568,1.769,22.568,1.769s-.619,4.732-5.31,5.4c-4.711.669-16.83-.266-22.225-.164s-14.31,12.334-14.31,12.334c-7.425,6.852-11.332,21.987-11.287,27.078-.42.487-.887.953-1.305,1.462-6.349,7.643-13.88,7.945-21.6,12.859-2.737,1.722-9.478,7.43-11.332,3.821-.931-1.805-1.807-3.483-2.484-5.176a6.75,6.75,0,0,0,1.182.29S-322.877,68.538-316.893,62.376Z" transform="translate(627.404 -8.156)" fill="#733c19" opacity="0.4"/>
          <path id="Path_10511" data-name="Path 10511" d="M-337.8,61.733c7.047-1.329,18.071-7.872,26.444-12.058S-294.108,27.3-288.13,19.833a76.256,76.256,0,0,1,11.5-11.677h6.776c-1.922,3.2-6.733,8.107-10.865,11.94-5.573,5.186-9.056,11.085-12.289,16.642A103.1,103.1,0,0,1-303.934,46.5c-9.819,7.511-25.286,17.025-37.053,16.186-10.027-.74-17.216-1.73-24.626.955.959-1.067,1.9-2.13,2.851-3.2C-353.976,61.183-342.217,62.573-337.8,61.733Z" transform="translate(699.454 -8.156)" fill="#733c19" opacity="0.4"/>
          <path id="Path_10512" data-name="Path 10512" d="M-272.278,19.847c.605-1.189,2.545-5.635,4.947-11.691h9.87c-3.861,8.73-12.272,27.262-22.352,25.445a45.357,45.357,0,0,0,5.621-11.906A3.578,3.578,0,0,0-272.278,19.847Z" transform="translate(524.747 -8.156)" fill="#733c19" opacity="0.4"/>
          <path id="Path_10513" data-name="Path 10513" d="M-305.344,8.156c7.242,5.933,13.11,14.332,21.187,18.96,3.937,2.262,9.767,2.829,14.234,3.623a157.016,157.016,0,0,1,23.958,6.4c16.739,5.614,28.669,10.444,40.16,23.881,2.991,3.487,23.911,21.248,22.452,24.7-3.057,7.33-3.4,11.884,1.928,17.768,4.3,4.752,9.851,8.45,13.139,14.095,2.022,3.537,3.681,9.259,8.21,10.6a54.478,54.478,0,0,0,22.492,1.493,50.757,50.757,0,0,0,6.952,1.262c-6.884,4.332-16.905,2.939-23.869,3.8-7.751.953-14.38,3.858-22.276,2.742-.195-.049-.4-.093-.621-.14a40.814,40.814,0,0,0-5.587-3.635c-12.208-6.886-11.315-17.313-24.272-32.718-12.978-15.421-2.535-15.912-7.993-21.11-5.428-5.182-2.785-9.559-8.239-14.756s-3.846-13.713-11.614-15.612-36.821-11.685-43.234-13.75c-6.43-2.081-8.439-1.124-16.879-4.908-8.473-3.769-8.156-6.793-10.568-10.774s-4.822-9.261-6.175-11.056a4.283,4.283,0,0,0-2.439-.866Z" transform="translate(463.343 -8.156)" fill="#733c19" opacity="0.4"/>
          <path id="Path_10514" data-name="Path 10514" d="M-234.922,8.156h7.774a26.8,26.8,0,0,1-.125,8.752,34.21,34.21,0,0,1-8.806-5.436c.178-.483.388-1.014.632-1.643A10.049,10.049,0,0,0-234.922,8.156Z" transform="translate(411.405 -8.156)" fill="#733c19" opacity="0.4"/>
          <g id="Group_3476" data-name="Group 3476" transform="translate(11.676)">
            <g id="Group_3474" data-name="Group 3474" transform="translate(68.285)">
              <path id="Path_10515" data-name="Path 10515" d="M-358.259,185v.992c-14.482-30.136-44.728-54.605-66.057-78.713C-402.223,129.51-371.578,154.7-358.259,185Z" transform="translate(818.958 93.767)" fill="url(#radial-gradient)"/>
              <path id="Path_10516" data-name="Path 10516" d="M-383.294,197.692v.773c-17.227-16.046-33.939-35.45-41.022-58.41C-415.564,162.148-399.312,180.62-383.294,197.692Z" transform="translate(843.992 127.472)" fill="url(#radial-gradient-2)"/>
              <path id="Path_10517" data-name="Path 10517" d="M-412.677,191.381q-5.653-8.637-11.639-17.078,6.078,7.268,11.639,14.963Z" transform="translate(873.376 162.69)" fill="url(#radial-gradient-3)"/>
              <path id="Path_10518" data-name="Path 10518" d="M-366.633,178.947c-11.5-27.445-42.486-38.069-53.853-66.083C-407.476,139.24-376.212,150.622-366.633,178.947Z" transform="translate(820.086 99.513)" fill="url(#radial-gradient-4)"/>
              <path id="Path_10519" data-name="Path 10519" d="M-287.5,133.284c-25.606-42.961-62.252-62.8-116.693-54.806C-349.339,68.346-311.512,88.828-287.5,133.284Z" transform="translate(710.138 61.537)" fill="url(#radial-gradient-5)"/>
              <path id="Path_10520" data-name="Path 10520" d="M-350.3,116.38c-11.461-12.141-24.289-24.512-40.366-30.852C-373.809,89.767-359.928,102.971-350.3,116.38Z" transform="translate(747.325 71.404)" fill="url(#radial-gradient-6)"/>
              <path id="Path_10521" data-name="Path 10521" d="M-411.988,75.574c17.458,6.523,35.468,17.971,43.839,34.85C-378.48,94.729-395.393,84.131-411.988,75.574Z" transform="translate(805.525 61.169)" fill="url(#radial-gradient-7)"/>
              <path id="Path_10522" data-name="Path 10522" d="M-298.464,67.3c-14.813-1.639-26.211,2.943-40.582,7.488-12.751,4.014-27.182.718-38.633-3.01,11.744,2.817,24.832,4.813,37.479,1.955C-325.136,70.347-313.952,64.354-298.464,67.3Z" transform="translate(670.931 51.848)" fill="url(#radial-gradient-8)"/>
              <path id="Path_10523" data-name="Path 10523" d="M-268.923,71.7c-14.847-.491-29.931-.093-44.935,3.789C-299.323,69.665-283.135,69.129-268.923,71.7Z" transform="translate(520.655 55.675)" fill="url(#radial-gradient-9)"/>
              <path id="Path_10524" data-name="Path 10524" d="M-240.25,66.6c-10.859-15.922-25.405-29.917-43.7-37.326C-264.77,34.606-249.164,49.536-240.25,66.6Z" transform="translate(435.407 13.563)" fill="url(#radial-gradient-10)"/>
              <path id="Path_10525" data-name="Path 10525" d="M-229.058,8.156C-220.644,10.631-215.975,23.7-206,25.39c-13.708-.037-15.2-15.794-26.05-17.234Z" transform="translate(302.979 -8.156)" fill="url(#radial-gradient-11)"/>
              <path id="Path_10526" data-name="Path 10526" d="M-235.789,56.159c19.44-3.9,32.288-17.425,52.7-16.236,16.911,1.207,38.856-8.817,51.337,4.485-12.991-12.338-34.694-2.026-51.615-3.065C-203.255,39.992-216.623,53.344-235.789,56.159Z" transform="translate(235.789 21.944)" fill="url(#radial-gradient-12)"/>
              <path id="Path_10527" data-name="Path 10527" d="M-326.2,58.182c13.542,26.974,46.456,34,75.173,38.728,24.787,4.809,51.38-5.47,76.363-2.211-22.63-2.174-46.319,6.428-69.04,4.5C-274.7,96.644-312.93,87.247-326.2,58.182Z" transform="translate(449.758 43.285)" fill="url(#radial-gradient-13)"/>
              <path id="Path_10528" data-name="Path 10528" d="M-195.108,85.5c-36.213,21.924-99.379,18.806-125.878-7.424C-293.7,102.655-231.59,105.831-195.108,85.5Z" transform="translate(460.324 63.739)" fill="url(#radial-gradient-14)"/>
              <path id="Path_10529" data-name="Path 10529" d="M-359.717,85.318c33.147-10.46,63.333,4.156,96.4-3.594C-296.186,91.478-326.682,76.949-359.717,85.318Z" transform="translate(601.808 67.146)" fill="url(#radial-gradient-15)"/>
              <path id="Path_10530" data-name="Path 10530" d="M-397.6,131.992v1.89c-9-9.606-18.521-18.427-26.718-26.463C-415.971,114.587-406.482,122.824-397.6,131.992Z" transform="translate(858.297 93.914)" fill="url(#radial-gradient-16)"/>
              <path id="Path_10531" data-name="Path 10531" d="M-399.633,120.218v2.371a220.435,220.435,0,0,0-24.683-21.449A127.146,127.146,0,0,1-399.633,120.218Z" transform="translate(860.332 87.458)" fill="url(#radial-gradient-17)"/>
            </g>
            <path id="Path_10532" data-name="Path 10532" d="M-243.41,88.108c-24.085-6.06-47.218-20.978-57.37-43.6C-288.871,65.91-266.642,80.169-243.41,88.108Z" transform="translate(538.686 29.226)" fill="url(#radial-gradient-18)"/>
            <path id="Path_10533" data-name="Path 10533" d="M-243.208,81.268c-20.993-8.632-40.737-23.337-51.743-43.162C-282.13,56.715-263.216,70.7-243.208,81.268Z" transform="translate(527.456 22.641)" fill="url(#radial-gradient-19)"/>
            <path id="Path_10534" data-name="Path 10534" d="M-213.192,38.14c-18.1-16.092-46.982-12.024-69.369-20.664C-259.8,24.066-229.8,20.527-213.192,38.14Z" transform="translate(474 1.428)" fill="url(#radial-gradient-20)"/>
            <path id="Path_10535" data-name="Path 10535" d="M-270.91,8.156a106.617,106.617,0,0,1-8.4,17.875,181.36,181.36,0,0,0,7.077-17.875Z" transform="translate(525.573 -8.156)" fill="url(#radial-gradient-21)"/>
            <path id="Path_10536" data-name="Path 10536" d="M-254.069,8.156a45.388,45.388,0,0,1,1.239,9.367,57.234,57.234,0,0,0-2.2-9.367Z" transform="translate(461.555 -8.156)" fill="url(#radial-gradient-22)"/>
            <path id="Path_10537" data-name="Path 10537" d="M-160.83,30.715c-8.935-6.344-20-9.415-31.641-9.07C-180.566,19.273-168.519,22.662-160.83,30.715Z" transform="translate(251.205 4.951)" fill="url(#radial-gradient-23)"/>
            <path id="Path_10538" data-name="Path 10538" d="M-121.884,63.407c-12.414-12.168-30.449-15.462-48.4-15.38C-152.349,45.809-132.477,49.606-121.884,63.407Z" transform="translate(170.283 32.235)" fill="url(#radial-gradient-24)"/>
            <path id="Path_10539" data-name="Path 10539" d="M-180,41.718c-9.766-.083-29.582-1.5-34.806,10.509C-211.1,38.733-189.477,39.992-180,41.718Z" transform="translate(312.626 25.28)" fill="url(#radial-gradient-25)"/>
            <path id="Path_10540" data-name="Path 10540" d="M-273.828,60.539c15.182,16.823,36.976,26.871,60.478,29.572C-237.316,89.476-260.286,78.875-273.828,60.539Z" transform="translate(457.638 45.708)" fill="url(#radial-gradient-26)"/>
            <path id="Path_10541" data-name="Path 10541" d="M-271.567,80.511c-14.372,5.521-30.528,4.606-42.623-2.259A73.078,73.078,0,0,0-271.567,80.511Z" transform="translate(592.212 63.922)" fill="url(#radial-gradient-27)"/>
            <g id="Group_3475" data-name="Group 3475" transform="translate(454.229 150.584)">
              <path id="Path_10542" data-name="Path 10542" d="M-407.159,82.4c18.671,7.823,33.847,23.175,42.3,41.363C-375.335,106.652-389.544,92.243-407.159,82.4Z" transform="translate(407.159 -82.398)" fill="url(#radial-gradient-28)"/>
            </g>
          </g>
          <g id="Group_3477" data-name="Group 3477" transform="translate(201.387)" opacity="0.4">
            <path id="Path_10543" data-name="Path 10543" d="M-267.932,26.553c4.026-1.9,4.045.091,7.359-3.7,1.445-1.641.373-7.943-1.389-14.7h7.219c1.035,3.984,1.915,7.02,1.786,9.367-.223,3.6,1.958,7.079,6.724,10.774,4.752,3.716,22.333,8.223,25.2,9.089,2.686.807-38.381-2.235-50.939-10.624A5.327,5.327,0,0,0-267.932,26.553Z" transform="translate(271.971 -8.156)" fill="#733c19"/>
          </g>
          <g id="Group_3478" data-name="Group 3478" transform="translate(282.073)" opacity="0.4">
            <path id="Path_10544" data-name="Path 10544" d="M-324.678,67.8c1.058,3.507,5.952,4.294,5.952,4.294s14.6-3.56,20.579-9.722,10.846-21.788,12.138-26.615,13.674-12.9,22.965-22.842c1.476-1.576,3.116-3.174,4.824-4.762h5.331c-1.8,1.513-3.3,2.817-4.274,3.748-5.655,5.45-23.8,20.125-25.18,25.721s-5.579,22.133-10.551,28.151-16.391,9.3-19.081,10.675c-2.66,1.383-9.234-.842-13.15-4.422-2.469-2.243-1.279-4.03-.255-6.641C-325.077,66.447-324.822,67.282-324.678,67.8Z" transform="translate(326.584 -8.156)" fill="#733c19"/>
          </g>
          <g id="Group_3479" data-name="Group 3479" transform="translate(0 58.625)" opacity="0.4">
            <path id="Path_10545" data-name="Path 10545" d="M-424.316,62.063c.649-.264,1.288-.523,1.892-.773,8.371-3.507,13.763-.961,8.328-6.162-5.28-5.042-6.761-8.105-10.22-8.711V37.06c9.134,6.249,19.213,15.468,23.341,18.526a10.074,10.074,0,0,0,2.238,1.091c6.256,3.9,15.556,8.464,24.512,8,15.43-.836,30.561-1.994,35.069-3.785,4.531-1.805,34.113-22.944,43.493-19.254S-247.7,40.33-259.629,48.7c-3.067,2.152,15.878,6.054,19.507,17.34s28.063,39.48,60.128,46.679c32.021,7.2,56.456,8.578,71.044,6.578,14.609-1.971,42.07-6.626,52.931-2.9,10.844,3.732-14.957-.282-17.745,5.158-2.8,5.442,39.609,11.448,53.76,8.6s18.861-8.618,4.035-14.159,45.122-6.783,70.9,27.546c25.755,34.359,15.853,3.107,3.922-4.474-11.949-7.557,25.625,11.7,28.674,47.153,3.027,35.444,15.579,39.276,27.191,54.208a25.158,25.158,0,0,1,1.631,2.4V270.42c-2.352-11.062-6.438-26.6-17.743-36.458-11.665-10.168,2.666,27.838,13.224,42.989s-1.218,9.945-8.663-4.819c-7.441-14.733-5.844,2.341,7.622,19.486,1.661,2.118,3.545,4.452,5.56,6.971v77.525c-2.541-.363-5.08-.748-7.618-1.1-1.26-2.209-2.5-4.294-2.662-6.584-.4-5.594-1-29.718.885-41.273s-14.5-32.463-21.709-43.714-9.175-37.862-11.979-47.407c-2.794-9.561-17.993-43.239-18.016-45.227s-.416-8.245-9.588-15.894c-9.189-7.663-26.259-29.791-29.692-35.947S6.5,133.683-9.322,135.61c-15.791,1.913-26.221,2.4-40.733-.519s-20.2-1.091-27.526,5.253-17.806,3.521-27.231,2.872-32.276,3.923-58.23.649-29.408-13.4-48.113-29c-18.682-15.6-20.118-23.356-23.869-27.8s-20.129-23.343-25.222-28.274c-5.125-4.912-38.48-4.525-38.48-4.525A135.649,135.649,0,0,1-308.7,65.628c-4.376,4.221-3.835,11.88-6.141,17.2-2.287,5.3,2.543,17.224,3.318,25.084.76,7.837,11.236,11.989,6.222,14.362s-10.886-9.724-11.563-10.951-7.526-10.218-6.584-15.979c.953-5.783,3.574-11.472-6.506-10.046-10.087,1.448-20.3,19.812-24.891,23.867s-8.118,2.4-1.489-5.841,12.253-17.336,20.6-21.518c8.383-4.18,10.095-2.1,13.782-10.166s6.881-10.02,7.128-15.7c.288-5.685-14.03,9.951-20.364,12.517-6.37,2.566-19.454,7.417-29.827,11.876-10.39,4.47-7.738.781-15.53-4.424s-10.142-3.868-14.213-5.943c-2.883-1.481-17.8-.41-29.563,2.008Z" transform="translate(424.316 -37.06)" fill="#733c19"/>
          </g>
          <g id="Group_3480" data-name="Group 3480" transform="translate(158.58 65.14)" opacity="0.4">
            <path id="Path_10546" data-name="Path 10546" d="M-218.591,43.375c1.067-2.008-2.641-2.777-8.184-3.1A58.193,58.193,0,0,1-218.591,43.375Z" transform="translate(226.775 -40.272)" fill="#733c19"/>
          </g>
          <g id="Group_3481" data-name="Group 3481" transform="translate(0 72.119)" opacity="0.4">
            <path id="Path_10547" data-name="Path 10547" d="M-263.926,62.885c3.173-1.939,6.285-3.866,9.277-5.484,14.735-7.876,22.815,3.612,35.294,6.783,13.521,3.432,24.3,1.955,37.774-5.2,6.788-3.6,13.228-7.841,20.171-11.149,8.122-3.87,15.626-2.495,23.771-2.941,8.042-.456,16.228-1.562,24.153-1.041,13.347.89,24.221,13.569,31.6,22.737,9.455,11.833,17.1,25,27.3,36.266A246,246,0,0,0-26.7,129.059c-7.715-5.079-13.438-12.172-24.07-21.035-18.682-15.6-20.118-23.356-23.869-27.8S-94.763,56.879-99.856,51.948c-5.125-4.912-38.48-4.525-38.48-4.525a135.656,135.656,0,0,1-9.976,11.364c-4.376,4.221-3.835,11.88-6.141,17.2-2.287,5.3,2.543,17.224,3.318,25.084.76,7.837,11.236,11.989,6.222,14.362s-10.886-9.724-11.563-10.951S-164,94.266-163.058,88.506c.954-5.783,3.574-11.472-6.506-10.046-10.087,1.448-20.3,19.812-24.891,23.867s-8.118,2.4-1.489-5.841,12.253-17.336,20.6-21.518c8.383-4.18,10.095-2.1,13.782-10.166s6.881-10.02,7.128-15.7c.288-5.685-14.03,9.951-20.364,12.517-6.37,2.566-19.454,7.417-29.827,11.876-10.39,4.47-7.738.781-15.53-4.424s-10.142-3.868-14.213-5.943c-2.895-1.485-17.81-.4-29.563,2.026Z" transform="translate(263.926 -43.713)" fill="#733c19"/>
          </g>
          <g id="Group_3482" data-name="Group 3482" transform="translate(256.064 151.573)" opacity="0.4">
            <path id="Path_10548" data-name="Path 10548" d="M-424.267,95.855c9.828,1.921,20.746-.617,32.29-3.491,11.067-2.746,21.936-2.852,33.02-4.136,14-1.6,26.692-4.018,40.461-2.756,12.957,1.189,26.154.454,39.21,1.026,12.058.521,21.033-7.592,32.3-1.053,4.784,2.773,10.88,3.412,16.205,5,6.483,1.915,11.519,7.162,16.046,11.709a78.67,78.67,0,0,1,11.9,15.269,4.674,4.674,0,0,0,.5,2.659c2.382,4.551,4.446,9.233,6.478,13.924.223.811.458,1.659.624,2.485a3.672,3.672,0,0,0,1.551,2.46c4.03,9.231,8.265,18.275,14.775,26.118,1.059,1.268,2.094,2.554,3.106,3.844a4.978,4.978,0,0,0,.3,3.1c1.04,2.306,10.027,13.018,7.005,15.606-4.217,3.592-5.634,8.093-5.774,13.263-.382,15.4,4.96,29.061,12.978,40.994,6.824,10.164,15.678,18.139,21.574,28.26V329c-2.541-.371-5.08-.748-7.618-1.1-1.26-2.209-2.5-4.294-2.662-6.584-.4-5.594-1-29.718.885-41.273s-14.5-32.463-21.709-43.714S-180,198.462-182.8,188.917c-2.794-9.561-17.993-43.239-18.016-45.227s-.416-8.245-9.588-15.894c-9.189-7.663-26.259-29.791-29.692-35.947s-9.469-5.288-25.288-3.361c-15.791,1.913-26.221,2.4-40.733-.519s-20.2-1.091-27.526,5.253-17.806,3.521-27.231,2.872-32.276,3.923-58.23.649c-1.841-.237-3.562-.525-5.21-.821A.349.349,0,0,0-424.267,95.855Z" transform="translate(424.316 -82.886)" fill="#733c19"/>
          </g>
          <g id="Group_3483" data-name="Group 3483" transform="translate(0 58.631)" opacity="0.4">
            <path id="Path_10549" data-name="Path 10549" d="M-147.9,37.063c6.184,4.233,12.8,9.817,17.724,13.93a37.12,37.12,0,0,0-8.649,2.992c-4.349-4.353-5.891-7.008-9.075-7.576Z" transform="translate(147.897 -37.063)" fill="#733c19"/>
          </g>
          <g id="Group_3484" data-name="Group 3484" transform="translate(148.947)" opacity="0.4">
            <path id="Path_10550" data-name="Path 10550" d="M-293.873,8.156c2.5,3.217,2.257,7.083,3.521,9.346,1.977,3.539,8.591,8.839,16.686,10.993s12.649,4.022,34.83,7.247c22.165,3.231,37.747,13.66,28.145,12.2s-4.841,2.838,5.986,8.6,24.948,28.234,19.232,23.731c-5.749-4.5-10.628-7.034-9.962-.72.658,6.275,17.074,20.82,16.51,20.447-.53-.373-13.067-6.267-9.586,1.168s24.465,16.38,24.465,16.38-3.776-.55,3.4,6.858c7.164,7.417,23.731,11.058,19.569,10.646-4.172-.4-22.906,3.629-24.543,4.265,0,0-.015-.018-.03-.008,1.1-.464.008-2-6.37-5.6-12.208-6.886-11.315-17.313-24.272-32.718-12.978-15.421-2.535-15.912-7.993-21.11-5.428-5.182-2.785-9.559-8.239-14.756s-3.846-13.713-11.614-15.612-36.821-11.685-43.234-13.75c-6.43-2.081-8.439-1.124-16.879-4.908-8.473-3.769-8.156-6.793-10.568-10.774s-4.822-9.261-6.175-11.056a4.284,4.284,0,0,0-2.439-.866Z" transform="translate(303.428 -8.156)" fill="#733c19"/>
          </g>
          <g id="Group_3485" data-name="Group 3485" transform="translate(250.016)" opacity="0.4">
            <path id="Path_10551" data-name="Path 10551" d="M-276.419,19.847c.605-1.189,2.545-5.635,4.947-11.691h8.091c-.494,2.716-1.451,6.764-3.133,9.527-2.741,4.5-1.862-1.631-.895-5.089s-7.363,10.849-10.6,9.872a2.854,2.854,0,0,1-.865-.6A3.377,3.377,0,0,0-276.419,19.847Z" transform="translate(278.873 -8.156)" fill="#733c19"/>
          </g>
          <g id="Group_3488" data-name="Group 3488" transform="translate(323.166)" opacity="0.4">
            <g id="Group_3486" data-name="Group 3486" transform="translate(3.131 52.06)">
              <path id="Path_10552" data-name="Path 10552" d="M-311.414,34.062l.772-.239A2.46,2.46,0,0,0-311.414,34.062Z" transform="translate(311.414 -33.823)" fill="#733c19"/>
            </g>
            <g id="Group_3487" data-name="Group 3487" transform="translate(0)" opacity="0.3">
              <path id="Path_10553" data-name="Path 10553" d="M-359.846,60.455l.772-.239c5.051-.935,27.982,2.781,34.588,1.517,7.047-1.329,18.071-7.872,26.444-12.058S-280.8,27.3-274.819,19.833A75.088,75.088,0,0,1-263.293,8.156h1.767c-3.907,4.722-12.115,14.606-14.735,17.348-3.494,3.655-3.615,11.531-8.909,16.2s-12,10.993-15.5,13.328-12.713,5.783-18.88,7.545-13.122,4.474-20.046,2.637-18.023-.931-21.977-.763S-359.846,60.455-359.846,60.455Z" transform="translate(362.977 -8.156)" fill="#733c19"/>
            </g>
          </g>
          <g id="Group_3489" data-name="Group 3489" transform="translate(516.362 213.341)" opacity="0.5">
            <path id="Path_10554" data-name="Path 10554" d="M-423.215,114.777c3.778-6.346,17.959,10.383,17.959,10.383,2.1,2.083,3.8,3.939,5.238,5.637v27.976a108.79,108.79,0,0,0-11.44-13.443C-420.509,136.846-427,121.115-423.215,114.777Z" transform="translate(424.316 -113.339)" fill="#dc8034"/>
          </g>
          <g id="Group_3490" data-name="Group 3490" transform="translate(513.509 195.473)" opacity="0.5">
            <path id="Path_10555" data-name="Path 10555" d="M-397.164,122.262v8.628a166.959,166.959,0,0,0-16.273-15.05C-438.508,95.531-414.756,105.609-397.164,122.262Z" transform="translate(424.316 -104.53)" fill="#dc8034"/>
          </g>
          <g id="Group_3491" data-name="Group 3491" transform="translate(416.358 120.611)" opacity="0.5">
            <path id="Path_10556" data-name="Path 10556" d="M-330.279,123.512S-336.592,108.9-369.729,92c-33.122-16.906-46.961-11.042-44.645-15.841s30.008-11.792,44.229-6.833C-355.9,74.28-347.9,83.2-357.858,81.474c-9.926-1.744-11.629-2.162-9.24.144,2.378,2.326,33.082,13.271,48.022,34.174,14.925,20.875,10.84,21.506,5.908,17.719C-318.09,129.747-313.557,143.371-330.279,123.512Z" transform="translate(414.622 -67.621)" fill="#dc8034"/>
          </g>
          <g id="Group_3495" data-name="Group 3495" transform="translate(506.502 259.847)" opacity="0.4">
            <g id="Group_3492" data-name="Group 3492" transform="translate(8.109 7.123)">
              <path id="Path_10557" data-name="Path 10557" d="M-412.052,149.9s1.029,2.592,2.448-1.45.2-6.708-.3-8.423S-413.266,146.054-412.052,149.9Z" transform="translate(412.35 -139.78)" fill="#733c19"/>
            </g>
            <g id="Group_3493" data-name="Group 3493" transform="translate(2.182)">
              <path id="Path_10558" data-name="Path 10558" d="M-409.37,141.787c.091.152.967,4.2,2.851,1.507a5.78,5.78,0,0,0,0-6.839C-407.52,135.333-410.626,139.536-409.37,141.787Z" transform="translate(409.664 -136.268)" fill="#733c19"/>
            </g>
            <g id="Group_3494" data-name="Group 3494" transform="translate(0 10.173)">
              <path id="Path_10559" data-name="Path 10559" d="M-405.667,144.238a6.757,6.757,0,0,0,.331-2.791c-.278-.945-2.244,2.454-2.013,3.775C-407.094,146.546-404.638,146.291-405.667,144.238Z" transform="translate(407.368 -141.283)" fill="#733c19"/>
            </g>
          </g>
          <g id="Group_3499" data-name="Group 3499" transform="translate(482.617 182.65)" opacity="0.4">
            <g id="Group_3496" data-name="Group 3496" transform="translate(9.365 3.185)">
              <path id="Path_10560" data-name="Path 10560" d="M-397.9,108.956s2.234,1.586,1.593-2.379-3.089-5.537-4.416-6.685C-402.029,98.758-400.926,106.409-397.9,108.956Z" transform="translate(401.265 -99.778)" fill="#733c19"/>
            </g>
            <g id="Group_3497" data-name="Group 3497" transform="translate(0)">
              <path id="Path_10561" data-name="Path 10561" d="M-394.814,103.928c.174.1,2.978,2.959,3.424-.138a5.045,5.045,0,0,0-3.348-5.555C-396.244,97.8-397.1,102.731-394.814,103.928Z" transform="translate(396.22 -98.208)" fill="#733c19"/>
            </g>
            <g id="Group_3498" data-name="Group 3498" transform="translate(2.735 9.789)">
              <path id="Path_10562" data-name="Path 10562" d="M-394.729,105.525a5.65,5.65,0,0,0-1.027-2.414c-.738-.655-.919,3.071-.053,4.03C-394.927,108.084-392.733,106.687-394.729,105.525Z" transform="translate(396.387 -103.034)" fill="#733c19"/>
            </g>
          </g>
          <g id="Group_3503" data-name="Group 3503" transform="translate(266.593 50.279)" opacity="0.4">
            <g id="Group_3500" data-name="Group 3500" transform="translate(9.36 3.192)">
              <path id="Path_10563" data-name="Path 10563" d="M-283.707,43.675s2.228,1.619,1.582-2.363c-.647-3.959-3.089-5.531-4.4-6.679S-286.715,41.156-283.707,43.675Z" transform="translate(287.07 -34.519)" fill="#733c19"/>
            </g>
            <g id="Group_3501" data-name="Group 3501" transform="translate(0)">
              <path id="Path_10564" data-name="Path 10564" d="M-280.637,38.673c.174.089,2.989,2.943,3.43-.152a5.075,5.075,0,0,0-3.333-5.549C-282.03,32.54-282.906,37.458-280.637,38.673Z" transform="translate(282.021 -32.945)" fill="#733c19"/>
            </g>
            <g id="Group_3502" data-name="Group 3502" transform="translate(2.725 9.786)">
              <path id="Path_10565" data-name="Path 10565" d="M-280.534,40.257a5.4,5.4,0,0,0-1.035-2.414c-.732-.641-.908,3.079-.051,4.046C-280.735,42.839-278.539,41.423-280.534,40.257Z" transform="translate(282.194 -37.77)" fill="#733c19"/>
            </g>
          </g>
          <g id="Group_3507" data-name="Group 3507" transform="translate(185.772 79.106)" opacity="0.4">
            <g id="Group_3504" data-name="Group 3504" transform="translate(9.358 3.191)">
              <path id="Path_10566" data-name="Path 10566" d="M-240.987,57.9s2.219,1.619,1.591-2.367c-.643-3.965-3.1-5.529-4.412-6.683S-244,55.364-240.987,57.9Z" transform="translate(244.35 -48.731)" fill="#733c19"/>
            </g>
            <g id="Group_3505" data-name="Group 3505" transform="translate(0)">
              <path id="Path_10567" data-name="Path 10567" d="M-237.908,52.886c.163.089,2.989,2.941,3.422-.142a5.074,5.074,0,0,0-3.341-5.56C-239.327,46.749-240.18,51.677-237.908,52.886Z" transform="translate(239.303 -47.158)" fill="#733c19"/>
            </g>
            <g id="Group_3506" data-name="Group 3506" transform="translate(2.723 9.789)">
              <path id="Path_10568" data-name="Path 10568" d="M-237.8,54.475a5.566,5.566,0,0,0-1.058-2.418c-.738-.639-.908,3.073-.028,4.04S-235.817,55.643-237.8,54.475Z" transform="translate(239.478 -51.984)" fill="#733c19"/>
            </g>
          </g>
          <g id="Group_3511" data-name="Group 3511" transform="translate(263.911 76.223)" opacity="0.4">
            <g id="Group_3508" data-name="Group 3508" transform="translate(8.633)">
              <path id="Path_10569" data-name="Path 10569" d="M-280.573,51.835s2.431.519.583-2.32c-1.833-2.868-4.44-3.288-5.935-3.752S-283.992,50.859-280.573,51.835Z" transform="translate(286.287 -45.736)" fill="#733c19"/>
            </g>
            <g id="Group_3509" data-name="Group 3509" transform="translate(0 0.192)">
              <path id="Path_10570" data-name="Path 10570" d="M-278.426,50.287c.193.012,3.5,1.318,2.889-1.227a4.464,4.464,0,0,0-4.677-3.211C-281.644,46-280.768,50.074-278.426,50.287Z" transform="translate(280.907 -45.831)" fill="#733c19"/>
            </g>
            <g id="Group_3510" data-name="Group 3510" transform="translate(5.198 7.189)">
              <path id="Path_10571" data-name="Path 10571" d="M-280.4,50.813a4.7,4.7,0,0,0-1.687-1.515c-.84-.27.229,2.665,1.286,3.119S-278.322,51.069-280.4,50.813Z" transform="translate(282.389 -49.28)" fill="#733c19"/>
            </g>
          </g>
          <g id="Group_3515" data-name="Group 3515" transform="translate(227.238 11.001)" opacity="0.4">
            <g id="Group_3512" data-name="Group 3512" transform="translate(8.625)">
              <path id="Path_10572" data-name="Path 10572" d="M-261.178,19.687s2.423.511.577-2.333c-1.852-2.86-4.438-3.28-5.938-3.748S-264.611,18.71-261.178,19.687Z" transform="translate(266.899 -13.58)" fill="#733c19"/>
            </g>
            <g id="Group_3513" data-name="Group 3513" transform="translate(0 0.195)">
              <path id="Path_10573" data-name="Path 10573" d="M-259.043,18.12c.178.026,3.511,1.331,2.887-1.219a4.494,4.494,0,0,0-4.663-3.209C-262.261,13.843-261.385,17.918-259.043,18.12Z" transform="translate(261.52 -13.676)" fill="#733c19"/>
            </g>
            <g id="Group_3514" data-name="Group 3514" transform="translate(5.194 7.197)">
              <path id="Path_10574" data-name="Path 10574" d="M-261.023,18.665a4.715,4.715,0,0,0-1.678-1.521c-.838-.258.221,2.663,1.29,3.122C-260.363,20.714-258.929,18.919-261.023,18.665Z" transform="translate(263.004 -17.128)" fill="#733c19"/>
            </g>
          </g>
          <g id="Group_3519" data-name="Group 3519" transform="translate(118.105 53.448)" opacity="0.4">
            <g id="Group_3516" data-name="Group 3516" transform="translate(7.07)">
              <path id="Path_10575" data-name="Path 10575" d="M-201.83,36.245s2.261-.7-.375-1.432-5.013.065-6.455.416C-210.118,35.594-205.1,37.085-201.83,36.245Z" transform="translate(208.919 -34.507)" fill="#733c19"/>
            </g>
            <g id="Group_3517" data-name="Group 3517" transform="translate(0 3.333)">
              <path id="Path_10576" data-name="Path 10576" d="M-200.587,38.5c.17-.047,3.5-.7,2.022-1.765-1.487-1.081-4.028-.467-5.185.195C-204.9,37.559-202.657,39.346-200.587,38.5Z" transform="translate(204.063 -36.151)" fill="#733c19"/>
            </g>
            <g id="Group_3518" data-name="Group 3518" transform="translate(6.822 5.765)">
              <path id="Path_10577" data-name="Path 10577" d="M-204.184,37.531a5.305,5.305,0,0,0-2-.124c-.8.191,1.173,1.3,2.259,1.1C-202.862,38.336-202.307,36.846-204.184,37.531Z" transform="translate(206.374 -37.349)" fill="#733c19"/>
            </g>
          </g>
          <g id="Group_3523" data-name="Group 3523" transform="translate(39.492 26.867)" opacity="0.4">
            <g id="Group_3520" data-name="Group 3520" transform="translate(7.06)">
              <path id="Path_10578" data-name="Path 10578" d="M-160.274,23.158s2.268-.716-.365-1.458-5.008.075-6.466.422S-163.55,23.992-160.274,23.158Z" transform="translate(167.361 -21.402)" fill="#733c19"/>
            </g>
            <g id="Group_3521" data-name="Group 3521" transform="translate(0 3.335)">
              <path id="Path_10579" data-name="Path 10579" d="M-159.016,25.4c.149-.059,3.477-.7,2-1.769s-4.02-.45-5.169.193S-161.088,26.234-159.016,25.4Z" transform="translate(162.499 -23.047)" fill="#733c19"/>
            </g>
            <g id="Group_3522" data-name="Group 3522" transform="translate(6.823 5.761)">
              <path id="Path_10580" data-name="Path 10580" d="M-162.634,24.428a5.254,5.254,0,0,0-2-.128c-.795.187,1.194,1.3,2.261,1.105C-161.289,25.221-160.77,23.74-162.634,24.428Z" transform="translate(164.818 -24.243)" fill="#733c19"/>
            </g>
          </g>
          <g id="Group_3527" data-name="Group 3527" transform="translate(499.511 164.637)" opacity="0.5">
            <g id="Group_3524" data-name="Group 3524" transform="translate(6.537 3.163)">
              <path id="Path_10581" data-name="Path 10581" d="M-405.352,97.107s1.617,1.318,1-1.292A9.3,9.3,0,0,0-407.7,91C-408.661,90.079-407.545,95.1-405.352,97.107Z" transform="translate(408.047 -90.886)" fill="#dc8034"/>
            </g>
            <g id="Group_3525" data-name="Group 3525" transform="translate(0)">
              <path id="Path_10582" data-name="Path 10582" d="M-403.3,92.972c.106.089,2.191,2.282,2.365.381a4.457,4.457,0,0,0-2.575-3.975C-404.559,88.9-404.924,91.909-403.3,92.972Z" transform="translate(404.408 -89.327)" fill="#dc8034"/>
            </g>
            <g id="Group_3526" data-name="Group 3526" transform="translate(2.279 6.468)">
              <path id="Path_10583" data-name="Path 10583" d="M-403.526,94.262a4.393,4.393,0,0,0-.838-1.671c-.524-.523-.481,1.834.176,2.545C-403.558,95.877-402.1,95.268-403.526,94.262Z" transform="translate(404.722 -92.516)" fill="#dc8034"/>
            </g>
          </g>
          <g id="Group_3531" data-name="Group 3531" transform="translate(353.64 126.115)" opacity="0.5">
            <g id="Group_3528" data-name="Group 3528" transform="translate(10.003)">
              <path id="Path_10584" data-name="Path 10584" d="M-327.439,73.522s3.023-.187.011-1.827c-3.033-1.659-6.239-1.343-8.15-1.324C-337.507,70.388-331.8,73.63-327.439,73.522Z" transform="translate(335.964 -70.334)" fill="#dc8034"/>
            </g>
            <g id="Group_3529" data-name="Group 3529" transform="translate(0 1.862)">
              <path id="Path_10585" data-name="Path 10585" d="M-325.371,74.306c.2-.02,4.559.128,3.07-1.56s-4.83-1.688-6.485-1.237S-328.214,74.694-325.371,74.306Z" transform="translate(329.346 -71.252)" fill="#dc8034"/>
            </g>
            <g id="Group_3530" data-name="Group 3530" transform="translate(8.012 6.064)">
              <path id="Path_10586" data-name="Path 10586" d="M-329.191,74.036a6.81,6.81,0,0,0-2.459-.712c-1.063,0,1.054,1.882,2.429,1.978C-327.81,75.371-326.647,73.736-329.191,74.036Z" transform="translate(331.939 -73.324)" fill="#dc8034"/>
            </g>
          </g>
          <g id="Group_3532" data-name="Group 3532" transform="translate(240.349 30.976)" opacity="0.5">
            <path id="Path_10587" data-name="Path 10587" d="M-247.193,56.965a22.849,22.849,0,0,0-5.431-20.65c-8.731-9.855-26.137-11.7-32.844-12.8-6.733-1.116,13.165,9.4,12.057,11.344-1.124,1.959,3.644,6.933,10.106,12.3C-256.866,52.55-247.747,63.669-247.193,56.965Z" transform="translate(286.863 -23.428)" fill="#dc8034"/>
          </g>
          <g id="Group_3533" data-name="Group 3533" transform="translate(291.939 56.807)" opacity="0.5">
            <path id="Path_10588" data-name="Path 10588" d="M-306.324,44.655s8.6-4.527,16.183-4.044c7.564.5,24.488,1,28.027-1.049,3.566-2.055,3.309-2.3-3.625-1.331s-12.229,2.56-15.333-.176c-3.122-2.728-16.6-2.481-21.071.586s-19.247,10.178-23.08,11.2c-3.85,1.032-5.061,12.458-4.474,12.648C-329.121,62.652-324.124,53.129-306.324,44.655Z" transform="translate(329.838 -36.164)" fill="#dc8034"/>
          </g>
          <g id="Group_3534" data-name="Group 3534" transform="translate(164.409 61.53)" opacity="0.5">
            <path id="Path_10589" data-name="Path 10589" d="M-296.675,44.843a29.107,29.107,0,0,0-13.7-6.223c-7.772-1.041,3.547,4.485,5.6,8.829,2.083,4.359,13.589,7.537,18.722,16.514s10.613,21.125,14.658,23.116c4.032,1.965.356-4.931-1.892-9.427-2.249-4.48,6.271,13.111,34.982,25.6s36.631,11.377,41.664,10.892,25.882,1.681,35.729-.207,15.5-2.969,13.067-4.892-7.675-3.659-17.759-2.223-22,3.62-25.869,3.687c-3.865.045-44.113-9.085-53.731-14.894S-266.13,80.23-273.26,69.586-290.146,48.893-296.675,44.843Z" transform="translate(313.064 -38.492)" fill="#dc8034"/>
          </g>
          <g id="Group_3535" data-name="Group 3535" transform="translate(522.753 225.447)" opacity="0.5">
            <path id="Path_10590" data-name="Path 10590" d="M-421.543,119.381c6.442-1,12.959,8.48,15.135,11.993v15.512c-.774-.679-1.572-1.353-2.429-2C-419.025,137.269-429.424,120.606-421.543,119.381Z" transform="translate(424.316 -119.308)" fill="#dc8034"/>
          </g>
          <g id="Group_3539" data-name="Group 3539" transform="translate(230.203 138.237)" opacity="0.4">
            <g id="Group_3536" data-name="Group 3536" transform="translate(8.619)">
              <path id="Path_10591" data-name="Path 10591" d="M-262.75,82.408s2.429.531.6-2.331c-1.848-2.852-4.457-3.266-5.957-3.74C-269.6,75.879-266.155,81.443-262.75,82.408Z" transform="translate(268.467 -76.311)" fill="#733c19"/>
            </g>
            <g id="Group_3537" data-name="Group 3537" transform="translate(0 0.198)">
              <path id="Path_10592" data-name="Path 10592" d="M-260.616,80.864c.174.012,3.517,1.306,2.889-1.225a4.461,4.461,0,0,0-4.663-3.213C-263.818,76.58-262.954,80.651-260.616,80.864Z" transform="translate(263.084 -76.408)" fill="#733c19"/>
            </g>
            <g id="Group_3538" data-name="Group 3538" transform="translate(5.195 7.203)">
              <path id="Path_10593" data-name="Path 10593" d="M-262.582,81.391a4.558,4.558,0,0,0-1.688-1.509c-.829-.292.229,2.651,1.277,3.115C-261.928,83.462-260.509,81.653-262.582,81.391Z" transform="translate(264.567 -79.862)" fill="#733c19"/>
            </g>
          </g>
          <g id="Group_3543" data-name="Group 3543" transform="translate(45.157 88.438)" opacity="0.4">
            <g id="Group_3540" data-name="Group 3540" transform="translate(8.632)">
              <path id="Path_10594" data-name="Path 10594" d="M-164.926,57.867s2.408.513.568-2.333c-1.824-2.862-4.436-3.276-5.94-3.75C-171.788,51.334-168.345,56.885-164.926,57.867Z" transform="translate(170.655 -51.758)" fill="#733c19"/>
            </g>
            <g id="Group_3541" data-name="Group 3541" transform="translate(0 0.203)">
              <path id="Path_10595" data-name="Path 10595" d="M-162.807,56.306c.178.016,3.515,1.308,2.9-1.225a4.488,4.488,0,0,0-4.686-3.2C-166.006,52.026-165.142,56.107-162.807,56.306Z" transform="translate(165.277 -51.858)" fill="#733c19"/>
            </g>
            <g id="Group_3542" data-name="Group 3542" transform="translate(5.204 7.208)">
              <path id="Path_10596" data-name="Path 10596" d="M-164.774,56.847a4.643,4.643,0,0,0-1.682-1.517c-.838-.276.218,2.653,1.268,3.115C-164.118,58.886-162.7,57.089-164.774,56.847Z" transform="translate(166.759 -55.312)" fill="#733c19"/>
            </g>
          </g>
        </g>
        <g id="Group_3550" data-name="Group 3550" transform="translate(245.429 112.013)">
          <g id="Group_3545" data-name="Group 3545" transform="translate(0)">
            <path id="Path_10597" data-name="Path 10597" d="M-356.322,67.883a24.031,24.031,0,0,1,6.4,5.588,38.983,38.983,0,0,1,4.427,6.7,87.015,87.015,0,0,1,5.781,14.139,260.041,260.041,0,0,1,7.028,28.808c3.322,17.165,5.776,34.943,4.714,52.21-.3,4.718-.66,9.4-1.048,14.111q-.633,7.077-1.268,14.153c-.844,9.375-1.561,18.721-1.065,28.092.554,9.606,2.047,19.275,6.086,27.824a39.213,39.213,0,0,0,7.955,11.326,37.365,37.365,0,0,0,11.169,7.511,43.213,43.213,0,0,0,11.9,3.071c2.005.3,4.069.341,6.079.533q3.065.1,6.111.191c4.44.063,8.916.1,13.428-.051l3.381-.069c1.12-.03,2.172-.162,3.26-.221l3.235-.2c1.063-.132,2.109-.331,3.165-.477,7.8-1.213,15.418-3.32,22.242-7.819a54,54,0,0,0,17.155-18.9,90.263,90.263,0,0,0,9.357-27.4,129.222,129.222,0,0,0,1.748-29.165c-.895-18.577-4.014-36.629-6.307-54.995-.808-6.628-1.672-13.235-2.058-20.023-.115-3.41-.308-6.819-.178-10.283a84.879,84.879,0,0,1,.921-10.436,83.657,83.657,0,0,1,6.01-21.922,45.481,45.481,0,0,1,5.855-10,18.911,18.911,0,0,1,2.068-2.251,16.547,16.547,0,0,1,2.408-1.984,14.207,14.207,0,0,1,6.1-2.55,1.376,1.376,0,0,1,.535.057c.2.049.367.136.386.243.119.209.176.408,0,.4a11.564,11.564,0,0,0-4.279,1.355,18.965,18.965,0,0,0-1.788,1.116c-.539.428-1.076.872-1.6,1.324a24.28,24.28,0,0,0-4.735,6.466,65.453,65.453,0,0,0-4.911,14.168,92.825,92.825,0,0,0-2.63,29.593c.524,9.387,2.151,18.5,3.666,27.635,1.561,9.133,3.176,18.273,4.279,27.577,1.069,8.989,1.958,17.983,2.162,27.11a127.669,127.669,0,0,1-2.117,27.7,100.275,100.275,0,0,1-9.947,28.213,61.492,61.492,0,0,1-19.295,21.776,62.8,62.8,0,0,1-26.508,9.3c-2.3.329-4.624.371-6.934.613l-6.911.306-6.916.166c-2.3-.057-4.616.034-6.926-.049-8.765-.245-17.863-1.846-26.209-6.46a42.111,42.111,0,0,1-11.281-9.091,45.682,45.682,0,0,1-7.722-12.656c-3.882-9.511-4.873-19.575-5.025-29.236a245.089,245.089,0,0,1,1.814-28.67c1.02-9.04,1.686-18.171,1.922-27.272a187,187,0,0,0-1.146-27.469,351.245,351.245,0,0,0-7.32-39.687,185.632,185.632,0,0,0-5.694-19.38,64.8,64.8,0,0,0-4.105-9.265,30.016,30.016,0,0,0-6.336-8.229C-356.558,70.455-357.493,67.153-356.322,67.883Z" transform="translate(356.877 -63.381)" fill="#6f9740"/>
          </g>
          <g id="Group_3546" data-name="Group 3546" transform="translate(35.044 0.89)">
            <path id="Path_10598" data-name="Path 10598" d="M-356.616,266.877a30.522,30.522,0,0,0,13.4,8.929,85.915,85.915,0,0,0,15.038,3.434c6.217,1.03,12.552.619,18.943.531l2.874-.02,2.893-.12c1.932-.063,3.882-.083,5.653-.284a69.067,69.067,0,0,0,10.691-1.466,51.909,51.909,0,0,0,16.415-6.227,48.522,48.522,0,0,0,13.826-12.681,113.655,113.655,0,0,0,19.9-42.383c2.934-13.125,1.988-25.826,0-38.633-2.172-13.738-4.843-27.142-7.109-40.783a95.313,95.313,0,0,1-1.056-19.167c.057-1.619.062-3.235.178-4.862l.378-4.866c.161-3.251.653-6.495.9-9.772.8-6.718,1.217-13.577,3.873-20.374.308-.763.634-1.515.97-2.266.386-.732.83-1.45,1.256-2.168a33.153,33.153,0,0,1,2.98-4.123,26.107,26.107,0,0,1,7.98-5.655,2.746,2.746,0,0,1,1.873.166.754.754,0,0,1,.528.5c.064.178.064.329-.055.422a27.244,27.244,0,0,0-5.1,3.7l-1.165,1.085c-.348.4-.689.787-1.031,1.172a16.853,16.853,0,0,0-1.756,2.31l-.7,1.051-.585,1.126c-.38.757-.774,1.5-1.12,2.262a46.6,46.6,0,0,0-1.619,4.764,45.815,45.815,0,0,0-1.042,4.864c-.212,1.643-.437,3.255-.558,4.868-.448,6.864-1.548,14.451-2.034,21.39-.136,2.982-.32,6.095-.4,9.194a43.159,43.159,0,0,0,.768,9.117c2.611,12.588,4.476,25.65,6.854,38.572,2.208,11.975,3.226,25.907.8,38.4A133.931,133.931,0,0,1-248.8,251.434c-3.659,6.192-7.562,12.478-12.7,17.029a54.29,54.29,0,0,1-18.966,11.066A78.231,78.231,0,0,1-299.58,283.1a198.774,198.774,0,0,1-20.15.294,69.068,69.068,0,0,1-19.891-3.582,41.809,41.809,0,0,1-9.289-4.622A39,39,0,0,1-356.86,268C-357.12,267.662-356.895,266.536-356.616,266.877Z" transform="translate(356.975 -63.82)" fill="#416123"/>
          </g>
          <g id="Group_3547" data-name="Group 3547" transform="translate(5.976 10.152)">
            <path id="Path_10599" data-name="Path 10599" d="M-293.119,68.458a39.962,39.962,0,0,1,8.148,12.462c2.017,4.454,3.6,8.985,5.235,13.429a85.986,85.986,0,0,1,2.9,10.78c1.114,4.9,2.932,9.391,4.26,14.151,2.257,8.095,1.877,17.015,2.516,25.278a123.593,123.593,0,0,1-.6,27.506c-1.3,9.267-2.938,18.508-3.75,27.905-.813,9.987-2.07,20.21-1.563,30.343a135.2,135.2,0,0,0,1.145,13.673,36.486,36.486,0,0,0,4.474,13.235c2.4,4,4.6,8.137,7.528,11.89.757.89,1.462,1.876,2.306,2.691s1.68,1.649,2.567,2.426a23.258,23.258,0,0,0,5.95,3.521c.165.063.346.562.117.511-4.031-.7-7.611-3.217-10.672-6.239-3.1-3.059-5.431-6.888-7.734-10.533a44.325,44.325,0,0,1-5.286-12.531,74.429,74.429,0,0,1-2.111-13.058,184.657,184.657,0,0,1,.518-29.3c.842-9.61,2-19.2,3.362-28.641a127.717,127.717,0,0,0,1.434-28.942c-.673-9.087-.683-18.33-2.314-27.4a194.924,194.924,0,0,0-6.943-26.6c-1.466-4.389-3.063-8.746-4.9-13.022a62.732,62.732,0,0,0-6.784-12.431C-293.522,69.288-293.5,68.083-293.119,68.458Z" transform="translate(293.444 -68.387)" fill="#416123"/>
          </g>
          <g id="Group_3548" data-name="Group 3548" transform="translate(61.517 110.71)">
            <path id="Path_10600" data-name="Path 10600" d="M-332.659,229.574a.8.8,0,0,0,.4-.124c9.943,0,20.208.053,29.172-3.6A43.911,43.911,0,0,0-290,220.72l3-1.967c.972-.7,1.852-1.541,2.781-2.31l1.37-1.2,1.232-1.359c.8-.931,1.665-1.8,2.4-2.793a97.794,97.794,0,0,0,11.463-19.476,87.965,87.965,0,0,0,6.621-22.506c1.256-8.6.838-17.244,1-25.794.059-4.367-.552-8.582-.505-12.963.028-3.9.335-8.1-.35-11.91-.038-.217.371-.661.454-.4a36.277,36.277,0,0,1,1.279,9.036c.2,4.409.683,8.624.938,13.024a156.894,156.894,0,0,1-.325,25.475c-.846,8.243-2.34,16.078-5.66,23.63A126.637,126.637,0,0,1-276.26,211.1,43.478,43.478,0,0,1-294.293,225.9c-7.049,3.15-14.6,4.434-22.193,5.144-1.447.221-2.9.3-4.347.42l-4.357.387c-5.013-.1-10.1.2-15.067-.126-1.411-.053-2.828-.136-4.247-.31s-2.86-.221-4.285-.507C-343.28,230.7-338.028,230.109-332.659,229.574Z" transform="translate(348.789 -117.964)" fill="#98c239"/>
          </g>
          <g id="Group_3549" data-name="Group 3549" transform="translate(7.642 16.911)">
            <path id="Path_10601" data-name="Path 10601" d="M-282.643,71.8c3.267,4.955,4.52,10.8,6.466,16.271,1.871,5.28,3.526,10.715,4.985,16.159,1.445,5.418,2.21,11,3.426,16.5a157.9,157.9,0,0,1,3.21,19.181c1.131,11.928,2.106,23.516,1.485,35.422-.261,5.02.543,10.07.367,15.161-.119,3.263-.414,6.5-.744,9.713-.344,3.4-1.582,6.675-1.086,10.174.021.176-.3.548-.356.335-1.02-4.079.24-9.162.376-13.413.185-5.817-.2-11.31-.547-17.1-.361-6,.219-12.117-.113-18.184-.365-6.651-1.024-13.226-1.644-19.863-1.135-11.981-3.988-23.757-6.442-35.462-1.233-5.841-2.516-11.565-4.033-17.222a100.862,100.862,0,0,0-5.753-16.685C-283.2,72.5-282.908,71.413-282.643,71.8Z" transform="translate(283.086 -71.719)" fill="#98c239"/>
          </g>
        </g>
        <g id="Group_3556" data-name="Group 3556" transform="translate(171.118 54.078)">
          <g id="Group_3551" data-name="Group 3551">
            <path id="Path_10602" data-name="Path 10602" d="M-302.113,36.079a22.135,22.135,0,0,1,6.718,6.306,36.384,36.384,0,0,1,4.02,7.7,86.52,86.52,0,0,1,4.128,15.683c1.833,10.391,2.811,20.646,3.808,30.9,1.689,18.222,3.178,36.665,2.159,54.551-1.112,19.482-2.342,39.243,1.065,58.816a155.74,155.74,0,0,0,7.987,29.331c3.695,9.352,8.5,18.3,15.029,25.595,6.037,6.9,13.965,11.034,21.692,13.332a43.185,43.185,0,0,0,12.9,1.556,37.87,37.87,0,0,0,12.545-2.872,54.845,54.845,0,0,0,5.5-2.631,56.419,56.419,0,0,0,5.168-3.466,54.932,54.932,0,0,0,4.881-4.1c.781-.744,1.491-1.57,2.251-2.353l1.131-1.187,1.025-1.3,2.077-2.623,1.869-2.817c.308-.475.643-.939.936-1.426l.819-1.507,1.655-3.04a66.7,66.7,0,0,0,4.722-13.342,74.622,74.622,0,0,0,.681-30.8c-.534-2.521-1.1-5.073-1.689-7.553-.62-2.422-1.233-4.846-1.858-7.275q-.849-3.669-1.712-7.363-.792-3.7-1.589-7.456a225.076,225.076,0,0,1-4.355-58.544c.857-14.261,2.586-28.485,7.032-42.186,2.338-7.215,5.047-14.275,7.995-21.208,2.806-6.606,5.29-13.525,9.238-19.565.221-.335,1.341-.7.976-.105-5.11,8.342-7.24,18.8-10.432,27.968a165.463,165.463,0,0,0-7.59,29.952c-2.889,19.555-2.4,39.219-.668,58.228a246.831,246.831,0,0,0,4.056,26.915c.5,2.18.876,4.389,1.408,6.549l1.523,6.5c.569,2.152,1.109,4.292,1.621,6.5.566,2.485,1.1,4.992,1.582,7.5a83.312,83.312,0,0,1-.95,32.308,76.108,76.108,0,0,1-5.142,15.044,69.226,69.226,0,0,1-8.233,13.074,62.515,62.515,0,0,1-11.014,10.693,53.277,53.277,0,0,1-13.188,7.125,43.461,43.461,0,0,1-14.577,2.519,48.56,48.56,0,0,1-7.442-.542l-3.676-.789a32.91,32.91,0,0,1-3.617-1.069,44.252,44.252,0,0,1-6.684-2.833c-1.061-.6-2.085-1.272-3.131-1.923a22.77,22.77,0,0,1-3.021-2.12l-2.893-2.335c-.965-.789-1.79-1.724-2.686-2.586-.861-.9-1.793-1.742-2.594-2.7l-2.365-2.909c-6.228-7.866-10.59-17.159-13.916-26.508-6.792-19.465-8.939-40.233-8.475-60.157.458-19.117,1.706-38.04.462-57.352-.931-13.944-2.221-28.12-3.884-42.267-.865-7.069-1.8-14.137-3.352-21.112A61.369,61.369,0,0,0-295.336,48.5a24.527,24.527,0,0,0-6.215-9.174,5.687,5.687,0,0,1-1.023-2.166C-302.784,36.345-302.773,35.678-302.113,36.079Z" transform="translate(302.695 -34.818)" fill="#6f9740"/>
          </g>
          <g id="Group_3552" data-name="Group 3552" transform="translate(32.976 0.591)">
            <path id="Path_10603" data-name="Path 10603" d="M-302.776,247.871a32.021,32.021,0,0,0,2.391,3.858c.853,1.245,1.71,2.462,2.59,3.649l2.9,3.31,1.445,1.619,1.574,1.471a80.744,80.744,0,0,0,13.107,10.151,38.077,38.077,0,0,0,17.539,5.541,34.073,34.073,0,0,0,10.52-.718l1.3-.251c.426-.118.844-.272,1.264-.4.844-.29,1.7-.5,2.535-.809a42.905,42.905,0,0,0,4.885-2.282,51.95,51.95,0,0,0,14.592-11.713,59.887,59.887,0,0,0,10.479-17.516A102.842,102.842,0,0,0-209.488,220l.609-6.365c.027-2.158.055-4.316.081-6.462.008-2.186-.252-4.328-.414-6.519-.206-2.266-.411-4.257-.649-6.259-1.6-13.1-4.035-25.076-6.245-38.221a222.8,222.8,0,0,1-2.6-43.2c.528-13.549,4.862-26.591,8.3-39.71,1.769-6.8,3.036-13.644,5.223-20.36,1-3.022,2.28-5.943,3.572-8.841,1.023-2.33,2.985-5.553,3.78-7.845.223-.669,2.24-1.643,2.126-.73-.367,3.59-2.474,8.164-3.733,11.665a123.384,123.384,0,0,0-5.382,20.21c-1.275,7.2-3.931,14.916-5.791,22.009-1.608,6.085-3.543,12.665-3.617,18.96-.129,13.527-.4,27.26,1.453,40.347,1.773,12.164,3.617,25.222,4.506,37.284.185,3.724.573,7.385.865,11.107a116.062,116.062,0,0,1,.673,12.4,96.85,96.85,0,0,1-2.978,24.074c-1.922,7.478-4.24,15.028-8.137,21.315a64.551,64.551,0,0,1-15.863,17.691,45.88,45.88,0,0,1-18.3,8.137,38.348,38.348,0,0,1-19.911-1.767,49.366,49.366,0,0,1-17.94-11.661,76.559,76.559,0,0,1-13.349-18.305C-303.412,248.548-303,247.455-302.776,247.871Z" transform="translate(303.264 -35.11)" fill="#416123"/>
          </g>
          <g id="Group_3553" data-name="Group 3553" transform="translate(6.26 7.54)">
            <path id="Path_10604" data-name="Path 10604" d="M-250.215,38.624c3.668,4.225,5.624,9.373,7.142,14.305,1.489,4.975,2.48,9.937,3.581,14.8a107.22,107.22,0,0,1,1.633,11.6c.562,5.233,1.911,10.1,2.8,15.172,1.512,8.6.488,17.772.725,26.372a177.726,177.726,0,0,1-1.209,28.483c-1.245,9.645-2.569,19.25-2.461,29.155.1,10.5.322,21.4,2.062,31.915,1.523,9.286,2.7,19.117,6.85,27.779.98,2.168,2,4.338,2.811,6.6.779,2.276,1.708,4.495,2.639,6.738.477,1.112.9,2.253,1.445,3.343.56,1.075,1.141,2.142,1.754,3.193a29.165,29.165,0,0,0,1.966,3.057c.759.949,1.557,1.872,2.4,2.748.129.13.117.673-.074.531-3.519-2.489-5.971-6.154-8.033-10-.961-1.963-1.86-3.965-2.779-5.949-.795-2.038-1.6-4.069-2.52-6.03-3.825-8.482-5.916-16.983-7.545-26.025a207.765,207.765,0,0,1-1.585-60.885,189.689,189.689,0,0,0,1.769-30.169c-.3-9.49.307-19.088-.52-28.672a286.857,286.857,0,0,0-4.083-28.556c-.942-4.795-1.966-9.588-3.307-14.352a54.4,54.4,0,0,0-5.7-14.032C-250.629,39.425-250.614,38.2-250.215,38.624Z" transform="translate(250.561 -38.536)" fill="#416123"/>
          </g>
          <g id="Group_3554" data-name="Group 3554" transform="translate(52.712 117.104)">
            <path id="Path_10605" data-name="Path 10605" d="M-279.925,223.037a.872.872,0,0,0,.431-.041,38.3,38.3,0,0,0,15.254.128,32.434,32.434,0,0,0,13.738-6.3,46.067,46.067,0,0,0,19.768-22.954A96.834,96.834,0,0,0-224.48,170.5a73.278,73.278,0,0,0-.874-24.85c-1.022-4.489-2.384-8.75-3.693-13.068-.571-2.187-1.141-4.377-1.714-6.555-.48-2.209-.9-4.434-1.29-6.673-.668-4.562-1.839-8.937-2.079-13.618-.17-2.071-.115-4.233-.178-6.375-.03-1.071-.081-2.14-.167-3.195-.047-1.057-.14-2.1-.288-3.113-.038-.233.38-.7.454-.414a56.066,56.066,0,0,1,1.372,9.553,114.7,114.7,0,0,0,2.183,13.5c1.74,8.592,4.009,16.985,6.4,25.431a65.067,65.067,0,0,1,2.5,25.782,114.3,114.3,0,0,1-5.935,26.019,52.393,52.393,0,0,1-13.988,20.9,48.638,48.638,0,0,1-21.391,11.2c-.753.166-1.5.42-2.257.527l-2.295.323a30.262,30.262,0,0,1-4.637.383,51.377,51.377,0,0,1-15.852-3.239c-1.4-.635-2.809-1.284-4.224-1.927-1.381-.716-2.7-1.566-4.071-2.361A57.324,57.324,0,0,0-279.925,223.037Z" transform="translate(296.501 -92.554)" fill="#98c239"/>
          </g>
          <g id="Group_3555" data-name="Group 3555" transform="translate(7.45 14.835)">
            <path id="Path_10606" data-name="Path 10606" d="M-239.822,42.239c2.83,5.681,3.3,12,4.591,18.015,1.228,5.8,2.217,11.717,3.082,17.589.857,5.841,1.069,11.75,1.826,17.605.853,6.673,1.608,13.529,1.884,20.254.522,12.5,1.264,24.538.9,36.917-.151,5.259.853,10.379,1.048,15.644.123,3.375.112,6.758.119,10.119.008,3.568-.849,7.131.078,10.724.047.183-.229.611-.31.4-1.523-4.134-.849-9.6-1.116-14.026-.361-6.063-1.127-11.725-1.671-17.731-.566-6.263-.059-12.667-.34-19.007-.361-6.961-.715-13.882-1.078-20.834-.558-12.59-2.439-25.179-3.651-37.771-.613-6.284-1.234-12.458-2.043-18.607A97.175,97.175,0,0,0-240.332,43.2C-240.448,42.882-240.049,41.791-239.822,42.239Z" transform="translate(240.353 -42.132)" fill="#98c239"/>
          </g>
        </g>
      </g>
    </g>
  </g>
</svg>
