<svg xmlns="http://www.w3.org/2000/svg" xmlns:xlink="http://www.w3.org/1999/xlink" width="1920" height="424" viewBox="0 0 1920 424">
  <defs>
    <clipPath id="clip-path">
      <rect id="Rectangle_10608" data-name="Rectangle 10608" width="1920" height="424" transform="translate(0 4550)" fill="#fff" stroke="#707070" stroke-width="1"/>
    </clipPath>
  </defs>
  <g id="Mask_Group_1" data-name="Mask Group 1" transform="translate(0 -4550)" clip-path="url(#clip-path)">
    <g id="Group_6036" data-name="Group 6036">
      <g id="Group_5610" data-name="Group 5610" transform="translate(88.335 4015.448)">
        <path id="Path_11663" data-name="Path 11663" d="M1917.7,922.451a2.1,2.1,0,0,0-2-1.472v-.105l-7.472-.005V725.794a7.971,7.971,0,0,0-7.963-7.963h-14.9v1.477c-.079-.106-.156-.217-.237-.317a27.623,27.623,0,0,0-3.338-3.433l.063-23.783,4.155-.021c1.382-.032,2.73.037,4.145-.085a3.107,3.107,0,0,0,2.492-3.048h0a3.1,3.1,0,0,0-2.492-3.053c-1.415-.127-2.763-.048-4.145-.085l-4.134-.026.09-35.216,4.609-.016h1.924a7.4,7.4,0,0,0,1.939-.137,3.1,3.1,0,0,0,2.209-2.964l-.111-.01h.111a3.1,3.1,0,0,0-2.209-2.969A7.546,7.546,0,0,0,1888.5,644l-1.919-.006-4.6-.01.011-4.393-.011-4.767a14.113,14.113,0,0,0-.463-4.836,8.338,8.338,0,0,0-7.52-5.606l-3.481.006v-5.153a.993.993,0,0,0-1-.991h-1.893l.016-6.086c-.039-2.325.258-4.793-.744-7.029a10.145,10.145,0,0,0-4.746-5.173,9.983,9.983,0,0,0-3.419-1.044c-1.2-.122-2.373-.053-3.555-.074l-28.318-.048-21.065.037a17.775,17.775,0,0,0-2.605-2.948,22.581,22.581,0,0,0-7.857-4.561,39.056,39.056,0,0,0-8.868-1.688c-5.948-.617-11.915-.849-17.879-.9a174.572,174.572,0,0,0-17.882.87,39.148,39.148,0,0,0-8.87,1.735,22.776,22.776,0,0,0-7.852,4.551,16.71,16.71,0,0,0-5.7,12.129l.011,4.472.084,17.776a2.824,2.824,0,0,0-1.49.575,3.079,3.079,0,0,0-1.247,2.473l.079.006v.005l-.053.005a3.079,3.079,0,0,0,1.234,2.452,2.9,2.9,0,0,0,1.627.581l-.2,22.285.2,22.159-8.482-.026-31.752.1-.49-12.2,2.613-.005a3.336,3.336,0,0,0,3.641-3.28l-.121-.005h.121a3.33,3.33,0,0,0-3.3-3.286V646.049l3.444-.005,2.906-.006a2.981,2.981,0,0,0,1.434-.348,1.454,1.454,0,0,0,.63-1.313l-.047,0h.023a1.429,1.429,0,0,0-.622-1.292,2.85,2.85,0,0,0-1.421-.338l-2.9-.01-5.806-.005h-1.64l-1.4-34.742,1.612-.005a3.131,3.131,0,0,0,3.266-3.095l-.116-.006h.116a3.118,3.118,0,0,0-3.266-3.1l-1.865-.011-1.7-42.568a17.5,17.5,0,0,0-17.323-16.643H1640.51a17.518,17.518,0,0,0-17.334,16.633l-1.74,42.588-2.579.011a3.118,3.118,0,0,0-3.262,3.09l.077.005h-.077a3.127,3.127,0,0,0,3.262,3.1l2.334.005-1.422,34.742H1618.7l-5.8.005-2.911.01a2.908,2.908,0,0,0-1.416.354c-.058.031-.074.095-.121.131a1.129,1.129,0,0,0-.272.3,1.5,1.5,0,0,0-.163.39q-.04.226-.093.449l.037.005h-.06a1.456,1.456,0,0,0,.656,1.3,2.923,2.923,0,0,0,1.432.359l2.908.011,2.173.005V662.1a3.3,3.3,0,1,0,.43,6.571l3.208,0-1.423,34.926h-.849a3.535,3.535,0,0,0-2.568.7,3.1,3.1,0,0,0-1.134,2.394h.068v.005h-.068a3.12,3.12,0,0,0,1.136,2.4,3.575,3.575,0,0,0,2.566.7h.593l-1.411,34.552-22.913-.043-20.055.037-.427-26.52-.981-61.066-.38-23.6-.733-37.457-29.868.1-.712,37.352-.385,23.567-.992,61.077-.432,26.6-13.946.022-.424-26.542-.986-61.187-.375-23.541-.738-37.489-29.486.095-.86,61.03-.187,13.389-.562,47.7-.725,61-.269,22.689c-3.256.353-6.539.707-9.911.986-3.67.3-7.351.641-11.051.979v-134.2h-42.849l-1.632-33.882-2.125-35.844-.2.016v-.1l-13.861-.095-13.854.095v.09h-.037l-.213.01-1.216-20.956-.2.015v-.147l-27.717-.074h-.206l-.013.206L1361.57,625l-2.273,44.345h-35.8V814.419c-1.505.158-2.985.335-4.522.467-6.576.559-15.372-.261-22.072.311-6.581.564-10.067,3.665-16.769,4.245-2.771.24-5.714.287-8.68.319l-4.024-93.295-.939-20.055c2.358-.026,4.715-.047,7.069-.11l11.919-.362,5.958-.316,1.49-.079a2.321,2.321,0,0,0,1.519-.659,2.244,2.244,0,0,0,.664-1.459c-.005-.516-.047-1-.068-1.5h.029a2.133,2.133,0,0,0-1.574-2.033h.759V673.966h-.946c.121-.021.242-.023.363-.047a1.94,1.94,0,0,0,1.2-.849,3.347,3.347,0,0,0,.148-1.463h.024c-.069-1.111-1.308-1.583-2.226-1.535l-2.871-.005-5.748-.011-11.491-.021-7.921-.011-.809-17.175,3.2-.2,1.484-.156a2.485,2.485,0,0,0,1.569-.819,2.363,2.363,0,0,0,.6-1.572c-.048-.514-.124-.978-.188-1.466h.027a2.143,2.143,0,0,0-1.516-2.036h.356V635.16h-.559a3.27,3.27,0,0,0,.443-.077,1.816,1.816,0,0,0,1.107-.875,3.77,3.77,0,0,0,.119-1.408h.023c-.055-1.041-1.173-1.527-2.043-1.535l-2.7-.01-2.94-.013-1.69-36.013,5.88-.039,1.883-.013a5.978,5.978,0,0,0,1.988-.18,2.363,2.363,0,0,0,1.394-1.579,10.679,10.679,0,0,0,.072-1.957l-.05-7.538-.029-3.765a2.785,2.785,0,0,0-.464-1.922,2.263,2.263,0,0,0-1.788-.889l-.008.206V577.4l-4.3-.021c-.662-2.481-1.466-4.912-2.191-7.372q-.725-2.128-1.44-4.259h-24.73l-1.426,4.29-2.2,7.238-1.384.008-1.88.013a5.788,5.788,0,0,0-1.959.169,2.27,2.27,0,0,0-1.348,1.521,10.227,10.227,0,0,0-.074,1.941l.037,7.53.021,3.768a2.736,2.736,0,0,0,.451,1.891,2.187,2.187,0,0,0,1.746.867l.008-.124v.177l8.933.06-1.682,36.145-3.18.013-2.695.01c-.872.008-2,.5-2.046,1.53l.055.005h-.031a3.8,3.8,0,0,0,.116,1.408,1.834,1.834,0,0,0,1.107.875,3.318,3.318,0,0,0,.441.077h-.6v7.963h-1.651c-2.038,0-3.76,2.2-3.926,5.017l-1.284,21.9-7.789.016-5.748.011-2.871.005c-.915-.048-2.157.424-2.223,1.527h.058v.006h-.034a3.357,3.357,0,0,0,.145,1.463,1.935,1.935,0,0,0,1.2.849c.122.024.24.026.359.047h-.944v25.927h.759a2.137,2.137,0,0,0-1.571,2.025l.084.006h-.055c-.024.5-.069.976-.069,1.509a2.239,2.239,0,0,0,.665,1.45,2.283,2.283,0,0,0,1.516.653l1.487.079,5.964.314,7.067.219V818.909c-1.835-.007-3.631.035-5.34.182-6.581.575-10.924,3.8-17.608,4.385-6.589.578-13.784.522-20.458,1.113-6.587.572-12.129,2.4-18.813,2.979-6.581.581-15.08-.922-21.75-.334-6.592.58-14.593-.333-21.26.253-6.576.58-12.308,2.188-18.981,2.774-6.582.585-12.135,2.351-18.8,2.947-6.589.583-11.7,2.8-18.362,3.4-6.592.586-15.156-.912-21.817-.318-6.587.587-10.916,3.622-17.581,4.221-6.584.588-12.076,2.362-18.745,2.964-6.577.59-17.151-2.959-23.81-2.358-6.586.586-13.368,1.026-20.026,1.627-5.184.472-7.165,4.277-11.011,6.178q-12.409,1.063-24.764,2.128c-6.683.279-17.9-4.027-24.354-3.439-6.58.6-10.091,4.351-16.735,4.957-6.584.6-14.589-.176-21.242.436-6.578.6-12.8,1.611-19.441,2.222l-26.18,5.311c-165.541,14.8-314.993,29.3-414.292,39.166V964.45l1009.39-4.053-60.631,83.31,536.243,15.881V929.5h1.054l20.277-.015c3.391-.027,6.739.042,10.162-.053a2.116,2.116,0,0,0,1.634-1.888v-2.537a15.525,15.525,0,0,0-.1-2.556ZM1273.49,674.038l11.38-.008,5.856-.008c.293-.013.583-.008.873-.006v11.591H1273.49Zm0,14.211h18.11v11.528c-.425,0-.854.005-1.284,0l-5.8-.016-11.026-.023Zm-41.26,39.443V706.4c.327,0,.66.01.989.015l-.936,20.058Zm1.96-42.085h-5.43V674.04l5.967.008Zm-.124,2.642-.533,11.473-4.773.011V688.249Zm-4.48,18.107v11.886h-5.912V706.229l2.207.072c1.229.031,2.469.036,3.709.055Zm0,14.531v13.268h-5.912V720.887Zm0,15.912v15.328h-5.912V736.8Zm0,17.964v13.614h-5.912V754.763Zm0,16.258v14.985h-5.912V771.021Zm-.011,17.63-.6,13.958h-5.3V788.651Zm443.132-44.189-42.113-.074,21.821-16.058,20.453,16.132Zm135.913-108.1a2.9,2.9,0,0,0,1.624-.581,3.079,3.079,0,0,0,1.237-2.462h.026a3.107,3.107,0,0,0-1.247-2.479,2.847,2.847,0,0,0-1.495-.575l.087-17.776.005-4.477c-.005-.312-.026-.618-.053-.929l11.8.021,25.191-.037,6.3-.01,3.146-.005,1.577-.006a3.751,3.751,0,0,1,1.513.159,1.926,1.926,0,0,1,1.013,1.055,4.353,4.353,0,0,1,.126,1.529l.011,3.148.005,5.3h-1.917a.993.993,0,0,0-.994.991v5.184l-1.635.006a10.479,10.479,0,0,0-4.788.7,8.266,8.266,0,0,0-4.917,7.863l.007,4.761.022,6.234-4.747.01-1.922.006a7.547,7.547,0,0,0-1.943.137,3.1,3.1,0,0,0,0,5.943,7.456,7.456,0,0,0,1.943.137h1.922l4.762.016.021,6.307a6.063,6.063,0,0,0-1.914-.327,6.3,6.3,0,0,0-5.632,3.591,6.922,6.922,0,0,0-.6,3.4l.024,3.091a18.179,18.179,0,0,0-11.989,15.82c-.079,8.838.029,17.619.037,26.43-1.406,0-2.816.011-4.246.122a27.931,27.931,0,0,0-7.335,1.645,27.63,27.63,0,0,0-5.02,2.463l.2-37.969Zm-120.22,9.687h.87V662.1l-1.732-.005-.646-16.042Zm-10.492,136.086a17.952,17.952,0,0,0-1.843.005c-1.046.082-2.091.2-3.135.3l-.018-8.733.026-15.435.243.306,3.662-2.948Zm-1.141-28.36-3.826,3.079.008-3.217,3.818.027Zm-.253-6.344-3.555.031.006-2.747v-.179l3.543,2.795Zm-.085-2.068-22.763-17.95,21.413-15.752Zm-1.761-43.843-20.211-15.941,18.972-14.956Zm-2.331-55.439h.1l.644,15.983h-.744Zm-.126-5.691L1654.4,624.707l16.59-14.607Zm-34.6-80.6a3.014,3.014,0,0,1,2.906-2.795h25.563a3.012,3.012,0,0,1,2.9,2.784l1.682,41.961-17.74-.042-17.02.042Zm-1.967,48.236,17.276.042,17.993-.042.005.153-17.642,15.536-17.637-15.536Zm-.084,2.072,16.585,14.613L1634.32,640.4Zm-1.324,32.364,19.04-16.759,19.019,16.753.013.259-18.752-.021-19.328.021Zm36.614,3.628v15.973l-7.6-.016V646.091Zm-9.092.01v15.942l-7.467-.016V646.107Zm-8.959.011v15.91l-7.594.021V646.1Zm-9.087-.016v15.952l-7.717.016V646.086Zm-9.621-.01h.409v15.983h-1.063Zm-.925,22.633,19.8.042,20.388-.047v.068l-20.1,15.847-20.094-15.847Zm-.077,1.909,18.961,14.956-20.218,15.941Zm-1.336,32.864,21.5-16.959,21.495,16.954.005.089-21.149-.052-21.236.052h-.625Zm-.262,6.355.881.005,21.236.047,21.234-.047H1675v.011l-22.554,16.6-20.967-16.543Zm-.079,1.919,19.8,15.61-21.068,15.5Zm-14.839-49.66V646.049h2.138l.931.005-.657,16.042Zm-345.719,37.632-4.68-.011-.538-11.473h5.218Zm0-25.693v11.567h-5.342l-.54-11.559Zm-3.383-27.564c-.414,0-.822.008-1.247,0l-2.55-.011-.216-4.566h4.013Zm-.9-11.248c.3-.019.6-.014.9-.005v4.643h-4.108l-.213-4.633Zm-34.641,0c.313-.011.625-.016.936,0l3.675.008-.213,4.63h-4.4Zm0,6.674h4.3l-.214,4.561-2.8.016c-.432.008-.862,0-1.289,0Zm-5.58,6.362c.106-1.772,1.084-3.1,1.9-3.1h1.651V646.6h.4a2.139,2.139,0,0,0-1.516,2.028h.081v.005h-.055c-.063.5-.145.944-.187,1.474a2.389,2.389,0,0,0,.6,1.564,2.5,2.5,0,0,0,1.569.819l1.484.148,3.454.219-.8,17.162-8.185.011-1.658.005Zm-18.515,25.755c.288,0,.583-.007.87.006l5.862.008,11.551.008v11.569h-18.283Zm7.082,25.745-5.8.016c-.432.005-.859,0-1.284,0V688.249h18.283v11.489Zm8.762,105.488h5.181l-.6,13.811c-1.535-.043-3.051-.061-4.583-.1ZM1904.258,920.87l-12.914-.015.179-33.386h12.735Zm0-35.4h-12.722v-.617l-.166-30.417h12.885Zm0-33.028h-12.893l-.026-3.718a4.089,4.089,0,0,0,3.889-4.076l-.082-.005h.132a4.14,4.14,0,0,0-3.933-4.134l.183-19.1h12.73Zm0-33.027h-12.73l-.184-19.153a4.081,4.081,0,0,0,3.884-4.082h.048a4.141,4.141,0,0,0-3.939-4.135l.007-3.665h12.912Zm0-33.028h-12.909l.042-23.967.011-7.072h12.856Zm0-33.032H1891.4l.011-5.828.01-7.446a48.94,48.94,0,0,0-.3-7.467,28.428,28.428,0,0,0-3.992-10.8h13.131a4,4,0,0,1,3.986,3.987Z" fill="#9f691d"/>
      </g>
      <g id="Group_5611" data-name="Group 5611" transform="translate(-51 4558)">
        <path id="Path_11663-2" data-name="Path 11663" d="M399.765,922.451a2.1,2.1,0,0,1,2-1.472v-.105l7.472-.005V725.794a7.971,7.971,0,0,1,7.963-7.963h14.9v1.477c.079-.106.156-.217.237-.317a27.621,27.621,0,0,1,3.338-3.433l-.063-23.783-4.155-.021c-1.382-.032-2.73.037-4.145-.085a3.107,3.107,0,0,1-2.492-3.048h0a3.1,3.1,0,0,1,2.492-3.053c1.415-.127,2.763-.048,4.145-.085l4.134-.026-.09-35.216-4.609-.016h-1.924a7.394,7.394,0,0,1-1.939-.137,3.1,3.1,0,0,1-2.209-2.964l.111-.01h-.111a3.1,3.1,0,0,1,2.209-2.969A7.552,7.552,0,0,1,428.97,644l1.919-.006,4.6-.01-.011-4.393.011-4.767a14.114,14.114,0,0,1,.463-4.836,8.338,8.338,0,0,1,7.52-5.606l3.481.006v-5.153a.993.993,0,0,1,1-.991h1.893l-.016-6.086c.039-2.325-.258-4.793.744-7.029a10.146,10.146,0,0,1,4.746-5.173,9.983,9.983,0,0,1,3.419-1.044c1.2-.122,2.373-.053,3.555-.074l28.318-.048,21.065.037a17.771,17.771,0,0,1,2.6-2.948,22.581,22.581,0,0,1,7.857-4.561,39.05,39.05,0,0,1,8.861-1.69c5.948-.617,11.915-.849,17.879-.9a174.608,174.608,0,0,1,17.882.87,39.153,39.153,0,0,1,8.87,1.735,22.778,22.778,0,0,1,7.852,4.551,16.71,16.71,0,0,1,5.7,12.129l-.011,4.472-.084,17.776a2.823,2.823,0,0,1,1.49.575,3.08,3.08,0,0,1,1.247,2.473l-.079.006v.005l.053.005a3.079,3.079,0,0,1-1.234,2.452,2.9,2.9,0,0,1-1.627.581l.2,22.285-.2,22.159,8.482-.026,31.752.1.49-12.2-2.613-.005a3.336,3.336,0,0,1-3.641-3.28l.121-.005h-.121a3.33,3.33,0,0,1,3.3-3.286V646.049l-3.444-.005-2.906-.006a2.981,2.981,0,0,1-1.434-.348,1.454,1.454,0,0,1-.63-1.313l.047-.005h-.023a1.429,1.429,0,0,1,.622-1.292,2.85,2.85,0,0,1,1.421-.338l2.9-.01,5.806-.005h1.64l1.4-34.742-1.612-.005a3.131,3.131,0,0,1-3.266-3.095l.116-.006h-.116a3.118,3.118,0,0,1,3.266-3.1l1.865-.011,1.711-42.578A17.5,17.5,0,0,1,651.4,542.552h25.563A17.518,17.518,0,0,1,694.3,559.185l1.74,42.588,2.579.011a3.118,3.118,0,0,1,3.262,3.09l-.077.005h.077a3.127,3.127,0,0,1-3.262,3.1l-2.334.005,1.422,34.742h1.065l5.8.005,2.911.01a2.909,2.909,0,0,1,1.416.354c.058.031.074.095.121.131a1.13,1.13,0,0,1,.272.3,1.5,1.5,0,0,1,.163.39q.04.226.093.449l-.037.005h.06a1.456,1.456,0,0,1-.656,1.3,2.923,2.923,0,0,1-1.432.359l-2.908.011-2.173.005V662.1a3.3,3.3,0,1,1-.43,6.571l-3.208,0,1.423,34.926h.849a3.535,3.535,0,0,1,2.568.7,3.1,3.1,0,0,1,1.134,2.394h-.068v.005h.068a3.12,3.12,0,0,1-1.136,2.4,3.575,3.575,0,0,1-2.566.7h-.593l1.411,34.552,22.913-.043,20.055.037.427-26.52.981-61.066.38-23.6.733-37.457,29.868.1.712,37.352.385,23.567L779.3,717.8l.432,26.6,13.946.022L794.1,717.9l.986-61.187.375-23.541.738-37.489,29.486.095.86,61.03.187,13.389.562,47.7.725,61,.269,22.689c3.256.353,6.539.707,9.911.986,3.67.3,7.351.641,11.051.979v-134.2H892.1l1.632-33.882,2.125-35.844.2.016v-.1l13.861-.095,13.854.095v.09h.037l.213.01,1.216-20.956.2.015v-.147l27.717-.074h.206l.013.206L955.9,625l2.273,44.345h35.8V814.419c1.505.158,2.985.335,4.522.467,6.576.559,15.372-.261,22.072.311,6.581.564,10.067,3.665,16.769,4.245,2.771.24,5.714.287,8.68.319l4.024-93.295.939-20.055c-2.358-.026-4.715-.047-7.069-.11l-11.91-.362-5.958-.316-1.49-.079a2.321,2.321,0,0,1-1.519-.659,2.244,2.244,0,0,1-.664-1.459c0-.516.047-1,.068-1.5h-.029a2.133,2.133,0,0,1,1.574-2.033h-.759V673.966h.946c-.121-.021-.242-.023-.363-.047a1.94,1.94,0,0,1-1.2-.849,3.345,3.345,0,0,1-.148-1.463h-.024c.069-1.111,1.308-1.583,2.226-1.535l2.871-.005,5.748-.011,11.491-.021,7.921-.011.809-17.175-3.2-.2-1.484-.156a2.485,2.485,0,0,1-1.569-.819,2.363,2.363,0,0,1-.6-1.572c.048-.514.124-.978.188-1.466h-.027a2.143,2.143,0,0,1,1.516-2.036h-.356V635.16h.559a3.263,3.263,0,0,1-.443-.077,1.816,1.816,0,0,1-1.107-.875,3.77,3.77,0,0,1-.119-1.408h-.023c.055-1.041,1.173-1.527,2.043-1.535l2.7-.01,2.94-.013,1.69-36.013-5.88-.039-1.883-.013a5.978,5.978,0,0,1-1.988-.18,2.363,2.363,0,0,1-1.394-1.579,10.668,10.668,0,0,1-.072-1.957l.05-7.538.029-3.765a2.784,2.784,0,0,1,.464-1.922,2.263,2.263,0,0,1,1.788-.889l.008.206V577.4l4.3-.021c.662-2.481,1.466-4.912,2.191-7.372q.725-2.128,1.44-4.259h24.73l1.426,4.29,2.2,7.238,1.384.008,1.88.013a5.788,5.788,0,0,1,1.959.169,2.27,2.27,0,0,1,1.348,1.521,10.226,10.226,0,0,1,.074,1.941l-.037,7.53-.021,3.768a2.736,2.736,0,0,1-.451,1.891,2.187,2.187,0,0,1-1.746.867l-.008-.124v.177l-8.933.06,1.682,36.145,3.18.013,2.695.01c.872.008,2,.5,2.046,1.53l-.055.005h.031a3.8,3.8,0,0,1-.116,1.408,1.834,1.834,0,0,1-1.107.875,3.339,3.339,0,0,1-.441.077h.6v7.963h1.651c2.038,0,3.76,2.2,3.926,5.017l1.284,21.9,7.789.016,5.748.011,2.871.005c.915-.048,2.157.424,2.223,1.527h-.058v.006h.034a3.357,3.357,0,0,1-.145,1.463,1.935,1.935,0,0,1-1.2.849c-.122.024-.24.026-.359.047h.944v25.927h-.759a2.137,2.137,0,0,1,1.571,2.025l-.084.006h.055c.024.5.069.976.069,1.509a2.24,2.24,0,0,1-.665,1.45,2.283,2.283,0,0,1-1.516.653l-1.487.079-5.964.314-7.067.219V818.909c1.835-.007,3.631.035,5.34.182,6.581.575,10.924,3.8,17.608,4.385,6.589.578,13.784.522,20.458,1.113,6.587.572,12.129,2.4,18.813,2.979,6.581.581,15.08-.922,21.75-.334,6.592.58,14.593-.333,21.26.253,6.576.58,12.308,2.188,18.981,2.774,6.582.585,12.135,2.351,18.8,2.947,6.589.583,11.7,2.8,18.362,3.4,6.592.586,15.156-.912,21.817-.318,6.587.587,10.916,3.622,17.581,4.221,6.584.588,12.076,2.362,18.745,2.964,6.577.59,17.151-2.959,23.81-2.358,6.586.586,13.368,1.026,20.026,1.627,5.184.472,7.165,4.277,11.011,6.178q12.409,1.063,24.764,2.128c6.683.279,17.9-4.027,24.354-3.439,6.58.6,10.091,4.351,16.735,4.957,6.584.6,14.589-.176,21.242.436,6.578.6,12.8,1.611,19.441,2.222l26.18,5.311c165.541,14.8,314.993,29.3,414.292,39.166V964.45l-1009.4-4.057,60.631,83.31L432.8,1059.58V929.5h-1.054l-20.277-.015c-3.391-.027-6.739.042-10.162-.053a2.116,2.116,0,0,1-1.634-1.888v-2.537a15.529,15.529,0,0,1,.092-2.556Zm644.211-248.413-11.38-.008-5.856-.008c-.293-.013-.583-.008-.873-.006v11.591h18.109Zm0,14.211h-18.109v11.528c.425,0,.854.005,1.284,0l5.8-.016,11.026-.023Zm41.26,39.443V706.4c-.327,0-.66.01-.989.015l.936,20.058Zm-1.96-42.085h5.43V674.04l-5.967.008Zm.124,2.642.533,11.473,4.773.011V688.249Zm4.48,18.107v11.886h5.912V706.229l-2.207.072c-1.235.031-2.475.036-3.705.055Zm0,14.531v13.268h5.912V720.887Zm0,15.912v15.328h5.912V736.8Zm0,17.964v13.614h5.912V754.763Zm0,16.258v14.985h5.912V771.021Zm.011,17.63.6,13.958h5.3V788.651ZM644.759,744.462l42.113-.074L665.051,728.33,644.6,744.462Zm-135.913-108.1a2.9,2.9,0,0,1-1.624-.581,3.079,3.079,0,0,1-1.237-2.462h-.026a3.107,3.107,0,0,1,1.247-2.479,2.847,2.847,0,0,1,1.5-.575l-.087-17.776-.005-4.477c.005-.312.026-.618.053-.929l-11.8.021-25.191-.037-6.3-.01-3.146-.005-1.577-.006a3.751,3.751,0,0,0-1.513.159,1.926,1.926,0,0,0-1.013,1.055,4.352,4.352,0,0,0-.126,1.529l-.011,3.148-.005,5.3h1.92a.993.993,0,0,1,.994.991v5.184l1.635.006a10.478,10.478,0,0,1,4.788.7,8.266,8.266,0,0,1,4.917,7.863l-.007,4.761-.022,6.234,4.747.01,1.922.006a7.548,7.548,0,0,1,1.943.137,3.1,3.1,0,0,1,0,5.943,7.456,7.456,0,0,1-1.943.137h-1.922l-4.762.016-.021,6.307a6.062,6.062,0,0,1,1.914-.327,6.3,6.3,0,0,1,5.632,3.591,6.923,6.923,0,0,1,.6,3.4l-.024,3.091a18.179,18.179,0,0,1,11.989,15.82c.079,8.838-.029,17.619-.037,26.43,1.406,0,2.816.011,4.246.122a27.93,27.93,0,0,1,7.335,1.645,27.63,27.63,0,0,1,5.02,2.463l-.2-37.969Zm120.224,9.687h-.87V662.1l1.732-.005.646-16.042Zm10.492,136.086a17.954,17.954,0,0,1,1.843.005c1.046.082,2.091.2,3.135.3l.018-8.733-.026-15.435-.243.306-3.662-2.948Zm1.141-28.36,3.826,3.079-.008-3.217-3.818.027Zm.253-6.344,3.555.031-.006-2.747v-.179l-3.543,2.795Zm.085-2.068,22.763-17.95-21.413-15.752ZM642.8,701.52l20.211-15.941-18.972-14.956Zm2.331-55.439h-.1l-.644,15.983h.744Zm.126-5.691,17.809-15.683L646.478,610.1Zm34.6-80.6A3.014,3.014,0,0,0,676.951,557H651.4a3.012,3.012,0,0,0-2.9,2.784l-1.682,41.961,17.74-.042,17.02.042Zm1.967,48.236-17.276.042-17.993-.042-.005.153,17.65,15.532,17.637-15.536Zm.084,2.072L665.33,624.707,683.149,640.4Zm1.324,32.364L664.2,625.7l-19.02,16.752-.013.259,18.752-.021,19.328.021Zm-36.614,3.628v15.973l7.6-.016V646.091Zm9.092.01v15.942l7.467-.016V646.107Zm8.959.011v15.91l7.594.021V646.1Zm9.087-.016v15.952l7.717.016V646.086Zm9.621-.01h-.409v15.983h1.063Zm.925,22.633-19.8.042-20.388-.047v.068l20.1,15.847,20.094-15.847Zm.077,1.909-18.961,14.956,20.218,15.941Zm1.336,32.864-21.5-16.959L642.72,703.486l-.005.089,21.149-.052,21.236.052h.625Zm.262,6.355-.881.005-21.236.047-21.234-.047h-.168v.011l22.554,16.6,20.967-16.543Zm.079,1.919-19.8,15.61,21.068,15.5ZM700.9,662.1V646.049h-2.138l-.931.005.657,16.042Zm345.719,37.632,4.68-.011.538-11.473h-5.218Zm0-25.693v11.567h5.342l.54-11.559ZM1050,646.476c.414,0,.822.008,1.247,0l2.55-.011.216-4.566H1050Zm.9-11.248c-.3-.019-.6-.014-.9-.005v4.643h4.108l.213-4.633Zm34.641,0c-.313-.011-.625-.016-.936,0l-3.675.008.213,4.63h4.4Zm0,6.674h-4.3l.214,4.561,2.8.016c.432.008.862,0,1.289,0Zm5.58,6.362c-.106-1.772-1.084-3.1-1.9-3.1h-1.651V646.6h-.4a2.139,2.139,0,0,1,1.516,2.028h-.081v.005h.055c.063.5.145.944.187,1.474a2.39,2.39,0,0,1-.6,1.564,2.5,2.5,0,0,1-1.569.819l-1.484.148-3.454.219.8,17.162,8.185.011,1.658.005Zm18.515,25.755c-.288,0-.583-.007-.87.006l-5.862.008-11.551.008V685.61h18.283Zm-7.082,25.745,5.8.016c.432.005.859,0,1.284,0V688.249h-18.283v11.489Zm-8.762,105.488h-5.181l.6,13.811c1.535-.043,3.051-.061,4.583-.1ZM413.213,920.863l12.914-.015-.179-33.386H413.213Zm0-35.4h12.722v-.617l.166-30.417H413.213Zm0-33.028h12.893l.026-3.718a4.089,4.089,0,0,1-3.889-4.076l.082-.005h-.132a4.14,4.14,0,0,1,3.933-4.134l-.183-19.1h-12.73Zm0-33.027h12.73l.184-19.153a4.081,4.081,0,0,1-3.884-4.082H422.2a4.141,4.141,0,0,1,3.939-4.135l-.007-3.665H413.213Zm0-33.028h12.909l-.042-23.967-.011-7.072H413.213Zm0-33.032h12.851l-.011-5.828-.01-7.446a48.948,48.948,0,0,1,.3-7.467,28.427,28.427,0,0,1,3.992-10.8H417.2a4,4,0,0,0-3.986,3.987Z" transform="translate(-399.665 -542.552)" fill="#9f691d"/>
      </g>
    </g>
  </g>
</svg>
