<svg xmlns="http://www.w3.org/2000/svg" xmlns:xlink="http://www.w3.org/1999/xlink" width="1920" height="388" viewBox="0 0 1920 388">
  <defs>
    <clipPath id="clip-path">
      <rect id="Rectangle_10673" data-name="Rectangle 10673" width="1920" height="388" transform="translate(0 4595)" fill="#fff" stroke="#707070" stroke-width="1"/>
    </clipPath>
  </defs>
  <g id="Mask_Group_1" data-name="Mask Group 1" transform="translate(0 -4595)" clip-path="url(#clip-path)">
    <g id="Group_6048" data-name="Group 6048">
      <g id="Group_5915" data-name="Group 5915" transform="matrix(0.974, -0.225, 0.225, 0.974, 606.051, 464.111)">
        <circle id="Ellipse_245" data-name="Ellipse 245" cx="153.286" cy="153.286" r="153.286" transform="translate(-107 4309.628)" fill="#6ba769"/>
        <circle id="Ellipse_246" data-name="Ellipse 246" cx="117.373" cy="117.373" r="117.373" transform="translate(96.213 4307)" fill="#6ba769"/>
        <circle id="Ellipse_247" data-name="Ellipse 247" cx="117.373" cy="117.373" r="117.373" transform="translate(238.988 4359.555)" fill="#6ba769"/>
      </g>
      <g id="Group_5916" data-name="Group 5916" transform="matrix(0.974, -0.225, 0.225, 0.974, -1016.949, 464.111)">
        <circle id="Ellipse_245-2" data-name="Ellipse 245" cx="153.286" cy="153.286" r="153.286" transform="translate(-107 4309.628)" fill="#6ba769"/>
        <circle id="Ellipse_246-2" data-name="Ellipse 246" cx="117.373" cy="117.373" r="117.373" transform="translate(96.213 4307)" fill="#6ba769"/>
        <circle id="Ellipse_247-2" data-name="Ellipse 247" cx="117.373" cy="117.373" r="117.373" transform="translate(238.988 4359.555)" fill="#6ba769"/>
      </g>
      <g id="Group_5913" data-name="Group 5913" transform="translate(282.907 379.692) rotate(-3)">
        <circle id="Ellipse_245-3" data-name="Ellipse 245" cx="167.086" cy="167.086" r="167.086" transform="translate(-107 4309.864)" fill="#277424"/>
        <circle id="Ellipse_246-3" data-name="Ellipse 246" cx="127.94" cy="127.94" r="127.94" transform="translate(114.509 4307)" fill="#277424"/>
        <circle id="Ellipse_247-3" data-name="Ellipse 247" cx="127.94" cy="127.94" r="127.94" transform="translate(270.137 4364.287)" fill="#277424"/>
      </g>
      <g id="Group_5908" data-name="Group 5908" transform="translate(0 370)">
        <circle id="Ellipse_245-4" data-name="Ellipse 245" cx="175" cy="175" r="175" transform="translate(-107 4310)" fill="#186515"/>
        <circle id="Ellipse_246-4" data-name="Ellipse 246" cx="181" cy="181" r="181" transform="translate(77 4307)" fill="#186515"/>
        <circle id="Ellipse_247-4" data-name="Ellipse 247" cx="134" cy="134" r="134" transform="translate(288 4367)" fill="#186515"/>
      </g>
      <g id="Group_5914" data-name="Group 5914" transform="matrix(0.974, -0.225, 0.225, 0.974, 95.051, 512.111)">
        <circle id="Ellipse_245-5" data-name="Ellipse 245" cx="153.286" cy="153.286" r="153.286" transform="translate(-107 4309.628)" fill="#277424"/>
        <circle id="Ellipse_246-5" data-name="Ellipse 246" cx="117.373" cy="117.373" r="117.373" transform="translate(96.213 4307)" fill="#277424"/>
        <circle id="Ellipse_247-5" data-name="Ellipse 247" cx="117.373" cy="117.373" r="117.373" transform="translate(238.988 4359.555)" fill="#277424"/>
      </g>
      <g id="Group_5909" data-name="Group 5909" transform="translate(384.041 4768.675) rotate(-3)">
        <ellipse id="Ellipse_245-6" data-name="Ellipse 245" cx="117.682" cy="117.682" rx="117.682" ry="117.682" transform="translate(0 2.017)" fill="#186515"/>
        <ellipse id="Ellipse_246-6" data-name="Ellipse 246" cx="90.111" cy="90.111" rx="90.111" ry="90.111" transform="translate(156.013 0)" fill="#186515"/>
        <ellipse id="Ellipse_247-6" data-name="Ellipse 247" cx="138.111" cy="138.111" rx="138.111" ry="138.111" transform="translate(169.625 40.348)" fill="#186515"/>
      </g>
      <g id="Group_5910" data-name="Group 5910" transform="translate(755.224 4737.378) rotate(-3)">
        <ellipse id="Ellipse_245-7" data-name="Ellipse 245" cx="172.074" cy="172.074" rx="172.074" ry="172.074" transform="translate(0 2.95)" fill="#186515"/>
        <ellipse id="Ellipse_246-7" data-name="Ellipse 246" cx="131.759" cy="131.759" rx="131.759" ry="131.759" transform="translate(228.121 0)" fill="#186515"/>
        <ellipse id="Ellipse_247-7" data-name="Ellipse 247" cx="131.759" cy="131.759" rx="131.759" ry="131.759" transform="translate(388.395 58.997)" fill="#186515"/>
      </g>
      <g id="Group_5911" data-name="Group 5911" transform="matrix(0.974, -0.225, 0.225, 0.974, 365.962, 561.323)">
        <circle id="Ellipse_245-8" data-name="Ellipse 245" cx="168.158" cy="168.158" r="168.158" transform="translate(-107 4309.883)" fill="#186515"/>
        <circle id="Ellipse_246-8" data-name="Ellipse 246" cx="128.761" cy="128.761" r="128.761" transform="translate(115.93 4307)" fill="#186515"/>
        <circle id="Ellipse_247-8" data-name="Ellipse 247" cx="128.761" cy="128.761" r="128.761" transform="translate(272.557 4364.654)" fill="#186515"/>
      </g>
      <g id="Group_5912" data-name="Group 5912" transform="matrix(0.974, -0.225, 0.225, 0.974, 627.962, 548.323)">
        <circle id="Ellipse_245-9" data-name="Ellipse 245" cx="168.158" cy="168.158" r="168.158" transform="translate(-107 4309.883)" fill="#186515"/>
        <circle id="Ellipse_246-9" data-name="Ellipse 246" cx="159.761" cy="159.761" r="159.761" transform="translate(84.93 4307)" fill="#186515"/>
        <circle id="Ellipse_247-9" data-name="Ellipse 247" cx="128.761" cy="128.761" r="128.761" transform="translate(272.557 4364.654)" fill="#186515"/>
      </g>
      <g id="Group_5919" data-name="Group 5919" transform="translate(-38.112 4007.782)" opacity="0.85">
        <g id="Group_5917" data-name="Group 5917">
          <path id="Path_12012" data-name="Path 12012" d="M1350.823,906.549c8.968-7.606,2.442-24-9.393-22.174,1.569-5.362-.79-15.993-8.542-9.738-8.095,6.557-6.682,15.244-12.158,22.581a2.088,2.088,0,0,0-.53-1.029c11.254-1.559-18.029-27.09-21.094-28.607-7.534-3.824-8,5.673-5.954,10.007,3.325,7.159,9.934,16.4,18.351,17.447-7.128,5.6-22.019-6.069-29.044,6.349-9.851,17.446,21.582,16.127,29.345,10.723.593,10.329,11.493,46.449,23.422,23.277,6-11.659,12.958,3.481,22.278-5.206,6.433-6.027-2.109-19.338-6.681-23.63C1354.668,903.308,1355.718,911.132,1350.823,906.549Z" fill="#346028"/>
          <path id="Path_12013" data-name="Path 12013" d="M1303.065,919.081c-4.894,5.685-18.258,1.694-26.7,9.237-7.762,6.9-18.174,22.062-.041,23.111,12.906.769,23.765-9.726,31.631-18.818,5.964-6.838,2.837-22.518-4.894-13.53C1302.109,920.213,1308.385,912.9,1303.065,919.081Zm-11.243,11.888a34.6,34.6,0,0,1-7.254,4.935A21.13,21.13,0,0,1,1291.822,930.969Z" fill="#346028"/>
          <path id="Path_12014" data-name="Path 12014" d="M1264.067,932.465c-5.321-7.658-37.554-1.891-29.74,9.56,4.562,6.578,18.091,4.271,24.128,2.162,1.787-.614,16.054-9.238,5.612-11.722C1263.692,931.872,1267.652,933.307,1264.067,932.465Z" fill="#346028"/>
          <path id="Path_12015" data-name="Path 12015" d="M1273.855,902.476c-8.063-1.226-16.563-1.486-24.45,1.018-9.384,2.982-1.611,11.586,3.283,13.509,13.291,5.133,24.035-14.07,21.167-14.527C1265.9,901.25,1276.619,902.913,1273.855,902.476Z" fill="#346028"/>
          <path id="Path_12016" data-name="Path 12016" d="M1436.53,898.3c-3.148-7.711-9.871-13.2-17.228-16.5a28,28,0,0,0,8.905-28.826c-3.617-13.259-22.6,1.579-26.466,6.869-2.692-4.687-14.07-27.246-20.908-14.714-6.847,12.594,11.118,23.359,13.675,32.4-10.391-2.889-22.393,2.276-29.948,9.5-12.448,11.908,17.457,13.82,22.5,12.843-7.181,27.995,16.822,22.352,21.353-.1a47.024,47.024,0,0,0,10.911,4.656,5.269,5.269,0,0,0-1.226,3.781c-4.1-5.091-11.7,14.537,1.933,20.025,10.557,4.239,10.215-17.354,7.814-22.332,3.969.375,11.129-1.537,8.687-7.595C1433.465,890.734,1438.026,902.019,1436.53,898.3Z" fill="#346028"/>
          <path id="Path_12017" data-name="Path 12017" d="M1376.967,859.176c-6.9-1.9-9.446-8.6-17.914-8.376-6.817.177-5.965,9.259-3.377,13.186C1366.067,879.9,1382.776,860.755,1376.967,859.176Z" fill="#929d27"/>
          <path id="Path_12018" data-name="Path 12018" d="M1377.518,902.476c-3.907,2.816-24.024,16.377-11.419,21.5,15.316,6.287,20.854-28.159,11.419-21.5C1376.125,903.5,1381.384,899.764,1377.518,902.476Z" fill="#346028"/>
          <path id="Path_12019" data-name="Path 12019" d="M1452.8,860.828c-8.656-.353-30.81,17.446-17.1,24.544,17.187,8.926,30.113-23.994,17.1-24.544C1448.532,860.641,1455.847,860.953,1452.8,860.828Z" fill="#929d27"/>
          <path id="Path_12020" data-name="Path 12020" d="M1615.249,856.048c1.206-5.549-5.268-8.49-8.666-10.9-1.735-7.429-7.482-12.427-14.08-15.441-18.673-8.562-10.35,11.919-2.349,19.006-9.955,5.039-17.582,24.013-1.454,25.406,7.512.644,33.106-4.614,26.549-18.07C1615.748,853.709,1616.08,857.762,1615.249,856.048Z" fill="#346028"/>
          <path id="Path_12021" data-name="Path 12021" d="M1603.392,890.672c-.9-9.1-12.655-6.017-18.246-4.832-11.929,2.587-6.162-2.224-12.428-10.361a9.549,9.549,0,0,0-8.947-4.167,7.6,7.6,0,0,0-3.648-6.577c-10.152-4.561-14.36,17.665-12.864,23.463-3.792,1-24.834-5.674-20.242,7.035,3.7,10.214,22.144,6.848,27.88,1.091,8.054,5.113,13.789,1.216,21.333,4.718,7.451,3.47,28.472,2.608,27.162-10.37C1603.05,887.347,1604.183,898.485,1603.392,890.672Z" fill="#346028"/>
          <path id="Path_12022" data-name="Path 12022" d="M1638.91,871.1c-2.7-16.626-20.159-11.722-23.495,2.006-5.1,20.813,27.132,20.263,23.495-2.006C1638.64,869.391,1639.409,874.035,1638.91,871.1Z" fill="#346028"/>
          <path id="Path_12023" data-name="Path 12023" d="M1644.927,820c-2.7-11.608-35.622,14.038-23.734,34.249,4.405,7.481,15.951-3.7,18.506-7.4A34.341,34.341,0,0,0,1644.927,820C1644.22,816.988,1647.971,833,1644.927,820Z" fill="#346028"/>
          <path id="Path_12024" data-name="Path 12024" d="M1609.035,814.493c-5.392-4.031-8.3,4.573-8.645,7.835-.873,8.178,3.709,15.857,9.559,20.98,2.619,2.307,10.516-20.243-.914-28.815Z" fill="#346028"/>
          <path id="Path_12025" data-name="Path 12025" d="M1674.593,850.436c-8.271-7.274-47.238-9.206-35.579,9.352,12.043,19.2,44.734-1.35,35.579-9.352C1666.052,842.934,1676.475,852.068,1674.593,850.436Z" fill="#929d27"/>
          <path id="Path_12026" data-name="Path 12026" d="M1681.7,801.743c-1.465-14.817-24.762,14.444-22.8,26.466,1.32,7.981,7.648,6.651,12.48,2.433,7.627-6.672,11.284-18.975,10.318-28.9C1681.348,798.21,1682.366,808.622,1681.7,801.743Z" fill="#346028"/>
          <path id="Path_12027" data-name="Path 12027" d="M1852.1,807.053c-1.672-5.559-17.031-2.692-21.822-1.933-8.438,1.351-20.886,10.724-18.381,21.011,3.958,16.242,44.889-3.232,40.2-19.078C1851.452,804.913,1854.352,814.629,1852.1,807.053Z" fill="#929d27"/>
          <path id="Path_12028" data-name="Path 12028" d="M1670.645,881.859c1.382-6.556-28.94,4.385-18.31,18.965,7.908,10.868,28.4-13.9,18.31-18.965C1671.071,879.9,1672.848,882.971,1670.645,881.859Z" fill="#346028"/>
          <path id="Path_12029" data-name="Path 12029" d="M1715.93,878.628c-5.092-5.164-18.216,8.625-18.933,13.062-2.93,18.091,28.5-3.3,18.933-13.062C1712.532,875.178,1719.3,882.088,1715.93,878.628Z" fill="#346028"/>
          <path id="Path_12030" data-name="Path 12030" d="M1889.839,720.39c-3.971-12.833-35.051,16.377-22.2,32.358,12.677,15.733,26.176-19.535,22.2-32.358C1888.643,716.5,1892.872,730.179,1889.839,720.39Z" fill="#929d27"/>
          <path id="Path_12031" data-name="Path 12031" d="M1966.338,804.84c9.248-13.156-6.193-33.5-20.7-24.732-2.442-9.923-9.487-14.2-19.275-11.306-10.174,3.014-1.321,23.589,2.8,28.473a33.183,33.183,0,0,0-9.226.811c.4-8.48-3.211-18.5-12.761-19.308,8.012-12.25,1.309-21.3-12.345-17.165-6.3,1.921-12.469,6.306-14.641,12.915a8.809,8.809,0,0,0-5.393,4.874,38.134,38.134,0,0,0-11.285-4.1c12.875-9.477,2.847-27.963-10.661-32.546-13.333-4.531-6.515,27.818,3.574,31.985-4.728.124-13.135,1.049-15.638,6.088a26.667,26.667,0,0,0-9.529-8.863c10.609-4.292,20.169-36.9,5.205-32.027,4.9-10.12-5.767-28.564-12.614-12.4-6.162,14.527-2.92,12.532,6.338,15.359-4.956,2.889-9.768,6.692-13.01,11.555-.488-7.3-7.918-28.348-19.057-22.145-10.017,5.571-4.583,25.48,4.114,29.429-6.827-.063-26.819,9.394-16.521,18.6,6.92,6.225,28.461-1.8,29.615-11.409,1.257,2.68,4.8,1.911,7.066,3.034-9.8,4.406-7.98,15.2-1.371,21.717-2.557-1.2-7.223-.674-8.8,2.037-7.617-5.268-25.418-5.964-27.672,6.235-3.658,19.806,51.676,13.207,39.32-5.8,6.942,5.425,32.4,12.149,24.316-2.971a48.017,48.017,0,0,0,25.147,2.826c-1.351,3.731-13.249,7.763-16.616,12.4-5.694,7.773-1,16.927-5.019,22.185-2.868-5.372-11.015-.612-13.747,1.964a48.641,48.641,0,0,0-7.191,8.968c-3.253-1.278-5.528.654-6.993,3.4-8.729-29.657-31.185-10.943-22.862,13.1-7.917-2.723-10.006-.177-12.115-8.292-1.445-5.684-5.279-8.947-10.152-11.576,12.167-4.291,22.954-15.8,6.587-24.471-8.364-4.4,1.435-23.256-17.977-15.452,1.133-2.785,20.793-34.894,3.294-33.605-19.567,1.465-18.018,22.226-19.556,36.743-4.935-5.06-5.715-10.391-2.6-15.327,2.183-3.429-5.6-16.189-7.378-19.2-1.694-2.795-12.136-14.319-13.633-3.772-.779,5.684-.468,11.565,2.515,16.646,2.255,3.814-3.606,4.4-4.562,9.1-6.816-6.515-34.924-6.2-24.139,5.29a26.92,26.92,0,0,0,15.525,8.053c9.633,1.444,9.611-.561,17.426,4.842-7.658.925-15.348,3.211-21.51,8.116-7.264,5.819-2.556,13.218-8.76,14.506,10.495-8.719-10.017-17.229-17.2-13.529-14.216,7.3-7.025,20.2,6.962,17.374-22.071,12.583-5.653,26.591,13.737,18.091-5.351,3.45-35.829,20.47-22.123,28.825,6.485,3.991,15.41-4.728,19.723-8.542,7.128-6.265,9.975-10.111,17.519-12.344-14.059,21.2,5.861,28.056,17.032,8.8.395,5.612,3.824,21.915,9.975,24.772,11.306,5.228,16.886-17.062,16.6-24.345A23.272,23.272,0,0,0,1781.1,866.8c1.319,7.149,7.087,11.16,13.976,11.41-21.6,27.8,16.834,32.295,26.882,8.343,11.794,29.917,45.493,6.454,21.6-11.742a26.714,26.714,0,0,0,7.908-13.861c.5,2.992,3.574,3.522,6.005,3.3,3.357,6.995,10.143,12.086,17.884,12.46-6.079,3.762-17.8,18.278-11.857,26.165,7.773,10.35,22.476-6.11,25.771-12.958,4.136-8.646-6.089-14.1-3.243-15.659,8.085-4.427,19.63-4.2,27.454-13.769-.946,6.879-1.454,19.713,4.791,24.534,3.626,2.785,6.65,4.291,5.2,7.18-9.821,19.453,32.057,20.4,16.1-6.338,12.958-1.455,9.788-13.4,18.351-15.722,12.188-3.232,4.509-28.784,1.319-36.173,13.249-1.61,17.6-21.353,7.1-29.136C1970.256,799.239,1971.264,808.5,1966.338,804.84Zm-152.221-40.4c-1.143-.966-4.135-1.653-5.9-2.026,2.057-.7,4.385.031,6.141-1.393-.083,1.132-.146,2.3-.239,3.419C1814.1,764.417,1814.024,763.3,1814.117,764.439Zm-66.058,59.7a7.492,7.492,0,0,0-3.678,2.651c-2.68-1.622-1.382-3.576,3.835-5.82-.052,1.049-.094,2.12-.157,3.169C1746.7,824.51,1748.05,823.065,1748.059,824.136Zm2.193-10.225c-.509-6.827-2.036,1.559,1.435-5.444,2.067,1.558,1.579,3.366-1.435,5.444C1750.231,813.839,1750.938,812.405,1750.252,813.911Zm102.074,43.644c-1.081,1.392-2.13-4.178-5.8-4.531.935-.924,8.23,3.876,4.666,2.275,2.317.1,2.7.852,1.133,2.256C1852.1,857.867,1852.544,857.014,1852.326,857.555Zm33.293-49.754c-.582-.675.8,19.13,1.081,22.57-5.061.062-13.228-5.134-17.1,1.392-.946-8.323,12.23-15.233,16.023-23.962C1885.931,808.155,1882.138,815.761,1885.619,807.8Zm.187,51.375c-4.717-6.516-12.77-8.958-20.419-7.929a21.812,21.812,0,0,0,4.4-12.719c2.234,3.211,6.131,4.749,9.861,4.968A42.877,42.877,0,0,0,1889.9,842.3a7.349,7.349,0,0,0,5.612,4.187,35.532,35.532,0,0,0-9.706,12.688C1881.089,852.66,1888.186,853.99,1885.806,859.176ZM1902.952,820c-.811-1.434-1.6-2.827-2.411-4.282,4.188.551,8.074-2.255,11.389-.124a39.992,39.992,0,0,0-8.978,4.406C1902.224,818.545,1905.695,818.172,1902.952,820Z" fill="#346028"/>
          <path id="Path_12032" data-name="Path 12032" d="M1912.792,874.888c-6.806-9.81-20.9,27.193-15.7,35.683,9.924,16.251,23.36-24.669,15.7-35.683C1910.569,871.7,1916.024,879.5,1912.792,874.888Z" fill="#569432"/>
        </g>
        <g id="Group_5918" data-name="Group 5918">
          <path id="Path_12033" data-name="Path 12033" d="M1332.524,899.972c-1.174-11.379-16.636.29-20.273,2.941,5.642-8.719,4.832-30.884-8.469-17.282-8.5,8.709-5.767,17.76-9.123,26.862a2.374,2.374,0,0,1-.541-.031c4.686-7.128-13.955-13.166-18.414-13.426-9.278-.529-.508,20.669,12.263,17.5-7.95,6.64-5.342,6.048-16.159,4.812-7.429-.863-5.341,9.362-2.691,12.5-3.159,0-14.236-.416-16.491,1.5-8.573,7.087,9.788,8.979,13.861,7.129,3.388-.79,5.477-2.661,6.256-5.674a15.649,15.649,0,0,0,9.862,1.413c6.629-1.153,12.6-8.354,15.41-14.308,14.485,23.629,27.661-9.28,6.661-13.478.072-3.1,1.87-4.738,5.5-4.978-3.98,9.291,24.128,12.169,22.351-5.475C1332.182,896.73,1333.023,904.97,1332.524,899.972Z" fill="#569432"/>
          <path id="Path_12034" data-name="Path 12034" d="M1285.992,858.677c-12.532-3.917-4.032,18.642,1.975,22.019,7.107,8.781,15.389-16.595-1.975-22.019C1282.688,857.658,1293.723,861.1,1285.992,858.677Z" fill="#569432"/>
          <path id="Path_12035" data-name="Path 12035" d="M1279.633,891.981c-3.035-3.866-12.98-12.615-19.266-8.594C1243.107,894.485,1286.855,901.187,1279.633,891.981Z" fill="#569432"/>
          <path id="Path_12036" data-name="Path 12036" d="M1348.693,879.761c-1.455-8.043-18.953-1.175-14.766,5.8C1327.858,892.874,1352.029,898.6,1348.693,879.761Z" fill="#569432"/>
          <path id="Path_12037" data-name="Path 12037" d="M1405.117,885.871c-5.465-7.6-11.347-17.3-20.543-18.715-15.14-10.464-31.548,8.676-10.09,11.742-25.095,13.083,1.195,27.8,12.958,8.458-5.591,24.015,30.487,16.44,17.675-1.485C1404.183,884.6,1406.573,887.97,1405.117,885.871Z" fill="#569432"/>
          <path id="Path_12038" data-name="Path 12038" d="M1400.722,846.488c-3.377-23.089-24.586-9.633-16.605,5.2,6.567,12.294,18.714,9.165,16.605-5.2C1400.13,842.519,1401.325,850.6,1400.722,846.488Z" fill="#569432"/>
          <path id="Path_12039" data-name="Path 12039" d="M1377.071,855.216c5.674-3.917-13.01-17.529-18.122-9.31-7.253,9.04,12.73,12.958,18.122,9.31C1379.264,853.689,1376.781,855.4,1377.071,855.216Z" fill="#569432"/>
          <path id="Path_12040" data-name="Path 12040" d="M1362.17,910.405c-2.006-7.025-26.414-22.611-27.245-9.02-.78,13,30.893,21.593,27.245,9.02C1360.445,904.357,1363.531,915.018,1362.17,910.405Z" fill="#569432"/>
          <path id="Path_12041" data-name="Path 12041" d="M1350.034,924.131c-1.143-6.349-14.361-15.764-16.689-6.349-4.614,18.746,20.066,24.7,16.689,6.349C1349.545,921.482,1350.668,927.592,1350.034,924.131Z" fill="#569432"/>
          <path id="Path_12042" data-name="Path 12042" d="M1438.192,882.275a20.716,20.716,0,0,0-20.013-13.124c20.242-28.971-31.454-7.066-20.014,3.792,4.739,4.479,5.436,1.175,7.566,6.745,1.683,4.416,5.569,7.585,9.684,9.487,4.437,2.068,27.578,5.226,22.777-6.9C1435.782,876.135,1439.606,885.86,1438.192,882.275Z" fill="#569432"/>
          <path id="Path_12043" data-name="Path 12043" d="M1444.334,846.2c-2.775,1.444-28.274,19.338-10.579,20.024,15.566.613,19.578-24.753,10.579-20.024C1440.593,848.151,1447.95,844.3,1444.334,846.2Z" fill="#d0c412"/>
          <path id="Path_12044" data-name="Path 12044" d="M1423.24,903.047c-4.666-9.9-18.32-9.311-15.993,3.284,2.963,16.045,23.339,12.386,15.993-3.284C1421.837,900.055,1424.84,906.446,1423.24,903.047Z" fill="#d0c412"/>
          <path id="Path_12045" data-name="Path 12045" d="M1616.392,838.985c6.058-3.149,15.878-17.394,5.237-22.143-8.2-3.679-16.449,11.493-15.535,18.06-5.7-2.577-11.825-11.628-19.3-9.622-11.773,3.158,5.487,21.406,16.106,17.945-2.473,6.265,2.651,15.078,7.908,18.122-5.736,1.185-12.054,6.058-9.227,13.935,4.468,12.512,18.122-4.2,13.519-12.168,17.79,4.583,11.305-18.923,1.288-24.129C1623.084,835.5,1622.762,842.331,1616.392,838.985Z" fill="#569432"/>
          <path id="Path_12046" data-name="Path 12046" d="M1593.2,853.751c-1.049-1.954-12.376-6.609-14.7-8.417-6.007-4.738-15.7-7.149-14.486,4.333,1.954,18.185,34.083,13.3,29.189,4.084C1591.443,850.519,1595.183,857.471,1593.2,853.751Z" fill="#569432"/>
          <path id="Path_12047" data-name="Path 12047" d="M1586.31,869.5c-5.726-.072-13.758.146-18.756,3.284-3.689,2.327-13.011,13.914-2.536,15.649a25.659,25.659,0,0,0,19.391-5.2c2.763-2.13,11.544-13.612,1.9-13.737C1584.418,869.474,1588.918,869.535,1586.31,869.5Z" fill="#569432"/>
          <path id="Path_12048" data-name="Path 12048" d="M1702.609,838.923c-4.729-2.93-13.727-2.889-16.793-6.837,5.342-3.814,17.894-14.143,10.038-21.4-12.5-11.534-27.121,12.375-29.085,22.165-1.07-1.05.966-4.084-.063-6.007-2.244-4.219-5.246-9.424-8.042-13.612-11.3-16.886-22.663,1.652-13.5,14.236-16.014-7.6-22.362,14.215-4.645,10.755-11.264,14.08,12.178,14.152,19.879,9.456-4.012,9.092,6.577,35.018,14.672,20.866,8.583-15.047-9.757-21.885-7.337-29.169,2.556,1.944,4.854.426,6.485-1.632,1.205,7.981,13.03,11.452,19.161,12.086C1698.452,850.364,1713.322,845.574,1702.609,838.923Z" fill="#569432"/>
          <path id="Path_12049" data-name="Path 12049" d="M1652,860.63c-6.723-9.716-17.967,10.765-16.5,17.167,3.055,13.425,25.125-4.666,16.5-17.167C1651.578,860.028,1657.084,868,1652,860.63Z" fill="#569432"/>
          <path id="Path_12050" data-name="Path 12050" d="M1777.674,785.138c5.041-12.917-14.713-4.063-17.685-1.236a18.863,18.863,0,0,0-6.017,10.349c-2.223.416-4.551.706-6.12,2.6-6.193-4.562-7.336-10.952-16.408-12.324-15.8-2.37-2.712,20.1,5.113,22.943-6.256,3.69-29.127,2.235-27.475,16.367,1.839,15.629,26.529,2.671,32.369-2.868-1.954,6.151-6.1,23.453,2.546,26.716,11.722,4.354,18-10.7,15.784-19.816,21.281,11.887,21.157-17.935.489-21.79,8.739-3.752,14.038-12.294,17.4-20.939C1779.338,780.847,1775.232,791.394,1777.674,785.138Zm-30.716,26.072c.157-5.487.011-5.175,4.874-3.949-2.536,1.59-2.068,3.035-4.874,3.949C1746.969,810.918,1747.592,811,1746.958,811.21Z" fill="#569432"/>
          <path id="Path_12051" data-name="Path 12051" d="M1735.84,777.075c-1.943-7.119-23.776-24.264-24.461-9.509-.707,15.6,27.411,20.544,24.461,9.509C1735.591,776.2,1736.546,779.672,1735.84,777.075Z" fill="#569432"/>
          <path id="Path_12052" data-name="Path 12052" d="M1728.514,838.528c-5.82-12.5-21.26,8.511-23.059,15.722-4.021,16.044,31.808,3.19,23.059-15.722C1728.431,838.289,1732.66,847.495,1728.514,838.528Z" fill="#569432"/>
          <path id="Path_12053" data-name="Path 12053" d="M1778.839,847.756c-1.891-4.26-13.28-15.64-16.086-4.988-1.537,5.965,5.383,10.588,5.652,16.574-.778,10.495,17,3.045,10.434-11.586C1776.76,843.069,1780.938,852.359,1778.839,847.756Z" fill="#569432"/>
          <path id="Path_12054" data-name="Path 12054" d="M1748.922,853.149c-10.994-3.066-15.171,19.8-8.76,25.042,10.776,8.812,21.074-21.562,8.76-25.042C1747.717,852.837,1753.1,854.354,1748.922,853.149Z" fill="#569432"/>
          <path id="Path_12055" data-name="Path 12055" d="M1803.425,749.278c-.832-.042-10.267-6.869-11.255-7.44-9.372-5.466-8.894,10.162-5.766,14.485,10.994,15.036,27.754-6.546,17.021-7.045C1803.258,749.278,1806.583,749.423,1803.425,749.278Z" fill="#569432"/>
          <path id="Path_12056" data-name="Path 12056" d="M1832.977,744.643c-.02-11.315-23.869,2.754-16.761,19.026,4.333,9.872,16.772-13.955,16.761-19.026C1832.977,740.238,1832.988,750.753,1832.977,744.643Z" fill="#569432"/>
          <path id="Path_12057" data-name="Path 12057" d="M1818.762,774.425c-2.172-10.464-25.8,4.032-24.067,14.329,2.474,14.6,26.976-.7,24.067-14.329C1818.263,772.034,1821.028,785.034,1818.762,774.425Z" fill="#569432"/>
          <path id="Path_12058" data-name="Path 12058" d="M1840,760.843c-7.482,5.517-26.239,5.061-19.7,21.334,2.7,6.7,21.832,14.308,20.938,2.307-.8-10.538-6.525-5.623,1.569-13.333,3.481-3.315,3.855-15.2-2.805-10.308C1838.869,761.7,1843.077,758.589,1840,760.843Z" fill="#569432"/>
          <path id="Path_12059" data-name="Path 12059" d="M1848.792,798.19c-5.226-9.228-19.036-9.976-24.242-.292-4.063,7.6-12.854,11.846-14.153,23.412-1.434,13.041,18.673,2.889,20.076-6.629,1.662-11.327,4.468-2.339,10.818-11.005,3.417,1.289,10.848.436,7.5-5.486C1843.483,788.775,1850.611,801.494,1848.792,798.19Z" fill="#569432"/>
          <path id="Path_12060" data-name="Path 12060" d="M1838.463,847.495c-4-19.649-33.23-22.766-18.85-.29-2.306-1.33-4.2-.852-5.662,1.393,3.855-12.315-4.323-27.631-11.825-37.035-18.175-22.871-24.67,26.227,2.545,20.762-5.31,5.683-9.85,12.822-10.547,20.844-1.1,13.176,15.577,4.084,18.518-1.5-13.623,36.193,28.233,26.03,15.638,2.743,5,2.172,11.587,0,10.183-6.921C1836.989,840.18,1839.4,852.068,1838.463,847.495Z" fill="#569432"/>
          <path id="Path_12061" data-name="Path 12061" d="M1898.358,735.447c-8.292,1.963-30.819,17.01-11.98,20.907,15.743,3.221,23.255-23.525,11.98-20.907C1890.815,737.224,1902.66,734.46,1898.358,735.447Z" fill="#569432"/>
          <path id="Path_12062" data-name="Path 12062" d="M1872.328,755.253c1.414-7.5,7.389-12.438-.9-22.507-14.766-18.03-23.983,6.234-8.1,16.844-2.66.394-7.522-1.06-9.32-.707-9.207,1.85-4.593,12.573,1.891,14.152-4.572,4.344-9.487,20.95,2.733,17.26,5.757-1.755,26.643-25.6,13.695-25.042C1872.516,754.224,1873.846,755.19,1872.328,755.253Z" fill="#569432"/>
          <path id="Path_12063" data-name="Path 12063" d="M1881.234,761.477c-8.915.28-6.183,29.407,4.261,29.615,13.238.26,9.414-30.061-4.261-29.615C1878.761,761.57,1892.53,761.1,1881.234,761.477Z" fill="#d0c412"/>
          <path id="Path_12064" data-name="Path 12064" d="M1801.6,880.821c-1.85-11.036-10.08-4.012-13.79,3-9.456,17.759,16.865,15.088,13.79-3C1801.481,880.145,1802.811,887.99,1801.6,880.821Z" fill="#d0c412"/>
          <path id="Path_12065" data-name="Path 12065" d="M1848,867.042c-5.133,0-5.133,8.116,0,8.116C1853.177,875.158,1853.177,867.042,1848,867.042Z" fill="#d0c412"/>
          <path id="Path_12066" data-name="Path 12066" d="M1872.64,785.626c-8.292,3.19-15.451,5.279-20.959,13.125-4.738,6.857,4.012,11.347,9.311,10.786,14.984-1.611,15.047-25.2,11.648-23.911C1871.133,786.229,1875.3,784.628,1872.64,785.626Z" fill="#d0c412"/>
          <path id="Path_12067" data-name="Path 12067" d="M1937.305,759.1c-1.09-7.3-11.357-3.262-14.07.042-5,6.037-1.631,11.867.51,18.049,7.845,22.7,15.337-6.452,13.56-18.091C1936.972,756.812,1938.479,766.7,1937.305,759.1Z" fill="#d0c412"/>
          <path id="Path_12068" data-name="Path 12068" d="M1917.426,775.869c-1.921-14.278-18.859,6.578-18.963,14.142-9.778,3.232-8.958,9.56-14.184,14.507-6.193,5.8-20.762,20.283-14.371,30.653,7.69,12.45,20.408-7.117,19.743-15.3,3.917,2.952,1.143,23.61,13.654,19.63,17.021-5.435-.915-25.417-7.44-30.6,15.961-1.954,23.536-17.967,21.561-33.034C1916.866,771.774,1918.486,783.963,1917.426,775.869Z" fill="#569432"/>
          <path id="Path_12069" data-name="Path 12069" d="M1866.988,819.127c-2.983-11.035-26.893,6.589-23.911,16.044,4.77,15.224,26.976-4.6,23.911-16.044C1866.458,817.215,1867.372,820.551,1866.988,819.127Z" fill="#d0c412"/>
          <path id="Path_12070" data-name="Path 12070" d="M1927.278,810.327c-5.685-13.021-22.435-9.291-12.667,3.013-1.008,18.912,21.166,16.428,12.667-3.013C1925.531,806.326,1929.076,814.389,1927.278,810.327Z" fill="#d0c412"/>
          <path id="Path_12071" data-name="Path 12071" d="M1790.2,790.094c-4.551.822-20.959,8.469-16.2,15.639,10.235,15.514,29.833-18.081,16.2-15.639C1787.505,790.572,1794.041,789.4,1790.2,790.094Z" fill="#569432"/>
          <path id="Path_12072" data-name="Path 12072" d="M1885.578,848.971c-4.116-14.069-11.2,12.2-11.015,15.172.259,3.9,3.866,6.629,7.575,5.248,7.8-2.848,5.133-14.715,3.44-20.42C1884.455,845.147,1887.3,854.8,1885.578,848.971Z" fill="#569432"/>
        </g>
      </g>
      <g id="Group_5920" data-name="Group 5920" transform="translate(1148.749 5005.518) rotate(-167)" opacity="0.618">
        <g id="Group_5917-2" data-name="Group 5917" transform="translate(0 0)">
          <path id="Path_12012-2" data-name="Path 12012" d="M7.317,29.653c-7.3,6.187-1.986,19.526,7.641,18.038-1.276,4.362.643,13.01,6.949,7.921,6.585-5.334,5.436-12.4,9.89-18.369a1.7,1.7,0,0,0,.431.837c-9.155,1.268,14.666,22.037,17.159,23.271,6.129,3.111,6.508-4.615,4.843-8.14-2.7-5.824-8.081-13.338-14.928-14.193,5.8-4.556,17.912,4.937,23.626-5.165,8.013-14.192-17.556-13.119-23.871-8.723-.482-8.4-9.349-37.785-19.053-18.935C15.127,15.68,9.464,3.365,1.883,10.431-3.35,15.334,3.6,26.162,7.317,29.653,4.19,32.29,3.335,25.925,7.317,29.653Z" transform="translate(498.154 6.887)" fill="#346028"/>
          <path id="Path_12013-2" data-name="Path 12013" d="M6.516,26.346c3.981-4.625,14.852-1.378,21.716-7.514,6.314-5.614,14.784-17.947.033-18.8C17.767-.593,8.933,7.944,2.535,15.34-2.317,20.9.227,33.658,6.516,26.346,7.293,25.425,2.188,31.376,6.516,26.346Zm9.146-9.67a28.142,28.142,0,0,1,5.9-4.014A17.189,17.189,0,0,1,15.662,16.676Z" transform="translate(537.805 0)" fill="#346028"/>
          <path id="Path_12014-2" data-name="Path 12014" d="M3.081,11.306C7.41,17.536,33.63,12.844,27.274,3.529,23.563-1.822,12.557.055,7.647,1.771c-1.454.5-13.059,7.515-4.565,9.535C3.386,11.789.165,10.621,3.081,11.306Z" transform="translate(572.963 4.153)" fill="#346028"/>
          <path id="Path_12015-2" data-name="Path 12015" d="M.381,12.526c6.559,1,13.473,1.209,19.889-.828C27.9,9.272,21.58,2.273,17.6.709,6.787-3.467-1.952,12.154.381,12.526,6.855,13.523-1.868,12.17.381,12.526Z" transform="translate(567.701 27.328)" fill="#346028"/>
          <path id="Path_12016-2" data-name="Path 12016" d="M.4,24.79c2.561,6.273,8.03,10.736,14.014,13.423A22.776,22.776,0,0,0,7.174,61.662C10.117,72.448,25.56,60.378,28.7,56.074c2.19,3.813,11.445,22.164,17.008,11.969,5.57-10.245-9.044-19-11.124-26.355,8.453,2.35,18.216-1.851,24.362-7.726,10.126-9.687-14.2-11.242-18.3-10.447C46.489.742,26.963,5.332,23.278,23.6A38.252,38.252,0,0,0,14.4,19.811a4.286,4.286,0,0,0,1-3.076C18.738,20.877,24.917,4.91,13.827.446,5.239-3,5.517,14.562,7.47,18.612,4.242,18.307-1.583,19.862.4,24.79,2.9,30.944-.813,21.764.4,24.79Z" transform="translate(435.348 18.462)" fill="#346028"/>
          <path id="Path_12017-2" data-name="Path 12017" d="M.972,9.022c5.612,1.547,7.684,7,14.572,6.814C21.09,15.692,20.4,8.3,18.292,5.11,9.839-7.832-3.753,7.738.972,9.022Z" transform="translate(483.232 66.054)" fill="#929d27"/>
          <path id="Path_12018-2" data-name="Path 12018" d="M3.772,18.115C6.95,15.825,23.314,4.793,13.061.627.6-4.487-3.9,23.533,3.772,18.115,4.9,17.279.627,20.322,3.772,18.115Z" transform="translate(479.984 21.739)" fill="#346028"/>
          <path id="Path_12019-2" data-name="Path 12019" d="M4.315,21.213C11.357,21.5,29.378,7.022,18.229,1.248,4.248-6.013-6.267,20.766,4.315,21.213,7.79,21.365,1.839,21.112,4.315,21.213Z" transform="translate(418.199 52.52)" fill="#929d27"/>
          <path id="Path_12020-2" data-name="Path 12020" d="M.865,14.742c-.981,4.514,4.285,6.906,7.049,8.867C9.326,29.653,14,33.718,19.369,36.17c15.19,6.965,8.419-9.7,1.911-15.461,8.1-4.1,14.3-19.534,1.183-20.667C16.351-.481-4.468,3.8.865,14.742.46,16.645.19,13.348.865,14.742Z" transform="translate(289.505 62.88)" fill="#346028"/>
          <path id="Path_12021-2" data-name="Path 12021" d="M.234,9.856c.734,7.4,10.294,4.895,14.842,3.931,9.7-2.1,5.013,1.809,10.11,8.428a7.768,7.768,0,0,0,7.278,3.39,6.186,6.186,0,0,0,2.967,5.35c8.258,3.71,11.681-14.37,10.464-19.086,3.085-.812,20.2,4.616,16.466-5.723C59.352-2.163,44.348.576,39.682,5.259,33.131,1.1,28.465,4.269,22.329,1.421,16.268-1.4-.832-.7.234,9.856.512,12.561-.41,3.5.234,9.856Z" transform="translate(299.783 39.6)" fill="#346028"/>
          <path id="Path_12022-2" data-name="Path 12022" d="M.234,13.97c2.2,13.525,16.4,9.535,19.112-1.632C23.5-4.593-2.725-4.146.234,13.97.453,15.364-.172,11.586.234,13.97Z" transform="translate(270.89 51.404)" fill="#346028"/>
          <path id="Path_12023-2" data-name="Path 12023" d="M.983,29.913c2.2,9.443,28.977-11.419,19.307-27.86C16.707-4.033,7.315,5.061,5.236,8.07A27.935,27.935,0,0,0,.983,29.913C1.559,32.364-1.493,19.338.983,29.913Z" transform="translate(265.245 77.032)" fill="#346028"/>
          <path id="Path_12024-2" data-name="Path 12024" d="M4.893,23.574c4.386,3.279,6.754-3.72,7.032-6.374C12.635,10.548,8.908,4.3,4.149.134c-2.13-1.877-8.554,16.467.743,23.44Z" transform="translate(290.533 87.851)" fill="#346028"/>
          <path id="Path_12025-2" data-name="Path 12025" d="M1.3,14.084C8.027,20,39.725,21.573,30.241,6.476,20.444-9.145-6.149,7.574,1.3,14.084,8.246,20.186-.232,12.756,1.3,14.084Z" transform="translate(240.798 68.103)" fill="#929d27"/>
          <path id="Path_12026-2" data-name="Path 12026" d="M.188,26.248C1.38,38.3,20.331,14.5,18.733,4.719,17.66-1.774,12.512-.692,8.581,2.739,2.377,8.167-.6,18.175.188,26.248.475,29.122-.353,20.652.188,26.248Z" transform="translate(236.126 95.549)" fill="#346028"/>
          <path id="Path_12027-2" data-name="Path 12027" d="M.711,20.5c1.36,4.522,13.854,2.19,17.751,1.572,6.864-1.1,16.99-8.724,14.952-17.092C30.195-8.234-3.1,7.608.711,20.5,1.235,22.239-1.124,14.335.711,20.5Z" transform="translate(96.993 96.979)" fill="#929d27"/>
          <path id="Path_12028-2" data-name="Path 12028" d="M2.225,17.646C1.1,22.98,25.767,14.079,17.12,2.219,10.687-6.622-5.983,13.53,2.225,17.646,1.879,19.243.433,16.742,2.225,17.646Z" transform="translate(243.083 38.979)" fill="#346028"/>
          <path id="Path_12029-2" data-name="Path 12029" d="M1.48,16.345c4.142,4.2,14.818-7.016,15.4-10.625C19.265-9-6.3,8.408,1.48,16.345,4.245,19.152-1.259,13.531,1.48,16.345Z" transform="translate(206.99 42.908)" fill="#346028"/>
          <path id="Path_12030-2" data-name="Path 12030" d="M.91,29.55C4.14,39.989,29.423,16.228,18.966,3.228,8.654-9.57-2.327,19.119.91,29.55,1.883,32.711-1.557,21.587.91,29.55Z" transform="translate(66.092 158.424)" fill="#929d27"/>
          <path id="Path_12031-2" data-name="Path 12031" d="M4.773,82.632C-2.75,93.334,9.81,109.885,21.61,102.75c1.986,8.072,7.717,11.554,15.68,9.2,8.276-2.452,1.075-19.189-2.281-23.162a27,27,0,0,0,7.505-.66c-.329,6.9,2.612,15.047,10.381,15.706C46.377,113.8,51.83,121.16,62.937,117.8c5.123-1.563,10.143-5.13,11.91-10.506a7.166,7.166,0,0,0,4.387-3.965,31.022,31.022,0,0,0,9.18,3.338c-10.473,7.709-2.316,22.747,8.672,26.475,10.846,3.686,5.3-22.629-2.907-26.019,3.846-.1,10.685-.853,12.721-4.952a21.692,21.692,0,0,0,7.752,7.21c-8.63,3.491-16.407,30.017-4.234,26.053-3.982,8.232,4.691,23.236,10.261,10.084,5.013-11.817,2.375-10.194-5.156-12.494a31.8,31.8,0,0,0,10.583-9.4c.4,5.942,6.441,23.06,15.5,18.014,8.148-4.532,3.728-20.727-3.347-23.939,5.553.051,21.816-7.642,13.439-15.13-5.629-5.064-23.152,1.462-24.091,9.281-1.022-2.18-3.906-1.555-5.748-2.468,7.971-3.584,6.491-12.366,1.115-17.666,2.08.972,5.876.548,7.16-1.657,6.2,4.285,20.677,4.852,22.51-5.072,2.976-16.112-42.037-10.743-31.985,4.717-5.647-4.413-26.357-9.883-19.78,2.417a39.06,39.06,0,0,0-20.456-2.3c1.1-3.035,10.778-6.315,13.516-10.084,4.632-6.323.811-13.769,4.083-18.047,2.333,4.37,8.96.5,11.183-1.6a39.567,39.567,0,0,0,5.85-7.3c2.646,1.04,4.5-.532,5.689-2.764,7.1,24.125,25.368,8.9,18.6-10.659,6.44,2.215,8.14.144,9.855,6.745,1.175,4.624,4.294,7.278,8.258,9.417-9.9,3.491-18.672,12.857-5.358,19.906,6.8,3.576-1.167,18.918,14.624,12.57-.922,2.266-16.914,28.385-2.68,27.336,15.917-1.192,14.657-18.08,15.908-29.889,4.014,4.116,4.649,8.453,2.113,12.468-1.776,2.789,4.556,13.169,6,15.621,1.378,2.274,9.872,11.648,11.09,3.068.634-4.624.381-9.408-2.046-13.541-1.834-3.1,2.933-3.576,3.711-7.4,5.545,5.3,28.409,5.046,19.636-4.3a21.9,21.9,0,0,0-12.629-6.551c-7.836-1.175-7.818.456-14.175-3.939,6.229-.752,12.485-2.612,17.5-6.6,5.909-4.734,2.079-10.752,7.126-11.8-8.537,7.093,8.148,14.015,13.989,11.005,11.564-5.942,5.715-16.432-5.663-14.133,17.954-10.236,4.6-21.631-11.174-14.716,4.353-2.806,29.146-16.651,18-23.448-5.275-3.247-12.535,3.846-16.044,6.949-5.8,5.1-8.114,8.225-14.251,10.041,11.436-17.244-4.768-22.823-13.855-7.159-.321-4.565-3.111-17.827-8.114-20.151-9.2-4.253-13.736,13.879-13.508,19.8a18.931,18.931,0,0,0-12.2,1.564c-1.073-5.815-5.765-9.078-11.369-9.282C161.658.335,130.391-3.325,122.217,16.159c-9.594-24.336-37.007-5.25-17.574,9.552A21.732,21.732,0,0,0,98.21,36.986C97.8,34.552,95.3,34.121,93.325,34.3A17.438,17.438,0,0,0,78.777,24.163c4.945-3.06,14.48-14.868,9.645-21.284C82.1-5.54,70.139,7.849,67.459,13.42c-3.365,7.033,4.953,11.47,2.638,12.738-6.577,3.6-15.968,3.416-22.333,11.2.77-5.6,1.183-16.036-3.9-19.958-2.95-2.266-5.409-3.491-4.227-5.841C47.629-4.264,13.563-5.033,26.547,16.716c-10.541,1.184-7.962,10.9-14.928,12.789C1.7,32.135,7.951,52.92,10.546,58.931-.232,60.24-3.774,76.3,4.773,82.632,1.586,87.188.766,79.657,4.773,82.632ZM128.6,115.5c.93.786,3.364,1.345,4.8,1.648-1.673.567-3.567-.025-5,1.133.068-.921.119-1.868.194-2.781C128.616,115.514,128.675,116.426,128.6,115.5Zm53.736-48.561a6.094,6.094,0,0,0,2.992-2.156c2.18,1.319,1.124,2.909-3.12,4.734.042-.853.076-1.725.128-2.578C183.442,66.631,182.342,67.807,182.335,66.935Zm-1.784,8.318c.414,5.554,1.656-1.268-1.167,4.429-1.682-1.267-1.284-2.738,1.167-4.429C180.568,75.312,179.993,76.478,180.551,75.253ZM97.517,39.75c.879-1.132,1.733,3.4,4.717,3.686-.761.752-6.695-3.153-3.8-1.851-1.885-.085-2.2-.693-.922-1.835C97.7,39.5,97.34,40.19,97.517,39.75ZM70.435,80.223c.473.549-.652-15.562-.879-18.36,4.117-.05,10.76,4.176,13.913-1.132.769,6.771-9.949,12.391-13.034,19.492C70.181,79.935,73.266,73.748,70.435,80.223Zm-.152-41.792c3.837,5.3,10.388,7.287,16.61,6.45a17.742,17.742,0,0,0-3.576,10.346,10.393,10.393,0,0,0-8.022-4.041,34.88,34.88,0,0,0-8.343.972,5.979,5.979,0,0,0-4.565-3.406,28.9,28.9,0,0,0,7.9-10.321C74.12,43.732,68.346,42.65,70.282,38.432ZM56.335,70.3c.66,1.167,1.3,2.3,1.961,3.483-3.407-.448-6.568,1.834-9.265.1a32.532,32.532,0,0,0,7.3-3.584C56.927,71.483,54.1,71.787,56.335,70.3Z" transform="translate(0 36.645)" fill="#346028"/>
          <path id="Path_12032-2" data-name="Path 12032" d="M1.841,32.091c5.536,7.98,17-22.12,12.772-29.027C6.54-10.155-4.39,23.132,1.841,32.091,3.649,34.687-.788,28.339,1.841,32.091Z" transform="translate(46.49 30.205)" fill="#569432"/>
        </g>
        <g id="Group_5918-2" data-name="Group 5918" transform="translate(28.02 6.777)">
          <path id="Path_12033-2" data-name="Path 12033" d="M.132,35.113c.955,9.256,13.533-.236,16.491-2.392-4.59,7.093-3.931,25.123,6.889,14.058,6.915-7.084,4.691-14.447,7.421-21.851a1.931,1.931,0,0,1,.44.025c-3.812,5.8,11.352,10.71,14.979,10.922,7.547.43.413-16.814-9.976-14.235,6.467-5.4,4.346-4.92,13.145-3.914,6.043.7,4.345-7.616,2.189-10.168,2.57,0,11.58.338,13.415-1.217C72.1.575,57.164-.964,53.851.541,51.1,1.184,49.4,2.706,48.762,5.157A12.73,12.73,0,0,0,40.74,4.007c-5.392.938-10.253,6.8-12.536,11.639C16.421-3.575,5.7,23.2,22.786,26.61c-.059,2.518-1.521,3.854-4.472,4.049C21.552,23.1-1.313,20.761.132,35.113.411,37.751-.274,31.048.132,35.113Z" transform="translate(492.205 0)" fill="#569432"/>
          <path id="Path_12034-2" data-name="Path 12034" d="M8.387,19.4C18.581,22.587,11.667,4.236,6.78,1.489,1-5.654-5.738,14.988,8.387,19.4,11.075,20.229,2.1,17.431,8.387,19.4Z" transform="translate(521.803 49.305)" fill="#569432"/>
          <path id="Path_12035-2" data-name="Path 12035" d="M.661,3.523C3.13,6.668,11.22,13.785,16.333,10.514,30.374,1.486-5.214-3.966.661,3.523Z" transform="translate(534.701 38.091)" fill="#569432"/>
          <path id="Path_12036-2" data-name="Path 12036" d="M.259,10.336c1.184,6.543,15.418.956,12.012-4.716C17.207-.33-2.455-4.988.259,10.336Z" transform="translate(478.926 41.218)" fill="#569432"/>
          <path id="Path_12037-2" data-name="Path 12037" d="M2.255,13.544c4.446,6.18,9.23,14.075,16.711,15.224,12.316,8.512,25.663-7.058,8.208-9.552C47.587,8.574,26.2-3.4,16.633,12.336,21.181-7.2-8.167-1.037,2.255,13.544,3.015,14.577,1.07,11.837,2.255,13.544Z" transform="translate(431.031 33.04)" fill="#569432"/>
          <path id="Path_12038-2" data-name="Path 12038" d="M.2,10.44c2.747,18.782,20,7.836,13.508-4.226C8.363-3.786-1.518-1.241.2,10.44.679,13.669-.293,7.094.2,10.44Z" transform="translate(436.663 68.18)" fill="#569432"/>
          <path id="Path_12039-2" data-name="Path 12039" d="M.863,1.1C-3.752,4.289,11.447,15.362,15.6,8.676,21.505,1.322,5.25-1.865.863,1.1-.921,2.345,1.1.951.863,1.1Z" transform="translate(455.237 70.418)" fill="#569432"/>
          <path id="Path_12040-2" data-name="Path 12040" d="M.291,5c1.632,5.715,21.487,18.393,22.163,7.337C23.088,1.76-2.677-5.23.291,5,1.694,9.917-.816,1.245.291,5Z" transform="translate(467.93 21.629)" fill="#569432"/>
          <path id="Path_12041-2" data-name="Path 12041" d="M.259,9.04C1.189,14.2,11.942,21.863,13.835,14.2,17.589-1.044-2.488-5.888.259,9.04.657,11.195-.256,6.225.259,9.04Z" transform="translate(477.834 6.421)" fill="#569432"/>
          <path id="Path_12042-2" data-name="Path 12042" d="M.531,7.216A16.852,16.852,0,0,0,16.81,17.892C.344,41.459,42.4,23.64,33.091,14.807c-3.855-3.643-4.422-.956-6.155-5.487-1.369-3.592-4.53-6.17-7.878-7.717C15.449-.079-3.375-2.648.531,7.216,2.491,12.211-.62,4.3.531,7.216Z" transform="translate(405.85 42.293)" fill="#569432"/>
          <path id="Path_12043-2" data-name="Path 12043" d="M3.848,16.3C6.105,15.123,26.848.567,12.453.009-.209-.49-3.472,20.144,3.848,16.3,6.891,14.708.906,17.844,3.848,16.3Z" transform="translate(397.536 62.56)" fill="#d0c412"/>
          <path id="Path_12044-2" data-name="Path 12044" d="M1.291,11.125c3.8,8.055,14.9,7.574,13.01-2.671C11.891-4.6-4.685-1.622,1.291,11.125,2.432,13.559-.01,8.36,1.291,11.125Z" transform="translate(417.252 21.487)" fill="#d0c412"/>
          <path id="Path_12045-2" data-name="Path 12045" d="M8.1,33.187C3.175,35.749-4.813,47.337,3.843,51.2c6.669,2.993,13.381-9.349,12.637-14.691,4.64,2.1,9.619,9.459,15.7,7.827,9.577-2.569-4.464-17.413-13.1-14.6,2.012-5.1-2.156-12.265-6.433-14.742,4.666-.964,9.806-4.928,7.506-11.336-3.635-10.178-14.742,3.416-11,9.9C-5.321,9.831-.046,28.953,8.1,33.187,2.659,36.019,2.921,30.465,8.1,33.187Z" transform="translate(253.319 51.537)" fill="#569432"/>
          <path id="Path_12046-2" data-name="Path 12046" d="M.486,6.7c.853,1.589,10.067,5.376,11.96,6.847,4.886,3.854,12.773,5.815,11.784-3.525C22.641-4.771-3.495-.8.486,6.7,1.915,9.329-1.128,3.673.486,6.7Z" transform="translate(279.802 66.013)" fill="#569432"/>
          <path id="Path_12047-2" data-name="Path 12047" d="M3.585,15.644c4.658.059,11.192-.119,15.257-2.671,3-1.893,10.584-11.318,2.063-12.73A20.873,20.873,0,0,0,5.132,4.469C2.884,6.2-4.259,15.542,3.585,15.644,5.124,15.668,1.464,15.618,3.585,15.644Z" transform="translate(282.307 44.254)" fill="#569432"/>
          <path id="Path_12048-2" data-name="Path 12048" d="M3.084,27.468c3.847,2.383,11.166,2.35,13.66,5.562-4.345,3.1-14.556,11.5-8.166,17.4C18.748,59.817,30.641,40.368,32.239,32.4c.871.854-.786,3.322.051,4.886,1.825,3.432,4.268,7.666,6.542,11.073,9.189,13.736,18.436-1.344,10.98-11.58C62.839,42.963,68,25.22,53.591,28.034c9.163-11.454-9.906-11.512-16.171-7.692,3.264-7.4-5.35-28.486-11.935-16.974-6.982,12.24,7.937,17.8,5.969,23.728-2.079-1.581-3.948-.347-5.275,1.328-.98-6.492-10.6-9.316-15.587-9.832C6.466,18.161-5.63,22.058,3.084,27.468Z" transform="translate(188.203 57.306)" fill="#569432"/>
          <path id="Path_12049-2" data-name="Path 12049" d="M1.763,17.82c5.469,7.9,14.616-8.757,13.423-13.965C12.7-7.066-5.253,7.651,1.763,17.82,2.108,18.31-2.37,11.826,1.763,17.82Z" transform="translate(230.69 49.297)" fill="#569432"/>
          <path id="Path_12050-2" data-name="Path 12050" d="M.666,51.507c-4.1,10.507,11.968,3.305,14.386,1.005a15.344,15.344,0,0,0,4.895-8.419c1.808-.338,3.7-.574,4.978-2.113,5.038,3.711,5.968,8.909,13.347,10.025,12.856,1.928,2.206-16.347-4.159-18.663,5.089-3,23.694-1.818,22.35-13.314-1.5-12.714-21.58-2.173-26.331,2.333,1.59-5,4.962-19.078-2.071-21.732-9.535-3.542-14.64,8.706-12.84,16.12-17.311-9.67-17.21,14.59-.4,17.725C7.715,37.526,3.4,44.474.666,51.507-.687,55,2.653,46.418.666,51.507ZM25.653,30.3c-.128,4.464-.009,4.21-3.965,3.212,2.063-1.293,1.682-2.469,3.965-3.212C25.644,30.536,25.137,30.467,25.653,30.3Z" transform="translate(129.558 77.02)" fill="#569432"/>
          <path id="Path_12051-2" data-name="Path 12051" d="M.216,4.844c1.581,5.791,19.341,19.738,19.9,7.735C20.689-.108-2.184-4.132.216,4.844.418,5.555-.359,2.732.216,4.844Z" transform="translate(164.039 130.241)" fill="#569432"/>
          <path id="Path_12052-2" data-name="Path 12052" d="M1.484,18.706C6.219,28.874,18.778,11.783,20.242,5.917,23.513-7.134-5.633,3.322,1.484,18.706,1.552,18.9-1.889,11.412,1.484,18.706Z" transform="translate(168.73 66.39)" fill="#569432"/>
          <path id="Path_12053-2" data-name="Path 12053" d="M1.187,13.424c1.538,3.465,10.8,12.723,13.085,4.058C15.522,12.629,9.893,8.868,9.674,4c.633-8.537-13.83-2.477-8.488,9.425C2.878,17.236-.521,9.679,1.187,13.424Z" transform="translate(128.09 64.166)" fill="#569432"/>
          <path id="Path_12054-2" data-name="Path 12054" d="M4.556,21.67C13.5,24.164,16.9,5.559,11.682,1.3,2.916-5.869-5.461,18.839,4.556,21.67,5.536,21.923,1.158,20.689,4.556,21.67Z" transform="translate(149.057 51.533)" fill="#569432"/>
          <path id="Path_12055-2" data-name="Path 12055" d="M2.8,10.056c.677.034,8.352,5.588,9.156,6.052,7.624,4.446,7.235-8.266,4.69-11.783C7.708-7.906-5.926,9.65,2.8,10.056,2.941,10.056.236,9.938,2.8,10.056Z" transform="translate(106.472 147.642)" fill="#569432"/>
          <path id="Path_12056-2" data-name="Path 12056" d="M0,17.406c.016,9.2,19.417-2.24,13.635-15.477C10.114-6.1,0,13.28,0,17.406,0,20.989,0,12.435,0,17.406Z" transform="translate(85.233 144.062)" fill="#569432"/>
          <path id="Path_12057-2" data-name="Path 12057" d="M.736,16.479C2.5,24.991,21.724,13.2,20.314,4.823,18.3-7.053-1.63,5.389.736,16.479,1.142,18.424-1.107,7.849.736,16.479Z" transform="translate(96.064 120.762)" fill="#569432"/>
          <path id="Path_12058-2" data-name="Path 12058" d="M4.28,24.366c6.086-4.488,21.344-4.117,16.027-17.354C18.109,1.56,2.547-4.627,3.274,5.135,3.925,13.708,8.582,9.71,2,15.981c-2.832,2.7-3.136,12.366,2.282,8.385C5.2,23.673,1.778,26.2,4.28,24.366Z" transform="translate(75.243 123.923)" fill="#569432"/>
          <path id="Path_12059-2" data-name="Path 12059" d="M.689,23.847c4.251,7.507,15.485,8.115,19.72.238,3.305-6.18,10.456-9.636,11.513-19.045,1.167-10.608-15.19-2.35-16.331,5.393-1.352,9.214-3.635,1.9-8.8,8.952-2.78-1.049-8.824-.355-6.1,4.463C5.007,31.505-.791,21.159.689,23.847Z" transform="translate(71.684 94.063)" fill="#569432"/>
          <path id="Path_12060-2" data-name="Path 12060" d="M.181,22.728c3.253,15.984,27.031,18.519,15.334.236,1.876,1.082,3.414.693,4.606-1.133-3.136,10.018,3.517,22.477,9.619,30.127,14.785,18.6,20.068-21.335-2.07-16.889,4.32-4.623,8.013-10.43,8.58-16.956.9-10.718-12.671-3.322-15.064,1.217C32.268-10.112-1.781-1.845,8.465,17.1,4.4,15.332-.961,17.1.181,22.728,1.38,28.679-.58,19.008.181,22.728Z" transform="translate(80.593 55.073)" fill="#569432"/>
          <path id="Path_12061-2" data-name="Path 12061" d="M4.4,17.226C11.141,15.63,29.466,3.39,14.141.219,1.335-2.4-4.776,19.356,4.4,17.226,10.532,15.781.9,18.029,4.4,17.226Z" transform="translate(27.656 151.722)" fill="#569432"/>
          <path id="Path_12062-2" data-name="Path 12062" d="M3.385,20.8c-1.15,6.1-6.011,10.118.735,18.309,12.011,14.667,19.509-5.071,6.586-13.7,2.164-.32,6.119.862,7.582.575,7.49-1.5,3.736-10.228-1.538-11.512C20.467,10.938,24.466-2.57,14.525.432,9.842,1.859-7.148,21.259,3.385,20.8,3.232,21.639,2.15,20.854,3.385,20.8Z" transform="translate(49.842 132.035)" fill="#569432"/>
          <path id="Path_12063-2" data-name="Path 12063" d="M10.126,24.092C17.378,23.864,15.156.171,6.66,0-4.109-.21-1,24.455,10.126,24.092,12.138,24.016.937,24.4,10.126,24.092Z" transform="translate(35.856 123.682)" fill="#d0c412"/>
          <path id="Path_12064-2" data-name="Path 12064" d="M.419,12.226c1.5,8.977,8.2,3.264,11.218-2.443C19.329-4.664-2.082-2.491.419,12.226.513,12.775-.569,6.394.419,12.226Z" transform="translate(110.345 38.466)" fill="#d0c412"/>
          <path id="Path_12065-2" data-name="Path 12065" d="M3.157,6.6c4.176,0,4.176-6.6,0-6.6C-1.052,0-1.052,6.6,3.157,6.6Z" transform="translate(69.858 55.299)" fill="#d0c412"/>
          <path id="Path_12066-2" data-name="Path 12066" d="M1.484,19.489c6.745-2.595,12.569-4.294,17.049-10.677C22.387,3.234,15.27-.418,10.959.038-1.23,1.349-1.281,20.537,1.484,19.489,2.71,19-.68,20.3,1.484,19.489Z" transform="translate(51.489 108.641)" fill="#d0c412"/>
          <path id="Path_12067-2" data-name="Path 12067" d="M.37,21.559c.887,5.942,9.239,2.654,11.445-.034,4.066-4.911,1.327-9.653-.415-14.682C5.019-11.619-1.075,12.091.37,21.559.641,23.417-.585,15.371.37,21.559Z" transform="translate(0 128.151)" fill="#d0c412"/>
          <path id="Path_12068-2" data-name="Path 12068" d="M.3,52.178c1.563,11.615,15.341-5.351,15.426-11.5,7.954-2.629,7.287-7.777,11.538-11.8,5.038-4.716,16.889-16.5,11.69-24.935C32.7-6.189,22.353,9.727,22.894,16.381c-3.186-2.4-.93-19.206-11.107-15.968-13.846,4.421.744,20.676,6.052,24.894C4.855,26.9-1.307,39.922.3,52.178.756,55.509-.562,45.594.3,52.178Z" transform="translate(16.241 83.889)" fill="#569432"/>
          <path id="Path_12069-2" data-name="Path 12069" d="M.235,17.55C2.662,26.526,22.112,12.19,19.686,4.5,15.806-7.886-2.258,8.243.235,17.55.667,19.1-.077,16.391.235,17.55Z" transform="translate(57.335 83.328)" fill="#d0c412"/>
          <path id="Path_12070-2" data-name="Path 12070" d="M1.582,12.985c4.625,10.592,18.25,7.558,10.3-2.451C12.706-4.85-5.332-2.83,1.582,12.985,3,16.24.119,9.681,1.582,12.985Z" transform="translate(6.945 95.051)" fill="#d0c412"/>
          <path id="Path_12071-2" data-name="Path 12071" d="M3.793,16.064C7.5,15.4,20.843,9.175,16.971,3.342,8.645-9.278-7.3,18.05,3.793,16.064,5.982,15.675.665,16.63,3.793,16.064Z" transform="translate(116.245 108.431)" fill="#569432"/>
          <path id="Path_12072-2" data-name="Path 12072" d="M1.5,16.906c3.348,11.445,9.112-9.924,8.96-12.342A4.615,4.615,0,0,0,4.3.3C-2.047,2.612.126,12.265,1.5,16.906,2.416,20.017.1,12.164,1.5,16.906Z" transform="translate(40.946 59.695)" fill="#569432"/>
        </g>
      </g>
      <g id="Group_5921" data-name="Group 5921" transform="translate(-152.066 4777.847) rotate(-13)" opacity="0.724">
        <g id="Group_5917-3" data-name="Group 5917" transform="translate(0 0)">
          <path id="Path_12012-3" data-name="Path 12012" d="M7.317,32.421C.022,26.234,5.331,12.9,14.958,14.383c-1.276-4.362.643-13.01,6.949-7.921,6.585,5.334,5.436,12.4,9.89,18.369a1.7,1.7,0,0,1,.431-.837C23.073,22.725,46.894,1.957,49.387.723c6.129-3.111,6.508,4.615,4.843,8.14C51.526,14.686,46.15,22.2,39.3,23.055c5.8,4.556,17.912-4.937,23.626,5.165,8.013,14.192-17.556,13.119-23.871,8.723-.482,8.4-9.349,37.785-19.053,18.935C15.127,46.394,9.464,58.71,1.883,51.643-3.351,46.74,3.6,35.912,7.317,32.421,4.19,29.784,3.335,36.149,7.317,32.421Z" transform="translate(498.154 121.593)" fill="#346028"/>
          <path id="Path_12013-3" data-name="Path 12013" d="M6.516,2.2C10.5,6.829,21.368,3.582,28.232,9.718c6.314,5.614,14.784,17.947.033,18.8-10.5.626-19.332-7.912-25.731-15.308C-2.317,7.648.227-5.107,6.516,2.2,7.293,3.125,2.188-2.825,6.516,2.2Zm9.146,9.67a28.142,28.142,0,0,0,5.9,4.014A17.189,17.189,0,0,0,15.662,11.875Z" transform="translate(537.805 162.004)" fill="#346028"/>
          <path id="Path_12014-3" data-name="Path 12014" d="M3.081,2.833C7.41-3.4,33.63,1.295,27.274,10.61c-3.711,5.351-14.716,3.474-19.627,1.759-1.454-.5-13.059-7.515-4.565-9.535C3.387,2.351.165,3.518,3.081,2.833Z" transform="translate(572.963 172.262)" fill="#346028"/>
          <path id="Path_12015-3" data-name="Path 12015" d="M.381.736c6.559-1,13.473-1.209,19.889.828C27.9,3.99,21.58,10.989,17.6,12.553,6.787,16.728-1.952,1.107.381.736,6.855-.262-1.868,1.091.381.736Z" transform="translate(567.701 149.965)" fill="#346028"/>
          <path id="Path_12016-3" data-name="Path 12016" d="M.4,46.3c2.561-6.273,8.03-10.736,14.014-13.423A22.776,22.776,0,0,1,7.174,9.427C10.116-1.359,25.56,10.711,28.7,15.015,30.893,11.2,40.149-7.149,45.711,3.045c5.57,10.245-9.044,19-11.124,26.355,8.453-2.35,18.216,1.851,24.362,7.726,10.126,9.687-14.2,11.242-18.3,10.447,5.841,22.773-13.684,18.183-17.37-.084A38.251,38.251,0,0,1,14.4,51.278a4.286,4.286,0,0,1,1,3.076c3.339-4.141,9.517,11.825-1.573,16.29C5.239,74.092,5.517,56.527,7.47,52.477,4.242,52.782-1.583,51.227.4,46.3,2.9,40.145-.813,49.325.4,46.3Z" transform="translate(435.348 101.004)" fill="#346028"/>
          <path id="Path_12017-3" data-name="Path 12017" d="M.972,6.818C6.584,5.271,8.656-.181,15.544,0,21.09.149,20.4,7.536,18.292,10.731,9.839,23.673-3.753,8.1.972,6.818Z" transform="translate(483.232 108.659)" fill="#929d27"/>
          <path id="Path_12018-3" data-name="Path 12018" d="M3.772.819C6.95,3.11,23.314,14.141,13.061,18.308.6,23.422-3.9-4.6,3.772.819,4.9,1.655.627-1.387,3.772.819Z" transform="translate(479.984 149.881)" fill="#346028"/>
          <path id="Path_12019-3" data-name="Path 12019" d="M4.315.05c7.041-.287,25.063,14.192,13.913,19.966C4.248,27.276-6.267.5,4.315.05,7.79-.1,1.839.152,4.315.05Z" transform="translate(418.199 116.771)" fill="#929d27"/>
          <path id="Path_12020-3" data-name="Path 12020" d="M.865,23.1c-.981-4.514,4.285-6.906,7.049-8.867C9.326,8.191,14,4.125,19.368,1.674c15.19-6.965,8.419,9.7,1.911,15.461,8.1,4.1,14.3,19.534,1.183,20.667-6.111.524-26.931-3.753-21.6-14.7C.46,21.2.189,24.5.865,23.1Z" transform="translate(289.505 89.831)" fill="#346028"/>
          <path id="Path_12021-3" data-name="Path 12021" d="M.233,21.6c.734-7.4,10.294-4.895,14.842-3.931,9.7,2.1,5.013-1.809,10.11-8.428a7.768,7.768,0,0,1,7.278-3.39A6.186,6.186,0,0,1,35.431.5c8.258-3.71,11.681,14.37,10.464,19.086,3.085.812,20.2-4.616,16.466,5.723-3.01,8.309-18.013,5.571-22.679.888-6.552,4.159-11.217.989-17.354,3.838C16.267,32.855-.832,32.154.233,21.6.511,18.892-.41,27.952.233,21.6Z" transform="translate(299.783 119.501)" fill="#346028"/>
          <path id="Path_12022-3" data-name="Path 12022" d="M.233,8.562c2.2-13.525,16.4-9.535,19.112,1.632C23.5,27.124-2.725,26.677.233,8.562.453,7.167-.172,10.945.233,8.562Z" transform="translate(270.89 116.62)" fill="#346028"/>
          <path id="Path_12023-3" data-name="Path 12023" d="M.983,2.36C3.182-7.083,29.96,13.779,20.29,30.22,16.707,36.305,7.314,27.211,5.236,24.2A27.935,27.935,0,0,1,.983,2.36C1.559-.091-1.493,12.934.983,2.36Z" transform="translate(265.245 81.25)" fill="#346028"/>
          <path id="Path_12024-3" data-name="Path 12024" d="M4.892.857c4.386-3.279,6.754,3.72,7.032,6.374.71,6.652-3.017,12.9-7.776,17.066C2.019,26.174-4.405,7.83,4.892.857Z" transform="translate(290.533 78.272)" fill="#346028"/>
          <path id="Path_12025-3" data-name="Path 12025" d="M1.3,4.244C8.026-1.673,39.725-3.245,30.24,11.851c-9.8,15.622-36.389-1.1-28.942-7.608C8.246-1.859-.233,5.571,1.3,4.244Z" transform="translate(240.798 104.124)" fill="#929d27"/>
          <path id="Path_12026-3" data-name="Path 12026" d="M.188,3.331C1.38-8.722,20.331,15.08,18.733,24.86c-1.074,6.492-6.221,5.41-10.152,1.979C2.377,21.412-.6,11.4.188,3.331.475.457-.353,8.926.188,3.331Z" transform="translate(236.126 65.427)" fill="#346028"/>
          <path id="Path_12027-3" data-name="Path 12027" d="M.711,2.724C2.071-1.8,14.565.534,18.462,1.151c6.864,1.1,16.99,8.724,14.952,17.092C30.194,31.455-3.1,15.614.711,2.724,1.235.983-1.124,8.886.711,2.724Z" transform="translate(96.993 70.354)" fill="#929d27"/>
          <path id="Path_12028-3" data-name="Path 12028" d="M2.225,1.583C1.1-3.751,25.767,5.15,17.12,17.01,10.687,25.851-5.983,5.7,2.225,1.583,1.879-.014.433,2.487,2.225,1.583Z" transform="translate(243.083 132.347)" fill="#346028"/>
          <path id="Path_12029-3" data-name="Path 12029" d="M1.48.928c4.142-4.2,14.818,7.016,15.4,10.625C19.265,26.27-6.3,8.865,1.48.928,4.245-1.879-1.258,3.742,1.48.928Z" transform="translate(206.99 130.373)" fill="#346028"/>
          <path id="Path_12030-3" data-name="Path 12030" d="M.91,2.58C4.14-7.859,29.423,15.9,18.966,28.9,8.654,41.7-2.327,13.011.91,2.58,1.883-.581-1.557,10.543.91,2.58Z" transform="translate(66.092 0)" fill="#929d27"/>
          <path id="Path_12031-3" data-name="Path 12031" d="M4.773,68.074C-2.75,57.373,9.81,40.822,21.611,47.956c1.986-8.072,7.717-11.554,15.68-9.2,8.276,2.452,1.075,19.189-2.281,23.162a27,27,0,0,1,7.505.66c-.329-6.9,2.612-15.047,10.381-15.706-6.517-9.965-1.065-17.328,10.042-13.963,5.123,1.563,10.143,5.13,11.91,10.506a7.166,7.166,0,0,1,4.387,3.965,31.022,31.022,0,0,1,9.18-3.338C77.94,36.334,86.1,21.3,97.086,17.568c10.846-3.686,5.3,22.629-2.907,26.019,3.846.1,10.685.853,12.721,4.952a21.692,21.692,0,0,1,7.752-7.21c-8.63-3.491-16.407-30.017-4.234-26.053-3.982-8.232,4.691-23.236,10.261-10.084,5.013,11.817,2.375,10.194-5.156,12.494a31.8,31.8,0,0,1,10.583,9.4c.4-5.942,6.441-23.06,15.5-18.014,8.148,4.532,3.728,20.727-3.347,23.939,5.553-.051,21.816,7.642,13.439,15.13-5.629,5.064-23.152-1.462-24.091-9.281-1.022,2.18-3.906,1.555-5.748,2.468,7.971,3.584,6.491,12.366,1.115,17.666,2.08-.972,5.876-.548,7.16,1.657,6.2-4.285,20.677-4.852,22.51,5.072,2.976,16.112-42.037,10.743-31.985-4.717-5.647,4.413-26.357,9.883-19.78-2.417a39.06,39.06,0,0,1-20.456,2.3c1.1,3.035,10.778,6.315,13.516,10.084,4.632,6.323.811,13.769,4.083,18.047,2.333-4.37,8.96-.5,11.183,1.6a39.567,39.567,0,0,1,5.85,7.3c2.646-1.04,4.5.532,5.689,2.764,7.1-24.125,25.368-8.9,18.6,10.659,6.44-2.215,8.14-.144,9.855-6.745,1.175-4.624,4.294-7.278,8.258-9.417-9.9-3.491-18.672-12.857-5.358-19.906,6.8-3.576-1.167-18.918,14.624-12.57-.922-2.266-16.914-28.385-2.68-27.336,15.917,1.192,14.657,18.08,15.908,29.889,4.014-4.116,4.649-8.453,2.113-12.468-1.776-2.789,4.556-13.169,6-15.621,1.378-2.274,9.872-11.648,11.09-3.068.634,4.624.381,9.408-2.046,13.541-1.834,3.1,2.933,3.576,3.711,7.4,5.545-5.3,28.409-5.046,19.636,4.3a21.9,21.9,0,0,1-12.629,6.551c-7.836,1.175-7.818-.456-14.175,3.939,6.229.752,12.485,2.612,17.5,6.6,5.909,4.734,2.079,10.752,7.126,11.8-8.537-7.093,8.148-14.015,13.989-11.005,11.564,5.942,5.715,16.432-5.663,14.133,17.954,10.236,4.6,21.631-11.174,14.716,4.353,2.806,29.145,16.651,18,23.448-5.275,3.247-12.535-3.846-16.044-6.949-5.8-5.1-8.114-8.225-14.251-10.041,11.436,17.244-4.768,22.823-13.855,7.159-.321,4.565-3.111,17.827-8.114,20.151-9.2,4.253-13.736-13.879-13.508-19.8a18.931,18.931,0,0,1-12.2-1.564c-1.073,5.815-5.765,9.078-11.369,9.282,17.573,22.611-13.694,26.271-21.868,6.787-9.594,24.336-37.007,5.25-17.574-9.552A21.732,21.732,0,0,1,98.21,113.72c-.406,2.434-2.907,2.865-4.885,2.687a17.438,17.438,0,0,1-14.548,10.136c4.945,3.06,14.48,14.868,9.645,21.284-6.323,8.419-18.283-4.97-20.964-10.541-3.365-7.033,4.953-11.47,2.638-12.738-6.577-3.6-15.968-3.416-22.333-11.2.77,5.6,1.183,16.036-3.9,19.958-2.95,2.266-5.409,3.491-4.227,5.841,7.989,15.824-26.077,16.594-13.094-5.156-10.541-1.184-7.962-10.9-14.928-12.789C1.7,118.572,7.951,97.786,10.546,91.776c-10.778-1.31-14.319-17.37-5.773-23.7C1.586,63.518.766,71.049,4.773,68.074ZM128.6,35.21c.93-.786,3.364-1.345,4.8-1.648-1.673-.567-3.567.025-5-1.133.068.921.119,1.868.194,2.781C128.616,35.192,128.675,34.28,128.6,35.21Zm53.736,48.561a6.094,6.094,0,0,1,2.992,2.156c2.18-1.319,1.124-2.909-3.12-4.734.042.853.076,1.725.128,2.578C183.442,84.075,182.342,82.9,182.335,83.771Zm-1.784-8.318c.414-5.554,1.656,1.268-1.167-4.429-1.682,1.267-1.284,2.738,1.167,4.429C180.568,75.395,179.993,74.228,180.551,75.453Zm-83.034,35.5c.879,1.132,1.733-3.4,4.717-3.686-.761-.752-6.695,3.153-3.8,1.851-1.885.085-2.2.693-.922,1.835C97.7,111.21,97.34,110.516,97.517,110.956ZM70.435,70.483c.473-.549-.652,15.562-.879,18.36,4.117.05,10.76-4.176,13.913,1.132.769-6.771-9.949-12.391-13.034-19.492C70.181,70.771,73.266,76.958,70.435,70.483Zm-.152,41.792c3.837-5.3,10.388-7.287,16.61-6.45a17.742,17.742,0,0,1-3.576-10.346,10.393,10.393,0,0,1-8.022,4.041,34.88,34.88,0,0,1-8.343-.972,5.979,5.979,0,0,1-4.565,3.406,28.9,28.9,0,0,1,7.9,10.321C74.12,106.974,68.346,108.056,70.283,112.275ZM56.335,80.407c.66-1.167,1.3-2.3,1.961-3.483-3.407.448-6.568-1.834-9.265-.1a32.532,32.532,0,0,1,7.3,3.584C56.927,79.223,54.1,78.919,56.335,80.407Z" transform="translate(0 3.203)" fill="#346028"/>
          <path id="Path_12032-3" data-name="Path 12032" d="M1.841,1.336c5.536-7.98,17,22.12,12.772,29.027C6.54,43.582-4.39,10.295,1.841,1.336,3.649-1.26-.788,5.088,1.841,1.336Z" transform="translate(46.49 126.923)" fill="#569432"/>
        </g>
        <g id="Group_5918-3" data-name="Group 5918" transform="translate(28.02 7.368)">
          <path id="Path_12033-3" data-name="Path 12033" d="M.132,15.172c.955-9.256,13.533.236,16.491,2.392-4.59-7.093-3.931-25.123,6.889-14.058,6.915,7.084,4.691,14.447,7.421,21.851a1.931,1.931,0,0,0,.44-.025c-3.812-5.8,11.352-10.71,14.979-10.922,7.547-.43.413,16.814-9.976,14.235,6.467,5.4,4.346,4.92,13.145,3.914,6.043-.7,4.345,7.616,2.189,10.168,2.57,0,11.58-.338,13.415,1.217,6.974,5.765-7.962,7.3-11.276,5.8C51.1,49.1,49.4,47.579,48.762,45.128a12.73,12.73,0,0,1-8.022,1.149c-5.392-.938-10.253-6.8-12.536-11.639C16.421,53.86,5.7,27.09,22.786,23.675c-.059-2.518-1.521-3.854-4.472-4.049,3.238,7.558-19.627,9.9-18.182-4.454C.411,12.535-.274,19.237.132,15.172Z" transform="translate(492.205 126.124)" fill="#569432"/>
          <path id="Path_12034-3" data-name="Path 12034" d="M8.387.37c10.194-3.186,3.28,15.165-1.607,17.912C1,25.425-5.738,4.782,8.387.37,11.075-.459,2.1,2.34,8.387.37Z" transform="translate(521.802 107.333)" fill="#569432"/>
          <path id="Path_12035-3" data-name="Path 12035" d="M.661,7.831C3.13,4.686,11.22-2.431,16.333.84,30.374,9.868-5.214,15.32.661,7.831Z" transform="translate(534.701 126.964)" fill="#569432"/>
          <path id="Path_12036-3" data-name="Path 12036" d="M.258,2.949C1.442-3.593,15.676,1.994,12.27,7.666,17.207,13.616-2.455,18.274.258,2.949Z" transform="translate(478.926 121.905)" fill="#569432"/>
          <path id="Path_12037-3" data-name="Path 12037" d="M2.255,17.745C6.7,11.565,11.485,3.67,18.966,2.521c12.316-8.512,25.663,7.058,8.208,9.552,20.414,10.643-.972,22.612-10.541,6.88,4.548,19.535-24.8,13.373-14.378-1.208C3.014,16.712,1.07,19.452,2.255,17.745Z" transform="translate(431.031 112.08)" fill="#569432"/>
          <path id="Path_12038-3" data-name="Path 12038" d="M.2,10.107c2.747-18.782,20-7.836,13.508,4.226C8.363,24.334-1.518,21.789.2,10.107.679,6.879-.293,13.454.2,10.107Z" transform="translate(436.663 87.681)" fill="#569432"/>
          <path id="Path_12039-3" data-name="Path 12039" d="M.863,9.681C-3.752,6.5,11.446-4.578,15.6,2.108,21.5,9.462,5.25,12.649.863,9.681-.921,8.439,1.1,9.833.863,9.681Z" transform="translate(455.237 95.207)" fill="#569432"/>
          <path id="Path_12040-3" data-name="Path 12040" d="M.291,11.717C1.923,6,21.778-6.676,22.454,4.38,23.088,14.955-2.677,21.945.291,11.717,1.694,6.8-.816,15.47.291,11.717Z" transform="translate(467.93 138.065)" fill="#569432"/>
          <path id="Path_12041-3" data-name="Path 12041" d="M.259,8.4C1.189,3.238,11.941-4.42,13.835,3.238,17.588,18.488-2.488,23.331.259,8.4.657,6.248-.256,11.218.259,8.4Z" transform="translate(477.834 152.545)" fill="#569432"/>
          <path id="Path_12042-3" data-name="Path 12042" d="M.53,22.39A16.852,16.852,0,0,1,16.81,11.714C.344-11.852,42.4,5.966,33.091,14.8c-3.855,3.643-4.422.956-6.155,5.487-1.369,3.592-4.53,6.17-7.878,7.717C15.449,29.685-3.375,32.254.53,22.39,2.491,17.4-.62,25.307.53,22.39Z" transform="translate(405.85 104.509)" fill="#569432"/>
          <path id="Path_12043-3" data-name="Path 12043" d="M3.848.478c2.257,1.175,23,15.731,8.606,16.289C-.209,17.266-3.473-3.368,3.848.478,6.891,2.068.906-1.068,3.848.478Z" transform="translate(397.536 97.073)" fill="#d0c412"/>
          <path id="Path_12044-3" data-name="Path 12044" d="M1.291,5.578C5.087-2.477,16.193-2,14.3,8.249,11.89,21.3-4.685,18.325,1.291,5.578,2.432,3.144-.011,8.343,1.291,5.578Z" transform="translate(417.252 138.219)" fill="#d0c412"/>
          <path id="Path_12045-3" data-name="Path 12045" d="M8.1,18.474C3.175,15.912-4.814,4.325,3.842.461,10.511-2.531,17.223,9.811,16.48,15.153c4.64-2.1,9.619-9.459,15.7-7.827,9.577,2.569-4.463,17.413-13.1,14.6,2.012,5.1-2.156,12.265-6.433,14.742,4.666.964,9.806,4.928,7.506,11.336-3.635,10.178-14.742-3.416-11-9.9C-5.321,41.83-.046,22.709,8.1,18.474,2.659,15.642,2.921,21.2,8.1,18.474Z" transform="translate(253.319 73.211)" fill="#569432"/>
          <path id="Path_12046-3" data-name="Path 12046" d="M.486,10.05C1.34,8.461,10.554,4.674,12.447,3.2,17.333-.651,25.22-2.612,24.23,6.728,22.641,21.521-3.495,17.548.486,10.05,1.915,7.421-1.128,13.076.486,10.05Z" transform="translate(279.802 93.646)" fill="#569432"/>
          <path id="Path_12047-3" data-name="Path 12047" d="M3.585.009C8.243-.05,14.777.127,18.843,2.68c3,1.893,10.584,11.318,2.063,12.73A20.873,20.873,0,0,1,5.132,11.183C2.884,9.45-4.259.11,3.585.009,5.124-.016,1.464.034,3.585.009Z" transform="translate(282.307 116.503)" fill="#569432"/>
          <path id="Path_12048-3" data-name="Path 12048" d="M3.084,26.4c3.847-2.383,11.166-2.35,13.66-5.562-4.345-3.1-14.556-11.5-8.166-17.4C18.747-5.952,30.641,13.5,32.239,21.461c.871-.854-.786-3.322.051-4.886,1.825-3.432,4.268-7.666,6.542-11.073,9.189-13.736,18.436,1.344,10.98,11.58C62.839,10.9,68,28.646,53.59,25.831c9.163,11.454-9.906,11.512-16.171,7.692,3.264,7.4-5.35,28.486-11.935,16.974-6.982-12.24,7.937-17.8,5.969-23.728-2.079,1.581-3.948.347-5.275-1.328-.98,6.492-10.6,9.316-15.587,9.832C6.466,35.7-5.63,31.808,3.084,26.4Z" transform="translate(188.203 65.237)" fill="#569432"/>
          <path id="Path_12049-3" data-name="Path 12049" d="M1.762,2.093c5.469-7.9,14.616,8.757,13.423,13.965C12.7,26.978-5.253,12.262,1.762,2.093,2.108,1.6-2.371,8.086,1.762,2.093Z" transform="translate(230.69 107.2)" fill="#569432"/>
          <path id="Path_12050-3" data-name="Path 12050" d="M.666,5.556C-3.434-4.952,12.635,2.251,15.052,4.55a15.344,15.344,0,0,1,4.895,8.419c1.808.338,3.7.574,4.978,2.113,5.038-3.711,5.968-8.909,13.347-10.025C51.129,3.129,40.479,21.4,34.113,23.72c5.089,3,23.694,1.818,22.35,13.314-1.5,12.714-21.58,2.173-26.331-2.333,1.59,5,4.962,19.078-2.071,21.732-9.535,3.542-14.64-8.706-12.84-16.12-17.311,9.67-17.21-14.59-.4-17.725C7.715,19.537,3.4,12.588.666,5.556-.687,2.065,2.653,10.645.666,5.556ZM25.653,26.764c-.128-4.464-.009-4.21-3.965-3.212,2.063,1.293,1.682,2.469,3.965,3.212C25.644,26.527,25.137,26.6,25.653,26.764Z" transform="translate(129.558 42.327)" fill="#569432"/>
          <path id="Path_12051-3" data-name="Path 12051" d="M.216,12.464C1.8,6.673,19.557-7.274,20.114,4.729c.575,12.688-22.3,16.712-19.9,7.735C.418,11.753-.359,14.576.216,12.464Z" transform="translate(164.039 28.86)" fill="#569432"/>
          <path id="Path_12052-3" data-name="Path 12052" d="M1.484,3.163C6.219-7.006,18.778,10.086,20.242,15.952,23.513,29-5.633,18.547,1.484,3.163,1.552,2.968-1.889,10.457,1.484,3.163Z" transform="translate(168.73 88.15)" fill="#569432"/>
          <path id="Path_12053-3" data-name="Path 12053" d="M1.187,7.657C2.725,4.192,11.99-5.065,14.272,3.6c1.25,4.852-4.379,8.613-4.6,13.482.633,8.537-13.83,2.477-8.488-9.425C2.878,3.845-.521,11.4,1.187,7.657Z" transform="translate(128.09 91.162)" fill="#569432"/>
          <path id="Path_12054-3" data-name="Path 12054" d="M4.556.229C13.5-2.265,16.9,16.34,11.682,20.6,2.916,27.768-5.461,3.06,4.556.229,5.536-.025,1.158,1.209,4.556.229Z" transform="translate(149.057 102.978)" fill="#569432"/>
          <path id="Path_12055-3" data-name="Path 12055" d="M2.8,6.984C3.482,6.95,11.157,1.4,11.961.932,19.584-3.514,19.2,9.2,16.651,12.715,7.708,24.946-5.926,7.39,2.8,6.984,2.941,6.984.236,7.1,2.8,6.984Z" transform="translate(106.472 11.727)" fill="#569432"/>
          <path id="Path_12056-3" data-name="Path 12056" d="M0,3.326C.02-5.878,19.421,5.567,13.639,18.8,10.114,26.834-.005,7.451,0,3.326,0-.257-.005,8.3,0,3.326Z" transform="translate(85.233 11.615)" fill="#569432"/>
          <path id="Path_12057-3" data-name="Path 12057" d="M.736,2.949C2.5-5.563,21.724,6.229,20.314,14.605,18.3,26.482-1.63,14.039.736,2.949,1.142,1-1.107,11.579.736,2.949Z" transform="translate(96.065 36.219)" fill="#569432"/>
          <path id="Path_12058-3" data-name="Path 12058" d="M4.28.948C10.366,5.436,25.624,5.065,20.306,18.3c-2.2,5.452-17.76,11.639-17.032,1.877C3.925,11.607,8.582,15.605,2,9.334-.834,6.637-1.138-3.033,4.28.948,5.2,1.642,1.778-.885,4.28.948Z" transform="translate(75.243 27.171)" fill="#569432"/>
          <path id="Path_12059-3" data-name="Path 12059" d="M.688,5.892c4.251-7.507,15.485-8.115,19.72-.238,3.305,6.18,10.456,9.636,11.513,19.045,1.167,10.608-15.19,2.35-16.331-5.393-1.352-9.214-3.635-1.9-8.8-8.952-2.78,1.049-8.824.355-6.1-4.463C5.007-1.767-.791,8.58.688,5.892Z" transform="translate(71.684 52.608)" fill="#569432"/>
          <path id="Path_12060-3" data-name="Path 12060" d="M.181,34.2c3.253-15.984,27.031-18.519,15.334-.236,1.876-1.082,3.414-.693,4.606,1.133C16.985,25.079,23.638,12.62,29.74,4.97c14.785-18.6,20.068,21.335-2.07,16.889,4.32,4.623,8.013,10.43,8.58,16.956.9,10.718-12.671,3.322-15.064-1.217C32.268,67.04-1.781,58.773,8.465,39.83,4.4,41.6-.961,39.83.181,34.2,1.38,28.249-.58,37.92.181,34.2Z" transform="translate(80.593 64.408)" fill="#569432"/>
          <path id="Path_12061-3" data-name="Path 12061" d="M4.4.179c6.745,1.6,25.07,13.837,9.745,17.007C1.335,19.806-4.776-1.951,4.4.179,10.532,1.624.9-.624,4.4.179Z" transform="translate(27.656 7.282)" fill="#569432"/>
          <path id="Path_12062-3" data-name="Path 12062" d="M3.384,23.572c-1.15-6.1-6.011-10.118.735-18.309C16.13-9.4,23.628,10.335,10.7,18.965c2.164.32,6.119-.862,7.582-.575,7.49,1.5,3.736,10.228-1.538,11.512,3.719,3.534,7.718,17.042-2.223,14.04C9.842,42.515-7.148,23.116,3.384,23.572,3.232,22.735,2.15,23.521,3.384,23.572Z" transform="translate(49.843 0)" fill="#569432"/>
          <path id="Path_12063-3" data-name="Path 12063" d="M10.126.12c7.252.228,5.03,23.921-3.466,24.091C-4.109,24.422-1-.243,10.126.12,12.137.2.937-.184,10.126.12Z" transform="translate(35.856 28.515)" fill="#d0c412"/>
          <path id="Path_12064-3" data-name="Path 12064" d="M.419,4.677c1.5-8.977,8.2-3.264,11.218,2.443C19.329,21.566-2.082,19.393.419,4.677.513,4.127-.569,10.509.419,4.677Z" transform="translate(110.345 121.04)" fill="#d0c412"/>
          <path id="Path_12065-3" data-name="Path 12065" d="M3.157,0c4.176,0,4.176,6.6,0,6.6C-1.052,6.6-1.052,0,3.157,0Z" transform="translate(69.858 114.508)" fill="#d0c412"/>
          <path id="Path_12066-3" data-name="Path 12066" d="M1.484.273C8.229,2.868,14.053,4.568,18.533,10.95c3.854,5.578-3.264,9.23-7.574,8.774C-1.23,18.414-1.281-.774,1.484.273,2.71.764-.68-.538,1.484.273Z" transform="translate(51.489 48.006)" fill="#d0c412"/>
          <path id="Path_12067-3" data-name="Path 12067" d="M.37,3.332c.887-5.942,9.239-2.654,11.445.034,4.066,4.911,1.327,9.653-.415,14.682C5.019,36.509-1.075,12.8.37,3.332.641,1.473-.585,9.52.37,3.332Z" transform="translate(0 23.367)" fill="#d0c412"/>
          <path id="Path_12068-3" data-name="Path 12068" d="M.3,3.97C1.863-7.645,15.641,9.32,15.726,15.474c7.954,2.629,7.287,7.777,11.538,11.8,5.038,4.716,16.889,16.5,11.69,24.935-6.256,10.128-16.6-5.789-16.06-12.443-3.186,2.4-.93,19.206-11.107,15.968-13.846-4.421.744-20.676,6.052-24.894C4.855,29.252-1.307,16.226.3,3.97.755.638-.562,10.554.3,3.97Z" transform="translate(16.241 36.373)" fill="#569432"/>
          <path id="Path_12069-3" data-name="Path 12069" d="M.235,2.86C2.662-6.117,22.112,8.22,19.686,15.911,15.806,28.3-2.258,12.167.235,2.86.666,1.3-.077,4.018.235,2.86Z" transform="translate(57.335 72.671)" fill="#d0c412"/>
          <path id="Path_12070-3" data-name="Path 12070" d="M1.582,6.635c4.625-10.592,18.25-7.558,10.3,2.451.82,15.384-17.218,13.364-10.3-2.451C3,3.38.119,9.939,1.582,6.635Z" transform="translate(6.945 61.738)" fill="#d0c412"/>
          <path id="Path_12071-3" data-name="Path 12071" d="M3.793.184C7.5.853,20.843,7.074,16.971,12.906,8.645,25.526-7.3-1.8,3.793.184,5.982.573.665-.382,3.793.184Z" transform="translate(116.245 51.73)" fill="#569432"/>
          <path id="Path_12072-3" data-name="Path 12072" d="M1.5,3.348C4.851-8.1,10.615,13.273,10.463,15.69A4.615,4.615,0,0,1,4.3,19.959C-2.047,17.642.126,7.989,1.5,3.348,2.416.238.1,8.091,1.5,3.348Z" transform="translate(40.946 96.46)" fill="#569432"/>
        </g>
      </g>
    </g>
  </g>
</svg>
