<svg xmlns="http://www.w3.org/2000/svg" xmlns:xlink="http://www.w3.org/1999/xlink" width="1920" height="424" viewBox="0 0 1920 424">
  <defs>
    <clipPath id="clip-path">
      <rect id="Rectangle_10608" data-name="Rectangle 10608" width="1920" height="424" transform="translate(0 4550)" fill="#fff" stroke="#707070" stroke-width="1"/>
    </clipPath>
  </defs>
  <g id="Mask_Group_1" data-name="Mask Group 1" transform="translate(0 -4550)" clip-path="url(#clip-path)">
    <g id="Group_6036" data-name="Group 6036">
      <g id="Group_5608" data-name="Group 5608" transform="translate(0.991 4054.458)">
        <path id="Path_11662" data-name="Path 11662" d="M1380.21,797.327c-4.754.216-10.207,3.344-16.893,3.669-5.159.254-191.5,3.341-197.787,3.666-5.319.274-11.665-6.453-17.79-6.121-2.99.161-5.84,2.635-8.811,4.877l-.036-27.537-.027-19.089-.014-9.543-.009-4.774v-2.384a1.522,1.522,0,0,0-1.349-1.811,1.5,1.5,0,0,0-1.349,1.744v2.322l-.007,4.646-.006,2.821h-9.082v.355a1.419,1.419,0,0,0-1.3-.91v0l-5.979-.006v-9.793a4.347,4.347,0,0,0,1.217-.088,1.072,1.072,0,0,0,.713-.481,3.886,3.886,0,0,0,.04-.841c-.168-.655-.908-.7-1.415-.729h-4.932l-6.577-.006-13.155-.013-26.309-.025-26.307.025-13.157.013-6.578.006h-4.932c-.509.028-1.246.085-1.412.719l.042.008h-.042a3.921,3.921,0,0,0,.04.849,1.109,1.109,0,0,0,.712.473,4.356,4.356,0,0,0,1.217.088v9.786h-4.184l-1.852.008a1.424,1.424,0,0,0-1.347,1.193,15.259,15.259,0,0,0,.012,1.871,1.431,1.431,0,0,0,1.391,1.134h1.886l-.2,53.9.016,4.131a19.032,19.032,0,0,0-3.513-.143c-5.6.381-12.117-5.869-17.936-5.468-5.612.386-10.568,6.71-16.38,7.115-5.614.394-11.089,2.486-16.893,2.9-.313.023-.622.074-.935.1l-.187-.156h.037l.1-26.549,12.269-12.251.05-.051v-.071l-.042-31.439L971.2,729.75l-.009-7.861-.006-3.928V716a1.251,1.251,0,0,0-1.111-1.488,1.234,1.234,0,0,0-1.112,1.436v1.912l-.008,3.823v2.324h-7.477v.292a1.169,1.169,0,0,0-1.072-.75v0h-4.922V715.48a3.651,3.651,0,0,0,1-.072.894.894,0,0,0,.588-.4,3.449,3.449,0,0,0,.033-.693c-.138-.538-.75-.574-1.166-.6h-4.062l-5.417-.006-10.831-.01-21.665-.022L892.3,713.7l-10.834.01-5.418.006h-4.06c-.42.025-1.027.07-1.164.593l.036.006h-.036a3.121,3.121,0,0,0,.034.7.9.9,0,0,0,.586.389,3.641,3.641,0,0,0,1,.072v8.057H869l-1.527.006a1.173,1.173,0,0,0-1.11.983,13.062,13.062,0,0,0,.009,1.542,1.18,1.18,0,0,0,1.146.933v0h1.551l-.168,44.387.088,22.922-14.651.05v.061h-.015v2.229h.015v.048l14.66.032.069,18.477c-4.384.766-9.072,1.7-12.69,1.98-5.646.443-11.047,2.957-16.817,3.416-5.646.449-11.262,1.477-17.024,1.942-5.651.452-11.188,1.984-16.948,2.457-5.648.457-12.875-3.839-18.629-3.363-5.649.465-9.221,9.46-14.971,9.94-5.65.475-11.856-2.415-17.6-1.929a9.688,9.688,0,0,1-5.245-1.541V682.516a7.307,7.307,0,0,0-7.3-7.3H728.179v1.355c-.075-.1-.143-.2-.219-.289a25.683,25.683,0,0,0-3.059-3.15l.059-21.794,3.806-.023c1.267-.028,2.5.038,3.8-.074a2.848,2.848,0,0,0,2.286-2.793l-.1-.007h.1a2.846,2.846,0,0,0-2.286-2.8c-1.3-.114-2.53-.043-3.8-.076l-3.789-.023.084-32.281,4.224-.013,1.761-.006a6.688,6.688,0,0,0,1.779-.12,2.847,2.847,0,0,0,2.024-2.719l-.1-.008h.1a2.846,2.846,0,0,0-2.023-2.724,6.8,6.8,0,0,0-1.78-.122l-1.757-.006-4.215-.013.009-4.024-.009-4.367a12.9,12.9,0,0,0-.425-4.434,7.648,7.648,0,0,0-6.893-5.138l-3.19.006v-4.722a.91.91,0,0,0-.912-.91h-1.737l.014-5.577c-.035-2.133.237-4.394-.679-6.445a9.322,9.322,0,0,0-4.352-4.739,9.1,9.1,0,0,0-3.133-.954c-1.1-.114-2.174-.047-3.256-.068l-25.956-.046-19.307.035a16.251,16.251,0,0,0-2.387-2.7,20.705,20.705,0,0,0-7.2-4.18,35.5,35.5,0,0,0-8.128-1.545c-5.454-.567-10.921-.781-16.388-.826a160.53,160.53,0,0,0-16.391.8,35.743,35.743,0,0,0-8.129,1.591,21,21,0,0,0-7.2,4.171,15.306,15.306,0,0,0-5.221,11.116l.007,4.1.08,16.293a2.564,2.564,0,0,0-1.368.529,2.835,2.835,0,0,0-1.142,2.264l.071.006H581.8a2.82,2.82,0,0,0,1.133,2.247,2.631,2.631,0,0,0,1.491.534l-.182,20.422.181,20.312-7.777-.025-29.1.09-.45-11.183h2.4a3.057,3.057,0,0,0,3.336-3.007l-.109-.006h.109a3.052,3.052,0,0,0-3.02-3.011v-14.71l3.159-.006,2.662-.006a2.676,2.676,0,0,0,1.315-.318,1.33,1.33,0,0,0,.576-1.2h-.022a1.308,1.308,0,0,0-.569-1.185,2.6,2.6,0,0,0-1.3-.309l-2.662-.009h-6.821l-1.279-31.844h1.48a2.864,2.864,0,0,0,2.989-2.837l-.1-.006h.1a2.856,2.856,0,0,0-2.989-2.839l-1.711-.006-1.569-39.025A16.043,16.043,0,0,0,527.2,514.585h-23.43a16.054,16.054,0,0,0-15.885,15.246l-1.6,39.031-2.368.008a2.859,2.859,0,0,0-2.986,2.837h0a2.863,2.863,0,0,0,2.989,2.843h2.138l-1.3,31.842h-6.3l-2.665.009a2.664,2.664,0,0,0-1.3.324c-.051.027-.068.088-.113.122a1.134,1.134,0,0,0-.247.273,1.312,1.312,0,0,0-.149.358,1.634,1.634,0,0,0-.033.166,1.46,1.46,0,0,0-.051.246h-.023a1.33,1.33,0,0,0,.6,1.193,2.71,2.71,0,0,0,1.315.33l2.662.008h1.994v14.714a3.054,3.054,0,0,0-2.942,3.009h0a3.057,3.057,0,0,0,3.335,3.013h2.942l-1.308,32.013H481.7a3.26,3.26,0,0,0-2.354.641,2.854,2.854,0,0,0-1.04,2.194H478.3a2.852,2.852,0,0,0,1.043,2.2,3.273,3.273,0,0,0,2.351.641h.543l-1.292,31.666-21-.038-18.38.033-.392-24.3-.9-55.97-.347-21.632-.674-34.329-1.334-67.9h-.181v-.182l-24.343-.039h-.216l-.006.217-1.3,67.995-.655,34.232-.352,21.6-.908,55.979-.4,24.383-12.782.023-.39-24.328-.9-56.08-.346-21.577-.674-34.356L393.143,495.4h-.183v-.182l-24.34-.03h-.211v.211l-.957,67.952-.788,55.935-.172,12.272-.514,43.717-.664,55.909-.43,36.321-19.029-.025V630.78H306.581l-1.5-31.054-1.949-32.851-.18.011V566.8l-12.7-.09-12.7.09v.084h-.029l-.2.007-1.114-19.205-.182.009v-.134l-25.4-.064h-.188l-.011.189L248.1,590.14l-2.083,40.643H213.2v136.66l-18.254.008h-.274v.274l.042,28.839L1.257,796.4H.908v.349l.133,58.116H.009v63.5h1388.6V791.7C1387.12,794.576,1385.02,797.11,1380.21,797.327ZM958.967,782.68l.006-1.457h1.45Zm2.8-2.8v-.387H958.98l.009-2.633h5.792Zm5.381-5.39-1.258,1.261v-.626H959v-.288c.034-.042.068-.082.1-.124l-.061-.062v-3.363h9.843a3.7,3.7,0,0,1-1.735,3.2ZM959,769.549l-.013-3.284h9.9v1.3c-.044.637-.017,1.307,0,1.978Zm9.887-5.016h-9.905l-.012-3.281h9.93Zm.007-5.016h-9.932l-.012-3.281h9.95Zm.007-5.014h-9.958l-.013-3.284h9.976Zm.008-5.018h-9.983l-.015-3.281h10Zm.005-5.014h-10l-.014-3.282h10.026Zm.008-5.016H958.891l-.014-3.279h10.051Zm.007-5.014h-10.06l-.013-3.284h10.078Zm-10.018-7.43,1.526-.005a1.136,1.136,0,0,0,.763-.336h7.739v2.755H958.853l-.009-2.414ZM745.488,739.869v28.449H733.823l-.17-17.557a3.746,3.746,0,0,0,3.56-3.737h.044a3.8,3.8,0,0,0-3.608-3.8l.007-3.356Zm-11.829-1.822.038-21.969.011-6.48h11.78v28.449Zm3.48,53.394h.119a3.791,3.791,0,0,0-3.6-3.791l.17-17.505h11.665v28.443H733.67l-.021-3.406a3.756,3.756,0,0,0,3.564-3.737ZM735.79,821.56a10.941,10.941,0,0,1-1.994-.03l-.117-21.113h11.809v25.429c-3.343-2.224-6.714-4.54-9.7-4.286Zm6.044-142.7a3.657,3.657,0,0,1,3.654,3.651v25.256H733.712l.009-5.342.007-6.823a44.8,44.8,0,0,0-.271-6.847,26,26,0,0,0-3.658-9.895Zm-84-78.314a2.637,2.637,0,0,0,1.49-.534,2.819,2.819,0,0,0,1.133-2.255h.025a2.835,2.835,0,0,0-1.145-2.27,2.571,2.571,0,0,0-1.368-.529l.08-16.293v-4.1c0-.284-.025-.564-.05-.847l10.813.015,23.09-.032,5.771-.009H702a3.4,3.4,0,0,1,1.385.143,1.76,1.76,0,0,1,.929.967,4.044,4.044,0,0,1,.119,1.4l.007,2.886.006,4.861H702.7a.909.909,0,0,0-.91.91V589.6h-1.5a9.608,9.608,0,0,0-4.384.645,7.571,7.571,0,0,0-4.509,7.2l.009,4.363.017,5.713-4.352.013-1.761.006a6.679,6.679,0,0,0-1.778.124,2.843,2.843,0,0,0-2.026,2.719H681.5a2.849,2.849,0,0,0,2.026,2.727,6.7,6.7,0,0,0,1.779.12l1.761.006,4.367.015.017,5.783a5.537,5.537,0,0,0-1.752-.3,5.757,5.757,0,0,0-5.162,3.291,6.328,6.328,0,0,0-.552,3.114l.022,2.827a16.665,16.665,0,0,0-10.988,14.5c-.075,8.1.026,16.151.034,24.223-1.288,0-2.581.012-3.89.114a25.578,25.578,0,0,0-11.327,3.763l.181-34.8ZM533.271,699.627l-38.6-.067,20-14.717,18.749,14.786Zm-21.6,119.825V831.41l-17.032.046V819.415Zm0,17.711V839.8c-5.188.427-10.47.522-15.694,1.036a3.03,3.03,0,0,0-1.339.489v-4.2ZM547.65,609.431h.8v14.712h-1.588l-.59-14.7Zm-5.03,238.734c-2.776,1.255-5.526,2.7-8.436,3.31V837.19l8-.021Zm-.674-16.761-7.762-.02v-6.968l7.755,6.829Zm-.083-2.053-7.68-6.759v-3.465h-.546l-.035-17.084.151.153,6.747-6.676Zm-1.436-35.682L533.6,800.42l-.013-7.034,6.831.046Zm-.237-5.991-6.616.043-.012-6.269,6.62,6.031Zm-.085-2.118-6.374-5.8-.172.187-.045-22.66.24.244,5.021-4.934Zm-1.4-34.818-5.19,5.1-.011-5.379,5.192.041Zm-.243-5.975-4.97.038-.01-5.144,4.97,4.839Zm-.09-2.251-4.622-4.5-.27.279-.024-11.856.027-14.147.224.276,3.355-2.7Zm-1.379-34.352-3.507,2.821.006-2.946,3.5.025Zm-.235-5.81-3.255.025V699.7l3.248,2.56Zm-.076-1.9L515.817,684l19.623-14.437Zm-1.614-40.182L516.54,645.659l17.386-13.708Zm-2.135-50.812h.091l.588,14.649h-.679Zm-.119-5.216L516.492,589.87,531.7,576.479ZM501.1,530.364a2.761,2.761,0,0,1,2.661-2.557h23.43a2.757,2.757,0,0,1,2.655,2.55l1.544,38.46-16.259-.041-15.6.04Zm-1.8,44.213,15.835.04,16.49-.042.006.143-16.17,14.237-16.167-14.239Zm-.077,1.9,15.2,13.39-16.334,14.379Zm-1.211,29.663,17.447-15.361,17.434,15.353.011.236-17.186-.019L498,606.368Zm33.554,3.32V624.1l-6.961-.015V609.469Zm-8.331.012v14.612l-6.844-.013V609.483Zm-8.213.012v14.584l-6.961.015V609.471Zm-8.328-.014v14.617l-7.074.015V609.459Zm-8.819-.013h.374V624.1h-.97Zm-.846,20.745,18.144.04,18.688-.042v.062l-18.424,14.526L497.02,630.262Zm-.072,1.751,17.378,13.707L495.8,660.27Zm-1.226,30.121,19.71-15.542,19.7,15.541v.078l-19.382-.046-19.464.046h-.572Zm-.24,5.825h.808l19.464.046,19.462-.046h.153v.011L514.7,683.123l-19.218-15.157Zm-.071,1.757,18.142,14.31-19.307,14.207Zm-13.6-45.514V609.429h2.81l-.6,14.7ZM408.308,844.981a3.152,3.152,0,0,0,.635-1.444c.005-.036.007-.067.012-.1l7.257-.036c-.012,3.5.005,7.006.009,10.509a16.112,16.112,0,0,0-4.864-.378c-1.437.149-2.858.393-4.273.672l-.041-8.3A2.834,2.834,0,0,0,408.308,844.981Zm36.093-.8c-4.5.455-7.779,7.515-11.806,10.684H421.558l.011-2-.052-9.461a27.93,27.93,0,0,0,6.284-.362,17.417,17.417,0,0,0,12.481-23.725l31.839.062V854.87H457.207c-4.474-4.731-9.259-11.052-12.807-10.691ZM934.648,715.5h1.246l10.973-.009,5.487-.006h2v3.48h-19.71Zm0,4.575h19.71v3.469l-19.71-.023Zm-20.138-4.556,19.024-.019v3.461H914.51Zm0,4.556h19.024v3.444l-16.468-.017a6.689,6.689,0,0,0-2.556-2.841Zm-.21,3.423h-2.656l-18.918.023a4.419,4.419,0,0,1,1.876-1.3,4.818,4.818,0,0,1,1.737-.245H910.57a5.042,5.042,0,0,1,1.746.208A4.424,4.424,0,0,1,914.3,723.5Zm-1.009-3.423h.1v.041ZM894.372,715.5l19.024.019v3.442H894.372Zm-20.821-.02h2l5.486.006,10.971.009h1.247v3.461h-19.7Zm0,4.594h19.707v.174a6.789,6.789,0,0,0-3.32,3.268h-2.667l-12.185.014h-1.534Zm250.463,72.86-.015-3.986h12.081l-.006,3.986Zm12.058,2.1-.007,3.986h-12.03l-.013-3.986Zm-12.08-8.2-.017-3.988h12.115l-.008,3.988Zm-.023-6.092-.017-3.986H1136.1l-.006,3.986Zm-.023-6.09-.015-3.984H1136.1l-.006,3.984Zm-.022-6.091-.015-3.986h12.207l-.006,3.986Zm-.023-6.09-.017-3.988h12.24v3.988Zm.145,38.647h12.018v1.584c-.054.774-.023,1.589,0,2.4h-8.889a35.356,35.356,0,0,1-3.125-3.047Zm-.093-47.67,1.853-.006a1.4,1.4,0,0,0,.929-.409h9.4l-.006,3.232v.113H1123.88l-.012-2.931Zm-29.466-13.982H1096l13.323-.011,6.662-.007h2.433v4.228h-23.931Zm0,5.559h23.931v4.209l-23.931-.027Zm-24.458-5.533,23.1-.027v4.2h-23.1Zm0,5.533h23.1v4.18l-20-.023a8.124,8.124,0,0,0-3.1-3.447Zm-.254,4.154-3.224-.005-22.972.028a5.372,5.372,0,0,1,2.274-1.574,5.925,5.925,0,0,1,2.11-.3h17.281a6.183,6.183,0,0,1,2.119.25,5.381,5.381,0,0,1,2.407,1.608Zm-1.227-4.154h.127v.046Zm-22.974-5.559,23.1.027v4.178h-23.1Zm-25.286-.023h2.431l6.664.007,13.321.011h1.517v4.2h-23.933Zm0,5.583h23.933v.208a8.243,8.243,0,0,0-4.033,3.97h-3.237l-14.8.015h-1.863Z" fill="#461d0b"/>
      </g>
      <g id="Group_5609" data-name="Group 5609" transform="translate(547 4549.641)">
        <path id="Path_11662-2" data-name="Path 11662" d="M8.4,797.327c4.754.216,10.207,3.344,16.893,3.669,5.159.254,191.5,3.341,197.787,3.666,5.319.274,11.665-6.453,17.79-6.121,2.99.161,5.84,2.635,8.811,4.877l.036-27.537.027-19.089.014-9.543.009-4.774v-2.384a1.522,1.522,0,0,1,1.349-1.811,1.5,1.5,0,0,1,1.349,1.744v2.322l.007,4.646.006,2.821h9.082v.355a1.419,1.419,0,0,1,1.3-.91v0l5.979-.006v-9.793a4.347,4.347,0,0,1-1.217-.088,1.072,1.072,0,0,1-.713-.481,3.886,3.886,0,0,1-.04-.841c.168-.655.908-.7,1.415-.729h4.932l6.577-.006,13.155-.013,26.309-.025,26.307.025,13.157.013,6.578.006h4.932c.509.028,1.246.085,1.412.719l-.042.008h.042a3.907,3.907,0,0,1-.04.849,1.109,1.109,0,0,1-.712.473,4.356,4.356,0,0,1-1.217.088v9.786h4.184l1.852.008a1.424,1.424,0,0,1,1.347,1.193,15.235,15.235,0,0,1-.012,1.871,1.431,1.431,0,0,1-1.391,1.134h-1.886l.2,53.9-.016,4.131a19.031,19.031,0,0,1,3.513-.143c5.6.381,12.117-5.869,17.936-5.468,5.612.386,10.568,6.71,16.38,7.115,5.614.394,11.089,2.486,16.893,2.9.313.023.622.074.935.1l.187-.156h-.037l-.1-26.549L417.4,777.034l-.05-.051v-.071l.042-31.439.023-15.717.009-7.861.006-3.928V716a1.251,1.251,0,0,1,1.111-1.488,1.234,1.234,0,0,1,1.112,1.436v1.912l.008,3.823v2.324h7.477v.292a1.169,1.169,0,0,1,1.072-.75v0h4.922V715.48a3.651,3.651,0,0,1-1-.072.894.894,0,0,1-.588-.4,3.456,3.456,0,0,1-.033-.693c.138-.538.75-.574,1.166-.6h4.062l5.417-.006L453,713.7l21.665-.022,21.663.022,10.834.01,5.418.006h4.06c.42.025,1.027.07,1.164.593l-.036.006h.036a3.125,3.125,0,0,1-.034.7.9.9,0,0,1-.586.389,3.639,3.639,0,0,1-1,.072v8.057h3.444l1.527.006a1.173,1.173,0,0,1,1.11.983,13.062,13.062,0,0,1-.009,1.542A1.18,1.18,0,0,1,521.1,727v0h-1.551l.168,44.387-.088,22.922,14.651.05v.061h.015v2.229h-.015v.048l-14.66.032-.069,18.477c4.384.766,9.072,1.7,12.69,1.98,5.646.443,11.047,2.957,16.817,3.416,5.646.449,11.262,1.477,17.024,1.942,5.651.452,11.188,1.984,16.948,2.457,5.648.457,12.875-3.839,18.629-3.363,5.649.465,9.221,9.46,14.971,9.94,5.65.475,11.856-2.415,17.6-1.929a9.688,9.688,0,0,0,5.245-1.541V682.516a7.307,7.307,0,0,1,7.3-7.3h13.655v1.355c.075-.1.143-.2.219-.289a25.683,25.683,0,0,1,3.059-3.15l-.059-21.794-3.806-.023c-1.267-.028-2.5.038-3.8-.074a2.848,2.848,0,0,1-2.286-2.793l.1-.007h-.1a2.846,2.846,0,0,1,2.286-2.8c1.3-.114,2.53-.043,3.8-.076l3.789-.023-.084-32.281-4.224-.013-1.761-.006a6.688,6.688,0,0,1-1.779-.12,2.847,2.847,0,0,1-2.024-2.719l.1-.008h-.1a2.846,2.846,0,0,1,2.023-2.724,6.8,6.8,0,0,1,1.78-.122l1.757-.006,4.215-.013-.009-4.024.009-4.367a12.9,12.9,0,0,1,.425-4.434,7.648,7.648,0,0,1,6.893-5.138l3.19.006v-4.722a.91.91,0,0,1,.912-.91h1.74l-.014-5.577c.035-2.133-.237-4.394.679-6.445a9.322,9.322,0,0,1,4.352-4.739,9.1,9.1,0,0,1,3.133-.954c1.1-.114,2.174-.047,3.256-.068l25.956-.046,19.307.035a16.262,16.262,0,0,1,2.387-2.7,20.705,20.705,0,0,1,7.2-4.18,35.5,35.5,0,0,1,8.128-1.545c5.454-.567,10.921-.781,16.388-.826a160.531,160.531,0,0,1,16.391.8,35.743,35.743,0,0,1,8.129,1.591,21,21,0,0,1,7.2,4.171,15.306,15.306,0,0,1,5.221,11.116l-.007,4.1-.08,16.293a2.565,2.565,0,0,1,1.368.529,2.835,2.835,0,0,1,1.142,2.264l-.071.006h.048a2.82,2.82,0,0,1-1.133,2.247,2.631,2.631,0,0,1-1.491.534l.182,20.422-.181,20.312,7.777-.025,29.1.09.45-11.183h-2.4a3.057,3.057,0,0,1-3.336-3.007l.109-.006h-.109a3.052,3.052,0,0,1,3.02-3.011v-14.71l-3.159-.006-2.662-.006a2.675,2.675,0,0,1-1.315-.318,1.33,1.33,0,0,1-.576-1.2h.022a1.308,1.308,0,0,1,.569-1.185,2.6,2.6,0,0,1,1.3-.309l2.662-.009h6.821l1.279-31.844h-1.48a2.864,2.864,0,0,1-2.989-2.837l.1-.006h-.1a2.856,2.856,0,0,1,2.989-2.839l1.711-.006,1.569-39.025a16.043,16.043,0,0,1,15.877-15.254h23.43a16.054,16.054,0,0,1,15.885,15.246l1.6,39.031,2.368.008a2.859,2.859,0,0,1,2.986,2.837h0a2.863,2.863,0,0,1-2.989,2.843h-2.138l1.3,31.842h6.295l2.665.009a2.667,2.667,0,0,1,1.3.324c.051.027.068.088.113.122a1.134,1.134,0,0,1,.247.273,1.313,1.313,0,0,1,.149.358,1.62,1.62,0,0,1,.033.166,1.469,1.469,0,0,1,.051.246h.023a1.33,1.33,0,0,1-.6,1.193,2.71,2.71,0,0,1-1.315.33l-2.662.008h-1.994v14.714a3.054,3.054,0,0,1,2.942,3.009h0a3.057,3.057,0,0,1-3.335,3.013h-2.942l1.308,32.013h.777a3.26,3.26,0,0,1,2.354.641A2.854,2.854,0,0,1,910.31,665h0a2.852,2.852,0,0,1-1.043,2.2,3.273,3.273,0,0,1-2.351.641h-.543l1.292,31.666,21-.038,18.38.033.392-24.3.9-55.97.347-21.632.674-34.329,1.334-67.9h.181v-.182l24.343-.039h.216l.006.217,1.295,67.995.655,34.232.352,21.6.908,55.979.4,24.383,12.782.023.39-24.328.9-56.08.346-21.577.674-34.356,1.334-67.869h.183v-.182l24.34-.03h.211v.211l.957,67.952.788,55.935.172,12.272.514,43.717.664,55.909.43,36.321,19.029-.025v-136.7h39.271l1.5-31.054,1.949-32.851.18.011v-.06l12.7-.09,12.7.09v.084h.029l.2.007,1.114-19.205.182.009v-.134l25.405-.064h.188l.011.189,2.325,42.454,2.083,40.643h32.816v136.66l18.254.008h.274v.274l-.042,28.839,193.459-.166h.349v.349l-.133,58.116h1.032v63.5H.009V791.7C1.5,794.576,3.6,797.11,8.4,797.327ZM429.649,782.68l-.006-1.457h-1.45Zm-2.8-2.8v-.387h2.787l-.009-2.633h-5.792Zm-5.381-5.39,1.258,1.261v-.626h6.893v-.288c-.034-.042-.068-.082-.1-.124l.061-.062v-3.363h-9.843a3.7,3.7,0,0,0,1.732,3.2Zm8.143-4.936.013-3.284h-9.9v1.3c.044.637.017,1.307,0,1.978Zm-9.887-5.016h9.9l.012-3.281h-9.924Zm-.007-5.016h9.932l.012-3.281h-9.948Zm-.007-5.014h9.958l.013-3.284h-9.976Zm-.008-5.018h9.983l.015-3.281h-10Zm-.005-5.014H429.7l.014-3.282H419.693Zm-.008-5.016h10.034l.014-3.279H419.688Zm-.007-5.014h10.06l.013-3.284H419.68Zm10.018-7.43-1.526-.005a1.136,1.136,0,0,1-.763-.336h-7.739v2.755h10.087l.009-2.414Zm213.426,12.858v28.449h11.665l.17-17.557a3.746,3.746,0,0,1-3.56-3.737h-.044a3.8,3.8,0,0,1,3.608-3.8l-.007-3.356Zm11.829-1.822-.038-21.969-.011-6.48h-11.78v28.449Zm-3.48,53.394h-.119a3.791,3.791,0,0,1,3.6-3.791l-.17-17.505H643.128v28.443h11.818l.021-3.406a3.756,3.756,0,0,1-3.564-3.737Zm1.349,30.119a10.941,10.941,0,0,0,1.994-.03l.117-21.113H643.128v25.429c3.343-2.229,6.714-4.545,9.7-4.291Zm-6.044-142.7a3.657,3.657,0,0,0-3.654,3.651v25.256H654.9l-.009-5.342-.007-6.823a44.8,44.8,0,0,1,.271-6.847,26,26,0,0,1,3.658-9.9Zm84-78.314a2.637,2.637,0,0,1-1.49-.534,2.819,2.819,0,0,1-1.133-2.255h-.025a2.835,2.835,0,0,1,1.145-2.27,2.571,2.571,0,0,1,1.368-.529l-.08-16.293v-4.1c0-.284.025-.564.05-.847l-10.813.015-23.09-.032-5.771-.009h-4.329a3.4,3.4,0,0,0-1.385.143,1.76,1.76,0,0,0-.929.967,4.045,4.045,0,0,0-.119,1.4l-.007,2.886-.006,4.861h1.757a.909.909,0,0,1,.91.91V589.6h1.5a9.608,9.608,0,0,1,4.384.645,7.571,7.571,0,0,1,4.509,7.2l-.009,4.363-.017,5.713,4.352.013,1.761.006a6.679,6.679,0,0,1,1.778.124,2.843,2.843,0,0,1,2.026,2.719h0a2.849,2.849,0,0,1-2.025,2.727,6.7,6.7,0,0,1-1.779.12l-1.761.006-4.367.015-.017,5.783a5.536,5.536,0,0,1,1.752-.3,5.757,5.757,0,0,1,5.162,3.291,6.328,6.328,0,0,1,.552,3.114l-.022,2.827a16.665,16.665,0,0,1,10.988,14.5c.075,8.1-.026,16.151-.034,24.223,1.288,0,2.581.012,3.89.114a25.577,25.577,0,0,1,11.327,3.763l-.181-34.8Zm124.566,99.076,38.6-.067-20-14.717L855.2,699.629Zm21.6,119.825V831.41l17.032.046V819.415Zm0,17.711V839.8c5.188.427,10.47.522,15.693,1.036a3.03,3.03,0,0,1,1.339.489v-4.2ZM840.967,609.431h-.8v14.712h1.588l.59-14.7ZM846,848.164c2.776,1.255,5.526,2.7,8.436,3.31V837.19l-8-.021Zm.674-16.761,7.762-.02v-6.968l-7.755,6.829Zm.083-2.053,7.68-6.759v-3.465h.546l.035-17.084-.151.153-6.747-6.676Zm1.436-35.682,6.828,6.752.013-7.034-6.831.046Zm.237-5.991,6.616.043.012-6.269-6.62,6.031Zm.085-2.118,6.374-5.8.172.187.045-22.66-.24.244-5.021-4.934Zm1.4-34.818,5.19,5.1.011-5.379-5.192.041Zm.243-5.975,4.97.038.01-5.144-4.97,4.839Zm.09-2.251,4.622-4.5.27.279.024-11.856-.027-14.147-.224.276-3.355-2.7Zm1.379-34.352,3.507,2.821-.006-2.946-3.5.025Zm.235-5.81,3.255.025V699.7l-3.248,2.56Zm.076-1.9L872.8,684l-19.623-14.437Zm1.614-40.182,18.524-14.611L854.69,631.951Zm2.135-50.812H855.6l-.588,14.649h.679Zm.119-5.216,16.322-14.374-15.206-13.388Zm31.713-73.878a2.761,2.761,0,0,0-2.661-2.557h-23.43a2.757,2.757,0,0,0-2.655,2.55l-1.544,38.46,16.259-.041,15.6.04Zm1.8,44.213-15.835.04L857,574.575l-.006.143,16.17,14.237,16.167-14.239Zm.077,1.9-15.2,13.39,16.334,14.379Zm1.211,29.663L873.16,590.78l-17.43,15.352-.011.236,17.186-.019,17.715.019Zm-33.554,3.32V624.1l6.961-.015V609.469Zm8.331.012v14.612l6.844-.013V609.483Zm8.213.012v14.584l6.961.015V609.471Zm8.328-.014v14.617L889,624.1V609.459Zm8.819-.013h-.374V624.1h.97Zm.846,20.745-18.144.04L854.76,630.2v.062l18.424,14.526L891.6,630.262Zm.072,1.751-17.378,13.707,18.531,14.611Zm1.226,30.121-19.71-15.542-19.7,15.541v.078l19.382-.046,19.464.046h.572Zm.24,5.825h-.808l-19.464.046L853.4,667.9h-.153v.011l20.671,15.212,19.218-15.157Zm.071,1.757-18.142,14.31,19.307,14.207Zm13.6-45.514V609.429h-2.808l.6,14.7Zm73.507,220.841a3.152,3.152,0,0,1-.635-1.444c-.005-.036-.007-.067-.012-.1l-7.259-.04c.012,3.5-.005,7.006-.009,10.509a16.116,16.116,0,0,1,4.864-.378c1.437.149,2.858.393,4.273.672l.041-8.3a2.834,2.834,0,0,1-1.261-.922Zm-36.093-.8c4.5.455,7.779,7.515,11.806,10.684h11.037l-.011-2,.052-9.461a27.923,27.923,0,0,1-6.284-.362,17.417,17.417,0,0,1-12.481-23.725l-31.839.062v35.491h14.919c4.472-4.734,9.256-11.055,12.8-10.694ZM453.968,715.5h-1.246l-10.973-.009-5.487-.006h-2v3.48h19.71Zm0,4.575h-19.71v3.469l19.71-.023Zm20.138-4.556-19.024-.019v3.461h19.024Zm0,4.556H455.081v3.444l16.468-.017a6.689,6.689,0,0,1,2.556-2.841Zm.21,3.423h2.656l18.918.023a4.419,4.419,0,0,0-1.876-1.3,4.818,4.818,0,0,0-1.737-.245h-14.23a5.042,5.042,0,0,0-1.746.208,4.423,4.423,0,0,0-1.986,1.316Zm1.009-3.423h-.1v.041Zm18.919-4.575-19.024.019v3.442h19.024Zm20.821-.02h-2l-5.486.006-10.971.009h-1.247v3.461h19.707Zm0,4.594H495.358v.174a6.789,6.789,0,0,1,3.32,3.268h2.667l12.185.014h1.534ZM264.6,792.935l.015-3.986H252.536l.006,3.986Zm-12.058,2.1.007,3.986h12.03l.013-3.986Zm12.08-8.2.017-3.988H252.527l.008,3.988Zm.023-6.092.017-3.986H252.519l.006,3.986Zm.023-6.09.015-3.984H252.512l.006,3.984Zm.022-6.091.015-3.986H252.5l.006,3.986Zm.023-6.09.017-3.988H252.49v3.988Zm-.145,38.647H252.554v1.584c.054.774.023,1.589,0,2.4h8.889a35.369,35.369,0,0,0,3.125-3.047Zm.093-47.67-1.853-.006a1.4,1.4,0,0,1-.929-.409h-9.4l.006,3.232v.113h12.249l.012-2.931Zm29.466-13.982h-1.513l-13.323-.011-6.662-.007H270.2v4.228h23.931Zm0,5.559H270.2v4.209l23.931-.027Zm24.458-5.533-23.1-.027v4.2h23.1Zm0,5.533h-23.1v4.18l20-.023a8.124,8.124,0,0,1,3.1-3.447Zm.254,4.154,3.224-.005,22.972.028a5.371,5.371,0,0,0-2.274-1.574,5.927,5.927,0,0,0-2.11-.3H323.377a6.181,6.181,0,0,0-2.119.25,5.382,5.382,0,0,0-2.415,1.607Zm1.227-4.154h-.127v.046Zm22.974-5.559-23.1.027v4.178h23.1Zm25.286-.023H365.9l-6.664.007-13.321.011h-1.517v4.2H368.33Zm0,5.583H344.4v.208a8.242,8.242,0,0,1,4.033,3.97h3.237l14.8.015h1.863Z" transform="translate(-0.009 -495.182)" fill="#461d0b"/>
      </g>
    </g>
  </g>
</svg>
