<svg xmlns="http://www.w3.org/2000/svg" xmlns:xlink="http://www.w3.org/1999/xlink" width="1924" height="470" viewBox="0 0 1924 470">
  <defs>
    <clipPath id="clip-path">
      <rect id="Rectangle_10670" data-name="Rectangle 10670" width="1924" height="470" transform="translate(-4 4520)" fill="#fff" stroke="#707070" stroke-width="1"/>
    </clipPath>
  </defs>
  <g id="Mask_Group_1" data-name="Mask Group 1" transform="translate(4 -4520)" clip-path="url(#clip-path)">
    <g id="Group_6041" data-name="Group 6041">
      <path id="Path_11771" data-name="Path 11771" d="M3952.876,605.38h-4.866V565.148h-12.387v-30.94h-23.154v-9.364h-6.777v3.483h-6.084v4.145h-4.21v53.153h-54.009V616.78h-50.045v-9.532c-.037-.016-.059-.041-.1-.053h-4.61V580.072c-.007-.269,0-.525,0-.79v-7.968h2.23V558.664h-8.461v-6.359h-16.457v44.611h-21.02c-5.263-.175-4.286-6.162-9.339-6.528h-26.861c.471-1.38.349-2.2-.128-2.686h-6.1v-63.75c-.646.016-1.833.291-1.946.062-.641-1.293.231-3.229.128-4.747h-44.386c-2.527,1.084-4.226,2.839-6.69,3.533v89.48h-12.212V488.055c-3.471-.165-12.927-.759-12.927-2.355,0-1.943,7.136-3.454,7.136-3.454l.047-4.732-53.724-.291-.022,3.745s6.893.131,7.028,2.783c.128,2.461-5.834,2.177-5.834,2.177s-5.435-.144-7.746-.025V611.227h-10.873V584.32h-5.531V571.864h-4.635v-12.29h-4.279V538.406h-14.136V466.651c-8.461-1.134-19.633.25-28.709-.309-1.783,1.821-1.562,4-2.336,6.531-1.559,5.054-3.452,10.682-4.676,15.233a13.731,13.731,0,0,1-1.065,2.486v97.354h-1.268v.266h-15.186V495.745h-7.8v-2.586h-9.836v-2.883h-3.895v-8.567h-2.773v6.837h-1.428c-1.215,11.413-.662,21.36-1.125,31.115-1.14,24.171-3.875,49.4-4.528,73.286v10.647h-16.948v2.58h-10.944V496.494h-4.932V491.36l-.019.009v-.778c0-.112.013-.206.019-.312v-4.338l-.019-.012v-1.655l.019-.022v-3.7a.259.259,0,0,1-.019-.056V477.1c.007-.306.013-.615.019-.918h-2.021v4.8h-4.376V453.333h-3.992V440.1c-.947-1.084-2.721-1.4-2.964-3.139-.712-2.6,1.462-7.893-1.171-8.7-4.438-.871-1.484,5.144-2.333,7.618.275,3.123-3.439,2.539-4.429,4.485v12.971h-4.289V480.99h-2.917V476.1H3382.3v20.773h-5.247l-.006.006v93.9l-6.6.016h-12.278V573h-34.453V562.1l-.047,0V459.53h-75.451V564.542H3206.53V534.331H3199.4V471.914h-8.911V392.063h-6.943V381.334h-31.624c-5.8,2.071-10.263,6.15-15.788,6.618V571H3127.1V567.66h-2.627v-4.091h-5.59V541.411H3116.1v-7.949l-11.194-9.436-11.837,9.436v7.152H3091.2v57.816h-12.116V576.767h-2.261a3.138,3.138,0,0,1-3.245-3.017,2.892,2.892,0,0,1,.565-1.705h-.681a2.558,2.558,0,0,1-2.643-2.464,2.226,2.226,0,0,1,.037-.35h-8.8V564.2h.012V503.35h-4.426v-4.688H3043.7c-.4,1.287-.232,3.1-2.658,2.5h-15.182c-.082-10.854.1-24,.009-33.713h-3.51v34.8h-16.085v63.8h-13.221v-31.1h-23.578V524.326h-5.385v3.245h-3.739c-.009.022-.031.034-.041.053v.9h-4.157v5.119H2952.8v53.272l-20.9,34.763h-6.331V560.242h-7.721V524.951h-7.708v-8.5h-31.552l-16.129,8.849V659.283h-11.1V651.39h-8.28V623.155h-22.02v5.791h-3.414v29.138h-9.348V563.1H2779.4s-10.061,25.824-10.545,26.77v66.218h-11.466V605.54h-6.778v-3.92h-3.507v-4.788h-6.316V573.741h-3.039v-7.627h-3.97v-3.92h-10.054v6.537h-8.574a2.5,2.5,0,0,0-.084.269v1.865a15.841,15.841,0,0,1,.137,2.024.755.755,0,0,1-.137.387v59.069h-12.153V610.121h-4.676v-5.228H2693.1V602.06h-7.718V536.048h-55.886V598.79h-12.387V567.85h-23.154v-9.364h-6.778v3.486h-6.084v4.142h-4.21v53.153h-54.009v31.155h-50.045v-9.532c-.037-.013-.059-.041-.1-.053h-4.61V613.713c-.006-.265,0-.525,0-.787v-7.968h2.23V592.306h-8.461v-6.359h-16.457v44.611h-21.02c-5.263-.175-4.285-6.162-9.339-6.528h-26.861c.472-1.38.35-2.2-.128-2.686h-6.106V557.593c-.643.013-1.83.294-1.946.063-.637-1.29.234-3.23.131-4.747h-44.385c-2.53,1.084-4.226,2.842-6.687,3.532v89.477h-12.215V521.7c-3.47-.165-12.928-.759-12.928-2.355,0-1.943,7.137-3.454,7.137-3.454l.047-4.729-53.725-.29-.022,3.745s6.893.128,7.027,2.783c.128,2.458-5.834,2.177-5.834,2.177s-5.435-.147-7.746-.028V644.869H2239.96V617.961h-5.531V605.508h-4.635v-12.29h-4.279v-21.17h-14.136V500.292c-8.461-1.134-19.633.25-28.713-.306-1.783,1.821-1.559,3.995-2.336,6.531-1.555,5.053-3.448,10.679-4.672,15.229a13.717,13.717,0,0,1-1.065,2.486v97.354h-1.268v.268h-15.186V529.386h-7.8V526.8H2140.5V523.92h-3.9v-8.57h-2.773v6.84H2132.4c-1.215,11.41-.662,21.361-1.127,31.115-1.137,24.168-3.873,49.4-4.526,73.283v10.647H2109.8v2.583H2098.86V530.136h-4.932V525l-.019.009v-.778c0-.109.013-.206.019-.309v-4.339l-.019-.012v-1.655l.019-.025v-3.7c-.006-.025-.019-.038-.019-.056v-3.392c.006-.306.013-.615.019-.918h-2.021v4.8h-4.376V486.978h-3.992V473.744c-.946-1.081-2.72-1.4-2.964-3.136-.712-2.6,1.462-7.9-1.171-8.7-4.438-.871-1.484,5.144-2.333,7.618.272,3.12-3.439,2.536-4.429,4.485v12.971h-4.288v27.654h-2.917v-4.894h-1.653v20.776h-5.247l-.006,0v93.9l-6.6.019h-12.278V606.642H2005.2v-10.9l-.044-.006V493.171H1929.7V598.184h-41.687V567.972h-7.127V505.555h-8.911V425.7h-6.943V414.975h-31.624c-5.8,2.071-10.263,6.15-15.789,6.618V604.643h-9.039V601.3h-2.624v-4.092h-5.594V575.053h-2.774v-7.946l-11.2-9.439-11.837,9.439v7.149h-1.871v57.816h-12.116v-21.66h-2.261a3.141,3.141,0,0,1-3.245-3.02,2.9,2.9,0,0,1,.565-1.705h-.681a2.555,2.555,0,0,1-2.642-2.461,1.825,1.825,0,0,1,.04-.35h-8.8v-5.035h.012V536.995h-4.426v-4.688h-13.939c-.4,1.287-.231,3.1-2.658,2.5h-15.182c-.081-10.854.1-24,.009-33.713h-3.51v34.8h-16.085v63.8h-13.221v-31.1h-23.578V557.971h-5.385v3.242h-3.739c-.009.025-.031.037-.043.056v.9h-4.154v5.119h-3.354v53.272l-53.069,88.253V737.31h-7.54V604.081h-9.617V539.874h-8.068V502.991h-8.055v-8.88h-32.976l-16.854,9.248V643.379h-11.6v-8.245h-8.655V605.624h-23.013v6.05h-3.57v30.449H1441.5V542.857h-30.19s-10.513,26.986-11.026,27.979v69.2h-11.978V587.215h-7.087v-4.1h-3.664V578.11h-6.6V553.979h-3.18v-7.967h-4.151v-4.1h-10.5v6.831h-8.961a2.355,2.355,0,0,0-.085.284v1.946a17.267,17.267,0,0,1,.141,2.118.807.807,0,0,1-.141.4v61.73h-12.7V592h-4.888v-5.463h-5.375v-2.958h-8.065V514.594h-58.406v65.568H1241.7V547.83h-24.2v-9.789h-7.087v3.642h-6.353v4.326h-4.4V601.56h-56.442v32.558h-52.3v-9.96c-.037-.016-.062-.044-.1-.059H1086V595.754c-.006-.275,0-.546,0-.821v-8.327h2.33V573.382h-8.842v-6.643h-17.2V613.36h-21.97c-5.5-.184-4.479-6.44-9.76-6.821h-28.07c.494-1.443.369-2.3-.134-2.811h-6.378V537.107c-.675.013-1.915.306-2.033.063-.668-1.349.244-3.373.134-4.96H947.7c-2.646,1.131-4.417,2.97-6.99,3.692v93.509H927.94V499.593c-3.626-.172-13.512-.8-13.512-2.458,0-2.036,7.461-3.611,7.461-3.611l.047-4.947-56.145-.3-.022,3.91s7.2.138,7.343,2.911c.134,2.568-6.1,2.274-6.1,2.274s-5.681-.153-8.1-.031V628.315H847.558V600.2h-5.781V587.177h-4.841V574.334h-4.473V552.215H817.69V477.223c-8.845-1.184-20.517.259-30.006-.322-1.865,1.905-1.63,4.176-2.439,6.824-1.63,5.282-3.608,11.163-4.888,15.92a13.832,13.832,0,0,1-1.112,2.6V603.984h-1.328v.281H762.051V507.626H753.9v-2.7H743.617v-3.011h-4.07v-8.958h-2.9v7.149h-1.493c-1.268,11.922-.69,22.319-1.177,32.517-1.19,25.258-4.048,51.629-4.729,76.587v11.125H711.537v2.7H700.1V508.413h-5.157v-5.369l-.019.012v-.815c0-.112.013-.216.019-.322v-4.535l-.019-.012v-1.73l.019-.025V491.75a.234.234,0,0,1-.019-.056v-3.548c.009-.319.013-.64.019-.956h-2.108v5.019h-4.579v-28.9h-4.17v-13.83c-.987-1.134-2.842-1.462-3.1-3.28-.743-2.72,1.53-8.245-1.221-9.1-4.638-.912-1.552,5.375-2.439,7.961.284,3.264-3.595,2.652-4.629,4.688v13.555h-4.479v28.9h-3.051V487.1h-1.724V508.8h-5.485l-.009,0v98.135l-6.9.019H638.223V588.367H602.217V576.977l-.047-.009V469.781H523.318V579.525H479.751V547.951H472.3V482.724h-9.314V399.278h-7.256V388.062H422.688c-6.069,2.165-10.726,6.425-16.5,6.918v191.3h-9.445v-3.492H394v-4.279H388.15V555.354h-2.9v-8.3l-11.7-9.864-12.372,9.86v7.477h-1.952v60.424H346.566V592.306H344.2a3.283,3.283,0,0,1-3.392-3.158,3.028,3.028,0,0,1,.594-1.777h-.709a2.678,2.678,0,0,1-2.764-2.577,2.021,2.021,0,0,1,.044-.365h-9.2v-5.26h.013V515.578h-4.626v-4.9H309.588c-.419,1.343-.237,3.242-2.777,2.608H290.945c-.087-11.344.1-25.077.009-35.231h-3.673v36.371H270.475V581.1H256.66v-32.5H232.014V537.5h-5.622v3.392h-3.91c-.009.019-.031.034-.041.056v.94H218.1v5.347h-3.508v55.677l-55.458,92.232v29.778H145.707v287.294H2934.771V978.575h1018.1Z" transform="translate(-479.006 4138.283)" fill="#eff8ff" fill-rule="evenodd"/>
      <path id="Path_11772" data-name="Path 11772" d="M145.707,594.057h4.62v-38.2h11.761V526.483h21.983v-8.891h6.435V520.9h5.777v3.935h4V575.3h51.28v29.581h47.516v-9.051c.035-.015.056-.039.092-.05h4.377V570.028c.006-.255,0-.5,0-.75v-7.565h-2.117V549.7h8.033v-6.038h15.625v42.356h19.958c5-.166,4.069-5.851,8.867-6.2h25.5c-.448-1.311-.332-2.088.122-2.55h5.795V516.744c.614.015,1.741.276,1.847.059.608-1.228-.219-3.066-.122-4.508H429.2c2.4,1.029,4.012,2.7,6.352,3.354v84.958h11.6V482.662c3.3-.157,12.274-.72,12.274-2.236,0-1.844-6.776-3.28-6.776-3.28l-.044-4.493,51.009-.276.021,3.556s-6.545.125-6.672,2.642c-.122,2.337,5.539,2.067,5.539,2.067s5.161-.136,7.355-.024v118.99h10.323V574.061h5.252V562.235h4.4V550.566h4.063v-20.1h13.422V462.339c8.033-1.076,18.641.237,27.259-.294,1.693,1.729,1.483,3.8,2.218,6.2,1.48,4.8,3.277,10.142,4.439,14.463a13.04,13.04,0,0,0,1.011,2.361V577.5h1.2v.252h14.418V489.963h7.407v-2.455h9.339V484.77h3.7v-8.134h2.633v6.491h1.356c1.153,10.836.628,20.281,1.067,29.542,1.082,22.95,3.68,46.908,4.3,69.582v10.109h16.091v2.45h10.391V490.675h4.682V485.8l.018.009v-.738c0-.107-.012-.2-.018-.3v-4.119l.018-.012v-1.572l-.018-.021v-3.511a.242.242,0,0,0,.018-.053v-3.22c-.006-.291-.012-.584-.018-.872h1.918v4.561H664.9V449.694h3.79V437.133c.9-1.029,2.583-1.329,2.814-2.98.677-2.47-1.388-7.494,1.112-8.265,4.214-.827,1.409,4.884,2.215,7.233-.261,2.966,3.265,2.411,4.2,4.258v12.316h4.072v26.259h2.77v-4.647h1.569V491.03h4.982l.006.006v89.155l6.269.015h11.657V563.314h32.712v-10.35l.044,0V455.578h71.638v99.706h39.581V526.6H861.1V467.336h8.46V391.52h6.593V381.334h30.026c5.51,1.966,9.744,5.839,14.99,6.284v173.8h8.582v-3.173h2.495v-3.885h5.308V533.321h2.636v-7.547l10.628-8.959,11.239,8.959v6.791h1.777v54.894h11.5V566.891h2.147a2.979,2.979,0,0,0,3.081-2.865,2.745,2.745,0,0,0-.537-1.619h.646a2.429,2.429,0,0,0,2.509-2.34,2.121,2.121,0,0,0-.035-.332h8.356v-4.778H991.5V497.184h4.2v-4.451h13.234c.38,1.222.22,2.948,2.524,2.373h14.415c.077-10.305-.094-22.784-.008-32.01h3.333v33.041h15.272v60.576h12.553v-29.53h22.386V517.1h5.112v3.081h3.55c.009.021.03.033.039.05v.857h3.947v4.861h3.185v50.579l19.848,33.006h6.011V551.2h7.331V517.693h7.319v-8.069h29.958l15.313,8.4V645.236h10.543v-7.494h7.861V610.934h20.907v5.5h3.241V644.1h8.876V553.911h27.431s9.552,24.519,10.012,25.417V642.2h10.886v-47.99h6.435v-3.722h3.33v-4.546h6V564.017h2.885v-7.242h3.77v-3.722h9.546v6.207h8.14a2.361,2.361,0,0,1,.08.255v1.77a15.017,15.017,0,0,0-.131,1.922.714.714,0,0,0,.131.368v56.084H1332.5v-21.1h4.439V593.6h4.884v-2.69h7.328V528.23h53.062V587.8h11.761V558.424h21.983v-8.891h6.435v3.309h5.777v3.932h4v50.467h51.279v29.581h47.516v-9.051c.035-.012.056-.039.092-.05h4.377V601.969c.006-.252,0-.5,0-.747v-7.565h-2.117V581.644h8.033v-6.038h15.625v42.356h19.958c5-.166,4.069-5.851,8.867-6.2h25.5c-.448-1.311-.332-2.088.121-2.55h5.8V548.685c.611.012,1.738.279,1.848.059.6-1.225-.223-3.066-.125-4.508h42.143c2.4,1.029,4.012,2.7,6.349,3.354v84.956h11.6V514.6c3.295-.157,12.274-.721,12.274-2.236,0-1.844-6.777-3.28-6.777-3.28l-.044-4.49,51.01-.276.021,3.556s-6.545.122-6.672,2.642c-.122,2.334,5.54,2.067,5.54,2.067s5.16-.139,7.354-.027V631.55h10.323V606h5.252V594.179h4.4V582.51h4.063v-20.1H1799.2V494.281c8.033-1.076,18.641.237,27.261-.291,1.693,1.729,1.48,3.793,2.218,6.2,1.477,4.8,3.274,10.139,4.436,14.46a13.006,13.006,0,0,0,1.011,2.361v92.434h1.2v.255h14.418V521.9h7.408v-2.452h9.338v-2.737h3.7v-8.137h2.633v6.494h1.355c1.153,10.833.628,20.281,1.07,29.542,1.079,22.947,3.677,46.905,4.3,69.579V624.3h16.091v2.453h10.391V522.616h4.682v-4.875l.018.009v-.738c0-.1-.012-.2-.018-.294V512.6l.018-.012v-1.572l-.018-.024V507.48c.006-.024.018-.036.018-.053v-3.221c-.006-.29-.012-.584-.018-.872h1.918V507.9h4.155V481.639h3.79V469.074c.9-1.026,2.583-1.326,2.814-2.977.676-2.47-1.388-7.5,1.112-8.265,4.214-.827,1.409,4.884,2.215,7.233-.258,2.962,3.265,2.408,4.2,4.258v12.316h4.072V507.9h2.77v-4.647h1.569v19.726h4.982l.006,0v89.154l6.269.018h11.657V595.256h32.713V584.909l.042-.006V487.519h71.64v99.706h39.581V558.54h6.767V499.277h8.46V423.462h6.592V413.275h30.025c5.51,1.966,9.745,5.839,14.991,6.284v173.8h8.583v-3.173h2.491V586.3h5.311V565.263h2.634v-7.544l10.631-8.962,11.239,8.962v6.788h1.776V619.4h11.5V598.835h2.147a2.982,2.982,0,0,0,3.081-2.868,2.748,2.748,0,0,0-.537-1.619h.646a2.426,2.426,0,0,0,2.509-2.337,1.742,1.742,0,0,0-.038-.332h8.36V586.9h-.012V529.128h4.2v-4.451h13.235c.38,1.222.219,2.945,2.524,2.37h14.415c.077-10.305-.095-22.784-.009-32.01h3.333v33.045h15.272v60.573H2308.9v-29.53h22.386v-10.08h5.112v3.078h3.55c.009.024.03.035.042.053v.857h3.944v4.86h3.185v50.58l50.387,83.793V719.32h7.159v-126.5h9.13V531.862h7.66V496.843h7.648v-8.431h31.31l16,8.781V630.136h11.017v-7.829h8.218V594.289h21.85v5.744h3.389v28.91h9.273V534.694h28.664s9.982,25.622,10.469,26.565v65.7h11.372V576.81h6.729V572.92h3.479v-4.754h6.263V545.254h3.019V537.69h3.941V533.8h9.973v6.485h8.508a2.241,2.241,0,0,1,.08.27V542.4a16.379,16.379,0,0,0-.133,2.011.767.767,0,0,0,.133.382V603.4h12.061V581.353h4.641v-5.187h5.1v-2.808h7.657v-65.5h55.455v62.254h12.289v-30.7h22.974v-9.294h6.729v3.458h6.032v4.107h4.182v52.744h53.589v30.912h49.657v-9.457c.036-.015.059-.042.095-.056h4.576V584.918c.006-.261,0-.519,0-.78v-7.906h-2.212V563.676h8.4v-6.308h16.328v44.266h20.859c5.222-.175,4.252-6.115,9.267-6.477h26.651c-.469-1.37-.35-2.185.127-2.669h6.056V529.235c.641.012,1.818.291,1.93.059.635-1.281-.231-3.2-.127-4.709h44.041c2.512,1.074,4.193,2.82,6.637,3.505v88.784h12.12V493.616c3.443-.163,12.829-.756,12.829-2.334,0-1.934-7.084-3.428-7.084-3.428l-.045-4.7,53.308-.285.021,3.713s-6.838.131-6.972,2.764c-.127,2.438,5.789,2.159,5.789,2.159s5.394-.145,7.686-.03V615.833h10.789v-26.7h5.489v-12.36h4.6V564.581h4.247v-21h14.027v-71.2c8.4-1.124,19.48.246,28.49-.305,1.77,1.809,1.548,3.965,2.316,6.48,1.548,5.015,3.425,10.6,4.641,15.115a13.132,13.132,0,0,0,1.056,2.465v96.6h1.26V593h15.064V501.244h7.743v-2.562h9.759v-2.859h3.864v-8.5h2.752v6.788h1.417c1.2,11.319.655,21.191,1.118,30.874,1.13,23.982,3.843,49.02,4.49,72.717v10.563h16.817v2.562H3234.1V501.991h4.9v-5.1l.018.012v-.774c0-.107-.012-.2-.018-.306V491.52l.018-.012v-1.643l-.018-.024V486.17a.23.23,0,0,0,.018-.053v-3.369c-.009-.3-.012-.608-.018-.908h2v4.766h4.347v-27.44h3.959V446.035c.937-1.076,2.7-1.388,2.942-3.114.706-2.583-1.453-7.829,1.159-8.636,4.4-.866,1.474,5.1,2.316,7.559-.27,3.1,3.413,2.518,4.395,4.451v12.87h4.252v27.44h2.9v-4.854h1.637v20.61h5.207l.009,0V595.54l6.551.018h12.182V577.9h34.186V567.089l.044-.009V465.311h74.867v104.2h41.366V539.531h7.07V477.6h8.843V398.371h6.889V387.722h31.378c5.762,2.055,10.184,6.1,15.67,6.569V575.921h8.968v-3.315h2.6v-4.063h5.551V546.559h2.752v-7.885l11.109-9.365,11.746,9.362v7.1h1.854v57.371h12.022v-21.5h2.248a3.117,3.117,0,0,0,3.22-3,2.876,2.876,0,0,0-.563-1.687h.673a2.543,2.543,0,0,0,2.625-2.446,1.914,1.914,0,0,0-.042-.347h8.736v-4.994h-.012V508.794h4.392v-4.65h13.831c.4,1.275.225,3.078,2.636,2.476h15.064c.083-10.771-.1-23.81-.009-33.451h3.487V507.7h15.958V571h13.116V540.142h23.4V529.609h5.338v3.221h3.713c.009.018.03.033.039.053v.893h4.125v5.077h3.33v52.863l52.655,87.571v28.273h12.746V980.334H1112.36V948.393H145.707Z" transform="translate(-1586.006 4173.666)" fill="#b7dce5" fill-rule="evenodd"/>
    </g>
  </g>
</svg>
