<svg xmlns="http://www.w3.org/2000/svg" xmlns:xlink="http://www.w3.org/1999/xlink" width="1920" height="198" viewBox="0 0 1920 198">
  <defs>
    <clipPath id="clip-path">
      <rect id="Rectangle_10673" data-name="Rectangle 10673" width="1920" height="198" transform="translate(0 948)" fill="#fff" stroke="#707070" stroke-width="1"/>
    </clipPath>
  </defs>
  <g id="Mask_Group_1" data-name="Mask Group 1" transform="translate(0 -948)" clip-path="url(#clip-path)">
    <g id="Group_6048" data-name="Group 6048">
      <g id="Group_149" data-name="Group 149" transform="translate(-130 110)">
        <path id="Path_500" data-name="Path 500" d="M523.722,586.286h663.662s30.932-38.246-99.91-31.87c0,0,2.388-52.6-71.357-25.509,0,0-30.916-31.447-54.709-7.751,0,0-111.794-82.811-190.292-8.84,0,0-71.375-11.606-76.127,21.619,0,0-85.635-11.4-80.867,28.441C614.122,562.376,533.243,556.009,523.722,586.286Z" transform="translate(959.793 445.367)" fill="#bbdff2"/>
        <path id="Path_501" data-name="Path 501" d="M523.722,540.986H1125.2s28.034-21.7-90.548-18.081c0,0,2.164-29.842-64.671-14.473,0,0-28.019-17.841-49.583-4.4,0,0-101.319-46.982-172.461-5.015,0,0-64.687-6.585-68.994,12.266,0,0-77.611-6.466-73.29,16.136C605.651,527.421,532.351,523.809,523.722,540.986Z" transform="translate(-796.722 445.367)" fill="#bbdff2"/>
        <path id="Path_505" data-name="Path 505" d="M-4.111,95.822,675.241,79.776s33.166-35.75-101.02-26.751c0,0,4.509-48.2-72.043-21.621,0,0-30.412-28.033-55.7-5.771,0,0-111.186-73.085-194.443-3.49,0,0-72.607-8.9-78.776,21.627,0,0-87.212-8.36-83.9,27.984C89.365,71.754,6.824,67.882-4.111,95.822Z" transform="translate(230.957 899.102) rotate(3)" fill="#bbdff2"/>
        <path id="Path_504" data-name="Path 504" d="M523.722,561.154h680.193s31.7-29.065-102.4-24.22c0,0,2.447-39.974-73.135-19.386,0,0-31.686-23.9-56.072-5.891,0,0-114.579-62.933-195.032-6.718,0,0-73.153-8.82-78.024,16.43,0,0-87.768-8.661-82.882,21.614C616.373,542.983,533.48,538.144,523.722,561.154Z" transform="translate(73.73 435.283)" fill="#bbdff2"/>
        <path id="Path_506" data-name="Path 506" d="M5.184,100.131l678.779,20.234S713.706,84.732,580.2,86.84c0,0-.162-50.231-74.246-26.571,0,0-33.177-31.017-56.339-9.081,0,0-118.441-82.6-195.064-14.256,0,0-73.575-13.276-76.791,18.355,0,0-88.15-13.51-81.3,24.734C96.459,80.021,13.423,71.465,5.184,100.131Z" transform="matrix(0.998, -0.07, 0.07, 0.998, 970.731, 920.537)" fill="#bbdff2"/>
      </g>
      <g id="Group_148" data-name="Group 148">
        <path id="Path_500-2" data-name="Path 500" d="M523.722,681.439H1303.8s36.358-73-117.435-60.833c0,0,2.807-100.4-83.874-48.692,0,0-36.339-60.026-64.306-14.8,0,0-131.4-158.071-223.671-16.874,0,0-83.895-22.154-89.481,41.267,0,0-100.656-21.755-95.052,54.288C629.979,635.8,534.913,623.645,523.722,681.439Z" transform="translate(1022.278 466.415)" fill="#85c5ea"/>
        <path id="Path_501-2" data-name="Path 501" d="M523.722,681.582h655.026s30.53-73.055-98.609-60.876c0,0,2.357-100.474-70.429-48.727,0,0-30.514-60.069-54-14.806,0,0-110.34-158.184-187.815-16.887,0,0-70.446-22.17-75.137,41.3,0,0-84.521-21.77-79.815,54.327C612.945,635.91,533.119,623.747,523.722,681.582Z" transform="translate(-796.722 479.415)" fill="#85c5ea"/>
        <path id="Path_505-2" data-name="Path 505" d="M523.722,655.849h680.193s31.7-63.656-102.4-53.044c0,0,2.447-87.547-73.135-42.458,0,0-31.686-52.34-56.072-12.9,0,0-114.579-137.831-195.032-14.714,0,0-73.153-19.318-78.024,35.983,0,0-87.768-18.969-82.882,47.337C616.373,616.054,533.48,605.455,523.722,655.849Z" transform="translate(-266.843 479.817) rotate(3)" fill="#85c5ea"/>
        <path id="Path_504-2" data-name="Path 504" d="M523.722,655.849h680.193s31.7-63.656-102.4-53.044c0,0,2.447-87.547-73.135-42.458,0,0-31.686-52.34-56.072-12.9,0,0-114.579-137.831-195.032-14.714,0,0-73.153-19.318-78.024,35.983,0,0-87.768-18.969-82.882,47.337C616.373,616.054,533.48,605.455,523.722,655.849Z" transform="translate(73.73 533.331)" fill="#85c5ea"/>
        <path id="Path_506-2" data-name="Path 506" d="M523.722,655.849h680.193s31.7-63.656-102.4-53.044c0,0,2.447-87.547-73.135-42.458,0,0-31.686-52.34-56.072-12.9,0,0-114.579-137.831-195.032-14.714,0,0-73.153-19.318-78.024,35.983,0,0-87.768-18.969-82.882,47.337C616.373,616.054,533.48,605.455,523.722,655.849Z" transform="matrix(0.998, -0.07, 0.07, 0.998, 414.691, 592.088)" fill="#85c5ea"/>
      </g>
    </g>
  </g>
</svg>
