<svg xmlns="http://www.w3.org/2000/svg" xmlns:xlink="http://www.w3.org/1999/xlink" width="1920" height="156" viewBox="0 0 1920 156">
  <defs>
    <clipPath id="clip-path">
      <rect id="Rectangle_10607" data-name="Rectangle 10607" width="1920" height="156" transform="translate(0 948)" fill="#fff" stroke="#707070" stroke-width="1"/>
    </clipPath>
  </defs>
  <g id="Mask_Group_1" data-name="Mask Group 1" transform="translate(0 -948)" clip-path="url(#clip-path)">
    <g id="Group_6036" data-name="Group 6036">
      <g id="Group_149" data-name="Group 149" transform="translate(-130 110)">
        <path id="Path_500" data-name="Path 500" d="M523.722,540.986H1125.2s28.034-21.7-90.548-18.081c0,0,2.164-29.842-64.671-14.473,0,0-28.019-17.841-49.583-4.4,0,0-101.319-46.982-172.461-5.015,0,0-64.687-6.585-68.994,12.266,0,0-77.611-6.466-73.29,16.136C605.651,527.421,532.351,523.809,523.722,540.986Z" transform="translate(1022.278 445.367)" fill="#893c17"/>
        <path id="Path_501" data-name="Path 501" d="M523.722,540.986H1125.2s28.034-21.7-90.548-18.081c0,0,2.164-29.842-64.671-14.473,0,0-28.019-17.841-49.583-4.4,0,0-101.319-46.982-172.461-5.015,0,0-64.687-6.585-68.994,12.266,0,0-77.611-6.466-73.29,16.136C605.651,527.421,532.351,523.809,523.722,540.986Z" transform="translate(-796.722 445.367)" fill="#893c17"/>
        <path id="Path_505" data-name="Path 505" d="M-4.111,95.822,675.241,79.776s33.166-35.75-101.02-26.751c0,0,4.509-48.2-72.043-21.621,0,0-30.412-28.033-55.7-5.771,0,0-111.186-73.085-194.443-3.49,0,0-72.607-8.9-78.776,21.627,0,0-87.212-8.36-83.9,27.984C89.365,71.754,6.824,67.882-4.111,95.822Z" transform="translate(230.957 899.102) rotate(3)" fill="#893c17"/>
        <path id="Path_504" data-name="Path 504" d="M523.722,561.154h680.193s31.7-29.065-102.4-24.22c0,0,2.447-39.974-73.135-19.386,0,0-31.686-23.9-56.072-5.891,0,0-114.579-62.933-195.032-6.718,0,0-73.153-8.82-78.024,16.43,0,0-87.768-8.661-82.882,21.614C616.373,542.983,533.48,538.144,523.722,561.154Z" transform="translate(73.73 435.283)" fill="#893c17"/>
        <path id="Path_506" data-name="Path 506" d="M5.184,100.131l678.779,20.234S713.706,84.732,580.2,86.84c0,0-.162-50.231-74.246-26.571,0,0-33.177-31.017-56.339-9.081,0,0-118.441-82.6-195.064-14.256,0,0-73.575-13.276-76.791,18.355,0,0-88.15-13.51-81.3,24.734C96.459,80.021,13.423,71.465,5.184,100.131Z" transform="translate(970.731 920.537) rotate(-4.012)" fill="#893c17"/>
      </g>
      <g id="Group_148" data-name="Group 148">
        <path id="Path_500-2" data-name="Path 500" d="M523.722,639.857H1141.5s28.794-57.814-93-48.176c0,0,2.223-79.512-66.423-38.561,0,0-28.778-47.537-50.926-11.717,0,0-104.064-125.182-177.133-13.363,0,0-66.44-17.545-70.863,32.681,0,0-79.714-17.228-75.276,42.993C607.871,603.714,532.585,594.088,523.722,639.857Z" transform="translate(1005.904 466.415)" fill="#b15a30"/>
        <path id="Path_501-2" data-name="Path 501" d="M523.722,635.682H1125.2s28.034-56.289-90.548-46.905c0,0,2.164-77.415-64.671-37.544,0,0-28.019-46.283-49.583-11.408,0,0-101.319-121.88-172.461-13.011,0,0-64.687-17.082-68.994,31.819,0,0-77.611-16.774-73.29,41.859C605.651,600.492,532.351,591.12,523.722,635.682Z" transform="translate(-796.722 479.415)" fill="#b15a30"/>
        <path id="Path_505-2" data-name="Path 505" d="M523.722,655.849h680.193s31.7-63.656-102.4-53.044c0,0,2.447-87.547-73.135-42.458,0,0-31.686-52.34-56.072-12.9,0,0-114.579-137.831-195.032-14.714,0,0-73.153-19.318-78.024,35.983,0,0-87.768-18.969-82.882,47.337C616.373,616.054,533.48,605.455,523.722,655.849Z" transform="translate(-266.843 479.817) rotate(3)" fill="#b15a30"/>
        <path id="Path_504-2" data-name="Path 504" d="M523.722,655.849h680.193s31.7-63.656-102.4-53.044c0,0,2.447-87.547-73.135-42.458,0,0-31.686-52.34-56.072-12.9,0,0-114.579-137.831-195.032-14.714,0,0-73.153-19.318-78.024,35.983,0,0-87.768-18.969-82.882,47.337C616.373,616.054,533.48,605.455,523.722,655.849Z" transform="translate(73.73 533.331)" fill="#b15a30"/>
        <path id="Path_506-2" data-name="Path 506" d="M523.722,655.849h680.193s31.7-63.656-102.4-53.044c0,0,2.447-87.547-73.135-42.458,0,0-31.686-52.34-56.072-12.9,0,0-114.579-137.831-195.032-14.714,0,0-73.153-19.318-78.024,35.983,0,0-87.768-18.969-82.882,47.337C616.373,616.054,533.48,605.455,523.722,655.849Z" transform="translate(414.691 592.088) rotate(-4.012)" fill="#b15a30"/>
      </g>
    </g>
  </g>
</svg>
