<svg id="Group_5897" data-name="Group 5897" xmlns="http://www.w3.org/2000/svg" width="199.109" height="133.279" viewBox="0 0 199.109 133.279">
  <path id="Path_11955" data-name="Path 11955" d="M287.724,402.249s38.728,23.919,6.379,52.46a69.692,69.692,0,0,1-34.484,16.042c-25.054,4.3-73.29,7.016-97.785-28.608,0,0-3.4-4.327,9.27-5.876,0,0-27.81-11.068-22.458-24.028,0,0,1.855-5.539,13.187-2.238,0,0-27.4-15.457-9.892-32.557,0,0,75.1,35.8,96.738,11.768C248.68,389.212,260.142,402.467,287.724,402.249Z" transform="translate(-146.096 -339.923)" fill="#f7c42b"/>
  <path id="Path_11956" data-name="Path 11956" d="M182.146,410.468A36.136,36.136,0,0,1,148.138,386.5a23.913,23.913,0,0,0,11.856-6.783s11.462,13.255,39.044,13.037a53.77,53.77,0,0,1,8.69,7.115A36.045,36.045,0,0,1,182.146,410.468Z" transform="translate(-57.41 -330.426)" fill="#eacb8b" opacity="0.5"/>
  <path id="Path_11957" data-name="Path 11957" d="M155.327,383.548s11.706,11.125,58.419,2.943a24.324,24.324,0,0,1,17.333,3.15c6.187,3.974,10.98,11.436,2.441,25.038C217.757,439.791,155.016,421.561,155.327,383.548Z" transform="translate(-125.065 -314.398)" fill="#eba900"/>
  <path id="Path_11958" data-name="Path 11958" d="M150.246,376.629s11.332,14.467,39.35,15.214c0,0-2.575,27.743-50.786,6.726C138.81,398.568,136.955,379.723,150.246,376.629Z" transform="translate(9.513 -343.331)" fill="#ff765d"/>
  <path id="Path_11959" data-name="Path 11959" d="M156.312,376.629a33.8,33.8,0,0,0,7.918,6.55,35.922,35.922,0,0,1-7.55,19.882,123.14,123.14,0,0,1-11.8-4.493S143.021,379.723,156.312,376.629Z" transform="translate(3.447 -343.331)" fill="#eacb8b" opacity="0.5"/>
  <path id="Path_11960" data-name="Path 11960" d="M145.66,406.366A36.161,36.161,0,1,0,181.823,370.2,36.16,36.16,0,0,0,145.66,406.366Z" transform="translate(-54.823 -370.203)" fill="#f7c42b"/>
  <path id="Path_11961" data-name="Path 11961" d="M149.358,381.081a6.182,6.182,0,1,0,6.182-6.182A6.184,6.184,0,0,0,149.358,381.081Z" transform="translate(-17.725 -350.566)" fill="#3c393e"/>
</svg>
