<svg xmlns="http://www.w3.org/2000/svg" width="225.599" height="211.955" viewBox="0 0 225.599 211.955">
  <g id="Group_5896" data-name="Group 5896" transform="translate(-67.521 -282.316)">
    <path id="Path_11945" data-name="Path 11945" d="M84.116,321.024s-18.405-29.943,21.01-37.7,45.08,31.28,45.322,42.509,7.191,47.855,14.142,51.332c0,0-24.864,3.477-32.616-18.447s2.477-47.493-24.437-52.67C92.138,303.09,83.849,318.351,84.116,321.024Z" transform="translate(17.841 0)" fill="#3c393e"/>
    <path id="Path_11946" data-name="Path 11946" d="M142.575,324.284s26.736-19.515,41.708,18.984L152.2,369.2S156.21,335.513,142.575,324.284Z" transform="translate(108.837 53.686)" fill="#3c393e"/>
    <path id="Path_11947" data-name="Path 11947" d="M265.047,386.418c1.9-26.515-32.885-25.133-47.591-22.193s-48.123,10.212-57.749-4.383c-8.994-13.642.681-52.119-25.288-61.245l-3.653-9.938a2.812,2.812,0,0,0-4.9-.7l-6.387,8.678c-23.384,1.451-19.368,27.135-28.078,31.624,0,0-31.682,12.836-22.056,28.475s36.494,4.947,49.727-4.545c0,0,15.507,20.586,10.962,32.351S103.3,454.859,103.3,454.859l30.746,13.9s17.913-46.518,26.469-50.8,58.283-2.408,64.166,10.959,16.308,41,16.308,41l28.073-12.552S261.839,431.064,265.047,386.418Z" transform="translate(0 6.527)" fill="#daa332"/>
    <path id="Path_11948" data-name="Path 11948" d="M93.383,304.891a4.812,4.812,0,1,1-4.812-4.812A4.813,4.813,0,0,1,93.383,304.891Z" transform="translate(23.547 25.758)" fill="#3c393e"/>
    <path id="Path_11949" data-name="Path 11949" d="M73.33,308.7l13.88,30.014a25.582,25.582,0,0,0,8.757-2.967L82.974,303.734S75.535,306.111,73.33,308.7Z" transform="translate(8.424 31.058)" fill="#b57624"/>
    <path id="Path_11950" data-name="Path 11950" d="M77.43,323.9l2.673,6.417,59.65-16.911s-.608-12.515-2.4-13.3C134.824,298.993,77.43,323.9,77.43,323.9Z" transform="translate(14.369 25.736)" fill="#b57624"/>
    <path id="Path_11951" data-name="Path 11951" d="M106.563,318.1s-4.236,39.447,25.439,38.91,36.149-19.251,36.389-39.033C168.391,317.975,120.959,327.045,106.563,318.1Z" transform="translate(56.312 51.709)" fill="#f7c42b"/>
    <path id="Path_11952" data-name="Path 11952" d="M143.565,382.5l28.073-12.552s-2.207-8.088-3.638-22.842L134.7,359.59C139.307,371.223,143.565,382.5,143.565,382.5Z" transform="translate(97.419 93.953)" fill="#b57624"/>
    <path id="Path_11953" data-name="Path 11953" d="M91.506,345.306c-5.148,13.564-9.384,24.739-9.384,24.739l30.746,13.9s4.609-11.966,10.268-24.32Z" transform="translate(21.173 91.342)" fill="#b57624"/>
    <path id="Path_11954" data-name="Path 11954" d="M271.884,350.93c-32.971,32.185-95.182,30.413-95.182,30.413s-62.211,1.772-95.177-30.413c0,0-12.738,8.058-4.5,15.053s46.5,28.791,99.673,28.791,91.433-21.8,99.675-28.791S271.884,350.93,271.884,350.93Z" transform="translate(9.762 99.497)" fill="#3c393e"/>
  </g>
</svg>
