<svg xmlns="http://www.w3.org/2000/svg" xmlns:xlink="http://www.w3.org/1999/xlink" width="146.215" height="146.211" viewBox="0 0 146.215 146.211">
  <defs>
    <clipPath id="clip-path">
      <path id="Path_11942" data-name="Path 11942" d="M232.444-5.836a72.1,72.1,0,0,1,72.265-71.946A72.1,72.1,0,0,1,376.657-5.519a72.108,72.108,0,0,1-72.265,71.948A72.108,72.108,0,0,1,232.444-5.836Z" transform="translate(-232.444 77.782)" fill="none" stroke="#9b9e9f" stroke-miterlimit="10" stroke-width="0.25"/>
    </clipPath>
  </defs>
  <g id="Group_5895" data-name="Group 5895" transform="translate(-231.443 78.782)">
    <path id="Path_11923" data-name="Path 11923" d="M232.443-5.554a72.106,72.106,0,0,1,71.985-72.228A72.105,72.105,0,0,1,376.657-5.8a72.106,72.106,0,0,1-71.983,72.23A72.11,72.11,0,0,1,232.443-5.554Z" transform="translate(0 0)" fill="#fff"/>
    <g id="Group_5894" data-name="Group 5894" transform="translate(232.445 -77.782)">
      <g id="Group_5893" data-name="Group 5893" clip-path="url(#clip-path)">
        <g id="Group_5892" data-name="Group 5892" transform="translate(2.801 2.626)">
          <path id="Path_11924" data-name="Path 11924" d="M271.37-30.56c-.031,14.624-.063,35.057-.087,46.465" transform="translate(-202.076 115.484)" fill="none" stroke="#9b9e9f" stroke-miterlimit="10" stroke-width="2.411"/>
          <path id="Path_11925" data-name="Path 11925" d="M276.4-47.854" transform="translate(-197.706 100.715)" fill="none" stroke="#000" stroke-miterlimit="10" stroke-width="1.808"/>
          <path id="Path_11926" data-name="Path 11926" d="M276.489,6.671C283.545,2.6,297.9-5.4,311.65-16.838" transform="translate(-197.63 127.202)" fill="none" stroke="#9b9e9f" stroke-miterlimit="10" stroke-width="2.411"/>
          <path id="Path_11927" data-name="Path 11927" d="M308.961-22.029c-6.407-4.112-20.24-12.209-28.125-16.862" transform="translate(-193.918 108.369)" fill="none" stroke="#9b9e9f" stroke-miterlimit="10" stroke-width="2.411"/>
          <path id="Path_11928" data-name="Path 11928" d="M273.329-31.963c10.045-10.6,27.552-27.834,34.453-34.5" transform="translate(-200.329 84.824)" fill="none" stroke="#9b9e9f" stroke-miterlimit="10" stroke-width="2.411"/>
          <path id="Path_11929" data-name="Path 11929" d="M299.957-62.917c3.337,14.524,5.5,31.926,6.669,48.929" transform="translate(-177.589 87.851)" fill="none" stroke="#9b9e9f" stroke-miterlimit="10" stroke-width="2.411"/>
          <path id="Path_11930" data-name="Path 11930" d="M297.168-73.192c-8.4-.527-17.066-.8-25.735-.816" transform="translate(-201.948 78.379)" fill="none" stroke="#9b9e9f" stroke-miterlimit="10" stroke-width="2.411"/>
          <path id="Path_11931" data-name="Path 11931" d="M299.4-29.988c-3.226,1.891-5.762,7.13-5.371,11.454.436,4.9.8,9.715,1.075,14.368.252,4.114,3.393,7.358,6.671,7.281a110.932,110.932,0,0,0,12.045-.768c2.412-.313,4.616-2.965,5.256-5.708.721-2.766,1.613-7.19,1.991-9.791a25.377,25.377,0,0,0-.489-8.94,88.054,88.054,0,0,0-4.322-11.5c-1.279-2.933-4.336-4.26-6.952-2.571C306.4-34.237,303.072-32.164,299.4-29.988Z" transform="translate(-182.683 110.065)"/>
          <path id="Path_11932" data-name="Path 11932" d="M289.821-58.171c1.246,3.141,5.49,6.685,9.231,7.614,4.251,1.055,8.276,2.214,11.967,3.478,3.267,1.1,6.137-.354,6.726-3.181.851-4.006,1.643-7.777,2.507-11.489.617-2.642-.4-6.417-2.56-8.124a48.918,48.918,0,0,0-8.28-5.4c-2.393-1.227-6.617-1.211-9.285-.478-3.782,1.053-7.612,1.923-11.673,2.835-2.85.625-4.268,2.733-2.992,5.191A95.556,95.556,0,0,1,289.821-58.171Z" transform="translate(-190.37 76.456)"/>
          <path id="Path_11933" data-name="Path 11933" d="M282.132,6.794C270.8.187,257.088-8.607,247.162-16.944" transform="translate(-222.675 127.111)" fill="none" stroke="#9b9e9f" stroke-miterlimit="10" stroke-width="2.411"/>
          <path id="Path_11934" data-name="Path 11934" d="M246.666-22.229C253.09-26.312,268.091-34.275,276-38.891" transform="translate(-223.099 108.369)" fill="none" stroke="#9b9e9f" stroke-miterlimit="10" stroke-width="2.411"/>
          <path id="Path_11935" data-name="Path 11935" d="M284.22-31.886c-10-10.649-26.429-27.971-33.3-34.666" transform="translate(-219.466 84.747)" fill="none" stroke="#9b9e9f" stroke-miterlimit="10" stroke-width="2.411"/>
          <path id="Path_11936" data-name="Path 11936" d="M246.03-63.042c-3.4,14.509-5.645,31.9-6.882,48.9" transform="translate(-229.519 87.744)" fill="none" stroke="#9b9e9f" stroke-miterlimit="10" stroke-width="2.411"/>
          <path id="Path_11937" data-name="Path 11937" d="M257.549-73.3c8.4-.489,17.073-.723,25.741-.7" transform="translate(-213.805 78.379)" fill="none" stroke="#9b9e9f" stroke-miterlimit="10" stroke-width="2.411"/>
          <path id="Path_11938" data-name="Path 11938" d="M269.327-58.21c-1.261,3.133-5.519,6.66-9.266,7.572-4.257,1.035-8.287,2.178-11.982,3.424-3.274,1.09-6.135-.38-6.713-3.209-.832-4.01-1.607-7.785-2.455-11.5-.606-2.647.432-6.417,2.6-8.113a48.638,48.638,0,0,1,8.3-5.367c2.4-1.22,6.622-1.183,9.287-.439,3.777,1.072,7.6,1.956,11.658,2.887,2.846.638,4.257,2.753,2.97,5.2A95.926,95.926,0,0,0,269.327-58.21Z" transform="translate(-229.868 76.366)"/>
          <path id="Path_11939" data-name="Path 11939" d="M255.872-30.076c3.219,1.906,5.732,7.158,5.321,11.482-.46,4.9-.84,9.709-1.14,14.361-.271,4.112-3.421,7.344-6.7,7.253a110.713,110.713,0,0,1-12.042-.825c-2.412-.323-4.6-2.979-5.234-5.727-.708-2.77-1.578-7.2-1.947-9.8a25.447,25.447,0,0,1,.528-8.938,88.245,88.245,0,0,1,4.374-11.478c1.289-2.929,4.355-4.244,6.962-2.544C248.893-34.353,252.214-32.266,255.872-30.076Z" transform="translate(-233.954 109.944)"/>
          <path id="Path_11940" data-name="Path 11940" d="M275.343,19.911a31.807,31.807,0,0,0,10.243.022,86.966,86.966,0,0,0,10.453-2.827c3.185-1.022,5.2-3.632,4.2-5.9C298.814,8.088,297.172,4.361,295.347.1a10.131,10.131,0,0,0-8.617-5.61c-3.408.067-9.014.054-12.42-.028A10.127,10.127,0,0,0,265.669.04c-1.845,4.249-3.5,7.968-4.939,11.085-1.012,2.258.992,4.874,4.171,5.912A86.935,86.935,0,0,0,275.343,19.911Z" transform="translate(-211.314 136.853)"/>
          <path id="Path_11941" data-name="Path 11941" d="M274.857-9.474a10.959,10.959,0,0,0,11.956.028c3.747-2.681,7.475-5.4,11.07-8.07a9.963,9.963,0,0,0,3.1-10.961c-2-5.236-4.107-10.46-6.224-15.446-1.505-3.534-5.2-6.368-8.258-6.43s-8.1-.083-11.159-.024-6.765,2.863-8.285,6.394c-2.141,4.976-4.264,10.188-6.292,15.416a9.964,9.964,0,0,0,3.052,10.976C267.4-14.9,271.118-12.171,274.857-9.474Z" transform="translate(-211.546 98.528)"/>
        </g>
      </g>
      <path id="Path_11943" data-name="Path 11943" d="M232.444-5.836a72.1,72.1,0,0,1,72.265-71.946A72.1,72.1,0,0,1,376.657-5.519a72.108,72.108,0,0,1-72.265,71.948A72.108,72.108,0,0,1,232.444-5.836Z" transform="translate(-232.444 77.782)" fill="none" stroke="#9b9e9f" stroke-miterlimit="10" stroke-width="0.25"/>
    </g>
    <path id="Path_11944" data-name="Path 11944" d="M232.443-5.554a72.106,72.106,0,0,1,71.985-72.228A72.105,72.105,0,0,1,376.657-5.8a72.106,72.106,0,0,1-71.983,72.23A72.11,72.11,0,0,1,232.443-5.554Z" transform="translate(0 0)" fill="none" stroke="#9b9e9f" stroke-miterlimit="10" stroke-width="2"/>
  </g>
</svg>
