<svg xmlns="http://www.w3.org/2000/svg" xmlns:xlink="http://www.w3.org/1999/xlink" width="676" height="943" viewBox="0 0 676 943">
  <defs>
    <clipPath id="clip-path">
      <rect id="Rectangle_10292" data-name="Rectangle 10292" width="676" height="943" transform="translate(1494 1223)" fill="rgba(255,255,255,0.45)"/>
    </clipPath>
    <linearGradient id="linear-gradient" x1="0.5" y1="0.456" x2="0.51" y2="0.979" gradientUnits="objectBoundingBox">
      <stop offset="0" stop-color="#f77a41"/>
      <stop offset="1" stop-color="#ad4718"/>
    </linearGradient>
  </defs>
  <g id="background-ticket-left" transform="translate(-1494 -1223)" clip-path="url(#clip-path)">
    <g id="Group_3465" data-name="Group 3465" transform="translate(1506 42)">
      <g id="Group_4765" data-name="Group 4765">
        <path id="Path_10478" data-name="Path 10478" d="M-.318,1158.734s673.041,209.61,673.56,456.311S-9.969,2096.325-9.969,2096.325Z" transform="translate(-10 30.664)" fill="#f77a41" opacity="0.494"/>
        <path id="Path_10479" data-name="Path 10479" d="M-32.431,1132.094s543.816,201,544.259,411.192-546.682,434.05-546.682,434.05Z" transform="translate(21.578 48.528)" fill="#f77a41" opacity="0.322"/>
        <path id="Path_10480" data-name="Path 10480" d="M-1.746,1158.734s517.491,179.029,517.934,389.219S-9.969,1957.56-9.969,1957.56Z" transform="translate(-10 30.664)" fill="url(#linear-gradient)"/>
      </g>
    </g>
    <g id="Group_3467" data-name="Group 3467" transform="translate(1528 143)">
      <text id="_" data-name="+" transform="translate(214 1299)" fill="#fff" font-size="35" font-family="Montserrat-Bold, Montserrat" font-weight="700" opacity="0.265"><tspan x="0" y="34">+</tspan></text>
      <text id="_2" data-name="+" transform="translate(61 1647)" fill="#fff" font-size="35" font-family="Montserrat-Light, Montserrat" font-weight="300" opacity="0.265"><tspan x="0" y="34">+</tspan></text>
      <circle id="Ellipse_17" data-name="Ellipse 17" cx="121" cy="121" r="121" transform="translate(158 1410)" fill="#fff" opacity="0.117"/>
      <g id="Ellipse_18" data-name="Ellipse 18" transform="translate(83 1383)" fill="none" stroke="#fff" stroke-width="2" opacity="0.265">
        <circle cx="75" cy="75" r="75" stroke="none"/>
        <circle cx="75" cy="75" r="74" fill="none"/>
      </g>
      <path id="Path_9640" data-name="Path 9640" d="M180.885,559.548s2.892,19.746,11.168,19.548,10.152-19.451,19.035-19.486,4.381,19.325,18.117,19.184,9.047-20.012,19.633-19.792,1.1,15.587,16.1,20.095" transform="translate(-142.977 695.542)" fill="none" stroke="#bc4b17" stroke-width="3" opacity="0.661"/>
    </g>
  </g>
</svg>
