<svg xmlns="http://www.w3.org/2000/svg" width="352.586" height="477.59" viewBox="0 0 352.586 477.59">
  <g id="mascot-2" transform="translate(-252.939 -126.646)">
    <path id="Path_11532" data-name="Path 11532" d="M381.771,286.917v-.05l1.947-.648a41.4,41.4,0,0,1,5.295-1.388,30.971,30.971,0,0,1,21.645,3.249c8.14,4.643,13.559,12.717,16.447,21.478q.323.978.606,1.97a59.24,59.24,0,0,1,1.073,26.594q-.248,1.374-.553,2.733a113.8,113.8,0,0,1-4.7,14.536q-.306.815-.613,1.632c-.542,1.444-1.087,2.89-1.619,4.34,2.533,3.461,13.144,5.3,16.459,5.819,4.623.716,9.274,1.143,13.934,1.545.138.014.278.023.417.037,2.448-1.425,4.93-2.783,7.44-3.96,3.395-1.59,8.709-3.779,12.152-1.246a6.445,6.445,0,0,1,2.445,4.749l.008.08a12.644,12.644,0,0,1-1,6.473c-1.452,3.022-4.264,4.858-7.2,6.25a82.52,82.52,0,0,1-11.436,4.113,9.494,9.494,0,0,1,.064,4.124c-1.9,9.1-16.422,13.175-24.2,14.607a74.4,74.4,0,0,1-8.241,1.05,99.117,99.117,0,0,1-16.506.835c-4.466-.277-9.136-1.256-12.6-4.28-3.961-3.457-5.174-8.54-5.277-13.6-.3-1.747-1.32-3.152-2.143-4.678a23.322,23.322,0,0,1-6.221-3.946,9.333,9.333,0,0,1-1.489-1.44c-9.555-10.06-10.013-27.951-9.276-40.975.388-6.869,1.209-13.711,2.156-20.521.726-5.207,1.6-10.462,2.16-15.686-.08-1.574-.161-3.148-.262-4.72-.021-.365-.041-.767-.066-1.166l-2.665-1.778,3.907-2.315c.551-.318,1.1-.633,1.665-.932l.045-.023c.524-.281,1.052-.559,1.586-.823l.136-.068q.737-.367,1.485-.708l.227-.1q.681-.312,1.374-.6l.359-.149C381.075,287.187,381.422,287.051,381.771,286.917Z" transform="translate(108.627 148.218)" fill="#337321" fill-rule="evenodd"/>
    <path id="Path_11533" data-name="Path 11533" d="M381.273,286.755c12.915-.574,26.606,9.6,29,26.74C406.245,301.446,392.014,290.206,381.273,286.755Z" transform="translate(120.752 150.628)" fill="#d6e164" fill-rule="evenodd"/>
    <path id="Path_11534" data-name="Path 11534" d="M417.939,362c5.256,6.11,24.223,7.467,33.475,8.282,9.625-5.634,17.889-9.553,18.534-3.074.54,7.56-3.793,9.8-19.953,14.615a4.474,4.474,0,0,1-.342.706c5.33,10.535-13.812,17.21-29.143,18.272-18.38,2.005-31.068,2.092-31.3-14.468-.435-3-2.017-4.53-2.9-6.652a20.5,20.5,0,0,1-6.485-3.911,6.469,6.469,0,0,1-1.165-1.128c-15.62-16.278-6.069-57.929-4.247-75.232-.237-4.645-.421-7.535-.52-7.6h0v0l.016-.008q.792-.46,1.578-.885l.045-.023q.757-.408,1.508-.782l.136-.068q.7-.349,1.4-.668l.225-.1c.429-.194.856-.379,1.279-.557l.359-.147c.371-.151.74-.3,1.106-.435.173-.066.346-.13.518-.194.312-.113.623-.223.934-.326l.245-.083v0l.221-.068.012,0,.012,0,.01,0,.212-.068c.2-.064.4-.126.6-.186l.012,0,.01,0,.012,0,.567-.165.014,0,.014,0,.016,0,.369-.1.243-.066.006,0,.008,0,.008,0,.008,0,.006,0,.008,0c.239-.064.476-.124.714-.182l.016,0,.018,0c.165-.041.33-.08.495-.118l.033-.006a32.836,32.836,0,0,1,7.672-.866h.006c.384,0,.765.016,1.145.035h.021q.553.029,1.1.076l.062.006c.355.033.708.072,1.058.116l.078.01q.524.07,1.036.157l.074.012c.34.058.679.124,1.015.2l.085.017q.5.108.994.235l.074.019q.5.128.99.276l.051.016q.5.151,1,.322l.012,0A28.032,28.032,0,0,1,414.11,294l.035.033q.352.358.7.728l.074.08q.323.352.639.716l.111.126q.3.349.592.706l.132.163c.188.237.377.475.559.718l.136.179c.177.235.349.472.522.712l.157.223c.167.237.33.478.491.72l.151.227c.159.245.316.489.472.74l.147.241c.153.248.3.5.448.749l.146.256q.218.381.429.769l.134.25c.14.264.279.53.415.8l.12.246c.136.272.27.545.4.823l.113.245c.13.281.258.563.382.85l.1.233c.124.293.248.586.367.883l.076.2c.126.316.25.633.369.953l0,.012a47.417,47.417,0,0,1,1.692,5.677l.058.241c.064.281.122.563.182.846.031.144.062.287.091.431.051.256.1.514.146.773.031.169.064.34.1.51q.064.378.122.757c.029.179.058.357.085.538.039.252.072.507.107.761.023.182.049.365.072.547.031.245.058.489.083.734.023.2.045.406.066.609.023.237.045.476.064.712.017.206.035.408.05.613.017.247.033.495.049.741q.02.3.035.606c.012.248.021.5.031.745.008.2.016.41.019.615.008.248.012.5.016.749,0,.21,0,.419,0,.629,0,.245,0,.489,0,.734,0,.223-.008.446-.012.67s-.012.466-.019.7-.017.481-.029.72q-.015.335-.035.67c-.014.248-.031.5-.049.747-.016.217-.029.435-.049.652-.019.26-.045.518-.07.778-.019.21-.037.419-.06.629-.027.274-.06.547-.093.821-.023.2-.047.4-.072.6-.035.279-.076.559-.116.84-.027.194-.054.392-.083.588-.045.3-.1.6-.148.9-.029.175-.056.349-.087.524-.066.379-.14.759-.213,1.137l-.054.287c-.1.483-.2.967-.309,1.45h0l-.058.258h0l-.058.256h0l-.06.26h0l-.062.262h0l-.066.262h0l-.068.266h0l-.07.266h0l-.07.268h0l-.074.268h0l-.074.27h0l-.078.274h0l-.078.272h0l-.078.276-.082.274h0l-.083.278h0l-.084.278h0l-.085.28h0l-.085.279h0l-.087.281h0l-.089.283h0l-.089.283h0l-.091.283-.093.285h0l-.093.285h0l-.1.287h0l-.1.289h0l-.1.287-.1.289-.1.291-.1.291h0l-.1.291h0l-.1.291-.1.293-.1.293-.1.293-.107.295-.1.3-.107.3-.107.293-.109.3-.107.3h0l-.111.3-.109.3h0l-.109.3-.111.3-.109.3-.111.3h0l-.111.3-.112.3h0l-.111.3-.111.3-.113.3-.111.3-.113.3-.111.3-.111.3-.113.3-.111.3-.111.3-.111.3-.111.295-.111.293-.111.293-.109.293c-1.677,4.819-6.539,8.571-10.77,10.05,0,0,7.505-1.378,10.768-5.223Zm29.2,10.832c-5.945.776-15.029,1.85-28.24,3.393-.3.029-.611.054-.916.078,4.586,3.527,12.468,1.764,19.957,1.972C440.917,376.592,444.046,374.692,447.134,372.832Z" transform="translate(110.003 149.6)" fill="#54c247" fill-rule="evenodd"/>
    <path id="Path_11535" data-name="Path 11535" d="M369.855,344.348c-.157-16.705,3.494-34.907,4.549-44.936-.237-4.645-.421-7.535-.52-7.6h0v0l.016-.008q.792-.46,1.578-.885l.045-.023q.757-.408,1.508-.782l.136-.068q.7-.349,1.4-.668l.225-.1c.429-.194.856-.379,1.279-.557l.359-.147c.371-.151.739-.3,1.106-.435.173-.066.346-.13.518-.194.312-.113.623-.223.934-.326l.245-.083v0l.221-.068.012,0,.012,0,.01,0,.212-.068c.2-.064.4-.126.6-.186l.012,0,.01,0,.012,0,.567-.165.014,0,.014,0,.016,0,.369-.1.243-.066.006,0,.008,0,.008,0,.008,0,.006,0,.008,0c.239-.064.476-.124.714-.182l.016,0,.018,0c.165-.041.33-.08.495-.118l.033-.006a32.836,32.836,0,0,1,7.672-.866h.006c.384,0,.765.016,1.145.035h.021q.553.029,1.1.076l.062.006c.355.033.708.072,1.058.116l.078.01q.524.07,1.036.157l.074.012c.34.058.679.124,1.015.2l.085.017q.5.108.994.235l.074.019.268.07q.489,3.441.695,6.935a82.279,82.279,0,0,1-10.029,44.73c-8.363,15.036-25.339,21.894-8.554,39.381a6.474,6.474,0,0,0,1.165,1.13c.243.215.489.427.743.631a20.412,20.412,0,0,1-5.768-3.626,6.468,6.468,0,0,1-1.164-1.128c-6.568-6.846-8.686-18.177-8.8-30.3Z" transform="translate(110.004 149.6)" fill="#0db02b" fill-rule="evenodd"/>
    <path id="Path_11536" data-name="Path 11536" d="M387.493,288.572c10.518,3.668,17.158,15.989,13.142,29.1C400,307.5,393.892,293.855,387.493,288.572Z" transform="translate(126.604 152.359)" fill="#98da91" fill-rule="evenodd"/>
    <g id="Group_4088" data-name="Group 4088" transform="translate(497.306 492.513)">
      <path id="Path_11537" data-name="Path 11537" d="M386.116,322.461c8.8,5.369,7.15-1.892,5.274-7.313C392.249,321.805,393.282,324.62,386.116,322.461Z" transform="translate(-371.998 -315.148)" fill="#0db02b" fill-rule="evenodd"/>
      <g id="Group_4087" data-name="Group 4087" transform="translate(0 2.946)">
        <path id="Path_11538" data-name="Path 11538" d="M392.5,316.666c.627,14.091-6.987,7.319-12.247,1.493C387.662,323.583,390.354,326.679,392.5,316.666Z" transform="translate(-377.517 -316.666)" fill="#0db02b" fill-rule="evenodd"/>
        <path id="Path_11539" data-name="Path 11539" d="M391.553,319.252c2.985,7.6-2.453,5.318-6.424,3.115C390.2,323.945,392.26,325.135,391.553,319.252Z" transform="translate(-372.926 -314.233)" fill="#0db02b" fill-rule="evenodd"/>
        <path id="Path_11540" data-name="Path 11540" d="M388.7,320.15c.507,11.347-5.627,5.895-9.86,1.2C384.808,325.72,386.976,328.213,388.7,320.15Z" transform="translate(-378.842 -313.388)" fill="#0db02b" fill-rule="evenodd"/>
        <path id="Path_11541" data-name="Path 11541" d="M389.831,321.551c2.987,7.6-2.451,5.318-6.423,3.115C388.484,326.246,390.537,327.436,389.831,321.551Z" transform="translate(-374.546 -312.07)" fill="#0db02b" fill-rule="evenodd"/>
      </g>
    </g>
    <g id="Group_4095" data-name="Group 4095" transform="translate(471.319 240.533)">
      <g id="Group_4090" data-name="Group 4090" transform="translate(0 56.022)">
        <path id="Path_11542" data-name="Path 11542" d="M365.941,239.613c2.64-3.956,6.052-7.731,9.083-11.4,2.744-3.325,6.12-7.432,7.923-11.35l.064-.138.159-.258.1-.118a5.647,5.647,0,0,1,2.787-1.91c3.22-.972,6.646,1.069,8.9,3.216,2.228,2.119,4.965,5.974,3.738,9.21l-.052.142-.142.268-.085.124c-6.162,8.884-10.784,20.2-14.634,30.263l-.5,1.3-2.739.495-.92-1.042q-3.435-3.884-6.852-7.781c-1.57-1.793-3.142-3.589-4.7-5.4-.52-.6-1.04-1.209-1.549-1.823-.159-.192-.318-.386-.47-.584A2.651,2.651,0,0,1,365.941,239.613Z" transform="translate(-365.453 -214.187)" fill="#337321" fill-rule="evenodd"/>
        <g id="Group_4089" data-name="Group 4089" transform="translate(2.07 2.471)">
          <path id="Path_11543" data-name="Path 11543" d="M366.712,239.935c4.35-6.58,13.887-15.84,17.294-23.241,3.622-4.5,12.56,4.5,11.2,8.1-6.372,9.184-11.494,21.851-14.912,30.789,0,0-13.748-15.543-13.579-15.644Zm3.028-4.09c2.141.39,7.669,4.121,10.8,7.606,12.169-21.925,5.254-17.183,8.955-23.747-2.4-1.826-4.307-4.08-5.984-2C381.441,222.2,372.736,232.311,369.74,235.846Zm0,0c2.141.39,7.669,4.121,10.8,7.606,12.169-21.925,5.254-17.183,8.955-23.747-2.4-1.826-4.307-4.08-5.984-2C381.441,222.2,372.736,232.311,369.74,235.846Z" transform="translate(-366.34 -215.46)" fill="#54c247" fill-rule="evenodd"/>
          <path id="Path_11544" data-name="Path 11544" d="M366.521,231.049l3.362-3.859c1.6.19,7.705,4.074,10.832,7.56,2.366-4.264,4.01-7.517,5.151-10.042l3.82.988a209.74,209.74,0,0,0-9.215,21.181S366.35,231.15,366.521,231.049Z" transform="translate(-366.519 -206.758)" fill="#0db02b" fill-rule="evenodd"/>
        </g>
      </g>
      <g id="Group_4094" data-name="Group 4094" transform="translate(9.356)">
        <path id="Path_11545" data-name="Path 11545" d="M391.369,265.06c-.049.472-.072.951-.082,1.44-.031,1.465.274,3.847-1.035,4.829a2.321,2.321,0,0,1-1.852.373l-.058-.012-.115-.029-.056-.021c-8.656-3.136-16.573-9.5-17.87-19.147l-.01-.083c-.3-4.041,3.043-3.8,3.1-6.962l0-.1.033-.2.031-.1a4.916,4.916,0,0,1,2.8-3.338c-.268-9.547,2.345-18,9.786-25.088a98.915,98.915,0,0,1,8.8-6.978c1.661-1.262,4.121-3.162,4.734-5.252a4.855,4.855,0,0,0-.227-3.115,12.222,12.222,0,0,1,.606-9.617,11.513,11.513,0,0,1,7.546-5.92c4.225-1.064,8.678.068,12.5,1.943,14.854,7.282,10.894,20.362,2.378,30.511a.8.8,0,0,0,.01.091c.208,1.59,3.37,3.3,4.614,3.946,3.418,1.782,7.131,3.2,10.656,4.784a56.36,56.36,0,0,1,8.247,4.365c21.278,3.375,27.3,25.669,4.449,32.6-4.1,3.35-10.545,5.24-15.626,6.225a77.375,77.375,0,0,1-22.134.943A57.219,57.219,0,0,1,391.369,265.06Z" transform="translate(-370.273 -185.323)" fill="#595959" fill-rule="evenodd"/>
        <g id="Group_4093" data-name="Group 4093" transform="translate(1.413 1.444)">
          <g id="Group_4091" data-name="Group 4091" transform="translate(0 56.092)">
            <path id="Path_11546" data-name="Path 11546" d="M371.014,224.412c1.277,9.495,9.386,15.267,16.954,18.008,2.562.468-.27-5.153,2.847-10.209,4.132-2.4-1.673-8.276-5.959-12.094-2.583-2.845-8.835-8.466-10.737-2.537C374.046,221.532,370.766,221.116,371.014,224.412Z" transform="translate(-371.001 -214.966)" fill="#595959" fill-rule="evenodd"/>
            <path id="Path_11547" data-name="Path 11547" d="M371.686,224.137c1.126,8.385,8.286,13.48,14.966,15.9,1.988.363.3-3.42,1.725-7.372-1.692.181-3.841-.206-6.8-1.6a30.372,30.372,0,0,0,7.453.19c.045-.078.089-.153.136-.229,3.649-2.116-1.475-7.308-5.26-10.677-2.281-2.512-7.8-7.474-9.478-2.24-.006.21-.019.408-.043.592A28.749,28.749,0,0,0,376,224.065a18.333,18.333,0,0,1-2.321-3.552C372.821,221.7,371.536,222.163,371.686,224.137Z" transform="translate(-370.368 -214.183)" fill="#d9d6d1" fill-rule="evenodd"/>
            <path id="Path_11548" data-name="Path 11548" d="M371.686,223.365c.9,6.673,5.613,11.261,10.869,14.077a8.261,8.261,0,0,1,1.559-6.071l.027-.049a22.058,22.058,0,0,1-2.564-1.033,26.326,26.326,0,0,0,3.354.314c2.3-2.428-2.341-7.135-5.842-10.266a19.628,19.628,0,0,0-4.379-3.719,5.379,5.379,0,0,0-.281.714c-.006.21-.019.408-.043.592A28.75,28.75,0,0,0,376,223.293a18.334,18.334,0,0,1-2.321-3.552C372.821,220.925,371.536,221.391,371.686,223.365Z" transform="translate(-370.368 -213.411)" fill="#fff" fill-rule="evenodd"/>
          </g>
          <path id="Path_11549" data-name="Path 11549" d="M397.106,200.106c4.685,12.666-27.223,11.1-22.559,46.417,7.515,28.126,58.563,26.5,71.556,15.483,21.762-6.417,15.906-26.985-4.3-29.987-9.087-6.217-25.35-9.472-24.368-15.1,6.882-8.045,13.474-21.177-1.628-28.677C402.047,181.593,394.107,191.517,397.106,200.106Z" transform="translate(-368.105 -186.067)" fill="#595959" fill-rule="evenodd"/>
          <path id="Path_11550" data-name="Path 11550" d="M398.058,200.583c4.687,12.666-27.163,9.992-22.5,45.307,8.113,25.806,55.3,25.207,68.291,14.192,21.761-6.417,15.417-25.088-4.786-28.089-9.087-6.217-25.35-9.472-24.368-15.1,6.884-8.047,13.474-21.179-1.628-28.677C401.2,182.954,395.061,191.995,398.058,200.583Z" transform="translate(-367.151 -185.512)" fill="#fff" fill-rule="evenodd"/>
          <path id="Path_11551" data-name="Path 11551" d="M375.128,233.994a49.2,49.2,0,0,0,.431,8.41c7.88,25.067,52.622,25.218,67.088,15.112,5-18.272-7.61-21.337-32.013-16.088,17.835-5.908,46.66-7.57,33.916,14.951,17.719-5.6,15.82-19.576,2.682-25.529-13.551-1.677-27.769,2.444-35.888,2.539,10.817-3.678,16.494-3.866,28.136-4.813-.14-.023-.276-.047-.415-.068-.316-.215-.642-.429-.974-.639-10.988-2.24-15.194-7.744-26.16-10.314l2.909-2.663a2.792,2.792,0,0,1-.144-1.483c5.374-6.283,10.57-15.665,5.4-23.046,2.853,9.967-5.972,17.022-14.924,24.4-1.953,1.135-.543,3.581-1.553,5.1-1.415,5.023-1.725,9.782-8.268,14.64a38.327,38.327,0,0,1,14.006,7.766C403.871,246.241,384.2,254.857,375.128,233.994Z" transform="translate(-367.149 -182.026)" fill="#d9d6d1" fill-rule="evenodd"/>
          <g id="Group_4092" data-name="Group 4092" transform="translate(26.852 27.835)">
            <path id="Path_11552" data-name="Path 11552" d="M423.347,210.079c-.037.177,1.37.328,1.3.481-5.9-.14-15.861,1.345-30.575,5.035,3.463-3.391,21.946-6.71,29.279-5.516Zm4.338,28.141c2.488-1.869,11.389-17.319-10.083-19.283-8.928-.817-19.642,2.251-24.97,5.151C421.561,213.938,436.51,222.748,427.685,238.221Z" transform="translate(-377.501 -191.542)" fill="#595959" fill-rule="evenodd"/>
            <path id="Path_11553" data-name="Path 11553" d="M385.54,213.241c7.069-.221,13.387,4.876,15.434,8.816C398.579,220.262,391.023,213.63,385.54,213.241Z" transform="translate(-384.174 -188.339)" fill="#595959" fill-rule="evenodd"/>
            <path id="Path_11554" data-name="Path 11554" d="M393.834,205.979c1.879,6.694-1.562,13.945-9,14.225C392.231,217.275,393.378,211.456,393.834,205.979Z" transform="translate(-384.836 -195.166)" fill="#595959" fill-rule="evenodd"/>
            <path id="Path_11555" data-name="Path 11555" d="M403.307,200.408c-3.707,7.894-5.363,9.5-12.61,10.326C397.783,207.723,398.762,203.841,403.307,200.408Z" transform="translate(-379.321 -200.408)" fill="#595959" fill-rule="evenodd"/>
          </g>
        </g>
      </g>
    </g>
    <path id="Path_11556" data-name="Path 11556" d="M367.234,226.788c.116.045.235.091.351.14,6.912,3.919,13.423,8.317,18,15.042,3.664,4.421,1.865,9.138-2.03,11.236-4.913-8.414-9.7-15.527-19.017-19.3l0-.006C363.389,230.175,364.829,227.692,367.234,226.788Z" transform="translate(104.627 94.225)" fill="#a92f33" fill-rule="evenodd"/>
    <path id="Path_11557" data-name="Path 11557" d="M299.394,288.746c3.5-4.363,3.853-11.69,3.371-16-.866-5.326-16.269-5.141-20.51-5.017C282.256,267.728,299.235,288.779,299.394,288.746Z" transform="translate(27.585 132.708)" fill="#337321" fill-rule="evenodd"/>
    <path id="Path_11558" data-name="Path 11558" d="M323.676,301.982c3.084-8.563-.248-20.019-3.267-26.391-4.144-7.737-27.74.681-34.2,3.113C286.212,278.7,323.447,302.115,323.676,301.982Z" transform="translate(31.307 137.135)" fill="#337321" fill-rule="evenodd"/>
    <path id="Path_11559" data-name="Path 11559" d="M344.5,297.807c-2.23-11.261-13.274-21.476-20.68-26.4-15.013-8.193-15.582,26.647-20.981,33.469C302.84,304.874,344.341,298.1,344.5,297.807Z" transform="translate(46.953 135.04)" fill="#337321" fill-rule="evenodd"/>
    <path id="Path_11560" data-name="Path 11560" d="M480.506,301.2a85.512,85.512,0,0,1,16.321,45.346A82.276,82.276,0,0,1,486.8,391.276a74.937,74.937,0,0,1-47.432,36.489c-36.965,10.671-75.016,2.628-107.505-16.857-26.536-15.915-41.58-46.619-48.845-75.634a137.789,137.789,0,0,0-8.451-23.982c-.974-2.143-2.075-4.355-2.886-6.56-.761-2.069-1.246-4.342.019-6.341a5.065,5.065,0,0,1,2.03-1.811l.072-.037.146-.064.074-.029c7.783-3.059,21.36,10.339,25.407,16.115,6.91,9.86,15.941,21.144,27.643,25.381,7.37,2.667,15.027,2.314,22.548.491,16.826-4.078,31.161-13.491,37.609-30.078,4.509-11.6,4.245-24.584.976-36.456a79.319,79.319,0,0,0-20.554-34.843l-.085-.087c-3.463-3.69-6.865-7.449-10.306-11.16L355.7,224.14l1.89-4.154,52.851,1.625,1.017.365,1.361,1.046.437.5.167.285c8.627,14.708,19.677,26.265,31.975,37.881,10.887,10.281,22.586,20.492,31.062,32.937Q478.639,297.816,480.506,301.2Z" transform="translate(16.917 87.825)" fill="#337321" fill-rule="evenodd"/>
    <path id="Path_11561" data-name="Path 11561" d="M408.81,223.842c20.428,34.834,52.129,49.949,67.133,77.5,32.18,44.02,13.891,107.762-39.189,121.432-39.389,11.372-76.919.212-104.792-16.5-17.983-10.786-37.219-33.335-47.283-73.526-6.162-24.615-14.864-32.887-11.067-34.8,4.975-1.954,17.146,8.9,21.344,14.893,15.582,22.231,29.941,33.019,53.806,27.235,55.361-13.412,53.579-73.471,19.64-107.142-1.566-1.667-5.512-5.986-10.295-11.145l50.031,1.539Z" transform="translate(18.579 89.52)" fill="#54c247" fill-rule="evenodd"/>
    <path id="Path_11562" data-name="Path 11562" d="M384.389,356.48c-30.54,2.356-58.9-7.418-81.126-20.733a40.273,40.273,0,0,1,2.346-12.725c5.739-15.9,21.859-19.8,38.081-22.977,4.92-2.123,5.493-3.859,10.857-3.057,8.274,1.238,17.5,2.919,22.5,9.1,11.743,14.516,16.137,27.852,9.58,45.621A30.014,30.014,0,0,1,384.389,356.48Z" transform="translate(47.351 160.091)" fill="#0db02b" fill-rule="evenodd"/>
    <path id="Path_11563" data-name="Path 11563" d="M377.823,232.341c16.781,20.011,36.448,33.335,49.165,51.281l3.179,4.835c.588.972,1.159,1.956,1.7,2.958a82.953,82.953,0,0,1,11.457,21.837,37.405,37.405,0,0,1-7.76,7.111c-8.482,6.034-19.225,10.528-29.151,13.5a126.3,126.3,0,0,1-40.128,5.359,97.877,97.877,0,0,1-42.943-11.059c-.041-.021-.076-.041-.115-.066a12.033,12.033,0,0,1-3.711-3.27c30.337-15.06,34.983-48.63,21.983-77.181a49.468,49.468,0,0,0,20.909,3.074,1.886,1.886,0,0,1,.908.134,25.8,25.8,0,0,1,10.446,7.1,21.535,21.535,0,0,1,2.277,3.321,25.543,25.543,0,0,0-4.687-11.092,1.965,1.965,0,0,1,.943-3.02c1.623-.561,3.9-1.364,5.011-2.762a8.614,8.614,0,0,0,.972-1.636c-.71-.93-1.541-1.821-2.3-2.661a33.2,33.2,0,0,1-3.294-4.012,1.967,1.967,0,0,1,1.064-2.95A18.24,18.24,0,0,1,377.823,232.341Z" transform="translate(62.649 99.45)" fill="#0db02b" fill-rule="evenodd"/>
    <path id="Path_11564" data-name="Path 11564" d="M441.586,266.636c25.162,43.442,6.071,101.029-44.067,113.942-29.925,8.639-58.779,4.272-83.137-5.656,73.33,1.79,119.135-19.671,106.021-103.556C420.921,271.02,430.129,269.025,441.586,266.636Z" transform="translate(57.813 131.719)" fill="#54c247" fill-rule="evenodd"/>
    <path id="Path_11565" data-name="Path 11565" d="M387.135,268.885a89.228,89.228,0,0,1,4.307,10.221c-3.039,3.422-6.114,5.543-11.814,9.493l-4.874-11.459Z" transform="translate(114.618 133.835)" fill="#0db02b" fill-rule="evenodd"/>
    <path id="Path_11566" data-name="Path 11566" d="M448.079,411.429c-37.143,26.21-90.757,17.569-128.873-5.458-11.343-6.853-23.231-18.336-32.967-36.035,42.84,48.6,124.007,48.276,133.638-4.268,6.366-41.277-15.683-100.217-54.3-143.56L394.59,223C387.985,235.031,539.582,341.321,448.079,411.429Z" transform="translate(31.334 89.822)" fill="#fff7a0" fill-rule="evenodd"/>
    <path id="Path_11567" data-name="Path 11567" d="M384.03,344.245c-27.808,1.576-57.234-7.135-80.767-21.333a40.744,40.744,0,0,1,1.541-10.227c29.531,13.9,62.808,13.322,82.557-2.255,3.185,8.691,3.2,17.767-.738,28.442A29.716,29.716,0,0,1,384.03,344.245Z" transform="translate(47.351 172.926)" fill="#f3ec8b" fill-rule="evenodd"/>
    <path id="Path_11568" data-name="Path 11568" d="M369.04,337.645c-.807-26.748-10.83-57.973-27.67-86.951.163-.012.326-.025.487-.041a1.885,1.885,0,0,1,.908.134,25.8,25.8,0,0,1,10.446,7.1,21.537,21.537,0,0,1,2.277,3.321,25.542,25.542,0,0,0-4.687-11.092,1.965,1.965,0,0,1,.943-3.02c1.623-.561,3.9-1.364,5.011-2.762a8.612,8.612,0,0,0,.972-1.636c-.71-.93-1.541-1.821-2.3-2.661a33.2,33.2,0,0,1-3.294-4.012,1.967,1.967,0,0,1,1.064-2.95,19.54,19.54,0,0,1,2.822-.662C374.036,252,405.234,283.6,418.9,317.234a48.876,48.876,0,0,1-3.888,3.061c-8.482,6.034-19.225,10.528-29.151,13.5A130.942,130.942,0,0,1,369.04,337.645Z" transform="translate(83.206 99.519)" fill="#f3ec8b" fill-rule="evenodd"/>
    <path id="Path_11569" data-name="Path 11569" d="M469.771,285.867c.274,1.533.51,3.067.687,4.6-31.41,8.148-53.383,2.607-53.383,2.607,20.979-.06,38.256-2.508,52.7-7.207Zm-175.9,44.375c-.2-.223-.4-.448-.6-.677,2.29-1.966,3.664-2.919,3.664-2.919q-1.569,1.808-3.063,3.6Zm11.614,10.9q-.623-.5-1.246-1.013c3.445-4.1,5.58-6.166,5.58-6.166q-2.23,3.616-4.334,7.179Zm135.986,10.293q-.841.594-1.694,1.163c-21.927-8.125-33.4-18.745-33.4-18.745a193.785,193.785,0,0,0,37.2,15.89c-.7.565-1.37,1.134-2.1,1.692Zm26.317-34.183c-.555,1.626-1.2,3.243-1.914,4.854-32.662,1.489-53.158-8.616-53.158-8.616C434.169,318.024,452.214,319.16,467.786,317.256Z" transform="translate(37.944 149.814)" fill="#f3ec8b" fill-rule="evenodd"/>
    <path id="Path_11570" data-name="Path 11570" d="M344.573,247.2c6.45,3.36,16.54,4.775,23.619,4.072a1.87,1.87,0,0,1,.91.124,25.791,25.791,0,0,1,10.516,7,21.521,21.521,0,0,1,2.31,3.3,25.545,25.545,0,0,0-4.8-11.046,1.964,1.964,0,0,1,.912-3.03c1.617-.576,3.884-1.4,4.984-2.81a8.653,8.653,0,0,0,.955-1.648c-.72-.922-1.559-1.805-2.329-2.638a33.224,33.224,0,0,1-3.334-3.977,1.967,1.967,0,0,1,1.034-2.962c5.471-1.757,10.149-1.021,14.285,3.034,1.281,1.258,2.317,2.645,3.484,3.994A7.77,7.77,0,0,0,398.7,242.1a30.111,30.111,0,0,1,3.235-4.066,16.263,16.263,0,0,0,2.063-2.609c-2.541-7.377,4.313-12,11.2-9.054a2.066,2.066,0,0,1,.2.1c7.2,4.08,13.862,8.639,18.6,15.57a9.134,9.134,0,0,1,1.826,9.188,9.768,9.768,0,0,1-5.171,5.293c.018,8.721-2.337,18.526,2.1,26.5l11.034,16.422c3.3.613,7.077,2.028,8.162,5.47,1.855,5.889-5.829,12.305-9.9,15.267-8.42,6.118-19.116,10.72-29.013,13.794a126.284,126.284,0,0,1-40.07,5.765,97.879,97.879,0,0,1-43.055-10.625c-.041-.021-.074-.041-.113-.064-2.158-1.31-4.722-3.288-4.635-6.1.062-1.993,1.448-3.554,2.915-4.749a38.206,38.206,0,0,1,5.978-3.74c11.727-7.688,11.013-23.328,2.894-33.337a28.579,28.579,0,0,0-7.989-5.45c-1.846-.846-3.763-1.547-5.656-2.275-2.465-.947-4.878-1.941-7.259-3.08a1.908,1.908,0,0,1-1.087-1.427c-1.333-7.455-.547-15.634,3.189-22.321a18.93,18.93,0,0,1,5.339-6.254,7.634,7.634,0,0,1,6.481-1.471,5.61,5.61,0,0,1,1.716.868,1.762,1.762,0,0,1,.248.217c1.13,1.18,2.145,2.418,3.224,3.639.213.243.444.5.685.747a4.211,4.211,0,0,1,.4-2.335,3.834,3.834,0,0,1,2.9-1.96,1.955,1.955,0,0,1,2.191,1.293,9.562,9.562,0,0,0,1,1.857c.534.839,1.087,1.658,1.56,2.535A12.5,12.5,0,0,1,344.573,247.2Z" transform="translate(57.784 92.984)" fill="#b01c2e" fill-rule="evenodd"/>
    <path id="Path_11571" data-name="Path 11571" d="M398.836,243.2c1.4-2.779,3.911-4.924,5.341-6.875a10.091,10.091,0,0,0,3.983,2.129,16.851,16.851,0,0,1-3.034-4.039c-2.595-6.234,2.964-9.5,8.35-7.2,6.912,3.919,13.423,8.317,18,15.042,4.154,5.011,1.289,10.4-3.688,11.931a14.718,14.718,0,0,0-4.813-2.277c3.065,2.131,3.958,3.412,4.749,4.784-.142,6.3-1.345,13.645.161,20.4-3.292-4.4-7.76-10.027-12.08-13.6,5.66,7.018,13.051,17.752,15.65,21.655l.031-.052,10.2,15.176c.924,1.5,2.079,3.385,3.709,5.962a29.355,29.355,0,0,0-1.749-5.565c27.736,6.884-52.35,57.626-113.775,25.733-5.411-3.284-4.445-5.813.14-8.827l-.006.012c2.735-1.572,7.228-1.753,13.507-.629a13.8,13.8,0,0,0-7.876-2.849c11.583-8.9,10.068-25.209,1.813-35.292-7.113-6.749-11.869-6.626-21.5-11.236-3.3-18.437,8.272-31.222,13.619-27.254,3.536,3.692,4.7,6.333,8.235,6.667-.016-1.465-2.579-5.429.718-6,.708,2.036,2.783,4.089,3.49,6.6,6.145,3.468,16.888,5.52,25.432,4.67,12.527,4.895,12.453,12.162,16.377,18.668-.256-7.476-.46-14.951-6.061-22.427,5.314-1.9,6.081-3.2,7.533-6.547-1.615-2.426-4.664-5.044-6.281-7.469C392.195,230.264,393.668,244.373,398.836,243.2Z" transform="translate(58.734 93.938)" fill="#e62129" fill-rule="evenodd"/>
    <path id="Path_11572" data-name="Path 11572" d="M375.878,232.13a35.839,35.839,0,0,1,3.946,4.819c4.154,5.011,1.289,10.4-3.688,11.931a15.117,15.117,0,0,0-1.875-1.147,26.725,26.725,0,0,1,3.007-3.944c1.632-1.776-.212-8.169-1.39-11.659Zm-2.092,16.4a27.935,27.935,0,0,0-3.466,15.853c2.166,2.494,4.2,5.118,5.914,7.412-1.5-6.758-.3-14.1-.161-20.4A10.8,10.8,0,0,0,373.786,248.527Z" transform="translate(110.382 99.252)" fill="#c7252e" fill-rule="evenodd"/>
    <path id="Path_11573" data-name="Path 11573" d="M330.327,292.12c11.581-8.9,10.068-25.209,1.813-35.292A31.335,31.335,0,0,0,321,249.86c23.256,1.71,26.75,30.921,22.084,37.943,7.923,3.872,15.423,8.589,30.519,12.779,0,0-18.922-2.638-35.416-5.617l.021,0A13.8,13.8,0,0,0,330.327,292.12Z" transform="translate(64.035 115.934)" fill="#c7252e" fill-rule="evenodd"/>
    <path id="Path_11574" data-name="Path 11574" d="M325.893,242.87a5.673,5.673,0,0,0,.833.309c3.841,9.182,20.335,10.252,34.154,7a23.8,23.8,0,0,1,3.723,2.378c-15.894,6.811-39.414.51-38.71-9.687Zm44.579,6.244q-.431-.85-.937-1.7c1.132-.477,2.213-.982,3.222-1.52a3.453,3.453,0,0,1,.444-1.683,3.242,3.242,0,0,1,2.6-1.658c2.515-7.552-2.242-11.04-6.523-11.531,7.981-3.034,10.875,4.227,7.11,11.574a3.036,3.036,0,0,1,.577.159,9.254,9.254,0,0,1,8.555-3.94,6,6,0,0,1,1.06.243,3.321,3.321,0,0,0,1.331.575c2.7,1.428,4.648,3.794,10.161.588,4.183-2.213,4.262,2.642,3.913,4.115a64.774,64.774,0,0,1-3.925,13.1,2.791,2.791,0,0,1,2.222,4.286c-.829,1.3-2.836,2.065-4.136,1.236-.889-.563-.443-.85-1.211.4-.707,1.669-4.5,6.469-6.362,1.405-2.781-7.061-4.953-3.971-10.058-6.931a8.215,8.215,0,0,1-4.148-8.261c-.206-.082.283.256-.6-.307a3.468,3.468,0,0,1-.959-2.263,22.105,22.105,0,0,1-2.335,2.118Zm5.153-5.176q-.48.769-1.064,1.527a2.147,2.147,0,0,0,.854,1.071,12.861,12.861,0,0,1,1.04-2.465,2.705,2.705,0,0,0-.831-.134Zm-1.064,1.526c.262-.51.493-1.005.7-1.487a1.64,1.64,0,0,0-.25.076,2.636,2.636,0,0,0-.278.363,1.458,1.458,0,0,0-.192.456l.082-.048c-.031.043-.064.083-.1.126A1.167,1.167,0,0,0,374.562,245.463Z" transform="translate(68.63 97.543)" fill="#c7252e" fill-rule="evenodd"/>
    <g id="Group_4100" data-name="Group 4100" transform="translate(393.264 325.809)">
      <path id="Path_11575" data-name="Path 11575" d="M325.524,234.96c-4.024,13.7,35.391,21.575,48.463,3.441C360.181,247.025,328.719,249.664,325.524,234.96Z" transform="translate(-325.237 -223.894)" fill="#8a2e30" fill-rule="evenodd"/>
      <path id="Path_11576" data-name="Path 11576" d="M349.84,239.053A3.048,3.048,0,0,1,353.6,237.6a9.261,9.261,0,0,1,8.555-3.942c4.3.594,5.576,5.466,12.554,1.405,4.183-2.213,4.26,2.642,3.913,4.115a64.865,64.865,0,0,1-3.925,13.1,2.792,2.792,0,0,1,2.22,4.287c-.827,1.3-2.834,2.063-4.136,1.236-.889-.565-.442-.852-1.211.4-.707,1.669-4.5,6.469-6.36,1.4-2.783-7.061-4.953-3.969-10.06-6.931a8.212,8.212,0,0,1-4.146-8.26c-.206-.08.283.256-.6-.307s-1.462-3.635-.565-5.05Zm2.217,2.329a12.761,12.761,0,0,1,1.236-2.809,1.449,1.449,0,0,0-1.922.685C350.97,239.893,351.075,240.658,352.057,241.382Z" transform="translate(-302.511 -225.159)" fill="#8a2e30" fill-rule="evenodd"/>
      <path id="Path_11577" data-name="Path 11577" d="M349.913,237.3a3.256,3.256,0,1,1,1.071,4.379,3.189,3.189,0,0,1-1.071-4.379Zm1.174-.132c-.443.7.08,1.822,1.166,2.513s2.329.685,2.772-.012-.078-1.825-1.167-2.515S351.532,236.474,351.087,237.173Z" transform="translate(-302.462 -223.021)" fill="#eb9215" fill-rule="evenodd"/>
      <g id="Group_4096" data-name="Group 4096" transform="translate(49.057 9.058)">
        <path id="Path_11578" data-name="Path 11578" stroke="#b84631" d="M354.347,251.946c-7.6-4.171-3.094-18.84,6.4-17.985,4.138.571,5.658,5.586,12.368,1.683,4.02-2.127,3.8,2.209,3.463,3.626a57.482,57.482,0,0,1-6.514,18.051c-.681,1.6-3.81,5.994-5.6,1.124C361.792,251.655,359.256,254.793,354.347,251.946Z" fill="none" transform="translate(-350.512 -233.925)" stroke-linecap="round" stroke-linejoin="round" stroke-width="1.008" fill-rule="evenodd"/>
        <path id="Path_11579" data-name="Path 11579" d="M354.347,251.946c-7.6-4.171-3.094-18.84,6.4-17.985,4.138.571,5.658,5.586,12.368,1.683,4.02-2.127,3.8,2.209,3.463,3.626a57.482,57.482,0,0,1-6.514,18.051c-.681,1.6-3.81,5.994-5.6,1.124C361.792,251.655,359.256,254.793,354.347,251.946Z" transform="translate(-350.512 -233.925)" fill="none" fill-rule="evenodd"/>
      </g>
      <path id="Path_11580" data-name="Path 11580" d="M354.347,248.985a7.8,7.8,0,0,1-3.833-7.29,8.9,8.9,0,0,1,8.443-4.586c4.138.571,5.658,5.584,12.367,1.681,4.02-2.127,3.8,2.211,3.463,3.626-.171.959-.378,1.945-.617,2.944a47.773,47.773,0,0,1-4.1,9c-.681,1.6-3.81,5.994-5.6,1.124C361.792,248.694,359.256,251.832,354.347,248.985Z" transform="translate(-301.455 -221.906)" fill="#f3b502" fill-rule="evenodd"/>
      <path id="Path_11581" data-name="Path 11581" d="M365.021,235.894a14.594,14.594,0,0,0,1.59-.8c4.02-2.127,3.8,2.209,3.463,3.626-.146.819-.32,1.659-.516,2.51a100.456,100.456,0,0,1-4.707,13.225c-.421.829-.854,1.605-1.291,2.316-.681,1.6-3.81,5.994-5.6,1.124-.177-.448-.351-.852-.528-1.219A38.472,38.472,0,0,1,365.021,235.894Z" transform="translate(-294.946 -224.314)" fill="#f4bb00" fill-rule="evenodd"/>
      <path id="Path_11582" data-name="Path 11582" d="M367.983,243.372c-.945,2.812-2,5.561-3.133,8.119-.421.829-.854,1.605-1.291,2.316-.681,1.6-3.81,5.994-5.6,1.124-.177-.448-.351-.852-.528-1.219a38.6,38.6,0,0,1,3.552-14.043,10.066,10.066,0,0,0,3.833-1.432c4.02-2.127,3.8,2.211,3.463,3.626C368.189,242.359,368.092,242.864,367.983,243.372Z" transform="translate(-294.946 -221.354)" fill="#efa509" fill-rule="evenodd"/>
      <g id="Group_4097" data-name="Group 4097" transform="translate(65.472 10.984)">
        <path id="Path_11583" data-name="Path 11583" stroke="#b84631" d="M368.392,234.918a5.444,5.444,0,0,1,.233,3.418,57.482,57.482,0,0,1-6.514,18.051c-.4.951-1.669,2.884-3.008,3.282-.594-1.533.858-7.222,3.241-13.594S367.216,234.895,368.392,234.918Z" fill="none" transform="translate(-358.969 -234.918)" stroke-linecap="round" stroke-linejoin="round" stroke-width="0.336" fill-rule="evenodd"/>
        <path id="Path_11584" data-name="Path 11584" d="M368.392,234.918a5.444,5.444,0,0,1,.233,3.418,57.482,57.482,0,0,1-6.514,18.051c-.4.951-1.669,2.884-3.008,3.282-.594-1.533.858-7.222,3.241-13.594S367.216,234.895,368.392,234.918Z" transform="translate(-358.969 -234.918)" fill="none" fill-rule="evenodd"/>
      </g>
      <g id="Group_4098" data-name="Group 4098" transform="translate(65.507 12.638)">
        <path id="Path_11585" data-name="Path 11585" stroke="#b84631" d="M362.037,245.812c2.141-5.737,4.3-10.231,4.813-10.037s-.8,5-2.939,10.735-4.3,10.231-4.812,10.036S359.9,251.548,362.037,245.812Z" fill="none" transform="translate(-358.988 -235.77)" stroke-linecap="round" stroke-linejoin="round" stroke-width="0.336" fill-rule="evenodd"/>
        <path id="Path_11586" data-name="Path 11586" d="M362.037,245.812c2.141-5.737,4.3-10.231,4.813-10.037s-.8,5-2.939,10.735-4.3,10.231-4.812,10.036S359.9,251.548,362.037,245.812Z" transform="translate(-358.988 -235.77)" fill="none" fill-rule="evenodd"/>
      </g>
      <g id="Group_4099" data-name="Group 4099" transform="translate(66.759 26.574)">
        <path id="Path_11587" data-name="Path 11587" stroke="#b84631" d="M362.166,244.192a2.684,2.684,0,1,1-.576.906l-1.956-1.242.576-.906Z" fill="none" transform="translate(-359.633 -242.95)" stroke-linecap="round" stroke-linejoin="round" stroke-width="0.657" fill-rule="evenodd"/>
        <path id="Path_11588" data-name="Path 11588" d="M362.166,244.192a2.684,2.684,0,1,1-.576.906l-1.956-1.242.576-.906Z" transform="translate(-359.633 -242.95)" fill="none" fill-rule="evenodd"/>
      </g>
      <path id="Path_11589" data-name="Path 11589" d="M351.924,238.02c2.083-3.849,6.731-5.128,11.611-1.527C359.018,235.244,351.252,239.98,351.924,238.02Z" transform="translate(-300.166 -224.454)" fill="#fefefe" fill-rule="evenodd"/>
      <path id="Path_11590" data-name="Path 11590" d="M361.28,236.476c1.291.307,2.145-1.133,3.892-1.564C363.817,234.12,361.9,236.513,361.28,236.476Z" transform="translate(-291.324 -224.091)" fill="#fefefe" fill-rule="evenodd"/>
      <path id="Path_11591" data-name="Path 11591" d="M361.147,243.962c1.867.134,4.047,2.768,3.826,1.262C364.693,243.292,361.83,242.906,361.147,243.962Z" transform="translate(-291.449 -215.965)" fill="#fefefe" fill-rule="evenodd"/>
      <path id="Path_11592" data-name="Path 11592" d="M347.6,229.966c9.029-3.432,11.55,6.312,5.281,14.446C357.8,234.83,352.4,230.515,347.6,229.966Z" transform="translate(-304.195 -229.259)" fill="#8a2e30" fill-rule="evenodd"/>
    </g>
    <g id="Group_4102" data-name="Group 4102" transform="translate(337.279 447.674)">
      <path id="Path_11593" data-name="Path 11593" d="M304.085,300.829c-5.114-12.672,4.025-8.94,10.708-5.31C306.273,292.951,302.816,290.99,304.085,300.829Z" transform="translate(-290.559 -292.046)" fill="#0db02b" fill-rule="evenodd"/>
      <g id="Group_4101" data-name="Group 4101" transform="translate(0 0.813)">
        <path id="Path_11594" data-name="Path 11594" d="M312.033,296.856c-18.291-3.876-11.088,7.55-4.61,15.692C301.939,301.679,298.474,297.487,312.033,296.856Z" transform="translate(-292.608 -289.066)" fill="#0db02b" fill-rule="evenodd"/>
        <path id="Path_11595" data-name="Path 11595" d="M306.863,294.4c-9.285-5.553-7.484,2.054-5.466,7.725C300.433,295.146,299.322,292.2,306.863,294.4Z" transform="translate(-293.212 -292.465)" fill="#0db02b" fill-rule="evenodd"/>
        <path id="Path_11596" data-name="Path 11596" d="M305.807,299.476c-14.728-3.119-8.926,6.081-3.711,12.635C297.68,303.36,294.889,299.984,305.807,299.476Z" transform="translate(-296.337 -286.458)" fill="#0db02b" fill-rule="evenodd"/>
        <path id="Path_11597" data-name="Path 11597" d="M303.483,296.15c-9.285-5.553-7.486,2.053-5.466,7.725C297.053,296.9,295.943,293.951,303.483,296.15Z" transform="translate(-296.393 -290.816)" fill="#0db02b" fill-rule="evenodd"/>
      </g>
    </g>
    <path id="Path_11598" data-name="Path 11598" d="M325.744,277.986c-9.607-10.176-15.506-7-17.95,2.053C312.252,272.477,318.4,271.569,325.744,277.986Z" transform="translate(51.614 136.456)" fill="#0db02b" fill-rule="evenodd"/>
    <path id="Path_11599" data-name="Path 11599" d="M312.266,286.725c.243-14.006-7.449-16.059-17.076-11.533C305.3,273.158,311.317,276.962,312.266,286.725Z" transform="translate(39.755 137.744)" fill="#0db02b" fill-rule="evenodd"/>
    <path id="Path_11600" data-name="Path 11600" d="M295.531,279.668c3.166-8.583-1.135-11.506-8.047-10.79C294.157,269.8,297.047,273.445,295.531,279.668Z" transform="translate(32.504 133.731)" fill="#0db02b" fill-rule="evenodd"/>
    <path id="Path_11601" data-name="Path 11601" d="M331.871,290.447c-21,2.253-31.309-.221-42.258-11.081C299.448,298.806,317.648,296.2,331.871,290.447Z" transform="translate(34.507 143.697)" fill="#98da91" fill-rule="evenodd"/>
    <g id="Group_4103" data-name="Group 4103" transform="translate(431.63 363.856)">
      <path id="Path_11602" data-name="Path 11602" d="M372.677,260.815c1.081,1.663,2.182,3.3,3.1,5.064a25.866,25.866,0,0,1,2.234,5.877c-.006-.041-.01-.084-.014-.126a4.711,4.711,0,0,1,.39-2.42c.976-2.178,3.5-3.439,5.743-3.851a7.3,7.3,0,0,1,6.263,1.479,4.178,4.178,0,0,1,.5.532,63.8,63.8,0,0,1,3.981,5.572,28.9,28.9,0,0,1,2.273,4.274c1.079,2.611,1.638,5.646.124,8.21a7.038,7.038,0,0,1-5.235,3.278c-3.431.716-7.02,2.646-10.081,4.315a111.751,111.751,0,0,1-10.091,5.223c-3.486,1.465-7.389,2.484-11.129,1.361a11.2,11.2,0,0,1-5.722-4.06c-.029-.035-.056-.07-.083-.109-1.883-2.568-3.585-5.893-1.483-8.9a5.38,5.38,0,0,1,.844-.938,6.432,6.432,0,0,1,1.194-.817,11.245,11.245,0,0,1,1.716-.72c.138-.049.311-.1.476-.157a9.532,9.532,0,0,0,.846-4.732c-.019-.316-.049-.631-.089-.945a23.43,23.43,0,0,0-3.22-8.565,31.085,31.085,0,0,0-2-2.985,7.113,7.113,0,0,1-1.749-.186,8.4,8.4,0,0,1-4.023-2.385c-1.968-2.022-3.2-5.108-1.922-7.8,1.015-2.836,4.076-4.049,6.752-4.794A71.053,71.053,0,0,1,361,249.833c2.127-.312,4.26-.592,6.386-.916.072-.012.144-.021.214-.027a5.474,5.474,0,0,1,3.1.588C374.622,251.516,375.666,257.95,372.677,260.815Z" transform="translate(-345.004 -248.861)" fill="#fefefe" fill-rule="evenodd"/>
      <path id="Path_11603" data-name="Path 11603" d="M367.757,257.065c-.344.082-.986.165-1.114.518-.25.695.637,2.1.984,2.655,1.06,1.7,2.2,3.282,3.164,5.054a20.112,20.112,0,0,1,1.956,15.764l1.079-.276a20.917,20.917,0,0,0,4.348-1.438,3.69,3.69,0,0,0,1.531-1.465,6.585,6.585,0,0,0,.677-2.966,24.98,24.98,0,0,0-.578-5.056c-.672-2.117,4.612-3.924,6.638-2.117a.66.66,0,0,1,.087.093,60.185,60.185,0,0,1,3.769,5.27c1.324,2.116,3.822,6.417,2.349,8.909a3.72,3.72,0,0,1-2.863,1.638c-3.82.771-7.733,2.828-11.137,4.683a109.986,109.986,0,0,1-9.776,5.074c-2.682,1.126-5.918,2.106-8.81,1.236a7.858,7.858,0,0,1-4.018-2.908c-.856-1.168-2.471-3.422-1.438-4.9.943-1.351,3.416-1.128,4.134-2.4a12.726,12.726,0,0,0,1.555-7.137c-.023-.4-.062-.792-.113-1.186a26.912,26.912,0,0,0-3.777-10.052,33.669,33.669,0,0,0-2.294-3.379,12.755,12.755,0,0,0-1.159-1.366c-.194.029-.532.13-.683.161a3.821,3.821,0,0,1-1.677-.008,5.058,5.058,0,0,1-2.343-1.436c-.953-.978-1.98-2.737-1.2-4.084.433-1.623,3.106-2.416,4.487-2.8a68.55,68.55,0,0,1,8.3-1.58c2.133-.314,4.272-.594,6.4-.92l.037,0C369.343,250.338,370.51,256.6,367.757,257.065Z" transform="translate(-343.339 -247.194)" fill="#fddc00" fill-rule="evenodd"/>
    </g>
    <g id="Group_4104" data-name="Group 4104" transform="translate(338.984 322.964)">
      <path id="Path_11604" data-name="Path 11604" d="M336.295,238.621a2.51,2.51,0,0,1,1.79,2.962c-.041.243-.089.487-.14.73-.159.774-.334,1.549-.508,2.321-.524,2.314-1.069,4.625-1.615,6.935q-1.188,5.016-2.4,10.025l-.291,1.2-2.283.924-1.04-.656c-4.912-3.1-9.846-6.164-14.881-9.064a144.247,144.247,0,0,0-14.5-7.482l-.087-.037-.167-.089-.079-.05c-3.012-1.912-3.111-6.863-2.583-9.982.538-3.173,2.1-7.03,5.376-8.222a5.808,5.808,0,0,1,3.453-.146l.144.037.276.109.128.07a87.746,87.746,0,0,0,14.31,5.586C326.214,235.409,331.34,236.859,336.295,238.621Z" transform="translate(-297.271 -227.793)" fill="#337321" fill-rule="evenodd"/>
      <path id="Path_11605" data-name="Path 11605" d="M334.573,239.807c-7.88-2.824-22.381-6.537-29.983-10.658-5.941-1.524-7.808,11.81-4.363,14,9.563,4.14,21.115,11.3,29.706,16.719C329.932,259.867,334.782,239.784,334.573,239.807Z" transform="translate(-296.11 -226.63)" fill="#0db02b" fill-rule="evenodd"/>
    </g>
    <g id="Group_4111" data-name="Group 4111" transform="translate(269.495 126.646)">
      <g id="Group_4105" data-name="Group 4105" transform="translate(52.065)">
        <path id="Path_11606" data-name="Path 11606" d="M321.9,150.9a3.809,3.809,0,0,1,.384,1.24c.516,3.9-4.656,7.251-7.682,8.571-3.845,1.677-10.157,2.807-12.412-1.9-1.805-3.773-2.51-7.558-3.556-11.55-1.376-5.25-3.195-9.01-7.354-12.663-.206-.179-.4-.367-.592-.563-1.353-1.39-3.239-4.241-1.989-6.193.976-1.528,3.074-1.3,4.579-.9l.047.014C306.23,130.93,316.154,138.579,321.9,150.9Z" transform="translate(-288.294 -126.646)" fill="#e8d4bf" fill-rule="evenodd"/>
        <path id="Path_11607" data-name="Path 11607" d="M320.244,150.866c-5.211-11.166-14.254-19.149-27.86-23.343-5.25-1.388-3.67,3.109-.9,5.594,8.866,7.735,7.156,15.989,11.2,24.6C306.149,164.784,322.928,156.166,320.244,150.866Z" transform="translate(-287.704 -126.066)" fill="#f0eada" fill-rule="evenodd"/>
        <path id="Path_11608" data-name="Path 11608" d="M306.182,134.667q-.71-.582-1.456-1.137c-3.857.58-7.818,1.442-10.326,3.35a48.308,48.308,0,0,1,11.781-2.213Zm-8.338-5.345c-.371-.184-.745-.363-1.126-.542a16.314,16.314,0,0,0-4.93,4.15,61.571,61.571,0,0,1,6.056-3.608Zm-.382,19.306q.236.967.5,1.939c3.15-3.727,8.352-6.551,13.928-8.587A19.7,19.7,0,0,0,297.461,148.628Z" transform="translate(-285.007 -124.638)" fill="#e8d4bf" fill-rule="evenodd"/>
      </g>
      <g id="Group_4106" data-name="Group 4106" transform="translate(61.448 16.038)">
        <path id="Path_11609" data-name="Path 11609" d="M293.128,142.469s.214-5.794,9.839-7.337a16.157,16.157,0,0,1,14.957,5.425l-18.39,4.98Z" transform="translate(-293.128 -134.909)" fill="#337321" fill-rule="evenodd"/>
        <path id="Path_11610" data-name="Path 11610" d="M293.258,142.5s.38-5.136,10.005-6.681a16.168,16.168,0,0,1,14.792,4.769l-18.392,4.98Z" transform="translate(-293.006 -134.281)" fill="#0db02b" fill-rule="evenodd"/>
      </g>
      <path id="Path_11611" data-name="Path 11611" d="M273.4,159.494a6.683,6.683,0,0,0,5.778,1.458l0,.056,10.66-.679-.134.146C279.558,171.766,270.577,167.768,273.4,159.494Z" transform="translate(-250.741 -95.738)" fill="#337321" fill-rule="evenodd"/>
      <path id="Path_11612" data-name="Path 11612" d="M406.094,171.32c-2.715-6.906-7.575-8.526-10.434-4.268-2.68,4.082-.666,11.713,3.449,15.5C404.068,186.732,408.3,177.465,406.094,171.32Z" transform="translate(-136.351 -90.831)" fill="#337321" fill-rule="evenodd"/>
      <path id="Path_11613" data-name="Path 11613" d="M374.8,214.192c-4.152-.39-2.451-6.653-1.91-9.183a.715.715,0,0,1,.716-.569c.489.006,1.056-.052,1.549-.078.965-.049,1.931-.087,2.9-.1,1.11-.012,5.584-.21,5.238,1.774a.728.728,0,0,1-.1.25c-1.811,2.989-4.256,7.909-8.327,7.9C374.844,214.194,374.825,214.194,374.8,214.192Z" transform="translate(-157.388 -53.62)" fill="#e8d4bf" fill-rule="evenodd"/>
      <path id="Path_11614" data-name="Path 11614" d="M373.246,204.808c.772.01,9.245-.728,8.984.757-1.632,2.692-4.035,7.564-7.711,7.556C371.6,212.847,372.378,208.853,373.246,204.808Z" transform="translate(-157.037 -53.266)" fill="#fef3d8" fill-rule="evenodd"/>
      <path id="Path_11615" data-name="Path 11615" d="M318.715,198.241c-16.059,1.889-28.92,16.68-34.731,26.825-9.151,20.787,36.293,18.227,47.3,26.87C331.284,251.937,319.175,198.511,318.715,198.241Z" transform="translate(-241.422 -59.281)" fill="#337321" fill-rule="evenodd"/>
      <path id="Path_11616" data-name="Path 11616" d="M302.914,204.877c-24.079,12.466-20.261,23.582-8.7,27.144C291.2,227.508,279.43,223.263,302.914,204.877Z" transform="translate(-239.201 -53.037)" fill="#54c247" fill-rule="evenodd"/>
      <path id="Path_11617" data-name="Path 11617" d="M312.194,180.776c-16.059,1.889-28.922,16.68-34.731,26.825-9.152,20.785,36.293,18.227,47.3,26.868C324.763,234.47,312.652,181.044,312.194,180.776Z" transform="translate(-247.557 -75.714)" fill="#337321" fill-rule="evenodd"/>
      <path id="Path_11618" data-name="Path 11618" d="M293.493,187.056c-22.179,15.5-16.94,25.993-5.033,28C284.883,210.986,272.68,208.332,293.493,187.056Z" transform="translate(-245.732 -69.805)" fill="#54c247" fill-rule="evenodd"/>
      <path id="Path_11619" data-name="Path 11619" d="M340.44,164.988c-14.1-18.307-49.6-24.242-63.354-26.517-26.055-1.372,11.977,55.982,12.556,73.1C289.642,211.57,340.548,165.659,340.44,164.988Z" transform="translate(-255.35 -115.542)" fill="#337321" fill-rule="evenodd"/>
      <path id="Path_11620" data-name="Path 11620" d="M300.145,157.8c-16.059,1.888-30.2,16.288-34.731,26.825-9.151,20.785,36.293,18.227,47.3,26.868C312.714,211.5,300.6,158.07,300.145,157.8Z" transform="translate(-258.895 -97.331)" fill="#337321" fill-rule="evenodd"/>
      <path id="Path_11621" data-name="Path 11621" d="M280.227,163.8c-21.736,17.462-15.628,27.889-3.247,29.127C273.023,189,260.3,187.109,280.227,163.8Z" transform="translate(-257.406 -91.686)" fill="#0db02b" fill-rule="evenodd"/>
      <path id="Path_11622" data-name="Path 11622" d="M309.423,150.679c-30.942-13.35-46.485-17.247-37.19,8.09C267.245,136.106,284.778,142.946,309.423,150.679Z" transform="translate(-253.857 -113.918)" fill="#0db02b" fill-rule="evenodd"/>
      <path id="Path_11623" data-name="Path 11623" d="M302.043,150.313c3.756-6.615,9.344-11.578,16.931-13.544,17.431-4.515,38.145,8.528,46.137,23.745,2.591,3.185,5.243,6.355,8.032,9.369a56.244,56.244,0,0,0,5.8,5.6c1.407,1.133,3.67,2.834,5.627,2.5,1.726-.3,4.47-2.244,6-3.16,14.468-8.7,36.617-12.5,53.282-12.927,18.472-.476,42.881,2.774,56.576,17l.161-.148,2.09,1.333a45,45,0,0,1,19.161,26.362c2.453,9.413,1.708,20.294-4.6,28.1l-1.386,1.712-.836-.268c-1.306,9.656-5.167,18.582-13.322,25.2-11.032,8.948-26.9,11.147-40.649,11.83-7.306.365-14.611.3-21.923.328-4.274.016-8.769.014-13.138.34,2.49,3.024,6.487,6.157,8.579,7.958,4.565,3.93,9.949,8.806,11.2,14.972a14.993,14.993,0,0,1-2.717,11.552l-.058.087-.13.167-.07.08a22.406,22.406,0,0,1-5.749,4.647c-6.929,3.926-15.785,4.165-23.561,4.344-9.223.214-18.122.313-27.122,2.706-11.681,3.106-24.72,4.037-36.629,1.8-13.843-2.6-25.744-9.394-33.762-21.179-7.352-10.809-9.641-20.857-11.779-33.461l-.021-.126-.021-.252,0-.128c-.089-9.01.45-19.832-2.884-28.314a24.949,24.949,0,0,0-5.788-8.814c-11.613-11.422-21.154-26.5-22.68-43.042-1.085-11.748,2.234-24.58,12.315-31.682A26.656,26.656,0,0,1,302.043,150.313Z" transform="translate(-251.006 -117.973)" fill="#337321" fill-rule="evenodd"/>
      <path id="Path_11624" data-name="Path 11624" d="M360.854,160.722c19.46,23.974,21.562,20.25,29.813,15.292,25.927-15.58,93.913-21.241,111.18,10.78a50.682,50.682,0,0,0-2.457-5.565c18.573,11.861,24.244,36.794,13.79,49.724a24.82,24.82,0,0,0-2.6-10.322c4.355,60.388-62.395,44.628-91.311,48.8,2.944,11.017,30.148,19.708,19.561,35.36-11.094,12.5-32.291,4.656-54.854,10.722-20.548,5.4-51.062,5.227-66.905-18.082-7.476-10.97-9.392-21.135-11.267-32.19-.144-14.685.788-29.131-9.633-39.391-36.018-35.418-23.149-77.268,6.168-73.72C315.627,125.087,350.286,140.129,360.854,160.722Z" transform="translate(-249.452 -116.409)" fill="#54c247" fill-rule="evenodd"/>
      <path id="Path_11625" data-name="Path 11625" d="M306.56,141.61c2.236-4.369,22.305-8.755,13.881,6.094C317.965,149.449,303.879,147.38,306.56,141.61Z" transform="translate(-219.36 -116.494)" fill="#337321" fill-rule="evenodd"/>
      <path id="Path_11626" data-name="Path 11626" d="M310.322,277.852c-2.29-6.279-3.416-12.517-4.526-19.07l-.008-.689h0l-.006-.687,0-.687,0-.687,0-.685,0-.685,0-.685h0l0-.683h0l0-.681,0-.681h0l-.006-.679-.008-.679-.01-.675-.01-.675h0l-.016-.673-.016-.674h0l-.019-.67-.023-.668h0l-.025-.668-.031-.664-.033-.662-.039-.66c-.016-.221-.029-.441-.045-.658h0l-.048-.656q-.023-.326-.052-.652c-.019-.217-.039-.435-.058-.65s-.043-.431-.066-.646h0c-.023-.215-.047-.431-.07-.644s-.05-.429-.078-.642-.056-.427-.084-.639h0c-.029-.213-.058-.425-.089-.637s-.066-.421-.1-.631l-.1-.631h0c-.035-.208-.074-.417-.113-.625s-.079-.415-.122-.623h0c-.043-.208-.085-.413-.13-.619h0c-.045-.206-.091-.411-.138-.615s-.1-.408-.147-.611-.1-.406-.157-.608-.109-.4-.167-.606-.114-.4-.177-.6-.122-.4-.186-.6-.128-.394-.2-.592-.136-.392-.208-.586-.144-.39-.217-.584-.151-.386-.231-.578-.157-.384-.241-.575-.167-.38-.252-.571-.175-.377-.264-.565-.184-.375-.278-.561h0c-.1-.186-.192-.371-.291-.555s-.2-.367-.3-.551-.208-.363-.314-.543h0c-.107-.182-.217-.361-.328-.542h0q-.169-.268-.344-.536h0c-.116-.177-.237-.353-.357-.53s-.247-.349-.373-.524h0c-.126-.173-.254-.345-.386-.518h0c-.132-.173-.266-.344-.4-.514s-.274-.338-.415-.507-.285-.336-.433-.5h0c-.146-.167-.3-.332-.446-.5h0c-.151-.163-.3-.328-.462-.489h0c-.157-.163-.316-.324-.479-.485h0l-.037-.037c-.485-.477-.959-.957-1.427-1.438l-.332-.34q-.693-.719-1.359-1.438l-.239-.26q-.609-.661-1.192-1.326l-.233-.26c-.419-.481-.831-.961-1.232-1.444l-.3-.357c-.408-.493-.811-.986-1.2-1.479l-.052-.068q-.568-.719-1.108-1.438l-.268-.355q-.539-.722-1.054-1.444l-.21-.3q-.469-.664-.918-1.33l-.165-.241q-.486-.728-.949-1.456l-.229-.365c-.311-.493-.615-.986-.908-1.479l-.062-.109c-.281-.472-.551-.941-.817-1.413l-.186-.332q-.4-.716-.775-1.43l-.182-.355c-.219-.423-.433-.844-.64-1.267l-.126-.254c-.233-.477-.456-.957-.674-1.432l-.171-.379c-.213-.474-.419-.949-.619-1.421l-.089-.217c-.177-.429-.349-.858-.514-1.285l-.136-.349q-.268-.7-.512-1.4l-.115-.328c-.146-.417-.283-.833-.417-1.25l-.083-.254c-.144-.456-.277-.91-.41-1.364l-.115-.4c-.126-.446-.247-.891-.357-1.335l-.076-.307c-.093-.378-.18-.755-.266-1.132l-.085-.388c-.093-.431-.179-.86-.26-1.287l-.074-.406q-.1-.556-.186-1.108c-.014-.1-.031-.19-.045-.285-.064-.427-.12-.85-.173-1.271l-.049-.413q-.073-.62-.126-1.234c-.012-.126-.021-.254-.031-.38-.025-.318-.047-.637-.064-.951-.008-.144-.018-.291-.025-.435-.019-.392-.031-.782-.041-1.17,0-.142,0-.283-.006-.427,0-.322,0-.646,0-.967,0-.138,0-.276,0-.411.008-.351.021-.7.037-1.044l.025-.446c.019-.367.047-.734.078-1.095.012-.142.025-.281.041-.423.025-.264.054-.53.085-.794.017-.149.035-.3.054-.454.045-.34.093-.675.148-1.009.025-.163.052-.326.081-.487.043-.252.089-.5.138-.753.039-.2.078-.392.12-.588.054-.254.111-.507.171-.757.037-.163.078-.328.118-.489.078-.312.161-.621.247-.928.043-.148.087-.293.13-.439.062-.208.126-.415.192-.621.051-.157.1-.314.151-.47.1-.291.2-.578.307-.864.058-.157.12-.314.18-.47.074-.188.149-.375.225-.561.1-.231.194-.46.3-.687.08-.181.159-.359.243-.536.074-.159.149-.318.227-.476.111-.227.223-.45.34-.672l.045-.085c3.039.128,8.924-2.515,12.053-2.531a4.443,4.443,0,0,1,4.338,5.761c1.295,10.991-15.312,18.035-8.478,30.713,25.907,44.8,36.827,28.557,24.481,85.666Zm-31.47-121.22c13.918-11.626,20.059-7.874,41.375-12.239-6.03,1.075-11.956.644-17.583.677-.1.2-.21.4-.312.6-8.228-1-15.159,1.584-20.077,6.593l-.146.153c-.052.054-.1.111-.153.165a30.415,30.415,0,0,0-3.1,4.047Z" transform="translate(-249.449 -109.947)" fill="#0db02b" fill-rule="evenodd"/>
      <path id="Path_11627" data-name="Path 11627" d="M406.312,209.477c8.373,7.9,22.014,15.754,14.031,27.594l-.008.01-.008.012-.118.13c-11.127,12.315-32.252,4.551-54.736,10.594-20.548,5.4-51.062,5.227-66.905-18.082A59.4,59.4,0,0,1,293.9,221.6c11.7,15.9,20.527,26.1,53.969,17.674,21.259-5.982,46.289,6.374,62.492-.274C423,232.7,413.5,220.8,406.312,209.477Z" transform="translate(-230.954 -48.709)" fill="#0db02b" fill-rule="evenodd"/>
      <path id="Path_11628" data-name="Path 11628" d="M351.839,155.184c5.852,6.112,9.347,8.066,12.336,7.933C352.99,174.283,347,183.4,341.738,189.664c-9.169,10.254-27.627,29.832-47.723,5.588C313.968,180.513,332.381,168.914,351.839,155.184Z" transform="translate(-230.846 -99.794)" fill="#0db02b" fill-rule="evenodd"/>
      <path id="Path_11629" data-name="Path 11629" d="M342.241,214.636c17.274,16.541,38.5,27.943,39.507,25.754-28.262,6.667-61.653-19.861-64.5-46.427C316.343,196.154,337.055,212.487,342.241,214.636Z" transform="translate(-209.014 -63.306)" fill="#0db02b" fill-rule="evenodd"/>
      <path id="Path_11630" data-name="Path 11630" d="M386.561,174.826c-3.517-3.1-6.716-2.607-7.094.611-.328,3.067,3,6.772,6.407,7.713C389.866,184.07,389.573,177.642,386.561,174.826Z" transform="translate(-150.464 -83.27)" fill="#337321" fill-rule="evenodd"/>
      <path id="Path_11631" data-name="Path 11631" d="M329.524,204.062c5.38,21.271,22.315,43.966,50.528,35.171,10.479-6.236-7.917-24.615-9.545-32.429C350.564,208.4,340.444,214.933,329.524,204.062Z" transform="translate(-197.435 -53.804)" fill="#264631" fill-rule="evenodd"/>
      <path id="Path_11632" data-name="Path 11632" d="M332.735,209.447c1.287,3.876,1.989,9.068,6.97,14.027,10.143,10.333,17.348,13.406,30.583,13.173,5.171-1.613,9.524-2.946,4.421-12.325-8.934-12.961-29.622-16.174-40.561-17.266,7.952,2.512,14.169,5.92,18.118,11.438C345.231,212.588,338.641,209.144,332.735,209.447Z" transform="translate(-194.413 -50.987)" fill="#ba122b" fill-rule="evenodd"/>
      <path id="Path_11633" data-name="Path 11633" d="M386.383,171.843c-7.079-1.467-9.718,1.3-7.853,7.546C373.53,172.324,380.19,168.033,386.383,171.843Z" transform="translate(-152.974 -85.458)" fill="#337321" fill-rule="evenodd"/>
      <path id="Path_11634" data-name="Path 11634" d="M403.4,168.718c-4.621-3.992-7.711-3.032-8.9,2.343C393.709,163.79,400.39,163.359,403.4,168.718Z" transform="translate(-136.361 -90.468)" fill="#337321" fill-rule="evenodd"/>
      <path id="Path_11635" data-name="Path 11635" d="M301.425,157.213a3.883,3.883,0,0,1,.887.947c2.162,3.28-1.027,8.558-3.175,11.067-2.727,3.183-7.917,6.954-12,3.7-3.272-2.609-5.557-5.706-8.239-8.841-3.529-4.124-6.807-6.714-12.142-8.187-.262-.072-.522-.155-.778-.248-1.823-.662-4.765-2.4-4.493-4.707.214-1.8,2.2-2.51,3.728-2.807l.047-.01C278.588,146.083,290.89,148.645,301.425,157.213Z" transform="translate(-261.469 -107.059)" fill="#e8d4bf" fill-rule="evenodd"/>
      <path id="Path_11636" data-name="Path 11636" d="M300.112,157.589c-9.561-7.773-21.179-11.015-35.253-8.853-5.33,1.042-1.945,4.4,1.632,5.427,11.352,3.092,13.416,11.265,20.811,17.245C293.5,176.262,304.84,161.187,300.112,157.589Z" transform="translate(-260.884 -106.478)" fill="#f2e8c7" fill-rule="evenodd"/>
      <path id="Path_11637" data-name="Path 11637" d="M279.739,149.254c-.6-.142-1.2-.27-1.805-.388-3.218,2.2-6.409,4.709-7.832,7.519a48.208,48.208,0,0,1,9.637-7.131Zm-9.837-1.17c-.413-.006-.829,0-1.248,0a16.261,16.261,0,0,0-2.626,5.883,61.716,61.716,0,0,1,3.874-5.887Zm8.078,17.538a19.706,19.706,0,0,1,10.083-12.276c-4.13,4.266-7.579,9.076-8.788,13.8Q278.614,166.389,277.98,165.622Z" transform="translate(-257.179 -106.478)" fill="#e8d4bf" fill-rule="evenodd"/>
      <path id="Path_11638" data-name="Path 11638" d="M408.86,161.724c.951,7.614-35.558-11.772-58.338-3.455C367.569,147.728,408.07,154.76,408.86,161.724Z" transform="translate(-177.677 -101.951)" fill="#a1de9a" fill-rule="evenodd"/>
      <path id="Path_11639" data-name="Path 11639" d="M327.041,191.954c-6.531,3.36-9.107,2.995-12.171,12.4C314.359,194.5,318.231,192.569,327.041,191.954Z" transform="translate(-211.265 -65.196)" fill="#337321" fill-rule="evenodd"/>
      <path id="Path_11640" data-name="Path 11640" d="M405.42,171.519c-2.552-6.492-7.121-8.018-9.809-4.014-2.521,3.837-.627,11.015,3.243,14.574C403.516,186.01,407.5,177.3,405.42,171.519Z" transform="translate(-136.329 -90.272)" fill="#54c247" fill-rule="evenodd"/>
      <path id="Path_11641" data-name="Path 11641" d="M403.011,171.26c-1.714-4.361-4.782-5.384-6.589-2.694-1.693,2.578-.421,7.4,2.18,9.788C401.732,180.993,404.406,175.141,403.011,171.26Z" transform="translate(-135.213 -88.596)" fill="#337321" fill-rule="evenodd"/>
      <path id="Path_11642" data-name="Path 11642" d="M273.774,168.056s5.27,3.2,11.546-3.789,2.935-12.131,1.262-12.756c14.658-3.742,9.594,8.911,2.638,16.533C279.313,178.9,272.462,176.2,273.774,168.056Z" transform="translate(-250.042 -103.886)" fill="#54c247" fill-rule="evenodd"/>
      <path id="Path_11643" data-name="Path 11643" d="M293.322,152.831c-10.1,7.364-9.947,24.784.347,38.908,5.343,9.293,14.92,15.06,23.708,15.694,3.849-7.077,10.828-14.959,19.5-22.165-.3-9.479-2.432-13-6.619-20.2C319.963,150.946,303.427,145.467,293.322,152.831Z" transform="translate(-238.532 -105.088)" fill="#337321" fill-rule="evenodd"/>
      <path id="Path_11644" data-name="Path 11644" d="M294.069,153.627c-9.346,6.811-9.2,22.924.32,35.987,5.178,9.006,14.654,14.427,23.087,14.563,3.8-6.108,9.724-12.68,16.907-18.821-.066-10.1-2.04-13.328-6.155-20.407C318.707,151.884,303.412,146.816,294.069,153.627Z" transform="translate(-237.303 -104.108)" fill="#fff" fill-rule="evenodd"/>
      <g id="Group_4107" data-name="Group 4107" transform="translate(56.594 58.494)">
        <path id="Path_11645" data-name="Path 11645" d="M295.559,159.105c-6.663,4.856-6.56,16.342.227,25.655,7.5,13.039,27.639,15.549,28.514-2.673,0-7.488-1.405-9.78-4.388-14.912C313.122,157.863,302.22,154.249,295.559,159.105Z" transform="translate(-290.627 -156.629)" fill="#54c247" fill-rule="evenodd"/>
        <path id="Path_11646" data-name="Path 11646" d="M295.539,161.066c-5.71,4.161-5.623,14.006.2,21.989,6.426,11.176,23.687,13.324,24.438-2.292,0-6.417-1.205-8.383-3.762-12.779C310.594,160,301.249,156.9,295.539,161.066Z" transform="translate(-289.983 -154.494)" fill="#212121" fill-rule="evenodd"/>
        <path id="Path_11647" data-name="Path 11647" d="M296.532,158.958c-2.024,1.477-1.993,4.969.07,7.8,2.281,3.965,8.4,4.728,8.67-.813a7.106,7.106,0,0,0-1.335-4.534C301.874,158.58,298.559,157.481,296.532,158.958Z" transform="translate(-286.481 -155.354)" fill="#fefefe" fill-rule="evenodd"/>
        <path id="Path_11648" data-name="Path 11648" d="M298.9,157.165c-1.178.86-1.161,2.894.041,4.542,1.328,2.31,4.895,2.754,5.05-.472a4.16,4.16,0,0,0-.778-2.642C302.008,156.946,300.077,156.305,298.9,157.165Z" transform="translate(-283.667 -156.783)" fill="#fefefe" fill-rule="evenodd"/>
        <path id="Path_11649" data-name="Path 11649" d="M297.871,165.856c-.8.58-.782,1.951.027,3.063.895,1.557,3.3,1.855,3.4-.32a2.8,2.8,0,0,0-.524-1.778C299.967,165.708,298.667,165.276,297.871,165.856Z" transform="translate(-284.365 -148.489)" fill="#fefefe" fill-rule="evenodd"/>
      </g>
      <path id="Path_11650" data-name="Path 11650" d="M306.228,142.487c2.2-4.3,21.043-9.052,13.67,6C317.5,150.227,303.194,144.76,306.228,142.487Z" transform="translate(-219.75 -115.754)" fill="#54c247" fill-rule="evenodd"/>
      <g id="Group_4109" data-name="Group 4109" transform="translate(88.957 24.437)">
        <path id="Path_11651" data-name="Path 11651" d="M314.76,141.367c-9,5.559-10,20.265-2.224,32.846A27.259,27.259,0,0,0,326.549,187.6a110.159,110.159,0,0,1,22.35-11.727c.151-.728.28-1.485.379-2.277.734-9.58-.839-12.651-4.152-19.508C337.356,141.5,323.76,135.808,314.76,141.367Z" transform="translate(-307.301 -139.236)" fill="#337321" fill-rule="evenodd"/>
        <path id="Path_11652" data-name="Path 11652" d="M315.005,142.164c-8.332,5.145-9.256,18.761-2.061,30.408a25.016,25.016,0,0,0,14.59,12.977,110.545,110.545,0,0,1,18.687-9.831,25.342,25.342,0,0,0,.74-3.721c.677-8.868-.776-11.711-3.843-18.06C335.923,142.29,323.338,137.019,315.005,142.164Z" transform="translate(-306.551 -138.337)" fill="#fff" fill-rule="evenodd"/>
        <g id="Group_4108" data-name="Group 4108" transform="translate(4.413 8.979)">
          <path id="Path_11653" data-name="Path 11653" d="M315.1,145.441c-6.671,4.119-7.41,15.017-1.652,24.341,3.008,6.3,9.056,10.444,14.708,11.028a114.073,114.073,0,0,1,11.011-6.048,17.6,17.6,0,0,0,1.512-5.44c.543-7.1-.621-9.375-3.076-14.458C331.849,145.54,321.774,141.323,315.1,145.441Z" transform="translate(-309.575 -143.863)" fill="#54c247" fill-rule="evenodd"/>
          <path id="Path_11654" data-name="Path 11654" d="M314.872,147.356c-5.716,3.531-6.349,12.872-1.413,20.863,3.313,6.945,10.933,10.826,16.6,9.109q1.619-.955,3.263-1.854c1.753-1.6,3.028-4.1,3.472-7.649.466-6.085-.534-8.037-2.638-12.393C329.225,147.441,320.59,143.825,314.872,147.356Z" transform="translate(-309.049 -141.849)" fill="#212121" fill-rule="evenodd"/>
          <path id="Path_11655" data-name="Path 11655" d="M315.7,145.651c-2.028,1.254-2.251,4.567-.5,7.4,1.875,3.925,7.626,5.095,8.282-.14a6.764,6.764,0,0,0-.937-4.4C320.789,145.682,317.726,144.4,315.7,145.651Z" transform="translate(-305.395 -142.632)" fill="#fefefe" fill-rule="evenodd"/>
          <path id="Path_11656" data-name="Path 11656" d="M318.009,144.175c-1.182.728-1.312,2.659-.293,4.311,1.091,2.284,4.439,2.966,4.821-.083a3.93,3.93,0,0,0-.543-2.558C320.973,144.192,319.189,143.445,318.009,144.175Z" transform="translate(-302.561 -143.832)" fill="#fefefe" fill-rule="evenodd"/>
          <path id="Path_11657" data-name="Path 11657" d="M316.373,152.363c-.794.491-.883,1.793-.2,2.906.736,1.541,2.993,2,3.251-.056a2.664,2.664,0,0,0-.369-1.725C318.372,152.375,317.171,151.872,316.373,152.363Z" transform="translate(-303.798 -136.041)" fill="#fefefe" fill-rule="evenodd"/>
        </g>
      </g>
      <path id="Path_11658" data-name="Path 11658" d="M300.632,207.78c3.573-15.308,28.431-38.374,54.165-48.209,2.255,2.6,9.363-6.506,10.295-1.137-9.87,7.834-25.814,23.522-30.043,31.449,2.385-8.35,5.763-13.392,12.577-21.232C329.823,178.562,311.9,190.242,300.632,207.78Z" transform="translate(-224.62 -98.361)" fill="#337321" fill-rule="evenodd"/>
      <g id="Group_4110" data-name="Group 4110" transform="translate(159.837 155.105)">
        <path id="Path_11659" data-name="Path 11659" d="M355,206.559c.885,2.647,2.545,8.437-1.1,9.225l-.064.012c-3.616.439-7.88-3.992-10.013-6.677A90.382,90.382,0,0,0,355,206.559Z" transform="translate(-343.82 -206.559)" fill="#e8d4bf" fill-rule="evenodd"/>
        <path id="Path_11660" data-name="Path 11660" d="M344.242,208.889c1.98,2.416,5.939,6.477,9.107,6.093,2.581-.557,1.753-4.747.561-8.319A90.919,90.919,0,0,1,344.242,208.889Z" transform="translate(-343.423 -206.461)" fill="#f2e8c7" fill-rule="evenodd"/>
      </g>
      <path id="Path_11661" data-name="Path 11661" d="M316.4,193.433c27.9,27.4,44.544,29.277,88.048,17.294C350.722,237.243,324.442,207.163,316.4,193.433Z" transform="translate(-209.784 -63.805)" fill="#337321" fill-rule="evenodd"/>
    </g>
    <g id="Group_4113" data-name="Group 4113" transform="translate(252.939 257.967)">
      <path id="Path_11662" data-name="Path 11662" d="M348.768,255.993c1.415,2.317,4.161,1.108,5.433,4.753l.025.078c2.661,9.377-2.108,18.511-8.81,24.853l-.043.041-.093.074-.049.033a2.446,2.446,0,0,1-1.885.433c-1.557-.318-2.362-2.358-3.061-3.618a17.875,17.875,0,0,0-1.225-1.939,15.347,15.347,0,0,1-5.464,4.249c-5.256,2.449-11.29,1.712-16.449-.6-11.552-5.182-33-4.332-45.594-2.653-20.444,3.664-20.061-22.392-.441-22.323,2.51.01,5.035.18,7.542.293,1.493.068,11.073.642,11.76-1.514-1.147-2.678-14.7-3.864-17-4.107-4.132-.435-8.451-.8-12.521-1.615a8.421,8.421,0,0,1-4.55-2.081c-4.3-3.868-4.121-11.125-1.725-15.952,3.48-7.014,10.524-8.977,17.763-6.958a39.436,39.436,0,0,1,9.631,4.326c2.634,1.5,5.33,3.17,8.1,4.394,1.388.615,3.812,1.566,5.322.916a1.962,1.962,0,0,0,.3-.155,1.268,1.268,0,0,0,.361-.751c.093-2.6-10.388-7.62-12.424-8.655-3.573-1.819-8.072-3.954-11.168-6.479-13.74-10.194,4.107-31.1,19.1-17.414,7.624,5.468,14.782,12.018,22.806,16.828a51.525,51.525,0,0,0,9.068,4.355l.047.017.091.041.045.023a2.6,2.6,0,0,0,1.021.349c.8-.592.806-7.057.84-8.109.177-5.237.656-10.628,2.915-15.432l.025-.058.066-.111.037-.052c3.928-5.512,10.881-9.1,17.482-6.056a12.017,12.017,0,0,1,6.357,7.311c1.343,4.08.778,8.561-.573,12.563a32.16,32.16,0,0,1-1.386,4.864,39.527,39.527,0,0,0-2.539,8.717,21.019,21.019,0,0,0,2.1,11.211,12.048,12.048,0,0,1,1.778,9.891A20.127,20.127,0,0,1,348.768,255.993Z" transform="translate(-252.939 -194.305)" fill="#595959" fill-rule="evenodd"/>
      <g id="Group_4112" data-name="Group 4112" transform="translate(81.995 60.367)">
        <path id="Path_11663" data-name="Path 11663" d="M313.11,231.948c2.636,9.28-2.533,17.864-8.418,23.435-2.178,1.461-2.176-4.171-7.084-7.589-4.779-.551-1.425-9.006,1-14.25,1.244-3.664,4.757-11.364,8.893-6.653C309.154,230.507,312.015,228.807,313.11,231.948Z" transform="translate(-295.184 -225.407)" fill="#595959" fill-rule="evenodd"/>
        <path id="Path_11664" data-name="Path 11664" d="M311.475,232.088c2.327,8.195-2.238,15.772-7.434,20.69-1.689,1.134-1.65-3.038-4.551-6.114,1.634-.51,3.463-1.731,5.634-4.21a30.647,30.647,0,0,1-6.8,3.168l-.217-.157c-4.218-.487-1.572-7.337.567-11.968,1.1-3.235,4.2-10.033,7.853-5.875a5.592,5.592,0,0,0,.276.53,28.88,28.88,0,0,1,.662,5.605,18.5,18.5,0,0,0,.716-4.212C309.447,230.293,310.819,230.207,311.475,232.088Z" transform="translate(-294.547 -224.554)" fill="#d9d6d1" fill-rule="evenodd"/>
        <path id="Path_11665" data-name="Path 11665" d="M309.147,231.718c1.852,6.52-.66,12.651-4.383,17.362a8.31,8.31,0,0,0-3.876-4.978l-.045-.033a22.14,22.14,0,0,0,1.953-1.984,26.476,26.476,0,0,1-2.97,1.638c-3.1-1.318-.7-7.527,1.269-11.824a19.771,19.771,0,0,1,2.548-5.192,5.363,5.363,0,0,1,.549.545,5.6,5.6,0,0,0,.276.53,28.875,28.875,0,0,1,.662,5.605,18.489,18.489,0,0,0,.716-4.212C307.118,229.923,308.491,229.838,309.147,231.718Z" transform="translate(-292.219 -224.184)" fill="#fff" fill-rule="evenodd"/>
      </g>
      <path id="Path_11666" data-name="Path 11666" d="M270.649,279.592c-18.468,3.335-17.794-19.487-.223-19.5,7.68.1,20.413,1.939,20.758-2.725-1.034-5.182-20.583-4.986-30.734-7.036-11.81-1.562-8.214-27.573,10.892-22.222,8.639,2.081,19.65,12.711,24.634,9.2,5.355-5.6-16.04-12.154-23.289-18.091-12.222-9.023,3.765-27.676,17.33-15.192,11.442,8.193,20.079,17.03,32.291,21.416,6.758,3.571,1.295-12.3,6.721-23.844,9.233-12.952,26.961-5.607,20.735,12.637-1.429,7.874-7.323,13.425-1.7,25.826,6.318,9.936-4.01,15.838-6.475,22.99.689,18.856-12.061,24.828-24.543,19.3C306.034,277.337,285.391,277.622,270.649,279.592Z" transform="translate(-252.255 -193.604)" fill="#595959" fill-rule="evenodd"/>
      <path id="Path_11667" data-name="Path 11667" d="M270.55,277.2c-18.468,3.337-15.442-15.9-1.264-15.956,6.566.091,18.219.169,21.674-2.727a7.752,7.752,0,0,0,2.35,4.417,40.44,40.44,0,0,1,.767-12.958,12.755,12.755,0,0,0-2.956,5.369c-3.973-4.02-20.677-5.27-29.824-7.117-11.809-1.562-7.624-24.2,9.227-18.66,8.123,1.956,19.586,10.271,25.071,8.336a12.618,12.618,0,0,0-.458,6.351,40.513,40.513,0,0,1,6.285-11.358,7.859,7.859,0,0,0-4.024,2.123c-.93-5.122-17.189-11.042-23.439-16.16-12.222-9.023,1.421-25.981,14.988-13.5,11.442,8.193,22.01,18.864,34.22,23.248,6.758,3.573.551-14.349,5.978-25.9,9.233-12.952,24.217-7.358,17.988,10.887-1.429,7.874-7.321,13.425-1.7,25.824,6.318,9.938-4.008,15.84-6.475,22.992.689,18.858-11.873,22.437-24.351,16.915-11.013-5.015-29.316-4.1-44.057-2.133ZM317.9,265.784a40.611,40.611,0,0,1,5.569-10.432,12.25,12.25,0,0,0,2.851,2.828c-1.805-4.394-4.938-15.329-2.35-21.527-3.961,3.979-4.6,12.4-.918,18.091C318.533,256.343,317.132,261.079,317.9,265.784Z" transform="translate(-251.395 -193.033)" fill="#fff" fill-rule="evenodd"/>
      <path id="Path_11668" data-name="Path 11668" d="M270.537,276.687c-6.5,1.174-10.333-.45-11.96-3.047,8.662,2.51,24.524-6.487,36.751-1.922,12.793,1.826,37.126,9.732,40.882-8.144-2.785.464-5.53.606-7.5-1.411,6.159-1.7,7.575-7.721,10.908-12.845,3.239-7.42-1.943-11.787-2.913-17.682-.468-14.974,12.243-21.17,7.682-35.433,3.816,2.267,5.728,8.113,2.733,16.886-1.429,7.874-7.321,13.423-1.7,25.824,6.318,9.938-4.008,15.84-6.475,22.992.689,18.858-11.873,22.437-24.351,16.913-11.013-5.015-29.316-4.1-44.057-2.131Zm20.469-21.958c.054-.039.107-.08.159-.12a11.961,11.961,0,0,1,1.743-3.674c-11.2-4.975-29.424-4.674-38.314-10.832.25,3.74,2.428,7.049,6.69,7.612,9.07,1.832,25.566,3.076,29.721,7.014Zm6.141-20.966.239.743c.246-.214.918-.794,1.2-.976-8.856-12.342-23.322-15.869-27.87-28.65-2.519,3.864-2.207,9.45,3.234,13.466C279.9,223.221,294.917,228.818,297.147,233.764Z" transform="translate(-251.382 -192.519)" fill="#d9d6d1" fill-rule="evenodd"/>
    </g>
    <g id="Group_4114" data-name="Group 4114" transform="translate(363.02 325.223)">
      <path id="Path_11669" data-name="Path 11669" d="M339.51,239.46c-.623,2.979-.493,1.815-1.133,2.29-11.393,7.2-12.657,6.818-13.206,24.782.408,5.883-9.945,4.07-12.816.9-2.659-2.933-2.97-7.273-2.541-11.022a2.869,2.869,0,0,1,.068-.382c2.22-8.969,7.335-16.228,13.2-23.186.064-.076.13-.146.2-.215,3.445-3.356,9.346-5.215,13.5-2.017C339.555,232.738,340.164,236.2,339.51,239.46Z" transform="translate(-309.655 -228.957)" fill="#b01c2e" fill-rule="evenodd"/>
      <path id="Path_11670" data-name="Path 11670" d="M337.029,238.362a1.323,1.323,0,0,1-.526.9c-9.411,6.983-11.038,16.139-14,26.864-.969,3.513-13.412,3.43-11.842-10.337a1.193,1.193,0,0,1,.029-.167c2.156-8.707,7.162-15.756,12.855-22.5.031-.035.056-.064.089-.1,2.834-2.762,7.828-4.561,11.3-1.889C337.2,232.873,337.566,235.73,337.029,238.362Z" transform="translate(-308.833 -228.144)" fill="#e62129" fill-rule="evenodd"/>
    </g>
    <g id="Group_4117" data-name="Group 4117" transform="translate(330.631 450.35)">
      <path id="Path_11671" data-name="Path 11671" d="M306.155,424.142a20.207,20.207,0,0,1-8.21-2.09,8.669,8.669,0,0,1-4.747-5.937c-.586-3.257,1.18-6.215,3.531-8.313,3.1-2.766,7.471-4.507,11.422-5.6l.062-.016a43.6,43.6,0,0,0,4.315-1.335c4.649-1.692,2.894-10.572,7.189-13.008,3.857-2.189,8.165-5.768,10.145-10.025a51.672,51.672,0,0,0-3.037-6.993c-8.6-14.518-14.6-32.753-8.915-49.425,5.419-15.9,20.632-19.8,35.944-22.977,4.645-2.123,5.184-3.858,10.25-3.057,7.808,1.238,16.517,2.919,21.232,9.1,11.083,14.516,15.23,27.852,9.043,45.621-4.509,12.948-14.048,16.082-24.271,23.258-.856,2.8-1.636,6.277-1.186,9.074a6.116,6.116,0,0,0,2.284,4.037,15.724,15.724,0,0,0,3.28,1.929c2.768,1.3,5.675,2.38,7.818,4.672,2.667,2.853,3.051,6.514,2.4,10.217-1.343,10.671-15.867,17.854-24.906,20.669-9.349,2.911-24.859,5.015-32.217-3.241q-.21-.233-.408-.477c-.369-.074-.738-.163-1.1-.262a34.1,34.1,0,0,1-7.967,2.079c-3.451.534-.406,8.707-3.472,7.22A48.38,48.38,0,0,1,306.155,424.142Z" transform="translate(-292.857 -291.784)" fill="#337321" fill-rule="evenodd"/>
      <path id="Path_11672" data-name="Path 11672" d="M354.006,295.69c-39.234,12.6-43.288,43.9-24.6,75.4,2.1,3.991,5.388,8.356,9.551,10.116a37.232,37.232,0,0,0,10.281,2.541c-5.539.05-12.7-1.054-15.826-2.828-6.125,11.981-7.919,17.808-19.368,20.692-17.732,4.895-29.007,10.881-14.3,11.335,2.529,2.341,13.2,8.688,18.043,7.938a31.565,31.565,0,0,0,8.264-2.284,11.687,11.687,0,0,0,2.81.631c9.411,14.349,51.283.947,53.154-14.733,3.016-16.87-22.722-5.151-14.213-31.264L373.5,358.2l-2.162,12.62c12.75-8.278,24.025-11.888,22.691-41.242C390.5,302.748,371.937,287.36,354.006,295.69Z" transform="translate(-292.968 -293.425)" fill="#54c247" fill-rule="evenodd"/>
      <g id="Group_4116" data-name="Group 4116" transform="translate(27.825 37.305)">
        <path id="Path_11673" data-name="Path 11673" d="M316.7,323.7c-13.15,6.141-9.708-3.762-6.238-11.054C308.223,321.826,306.338,325.6,316.7,323.7Z" transform="translate(-307.303 -312.645)" fill="#0db02b" fill-rule="evenodd"/>
        <g id="Group_4115" data-name="Group 4115" transform="translate(1.215 4.81)">
          <path id="Path_11674" data-name="Path 11674" d="M312.119,315.123c-3.076,19.617,8.633,11.333,16.9,4C317.8,325.557,313.553,329.468,312.119,315.123Z" transform="translate(-304.461 -315.123)" fill="#0db02b" fill-rule="evenodd"/>
          <path id="Path_11675" data-name="Path 11675" d="M309.7,318.449c-5.363,10.161,2.6,7.822,8.5,5.359C310.857,325.225,307.8,326.57,309.7,318.449Z" transform="translate(-307.93 -311.993)" fill="#0db02b" fill-rule="evenodd"/>
          <path id="Path_11676" data-name="Path 11676" d="M315.218,320.41c-2.477,15.8,6.952,9.124,13.608,3.222C319.8,328.81,316.373,331.96,315.218,320.41Z" transform="translate(-301.452 -310.148)" fill="#0db02b" fill-rule="evenodd"/>
          <path id="Path_11677" data-name="Path 11677" d="M311.751,321.934c-5.363,10.163,2.6,7.824,8.5,5.361C312.908,328.712,309.847,330.057,311.751,321.934Z" transform="translate(-306.002 -308.714)" fill="#0db02b" fill-rule="evenodd"/>
        </g>
      </g>
      <path id="Path_11678" data-name="Path 11678" d="M327.467,301.194c-12.288.382-20.2,10.7-16.851,25.135C310.62,315.8,318.983,304.639,327.467,301.194Z" transform="translate(-277.086 -286.114)" fill="#98da91" fill-rule="evenodd"/>
    </g>
    <path id="Path_11679" data-name="Path 11679" d="M331.767,340.454c-5.035,10.046-7.236,14.786-17.723,17.428-17.732,4.895-29.007,10.881-14.3,11.335,2.529,2.341,13.2,8.688,18.043,7.938a31.562,31.562,0,0,0,8.264-2.284,11.686,11.686,0,0,0,2.81.631c9.411,14.349,51.283.947,53.154-14.734,1.594-8.911-4.835-9.846-10-12.593l-.27.21a22.317,22.317,0,0,1-7.294,3.437,21.191,21.191,0,0,1-4.856.908v0h0C359.726,340.54,340.5,338.725,331.767,340.454Z" transform="translate(37.664 200.651)" fill="#0db02b" fill-rule="evenodd"/>
    <g id="Group_4118" data-name="Group 4118" transform="translate(370.1 432.323)">
      <path id="Path_11680" data-name="Path 11680" d="M320.367,291.048c-3.232.357-5.081,1.7-3.853,5.254.862,2.275,2.75,2.756,5.832,1.339C327.706,295.285,325.8,290.642,320.367,291.048Z" transform="translate(-310.64 -277.658)" fill="#299926" fill-rule="evenodd"/>
      <path id="Path_11681" data-name="Path 11681" d="M316.824,290.038c-1.679-.807-2.983-.722-3.469,1.38-.274,1.366.5,2.174,2.424,2.422C319.1,294.326,319.584,291.492,316.824,290.038Z" transform="translate(-313.302 -279.029)" fill="#299926" fill-rule="evenodd"/>
      <path id="Path_11682" data-name="Path 11682" d="M325.478,284.651c8.468,4.029,7.682,13.549-3.127,11.972-6.028-.778-8.441-3.307-7.585-7.585C315.632,285.286,321.4,283.075,325.478,284.651Z" transform="translate(-312.083 -284.137)" fill="#299926" fill-rule="evenodd"/>
    </g>
    <g id="Group_4121" data-name="Group 4121" transform="translate(308.01 540.988)">
      <path id="Path_11683" data-name="Path 11683" d="M395.54,377.142l.068-.074a21,21,0,0,0,4.1-6.225,11.11,11.11,0,0,0,.825-3.831l0-.116v-.064a8.621,8.621,0,0,0-.188-1.826,7.76,7.76,0,0,0-1.112-2.667c-.124-.184-.258-.367-.4-.54l-.654-.805.05-1.036c.006-.148.016-.3.021-.444.051-1.155.122-2.312.126-3.47.008-2.618-.312-5.446-2-7.568-2.7-3.4-6.712-3.014-10.448-2.215-.3,2.762-.592,3.682-3,5.518a22.306,22.306,0,0,1-7.294,3.439,33.4,33.4,0,0,1-6.116,1.145l-3,.283.029-3.012c0-.233,0-.468-.019-.7-.986-13.852-27.864-16.964-38.943-6.9l-.79.718-1.069-.014q-2.419-.032-4.839.087a43.759,43.759,0,0,0-18.749,5.7,48.66,48.66,0,0,0-15.539,13.348c-3.21,4.381-5.763,9.9-5.223,15.459.557,5.757,4.3,9.994,8.969,13.06,6.442,4.233,15.8,5.838,23.3,7.368l.015,0,.062.01c31.5,5.3,58.528-2.42,81.732-24.556Z" transform="translate(-281.313 -340.123)" fill="#212121" fill-rule="evenodd"/>
      <path id="Path_11684" data-name="Path 11684" d="M336.917,360.532c-10.161-3.732-21.566-8.3-31.726-12.028C319.9,333.563,352.227,344.57,336.917,360.532Z" transform="translate(-258.845 -338.889)" fill="#e62129" fill-rule="evenodd"/>
      <path id="Path_11685" data-name="Path 11685" d="M336.917,358.295c-10.161-3.732-21.566-8.3-31.726-12.028.118-.12.241-.233.359-.349,14.576-6.648,34.218,4.066,33.45,9.813A18.942,18.942,0,0,1,336.917,358.295Z" transform="translate(-258.845 -336.652)" fill="#c7252e" fill-rule="evenodd"/>
      <path id="Path_11686" data-name="Path 11686" d="M319.464,345.522c11.337-.553,19.976.968,33.386,7.672,14.654,5.392,32.625-.829,34.009-8.709,10.3-1.312,6.289,10.436,7.257,14.1,2.211,1.312,4.216,5.737-2.075,12.649-25.436,24.192-52.946,28.269-79.418,23.846-17.973-3.663-29.723-6.083-29.653-22.6C285.209,357.542,306.349,346.12,319.464,345.522Z" transform="translate(-279.754 -336.115)" fill="#e62129" fill-rule="evenodd"/>
      <path id="Path_11687" data-name="Path 11687" d="M393.968,355.8l0,.1v.006l0,.051,0,.05,0,.051,0,.048v.052l0,.05v.05l0,.049,0,.039v.027l0,.179v.423l0,.045v.045l0,.134v.052l0,.037.008.171v0l.014.2h0l0,.008.014.161,0,.025,0,.013c.014.116.027.229.047.336l0,.012v0c.01.054.019.107.031.159v.006l0,.006c.012.052.023.1.037.153l.093.058.01.006h0l.082.054.019.014.006,0,.07.049.021.017.017.012.006.006.023.017.047.035.014.01.01.008.023.019.045.037.023.019h0l.021.019.023.019.039.033.029.027.021.019.023.021.021.019,0,0,.017.018.023.023.021.021.023.021.006.006.033.035,0,0,.021.021.021.023.021.023.021.023.021.023.021.023.019.023.006.006.037.043.019.025.021.023.019.025.019.025h0l.019.027.021.025.019.025v0l.039.049v0l.019.027.019.027,0,0,.037.05.019.027.017.027.019.027.031.049.006.008.017.029c1.314,2.083,1.405,5.937-3.455,11.279-25.436,24.192-52.946,28.269-79.418,23.846-17.971-3.663-29.723-6.083-29.653-22.6a18.688,18.688,0,0,1,.732-3.053c6.116-3,11.711-3.437,18.784-1.778a.871.871,0,0,1,.1.027c4.975,1.365,7.814,3.647,11.292,7.257,2.376,2.467,4.233,4.346,7.517,5.609,5.277,2.028,12.478,1.71,18,1.157,12.15-2.114,56.205-14.244,52.486-31.662a17.7,17.7,0,0,0-2.3-5.567C394.981,345.237,394.12,351.574,393.968,355.8Z" transform="translate(-279.754 -336.073)" fill="#c7252e" fill-rule="evenodd"/>
      <path id="Path_11688" data-name="Path 11688" d="M394.246,351.744c2.156,1.409,3.958,5.792-2.207,12.566C366.6,388.5,339.093,392.579,312.62,388.156c-17.773-3.622-29.459-6.03-29.649-22.059,4.753-2.731,10-4.7,18.866-2.616,14.1,3.87,8.5,17.072,37.947,14.1C359.327,374.193,378.868,367.489,394.246,351.744Z" transform="translate(-279.752 -329.189)" fill="#f0eada" fill-rule="evenodd"/>
      <path id="Path_11689" data-name="Path 11689" d="M305.1,345.064c14.687-1.706,22.5,5.367,36.074,9.664C331.379,354.819,319.871,346.142,305.1,345.064Z" transform="translate(-258.936 -335.719)" fill="#212121" fill-rule="evenodd"/>
      <g id="Group_4119" data-name="Group 4119" transform="translate(26.909 11.66)">
        <path id="Path_11690" data-name="Path 11690" d="M296.955,352.251c-4.837-1.194,1.277-4.831,5.45-3.853a49.912,49.912,0,0,1,22.319,12.377c2.647,2.688-2.822,5.978-5.184,3.507A76.877,76.877,0,0,0,296.955,352.251Z" transform="translate(-295.177 -344.153)" fill="#c7252e" fill-rule="evenodd"/>
        <path id="Path_11691" data-name="Path 11691" d="M301.5,350.147c-4.837-1.194,1.277-4.831,5.45-3.851a49.928,49.928,0,0,1,22.321,12.377c2.646,2.688-2.822,5.978-5.186,3.507A76.93,76.93,0,0,0,301.5,350.147Z" transform="translate(-290.898 -346.131)" fill="#c7252e" fill-rule="evenodd"/>
      </g>
      <g id="Group_4120" data-name="Group 4120" transform="translate(26.641 9.941)">
        <path id="Path_11692" data-name="Path 11692" d="M296.9,351.944c-4.909-.864.945-4.907,5.175-4.214a49.934,49.934,0,0,1,23.111,10.832c2.822,2.5-2.411,6.155-4.936,3.853A76.843,76.843,0,0,0,296.9,351.944Z" transform="translate(-295.039 -342.981)" fill="#f0eada" fill-rule="evenodd"/>
        <path id="Path_11693" data-name="Path 11693" d="M301.3,349.536c-4.909-.862.945-4.9,5.174-4.212a49.933,49.933,0,0,1,23.111,10.832c2.822,2.5-2.411,6.155-4.936,3.851A76.938,76.938,0,0,0,301.3,349.536Z" transform="translate(-290.904 -345.245)" fill="#f0eada" fill-rule="evenodd"/>
      </g>
    </g>
    <g id="Group_4124" data-name="Group 4124" transform="translate(490.621 500.615)">
      <path id="Path_11694" data-name="Path 11694" d="M436.8,324.31q.774-.926,1.663-1.811a8.172,8.172,0,0,1,4.8-2.659c2.028-.409,5.025-.359,6.787,1.054.266-.031.53-.058.8-.085a9.461,9.461,0,0,1,3.226-1.264c1.91-.386,4.678-.363,6.467.819q.882-.006,1.735-.006h.093l.1.006c5.638.386,14.549,1.471,20.772,4.94h.037l.646.392a17.273,17.273,0,0,1,2.246,1.609,11.8,11.8,0,0,1,3.3,4.293,11.286,11.286,0,0,1-.136,8.878l-.031.078h0l-.027.064-.029.064A58.223,58.223,0,0,1,478.76,356.64a64.41,64.41,0,0,1-14.312,11.088,199.2,199.2,0,0,1-20.059,9.994l-.052.023-.054.021c-6.793,2.7-13.691,5.244-20.68,7.395a119.281,119.281,0,0,1-16.958,4.08c-7.1,1.083-17.132,1.626-22.375-4.352a12.577,12.577,0,0,1-2.589-4.773q-.166-.559-.289-1.13c-7.812-6.351-7.806-19.184-1.033-24.853l.635-.53.823-.089a90.085,90.085,0,0,0,26.418-7.286,9.541,9.541,0,0,1-3.335-4.39c-1.386-4.559,3.074-8.468,6.267-10.912,5.3-4.058,11.211-7.81,18.155-7.346a32.354,32.354,0,0,1,6.448,1.252C436.107,324.65,436.452,324.477,436.8,324.31Z" transform="translate(-375.397 -319.322)" fill="#212121" fill-rule="evenodd"/>
      <path id="Path_11695" data-name="Path 11695" d="M422.813,325.024c-8.917-2.5-13.3-4.54-25.5,4.691-13.284,10.277,1.976,10.514,2.011,17.594C399.326,347.31,422.937,324.9,422.813,325.024Z" transform="translate(-359.885 -315.943)" fill="#e62129" fill-rule="evenodd"/>
      <path id="Path_11696" data-name="Path 11696" d="M420.779,324.423c-1.066-.3-2.065-.59-3.022-.856-4.753-.19-9.716,1.5-17.686,7.533-10.3,7.973-5.13,10.5-1.069,13.986C404.423,339.94,420.884,324.322,420.779,324.423Z" transform="translate(-357.851 -315.341)" fill="#c7252e" fill-rule="evenodd"/>
      <path id="Path_11697" data-name="Path 11697" d="M380.5,354.4c17.505-1.908,38.044-10.13,48.046-22.524,5.363-8.944,17.1-10.605,32.116-10.615,14.411.986,28.92,5.32,24.481,16.449-8.27,17.986-19.663,25.032-43.48,35.686-35.243,14.011-57.246,16.9-59.377,2.263C376.59,371.5,375.035,358.972,380.5,354.4Z" transform="translate(-373.782 -317.495)" fill="#e62129" fill-rule="evenodd"/>
      <path id="Path_11698" data-name="Path 11698" d="M475.774,322.635c7.455,2.482,12.154,6.793,9.363,13.788-8.27,17.987-19.665,25.032-43.48,35.686-35.243,14.011-57.245,16.9-59.377,2.263a7.423,7.423,0,0,1-2.667-2.991q-.265-.428-.5-.885l-.01-.016,0,0c-2.857-5.5-2.84-13.823,1.392-17.365.922-.1,1.852-.219,2.785-.353a11.572,11.572,0,0,0-2.739,7.7c-.536,17.639,33,9.957,42.176,7.308a129.543,129.543,0,0,0,32.149-14.547c4.2-2.766,8.973-6.52,11.028-11.277,1.339-3.1,1.3-6.164,2.05-9.367a14.557,14.557,0,0,1,3.709-6.978A7.79,7.79,0,0,1,475.774,322.635Z" transform="translate(-373.782 -316.205)" fill="#c7252e" fill-rule="evenodd"/>
      <path id="Path_11699" data-name="Path 11699" d="M478.536,323.811c4.266,2.585,6.333,6.3,4.258,11.508-8.27,17.986-19.663,25.032-43.48,35.686-35.243,14.011-57.245,16.9-59.377,2.263-.113-.082-.225-.171-.334-.26,24.688,2.791,49.711-3.179,74.479-18.526,19.386-12.765,9.949-20.5,17.412-28.174C473.248,323.788,475.959,323.8,478.536,323.811Z" transform="translate(-371.439 -315.101)" fill="#f0eada" fill-rule="evenodd"/>
      <path id="Path_11700" data-name="Path 11700" d="M420.354,323.175c-8.315.313-17.975,16.473-26.317,20.789C405.289,341.938,410.026,332.5,420.354,323.175Z" transform="translate(-357.859 -315.697)" fill="#212121" fill-rule="evenodd"/>
      <g id="Group_4122" data-name="Group 4122" transform="translate(59.038 2.725)">
        <path id="Path_11701" data-name="Path 11701" d="M418.8,337.676c-.07,4.687-7.455,4.579-7.441.545,1.347-6.659,3.216-11.162,6.778-15.168,2.015-3.117,9.658-2.987,7.894-.3A28.422,28.422,0,0,0,418.8,337.676Z" transform="translate(-400.597 -320.726)" fill="#c7252e" fill-rule="evenodd"/>
        <path id="Path_11702" data-name="Path 11702" d="M413.257,338.2c-.072,4.687-7.455,4.579-7.442.545,1.347-6.659,3.214-11.162,6.778-15.168,2.013-3.117,9.658-2.987,7.894-.3A28.414,28.414,0,0,0,413.257,338.2Z" transform="translate(-405.815 -320.234)" fill="#c7252e" fill-rule="evenodd"/>
      </g>
      <g id="Group_4123" data-name="Group 4123" transform="translate(57.33 2.726)">
        <path id="Path_11703" data-name="Path 11703" d="M417.973,337.338c-.384,4.674-7.744,4.072-7.461.049,1.788-6.556,3.952-10.923,7.775-14.685,2.217-2.973,9.835-2.335,7.9.231A28.4,28.4,0,0,0,417.973,337.338Z" transform="translate(-399.695 -320.727)" fill="#f0eada" fill-rule="evenodd"/>
        <path id="Path_11704" data-name="Path 11704" d="M412.4,337.49c-.384,4.672-7.746,4.07-7.461.047,1.788-6.554,3.952-10.922,7.773-14.683,2.219-2.973,9.837-2.335,7.9.231A28.4,28.4,0,0,0,412.4,337.49Z" transform="translate(-404.935 -320.584)" fill="#f0eada" fill-rule="evenodd"/>
      </g>
    </g>
  </g>
</svg>
