<svg xmlns="http://www.w3.org/2000/svg" width="351.893" height="467.231" viewBox="0 0 351.893 467.231">
  <g id="mascot-1" transform="translate(581.241 -331.756)">
    <path id="Path_2" data-name="Path 2" d="M-448.453,505.155l.028-.045-1.383-1.565a42.028,42.028,0,0,0-3.943-3.925,31.489,31.489,0,0,0-20.687-8.205c-9.525-.077-18.415,4.249-25.433,10.473q-.784.7-1.539,1.423a60.209,60.209,0,0,0-14.532,22.828q-.482,1.332-.91,2.684A115.416,115.416,0,0,0-520.144,544q-.151.873-.3,1.746c-.26,1.549-.521,3.1-.793,4.643-9.851,3.047-23.343,20.6-22.654,27.086-2.707-1.06,20.328,23.892,26.956,22.69,5.249-1.016,8.912-4.862,11.588-9.257,1.156-1.383,2.773-2.1,4.274-3.019a23.662,23.662,0,0,0,7.485-.286,9.471,9.471,0,0,0,2.044-.507c13.541-3.958,34.994-20.365,41-32.189,3.167-6.238-5.968-11.753-3.319-18.224,2.023-4.949,3.937-10.015,6.115-14.891.876-1.344,1.752-2.686,2.644-4.018.207-.308.428-.651.655-.989l3.25-.2-2.252-4.034c-.32-.56-.647-1.119-.987-1.669l-.028-.043c-.318-.515-.639-1.028-.973-1.533l-.085-.128c-.308-.466-.622-.927-.945-1.383l-.146-.205q-.438-.622-.9-1.229l-.239-.312C-447.98,505.747-448.215,505.451-448.453,505.155Z" transform="translate(36.143 155.405)" fill="#337321" fill-rule="evenodd"/>
    <path id="Path_3" data-name="Path 3" d="M-482.081,498.353c-11.059-7.106-28.29-5.162-39.158,8.683C-511.538,498.505-493.286,495.9-482.081,498.353Z" transform="translate(58.404 158.24)" fill="#d6e164" fill-rule="evenodd"/>
    <path id="Path_4" data-name="Path 4" d="M-521.979,551.744c-11.775,8.377-36.126,29.557-6.559,49.968,15.132,11.153,10.711.539,19.382-13.9,1.916-2.419,4.085-2.95,5.95-4.363a20.923,20.923,0,0,0,7.7-.122,6.7,6.7,0,0,0,1.6-.4c22.049-6.325,50.1-39.27,57.344-55.412,2.581-3.961-10.946-14.95-10.826-14.958h0l-.01-.016q-.462-.811-.935-1.585l-.026-.043c-.306-.5-.614-.983-.927-1.458l-.085-.128q-.441-.669-.89-1.3l-.146-.207c-.278-.389-.557-.77-.841-1.143l-.239-.314q-.373-.482-.75-.947c-.118-.146-.239-.292-.357-.436q-.326-.388-.653-.764l-.172-.2,0,0c-.053-.061-.109-.116-.16-.176l-.008-.008-.008-.01-.008-.008-.152-.168c-.144-.16-.29-.318-.434-.474l-.008-.01-.008-.008-.008-.008c-.138-.148-.274-.292-.412-.434l-.01-.012-.012-.01-.01-.012-.272-.278-.18-.182-.006-.006,0-.006-.006,0-.006-.006-.006-.006,0-.006c-.178-.178-.355-.351-.535-.525l-.012-.012-.014-.012c-.124-.12-.249-.239-.375-.357l-.026-.024a33.491,33.491,0,0,0-6.3-4.679l-.006,0q-.509-.29-1.022-.556l-.022-.01c-.334-.172-.667-.337-1-.5l-.057-.028q-.491-.228-.989-.438l-.073-.03q-.494-.207-.991-.393l-.071-.026q-.494-.184-.991-.347l-.087-.028c-.33-.109-.661-.209-.991-.3l-.077-.02q-.5-.142-1.01-.264l-.053-.012q-.518-.124-1.04-.227l-.012,0a28.539,28.539,0,0,0-12.965.529l-.049.014q-.491.133-.983.284l-.1.03c-.312.1-.62.2-.927.3l-.164.055c-.294.1-.588.207-.88.318l-.2.077c-.286.111-.574.225-.858.343l-.211.089c-.274.116-.549.235-.823.359l-.253.116c-.266.122-.535.251-.8.381l-.247.122c-.266.132-.531.27-.8.409l-.253.136q-.391.21-.777.432l-.259.15c-.257.148-.515.3-.77.456l-.245.152c-.258.16-.517.322-.774.489l-.233.154c-.258.172-.515.343-.77.521l-.225.158c-.257.182-.515.363-.77.553l-.205.154c-.26.193-.519.387-.776.588l-.168.132c-.27.215-.541.43-.809.651l-.01.008a47.993,47.993,0,0,0-4.389,4.126l-.174.182c-.2.213-.4.432-.594.651-.1.111-.2.219-.3.332-.176.2-.347.4-.521.6-.116.134-.231.268-.345.4-.166.2-.332.4-.5.6-.116.142-.233.284-.349.428-.162.2-.322.409-.481.616l-.345.444c-.15.2-.3.4-.448.6-.122.168-.247.333-.367.5-.142.2-.282.4-.422.6-.12.17-.239.339-.357.513-.142.207-.282.416-.422.625-.115.172-.227.343-.339.515-.138.211-.272.424-.409.639-.112.174-.221.351-.331.529-.132.217-.265.434-.395.651q-.166.275-.326.551c-.126.215-.251.43-.373.647-.113.2-.223.395-.332.594s-.229.416-.341.626-.229.43-.341.647c-.107.2-.211.4-.314.606-.115.225-.225.454-.338.681-.1.2-.2.4-.292.6-.112.239-.225.479-.335.718-.089.2-.182.389-.268.586q-.172.382-.338.77c-.081.185-.162.373-.241.56-.113.262-.219.529-.328.8-.077.188-.152.373-.227.563-.114.286-.221.576-.331.866-.063.168-.128.336-.192.505-.134.367-.264.738-.393,1.109l-.1.28c-.164.474-.318.951-.47,1.433h0l-.081.255h0l-.079.257v0l-.079.259h0l-.077.262h0l-.077.265v0l-.075.266h0l-.075.268h0l-.075.272h0l-.073.272h0l-.073.276h0l-.071.278h0l-.073.278h0l-.071.282-.069.284h0l-.069.286h0l-.069.286h0l-.067.288h0l-.067.292h0l-.067.292h0l-.065.294h0l-.065.294h0l-.065.3-.063.3h0l-.063.3h0l-.063.3h0l-.063.3h0l-.063.3-.061.306-.061.3-.061.308h0l-.061.308h0l-.059.308-.059.31-.059.312-.057.312-.057.312-.057.314-.057.314-.057.314-.057.314-.055.316h0l-.055.316-.057.318h0l-.055.316-.053.318-.057.318-.053.318h0l-.055.318-.053.318h0l-.055.318-.053.318-.053.318-.053.318-.055.318-.053.318-.053.318-.053.316-.053.318-.053.316-.053.316-.053.316-.053.316-.053.314-.053.314c-.989,5.091,1.368,10.875,4.331,14.337C-515.181,561.838-521.075,556.79-521.979,551.744Z" transform="translate(37.593 156.84)" fill="#54c247" fill-rule="evenodd"/>
    <path id="Path_5" data-name="Path 5" d="M-481.451,560.553c11.4-11.455,20.935-24.561,24.738-33.034,2.579-3.961-10.948-14.95-10.828-14.958h0l-.01-.016q-.462-.811-.935-1.585l-.026-.043c-.306-.5-.614-.983-.927-1.458l-.085-.128q-.441-.669-.89-1.3l-.146-.207c-.278-.389-.557-.77-.839-1.143l-.241-.314q-.373-.482-.75-.947c-.118-.146-.239-.292-.357-.436q-.326-.388-.653-.764l-.172-.2,0,0c-.053-.061-.109-.116-.16-.176l-.01-.008-.006-.01-.008-.008-.152-.168c-.144-.16-.29-.318-.434-.474l-.008-.01-.008-.008-.008-.008c-.138-.146-.274-.292-.412-.434l-.01-.012-.012-.01-.01-.012-.272-.278-.18-.182-.006-.006,0,0-.006-.006-.006-.006-.006-.006,0-.006c-.178-.178-.355-.351-.535-.525l-.012-.012-.014-.012c-.124-.12-.249-.239-.375-.357l-.026-.022a33.417,33.417,0,0,0-6.3-4.681l-.006,0q-.509-.29-1.022-.556l-.022-.01q-.5-.258-1-.5l-.059-.028q-.491-.228-.989-.438l-.073-.03q-.494-.207-.991-.393l-.071-.026q-.494-.184-.991-.347l-.087-.028c-.33-.109-.661-.209-.991-.3l-.077-.02q-.5-.142-1.01-.264l-.053-.012q-.518-.124-1.04-.227l-.012,0a28.539,28.539,0,0,0-12.965.529l-.049.014q-.491.133-.983.282l-.1.032c-.312.1-.62.2-.929.3l-.162.053c-.294.1-.588.209-.88.32l-.2.077q-.432.166-.858.343l-.211.089c-.274.116-.549.235-.823.359l-.253.116c-.266.122-.535.251-.8.381l-.249.122c-.264.132-.529.27-.793.409l-.253.136q-.391.21-.777.432l-.259.15c-.257.148-.515.3-.77.456l-.245.152c-.258.16-.517.322-.774.489l-.233.154c-.258.172-.515.343-.772.521l-.221.158c-.258.182-.515.363-.772.553l-.205.154c-.26.193-.519.387-.776.588l-.168.132c-.27.215-.541.43-.809.651l-.01.008a47.221,47.221,0,0,0-3.568,3.274A83.247,83.247,0,0,0-504.433,541.8,76.446,76.446,0,0,0-481.451,560.553Z" transform="translate(57.746 156.84)" fill="#0db02b" fill-rule="evenodd"/>
    <path id="Path_6" data-name="Path 6" d="M-518.229,501.951a25.392,25.392,0,0,0-6.029,16.247,47.734,47.734,0,0,1,7.327-11.961Q-517.638,504.112-518.229,501.951Z" transform="translate(55.466 165.662)" fill="#98da91" fill-rule="evenodd"/>
    <g id="Group_2" data-name="Group 2" transform="translate(-471.019 697.553)">
      <path id="Path_7" data-name="Path 7" d="M-518.722,526.246c-10.479.223-5.318-5.318-.9-9.123C-523.778,522.534-526.124,524.482-518.722,526.246Z" transform="translate(525.892 -517.123)" fill="#0db02b" fill-rule="evenodd"/>
      <g id="Group_1" data-name="Group 1" transform="translate(0 4.845)">
        <path id="Path_8" data-name="Path 8" d="M-519.636,519.578c-7.753,12.065,2.4,10,10,7.572C-518.922,528.129-522.87,529.474-519.636,519.578Z" transform="translate(528.28 -519.578)" fill="#0db02b" fill-rule="evenodd"/>
        <path id="Path_9" data-name="Path 9" d="M-522.512,520.869c-6.508,5.151-.562,5.926,4.053,6.021C-523.726,525.684-526.14,525.68-522.512,520.869Z" transform="translate(525.386 -518.321)" fill="#0db02b" fill-rule="evenodd"/>
        <path id="Path_10" data-name="Path 10" d="M-519.374,523.916c-6.242,9.715,1.932,8.055,8.053,6.1C-518.8,530.8-521.979,531.884-519.374,523.916Z" transform="translate(529.062 -515.356)" fill="#0db02b" fill-rule="evenodd"/>
        <path id="Path_11" data-name="Path 11" d="M-522.181,523.722c-6.506,5.15-.562,5.928,4.055,6.021C-523.395,528.537-525.808,528.533-522.181,523.722Z" transform="translate(525.71 -515.544)" fill="#0db02b" fill-rule="evenodd"/>
      </g>
    </g>
    <g id="Group_4" data-name="Group 4" transform="translate(-477.503 511.528)">
      <path id="Path_12" data-name="Path 12" d="M-492.824,444.26c-3.38-3.455-7.5-6.583-11.219-9.683-3.369-2.806-7.513-6.273-10.052-9.849l-.089-.126-.209-.227-.116-.1a5.758,5.758,0,0,0-3.146-1.385c-3.4-.365-6.439,2.319-8.29,4.888-1.827,2.538-3.838,6.9-2,9.908l.079.13.189.241.11.107c7.828,7.718,14.575,18.153,20.316,27.485l.742,1.206,2.828-.02.724-1.216q2.7-4.526,5.381-9.064c1.231-2.088,2.463-4.178,3.676-6.277.406-.7.811-1.4,1.2-2.112.122-.223.245-.446.359-.671A2.7,2.7,0,0,0-492.824,444.26Z" transform="translate(528.672 -422.855)" fill="#337321" fill-rule="evenodd"/>
      <g id="Group_3" data-name="Group 3" transform="translate(2.514 2.511)">
        <path id="Path_13" data-name="Path 13" d="M-495.729,444.908c-5.585-5.754-16.857-13.212-21.652-19.966-4.466-3.818-11.7,6.859-9.664,10.194,8.095,7.98,15.6,19.671,20.693,27.959,0,0,10.81-18.117,10.623-18.187Zm-3.795-3.515c-2.066.791-6.885,5.557-9.354,9.63-16.286-19.617-8.484-16.18-13.417-22.04,2.058-2.279,3.536-4.888,5.6-3.122C-513.784,429.958-503.183,438.425-499.524,441.393Zm0,0c-2.066.791-6.885,5.557-9.354,9.63-16.286-19.617-8.484-16.18-13.417-22.04,2.058-2.279,3.536-4.888,5.6-3.122C-513.784,429.958-503.183,438.425-499.524,441.393Z" transform="translate(527.398 -424.128)" fill="#54c247" fill-rule="evenodd"/>
        <path id="Path_14" data-name="Path 14" d="M-499.264,436.12l-4.085-3.222c-1.563.491-6.932,5.518-9.4,9.591-3.169-3.814-5.421-6.755-7.037-9.066l-3.633,1.707a212.656,212.656,0,0,1,13.2,19.43S-499.077,436.189-499.264,436.12Z" transform="translate(531.271 -415.592)" fill="#0db02b" fill-rule="evenodd"/>
      </g>
    </g>
    <path id="Path_15" data-name="Path 15" d="M-502.417,433.217c-.109.067-.217.136-.324.207-6.171,5.216-11.848,10.836-15.151,18.415-2.83,5.107-.144,9.48,4.142,10.844,3.325-9.33,6.775-17.34,15.369-22.861l0,0C-497.937,435.877-499.843,433.671-502.417,433.217Z" transform="translate(60.527 98.758)" fill="#a92f33" fill-rule="evenodd"/>
    <path id="Path_16" data-name="Path 16" d="M-424.546,482.208c-4.322-3.7-6.05-10.956-6.378-15.355-.138-5.484,15.286-8.2,19.546-8.87C-411.377,457.983-424.38,482.21-424.546,482.208Z" transform="translate(146.313 122.865)" fill="#337321" fill-rule="evenodd"/>
    <path id="Path_17" data-name="Path 17" d="M-438.561,497.8c-4.693-7.976-3.518-20.049-1.7-26.986,2.684-8.509,27.842-4.537,34.751-3.321C-405.51,467.5-438.307,497.891-438.561,497.8Z" transform="translate(135.672 130.187)" fill="#337321" fill-rule="evenodd"/>
    <path id="Path_18" data-name="Path 18" d="M-459.251,498.163c.11-11.671,9.224-23.955,15.7-30.271,13.458-11.009,20.584,23.694,27.262,29.5C-416.293,497.387-459.034,498.425-459.251,498.163Z" transform="translate(118.741 130.423)" fill="#337321" fill-rule="evenodd"/>
    <path id="Path_19" data-name="Path 19" d="M-512.9,521.524a86.963,86.963,0,0,0-7.775,48.379,83.675,83.675,0,0,0,18.435,42.8,76.2,76.2,0,0,0,54.26,27.534c38.94,3.706,75.448-11.491,104.243-37.072,23.521-20.894,32.774-54.4,34.573-84.76a140.241,140.241,0,0,1,3.929-25.551c.57-2.327,1.255-4.742,1.65-7.1.371-2.21.43-4.572-1.212-6.332A5.17,5.17,0,0,0-307.17,478l-.077-.022-.158-.037-.079-.016c-8.353-1.591-19.4,14.35-22.354,20.882-5.048,11.153-11.947,24.128-22.842,30.562-6.861,4.053-14.579,5.139-22.439,4.734-17.577-.908-33.672-7.617-43.235-22.976-6.686-10.739-8.868-23.763-7.836-36.243a80.623,80.623,0,0,1,13.981-38.68l.069-.1c2.765-4.339,5.458-8.734,8.2-13.089l1.235-1.964-2.67-3.795-52.5,11.568-.947.555-1.162,1.3-.343.578-.115.316c-5.851,16.32-14.717,29.944-24.819,43.866-8.941,12.322-18.711,24.726-24.839,38.755C-511.151,516.59-512.09,519.035-512.9,521.524Z" transform="translate(58.27 83.218)" fill="#337321" fill-rule="evenodd"/>
    <path id="Path_20" data-name="Path 20" d="M-458.883,430.821c-13.859,38.648-42.688,59.718-52.494,90.07-23.872,50.037,6.4,110.284,62,113.956,41.5,3.949,76.894-14.262,101.6-36.207,15.939-14.161,30.915-40.312,33.409-82.362,1.525-25.752,8.663-35.655,4.509-36.855-5.34-1.016-15.455,12.12-18.524,18.9-11.386,25.145-23.7,38.625-48.638,37.338-57.835-2.986-67.357-63.329-39.781-103.357,1.249-1.962,4.381-7.017,8.188-13.072l-49.7,10.95Z" transform="translate(59.99 85.143)" fill="#54c247" fill-rule="evenodd"/>
    <path id="Path_21" data-name="Path 21" d="M-466.852,560.9c30.958-3.392,57.453-18.494,77.157-35.98a40.863,40.863,0,0,0-4.736-12.272C-403.159,497.836-420,496.976-436.8,496.85c-5.314-1.194-6.214-2.822-11.424-1.01-8.034,2.794-16.935,6.21-20.766,13.322-9,16.714-10.881,30.865-.987,47.386A30.841,30.841,0,0,0-466.852,560.9Z" transform="translate(101.842 158.925)" fill="#0db02b" fill-rule="evenodd"/>
    <path id="Path_22" data-name="Path 22" d="M-468.931,435.731c-13,23.154-30.143,40.168-39.475,60.49l-2.265,5.429c-.406,1.081-.791,2.173-1.147,3.278a84.315,84.315,0,0,0-7.339,23.973,38,38,0,0,0,9.091,5.646c9.608,4.434,21.188,6.9,31.667,8a128.333,128.333,0,0,0,41.1-2.194,99.5,99.5,0,0,0,40.827-19.132c.037-.028.067-.053.1-.085a12.273,12.273,0,0,0,3.092-3.966c-33.145-9.34-44.1-42.005-36.488-72.979a50.3,50.3,0,0,1-20.314,7.005,1.942,1.942,0,0,0-.882.3,26.237,26.237,0,0,0-9.1,9.062,21.95,21.95,0,0,0-1.648,3.747,25.933,25.933,0,0,1,2.6-11.964,1.945,1.945,0,0,0-.039-1.8,1.941,1.941,0,0,0-1.472-1.04c-1.729-.255-4.15-.629-5.527-1.815a8.783,8.783,0,0,1-1.281-1.452c.537-1.062,1.2-2.109,1.8-3.092a33.76,33.76,0,0,0,2.534-4.628,1.932,1.932,0,0,0-.124-1.776,1.936,1.936,0,0,0-1.492-.971A18.587,18.587,0,0,0-468.931,435.731Z" transform="translate(60.431 101.107)" fill="#0db02b" fill-rule="evenodd"/>
    <path id="Path_23" data-name="Path 23" d="M-514.846,475c-16.965,48.138,12.943,102.086,65.468,105.555,31.527,3,59.533-6.792,82-21.295-72.93,15.586-122.735,2.761-125.415-83.521C-493.374,475.494-502.949,475.234-514.846,475Z" transform="translate(59.994 139.432)" fill="#54c247" fill-rule="evenodd"/>
    <path id="Path_24" data-name="Path 24" d="M-516.794,477.437a90.554,90.554,0,0,0-2.382,11.023c3.682,2.848,7.153,4.389,13.593,7.262l2.711-12.367Z" transform="translate(60.412 141.801)" fill="#0db02b" fill-rule="evenodd"/>
    <path id="Path_25" data-name="Path 25" d="M-477.219,626.158c42.043,19.2,93.986.478,127.736-29.7,10.044-8.983,19.761-22.692,26.157-42.208-33.658,56.618-114.818,71.568-134.327,20.878-14.127-40.044-3.187-103.083,27.238-153.654l-28.815,6.35C-450.368,438.6-581.838,573.325-477.219,626.158Z" transform="translate(61.698 87.326)" fill="#fff7a0" fill-rule="evenodd"/>
    <path id="Path_26" data-name="Path 26" d="M-466.381,551.582c28.083-3.657,55.844-17.9,76.685-36.511a41.439,41.439,0,0,0-3.461-9.928c-26.891,19.449-60.249,25.129-82.913,13.279-1.547,9.285.146,18.356,6.09,28.282A30.281,30.281,0,0,0-466.381,551.582Z" transform="translate(101.844 168.769)" fill="#f3ec8b" fill-rule="evenodd"/>
    <path id="Path_27" data-name="Path 27" d="M-463.152,543.233c-4.227-26.879-.087-59.963,11.288-92.085-.168.018-.333.036-.5.051a1.942,1.942,0,0,0-.882.3,26.237,26.237,0,0,0-9.1,9.062,21.95,21.95,0,0,0-1.648,3.747,25.933,25.933,0,0,1,2.6-11.964,1.945,1.945,0,0,0-.039-1.8,1.941,1.941,0,0,0-1.472-1.04c-1.729-.255-4.15-.629-5.527-1.815a8.783,8.783,0,0,1-1.281-1.452c.537-1.062,1.2-2.109,1.8-3.092a33.76,33.76,0,0,0,2.534-4.628,1.932,1.932,0,0,0-.124-1.776,1.936,1.936,0,0,0-1.492-.971,19.847,19.847,0,0,0-2.946-.132c-14.315,22.962-39.542,60.409-46.867,96.581a49.149,49.149,0,0,0,4.46,2.327c9.608,4.434,21.188,6.9,31.667,8A133.051,133.051,0,0,0-463.152,543.233Z" transform="translate(62.715 101.106)" fill="#f3ec8b" fill-rule="evenodd"/>
    <path id="Path_28" data-name="Path 28" d="M-517.846,496.034c.016,1.583.067,3.159.18,4.724,32.916,2.23,53.828-7.44,53.828-7.44-20.973,3.888-38.694,4.693-54.007,2.715Zm184.105,11.24q.237-.394.472-.789c-2.656-1.535-4.209-2.23-4.209-2.23q1.909,1.513,3.738,3.019Zm-9.553,13.079c.351-.412.7-.827,1.054-1.247-4.213-3.449-6.735-5.111-6.735-5.111q2.91,3.194,5.681,6.358Zm-133.934,35.87q.95.435,1.91.843c20.381-12.243,29.849-25.012,29.849-25.012a197.126,197.126,0,0,1-34.177,22.875c.805.432,1.583.874,2.417,1.295Zm-32.726-29.2c.858,1.519,1.806,3.015,2.824,4.489,32.914-4.657,51.493-18.611,51.493-18.611C-476.222,521.465-494.039,526-509.954,527.022Z" transform="translate(61.707 157.26)" fill="#f3ec8b" fill-rule="evenodd"/>
    <path id="Path_29" data-name="Path 29" d="M-426.021,440.928c-5.812,4.57-15.627,7.884-22.832,8.511a1.9,1.9,0,0,0-.886.3,26.214,26.214,0,0,0-9.192,8.967,21.943,21.943,0,0,0-1.685,3.73,25.966,25.966,0,0,1,2.715-11.939,1.939,1.939,0,0,0-.02-1.8,1.94,1.94,0,0,0-1.46-1.054c-1.727-.27-4.146-.671-5.51-1.871a8.648,8.648,0,0,1-1.265-1.466c.545-1.056,1.218-2.1,1.831-3.073a33.745,33.745,0,0,0,2.581-4.6,1.934,1.934,0,0,0-.107-1.778,1.945,1.945,0,0,0-1.484-.987c-5.8-.726-10.331.888-13.7,5.721-1.044,1.5-1.817,3.078-2.729,4.645a7.922,7.922,0,0,1-1.294,1.78,30.588,30.588,0,0,0-4-3.455,16.539,16.539,0,0,1-2.554-2.218c1.15-7.85-6.567-11.177-12.9-6.936a1.922,1.922,0,0,0-.18.134c-6.423,5.431-12.225,11.24-15.655,19.057a9.288,9.288,0,0,0-.1,9.525,9.941,9.941,0,0,0,6.163,4.316c1.624,8.716,5.82,18.07,2.885,26.869q-3.969,9.241-7.935,18.484c-3.179,1.233-6.69,3.357-7.126,7-.746,6.234,8.138,11.2,12.77,13.391,9.563,4.529,21.117,7.116,31.582,8.324a128.407,128.407,0,0,0,41.123-1.78A99.492,99.492,0,0,0-395.956,520c.036-.028.067-.053.1-.085,1.908-1.715,4.1-4.174,3.481-6.964-.436-1.981-2.115-3.278-3.8-4.2a38.813,38.813,0,0,0-6.678-2.611c-13.164-5.478-15.392-21.237-9.164-32.766a29.124,29.124,0,0,1,6.958-6.95c1.683-1.192,3.469-2.254,5.223-3.335,2.283-1.409,4.507-2.857,6.672-4.444.537-.393,1.239-1.117.817-1.63-2.958-3.609-6.769-9-14.83-12.513-5.476-2.384-8.564-1.458-10.113-8.987-.168.282-.349.582-.545.876a4.256,4.256,0,0,0-.835-2.257,3.886,3.886,0,0,0-3.262-1.415,1.986,1.986,0,0,0-1.946,1.7,9.713,9.713,0,0,1-.645,2.042c-.377.939-.774,1.863-1.083,2.826A13,13,0,0,0-426.021,440.928Z" transform="translate(57.183 97.13)" fill="#b01c2e" fill-rule="evenodd"/>
    <path id="Path_30" data-name="Path 30" d="M-482.757,447.287c-1.916-2.514-4.835-4.183-6.629-5.863a10.24,10.24,0,0,1-3.58,2.875,17.09,17.09,0,0,0,2.271-4.606c1.421-6.715-4.75-8.933-9.7-5.62-6.169,5.216-11.848,10.836-15.152,18.415-3.207,5.788.671,10.631,5.93,11.224a14.958,14.958,0,0,1,4.381-3.179c-2.66,2.706-3.311,4.152-3.844,5.675,1.326,6.266,3.909,13.38,3.676,20.414,2.461-5.018,5.867-11.479,9.512-15.866-4.335,8.079-9.7,20.192-11.562,24.582l-.041-.047-7.331,17.081c-.639,1.677-1.441,3.773-2.585,6.656a29.971,29.971,0,0,1,.7-5.889c-26.417,12.1,63.148,47.726,118.52,4.3,4.787-4.3,3.349-6.642-1.8-8.791l.01.008c-3.029-1.054-7.55-.389-13.614,1.914a14.027,14.027,0,0,1,7.333-4.328c-13.247-6.713-14.8-23.294-8.45-34.921,5.837-8.081-3.424-5.638,5.332-12.055-.174-19.039,3.886-.284,4.825-8.961-2.838,4.353-13.03-11.712-16.5-10.715-.262-1.466,1.555-5.908-1.849-5.857-.324,2.167-2.011,4.608-2.244,7.256-5.486,4.622-15.834,8.691-24.531,9.45-11.6,7.246-10.155,14.494-12.851,21.733-1.15-7.517-2.354-15.025,1.837-23.548-5.669-.9-6.68-2.056-8.76-5.125,1.158-2.727,3.712-5.916,4.87-8.643C-478.553,433.109-477.371,447.485-482.757,447.287Z" transform="translate(58.179 98.115)" fill="#e62129" fill-rule="evenodd"/>
    <path id="Path_31" data-name="Path 31" d="M-514.854,439.84a36.483,36.483,0,0,0-3.037,5.559c-3.207,5.788.671,10.631,5.93,11.224a15.453,15.453,0,0,1,1.658-1.5,27.247,27.247,0,0,0-3.748-3.376c-1.964-1.466-1.326-8.2-.8-11.909Zm5.176,15.99a28.4,28.4,0,0,1,6.445,15.187c-1.7,2.9-3.234,5.9-4.515,8.519.233-7.037-2.35-14.149-3.676-20.417A10.96,10.96,0,0,1-509.678,455.83Z" transform="translate(60.528 105.205)" fill="#c7252e" fill-rule="evenodd"/>
    <path id="Path_32" data-name="Path 32" d="M-442.545,491.59c-13.249-6.711-14.8-23.292-8.452-34.919a31.829,31.829,0,0,1,9.823-9.06c-22.915,6.084-20.91,35.929-14.927,42.066-7.187,5.36-13.792,11.483-28.089,18.51,0,0,18.411-6.2,34.331-12.276l-.022.008A14.05,14.05,0,0,1-442.545,491.59Z" transform="translate(94.467 112.77)" fill="#c7252e" fill-rule="evenodd"/>
    <g id="Group_6" data-name="Group 6" transform="translate(-307.15 635.598)">
      <path id="Path_33" data-name="Path 33" d="M-430.65,494.5c2.727-13.624-5.7-8.176-11.7-3.292C-434.316,487.04-431.23,484.43-430.65,494.5Z" transform="translate(442.346 -485.57)" fill="#0db02b" fill-rule="evenodd"/>
      <g id="Group_5" data-name="Group 5" transform="translate(5.77)">
        <path id="Path_34" data-name="Path 34" d="M-439.422,491.793c17.547-7.313,12.5,5.458,7.558,14.81C-428.428,494.712-425.754,489.871-439.422,491.793Z" transform="translate(439.422 -481.934)" fill="#0db02b" fill-rule="evenodd"/>
        <path id="Path_35" data-name="Path 35" d="M-437.057,488.649c8.233-7.294,7.866.643,6.915,6.69C-430.492,488.185-429.935,485.034-437.057,488.649Z" transform="translate(441.724 -485.728)" fill="#0db02b" fill-rule="evenodd"/>
        <path id="Path_36" data-name="Path 36" d="M-433.883,493.285c14.127-5.891,10.064,4.393,6.086,11.923C-425.033,495.635-422.88,491.736-433.883,493.285Z" transform="translate(444.814 -480.072)" fill="#0db02b" fill-rule="evenodd"/>
        <path id="Path_37" data-name="Path 37" d="M-433.411,489.746c8.233-7.3,7.866.641,6.915,6.69C-426.846,489.283-426.289,486.129-433.411,489.746Z" transform="translate(445.273 -484.661)" fill="#0db02b" fill-rule="evenodd"/>
      </g>
    </g>
    <path id="Path_38" data-name="Path 38" d="M-453.868,475.642c7.684-11.974,14.175-9.912,18.321-1.324C-441.424,467.6-447.735,467.849-453.868,475.642Z" transform="translate(123.981 131.901)" fill="#0db02b" fill-rule="evenodd"/>
    <path id="Path_39" data-name="Path 39" d="M-439.773,481.858c-2.877-13.948,4.422-17.447,14.893-14.735C-435.364,466.993-440.661,471.927-439.773,481.858Z" transform="translate(137.086 130.936)" fill="#0db02b" fill-rule="evenodd"/>
    <path id="Path_40" data-name="Path 40" d="M-427.937,472.345c-4.779-7.98-1.032-11.71,6.009-12.294C-428.421,462.23-430.625,466.411-427.937,472.345Z" transform="translate(147.136 124.878)" fill="#0db02b" fill-rule="evenodd"/>
    <path id="Path_41" data-name="Path 41" d="M-446.43,489.822c21.4-1.7,31.242-6.112,40.136-19.021C-412.46,492.074-431.136,492.891-446.43,489.822Z" transform="translate(131.221 135.341)" fill="#98da91" fill-rule="evenodd"/>
    <g id="Group_7" data-name="Group 7" transform="translate(-449.838 573.26)">
      <path id="Path_42" data-name="Path 42" d="M-482.315,473.795c-.257,1.752-.483,3.495-.91,5.22a23.023,23.023,0,0,1-1.969,5.253c.022-.032.043-.063.065-.093a4.2,4.2,0,0,1,1.689-1.391c1.938-.882,4.369-.241,6.115.809A6.509,6.509,0,0,1-474,488.277a3.786,3.786,0,0,1,.022.651,57.1,57.1,0,0,1-.622,6.08,25.832,25.832,0,0,1-1,4.2c-.817,2.384-2.232,4.746-4.76,5.569a6.272,6.272,0,0,1-5.437-.892c-2.721-1.545-6.262-2.368-9.3-3.055a100.214,100.214,0,0,1-9.837-2.455c-3.2-1.076-6.413-2.7-8.257-5.654a10.016,10.016,0,0,1-1.437-6.092c0-.041.006-.081.01-.122.255-2.83,1.075-6.06,4.259-6.836a4.719,4.719,0,0,1,1.117-.13,5.83,5.83,0,0,1,1.281.156,10.252,10.252,0,0,1,1.575.529c.12.051.266.118.41.178a8.5,8.5,0,0,0,3.359-2.672q.261-.332.5-.685a20.889,20.889,0,0,0,2.895-7.635,28.129,28.129,0,0,0,.426-3.175,6.241,6.241,0,0,1-1.064-1.156,7.516,7.516,0,0,1-1.287-3.97c-.124-2.514.868-5.308,3.315-6.358,2.352-1.3,5.119-.308,7.351.772a63.854,63.854,0,0,1,6.824,4.028c1.608,1.046,3.2,2.115,4.815,3.151.055.035.109.071.162.109a4.9,4.9,0,0,1,1.725,2.222C-475.527,468.715-478.625,473.639-482.315,473.795Z" transform="translate(514.653 -454.138)" fill="#fefefe" fill-rule="evenodd"/>
      <path id="Path_43" data-name="Path 43" d="M-484.782,468.964c-.278-.148-.758-.472-1.052-.31-.578.318-.811,1.78-.908,2.358-.292,1.764-.464,3.493-.86,5.251a17.946,17.946,0,0,1-7.988,11.708l.884.454a18.75,18.75,0,0,0,3.761,1.6,3.276,3.276,0,0,0,1.889-.079,5.862,5.862,0,0,0,2.2-1.585,22.426,22.426,0,0,0,2.593-3.728c.8-1.813,5.4.091,5.7,2.5a.74.74,0,0,1,0,.115,53.546,53.546,0,0,1-.586,5.752c-.359,2.2-1.225,6.55-3.68,7.351a3.319,3.319,0,0,1-2.881-.592c-3.013-1.737-6.848-2.668-10.222-3.432-3.165-.718-6.461-1.336-9.539-2.37-2.459-.827-5.2-2.08-6.627-4.367a7,7,0,0,1-.977-4.318c.114-1.287.363-3.747,1.928-4.128,1.429-.347,2.952,1.259,4.182.833a11.353,11.353,0,0,0,5.249-3.862c.219-.28.426-.566.626-.86a24.017,24.017,0,0,0,3.4-8.959,30.476,30.476,0,0,0,.458-3.615,11.534,11.534,0,0,0,.03-1.6c-.146-.093-.434-.225-.553-.294a3.418,3.418,0,0,1-1.119-.993,4.519,4.519,0,0,1-.722-2.344c-.061-1.218.29-3,1.606-3.442,1.245-.831,3.5.213,4.657.77a61.351,61.351,0,0,1,6.488,3.838c1.614,1.048,3.213,2.121,4.831,3.161l.03.02C-479.752,465.394-482.665,470.276-484.782,468.964Z" transform="translate(516.168 -452.622)" fill="#fddc00" fill-rule="evenodd"/>
    </g>
    <g id="Group_10" data-name="Group 10" transform="translate(-373.407 647.589)">
      <path id="Path_44" data-name="Path 44" d="M-367.342,611.985a20.538,20.538,0,0,0,7.81-3.631,8.817,8.817,0,0,0,3.627-6.826c-.028-3.365-2.35-5.987-5.093-7.643-3.611-2.181-8.312-3.1-12.464-3.443l-.065,0a44.732,44.732,0,0,1-4.562-.521c-4.965-.819-4.882-10.019-9.632-11.647-4.264-1.46-9.245-4.227-12.022-8.107a52.583,52.583,0,0,1,1.719-7.558c5.861-16.125,8.42-35.471-.393-51.061-8.407-14.867-24.34-15.9-40.237-16.2-5.04-1.247-5.906-2.881-10.816-1.125-7.568,2.706-15.955,6.025-19.5,13.083-8.343,16.59-9.977,30.7-.452,47.286,6.942,12.087,17.064,13.425,28.628,18.67,1.381,2.636,2.816,5.964,2.893,8.843a6.232,6.232,0,0,1-1.523,4.466,16.146,16.146,0,0,1-2.915,2.544c-2.522,1.823-5.224,3.443-6.934,6.139-2.125,3.351-1.821,7.082-.478,10.66,3.351,10.41,19.215,14.854,28.774,15.965,9.891,1.151,25.782.333,31.582-9.3.11-.182.215-.365.318-.552.355-.144.706-.3,1.05-.47a34.7,34.7,0,0,0,8.351.578c3.55-.116,2.044,8.622,4.827,6.559A49.1,49.1,0,0,0-367.342,611.985Z" transform="translate(475.922 -490.197)" fill="#337321" fill-rule="evenodd"/>
      <path id="Path_45" data-name="Path 45" d="M-440.846,492.593c41.573,5.212,51.513,35.718,38.765,70.706-1.344,4.381-3.811,9.362-7.639,11.9a37.914,37.914,0,0,1-9.794,4.474c5.543-.991,12.489-3.442,15.28-5.8,8.373,10.816,11.264,16.3,23.244,17.028,18.64,1.555,31.031,5.415,16.422,8.635-2.086,2.816-11.55,11.163-16.533,11.327a32.1,32.1,0,0,1-8.689-.728,11.821,11.821,0,0,1-2.69,1.158c-6.7,16.109-51.061,10.6-55.88-4.72-6.188-16.288,21.733-9.421,8.318-33.912l-8.519-13.95,4.537,12.2c-14.3-5.873-26.244-7.359-30.433-36.937C-475.978,506.511-460.327,487.644-440.846,492.593Z" transform="translate(477.248 -491.804)" fill="#54c247" fill-rule="evenodd"/>
      <g id="Group_9" data-name="Group 9" transform="translate(51.058 30.145)">
        <path id="Path_46" data-name="Path 46" d="M-441.021,519.3c14.293,3.661,8.993-5.587,4.154-12.219C-432.9,515.83-430.31,519.252-441.021,519.3Z" transform="translate(458.835 -507.08)" fill="#0db02b" fill-rule="evenodd"/>
        <g id="Group_8" data-name="Group 8" transform="translate(0 5.881)">
          <path id="Path_47" data-name="Path 47" d="M-433.393,510.06c6.765,19.021-6.494,12.947-16.134,7.177C-437.109,521.555-432.128,524.663-433.393,510.06Z" transform="translate(450.555 -510.06)" fill="#0db02b" fill-rule="evenodd"/>
          <path id="Path_48" data-name="Path 48" d="M-434.064,512.767c7.272,9.145-1.127,8.3-7.485,6.954C-433.944,519.755-430.632,520.522-434.064,512.767Z" transform="translate(458.321 -507.425)" fill="#0db02b" fill-rule="evenodd"/>
          <path id="Path_49" data-name="Path 49" d="M-437.057,515.838c5.447,15.315-5.229,10.423-12.991,5.778C-440.051,525.091-436.039,527.6-437.057,515.838Z" transform="translate(450.048 -504.436)" fill="#0db02b" fill-rule="evenodd"/>
          <path id="Path_50" data-name="Path 50" d="M-435.433,516.572c7.272,9.143-1.127,8.306-7.485,6.954C-435.313,523.56-432,524.327-435.433,516.572Z" transform="translate(456.988 -503.721)" fill="#0db02b" fill-rule="evenodd"/>
        </g>
      </g>
      <path id="Path_51" data-name="Path 51" d="M-450.857,497.806c12.349-1.93,22.193,6.9,21.567,21.944C-431.275,509.232-441.732,499.651-450.857,497.806Z" transform="translate(500.319 -486.218)" fill="#98da91" fill-rule="evenodd"/>
    </g>
    <path id="Path_52" data-name="Path 52" d="M-414.45,534.888c6.921,9.091,10.011,13.413,20.985,14.078,18.64,1.555,31.031,5.415,16.422,8.635-2.086,2.816-11.55,11.163-16.533,11.327a32.1,32.1,0,0,1-8.689-.728,11.821,11.821,0,0,1-2.69,1.158c-6.7,16.109-51.061,10.6-55.88-4.72-3.268-8.6,2.978-10.747,7.625-14.463.1.051.2.1.308.158a22.694,22.694,0,0,0,7.935,2.062,21.5,21.5,0,0,0,5.024-.006v0h0C-442.369,540.234-423.5,534.806-414.45,534.888Z" transform="translate(116.316 197.721)" fill="#0db02b" fill-rule="evenodd"/>
    <g id="Group_11" data-name="Group 11" transform="translate(-337.019 625.851)">
      <path id="Path_53" data-name="Path 53" d="M-449.851,487.6c3.3-.249,5.4.74,4.839,4.525-.434,2.437-2.23,3.274-5.575,2.437C-456.387,493.212-455.353,488.215-449.851,487.6Z" transform="translate(460.401 -474.195)" fill="#299926" fill-rule="evenodd"/>
      <path id="Path_54" data-name="Path 54" d="M-448.539,486.188c1.525-1.123,2.846-1.283,3.726.726.529,1.314-.089,2.265-1.965,2.877C-450.005,490.9-451.021,488.159-448.539,486.188Z" transform="translate(464.839 -476.331)" fill="#299926" fill-rule="evenodd"/>
      <path id="Path_55" data-name="Path 55" d="M-453.02,482.017c-7.7,5.618-5.127,14.984,5.375,11.372,5.877-1.912,7.813-4.892,6.151-9.007C-443.064,480.8-449.243,479.675-453.02,482.017Z" transform="translate(457.482 -480.788)" fill="#299926" fill-rule="evenodd"/>
    </g>
    <g id="Group_14" data-name="Group 14" transform="translate(-351.329 735.563)">
      <path id="Path_56" data-name="Path 56" d="M-458.777,578.187l-.073-.069a21.379,21.379,0,0,1-4.679-5.966,11.236,11.236,0,0,1-1.154-3.812l-.012-.118-.006-.065a8.815,8.815,0,0,1,.038-1.867,7.844,7.844,0,0,1,.906-2.792c.111-.2.229-.395.357-.582l.6-.87-.138-1.048-.059-.446c-.148-1.168-.318-2.333-.418-3.507-.225-2.654-.138-5.545,1.391-7.834,2.451-3.67,6.55-3.617,10.4-3.118.539,2.775.91,3.682,3.5,5.342a22.7,22.7,0,0,0,7.678,2.875,34.206,34.206,0,0,0,6.293.649l3.059.036-.28-3.049c-.024-.235-.036-.474-.038-.712-.16-14.119,26.816-19.515,38.881-10.248l.862.663,1.081-.1c1.634-.156,3.272-.259,4.912-.318a44.522,44.522,0,0,1,19.471,4.207,49.5,49.5,0,0,1,16.862,12.227c3.619,4.172,6.664,9.557,6.583,15.228-.085,5.881-3.526,10.486-8,13.985-6.173,4.827-15.526,7.234-23,9.413l-.014,0-.061.016c-31.481,8-59.511,2.435-84.871-18.056Z" transform="translate(464.734 -536.385)" fill="#212121" fill-rule="evenodd"/>
      <path id="Path_57" data-name="Path 57" d="M-441.442,558.3c9.983-4.632,21.158-10.206,31.142-14.838C-426.454,529.548-458.288,543.4-441.442,558.3Z" transform="translate(482.751 -535.095)" fill="#e62129" fill-rule="evenodd"/>
      <path id="Path_58" data-name="Path 58" d="M-442.625,556.3c9.985-4.632,21.16-10.206,31.144-14.838-.128-.11-.262-.215-.393-.324-15.323-5.52-34.333,6.98-33.076,12.736A19.541,19.541,0,0,0-442.625,556.3Z" transform="translate(483.933 -533.097)" fill="#c7252e" fill-rule="evenodd"/>
      <path id="Path_59" data-name="Path 59" d="M-386.934,540.245c-11.532.387-20.162,2.648-33.188,10.563-14.4,6.686-33.129,1.885-35.187-5.985-10.546-.47-5.5,11.1-6.177,14.9-2.131,1.516-3.793,6.165,3.157,12.643,27.8,22.388,56.012,24.223,82.469,17.529,17.9-5.214,29.608-8.645,28.158-25.379C-351.22,549.563-373.6,539.755-386.934,540.245Z" transform="translate(466.093 -532.644)" fill="#e62129" fill-rule="evenodd"/>
      <path id="Path_60" data-name="Path 60" d="M-461.565,554.556l.012.1,0,0,0,.053.006.051.006.051.006.049v0l.006.049.006.051,0,.051.006.049,0,.039,0,.01,0,.016.016.182,0,.032,0,.018,0,.047.008.1,0,.047,0,.024,0,.024,0,.047.006.093,0,.047v.014l0,.032.008.136,0,.045,0,.006v.038l.008.176h0l0,.2v.172l0,.028v.014c0,.118-.008.235-.018.345l0,.012v0c0,.057-.01.11-.018.166v.01c-.008.055-.016.109-.026.16l-.091.065-.008.008h0l-.081.063-.018.014,0,0-.067.057-.022.018-.018.014,0,.006-.022.02-.045.04-.012.012-.01.01-.022.02-.043.041-.02.02v0l-.022.022-.022.022-.036.036-.028.03-.022.022-.02.024-.022.024,0,0-.018.02-.022.024-.02.024-.02.026-.006.006-.032.038,0,0-.02.026-.02.024-.02.026-.02.026-.018.024-.02.026-.02.026,0,.008-.034.045-.02.028-.018.026-.02.028-.018.026v0l-.018.028-.02.028-.018.028h0l-.034.055h0l-.018.03-.016.029,0,0-.034.053-.016.03-.018.03-.016.03-.028.051-.006.01-.016.03c-1.156,2.22-.927,6.133,4.442,11.14,27.8,22.39,56.012,24.223,82.469,17.529,17.9-5.214,29.606-8.645,28.158-25.379a18.979,18.979,0,0,0-1-3.031c-6.447-2.53-12.152-2.506-19.181-.233l-.1.034c-4.926,1.8-7.611,4.349-10.836,8.3-2.2,2.7-3.925,4.756-7.148,6.309-5.178,2.5-12.5,2.776-18.147,2.678-12.487-1.127-58.141-9.741-55.829-27.7a18.013,18.013,0,0,1,1.869-5.833C-463.474,543.935-462.073,550.283-461.565,554.556Z" transform="translate(466.093 -530.272)" fill="#c7252e" fill-rule="evenodd"/>
      <path id="Path_61" data-name="Path 61" d="M-461.613,550.152c-2.068,1.608-3.526,6.2,3.284,12.549,27.8,22.388,56.012,24.223,82.469,17.529,17.7-5.154,29.344-8.572,28.2-24.829-5.046-2.37-10.526-3.925-19.335-1.075-13.966,5.1-7.189,18.009-37.275,17.458C-424.356,569.982-444.717,564.822-461.613,550.152Z" transform="translate(466.093 -522.984)" fill="#f0eada" fill-rule="evenodd"/>
      <path id="Path_62" data-name="Path 62" d="M-410.3,540.488c-15.023-.5-22.348,7.317-35.748,12.805C-436.121,552.567-425.185,542.813-410.3,540.488Z" transform="translate(482.92 -532.412)" fill="#212121" fill-rule="evenodd"/>
      <g id="Group_12" data-name="Group 12" transform="translate(53.888 10.001)">
        <path id="Path_63" data-name="Path 63" d="M-404.7,546.944c4.8-1.614-1.7-4.789-5.843-3.448A50.73,50.73,0,0,0-432.127,557.9c-2.457,2.944,3.359,5.821,5.547,3.122A78.168,78.168,0,0,1-404.7,546.944Z" transform="translate(442.006 -539.777)" fill="#c7252e" fill-rule="evenodd"/>
        <path id="Path_64" data-name="Path 64" d="M-409.406,545.223c4.8-1.616-1.7-4.789-5.843-3.447a50.741,50.741,0,0,0-21.583,14.406c-2.457,2.944,3.361,5.819,5.547,3.12A78.158,78.158,0,0,1-409.406,545.223Z" transform="translate(437.426 -541.452)" fill="#c7252e" fill-rule="evenodd"/>
      </g>
      <g id="Group_13" data-name="Group 13" transform="translate(53.469 8.24)">
        <path id="Path_65" data-name="Path 65" d="M-404.259,546.625c4.9-1.285-1.368-4.894-5.594-3.836a50.755,50.755,0,0,0-22.512,12.906c-2.65,2.771,2.956,6.035,5.322,3.491A78.16,78.16,0,0,1-404.259,546.625Z" transform="translate(442.092 -538.577)" fill="#f0eada" fill-rule="evenodd"/>
        <path id="Path_66" data-name="Path 66" d="M-408.835,544.588c4.9-1.285-1.37-4.894-5.6-3.836a50.727,50.727,0,0,0-22.51,12.906c-2.652,2.771,2.956,6.035,5.32,3.489A78.206,78.206,0,0,1-408.835,544.588Z" transform="translate(437.638 -540.56)" fill="#f0eada" fill-rule="evenodd"/>
      </g>
    </g>
    <g id="Group_17" data-name="Group 17" transform="translate(-575.628 731.603)">
      <path id="Path_67" data-name="Path 67" d="M-531.524,539.858c-.726-.383-1.48-.738-2.267-1.068a8.33,8.33,0,0,0-5.553-.655c-2.07.4-4.878,1.6-6,3.613-.261.075-.523.152-.784.229a9.618,9.618,0,0,0-3.532.053c-1.95.373-4.553,1.462-5.784,3.27q-.835.334-1.638.663l-.089.037-.087.041c-5.172,2.542-13.16,7.005-17.691,12.681l-.036.016-.458.618a17.726,17.726,0,0,0-1.5,2.386,12.053,12.053,0,0,0-1.456,5.324,11.506,11.506,0,0,0,3.558,8.324l.057.061h0l.051.051.051.049a59.447,59.447,0,0,0,16.045,11.011,65.714,65.714,0,0,0,17.786,4.935,202.591,202.591,0,0,0,22.785,1.681l.059,0,.059,0c7.451-.075,14.94-.338,22.366-1.006a121.953,121.953,0,0,0,17.575-2.7c7.12-1.723,16.793-5.082,19.43-12.746a12.841,12.841,0,0,0,.6-5.5q-.059-.589-.166-1.178c4.92-9.007-.039-21.113-8.62-23.846l-.8-.256-.811.233a91.741,91.741,0,0,1-27.74,3.327,9.745,9.745,0,0,0,1.453-5.429c-.454-4.839-6.171-6.8-10.127-7.878-6.569-1.782-13.593-3.039-19.966.081a33.02,33.02,0,0,0-5.6,3.67C-530.739,539.911-531.129,539.882-531.524,539.858Z" transform="translate(578.397 -534.378)" fill="#212121" fill-rule="evenodd"/>
      <path id="Path_68" data-name="Path 68" d="M-554.572,542.916c7.45-5.8,10.794-9.417,25.869-5.417,16.5,4.566,2.194,10.682,4.894,17.375C-523.809,554.874-554.736,542.851-554.572,542.916Z" transform="translate(601.586 -532.986)" fill="#e62129" fill-rule="evenodd"/>
      <path id="Path_69" data-name="Path 69" d="M-554.572,541.17c.89-.691,1.721-1.352,2.52-1.973,4.412-2.015,9.748-2.332,19.6.28,12.8,3.542,8.894,7.927,6.408,12.781Z" transform="translate(601.586 -531.24)" fill="#c7252e" fill-rule="evenodd"/>
      <path id="Path_70" data-name="Path 70" d="M-468.974,544.814c-17.253,4.959-39.807,5.131-54.027-2.7-8.515-6.366-20.225-3.4-34.4,2.386-13.216,6.5-25.23,16.187-16.746,24.973,14.749,13.776,28.219,16.026,54.8,16.882,38.662-.389,60.537-6.161,56.894-20.791C-458.687,559.44-462.059,547.016-468.974,544.814Z" transform="translate(579.772 -530.333)" fill="#e62129" fill-rule="evenodd"/>
      <path id="Path_71" data-name="Path 71" d="M-570.639,549.75c-6.074,5.22-8.843,11.1-3.509,16.624,14.749,13.776,28.219,16.026,54.8,16.882,38.662-.389,60.537-6.161,56.894-20.791a7.558,7.558,0,0,0,1.364-3.852q.083-.506.13-1.03l0-.018,0,0c.57-6.293-2.658-14.139-8.02-15.846q-1.359.391-2.765.742a11.8,11.8,0,0,1,5.559,6.206c7.315,16.436-27.29,22.137-36.973,23.181a132.177,132.177,0,0,1-35.949-1.312c-5.03-.987-10.982-2.688-14.759-6.382-2.463-2.411-3.6-5.314-5.551-8.045a14.829,14.829,0,0,0-6.192-5.153A7.931,7.931,0,0,0-570.639,549.75Z" transform="translate(579.771 -527.235)" fill="#c7252e" fill-rule="evenodd"/>
      <path id="Path_72" data-name="Path 72" d="M-574.574,548.5c-3.025,4.085-3.542,8.393.426,12.5,14.749,13.776,28.219,16.026,54.8,16.882,38.662-.389,60.537-6.161,56.894-20.791.075-.122.148-.249.217-.375-22.216,12.166-48.13,16.193-77.425,11.278-23.22-4.558-17.3-15.5-27.307-19.858C-569.594,546.435-572.147,547.488-574.574,548.5Z" transform="translate(579.771 -521.862)" fill="#f0eada" fill-rule="evenodd"/>
      <path id="Path_73" data-name="Path 73" d="M-554.679,538.792c7.966-2.917,23.321,8.6,32.859,9.454C-533.221,550.677-541.335,543.6-554.679,538.792Z" transform="translate(601.482 -530.541)" fill="#212121" fill-rule="evenodd"/>
      <g id="Group_15" data-name="Group 15" transform="translate(24.416 7.46)">
        <path id="Path_74" data-name="Path 74" d="M-552.842,554.575c1.877,4.4,8.8,1.441,7.23-2.358-3.842-5.764-7.343-9.291-12.253-11.7-3.1-2.163-10.264.912-7.562,2.769A28.944,28.944,0,0,1-552.842,554.575Z" transform="translate(566.024 -536.58)" fill="#c7252e" fill-rule="evenodd"/>
        <path id="Path_75" data-name="Path 75" d="M-547.5,552.952c1.877,4.4,8.8,1.443,7.233-2.356-3.842-5.764-7.343-9.291-12.253-11.7-3.1-2.163-10.265.912-7.562,2.769A28.945,28.945,0,0,1-547.5,552.952Z" transform="translate(571.227 -538.158)" fill="#c7252e" fill-rule="evenodd"/>
      </g>
      <g id="Group_16" data-name="Group 16" transform="translate(25.044 6.351)">
        <path id="Path_76" data-name="Path 76" d="M-551.739,553.827c2.167,4.26,8.88.85,7.059-2.836-4.219-5.494-7.947-8.779-13-10.851-3.24-1.95-10.183,1.594-7.361,3.266A28.967,28.967,0,0,1-551.739,553.827Z" transform="translate(565.705 -535.675)" fill="#f0eada" fill-rule="evenodd"/>
        <path id="Path_77" data-name="Path 77" d="M-546.512,551.853c2.165,4.26,8.878.851,7.057-2.836-4.217-5.494-7.947-8.78-13-10.852-3.24-1.95-10.181,1.594-7.361,3.266A28.975,28.975,0,0,1-546.512,551.853Z" transform="translate(570.792 -537.596)" fill="#f0eada" fill-rule="evenodd"/>
      </g>
    </g>
    <g id="Group_20" data-name="Group 20" transform="translate(-581.241 444.781)">
      <g id="Group_18" data-name="Group 18" transform="translate(97.863 59.051)">
        <path id="Path_78" data-name="Path 78" d="M-503.116,430c2.283,14.076-6.777,25.8-16.369,32.971-3.449,1.774-2.482-6.5-9.105-12.355-6.921-1.626-.553-13.466,3.9-20.754,2.451-5.166,8.927-15.872,14.2-8.249C-508.679,427.2-504.187,425.2-503.116,430Z" transform="translate(531.65 -418.955)" fill="#595959" fill-rule="evenodd"/>
        <path id="Path_79" data-name="Path 79" d="M-505.8,430.011c2.017,12.428-5.981,22.777-14.451,29.109-2.674,1.375-1.9-4.742-5.64-9.754,2.488-.474,5.381-1.952,8.995-5.222a45.269,45.269,0,0,1-10.534,3.491c-.1-.091-.193-.18-.294-.268-6.109-1.437-1.052-11.043,2.881-17.478,2.165-4.562,7.881-14.013,12.533-7.282a8.4,8.4,0,0,0,.316.825,42.852,42.852,0,0,1,.014,8.343,27.283,27.283,0,0,0,1.77-6.062C-508.474,427.027-506.443,427.136-505.8,430.011Z" transform="translate(532.7 -417.682)" fill="#d9d6d1" fill-rule="evenodd"/>
        <path id="Path_80" data-name="Path 80" d="M-509.39,429.3c1.6,9.891-3.132,18.463-9.4,24.742a12.291,12.291,0,0,0-4.843-7.972l-.059-.057a32.093,32.093,0,0,0,3.207-2.579,38.7,38.7,0,0,1-4.641,1.9c-4.328-2.463.253-11.173,3.888-17.145a29.176,29.176,0,0,1,4.63-7.187,8.16,8.16,0,0,1,.71.9,8.4,8.4,0,0,0,.316.825,42.852,42.852,0,0,1,.014,8.343A27.283,27.283,0,0,0-513.8,425C-512.06,426.313-510.03,426.422-509.39,429.3Z" transform="translate(536.286 -416.968)" fill="#fff" fill-rule="evenodd"/>
      </g>
      <g id="Group_19" data-name="Group 19">
        <path id="Path_81" data-name="Path 81" d="M-471.618,464.988c7.957-10.994,6.036-23.375-1.168-40.241-5.267-9.849-6.078-19.272-3.067-22.753,7.077-10.824-11.232-19.075-22.838-6.974-8.653,8.7-3.6,10.664-5.192,18.333-11.347,6.832-41.573-11.323-59.5-3.643-22.248,1.74-23.221,15.564-5.632,23.5C-544.254,473.7-495.92,500.566-471.618,464.988Z" transform="translate(581.241 -389.031)" fill="#5f5d5d" fill-rule="evenodd"/>
        <path id="Path_82" data-name="Path 82" d="M-505.227,436.158c13.221-1.746,24.637,8.109,22.713,18.68a27.137,27.137,0,0,0-22.713-18.68Zm29.4,27.769c7.957-10.994,7.667-22.443.462-39.309-5.267-9.849-6.076-19.272-3.065-22.753,7.075-10.824-9.837-16.979-21.441-4.878-5.626,6.607-1.273,10.666-2.863,18.333-11.323,6.816-43.992-11.937-61.944-4.387,14.5,1.186,24.811,6.275,34.613,15.461-15.092-8.935-22.218-12.864-41.5-14.275-13.117,3.254-11.333,10.806,2.954,17.608-3.025-6.163-1.958-11.305,4.58-10.55,8.278.14,19.953,6.861,26.745,15.495,5.857,1.367,8.3,3.23,10.188,5.731-2.759-1.052-5.519-2.236-8.278-2.121.566,1.555,1.77,3.962,2.336,5.731-18.544-26.033-41.038-28.673-33.072-11.907C-544.319,462.257-499.648,498.8-475.826,463.927Z" transform="translate(582.025 -387.745)" fill="#fefefe" fill-rule="evenodd"/>
        <path id="Path_83" data-name="Path 83" d="M-472.523,446.269c-9.689,10.925-31.671,7.258-53.932-2.242-15.181-7.964-28.006-21.237-39.984-33.385-1.74,1.579-1.875,4.732.333,9.379,21.786,30.153,66.457,66.7,90.28,31.823a33.741,33.741,0,0,0,3.3-5.575Zm-65.506-24.6c-6.877-8.186-18.015-14.439-26-14.575-6.538-.756-7.605,4.387-4.58,10.55-11.132-5.3-14.672-11.055-9.488-14.877,1.948,3.187,4.349,4.7,5.79,3.9C-559.257,399.891-548.368,407.439-538.029,421.669Z" transform="translate(582.026 -375.662)" fill="#d9d6d1" fill-rule="evenodd"/>
      </g>
    </g>
    <path id="Path_84" data-name="Path 84" d="M-446.742,447.7l-24.568-.355,1.225,3.124c3.657,9.326,7.621,18.67,11.793,27.771a192.283,192.283,0,0,0,9.326,18.352,38.844,38.844,0,0,0,4.245,6.056c1.308,1.446,3.159,2.984,5.261,2.423a3.543,3.543,0,0,0,1.717-1.068c3.84-4.257,6.484-12.332,7.674-17.855,1.218-5.66,2.009-13.427-.318-18.883a34.711,34.711,0,0,0-4.077-6.893,68.9,68.9,0,0,0-7.667-8.58c-1.281-1.229-2.627-2.473-4-3.6Z" transform="translate(107.003 112.511)" fill="#337321" fill-rule="evenodd"/>
    <path id="Path_85" data-name="Path 85" d="M-449.2,448.808s11.25,9.178,15.1,18.208-1.482,28.274-6.958,34.342-28.57-52.847-28.57-52.847Z" transform="translate(108.643 113.646)" fill="#54c247" fill-rule="evenodd"/>
    <g id="Group_21" data-name="Group 21" transform="translate(-375.741 541.139)">
      <path id="Path_86" data-name="Path 86" d="M-464.486,477.959a8.216,8.216,0,0,0,4.132,7c3.84,2.356,9.547,1.51,13.567.091A27.821,27.821,0,0,0-432.962,474.4a22.633,22.633,0,0,0,3.8-15.442c-.46-3.428-2.161-8.085-5.6-9.557a10.544,10.544,0,0,0-2.867-.787C-458.377,423.427-497.189,449.7-464.486,477.959Z" transform="translate(477.104 -437.263)" fill="#b01c2e" fill-rule="evenodd"/>
      <path id="Path_87" data-name="Path 87" d="M-439.138,450.87c-5.058-6.311-15.262-16.92-27.769-11.53-18.268,7.868-8.113,28.687,3.72,38.327a6.269,6.269,0,0,0,3.146,6.263c5.241,3.217,18.335-.124,24.949-10.1s3.084-20.562-.89-22.263A8.3,8.3,0,0,0-439.138,450.87Z" transform="translate(477.305 -437.861)" fill="#e62129" fill-rule="evenodd"/>
    </g>
    <path id="Path_88" data-name="Path 88" d="M-432.009,437.575a5.966,5.966,0,0,1-.772.466c-2.112,9.9-18.392,14.068-32.809,13.421a24.132,24.132,0,0,0-3.272,3.076c17.16,3.813,39.475-6.907,36.853-16.963ZM-475.374,452.2c.18-.622.383-1.247.616-1.879-1.221-.262-2.4-.564-3.5-.912a3.546,3.546,0,0,0-.762-1.6,3.3,3.3,0,0,0-2.911-1.164c-3.933-7.073.162-11.453,4.349-12.75-8.545-1.529-10.072,6.271-4.927,12.9a3.227,3.227,0,0,0-.545.266,9.414,9.414,0,0,0-9.291-2.327,6.2,6.2,0,0,0-1.012.442,3.39,3.39,0,0,1-1.224.825c-2.425,1.934-3.931,4.665-10.042,2.5-4.594-1.423-3.759,3.442-3.134,4.847a65.779,65.779,0,0,0,6.386,12.353,2.8,2.8,0,0,0-1.279.689,2.838,2.838,0,0,0-.134,4.012c1.072,1.145,3.221,1.529,4.365.458.781-.732.282-.935,1.285.168,1.02,1.533,5.711,5.618,6.621.205,1.45-7.58,4.2-4.9,8.746-8.817a8.353,8.353,0,0,0,2.589-9.034c.19-.12-.235.308.543-.42a3.516,3.516,0,0,0,.535-2.439,22.5,22.5,0,0,0,2.731,1.675ZM-481.5,448c.416.452.866.9,1.35,1.326a2.191,2.191,0,0,1-.651,1.231,12.964,12.964,0,0,0-1.506-2.267,2.77,2.77,0,0,1,.807-.29Zm1.35,1.324c-.357-.46-.681-.912-.977-1.354a1.425,1.425,0,0,1,.264.03,2.413,2.413,0,0,1,.345.31,1.4,1.4,0,0,1,.278.42l-.091-.036c.039.038.079.071.118.109A1.2,1.2,0,0,1-480.148,449.323Z" transform="translate(71.042 99.233)" fill="#c7252e" fill-rule="evenodd"/>
    <g id="Group_26" data-name="Group 26" transform="translate(-436.363 530.658)">
      <path id="Path_89" data-name="Path 89" d="M-445.9,433.782c6.6,12.93-31.3,28.215-47.773,12.556C-478.256,452.357-446.323,449.074-445.9,433.782Z" transform="translate(521.6 -431.35)" fill="#8a2e30" fill-rule="evenodd"/>
      <path id="Path_90" data-name="Path 90" d="M-478.592,441.4a3.1,3.1,0,0,0-4.036-.746,9.419,9.419,0,0,0-9.291-2.329c-4.187,1.4-4.541,6.51-12.276,3.767-4.6-1.423-3.761,3.442-3.136,4.849a65.941,65.941,0,0,0,6.386,12.351,2.8,2.8,0,0,0-1.279.689,2.838,2.838,0,0,0-.134,4.012c1.072,1.145,3.221,1.529,4.365.458.781-.732.282-.935,1.285.168,1.02,1.533,5.711,5.618,6.621.205,1.45-7.58,4.2-4.9,8.746-8.819a8.348,8.348,0,0,0,2.589-9.032c.19-.12-.235.31.545-.42s.778-3.909-.385-5.152Zm-1.776,2.743a13.193,13.193,0,0,0-1.764-2.573,1.473,1.473,0,0,1,2.048.324C-479.563,442.456-479.525,443.241-480.368,444.147Z" transform="translate(507.825 -427.295)" fill="#8a2e30" fill-rule="evenodd"/>
      <path id="Path_91" data-name="Path 91" d="M-490.243,440.39a3.243,3.243,0,0,0-4.584-.059,3.243,3.243,0,0,0-.247,4.578,3.243,3.243,0,0,0,4.584.057,3.243,3.243,0,0,0,.247-4.576Zm-1.2.089c.576.614.266,1.837-.691,2.731s-2.2,1.123-2.773.509-.264-1.837.693-2.733S-492.017,439.863-491.443,440.479Z" transform="translate(519.427 -425.869)" fill="#eb9215" fill-rule="evenodd"/>
      <g id="Group_22" data-name="Group 22" transform="translate(0.999 11.231)">
        <path id="Path_92" data-name="Path 92" stroke="#b84631" d="M-482.163,455.339c6.806-5.6-.452-19.408-9.784-16.766-4.028,1.35-4.6,6.646-12.04,4.008-4.416-1.368-3.378,2.924-2.778,4.276a58.425,58.425,0,0,0,9.906,16.809c.981,1.474,4.933,5.273,5.806.069C-489.656,456.448-486.532,459.106-482.163,455.339Z" fill="none" transform="translate(507.318 -438.241)" stroke-linecap="round" stroke-linejoin="round" stroke-width="1.009" fill-rule="evenodd"/>
        <path id="Path_93" data-name="Path 93" d="M-482.163,455.339c6.806-5.6-.452-19.408-9.784-16.766-4.028,1.35-4.6,6.646-12.04,4.008-4.416-1.368-3.378,2.924-2.778,4.276a58.425,58.425,0,0,0,9.906,16.809c.981,1.474,4.933,5.273,5.806.069C-489.656,456.448-486.532,459.106-482.163,455.339Z" transform="translate(507.318 -438.241)" fill="none" fill-rule="evenodd"/>
      </g>
      <path id="Path_94" data-name="Path 94" d="M-483.615,452.495a7.933,7.933,0,0,0,2.459-8,9.041,9.041,0,0,0-9.3-3c-4.028,1.348-4.6,6.644-12.042,4.008-4.416-1.37-3.378,2.922-2.779,4.274.353.924.746,1.871,1.172,2.824a48.5,48.5,0,0,0,5.792,8.221c.981,1.474,4.933,5.273,5.806.069C-491.107,453.6-487.984,456.262-483.615,452.495Z" transform="translate(509.769 -424.166)" fill="#f3b502" fill-rule="evenodd"/>
      <path id="Path_95" data-name="Path 95" d="M-502.248,441.076a14.654,14.654,0,0,1-1.739-.505c-4.416-1.368-3.378,2.924-2.778,4.276.3.789.631,1.6.989,2.409a102.144,102.144,0,0,0,7.193,12.33c.576.748,1.152,1.443,1.725,2.07.981,1.474,4.933,5.273,5.806.069.093-.482.193-.918.3-1.318A39.108,39.108,0,0,0-502.248,441.076Z" transform="translate(508.318 -425)" fill="#f4bb00" fill-rule="evenodd"/>
      <path id="Path_96" data-name="Path 96" d="M-504.694,449.22c1.474,2.632,3.049,5.178,4.657,7.522.578.748,1.154,1.443,1.727,2.07.981,1.474,4.933,5.273,5.806.069.093-.482.193-.918.3-1.318A39.256,39.256,0,0,0-498.4,444.2a10.252,10.252,0,0,1-4.1-.708c-4.416-1.37-3.378,2.922-2.779,4.274C-505.091,448.245-504.9,448.731-504.694,449.22Z" transform="translate(509.769 -422.156)" fill="#efa509" fill-rule="evenodd"/>
      <g id="Group_23" data-name="Group 23" transform="translate(0.999 16.378)">
        <path id="Path_97" data-name="Path 97" stroke="#b84631" d="M-507.176,440.859a5.555,5.555,0,0,0,.41,3.459,58.425,58.425,0,0,0,9.906,16.809c.582.874,2.21,2.569,3.621,2.713.306-1.644-2.216-7.055-5.794-12.973S-506.006,440.614-507.176,440.859Z" fill="none" transform="translate(507.318 -440.849)" stroke-linecap="round" stroke-linejoin="round" stroke-width="0.336" fill-rule="evenodd"/>
        <path id="Path_98" data-name="Path 98" d="M-507.176,440.859a5.555,5.555,0,0,0,.41,3.459,58.425,58.425,0,0,0,9.906,16.809c.582.874,2.21,2.569,3.621,2.713.306-1.644-2.216-7.055-5.794-12.973S-506.006,440.614-507.176,440.859Z" transform="translate(507.318 -440.849)" fill="none" fill-rule="evenodd"/>
      </g>
      <g id="Group_24" data-name="Group 24" transform="translate(2.912 17.745)">
        <path id="Path_99" data-name="Path 99" stroke="#b84631" d="M-499.586,450.677c-3.217-5.328-6.216-9.413-6.7-9.121s1.739,4.845,4.957,10.173,6.216,9.413,6.7,9.123S-496.368,456.007-499.586,450.677Z" fill="none" transform="translate(506.349 -441.542)" stroke-linecap="round" stroke-linejoin="round" stroke-width="0.336" fill-rule="evenodd"/>
        <path id="Path_100" data-name="Path 100" d="M-499.586,450.677c-3.217-5.328-6.216-9.413-6.7-9.121s1.739,4.845,4.957,10.173,6.216,9.413,6.7,9.123S-496.368,456.007-499.586,450.677Z" transform="translate(506.349 -441.542)" fill="none" fill-rule="evenodd"/>
      </g>
      <g id="Group_25" data-name="Group 25" transform="translate(5.598 30.541)">
        <path id="Path_101" data-name="Path 101" stroke="#b84631" d="M-500.678,449.636a2.73,2.73,0,0,0-3.445.233,2.729,2.729,0,0,0-.126,3.858,2.727,2.727,0,0,0,3.856.128,2.731,2.731,0,0,0,.462-3.422l1.721-1.61-.746-.8Z" fill="none" transform="translate(504.988 -448.026)" stroke-linecap="round" stroke-linejoin="round" stroke-width="0.657" fill-rule="evenodd"/>
        <path id="Path_102" data-name="Path 102" d="M-500.678,449.636a2.73,2.73,0,0,0-3.445.233,2.729,2.729,0,0,0-.126,3.858,2.727,2.727,0,0,0,3.856.128,2.731,2.731,0,0,0,.462-3.422l1.721-1.61-.746-.8Z" transform="translate(504.988 -448.026)" fill="none" fill-rule="evenodd"/>
      </g>
      <path id="Path_103" data-name="Path 103" d="M-489.422,441.267c-2.8-3.453-7.688-3.858-11.888.659C-497.032,439.829-488.383,443.1-489.422,441.267Z" transform="translate(514.166 -426.653)" fill="#fefefe" fill-rule="evenodd"/>
      <path id="Path_104" data-name="Path 104" d="M-502.547,441.652c-1.233.549-2.358-.73-4.184-.831C-505.527,439.773-503.167,441.805-502.547,441.652Z" transform="translate(508.889 -424.792)" fill="#fefefe" fill-rule="evenodd"/>
      <path id="Path_105" data-name="Path 105" d="M-501.223,449.15c-1.841.485-3.522,3.528-3.586,1.981C-504.893,449.15-502.107,448.224-501.223,449.15Z" transform="translate(510.759 -416.742)" fill="#fefefe" fill-rule="evenodd"/>
      <path id="Path_106" data-name="Path 106" d="M-488.395,432.744c-9.666-1.731-10.352,8.48-2.559,15.428C-497.665,439.522-493.087,434.2-488.395,432.744Z" transform="translate(519.064 -432.55)" fill="#8a2e30" fill-rule="evenodd"/>
    </g>
    <g id="Group_33" data-name="Group 33" transform="translate(-523.006 331.756)">
      <g id="Group_27" data-name="Group 27" transform="translate(198.959)">
        <path id="Path_107" data-name="Path 107" d="M-450.3,354.167a3.954,3.954,0,0,0-.507,1.247c-.878,3.988,4.178,7.915,7.191,9.547,3.828,2.072,10.26,3.8,13.006-.872,2.2-3.745,3.264-7.6,4.7-11.635,1.887-5.308,4.1-9.038,8.726-12.45q.34-.251.661-.529c1.521-1.32,3.726-4.1,2.6-6.234-.876-1.667-3.067-1.614-4.655-1.336l-.051.01C-432.321,334.889-443.263,341.926-450.3,354.167Z" transform="translate(450.908 -331.756)" fill="#e8d4bf" fill-rule="evenodd"/>
        <path id="Path_108" data-name="Path 108" d="M-449.857,354.21c6.378-11.09,16.436-18.552,30.883-21.689,5.553-.971,3.523,3.542.434,5.867-9.855,7.219-8.815,15.909-13.762,24.456C-436.5,369.853-453.1,359.455-449.857,354.21Z" transform="translate(451.525 -331.144)" fill="#f0eada" fill-rule="evenodd"/>
        <path id="Path_109" data-name="Path 109" d="M-440.215,338.8q.79-.539,1.606-1.048c3.939.939,7.963,2.181,10.388,4.375a50.2,50.2,0,0,0-11.994-3.327Zm9.1-4.793a63.851,63.851,0,0,1,5.946,4.266,16.9,16.9,0,0,0-4.732-4.726c-.41.15-.813.3-1.214.46Zm-1.308,20.006c-.221.651-.448,1.306-.687,1.961-2.93-4.134-8.061-7.515-13.652-10.112A20.438,20.438,0,0,1-432.425,354.015Z" transform="translate(454.943 -330.011)" fill="#e8d4bf" fill-rule="evenodd"/>
      </g>
      <g id="Group_28" data-name="Group 28" transform="translate(198.889 14.874)">
        <path id="Path_110" data-name="Path 110" d="M-425.3,348.289s.29-6.013-9.529-8.46a16.776,16.776,0,0,0-15.953,4.292L-432.2,350.9Z" transform="translate(451.102 -339.294)" fill="#337321" fill-rule="evenodd"/>
        <path id="Path_111" data-name="Path 111" d="M-425.462,348.318s.059-5.348-9.76-7.8a16.787,16.787,0,0,0-15.722,3.629l18.585,6.777Z" transform="translate(450.944 -338.664)" fill="#0db02b" fill-rule="evenodd"/>
      </g>
      <path id="Path_112" data-name="Path 112" d="M-410.9,366.929a6.945,6.945,0,0,1-6.106,1l-.008.057-10.968-1.644.124.162C-418.362,379.079-408.72,375.738-410.9,366.929Z" transform="translate(672.179 -298.093)" fill="#337321" fill-rule="evenodd"/>
      <path id="Path_113" data-name="Path 113" d="M-549.118,367.443c3.418-6.9,8.588-8.15,11.171-3.493,2.412,4.46-.345,12.176-4.937,15.73C-548.384,383.568-551.944,373.606-549.118,367.443Z" transform="translate(553.307 -303.116)" fill="#337321" fill-rule="evenodd"/>
      <path id="Path_114" data-name="Path 114" d="M-521.781,413.964c4.33-.038,3.124-6.666,2.786-9.33a.744.744,0,0,0-.691-.653c-.505-.036-1.087-.146-1.6-.215-.993-.136-1.987-.262-2.986-.355-1.148-.109-5.76-.708-5.575,1.373a.692.692,0,0,0,.075.266c1.61,3.254,3.7,8.558,7.917,8.912C-521.827,413.964-521.807,413.964-521.781,413.964Z" transform="translate(573.03 -262.169)" fill="#e8d4bf" fill-rule="evenodd"/>
      <path id="Path_115" data-name="Path 115" d="M-520.107,404.35c-.8-.057-9.5-1.571-9.36-.01,1.448,2.928,3.507,8.18,7.309,8.5C-519.118,412.81-519.566,408.611-520.107,404.35Z" transform="translate(573.4 -261.791)" fill="#fef3d8" fill-rule="evenodd"/>
      <path id="Path_116" data-name="Path 116" d="M-442.585,403.619c16.446,3.37,28.444,19.807,33.561,30.818,7.629,22.309-39.156,15.649-51.308,23.617C-460.331,458.054-443.084,403.856-442.585,403.619Z" transform="translate(640.696 -261.808)" fill="#337321" fill-rule="evenodd"/>
      <path id="Path_117" data-name="Path 117" d="M-444.8,410.978c23.809,15.023,18.877,26.185,6.6,28.847C-434.678,435.424-422.125,432.071-444.8,410.978Z" transform="translate(655.818 -254.645)" fill="#54c247" fill-rule="evenodd"/>
      <path id="Path_118" data-name="Path 118" d="M-434.433,386.415c16.446,3.37,28.444,19.807,33.561,30.818,7.629,22.309-39.156,15.649-51.306,23.617C-452.178,440.85-434.933,386.652-434.433,386.415Z" transform="translate(648.632 -278.553)" fill="#337321" fill-rule="evenodd"/>
      <path id="Path_119" data-name="Path 119" d="M-434.885,393.559c21.575,17.993,15.231,28.387,2.735,29.405C-428.091,419.075-415.234,417.409-434.885,393.559Z" transform="translate(665.464 -271.6)" fill="#54c247" fill-rule="evenodd"/>
      <path id="Path_120" data-name="Path 120" d="M-451.42,367.114c16.2-17.691,53.451-20.7,67.882-21.837,27.075.882-17.336,56.857-19.446,74.512C-402.984,419.789-451.591,367.8-451.42,367.114Z" transform="translate(649.369 -318.596)" fill="#337321" fill-rule="evenodd"/>
      <path id="Path_121" data-name="Path 121" d="M-420.179,364.085c16.446,3.372,29.808,19.519,33.561,30.818,7.629,22.311-39.156,15.651-51.306,23.619C-437.923,418.522-420.678,364.322-420.179,364.085Z" transform="translate(662.507 -300.289)" fill="#337321" fill-rule="evenodd"/>
      <path id="Path_122" data-name="Path 122" d="M-419.791,371.014c20.943,19.984,13.7,30.232.787,30.419C-414.564,397.714-401.232,396.887-419.791,371.014Z" transform="translate(680.156 -293.544)" fill="#0db02b" fill-rule="evenodd"/>
      <path id="Path_123" data-name="Path 123" d="M-435.375,354.991c33.188-11.077,49.61-13.737,37.758,11.653C-390.455,343.64-409.2,349.168-435.375,354.991Z" transform="translate(664.987 -316.987)" fill="#0db02b" fill-rule="evenodd"/>
      <path id="Path_124" data-name="Path 124" d="M-317.043,357.388c-3.3-7.175-8.643-12.8-16.318-15.5-17.634-6.212-40.213,5.454-49.828,20.489-2.96,3.067-5.983,6.112-9.135,8.983a58.447,58.447,0,0,1-6.494,5.281c-1.557,1.048-4.047,2.607-6.042,2.088-1.76-.458-4.426-2.715-5.922-3.8-14.2-10.271-36.778-16.16-53.979-18.076-19.067-2.123-44.606-.916-60.028,12.592l-.154-.168-2.279,1.2a46.711,46.711,0,0,0-22.149,25.579c-3.37,9.52-3.56,20.843,2.277,29.472l1.281,1.892.89-.2c.5,10.1,3.7,19.678,11.556,27.24,10.625,10.23,26.842,13.9,41.006,15.828,7.526,1.022,15.088,1.6,22.65,2.275,4.42.391,9.072.787,13.561,1.51-2.844,2.909-7.252,5.8-9.577,7.475-5.071,3.663-11.071,8.233-12.908,14.5-1.241,4.241-.327,8.4,1.79,12.191l.053.1.12.184.063.087a23.322,23.322,0,0,0,5.539,5.318c6.822,4.673,15.963,5.7,23.988,6.573,9.523,1.032,18.721,1.922,27.82,5.192,11.809,4.247,25.214,6.36,37.733,5.1,14.552-1.472,27.461-7.446,36.8-18.929,8.563-10.532,11.817-20.726,15.142-33.577l.034-.128.045-.259.012-.132c.888-9.312,1.285-20.557,5.484-29.036a25.927,25.927,0,0,1,6.767-8.608c13.02-10.79,24.223-25.547,27.262-42.524,2.159-12.055-.142-25.622-9.942-33.859A27.689,27.689,0,0,0-317.043,357.388Z" transform="translate(551.731 -323.558)" fill="#337321" fill-rule="evenodd"/>
      <path id="Path_125" data-name="Path 125" d="M-382.189,362.791c-22.248,23.082-24.093,19.045-32.191,13.186-25.447-18.406-95.276-30.265-115.967,1.334a52.822,52.822,0,0,1,3.035-5.539c-20.26,10.633-28.33,35.923-18.656,50.224a25.728,25.728,0,0,1,3.605-10.449c-9.837,62.086,60.6,51.675,90.149,58.548-4.018,11.138-32.928,17.725-23.357,34.852,10.374,13.912,32.993,7.67,55.8,15.937,20.781,7.4,52.361,9.914,70.808-12.8,8.7-10.688,11.584-21.032,14.5-32.306,1.446-15.177,1.756-30.2,13.443-39.9,40.387-33.458,30.771-77.889.128-76.807C-332.255,329.918-369.439,342.42-382.189,362.791Z" transform="translate(553.372 -321.903)" fill="#54c247" fill-rule="evenodd"/>
      <path id="Path_126" data-name="Path 126" d="M-443.293,346.1c-1.928-4.716-22.3-11.027-14.9,5.077C-455.784,353.2-441.029,352.3-443.293,346.1Z" transform="translate(641.208 -322.933)" fill="#337321" fill-rule="evenodd"/>
      <path id="Path_127" data-name="Path 127" d="M-442.785,488.058c2.922-6.3,4.637-12.647,6.366-19.329l.067-.71h0l.065-.71.065-.71.063-.71.063-.71.063-.708.063-.706h0l.063-.706h0l.065-.706.063-.7h0l.067-.7.067-.7.069-.7.073-.7h0l.075-.695.077-.695h0l.079-.691.083-.691h0l.085-.687.091-.685.093-.681.1-.681c.034-.225.067-.45.1-.677h0l.109-.673.112-.669c.039-.225.079-.446.118-.669l.124-.663h0c.043-.221.087-.442.13-.661l.136-.657c.047-.219.095-.436.144-.653h0c.049-.217.1-.434.15-.649s.1-.43.158-.645.109-.428.166-.641h0c.055-.213.112-.426.172-.637s.118-.424.182-.633h0c.061-.211.124-.42.188-.63h0c.063-.209.13-.416.2-.624s.136-.414.207-.62.142-.412.215-.616.15-.409.225-.61.156-.4.237-.606.162-.4.245-.6.168-.4.255-.594.178-.395.268-.59.182-.391.276-.584.191-.387.288-.58.2-.381.3-.572.207-.379.312-.566.215-.375.324-.562.223-.371.337-.555h0c.115-.184.231-.367.349-.549s.239-.363.361-.543.249-.359.375-.537h0c.128-.178.257-.353.389-.529h0c.132-.176.266-.351.4-.525h0c.136-.172.276-.345.416-.515s.284-.341.43-.511h0c.146-.168.294-.335.444-.5h0c.152-.168.3-.331.46-.5s.316-.328.476-.489.326-.322.491-.482h0c.166-.158.333-.316.505-.472h0c.172-.158.347-.312.523-.466h0c.176-.154.355-.308.539-.46h0l.041-.034c.545-.452,1.077-.906,1.6-1.362l.373-.326q.778-.681,1.533-1.368l.268-.247q.687-.631,1.35-1.265l.262-.251c.478-.46.943-.92,1.4-1.383l.341-.343q.7-.71,1.375-1.425l.059-.065c.434-.462.856-.925,1.273-1.389l.31-.345q.619-.7,1.216-1.4l.243-.288q.545-.648,1.068-1.294l.191-.237q.568-.71,1.111-1.421l.268-.357c.365-.484.724-.967,1.072-1.451l.075-.107c.332-.462.653-.926.969-1.389l.221-.328c.318-.47.626-.941.927-1.411l.221-.349c.264-.418.521-.837.774-1.255l.154-.255q.423-.71.823-1.421l.209-.377c.262-.472.519-.943.766-1.415l.112-.217q.332-.642.645-1.283l.172-.349c.225-.468.444-.935.653-1.4l.148-.33c.187-.42.367-.837.543-1.255l.109-.257q.281-.69.543-1.375l.156-.406c.168-.452.332-.9.487-1.352l.1-.31q.2-.574.375-1.148l.122-.393q.2-.657.383-1.308l.11-.412c.1-.377.2-.756.292-1.131.024-.1.049-.193.073-.292.1-.434.2-.868.29-1.3l.087-.424q.13-.633.241-1.265c.022-.13.041-.26.063-.393.053-.326.1-.651.152-.977.022-.15.043-.3.063-.448.055-.4.1-.807.146-1.208.014-.146.03-.292.043-.438.032-.337.061-.671.085-1,.01-.142.022-.284.03-.426.024-.363.041-.724.055-1.083l.014-.464c.012-.383.018-.764.018-1.141,0-.146,0-.292-.006-.438q-.006-.417-.018-.829c-.006-.16-.01-.318-.018-.476q-.024-.533-.061-1.06l-.041-.509c-.024-.264-.049-.529-.079-.791-.022-.205-.045-.412-.071-.618-.034-.268-.069-.535-.109-.8-.026-.174-.051-.345-.081-.517q-.08-.494-.174-.983c-.03-.156-.063-.31-.095-.464-.047-.221-.095-.44-.144-.659-.038-.166-.075-.335-.116-.5-.075-.31-.156-.616-.241-.92-.047-.17-.095-.337-.144-.5-.059-.2-.122-.4-.184-.6-.079-.249-.16-.493-.245-.736-.065-.193-.134-.387-.2-.576-.063-.172-.126-.343-.193-.513-.095-.243-.191-.485-.292-.724l-.038-.093c-3.157-.134-9.012-3.39-12.247-3.68a4.609,4.609,0,0,0-4.995,5.573c-2.311,11.258,14.246,20.012,6.058,32.521-30.759,44.055-40.622,26.291-32.89,86.461Zm43.258-122.621c-13.372-13.257-20.055-9.918-41.721-16.316,6.145,1.646,12.312,1.721,18.131,2.252.089.217.182.43.268.651,8.6-.3,15.542,2.976,20.188,8.594l.138.172c.049.059.095.122.142.184a31.646,31.646,0,0,1,2.853,4.46Z" transform="translate(655.327 -314.854)" fill="#0db02b" fill-rule="evenodd"/>
      <path id="Path_128" data-name="Path 128" d="M-494.415,410.663c-9.36,7.43-24.166,14.352-16.951,27.305l.008.012.006.014.112.144c10.423,13.723,32.961,7.556,55.686,15.793,20.781,7.4,52.361,9.914,70.808-12.8a61.619,61.619,0,0,0,5.549-8.006c-13.506,15.42-23.54,25.184-57.391,13.518-21.464-8.065-48.448,2.508-64.622-5.8C-513.731,433.219-502.847,421.738-494.415,410.663Z" transform="translate(589.154 -254.951)" fill="#0db02b" fill-rule="evenodd"/>
      <path id="Path_129" data-name="Path 129" d="M-463.866,357.853c-6.593,5.806-10.382,7.518-13.464,7.118,10.587,12.539,15.974,22.494,20.87,29.445,8.578,11.418,25.944,33.3,48.874,10C-426.924,387.4-444.949,373.776-463.866,357.853Z" transform="translate(624.149 -306.355)" fill="#0db02b" fill-rule="evenodd"/>
      <path id="Path_130" data-name="Path 130" d="M-459.931,417.06c-19.329,15.586-42.3,25.508-43.146,23.154,28.649,9.393,65.536-15.1,70.828-42.333C-431.509,400.229-454.378,415.3-459.931,417.06Z" transform="translate(599.088 -267.393)" fill="#0db02b" fill-rule="evenodd"/>
      <path id="Path_131" data-name="Path 131" d="M-531.053,372.538c3.911-2.893,7.175-2.1,7.284,1.259.069,3.2-3.706,6.743-7.309,7.414C-535.289,381.811-534.417,375.186-531.053,372.538Z" transform="translate(569.07 -293.791)" fill="#337321" fill-rule="evenodd"/>
      <path id="Path_132" data-name="Path 132" d="M-451.846,407.474C-459.29,429-478.812,450.987-507.223,439.4c-10.289-7.378,10.364-24.764,12.74-32.7C-473.993,410.107-464.1,417.756-451.846,407.474Z" transform="translate(592.274 -258.815)" fill="#264631" fill-rule="evenodd"/>
      <path id="Path_133" data-name="Path 133" d="M-460.673,412.392c-1.671,3.9-2.857,9.206-8.448,13.895-11.4,9.8-19.13,12.337-32.8,10.928-5.206-2.127-9.593-3.89-3.485-13.143,10.388-12.618,32.073-14.113,43.485-14.279-8.448,1.9-15.181,4.874-19.753,10.234C-473.875,414.537-466.755,411.557-460.673,412.392Z" transform="translate(593.928 -255.798)" fill="#ba122b" fill-rule="evenodd"/>
      <path id="Path_134" data-name="Path 134" d="M-530.825,369.607c7.451-.892,9.938,2.208,7.457,8.5C-517.572,371.241-524.082,366.213-530.825,369.607Z" transform="translate(572.079 -295.972)" fill="#337321" fill-rule="evenodd"/>
      <path id="Path_135" data-name="Path 135" d="M-548.089,364.93c5.133-3.72,8.245-2.455,9,3.209C-537.634,360.688-544.505,359.654-548.089,364.93Z" transform="translate(555.275 -302.679)" fill="#337321" fill-rule="evenodd"/>
      <path id="Path_136" data-name="Path 136" d="M-426.805,362.594a3.993,3.993,0,0,0-1,.9c-2.526,3.2.306,8.943,2.307,11.728,2.54,3.538,7.576,7.9,12.085,4.89,3.615-2.407,6.252-5.413,9.3-8.418,4.016-3.955,7.635-6.344,13.285-7.4.278-.051.553-.114.827-.187,1.946-.523,5.141-2.068,5.062-4.472-.059-1.883-2.054-2.792-3.605-3.234l-.049-.014C-402.2,353.1-415.149,354.661-426.805,362.594Z" transform="translate(671.384 -309.355)" fill="#e8d4bf" fill-rule="evenodd"/>
      <path id="Path_137" data-name="Path 137" d="M-426.757,363.034c10.575-7.2,22.881-9.523,37.249-6.044,5.423,1.549,1.626,4.724-2.169,5.47-12.016,2.2-14.871,10.469-23.051,16C-421.565,382.935-431.964,366.339-426.757,363.034Z" transform="translate(672.004 -308.743)" fill="#f2e8c7" fill-rule="evenodd"/>
      <path id="Path_138" data-name="Path 138" d="M-413.915,355.816q.944-.142,1.9-.243c3.134,2.565,6.212,5.437,7.438,8.47a50.129,50.129,0,0,0-9.34-8.227Zm10.277-.345q.645.05,1.293.116a16.89,16.89,0,0,1,2.2,6.319,64.112,64.112,0,0,0-3.489-6.435Zm-9.9,17.431a20.449,20.449,0,0,0-9.346-13.587c3.9,4.776,7.039,10.056,7.872,15.053C-414.515,373.883-414.026,373.393-413.542,372.9Z" transform="translate(677.142 -308.673)" fill="#e8d4bf" fill-rule="evenodd"/>
      <path id="Path_139" data-name="Path 139" d="M-528.443,358.456c-1.656,7.793,37.826-9.036,60.655,1.579C-484.49,347.626-527.01,351.322-528.443,358.456Z" transform="translate(574.349 -312.153)" fill="#a1de9a" fill-rule="evenodd"/>
      <path id="Path_140" data-name="Path 140" d="M-470.966,395.5c6.461,4.053,9.156,3.9,11.5,13.9C-458.07,399.258-461.906,396.914-470.966,395.5Z" transform="translate(630.344 -269.711)" fill="#337321" fill-rule="evenodd"/>
      <path id="Path_141" data-name="Path 141" d="M-548.841,367.686c3.215-6.49,8.075-7.665,10.5-3.286,2.267,4.193-.326,11.45-4.643,14.79C-548.15,382.846-551.5,373.48-548.841,367.686Z" transform="translate(553.635 -302.516)" fill="#54c247" fill-rule="evenodd"/>
      <path id="Path_142" data-name="Path 142" d="M-548.378,367.533c2.159-4.359,5.425-5.147,7.055-2.206,1.523,2.816-.217,7.69-3.118,9.934C-547.914,377.716-550.162,371.424-548.378,367.533Z" transform="translate(554.384 -300.783)" fill="#337321" fill-rule="evenodd"/>
      <path id="Path_143" data-name="Path 143" d="M-409.114,376.371s-5.733,2.846-11.611-4.937-1.964-12.809-.178-13.308c-14.834-5.164-10.713,8.371-4.189,16.87C-415.8,387.1-408.477,384.914-409.114,376.371Z" transform="translate(669.239 -307.201)" fill="#54c247" fill-rule="evenodd"/>
      <path id="Path_144" data-name="Path 144" d="M-411.823,358.977c9.8,8.509,8.1,26.518-3.795,40.219-6.348,9.143-16.764,14.262-25.912,14.141-3.357-7.661-9.881-16.43-18.214-24.649,1.145-9.782,3.664-13.232,8.631-20.31C-439.215,354.676-421.624,350.466-411.823,358.977Z" transform="translate(641.267 -309.543)" fill="#337321" fill-rule="evenodd"/>
      <path id="Path_145" data-name="Path 145" d="M-414.622,359.657c9.066,7.87,7.495,24.525-3.511,37.2-6.149,8.858-16.432,13.63-25.166,13.026-3.392-6.654-8.941-13.975-15.83-20.963.961-10.443,3.286-13.606,8.17-20.568C-439.956,355.679-423.687,351.786-414.622,359.657Z" transform="translate(641.866 -308.56)" fill="#fff" fill-rule="evenodd"/>
      <g id="Group_29" data-name="Group 29" transform="translate(189.53 58.933)">
        <path id="Path_146" data-name="Path 146" d="M-423.906,364.871c6.463,5.61,5.344,17.484-2.5,26.518-8.908,12.829-29.962,13.646-29.261-5.283.663-7.745,2.319-9.993,5.857-15.037C-441.967,362.034-430.369,359.259-423.906,364.871Z" transform="translate(455.687 -361.281)" fill="#54c247" fill-rule="evenodd"/>
        <path id="Path_147" data-name="Path 147" d="M-426.658,366.786c5.539,4.807,4.578,14.984-2.145,22.727-7.633,11-25.681,11.694-25.078-4.527.566-6.638,1.985-8.566,5.02-12.888C-442.137,364.355-432.2,361.975-426.658,366.786Z" transform="translate(457.43 -359.014)" fill="#212121" fill-rule="evenodd"/>
        <path id="Path_148" data-name="Path 148" d="M-437.551,364.237c1.965,1.7,1.624,5.316-.762,8.063-2.707,3.9-9.109,4.148-8.9-1.606a7.385,7.385,0,0,1,1.78-4.572C-443.043,363.375-439.516,362.53-437.551,364.237Z" transform="translate(463.934 -359.932)" fill="#fefefe" fill-rule="evenodd"/>
        <path id="Path_149" data-name="Path 149" d="M-442.11,362.135c1.143.993.945,3.1-.444,4.7-1.577,2.271-5.306,2.415-5.182-.937a4.309,4.309,0,0,1,1.038-2.662C-445.309,361.632-443.255,361.14-442.11,362.135Z" transform="translate(463.422 -361.62)" fill="#fefefe" fill-rule="evenodd"/>
        <path id="Path_150" data-name="Path 150" d="M-442.873,371.032c.772.671.637,2.088-.3,3.165-1.064,1.531-3.576,1.628-3.493-.629a2.9,2.9,0,0,1,.7-1.8C-445.028,370.7-443.645,370.364-442.873,371.032Z" transform="translate(464.467 -352.795)" fill="#fefefe" fill-rule="evenodd"/>
      </g>
      <path id="Path_151" data-name="Path 151" d="M-443.268,347.008c-1.9-4.645-20.969-11.224-14.672,5C-455.609,354.019-440.329,349.626-443.268,347.008Z" transform="translate(641.787 -322.106)" fill="#54c247" fill-rule="evenodd"/>
      <g id="Group_31" data-name="Group 31" transform="translate(149.701 20.897)">
        <path id="Path_152" data-name="Path 152" d="M-437.316,345.3c8.819,6.544,8.551,21.845-.6,34.175a28.307,28.307,0,0,1-15.68,12.608,114.2,114.2,0,0,0-22.086-14.106c-.091-.766-.156-1.561-.19-2.39.087-9.973,1.985-13.012,6.017-19.815C-460.7,343.445-446.135,338.756-437.316,345.3Z" transform="translate(475.87 -342.346)" fill="#337321" fill-rule="evenodd"/>
        <path id="Path_153" data-name="Path 153" d="M-439.326,346.037c8.166,6.06,7.919,20.225-.552,31.639a25.98,25.98,0,0,1-16.239,12.138,114.806,114.806,0,0,0-18.463-11.82,26.1,26.1,0,0,1-.438-3.915c.083-9.233,1.839-12.047,5.571-18.344C-460.976,344.32-447.49,339.979-439.326,346.037Z" transform="translate(476.699 -341.416)" fill="#fff" fill-rule="evenodd"/>
        <g id="Group_30" data-name="Group 30" transform="translate(6.668 8.911)">
          <path id="Path_154" data-name="Path 154" d="M-443.919,349.23c6.538,4.851,6.338,16.192-.442,25.328-3.669,6.256-10.289,10-16.19,10.11a118.351,118.351,0,0,0-10.856-7.23,18.3,18.3,0,0,1-1.085-5.76c.065-7.392,1.472-9.644,4.46-14.684C-461.251,347.855-450.454,344.38-443.919,349.23Z" transform="translate(472.491 -346.688)" fill="#54c247" fill-rule="evenodd"/>
          <path id="Path_155" data-name="Path 155" d="M-446.263,351.122c5.6,4.158,5.431,13.877-.381,21.709-4.041,6.891-12.266,10.234-17.981,7.957q-1.589-1.131-3.211-2.206c-1.671-1.812-2.771-4.513-2.917-8.219.055-6.337,1.261-8.267,3.822-12.586C-461.118,349.944-451.865,346.966-446.263,351.122Z" transform="translate(474.184 -344.542)" fill="#212121" fill-rule="evenodd"/>
          <path id="Path_156" data-name="Path 156" d="M-456.293,349.02c1.987,1.476,1.926,4.924-.134,7.7-2.285,3.9-8.338,4.6-8.555-.876a7.026,7.026,0,0,1,1.358-4.464C-461.564,348.6-458.28,347.546-456.293,349.02Z" transform="translate(479.8 -345.408)" fill="#fefefe" fill-rule="evenodd"/>
          <path id="Path_157" data-name="Path 157" d="M-460.66,347.249c1.156.858,1.123,2.867-.079,4.485-1.33,2.267-4.854,2.676-4.981-.511a4.081,4.081,0,0,1,.791-2.6C-463.729,347.006-461.819,346.391-460.66,347.249Z" transform="translate(479.082 -346.862)" fill="#fefefe" fill-rule="evenodd"/>
          <path id="Path_158" data-name="Path 158" d="M-460.684,355.693c.779.578.756,1.932-.053,3.023-.9,1.529-3.272,1.8-3.357-.345a2.767,2.767,0,0,1,.531-1.752C-462.752,355.529-461.465,355.113-460.684,355.693Z" transform="translate(480.664 -338.52)" fill="#fefefe" fill-rule="evenodd"/>
        </g>
      </g>
      <path id="Path_159" data-name="Path 159" d="M-418.6,416.995c-2.344-16.152-26.023-42.208-51.775-54.654-2.563,2.484-9.111-7.558-10.55-2.086,9.518,8.977,24.628,26.613,28.3,35.185-1.731-8.849-4.777-14.362-11.136-23.075C-446.22,384.191-428.713,397.855-418.6,416.995Z" transform="translate(620.647 -305.63)" fill="#337321" fill-rule="evenodd"/>
      <g id="Group_32" data-name="Group 32" transform="translate(98.007 150.236)">
        <path id="Path_160" data-name="Path 160" d="M-500.344,407.888c-1.15,2.66-3.378,8.5.326,9.64a.428.428,0,0,0,.067.018c3.7.774,8.505-3.434,10.948-6.021A93.984,93.984,0,0,1-500.344,407.888Z" transform="translate(502.066 -407.888)" fill="#e8d4bf" fill-rule="evenodd"/>
        <path id="Path_161" data-name="Path 161" d="M-490.2,411.18c-2.261,2.327-6.715,6.177-9.958,5.5-2.621-.805-1.4-5.066.152-8.655A94.084,94.084,0,0,0-490.2,411.18Z" transform="translate(502.431 -407.755)" fill="#f2e8c7" fill-rule="evenodd"/>
      </g>
      <path id="Path_162" data-name="Path 162" d="M-420.609,397.414c-31.278,25.883-48.667,26.354-92.614,10.115C-459.985,439.705-430.142,410.91-420.609,397.414Z" transform="translate(589.212 -267.847)" fill="#337321" fill-rule="evenodd"/>
    </g>
  </g>
</svg>
