<svg xmlns="http://www.w3.org/2000/svg" xmlns:xlink="http://www.w3.org/1999/xlink" width="311" height="372.54" viewBox="0 0 311 372.54">
  <defs>
    <clipPath id="clip-path">
      <path id="Path_385" data-name="Path 385" d="M485.962,295.752s-5.908,1.867-4.836,8.067,23.76,14.783,59.018,8.873,51.83-28.207,51.188-31.7-2.437-5.428-6.275-4.186c-12.662,4.095-8.692-45.243-8.692-45.243l-39.339-.98C514.412,239.438,488.7,268.238,485.962,295.752Z" transform="translate(-480.996 -230.582)" fill="none" clip-rule="evenodd"/>
    </clipPath>
  </defs>
  <g id="mascot-3" transform="translate(-287.735 -4136.921)">
    <ellipse id="Ellipse_2" data-name="Ellipse 2" cx="155.5" cy="22.5" rx="155.5" ry="22.5" transform="translate(287.735 4464.461)" fill="#393939" opacity="0.089"/>
    <g id="Group_105" data-name="Group 105" transform="translate(318.541 4136.921)">
      <g id="Group_73" data-name="Group 73" transform="translate(109.135 168.223)">
        <path id="Path_321" data-name="Path 321" d="M549.252,255.609a11.762,11.762,0,0,0-3.651.084,42.892,42.892,0,0,0-4.674.95l-1.039.271L532.4,244.878l1.483-.7c2.107-.992,4.21-2.112,6.245-3.241a11.989,11.989,0,0,1,9.6-1.152,16.873,16.873,0,0,1,6.062,3.534,33.378,33.378,0,0,1,6.073,7.3A36.029,36.029,0,0,1,564.1,254.6l.286.615-6.274,13.495-1.438-2.19q-1.889-2.871-3.806-5.725-1.11-1.65-2.241-3.287C550.2,256.891,549.732,256.2,549.252,255.609Z" transform="translate(-532.404 -239.26)" fill="#337321" fill-rule="evenodd"/>
        <path id="Path_322" data-name="Path 322" d="M539.881,254.759s8.431-2.216,9.749-.635,7.586,11.128,7.586,11.128l4.884-10.5s-9.307-20.018-21.938-13c-3.648,2.026-6.331,3.285-6.331,3.285Z" transform="translate(-531.727 -238.788)" fill="#54c247" fill-rule="evenodd"/>
      </g>
      <g id="Group_75" data-name="Group 75" transform="translate(123.006 180.799)">
        <g id="Group_74" data-name="Group 74">
          <path id="Path_323" data-name="Path 323" d="M560.54,247.807c-8.592-.4-15,5.826-18.636,12.066-.827,2.188,4.064,1.042,8.027,4.611,1.448,4.036,8.107-.591,12.169-3.76,2.928-1.824,8.9-6.436,3.971-9.073C562.594,250.949,563.49,248.12,560.54,247.807Z" transform="translate(-541.811 -247.788)" fill="#595959" fill-rule="evenodd"/>
          <path id="Path_324" data-name="Path 324" d="M559.385,248.531c-7.586-.358-13.24,5.144-16.455,10.653-.64,1.7,2.972.817,6.233,2.712a11.6,11.6,0,0,1,2.512-5.747A27.324,27.324,0,0,0,550.3,262.7c.062.052.121.1.182.158,1.28,3.562,6.69-.125,10.277-2.922,2.585-1.61,7.858-5.683,3.505-8.009-.184-.038-.357-.083-.516-.133a25.8,25.8,0,0,0-5,.563,16.526,16.526,0,0,1,3.511-1.477C561.357,249.928,561.152,248.719,559.385,248.531Z" transform="translate(-541.316 -247.444)" fill="#fefefe" fill-rule="evenodd"/>
        </g>
        <path id="Path_325" data-name="Path 325" d="M554.817,255.773c7.809-5.024,16.29-5.289,28.819,4.306,6.622,4.824,7.79,10.026,1.559,13.486.484,2.939-.361,4.807-2.366,5.739,7.057,7.017,4.739,13.959-1.961,18.595-3.552,3.2-10.333-4.44-6.915-10.221-2.426-2.312-7.11-5.93-11.2-4.788-3.263,1.184-1.974,2.908-2.844,4.674-4.126,11.61-15.47,4.978-12.457-1.087,3.129-6.411.664-11.579.65-17.524C547.408,265.818,549.754,259.024,554.817,255.773Z" transform="translate(-539.375 -245.63)" fill="#5f5d5d" fill-rule="evenodd"/>
        <path id="Path_326" data-name="Path 326" d="M554.35,256.668c7.656-4.925,15.522-6.1,27.806,3.31,6.04,4.4,7.452,9.12,2.7,12.487-7.782.541-15.557,3.229-15.969-1.517.267-6.24,5.939-6.64,14.127-6.92a9.935,9.935,0,0,1-7.648-4.642,5.194,5.194,0,0,0,2.145,3.754c-5.162.879-8.937,3.061-9.91,7.048-9.389,4.44-5.168,8.947-.559,9.994,6.245,1.553,10.509.827,14.633-1.04,6.536,6.771,4.235,13.44-2.234,17.915-3.157,1.55-7.229-3.489-5.282-8.713a15.582,15.582,0,0,1,2.465-3.813,7.211,7.211,0,0,0-2.558,1.756c-2.869-2.306-8.974-5.575-12.622-4.558-3.2,1.162-1.706,3.464-2.558,5.195-4.045,11.383-13.521,4.711-10.566-1.236,3.068-6.284.652-11.354.638-17.184a11.86,11.86,0,0,1,5.391-11.839Zm-1.507,7.834c1.066,3.738,5.513,6.688,11.287,6.042-3.657-.973-8.585-3.03-11.287-6.042Zm30.883,8.977c-3.626,1.11-7.33.712-11.132,1.458-2.4.342-3.878-.313-5-3.049-3.141.274-5.64,3.624-3.17,5.668,4.839,3.142,11.07,2.389,17.075,1.206C583.3,277.859,584.095,276.134,583.726,273.478Z" transform="translate(-538.989 -245.354)" fill="#fefefe" fill-rule="evenodd"/>
      </g>
      <path id="Path_327" data-name="Path 327" d="M540.966,277.478c6.92-7.688,20.183-10.5,28.188-10.9,15.4.584-.227,27.818.805,35.591C569.959,302.168,540.956,277.779,540.966,277.478Z" transform="translate(-419.206 -58.075)" fill="#337321" fill-rule="evenodd"/>
      <path id="Path_328" data-name="Path 328" d="M554.125,269.066c12.131-3.447,15.233,1.731,12.948,9.869C567.109,271.024,562.773,267.487,554.125,269.066Z" transform="translate(-412.962 -57.408)" fill="#0db02b" fill-rule="evenodd"/>
      <path id="Path_329" data-name="Path 329" d="M602.138,284.522c-3.484-4.341-3.832-11.628-3.352-15.914.86-5.3,16.179-5.115,20.4-4.991C619.185,263.616,602.3,284.554,602.138,284.522Z" transform="translate(-391.852 -59.499)" fill="#337321" fill-rule="evenodd"/>
      <path id="Path_330" data-name="Path 330" d="M582.508,299.166c-3.068-8.517.248-19.91,3.251-26.249,4.121-7.7,27.589.678,34.011,3.1C619.769,276.015,582.735,299.3,582.508,299.166Z" transform="translate(-400.075 -56.576)" fill="#337321" fill-rule="evenodd"/>
      <path id="Path_331" data-name="Path 331" d="M557.7,297.011c2.219-11.2,13.2-21.359,20.569-26.259,14.932-8.15,15.5,26.5,20.87,33.291C599.135,304.043,557.857,297.3,557.7,297.011Z" transform="translate(-411.268 -56.679)" fill="#337321" fill-rule="evenodd"/>
      <path id="Path_332" data-name="Path 332" d="M567.206,277.77c9.555-10.121,15.422-6.964,17.852,2.044C580.624,272.293,574.512,271.389,567.206,277.77Z" transform="translate(-406.755 -55.744)" fill="#0db02b" fill-rule="evenodd"/>
      <path id="Path_333" data-name="Path 333" d="M584.114,284.194c-.242-13.929,7.409-15.973,16.986-11.472C591.044,270.7,585.059,274.485,584.114,284.194Z" transform="translate(-398.736 -56.174)" fill="#0db02b" fill-rule="evenodd"/>
      <path id="Path_334" data-name="Path 334" d="M600.632,275.835c-3.15-8.537,1.128-11.445,8-10.733C602,266.022,599.124,269.644,600.632,275.835Z" transform="translate(-391.395 -58.823)" fill="#0db02b" fill-rule="evenodd"/>
      <path id="Path_335" data-name="Path 335" d="M537.317,227.676,509.11,268.689l-.717.112a6.258,6.258,0,0,1-4.4-1.2c-3.147-2.322-3.705-6.955-3.648-10.562.077-4.8,2.886-9.746,5.619-13.543a73.336,73.336,0,0,1,7.993-9.189c1.336-1.318,2.744-2.656,4.183-3.863l.377-.317Z" transform="translate(-438.481 -76.533)" fill="#b01c2e" fill-rule="evenodd"/>
      <path id="Path_336" data-name="Path 336" d="M533.247,229.139l-14.562,1.9s-17.019,14.288-17.2,25.333,6.1,10.069,6.1,10.069Z" transform="translate(-437.939 -75.839)" fill="#c7252e" fill-rule="evenodd"/>
      <g id="Group_81" data-name="Group 81" transform="translate(1.457 230.983)">
        <path id="Path_337" data-name="Path 337" d="M480.344,382.507a14.546,14.546,0,0,1-6.087-.434,6.253,6.253,0,0,1-4.126-3.6c-.832-2.234.044-4.558,1.442-6.346a20.931,20.931,0,0,1,7.384-5.426l.043-.019a31.883,31.883,0,0,0,2.889-1.5c3.08-1.795.7-7.865,3.437-10.142,2.455-2.044,5.053-5.133,5.914-8.4a37.326,37.326,0,0,0-3.048-4.571c-7.952-9.2-14.531-21.359-12.631-33.907,1.811-11.965,10.718-19.316,21.169-23.525,3.021-2.1,4.567-.753,8.26-.832,5.695-.118,12.083-.038,16.216,3.739,9.712,8.878,14.356,17.8,12.237,31.194-1.544,9.757-7.908,13.2-14.241,19.59a15.727,15.727,0,0,0,.317,6.585,4.423,4.423,0,0,0,2.137,2.572,11.358,11.358,0,0,0,2.572.948c2.129.572,4.328.963,6.141,2.315,2.253,1.681,2.995,4.229,3.008,6.937.41,7.738-8.972,14.684-15.021,17.835-6.259,3.259-16.988,6.729-23.259,1.815-.119-.093-.236-.189-.349-.286-.273-.006-.544-.022-.815-.046a24.651,24.651,0,0,1-5.382,2.492c-2.38.818.823,6.224-1.541,5.562A34.894,34.894,0,0,1,480.344,382.507Z" transform="translate(-454.426 -281.053)" fill="#337321" fill-rule="evenodd"/>
        <path id="Path_338" data-name="Path 338" d="M497.841,284.94c-26.21,13.947-25.09,36.654-7.816,56.6,2,2.563,4.888,5.237,8.064,5.954a26.868,26.868,0,0,0,7.613.49c-3.921.743-9.137.873-11.582.015-2.812,9.277-3.341,13.638-11.09,17.144-11.949,5.736-19.18,11.42-8.694,9.864,2.092,1.337,10.466,4.475,13.807,3.325a22.736,22.736,0,0,0,5.568-2.675,8.457,8.457,0,0,0,2.075.087c8.5,8.974,36.482-5.876,35.807-17.234-.016-12.346-16.768-.749-14.07-20.352l2.117-11.387.078,9.224c7.984-7.5,15.519-11.5,10.824-32.141C524.615,285.286,509.49,276.745,497.841,284.94Z" transform="translate(-454.68 -281.824)" fill="#54c247" fill-rule="evenodd"/>
        <path id="Path_339" data-name="Path 339" d="M491.232,283.967a53.21,53.21,0,0,0-8,5.167c-.616,19.642,7.979,39.869,27.471,50,.047-.612.116-1.256.211-1.943l2.117-11.387.078,9.224c1.3-1.227,2.6-2.358,3.829-3.486l-13.4-32.129L491.37,283.873C491.324,283.905,491.278,283.935,491.232,283.967Z" transform="translate(-448.072 -280.851)" fill="#0db02b" fill-rule="evenodd"/>
        <g id="Group_77" data-name="Group 77" transform="translate(25.245 31.799)">
          <path id="Path_340" data-name="Path 340" d="M483.411,310.431c-8.54,6.034-7.365-1.427-5.835-7.041C477.159,310.184,476.305,313.1,483.411,310.431Z" transform="translate(-476.497 -303.39)" fill="#0db02b" fill-rule="evenodd"/>
          <g id="Group_76" data-name="Group 76" transform="translate(1.752 2.681)">
            <path id="Path_341" data-name="Path 341" d="M480.393,305.208c.323,14.3,7.569,6.932,12.495.678C485.756,311.88,483.242,315.2,480.393,305.208Z" transform="translate(-476.401 -305.208)" fill="#0db02b" fill-rule="evenodd"/>
            <path id="Path_342" data-name="Path 342" d="M478.329,308.821c-2.505,7.89,2.843,5.215,6.712,2.716C480.013,313.479,478.015,314.824,478.329,308.821Z" transform="translate(-477.685 -303.494)" fill="#0db02b" fill-rule="evenodd"/>
            <path id="Path_343" data-name="Path 343" d="M484.219,309.613c.261,11.517,6.094,5.582,10.06.547C488.538,314.985,486.513,317.656,484.219,309.613Z" transform="translate(-474.585 -303.118)" fill="#0db02b" fill-rule="evenodd"/>
            <path id="Path_344" data-name="Path 344" d="M480.827,311.73c-2.505,7.89,2.843,5.215,6.713,2.715C482.513,316.388,480.513,317.733,480.827,311.73Z" transform="translate(-476.5 -302.113)" fill="#0db02b" fill-rule="evenodd"/>
          </g>
        </g>
        <path id="Path_345" data-name="Path 345" d="M487.97,291.022c-8.664,1.84-12.952,10.168-8.739,19.975C477.889,303.53,482.4,294.547,487.97,291.022Z" transform="translate(-450.731 -277.459)" fill="#98da91" fill-rule="evenodd"/>
        <path id="Path_346" data-name="Path 346" d="M493.369,328.96c-2.285,7.766-3.242,11.408-10.339,14.62-11.949,5.736-19.18,11.42-8.694,9.864,2.092,1.337,10.466,4.475,13.807,3.325a22.738,22.738,0,0,0,5.568-2.675,8.456,8.456,0,0,0,2.075.087c8.5,8.974,36.482-5.876,35.807-17.234-.009-6.522-4.686-6.362-8.7-7.651-.053.06-.108.121-.165.183a16.071,16.071,0,0,1-4.733,3.369,15.185,15.185,0,0,1-3.328,1.264l0,0h0C513.205,325.452,499.341,326.62,493.369,328.96Z" transform="translate(-454.68 -260.26)" fill="#0db02b" fill-rule="evenodd"/>
        <g id="Group_80" data-name="Group 80" transform="translate(0 66.395)">
          <path id="Path_347" data-name="Path 347" d="M540.221,348.581l.038-.06a15.149,15.149,0,0,0,2.114-4.938,8,8,0,0,0,.1-2.822l-.013-.083-.007-.046a6.251,6.251,0,0,0-.369-1.271,5.57,5.57,0,0,0-1.128-1.749c-.112-.115-.23-.227-.352-.332l-.568-.488-.1-.74c-.015-.106-.028-.212-.041-.318-.112-.826-.208-1.654-.354-2.476a8.586,8.586,0,0,0-2.381-5.112c-2.348-2.066-5.145-1.281-7.691-.236.137,2,.049,2.686-1.424,4.3a16.1,16.1,0,0,1-4.733,3.369,24.179,24.179,0,0,1-4.191,1.592l-2.089.582-.363-2.138c-.028-.167-.063-.332-.1-.494-2.467-9.7-21.923-8.471-28.493.077l-.469.61-.761.127c-1.146.19-2.287.419-3.419.678a31.556,31.556,0,0,0-12.567,6.433,35.078,35.078,0,0,0-9.314,11.448c-1.716,3.517-2.819,7.76-1.73,11.629,1.131,4.011,4.328,6.536,8.029,8.116,5.108,2.179,11.951,2.122,17.465,2.249h.056c23.014-.267,41.191-9.189,54.817-27.847Z" transform="translate(-459.376 -326.853)" fill="#212121" fill-rule="evenodd"/>
          <path id="Path_348" data-name="Path 348" d="M503.22,341.229c-7.682-1.349-16.351-3.127-24.031-4.477C487.712,324.28,512.038,327.957,503.22,341.229Z" transform="translate(-449.976 -325.788)" fill="#e62129" fill-rule="evenodd"/>
          <path id="Path_349" data-name="Path 349" d="M503.22,339.876c-7.682-1.349-16.351-3.127-24.031-4.477.068-.1.14-.2.209-.293,9.485-6.575,24.782-1.486,24.972,2.687A13.8,13.8,0,0,1,503.22,339.876Z" transform="translate(-449.976 -324.435)" fill="#c7252e" fill-rule="evenodd"/>
          <path id="Path_350" data-name="Path 350" d="M483.2,337.885c7.967-1.839,14.288-1.864,24.652,1.178,11.078,1.952,23.027-4.754,23-10.518,7.135-2.246,5.793,6.6,6.946,9.073,1.737.649,3.723,3.529.145,9.233-14.947,20.4-33.933,26.806-53.269,27.048-13.21-.3-21.85-.518-23.91-12.24C460.447,350.782,473.979,339.983,483.2,337.885Z" transform="translate(-458.72 -326.221)" fill="#e62129" fill-rule="evenodd"/>
          <path id="Path_351" data-name="Path 351" d="M537.346,335.692l.01.071v0l0,.037.006.035.006.037,0,.034v0l.006.035.006.035.006.037,0,.035.006.028v.007l0,.01.021.127,0,.022,0,.012.006.035.012.066.006.034,0,.015,0,.018.006.032.013.066.006.031,0,.01,0,.022.019.094.007.033v0l0,.025.028.121v0l.035.14h0v0l.031.112,0,.019,0,.009c.024.081.049.159.075.233l0,.007h0c.013.038.027.075.041.111l0,0v0c.015.035.031.071.046.1l.074.028.007,0h0l.066.028.015.006h0l.056.027.019.009.013.007.006,0,.018.009.037.019.012.006.007,0,.019.01.037.021.018.01h0l.019.01.018.01.031.019.025.015.019.012.018.012.019.012v0l.016.01.018.012.019.012.018.013.006,0,.028.019,0,0,.018.015.018.013.019.013.018.013.018.013.018.015.018.015,0,0,.032.027.016.015.018.015.019.015.016.015h0l.018.016.018.015.018.016h0l.034.031h0l.018.016.018.016v0l.032.031.016.018.018.016.016.018.028.029.006.006.016.018c1.2,1.309,1.755,4.03-1.01,8.439-14.947,20.4-33.932,26.8-53.269,27.048-13.21-.3-21.85-.518-23.91-12.24a13.316,13.316,0,0,1,.13-2.257c3.953-2.909,7.863-3.932,13.092-3.66l.075.006c3.7.333,6.006,1.588,8.934,3.705a14.216,14.216,0,0,0,6.047,3.015c4,.765,9.067-.38,12.914-1.477,8.344-3.049,38.033-17.277,33.173-29.152a12.736,12.736,0,0,0-2.344-3.652C536.715,328.072,536.914,332.675,537.346,335.692Z" transform="translate(-458.72 -326.221)" fill="#c7252e" fill-rule="evenodd"/>
          <path id="Path_352" data-name="Path 352" d="M537.88,334.61c1.709.724,3.546,3.6.04,9.192-14.947,20.4-33.932,26.806-53.269,27.048-13.063-.3-21.657-.515-23.838-11.855,3.021-2.544,6.489-4.608,13.043-4.264,10.491.944,8.207,11.02,28.707,5.153C515.987,354.987,528.987,347.737,537.88,334.61Z" transform="translate(-458.695 -323.172)" fill="#f0eada" fill-rule="evenodd"/>
          <path id="Path_353" data-name="Path 353" d="M479.076,334.543c10.195-3.086,16.637.932,26.812,2.246C498.958,338.1,489.691,333.418,479.076,334.543Z" transform="translate(-450.029 -323.745)" fill="#212121" fill-rule="evenodd"/>
          <g id="Group_78" data-name="Group 78" transform="translate(16.55 12.958)">
            <path id="Path_354" data-name="Path 354" d="M472.039,341.8c-3.585-.228.288-3.589,3.372-3.427a35.94,35.94,0,0,1,17.4,5.927c2.219,1.567-1.237,4.6-3.228,3.148A55.45,55.45,0,0,0,472.039,341.8Z" transform="translate(-470.6 -334.348)" fill="#c7252e" fill-rule="evenodd"/>
            <path id="Path_355" data-name="Path 355" d="M475.928,339.074c-3.582-.229.289-3.589,3.372-3.427a35.955,35.955,0,0,1,17.406,5.926c2.219,1.569-1.237,4.6-3.228,3.15A55.4,55.4,0,0,0,475.928,339.074Z" transform="translate(-468.754 -335.641)" fill="#c7252e" fill-rule="evenodd"/>
          </g>
          <g id="Group_79" data-name="Group 79" transform="translate(16.26 11.78)">
            <path id="Path_356" data-name="Path 356" d="M471.895,341.474c-3.59.015.044-3.6,3.132-3.648a35.95,35.95,0,0,1,17.768,4.73c2.321,1.414-.923,4.673-3.008,3.362A55.35,55.35,0,0,0,471.895,341.474Z" transform="translate(-470.404 -333.426)" fill="#f0eada" fill-rule="evenodd"/>
            <path id="Path_357" data-name="Path 357" d="M475.591,338.49c-3.59.015.044-3.6,3.132-3.648a35.957,35.957,0,0,1,17.769,4.73c2.321,1.414-.923,4.671-3.008,3.36A55.4,55.4,0,0,0,475.591,338.49Z" transform="translate(-468.65 -334.842)" fill="#f0eada" fill-rule="evenodd"/>
          </g>
        </g>
      </g>
      <path id="Path_358" data-name="Path 358" d="M555.169,199.318l35.422,10.516-1.065,2.024q-4.052,7.712-7.924,15.537c-1.992,4.022-4.052,8.166-5.761,12.313A72.739,72.739,0,0,0,572.563,250a85.861,85.861,0,0,0-2.408,17.116,74.654,74.654,0,0,0,12.4,44.749c5.5,8.3,13.014,13.89,22.977,15.379,7.545,1.128,15.376-.262,22.514-2.759a81.6,81.6,0,0,0,28.483-17.477,117.532,117.532,0,0,1,15.625-12.526q5.449-3.738,11.19-7.05c3.377-1.948,6.843-3.8,10.383-5.434a50.516,50.516,0,0,1,8.265-3.142c1.8-.466,4.462-.972,5.97.46a4.859,4.859,0,0,1,1.626,2.883c.292,2.234-1.471,4.3-2.837,5.866-1.036,1.191-2.12,2.349-3.185,3.517-1.446,1.585-2.874,3.185-4.264,4.822-10.488,12.334-18.935,26.533-26.194,40.955a79.189,79.189,0,0,1-7.99,12.685c-15.553,20.22-39.929,32.628-64.378,38.354-20.509,4.8-43.331,5.454-63.857.4-17.622-4.339-35.346-13.471-44.68-29.7a57.882,57.882,0,0,1-7.644-32.4,83.744,83.744,0,0,1,7-28.344c5.833-13.683,14.562-26.582,24.149-37.915,3.713-4.388,7.634-8.639,11.746-12.657,1.473-1.439,2.977-2.853,4.519-4.219,1.023-.9,2.081-1.814,3.173-2.633,7.706-5.78,16.545-30.36,19.479-39.838Z" transform="translate(-446.012 -89.988)" fill="#337321" fill-rule="evenodd"/>
      <path id="Path_359" data-name="Path 359" d="M555.811,200.9s-10.32,33.413-20.148,40.786-70.855,66.342-42.44,115.731,145.576,41.968,177.6-21.653c24.292-48.265,40.776-50.579,35.239-55.835-3.425-3.25-33.493,12.7-48.828,27.672s-55.575,36.651-76.852,4.552S570.06,246.6,573.5,238.244s13.759-28.009,13.759-28.009Z" transform="translate(-445.407 -89.239)" fill="#54c247" fill-rule="evenodd"/>
      <path id="Path_360" data-name="Path 360" d="M511.826,336.275c18.932,7.946,43.138,10.016,66.819,6.237-2.414-24.418-15.392-49.385-48.674-43.782-4.682.787-7.173-4.531-10.352-1.237C507.11,304.041,506.024,321.287,511.826,336.275Z" transform="translate(-434.637 -43.921)" fill="#0db02b" fill-rule="evenodd"/>
      <path id="Path_361" data-name="Path 361" d="M553.742,205.107c-3.5,10.027-10.92,29.21-18.079,34.58-9.827,7.369-70.855,66.342-42.44,115.731s145.576,41.968,177.6-21.653c3.517-6.988,7.048-13.166,10.358-18.785-9.046,12.058-14.776,19.988-18.3,24.869-36.482,50.568-148,49.72-155.6-13.907-5.251-43.95,59.609-109.979,59.609-109.979Z" transform="translate(-445.407 -87.242)" fill="#fff7a0" fill-rule="evenodd"/>
      <path id="Path_362" data-name="Path 362" d="M511.825,331.665c18.932,7.946,43.138,10.016,66.819,6.237A80.253,80.253,0,0,0,577,327.758c-26.377,1.51-52.365-5.485-67.5-21.637C507.442,313.753,508.5,323.078,511.825,331.665Z" transform="translate(-434.636 -39.311)" fill="#f3ec8b" fill-rule="evenodd"/>
      <path id="Path_363" data-name="Path 363" d="M535.518,359.045c16.253,40.591,45.118,44.705,38.537-3.124-.29-1.762-.923-5.355-1.075-6.769-.277-2.583-.506-5.184-.688-7.776a89.034,89.034,0,0,0-2.255-14.456,87.052,87.052,0,0,0-2.763-9.229c-6.33-17.492-16.762-24.8-37.271-21.039-4.3.787-6.591-4.531-9.512-1.237C499.987,307.093,515.252,350.428,535.518,359.045Z" transform="translate(-433.534 -44.908)" fill="#337321" fill-rule="evenodd"/>
      <path id="Path_364" data-name="Path 364" d="M569.647,342.913s1.576,12.737,1.939,15.251c6.591,40.985-14.882,41.544-34.9,2.849,10.982,2.464,18.974-5.56,22.918-19.317-25.989,56.554-71.985-42.434-31.957-49.769C555.856,286.759,568.074,320.665,569.647,342.913Z" transform="translate(-432.986 -46.297)" fill="#54c247" fill-rule="evenodd"/>
      <g id="Group_83" data-name="Group 83" transform="translate(96.4 282.427)">
        <path id="Path_365" data-name="Path 365" d="M535.145,325.4c10.458,6.382,8.5-2.249,6.268-8.691C542.433,324.624,543.662,327.969,535.145,325.4Z" transform="translate(-518.368 -316.713)" fill="#0db02b" fill-rule="evenodd"/>
        <g id="Group_82" data-name="Group 82" transform="translate(0 3.502)">
          <path id="Path_366" data-name="Path 366" d="M540.523,319.088c.746,16.744-8.3,8.7-14.553,1.775C534.779,327.308,537.978,330.987,540.523,319.088Z" transform="translate(-522.722 -319.088)" fill="#0db02b" fill-rule="evenodd"/>
          <path id="Path_367" data-name="Path 367" d="M541.235,323.133c3.549,9.027-2.914,6.32-7.633,3.7C539.633,328.71,542.075,330.125,541.235,323.133Z" transform="translate(-519.101 -317.169)" fill="#0db02b" fill-rule="evenodd"/>
          <path id="Path_368" data-name="Path 368" d="M535.485,324.538c.6,13.484-6.685,7.005-11.718,1.43C530.858,331.157,533.435,334.119,535.485,324.538Z" transform="translate(-523.767 -316.502)" fill="#0db02b" fill-rule="evenodd"/>
          <path id="Path_369" data-name="Path 369" d="M538.543,326.73c3.549,9.027-2.914,6.32-7.633,3.7C536.939,332.308,539.382,333.722,538.543,326.73Z" transform="translate(-520.378 -315.462)" fill="#0db02b" fill-rule="evenodd"/>
        </g>
      </g>
      <path id="Path_370" data-name="Path 370" d="M540.943,302.265c7.017,4.152,10,13.952,5.223,22.775C547.179,317.65,544.771,306.98,540.943,302.265Z" transform="translate(-419.217 -41.141)" fill="#98da91" fill-rule="evenodd"/>
      <g id="Group_86" data-name="Group 86" transform="translate(66.448 320.795)">
        <path id="Path_371" data-name="Path 371" d="M503.46,368.462a14.193,14.193,0,0,0,3.077,9.118,14.974,14.974,0,0,0,4.577,3.559c3.988,2.129,9.073,3.178,14.089,4.332h0l.074.016c21.66,4.18,40.516-.613,57.089-15.6.041-.037.074-.069.112-.108a14.373,14.373,0,0,0,3.142-4.68,7.643,7.643,0,0,0,.512-2.477,6.087,6.087,0,0,0-.091-1.258,5.619,5.619,0,0,0-.808-2.075,5.117,5.117,0,0,0-.6-.758c0-.28.027-.576.038-.752.056-.883.139-1.759.164-2.644a8.466,8.466,0,0,0-1.3-5.425c-1.427-1.895-3.689-2.321-5.929-2.092a2.106,2.106,0,0,0-1.874,1.7c-.484,2.393-4.9,4.067-6.912,4.592a23.372,23.372,0,0,1-6.212.73,6.583,6.583,0,0,0,.291-2.225c-.229-4.965-6.225-7.548-10.205-8.922a1.95,1.95,0,0,0-.242-.068c-3.769-.821-7.806-1.1-11.5.206a16.515,16.515,0,0,0-5.727,3.576c-1.28-.066-2.607-.084-4-.053-10.467.23-25.774,8.654-27.723,19.745a1.971,1.971,0,0,0-.031.308Q503.445,367.853,503.46,368.462Z" transform="translate(-503.453 -342.734)" fill="#212121" fill-rule="evenodd"/>
        <path id="Path_372" data-name="Path 372" d="M541.57,344.826c11.032,3.811,10.155,8.326,5.55,12.891-6.951-2.754-14.748-6.1-21.7-8.856C528.553,345.836,532.4,342.828,541.57,344.826Z" transform="translate(-493.03 -342.048)" fill="#c7252e" fill-rule="evenodd"/>
        <path id="Path_373" data-name="Path 373" d="M530.579,347.186c7.837-.184,13.776,1.014,22.919,5.877,10.025,3.977,22.542-.007,23.633-5.425,7.135-.728,4.162,7.316,4.767,9.863,1.505.945,2.812,4.034-1.65,8.7-17.984,16.264-37.051,18.6-55.255,15.09-12.346-2.841-20.417-4.717-20.083-16.122C506.716,354.891,521.513,347.371,530.579,347.186Z" transform="translate(-502.767 -340.63)" fill="#e62129" fill-rule="evenodd"/>
        <path id="Path_374" data-name="Path 374" d="M581.843,357.035a3.286,3.286,0,0,0,.056.33c1.505.945,2.812,4.034-1.65,8.7-17.984,16.264-37.051,18.6-55.255,15.09-12.346-2.841-20.417-4.717-20.083-16.122a12.9,12.9,0,0,1,.588-2.179c4.266-1.948,8.139-2.145,12.987-.879l.072.021c3.424,1.032,5.352,2.663,7.7,5.226a13.562,13.562,0,0,0,5.071,3.987c3.6,1.488,8.567,1.392,12.38,1.107,8.312-1.233,35.722-8.266,36.529-18.841.358-4.695-3.108-5.97-3.108-5.97,6.851-.7,4.385,6.688,4.712,9.531Z" transform="translate(-502.767 -340.493)" fill="#c7252e" fill-rule="evenodd"/>
        <path id="Path_375" data-name="Path 375" d="M581.988,354.216c1.466,1.01,2.633,4.068-1.74,8.639-17.984,16.264-37.051,18.6-55.255,15.09-12.208-2.81-20.236-4.676-20.09-15.746,3.329-1.8,6.986-3.071,13.073-1.48,9.67,2.917,5.575,11.936,25.958,10.4C557.488,369.113,571.1,364.822,581.988,354.216Z" transform="translate(-502.766 -337.286)" fill="#fbf3da" fill-rule="evenodd"/>
        <path id="Path_376" data-name="Path 376" d="M525.119,347.309c9.5-1.644,15.948,4.02,25.249,7.222C543.1,354.791,535.3,348.308,525.119,347.309Z" transform="translate(-493.173 -340.702)" fill="#212121" fill-rule="evenodd"/>
        <g id="Group_84" data-name="Group 84" transform="translate(19.097 7.89)">
          <path id="Path_377" data-name="Path 377" d="M517.6,352.515c-3.309-.95,1.007-3.3,3.862-2.517a34.459,34.459,0,0,1,15.085,9.121c1.756,1.924-2.1,4.052-3.67,2.286A53.137,53.137,0,0,0,517.6,352.515Z" transform="translate(-516.405 -347.252)" fill="#c7252e" fill-rule="evenodd"/>
          <path id="Path_378" data-name="Path 378" d="M521.8,350.76c-3.309-.95,1.006-3.3,3.86-2.517a34.458,34.458,0,0,1,15.085,9.121c1.756,1.924-2.1,4.052-3.67,2.285A53.154,53.154,0,0,0,521.8,350.76Z" transform="translate(-514.41 -348.085)" fill="#c7252e" fill-rule="evenodd"/>
        </g>
        <g id="Group_85" data-name="Group 85" transform="translate(18.645 6.949)">
          <path id="Path_379" data-name="Path 379" d="M517.366,352.427c-3.375-.681.737-3.372,3.646-2.821a34.481,34.481,0,0,1,15.768,7.881c1.905,1.777-1.771,4.208-3.474,2.573A53.129,53.129,0,0,0,517.366,352.427Z" transform="translate(-516.098 -346.457)" fill="#fbf3da" fill-rule="evenodd"/>
          <path id="Path_380" data-name="Path 380" d="M521.414,350.34c-3.374-.681.739-3.372,3.648-2.819a34.466,34.466,0,0,1,15.768,7.88c1.905,1.777-1.771,4.208-3.474,2.574A53.087,53.087,0,0,0,521.414,350.34Z" transform="translate(-514.177 -347.447)" fill="#fbf3da" fill-rule="evenodd"/>
        </g>
      </g>
      <path id="Path_381" data-name="Path 381" d="M484.939,295.122c1.547-13.039,7.921-25.728,15.708-36.115,8.971-11.965,22.235-23.938,36.3-29.448l.317-.124,41.46,1.032-.143,1.775c-.192,2.374-.31,4.776-.406,7.156-.209,5.171-.268,10.379-.059,15.55a72.829,72.829,0,0,0,1.685,14.219c.452,1.825,1.657,5.96,3.717,6.643a2.481,2.481,0,0,0,1.557-.062c4.732-1.529,7.6.87,8.449,5.485.383,2.088-1.9,5.347-3.08,6.912a55.289,55.289,0,0,1-9.658,9.652c-11.415,9.1-25.5,14.7-39.827,17.1-13.75,2.3-29.236,3.023-42.959.091-4.827-1.032-16.961-4.35-18-10.338a8.361,8.361,0,0,1,2.515-7.877A10.639,10.639,0,0,1,484.939,295.122Z" transform="translate(-448.203 -75.698)" fill="#b01c2e" fill-rule="evenodd"/>
      <path id="Path_382" data-name="Path 382" d="M485.962,295.752s-5.908,1.867-4.836,8.067,23.76,14.783,59.018,8.873,51.83-28.207,51.188-31.7-2.437-5.428-6.275-4.186c-12.662,4.095-8.692-45.243-8.692-45.243l-39.339-.98C514.412,239.438,488.7,268.238,485.962,295.752Z" transform="translate(-447.661 -75.154)" fill="#e62129" fill-rule="evenodd"/>
      <g id="Group_90" data-name="Group 90" transform="translate(33.335 155.428)">
        <g id="Group_89" data-name="Group 89" clip-path="url(#clip-path)">
          <g id="Group_88" data-name="Group 88" transform="translate(-2.935 15.391)">
            <g id="Group_87" data-name="Group 87">
              <path id="Path_383" data-name="Path 383" d="M507.583,258.78c-.363,1.463-.7,2.921-1.2,4.347a19.585,19.585,0,0,1-2.1,4.288l.062-.074a3.588,3.588,0,0,1,1.548-1.038A5.872,5.872,0,0,1,511,267.5a5.545,5.545,0,0,1,2.427,4.246,3.026,3.026,0,0,1-.037.553,48.077,48.077,0,0,1-1.031,5.1,21.761,21.761,0,0,1-1.194,3.477c-.891,1.952-2.286,3.837-4.5,4.325a5.342,5.342,0,0,1-4.533-1.206,29.957,29.957,0,0,0-7.622-3.362,85.139,85.139,0,0,1-8.133-2.9c-2.62-1.175-5.209-2.815-6.525-5.475a8.522,8.522,0,0,1-.712-5.283c.006-.034.01-.068.018-.1.45-2.378,1.414-5.047,4.176-5.439a3.931,3.931,0,0,1,.958-.018,4.857,4.857,0,0,1,1.072.239,8.645,8.645,0,0,1,1.29.579c.1.052.215.121.332.183a7.251,7.251,0,0,0,3.068-1.985q.248-.261.478-.538a17.776,17.776,0,0,0,3.086-6.23,23.736,23.736,0,0,0,.625-2.654,5.462,5.462,0,0,1-.805-1.069,6.408,6.408,0,0,1-.761-3.471c.1-2.141,1.177-4.426,3.338-5.112,2.1-.907,4.362.164,6.163,1.265a53.967,53.967,0,0,1,5.447,3.977c1.277,1.02,2.538,2.06,3.82,3.071.043.034.084.069.125.106a4.156,4.156,0,0,1,1.278,2.025C513.756,255.039,510.722,258.954,507.583,258.78Z" transform="translate(-479.006 -241.02)" fill="#fefefe" fill-rule="evenodd"/>
              <path id="Path_384" data-name="Path 384" d="M506.211,255.051c-.223-.149-.6-.463-.866-.351-.516.223-.834,1.441-.964,1.923-.4,1.47-.684,2.922-1.166,4.378a15.281,15.281,0,0,1-7.74,9.258l.712.457a15.878,15.878,0,0,0,3.054,1.668,2.794,2.794,0,0,0,1.607.091,5.007,5.007,0,0,0,2-1.162,18.972,18.972,0,0,0,2.507-2.942c.83-1.47,4.571.526,4.618,2.588a.428.428,0,0,1-.006.1,45.816,45.816,0,0,1-.973,4.825c-.488,1.831-1.582,5.448-3.729,5.923a2.824,2.824,0,0,1-2.393-.74,32.005,32.005,0,0,0-8.375-3.756c-2.623-.871-5.364-1.669-7.885-2.8-2.016-.905-4.238-2.2-5.254-4.251a5.968,5.968,0,0,1-.469-3.738c.2-1.082.619-3.147,1.976-3.34,1.24-.175,2.4,1.312,3.475,1.053a9.665,9.665,0,0,0,4.768-2.837q.312-.327.6-.677a20.447,20.447,0,0,0,3.624-7.309,25.867,25.867,0,0,0,.687-3.024,9.748,9.748,0,0,0,.158-1.354c-.117-.091-.348-.227-.444-.295a2.918,2.918,0,0,1-.866-.935,3.855,3.855,0,0,1-.417-2.047c.05-1.037.494-2.518,1.647-2.782,1.125-.6,2.952.472,3.881,1.04a51.95,51.95,0,0,1,5.18,3.789c1.281,1.022,2.545,2.064,3.832,3.08l.022.019C510.768,252.444,507.9,256.338,506.211,255.051Z" transform="translate(-478.164 -240.178)" fill="#fddc00" fill-rule="evenodd"/>
            </g>
          </g>
        </g>
      </g>
      <path id="Path_386" data-name="Path 386" d="M484.366,276.66h0q1.185.754,2.485,1.455c12.765,6.85,36.023,4.26,36.023,4.26s-21.777,1.761-37.588-11.56A54,54,0,0,0,484.366,276.66Z" transform="translate(-446.064 -56.063)" fill="#c7252e" fill-rule="evenodd"/>
      <g id="Group_97" data-name="Group 97" transform="translate(0 0)">
        <g id="Group_91" data-name="Group 91" transform="translate(145.372)">
          <path id="Path_387" data-name="Path 387" d="M557.306,143.151a2.8,2.8,0,0,0-.3.927c-.4,2.922,3.651,5.479,6.019,6.492,3.006,1.287,7.945,2.182,9.7-1.336,1.408-2.819,1.954-5.655,2.768-8.643,1.07-3.931,2.488-6.74,5.736-9.45.159-.134.314-.274.461-.419,1.056-1.034,2.527-3.16,1.548-4.636-.767-1.153-2.406-1-3.58-.711l-.037.01C569.539,128.276,561.789,133.943,557.306,143.151Z" transform="translate(-556.979 -125.171)" fill="#e8d4bf" fill-rule="evenodd"/>
          <path id="Path_388" data-name="Path 388" d="M557.842,143.278c4.061-8.343,11.121-14.269,21.755-17.316,4.1-1,2.874,2.362.709,4.207-6.923,5.74-5.577,11.949-8.731,18.381C568.88,153.831,555.75,147.237,557.842,143.278Z" transform="translate(-556.677 -124.882)" fill="#f0eada" fill-rule="evenodd"/>
          <path id="Path_389" data-name="Path 389" d="M565.217,131.584q.555-.431,1.137-.842c3.016.463,6.115,1.14,8.077,2.589a39.452,39.452,0,0,0-9.214-1.747Zm6.514-3.95q.433-.2.879-.4a12.8,12.8,0,0,1,3.859,3.151,49.43,49.43,0,0,0-4.737-2.753Zm.321,14.5c-.123.481-.251.966-.388,1.451-2.467-2.821-6.538-4.979-10.9-6.548A15.857,15.857,0,0,1,572.053,142.13Z" transform="translate(-555.184 -124.191)" fill="#e8d4bf" fill-rule="evenodd"/>
        </g>
        <g id="Group_92" data-name="Group 92" transform="translate(145.055 11.898)">
          <path id="Path_390" data-name="Path 390" d="M576.289,139.01s-.174-4.351-7.7-5.581a12.728,12.728,0,0,0-11.69,3.96l14.387,3.875Z" transform="translate(-556.702 -133.24)" fill="#337321" fill-rule="evenodd"/>
          <path id="Path_391" data-name="Path 391" d="M576.155,139.191s-.3-3.86-7.831-5.09a12.773,12.773,0,0,0-11.559,3.469l14.385,3.875Z" transform="translate(-556.765 -132.929)" fill="#0db02b" fill-rule="evenodd"/>
        </g>
        <path id="Path_392" data-name="Path 392" d="M594.79,157.793a5.325,5.325,0,0,1-4.516,1.051l0,.041-8.335-.588.1.111C589.987,166.96,597,164.026,594.79,157.793Z" transform="translate(-399.767 -109.692)" fill="#337321" fill-rule="evenodd"/>
        <path id="Path_393" data-name="Path 393" d="M459.79,166.646c2.114-5.164,5.913-6.345,8.152-3.127,2.1,3.085.535,8.8-2.678,11.61C461.392,178.231,458.07,171.242,459.79,166.646Z" transform="translate(-457.944 -107.822)" fill="#337321" fill-rule="evenodd"/>
        <path id="Path_394" data-name="Path 394" d="M489.6,208.511c3.247-.262,1.909-4.976,1.483-6.88a.563.563,0,0,0-.56-.432c-.382,0-.826-.047-1.212-.069-.753-.044-1.508-.08-2.263-.093-.868-.016-4.367-.2-4.093,1.293a.5.5,0,0,0,.074.189c1.42,2.257,3.337,5.969,6.52,5.994Z" transform="translate(-446.741 -89.18)" fill="#e8d4bf" fill-rule="evenodd"/>
        <path id="Path_395" data-name="Path 395" d="M490.346,201.563c-.6,0-7.228-.615-7.023.5,1.28,2.033,3.164,5.708,6.038,5.73C491.641,207.61,491.031,204.607,490.346,201.563Z" transform="translate(-446.559 -89.003)" fill="#fef3d8" fill-rule="evenodd"/>
        <path id="Path_396" data-name="Path 396" d="M564.882,195.8c12.558,1.538,22.634,12.737,27.188,20.4,7.179,15.671-28.356,13.412-36.952,19.817C555.118,236.019,564.522,196,564.882,195.8Z" transform="translate(-412.491 -91.655)" fill="#337321" fill-rule="evenodd"/>
        <path id="Path_397" data-name="Path 397" d="M568.952,202.431c18.841,9.537,15.871,17.853,6.833,20.441C578.137,219.507,587.336,216.408,568.952,202.431Z" transform="translate(-405.927 -88.511)" fill="#54c247" fill-rule="evenodd"/>
        <path id="Path_398" data-name="Path 398" d="M571.566,178.611c12.56,1.536,22.633,12.735,27.19,20.4,7.179,15.671-28.358,13.412-36.954,19.817C561.8,218.825,571.208,178.809,571.566,178.611Z" transform="translate(-409.32 -99.814)" fill="#337321" fill-rule="evenodd"/>
        <path id="Path_399" data-name="Path 399" d="M577.383,184.9c17.361,11.8,13.278,19.639,3.968,21.053C584.143,202.929,593.68,201.029,577.383,184.9Z" transform="translate(-401.926 -96.829)" fill="#54c247" fill-rule="evenodd"/>
        <path id="Path_400" data-name="Path 400" d="M557.533,156.45c11-13.638,38.753-17.828,49.5-19.434,20.37-.836-9.3,41.936-9.732,54.78C597.306,191.8,557.449,156.952,557.533,156.45Z" transform="translate(-411.345 -119.556)" fill="#337321" fill-rule="evenodd"/>
        <path id="Path_401" data-name="Path 401" d="M583.931,156.027c12.558,1.536,23.638,12.452,27.188,20.4,7.181,15.671-28.356,13.412-36.952,19.817C574.167,196.241,583.573,156.225,583.931,156.027Z" transform="translate(-403.452 -110.53)" fill="#337321" fill-rule="evenodd"/>
        <path id="Path_402" data-name="Path 402" d="M590.571,162.048c17.016,13.27,12.253,21.053,2.575,21.89C596.235,181.014,606.183,179.693,590.571,162.048Z" transform="translate(-395.669 -107.673)" fill="#0db02b" fill-rule="evenodd"/>
        <path id="Path_403" data-name="Path 403" d="M573.179,146.344c24.176-9.792,36.326-12.6,29.087,6.349C606.138,135.718,592.44,140.722,573.179,146.344Z" transform="translate(-403.921 -118.751)" fill="#0db02b" fill-rule="evenodd"/>
        <path id="Path_404" data-name="Path 404" d="M631.182,145.205a21.408,21.408,0,0,0-13.254-10.293c-13.635-3.52-29.816,6.118-36.047,17.48-2.021,2.372-4.092,4.733-6.268,6.974a42.656,42.656,0,0,1-4.53,4.16c-1.1.842-2.866,2.1-4.4,1.836-1.351-.234-3.5-1.718-4.692-2.417-11.323-6.634-28.646-9.653-41.676-10.1-14.444-.494-33.526,1.764-44.216,12.341l-.127-.112-1.632.986a33.374,33.374,0,0,0-14.95,19.646c-1.908,7.048-1.311,15.221,3.63,21.125l1.085,1.3.653-.195c1.034,7.257,4.062,13.987,10.447,19.012,8.638,6.8,21.045,8.567,31.8,9.183,5.712.327,11.424.336,17.141.41,3.341.043,6.856.075,10.273.352a55.176,55.176,0,0,1-6.7,5.91c-3.565,2.917-7.768,6.536-8.738,11.155a10.989,10.989,0,0,0,2.138,8.694l.046.066.1.125.055.06a17.756,17.756,0,0,0,4.5,3.533c5.422,3,12.347,3.242,18.427,3.436,7.213.227,14.17.369,21.211,2.231a69.073,69.073,0,0,0,28.642,1.623c10.821-1.852,20.118-6.861,26.373-15.649,5.737-8.058,7.514-15.585,9.171-25.031l.016-.094.018-.19v-.1c.059-6.762-.376-14.891,2.221-21.233a18.427,18.427,0,0,1,4.515-6.575c9.067-8.487,16.508-19.736,17.682-32.141.835-8.81-1.777-18.468-9.667-23.873A21.657,21.657,0,0,0,631.182,145.205Z" transform="translate(-458.388 -120.898)" fill="#337321" fill-rule="evenodd"/>
        <path id="Path_405" data-name="Path 405" d="M583.189,152.965C568,170.818,566.355,168.006,559.9,164.222c-20.29-11.887-73.455-16.644-86.918,7.265a36.771,36.771,0,0,1,1.915-4.158c-14.508,8.766-18.912,27.439-10.724,37.224a17.883,17.883,0,0,1,2.026-7.728c-3.334,45.3,48.838,33.963,71.454,37.313-2.29,8.248-23.549,14.569-15.252,26.4,8.691,9.468,25.254,3.736,42.9,8.458,16.073,4.207,39.931,4.3,52.291-13.076,5.833-8.181,7.318-15.8,8.772-24.081.094-11.022-.652-21.874,7.483-29.5,28.12-26.32,18.008-57.831-4.911-55.386C618.509,126.549,591.427,137.583,583.189,152.965Z" transform="translate(-457.582 -120.118)" fill="#54c247" fill-rule="evenodd"/>
        <path id="Path_406" data-name="Path 406" d="M560.4,138.829c-1.753-3.3-17.451-6.738-10.846,4.471C551.5,144.629,562.507,143.179,560.4,138.829Z" transform="translate(-415.895 -120.213)" fill="#337321" fill-rule="evenodd"/>
        <path id="Path_407" data-name="Path 407" d="M573.015,242.887a76.424,76.424,0,0,0,3.517-14.282l0-.516h0l0-.516,0-.516v-1.031l0-.513V225h0l0-.513h0v-.512l0-.512h0l0-.509,0-.51.007-.507.007-.507h0l.01-.506.012-.5h0l.015-.5.018-.5h0l.021-.5.022-.5.026-.5.03-.5c.01-.164.021-.329.032-.492h0l.037-.492c.013-.162.026-.326.041-.488s.029-.326.046-.488.033-.324.05-.485h0c.018-.162.035-.323.055-.484s.038-.321.059-.482.043-.318.065-.478h0l.071-.476c.025-.159.05-.317.077-.475s.053-.314.081-.472h0c.029-.156.057-.313.088-.469s.062-.311.094-.466h0c.032-.155.066-.31.1-.464h0c.035-.153.071-.308.109-.46s.075-.307.114-.459.08-.3.122-.456.086-.3.13-.451.09-.3.137-.45.094-.3.145-.445.1-.3.153-.444.106-.293.161-.439.112-.292.169-.436.118-.289.18-.432.124-.288.187-.431.13-.283.2-.425.135-.282.206-.423.142-.28.215-.419h0c.074-.139.149-.277.227-.414s.155-.274.236-.411.162-.271.246-.407h0q.126-.2.257-.4h0c.088-.134.177-.267.268-.4h0c.09-.133.184-.264.279-.4s.192-.261.289-.391h0c.1-.128.2-.258.3-.386h0c.1-.128.206-.255.312-.382s.215-.254.326-.377.223-.251.336-.374h0c.113-.124.23-.246.348-.369h0c.118-.122.239-.243.361-.364h0c.124-.121.248-.24.375-.36h0l.029-.028c.379-.355.749-.711,1.115-1.069l.26-.254q.54-.533,1.06-1.069l.186-.193q.473-.493.93-.985l.181-.195q.491-.537.963-1.073l.231-.267q.48-.551.939-1.1l.041-.05c.295-.355.583-.714.864-1.07l.209-.265q.42-.538.821-1.075l.164-.221c.243-.33.482-.662.717-.992l.128-.18q.378-.542.74-1.085l.18-.271c.242-.369.479-.736.708-1.1l.049-.081c.218-.351.431-.7.637-1.054l.144-.248c.208-.357.408-.714.6-1.069l.143-.264q.255-.473.5-.947l.1-.192c.181-.357.355-.712.523-1.069l.134-.283c.165-.354.327-.709.482-1.062l.069-.164c.139-.32.271-.64.4-.96l.1-.261c.14-.348.273-.7.4-1.045l.09-.246c.112-.311.221-.624.324-.933l.065-.192c.112-.341.217-.681.318-1.02l.09-.3c.1-.335.19-.668.277-1l.058-.23c.074-.283.142-.566.206-.848l.068-.29c.071-.321.139-.644.2-.964l.058-.3c.052-.277.1-.554.144-.83.012-.072.025-.143.035-.214.05-.32.093-.637.133-.954l.038-.31q.055-.464.1-.924c.009-.1.015-.192.022-.286.019-.239.037-.478.05-.714.007-.109.013-.218.019-.326.013-.295.024-.587.029-.879,0-.108,0-.214,0-.32,0-.243,0-.485,0-.725,0-.1,0-.206,0-.31-.007-.264-.018-.525-.031-.784l-.018-.335c-.018-.277-.038-.551-.063-.823-.009-.106-.021-.211-.031-.317-.022-.2-.044-.4-.069-.6-.013-.114-.028-.227-.043-.341q-.053-.383-.117-.759c-.019-.124-.043-.245-.065-.366-.034-.19-.071-.379-.109-.566-.029-.149-.06-.3-.094-.442-.041-.192-.087-.382-.134-.571q-.044-.186-.093-.367c-.062-.236-.125-.469-.195-.7-.032-.111-.068-.22-.1-.33-.049-.156-.1-.311-.15-.466-.04-.118-.078-.237-.119-.354-.078-.22-.158-.435-.24-.65-.047-.119-.094-.237-.143-.355-.056-.142-.116-.282-.177-.422-.074-.175-.152-.347-.23-.518-.062-.136-.125-.271-.19-.4s-.118-.24-.178-.36c-.087-.171-.175-.339-.267-.507l-.034-.063c-2.377.074-6.982-1.955-9.428-1.989a3.325,3.325,0,0,0-3.385,4.291c-1,8.242,11.993,13.654,6.666,23.119-20.205,33.437-28.761,21.163-19.039,64.127Zm24.46-90.762c-10.9-8.832-15.693-6.062-32.365-9.5,4.717.852,9.35.572,13.75.638.081.152.164.3.243.456,6.432-.687,11.855,1.3,15.708,5.1l.114.116c.04.04.08.083.12.124a23.118,23.118,0,0,1,2.43,3.061Z" transform="translate(-407.75 -116.887)" fill="#0db02b" fill-rule="evenodd"/>
        <path id="Path_408" data-name="Path 408" d="M513.886,206.413c-6.538,5.867-17.194,11.662-10.936,20.609l.006.009.006.009.093.1c8.716,9.328,25.223,3.657,42.81,8.36,16.073,4.207,39.931,4.3,52.291-13.076a43.351,43.351,0,0,0,3.639-6.075c-9.127,11.852-16.017,19.438-42.176,12.866-16.631-4.649-36.187,4.44-48.863-.669C500.866,223.725,508.283,214.857,513.886,206.413Z" transform="translate(-438.146 -86.622)" fill="#0db02b" fill-rule="evenodd"/>
        <path id="Path_409" data-name="Path 409" d="M541.6,153.038c-4.568,4.544-7.3,5.985-9.637,5.863,8.76,8.465,13.45,15.352,17.576,20.1,7.182,7.765,21.637,22.6,37.322,4.549C571.242,172.333,556.83,163.489,541.6,153.038Z" transform="translate(-423.478 -111.948)" fill="#0db02b" fill-rule="evenodd"/>
        <path id="Path_410" data-name="Path 410" d="M542.021,206.754c-13.487,12.288-30.072,20.691-30.861,19.04,22.105,5.214,48.183-14.452,50.379-34.373C562.248,193.074,546.073,205.179,542.021,206.754Z" transform="translate(-433.349 -93.735)" fill="#0db02b" fill-rule="evenodd"/>
        <path id="Path_411" data-name="Path 411" d="M478.064,171.361c2.745-2.3,5.246-1.907,5.547.512.259,2.3-2.341,5.062-5,5.743C475.49,178.275,475.712,173.453,478.064,171.361Z" transform="translate(-449.897 -103.979)" fill="#337321" fill-rule="evenodd"/>
        <path id="Path_412" data-name="Path 412" d="M546.2,201.28c-4.18,15.929-17.395,32.838-39.465,26.028-8.2-4.761,6.16-18.419,7.426-24.273C529.757,204.382,537.676,209.36,546.2,201.28Z" transform="translate(-436.642 -89.057)" fill="#264631" fill-rule="evenodd"/>
        <path id="Path_413" data-name="Path 413" d="M540.519,206.006c-1,2.9-1.545,6.792-5.434,10.478-7.917,7.681-13.548,9.935-23.9,9.661-4.044-1.249-7.451-2.282-3.471-9.285,6.97-9.664,23.144-11.92,31.694-12.66-6.215,1.827-11.072,4.339-14.154,8.452C530.754,208.27,535.9,205.735,540.519,206.006Z" transform="translate(-435.823 -87.672)" fill="#ba122b" fill-rule="evenodd"/>
        <path id="Path_414" data-name="Path 414" d="M478.912,168.583c5.532-1.048,7.6,1.051,6.149,5.722C488.962,169.04,483.75,165.769,478.912,168.583Z" transform="translate(-448.65 -105.062)" fill="#337321" fill-rule="evenodd"/>
        <path id="Path_415" data-name="Path 415" d="M461.073,164.8c3.609-2.962,6.026-2.218,6.961,1.824C468.642,161.174,463.417,160.8,461.073,164.8Z" transform="translate(-457.115 -107.638)" fill="#337321" fill-rule="evenodd"/>
        <path id="Path_416" data-name="Path 416" d="M581.87,153.071a2.885,2.885,0,0,0-.691.7c-1.687,2.446.813,6.432,2.495,8.329,2.137,2.412,6.2,5.28,9.385,2.869a46.318,46.318,0,0,0,6.432-6.576,17.679,17.679,0,0,1,9.484-6.054c.205-.052.409-.112.609-.181,1.424-.482,3.722-1.769,3.506-3.5-.168-1.354-1.724-1.9-2.917-2.135l-.038-.007C599.714,144.886,590.1,146.717,581.87,153.071Z" transform="translate(-400.392 -115.308)" fill="#e8d4bf" fill-rule="evenodd"/>
        <path id="Path_417" data-name="Path 417" d="M582.136,153.5c7.465-5.764,16.547-8.11,27.552-6.382,4.17.821,1.528,3.318-1.269,4.061-8.872,2.237-10.475,8.356-16.252,12.791C587.329,167.57,578.443,156.169,582.136,153.5Z" transform="translate(-400.087 -115.019)" fill="#f2e8c7" fill-rule="evenodd"/>
        <path id="Path_418" data-name="Path 418" d="M592.78,147.373q.7-.153,1.411-.277c2.518,1.678,5.015,3.582,6.131,5.7a38.279,38.279,0,0,0-7.542-5.425Zm7.688-.807c.324,0,.649,0,.976.013a12.115,12.115,0,0,1,2.06,4.435,46.755,46.755,0,0,0-3.036-4.449Zm-6.294,13.105a15.174,15.174,0,0,0-7.9-9.289c3.235,3.234,5.938,6.868,6.889,10.428Q593.679,160.243,594.174,159.671Z" transform="translate(-397.707 -115.019)" fill="#e8d4bf" fill-rule="evenodd"/>
        <path id="Path_419" data-name="Path 419" d="M480.074,156.768c-.734,5.708,27.79-8.571,45.61-2.159C512.344,146.569,480.683,151.546,480.074,156.768Z" transform="translate(-448.105 -113.208)" fill="#a1de9a" fill-rule="evenodd"/>
        <path id="Path_420" data-name="Path 420" d="M541.323,189.4c5.11,2.572,7.123,2.316,9.533,9.4C551.242,191.408,548.212,189.926,541.323,189.4Z" transform="translate(-419.037 -94.695)" fill="#337321" fill-rule="evenodd"/>
        <path id="Path_421" data-name="Path 421" d="M460.125,166.94c1.989-4.854,5.56-5.964,7.667-2.94,1.974,2.9.5,8.273-2.52,10.917C461.632,177.834,458.511,171.262,460.125,166.94Z" transform="translate(-457.771 -107.543)" fill="#54c247" fill-rule="evenodd"/>
        <path id="Path_422" data-name="Path 422" d="M460.766,167.18c1.334-3.26,3.733-4,5.149-1.974,1.327,1.949.338,5.557-1.691,7.333C461.778,174.5,459.681,170.083,460.766,167.18Z" transform="translate(-457.399 -106.709)" fill="#337321" fill-rule="evenodd"/>
        <path id="Path_423" data-name="Path 423" d="M595.688,162.2s-4.115,2.364-9.033-2.93-2.309-9.129-1-9.586c-11.466-2.918-7.49,6.618-2.042,12.392C591.369,170.3,596.723,168.326,595.688,162.2Z" transform="translate(-401.507 -113.796)" fill="#54c247" fill-rule="evenodd"/>
        <path id="Path_424" data-name="Path 424" d="M584.544,150.3c7.909,5.6,7.809,18.679-.224,29.205a24.124,24.124,0,0,1-18.52,11.6c-3.017-5.341-8.484-11.309-15.271-16.783.221-7.114,1.886-9.739,5.15-15.112C563.712,148.682,576.636,144.691,584.544,150.3Z" transform="translate(-414.668 -114.453)" fill="#337321" fill-rule="evenodd"/>
        <path id="Path_425" data-name="Path 425" d="M582.685,151.128c7.314,5.183,7.221,17.277-.208,27.011-4.039,6.722-11.441,10.721-18.034,10.761A66.229,66.229,0,0,0,551.2,174.646c.04-7.582,1.578-9.99,4.788-15.274C563.418,149.636,575.37,145.945,582.685,151.128Z" transform="translate(-414.35 -113.967)" fill="#fff" fill-rule="evenodd"/>
        <g id="Group_93" data-name="Group 93" transform="translate(142.182 43.776)">
          <path id="Path_426" data-name="Path 426" d="M577.261,156.717c5.215,3.7,5.149,12.316-.148,19.257-5.846,9.733-21.591,11.466-22.3-2.219-.009-5.621,1.087-7.331,3.413-11.16C563.526,155.654,572.047,153.022,577.261,156.717Z" transform="translate(-554.816 -154.772)" fill="#54c247" fill-rule="evenodd"/>
          <path id="Path_427" data-name="Path 427" d="M575.9,158.722c4.469,3.166,4.412,10.556-.127,16.5-5.01,8.341-18.5,9.827-19.111-1.9-.007-4.817.932-6.283,2.925-9.565C564.128,157.81,571.432,155.555,575.9,158.722Z" transform="translate(-553.939 -153.707)" fill="#212121" fill-rule="evenodd"/>
          <path id="Path_428" data-name="Path 428" d="M569.52,156.891c1.585,1.124,1.564,3.745-.046,5.855-1.778,2.959-6.564,3.487-6.78-.675a5.14,5.14,0,0,1,1.038-3.393C565.343,156.568,567.934,155.767,569.52,156.891Z" transform="translate(-551.077 -154.137)" fill="#fefefe" fill-rule="evenodd"/>
          <path id="Path_429" data-name="Path 429" d="M565.854,155.155c.923.655.911,2.182-.027,3.411-1.035,1.724-3.823,2.03-3.949-.392a3,3,0,0,1,.6-1.977C563.421,154.968,564.931,154.5,565.854,155.155Z" transform="translate(-551.465 -154.86)" fill="#fefefe" fill-rule="evenodd"/>
          <path id="Path_430" data-name="Path 430" d="M566.365,163.781a1.625,1.625,0,0,1-.018,2.3c-.7,1.162-2.578,1.368-2.662-.265a2.018,2.018,0,0,1,.407-1.331A1.768,1.768,0,0,1,566.365,163.781Z" transform="translate(-550.607 -150.721)" fill="#fefefe" fill-rule="evenodd"/>
        </g>
        <path id="Path_431" data-name="Path 431" d="M560.646,139.677c-1.725-3.247-16.464-6.952-10.681,4.4C551.844,145.4,563.021,141.406,560.646,139.677Z" transform="translate(-415.571 -119.843)" fill="#54c247" fill-rule="evenodd"/>
        <g id="Group_95" data-name="Group 95" transform="translate(110.211 17.979)">
          <path id="Path_432" data-name="Path 432" d="M560.227,139.021c7.044,4.239,7.841,15.286,1.78,24.673a20.651,20.651,0,0,1-10.941,9.944,88.536,88.536,0,0,0-17.49-8.971c-.119-.547-.22-1.116-.3-1.712-.586-7.2.64-9.491,3.222-14.614C542.561,138.955,553.183,134.782,560.227,139.021Z" transform="translate(-533.133 -137.364)" fill="#337321" fill-rule="evenodd"/>
          <path id="Path_433" data-name="Path 433" d="M559.053,139.841c6.522,3.925,7.259,14.151,1.648,22.841a19.031,19.031,0,0,1-11.392,9.633,88.927,88.927,0,0,0-14.624-7.518,18.286,18.286,0,0,1-.582-2.8c-.541-6.663.593-8.786,2.983-13.528C542.7,139.779,552.533,135.916,559.053,139.841Z" transform="translate(-532.736 -136.917)" fill="#fff" fill-rule="evenodd"/>
          <g id="Group_94" data-name="Group 94" transform="translate(5.083 6.737)">
            <path id="Path_434" data-name="Path 434" d="M556.659,143.161c5.221,3.142,5.813,11.328,1.32,18.285a14.9,14.9,0,0,1-11.487,8.169,91.569,91.569,0,0,0-8.617-4.623,12.922,12.922,0,0,1-1.188-4.095c-.434-5.333.475-7.033,2.389-10.83C543.567,143.111,551.44,140.019,556.659,143.161Z" transform="translate(-536.581 -141.933)" fill="#54c247" fill-rule="evenodd"/>
            <path id="Path_435" data-name="Path 435" d="M555.583,145.1c4.475,2.694,4.981,9.71,1.131,15.672-2.583,5.189-8.536,8.046-12.973,6.715q-1.265-.728-2.552-1.416a9,9,0,0,1-2.725-5.77c-.37-4.571.407-6.028,2.048-9.282C544.362,145.06,551.109,142.41,555.583,145.1Z" transform="translate(-535.73 -140.928)" fill="#212121" fill-rule="evenodd"/>
            <path id="Path_436" data-name="Path 436" d="M549.633,143.6c1.588.955,1.766,3.444.4,5.56-1.46,2.931-5.954,3.766-6.474-.168a4.883,4.883,0,0,1,.727-3.293C545.652,143.58,548.046,142.641,549.633,143.6Z" transform="translate(-533.285 -141.321)" fill="#fefefe" fill-rule="evenodd"/>
            <path id="Path_437" data-name="Path 437" d="M546.082,142.156c.924.556,1.029,2.005.233,3.238-.849,1.707-3.468,2.194-3.769-.1a2.83,2.83,0,0,1,.422-1.917C543.764,142.147,545.158,141.6,546.082,142.156Z" transform="translate(-533.76 -141.93)" fill="#fefefe" fill-rule="evenodd"/>
            <path id="Path_438" data-name="Path 438" d="M547.244,150.283a1.55,1.55,0,0,1,.158,2.182c-.574,1.152-2.337,1.48-2.541-.065a1.9,1.9,0,0,1,.285-1.292A1.67,1.67,0,0,1,547.244,150.283Z" transform="translate(-532.658 -138.04)" fill="#fefefe" fill-rule="evenodd"/>
          </g>
        </g>
        <path id="Path_439" data-name="Path 439" d="M578.633,193.261c-2.812-11.519-22.275-29.018-42.408-36.592-1.762,1.93-7.33-4.954-8.051-.93,7.725,5.954,20.211,17.85,23.527,23.831-1.876-6.286-4.521-10.094-9.86-16.032C555.774,171.109,569.8,180.011,578.633,193.261Z" transform="translate(-425.276 -111.277)" fill="#337321" fill-rule="evenodd"/>
        <g id="Group_96" data-name="Group 96" transform="translate(78.231 115.573)">
          <path id="Path_440" data-name="Path 440" d="M512.342,203.552c-.69,1.98-1.98,6.314.873,6.932a.293.293,0,0,0,.052.009c2.827.357,6.156-2.937,7.821-4.937A73.695,73.695,0,0,1,512.342,203.552Z" transform="translate(-511.445 -203.552)" fill="#e8d4bf" fill-rule="evenodd"/>
          <path id="Path_441" data-name="Path 441" d="M520.268,205.4c-1.545,1.8-4.637,4.819-7.115,4.506-2.019-.438-1.376-3.577-.45-6.249A74.032,74.032,0,0,0,520.268,205.4Z" transform="translate(-511.266 -203.502)" fill="#f2e8c7" fill-rule="evenodd"/>
        </g>
        <path id="Path_442" data-name="Path 442" d="M568.332,190.906c-21.78,20.361-34.795,21.646-68.825,12.327C541.546,223.538,562.059,201.154,568.332,190.906Z" transform="translate(-438.878 -93.98)" fill="#337321" fill-rule="evenodd"/>
      </g>
      <path id="Path_443" data-name="Path 443" d="M506.94,251.041c.795-.025,2.967-1.371,3.586-1.775a46.641,46.641,0,0,0,4.2-3.1l.908-.752,13,8.487-1.15,1.379c-1.634,1.961-3.2,4.045-4.7,6.109a13.137,13.137,0,0,1-9,5.587,18.485,18.485,0,0,1-7.654-.7,36.637,36.637,0,0,1-9.409-4.437,39.568,39.568,0,0,1-4.058-2.921l-.571-.479-.015-16.3,2.44,1.507q3.2,1.98,6.429,3.925c1.244.749,2.492,1.5,3.747,2.225C505.411,250.205,506.19,250.679,506.94,251.041Z" transform="translate(-442.402 -69.674)" fill="#337321" fill-rule="evenodd"/>
      <path id="Path_444" data-name="Path 444" d="M557.9,287.772c17.664,6.259,27.077,6.243,38.76-.883C584.172,301.652,569,295.658,557.9,287.772Z" transform="translate(-411.173 -48.437)" fill="#98da91" fill-rule="evenodd"/>
      <path id="Path_445" data-name="Path 445" d="M538.188,264.446a6.148,6.148,0,0,1-3.089,5.233c-2.869,1.759-7.134,1.128-10.137.066a11.61,11.61,0,0,1-3.208-1.447c-9.421,11.79-28.443-3.947-28.443-3.947l-.012-12.689s10.643,6.578,12.684,7.538c1.147.541,3.975-1.156,6.228-2.743a15.865,15.865,0,0,1-.419-6.206c.345-2.561,1.616-6.04,4.187-7.141a7.93,7.93,0,0,1,2.143-.587,20.35,20.35,0,0,1,10.476-7,12.975,12.975,0,0,1,11.249-.382c5.289,2.278,7.387,6.01,7.461,10.146C548.511,250.615,546.286,257.449,538.188,264.446Z" transform="translate(-441.824 -73.514)" fill-rule="evenodd" opacity="0.1"/>
      <g id="Group_99" data-name="Group 99" transform="translate(51.278 157.701)">
        <path id="Path_446" data-name="Path 446" d="M515.232,246.469s-7.345,6.1-9.385,5.145-12.682-7.538-12.682-7.538l.012,12.688s18.506,15.568,27.8,2.759c2.685-3.7,4.766-6.193,4.766-6.193Z" transform="translate(-493.165 -226.452)" fill="#54c247" fill-rule="evenodd"/>
        <g id="Group_98" data-name="Group 98" transform="translate(18.356)">
          <path id="Path_447" data-name="Path 447" d="M532.146,262.24a6.144,6.144,0,0,1-3.087,5.232c-2.869,1.759-7.133,1.129-10.137.068a20.784,20.784,0,0,1-10.332-7.956,16.921,16.921,0,0,1-2.84-11.539c.345-2.56,1.616-6.039,4.188-7.141a7.954,7.954,0,0,1,2.144-.587C527.581,221.493,556.581,241.126,532.146,262.24Z" transform="translate(-505.614 -231.832)" fill="#b01c2e" fill-rule="evenodd"/>
          <path id="Path_448" data-name="Path 448" d="M512.521,241.844c3.779-4.715,11.4-12.642,20.749-8.617,13.648,5.88,6.06,21.435-2.779,28.639a4.684,4.684,0,0,1-2.35,4.68c-3.916,2.4-13.7-.093-18.642-7.544s-2.306-15.366.664-16.637A6.21,6.21,0,0,1,512.521,241.844Z" transform="translate(-505.08 -232.123)" fill="#e62129" fill-rule="evenodd"/>
        </g>
      </g>
      <g id="Group_102" data-name="Group 102" transform="translate(0.421 129.372)">
        <path id="Path_449" data-name="Path 449" d="M501.679,274.427c-15.081,3.732-26.389-2.772-36.1-11.106-8.4-7.2-9.379-18.666-1.6-22.456-.593-2.5,1.706-4.28,3.508-6.8-6.177-13.682,7.857-29.592,23.261-15.92a30.5,30.5,0,0,1,5.367,4.914c9.354-11.373,27.754,7.51,21.909,27.964C514.339,263.1,508.1,271.9,501.679,274.427Z" transform="translate(-458.674 -212.911)" fill="#595959" fill-rule="evenodd"/>
        <path id="Path_450" data-name="Path 450" d="M502.28,272.644c-15.081,3.73-26.389-2.773-36.1-11.106-7.58-6.5-8.2-15.731-2.535-20.258a23.848,23.848,0,0,0,3.472,7.064,42.968,42.968,0,0,1-1.806-7.471c-.388-1.83.751-4.721,2.38-7.145a23.9,23.9,0,0,0,5.457,4.786,50.278,50.278,0,0,1-5.552-7.89c.037.118.075.234.115.352-4.4-12.978,7.891-24.084,22.639-10.994a38.434,38.434,0,0,1,3.3,2.734c-3.5-1.827-8.278-2.958-14.5-3.3,7.135,2.067,15.475,4.378,20.374,8.673a13.026,13.026,0,0,0-3.32-3.753c9.4-10.245,24.5,6.06,18.751,26.163C511.269,262.588,508.7,270.115,502.28,272.644Z" transform="translate(-458.105 -212.338)" fill="#fff" fill-rule="evenodd"/>
        <g id="Group_100" data-name="Group 100" transform="translate(39.932 44.603)">
          <path id="Path_451" data-name="Path 451" d="M494.665,263.177c8.5-1.737,13.216-9.419,15.227-16.424.265-2.344-4.232-.01-8.993-2.516-2.418-3.586-7.779,2.591-10.966,6.7-2.411,2.51-7.1,8.5-1.631,9.857C491.877,260.615,491.7,263.6,494.665,263.177Z" transform="translate(-485.756 -243.16)" fill="#595959" fill-rule="evenodd"/>
          <path id="Path_452" data-name="Path 452" d="M494.587,261.46c7.505-1.533,11.668-8.316,13.444-14.5.2-1.818-3.11-.062-6.766-1.1a11.712,11.712,0,0,1-1.031,6.242,27.549,27.549,0,0,0-.286-6.744c-.072-.035-.145-.072-.215-.109-2.137-3.167-6.511,1.783-9.323,5.408-2.129,2.216-6.272,7.507-1.44,8.7a4.987,4.987,0,0,1,.538,0,26.117,26.117,0,0,0,4.749-1.793,16.6,16.6,0,0,1-3.067,2.315C492.314,260.584,492.813,261.717,494.587,261.46Z" transform="translate(-485.298 -242.652)" fill="#d9d6d1" fill-rule="evenodd"/>
          <path id="Path_453" data-name="Path 453" d="M494.077,260.06c5.973-1.219,9.828-5.764,12.049-10.686a7.482,7.482,0,0,1-5.581-1.035l-.046-.022a19.625,19.625,0,0,1-.776,2.38,23.33,23.33,0,0,0,.078-3.049c-2.334-1.93-6.3,2.554-8.915,5.91a17.812,17.812,0,0,0-3.09,4.185,4.869,4.869,0,0,0,.662.211,5,5,0,0,1,.538,0,26.112,26.112,0,0,0,4.749-1.793,16.606,16.606,0,0,1-3.067,2.315C491.8,259.184,492.3,260.317,494.077,260.06Z" transform="translate(-484.788 -241.252)" fill="#fff" fill-rule="evenodd"/>
        </g>
        <g id="Group_101" data-name="Group 101" transform="translate(15.221 28.37)">
          <path id="Path_454" data-name="Path 454" d="M478.048,254.366c1.774-7.62.762-14.987-1.741-22.215C475.317,232.241,475.611,249.582,478.048,254.366Z" transform="translate(-465.78 -232.151)" fill="#5f5d5d" fill-rule="evenodd"/>
          <path id="Path_455" data-name="Path 455" d="M469,239.695c8.362-1.457,16.174-.15,23.689,2.635C492.49,243.312,473.892,242.316,469,239.695Z" transform="translate(-468.997 -228.857)" fill="#5f5d5d" fill-rule="evenodd"/>
          <path id="Path_456" data-name="Path 456" d="M471.411,245.02c-1.292-4.344,1.564-9.025,6.379-10.457s9.764.933,11.054,5.277-1.565,9.025-6.379,10.456S472.7,249.364,471.411,245.02Z" transform="translate(-467.999 -231.204)" fill="#5f5d5d" fill-rule="evenodd"/>
          <path id="Path_457" data-name="Path 457" d="M471.095,245.9c-1.29-4.345,1.566-9.027,6.38-10.457s9.763.932,11.054,5.277-1.566,9.025-6.38,10.456S472.386,250.244,471.095,245.9Z" transform="translate(-468.149 -230.787)" fill="#d9d6d1" fill-rule="evenodd"/>
          <path id="Path_458" data-name="Path 458" d="M477.014,240.684a1.177,1.177,0,1,1,1.463.793A1.175,1.175,0,0,1,477.014,240.684Z" transform="translate(-465.216 -228.82)" fill="#5f5d5d" fill-rule="evenodd"/>
          <path id="Path_459" data-name="Path 459" d="M474.658,243.365a1.178,1.178,0,1,1,1.464.793A1.177,1.177,0,0,1,474.658,243.365Z" transform="translate(-466.334 -227.548)" fill="#5f5d5d" fill-rule="evenodd"/>
        </g>
      </g>
      <g id="Group_104" data-name="Group 104" transform="translate(153.882 251.105)">
        <path id="Path_460" data-name="Path 460" d="M571.769,304.587c8.256-10.979-1.588-9.726-9.018-7.936C571.689,296.369,575.555,295.362,571.769,304.587Z" transform="translate(-562.751 -295.47)" fill="#0db02b" fill-rule="evenodd"/>
        <g id="Group_103" data-name="Group 103" transform="translate(3.338 2.501)">
          <path id="Path_461" data-name="Path 461" d="M565.015,300.5c18.769.982,8.809,10.208.4,16.433C573.567,307.8,578.019,304.627,565.015,300.5Z" transform="translate(-565.015 -295.586)" fill="#0db02b" fill-rule="evenodd"/>
          <path id="Path_462" data-name="Path 462" d="M569.848,297.887c10.457-2.981,6.737,3.937,3.3,8.921C575.9,300.281,577.741,297.708,569.848,297.887Z" transform="translate(-562.722 -297.166)" fill="#0db02b" fill-rule="evenodd"/>
          <path id="Path_463" data-name="Path 463" d="M570.651,305.692c15.112.79,7.092,8.22.326,13.232C577.535,311.572,581.121,309.017,570.651,305.692Z" transform="translate(-562.341 -293.121)" fill="#0db02b" fill-rule="evenodd"/>
          <path id="Path_464" data-name="Path 464" d="M573.57,301.282c10.459-2.984,6.737,3.935,3.3,8.919C579.621,303.675,581.465,301.1,573.57,301.282Z" transform="translate(-560.956 -295.556)" fill="#0db02b" fill-rule="evenodd"/>
        </g>
      </g>
    </g>
  </g>
</svg>
