<svg xmlns="http://www.w3.org/2000/svg" xmlns:xlink="http://www.w3.org/1999/xlink" width="992" height="913" viewBox="0 0 992 913">
  <defs>
    <clipPath id="clip-path">
      <rect id="Rectangle_10229" data-name="Rectangle 10229" width="992" height="913" transform="translate(0 201)" fill="#fff" stroke="#707070" stroke-width="1"/>
    </clipPath>
    <linearGradient id="linear-gradient" x1="0.616" y1="0.253" x2="0.419" y2="1.027" gradientUnits="objectBoundingBox">
      <stop offset="0" stop-color="#cef2ff"/>
      <stop offset="1" stop-color="#65d5fd"/>
    </linearGradient>
    <linearGradient id="linear-gradient-2" x1="0.591" y1="0.25" x2="0.5" y2="0.93" gradientUnits="objectBoundingBox">
      <stop offset="0" stop-color="#c4efff"/>
      <stop offset="1" stop-color="#6bb7d2"/>
    </linearGradient>
  </defs>
  <g id="Mask_Group_4" data-name="Mask Group 4" transform="translate(0 -201)" clip-path="url(#clip-path)">
    <g id="Group_4345" data-name="Group 4345">
      <g id="Group_4344" data-name="Group 4344" transform="translate(-709.086 -155.396)">
        <g id="Group_4322" data-name="Group 4322" transform="translate(948.938 416.578)">
          <path id="Path_11564" data-name="Path 11564" d="M924.113,459.1c19.8-32.308,37.84-51.094,38.254-51.519l-9.949-3.781c-.907.926-17.221,17.809-38.148,52.426C918.706,456.721,921.66,458.922,924.113,459.1Z" transform="translate(-861.499 -403.8)" fill="#cacbcb" fill-rule="evenodd"/>
          <path id="Path_11565" data-name="Path 11565" d="M900.6,520.368c-.072-1.5-.114-2.988-.163-4.479a30.42,30.42,0,0,1-9.74.053c.051,1.626.1,3.25.173,4.887l1.393,3.013c-2.808,4.123-2.493,5.521-2.95,6.485l16.817,21.112c-3.946-4.544-5.194-21.539-5.587-31.067Z" transform="translate(-889.314 -278.871)" fill="#cacbcb" fill-rule="evenodd"/>
        </g>
        <g id="Group_4323" data-name="Group 4323" transform="translate(946.166 587.782)">
          <ellipse id="Ellipse_267" data-name="Ellipse 267" cx="81.995" cy="232.934" rx="81.995" ry="232.934" transform="matrix(0.073, -0.997, 0.997, 0.073, 0, 163.559)" fill="#b7b7b8"/>
          <path id="Path_11566" data-name="Path 11566" d="M1044.9,493.6a632.02,632.02,0,0,0-78.1-.954,311.968,311.968,0,0,1,78.816,32.8c20.27,11.943,39.572,26.607,52.411,46.321s18.424,45.192,10.3,67.272a65.462,65.462,0,0,1-11.549,19.64c98.126-2.645,171.78-29,174.5-66.409C1274.563,547.108,1173.211,502.931,1044.9,493.6Z" transform="translate(-800.179 -476.856)" fill="#a1a2a2" fill-rule="evenodd"/>
          <path id="Path_11567" data-name="Path 11567" d="M1118.116,660.206c-62.269-4.529-120.216-17.333-163.171-36.055-43.573-18.993-66.657-41.972-65.005-64.7s27.821-42.128,73.682-54.617c45.209-12.313,104.4-16.6,166.671-12.072s120.218,17.333,163.171,36.057c43.572,18.991,66.659,41.97,65.005,64.7s-27.819,42.126-73.681,54.615c-45.209,12.313-104.4,16.6-166.671,12.072Zm11.895-163.558h0c-127.032-9.236-232.983,19.065-236.185,63.085s97.542,87.35,224.574,96.586,232.983-19.063,236.182-63.083S1257.04,505.887,1130.011,496.648Z" transform="translate(-885.938 -477.811)" fill="#efefef" fill-rule="evenodd"/>
        </g>
        <g id="Group_4324" data-name="Group 4324" transform="translate(1283.435 669.116)">
          <path id="Path_11568" data-name="Path 11568" d="M1054.169,567.618c-2.794-2.062-3.489-5.874-3.971-9.313q-1.069-7.638-2.14-15.273c-.791-5.654-1.318-12.188,2.647-16.295s10.49-3.817,16.125-3.047a186.161,186.161,0,0,1,44.262,11.271c-11.71,10.8-26.313,20.551-41.164,26.32C1064.462,563.4,1057.7,562.939,1054.169,567.618Z" transform="translate(-1047.502 -523.229)" fill="#1b4d24" fill-rule="evenodd"/>
          <path id="Path_11569" data-name="Path 11569" d="M1051.214,547.58c-.609-4.348-.474-14.927,2.576-18.086,2.342-2.427,5.87-2.852,9.35-2.649h0s7.659.448,13.565.763c-4.586-1.1-9.232-1.956-13.905-2.595-3.778-.516-8.162-.7-10.812,2.043a9.132,9.132,0,0,0-2.326,5.276,30.054,30.054,0,0,0,.106,6.671Z" transform="translate(-1045.252 -521.583)" fill="#5ab540" fill-rule="evenodd"/>
        </g>
        <g id="Group_4325" data-name="Group 4325" transform="translate(1241.795 684.458)">
          <path id="Path_11570" data-name="Path 11570" d="M1029.81,573.363c-2.265-2.891-2.123-6.879-1.852-10.429q.6-7.892,1.2-15.781c.444-5.84,1.334-12.474,6.054-15.337,4.7-2.855,10.976-.6,16.269,1.878a202.557,202.557,0,0,1,40.453,24.607c-13.656,7.141-29.885,12.366-45.5,13.571C1040.683,572.314,1034.234,569.8,1029.81,573.363Z" transform="translate(-1027.81 -530.484)" fill="#1b4d24" fill-rule="evenodd"/>
          <path id="Path_11571" data-name="Path 11571" d="M1030.3,553.107c.343-4.491,2.738-14.931,6.367-17.134,2.789-1.694,6.3-1.043,9.624.216v0s7.32,2.77,12.975,4.878c-4.206-2.48-8.524-4.743-12.912-6.792-3.55-1.66-7.756-3.174-10.909-1.26a8.367,8.367,0,0,0-3.381,4.519,30.436,30.436,0,0,0-1.326,6.64Z" transform="translate(-1025.04 -528.661)" fill="#5ab540" fill-rule="evenodd"/>
        </g>
        <g id="Group_4326" data-name="Group 4326" transform="translate(1185.209 698.525)">
          <path id="Path_11572" data-name="Path 11572" d="M1001.105,571.1c-.465-3.825,2.083-7.3,4.491-10.3q5.347-6.686,10.7-13.372c3.96-4.948,8.835-10.355,15.172-10.285,6.316.068,11.08,5.557,14.755,10.693a206.85,206.85,0,0,1,24.645,44.325c-17.648-1.22-36.654-5.574-52.631-13.163C1012.357,576.2,1007.578,570.384,1001.105,571.1Z" transform="translate(-1001.05 -537.137)" fill="#1b4d24" fill-rule="evenodd"/>
          <path id="Path_11573" data-name="Path 11573" d="M1007.845,554.218c3.045-3.806,11.687-11.765,16.561-11.711,3.747.04,6.779,2.563,9.27,5.527v0s5.477,6.526,9.725,11.535c-2.609-4.54-5.46-8.945-8.507-13.2-2.465-3.443-5.659-7.124-9.892-7.171a10.112,10.112,0,0,0-6.033,2.146,33.16,33.16,0,0,0-5.3,5.17Z" transform="translate(-993.476 -534.844)" fill="#5ab540" fill-rule="evenodd"/>
        </g>
        <path id="Path_11574" data-name="Path 11574" d="M1067.222,713.876c-28.5-2.072-59.812-6.443-83.227-24.252-7.485-5.695-13.742-12.59-18.874-18.587-5.3-6.189-11.139-13.542-13.41-22.495-2.624-10.349.82-21.16,8.374-26.29l4.377,6.445c-5.711,3.88-6.7,12.015-5.2,17.931,1.856,7.32,7.052,13.823,11.776,19.342,4.866,5.682,10.772,12.2,17.673,17.451,23.353,17.764,56.145,21.241,85.049,23.089,25.586,1.643,47.262-.452,66.268-6.409,22.5-7.052,41.47-20.052,53.422-36.6,13.584-18.809,18.549-41.416,23.81-65.348,2.073-9.435,4.149-18.879,6.8-28.172,1.332-4.665,2.8-9.293,4.5-13.84,1.489-3.992.922-8.075,1.7-12.332q2.017-11.108,4.88-22.042a18.42,18.42,0,0,0,.918-6.6,6.333,6.333,0,0,0-2-4.206c-1.766-1.328-2.5-.29-4.121.922a75.623,75.623,0,0,0-8.228,7.217,200.363,200.363,0,0,0-14.483,16.859c-1.186,1.487-2.37,2.975-3.563,4.449-18.378,22.725-36.584,39.754-55.663,52.058-23.391,15.087-48.567,23.18-72.806,23.4-13.417.125-24.99-2.307-34.383-7.228l3.616-6.9c8.245,4.318,18.574,6.445,30.695,6.337,22.763-.211,46.5-7.875,68.653-22.16,18.373-11.85,35.981-28.339,53.83-50.413q1.77-2.189,3.529-4.407c8.037-10.08,16.348-20.5,27.468-27.8,3.65-2.394,10.831-1.723,13.546,2.106,1.231,1.736,1.442,3.977,1.531,6.107.442,10.516-5.75,39.254-6.272,41.3a81.6,81.6,0,0,1-2.774,8.568c-1.2,3.542-2,7.029-3.037,10.632-2.624,9.175-4.673,18.5-6.72,27.817-5.2,23.658-10.571,48.117-25.1,68.239-12.931,17.906-33.319,31.928-57.41,39.481-19.936,6.248-42.538,8.456-69.095,6.75Q1070.268,714.095,1067.222,713.876Z" transform="translate(128.196 122.112)" fill="#1b4d24" fill-rule="evenodd"/>
        <path id="Path_11575" data-name="Path 11575" d="M1236.229,514.793c0-.243,0-.453-.011-.666a13.767,13.767,0,0,0-.032-4.794c-.715-3.436-4.036-7.141-7.507-4.866-12.18,7.989-20.949,20.074-30.107,31.4-15.785,19.517-33.653,37.633-54.748,51.236s-45.63,22.55-70.73,22.784c-11.192.1-22.623-1.59-32.538-6.783l-80.34,20.289c-6.8,4.616-8.8,14.149-6.786,22.11s7.251,14.677,12.594,20.919c5.572,6.511,11.45,12.829,18.272,18.018,24.045,18.291,57.013,21.941,87.16,23.877,22.75,1.461,45.93.237,67.682-6.58s42.071-19.56,55.416-38.043a104.664,104.664,0,0,0,11.8-21.594c5.455-13.286,8.707-27.339,11.8-41.323,1.571-7.1,3.091-14.212,4.821-21.277,1.1-4.481,2.9-9.15,4.047-13.789.026-.091.053-.167.08-.26C1233.567,542.664,1236.119,520.367,1236.229,514.793Z" transform="translate(130.252 124.196)" fill="#5ab540" fill-rule="evenodd"/>
        <path id="Path_11576" data-name="Path 11576" d="M1038.2,559.857c8.871,16.976,2.324,33.412-7.906,47.694-4.464,6.232-8.126,12.677-9.778,20.215-1.279,5.834-2.751,10.167-10.406,8.319-3.557-.861-6.578-3.17-9.294-5.623-11.835-10.689-19.881-25.043-25.256-40.054s-8.251-30.784-11.1-46.471Z" transform="translate(143.379 168.968)" fill="#0da945" fill-rule="evenodd"/>
        <g id="Group_4327" data-name="Group 4327" transform="translate(967.165 617.479)">
          <path id="Path_11577" data-name="Path 11577" d="M920.933,539.038c-.262-2.174-1.759-3.971-3.225-5.6a172.079,172.079,0,0,0-18.46-17.695c5.014-5.8,10.877-10.8,16.781-15.692q10.3,10.239,20.519,20.545Z" transform="translate(-896.47 -497.424)" fill="#5ab540" fill-rule="evenodd"/>
          <path id="Path_11578" data-name="Path 11578" d="M920.463,540.656c-.19-1.582-1.4-3.047-2.738-4.529a170.709,170.709,0,0,0-18.251-17.5l-1.539-1.267,1.3-1.508c5.121-5.925,10.97-10.911,17.011-15.918l1.362-1.129,1.256,1.246q10.3,10.245,20.528,20.555l-2.766,2.745q-9.595-9.674-19.255-19.287A137.33,137.33,0,0,0,903.5,516.922a174.365,174.365,0,0,1,17.121,16.6c1.7,1.89,3.381,3.958,3.707,6.667Z" transform="translate(-897.934 -498.809)" fill="#1b4d24" fill-rule="evenodd"/>
        </g>
        <g id="Group_4329" data-name="Group 4329" transform="translate(932.212 573.622)">
          <path id="Path_11579" data-name="Path 11579" d="M901.725,558.347a30.146,30.146,0,0,1-4.286-.62,21.728,21.728,0,0,1-8.915-3.99,19.757,19.757,0,0,1-7.12-15.483,27.909,27.909,0,0,1,5.016-15.383c.7-1.051,1.459-2.07,2.22-3.089a24.229,24.229,0,0,0,3.794-6.244c.793-2.334.745-5.081.692-7.989a37.689,37.689,0,0,1,.493-8.427c2.641-12.9,15.81-19.346,27.453-19.044.279.006.554.021.831.04,10.822.787,18.8,10.947,24.632,18.367l.675.856c2.11,2.675,4.5,5.709,5.665,9.562,1.956,6.492-.338,14.254-5.711,19.314a26.717,26.717,0,0,1-15.593,6.752,33.98,33.98,0,0,0-2.165,6.764l-.2,1.017a23.931,23.931,0,0,1-1.243,4.648c-1.4,3.415-4.134,6.35-8.137,8.723A31.336,31.336,0,0,1,901.725,558.347Z" transform="translate(-881.404 -478.068)" fill="#62615f" fill-rule="evenodd"/>
          <path id="Path_11580" data-name="Path 11580" d="M947.088,505.975c-.935-3.1-2.984-5.73-4.992-8.276-5.5-6.974-13.381-17.523-23.18-17.779-10.143-.264-21.355,5.28-23.535,15.929-1.138,5.555.512,11.52-1.311,16.887-1.3,3.838-4.214,6.868-6.46,10.241a24.162,24.162,0,0,0-4.364,13.218,15.924,15.924,0,0,0,5.64,12.431,17.986,17.986,0,0,0,7.333,3.242,27.318,27.318,0,0,0,19.564-3.151,15,15,0,0,0,6.515-6.845,27.937,27.937,0,0,0,1.239-4.986c-.245-12.417-20.881-14.186-20.881-14.186,14.4-1.922,20.179,5.024,22.309,9.133a38.394,38.394,0,0,1,2.017-4.639s2.009-16.436-3.918-20.943a18.973,18.973,0,0,1,6.242,8.133c1.734.649,5.121,1.787,5.9,4.737a21.787,21.787,0,0,0-4.9-1.635,23.494,23.494,0,0,1,.212,9.351,22.37,22.37,0,0,0,11.92-5.506C946.537,517.468,948.715,511.367,947.088,505.975Z" transform="translate(-879.351 -476.015)" fill="#fefefe" fill-rule="evenodd"/>
          <g id="Group_4328" data-name="Group 4328" transform="translate(4.001 32.26)">
            <path id="Path_11581" data-name="Path 11581" d="M909.486,496.77c-2.055-1.377-4.307-4.267-6.219-3.223a19.947,19.947,0,0,1,3.749,5.876c1.736.651,5.124,1.789,5.9,4.739a21.675,21.675,0,0,0-4.9-1.635,23.5,23.5,0,0,1,.209,9.351,22.37,22.37,0,0,0,11.922-5.506,16.112,16.112,0,0,0,5.109-12.852C920.042,495.042,913.988,499.788,909.486,496.77Z" transform="translate(-861.037 -493.325)" fill="#e1dfd9" fill-rule="evenodd"/>
            <path id="Path_11582" data-name="Path 11582" d="M921.527,504.078c1.6,4.219-3.667,8.462-8.321,8.416-4.779-.047-9.293-2.485-14.074-2.523-5.354-.044-10.977,2.865-15.836.78a15.638,15.638,0,0,0,5.559,10.932,17.983,17.983,0,0,0,7.335,3.242,27.324,27.324,0,0,0,19.562-3.153,15,15,0,0,0,6.517-6.843,28.312,28.312,0,0,0,1.239-4.986A10.092,10.092,0,0,0,921.527,504.078Z" transform="translate(-883.296 -481.339)" fill="#e1dfd9" fill-rule="evenodd"/>
            <path id="Path_11583" data-name="Path 11583" d="M902.357,503.708a26.694,26.694,0,0,0-5.513-2.59A10.387,10.387,0,0,0,899,502.351C900.086,502.8,901.257,503.211,902.357,503.708Z" transform="translate(-868.196 -484.638)" fill="#e1dfd9" fill-rule="evenodd"/>
            <path id="Path_11584" data-name="Path 11584" d="M899.033,498.859c-.827.376-1.7.829-2.464,1.205-.685.338-3.44,2.26-3.924,2.282,5.331-.222,10.657-.387,15.476,2.447,1.131.666,6.955,5.675,6.312,7.473a49.182,49.182,0,0,1,2.1-5.377,57.838,57.838,0,0,0,.317-7.151,4.7,4.7,0,0,1-.949,2.244c-2.053,2.377-5.9.546-8.378-1.391-2.218-1.734-4.857-3.17-7.612-2.1C899.629,498.6,899.333,498.722,899.033,498.859Z" transform="translate(-872.876 -487.979)" fill="#e1dfd9" fill-rule="evenodd"/>
          </g>
        </g>
        <path id="Path_11585" data-name="Path 11585" d="M948.5,500.665c-2.444,2.965-4.971,6.092-5.754,9.858-.966,4.646.894,9.439.539,14.174-.146,1.956-.666,3.95-.163,5.844.527,1.981,2.089,3.523,2.853,5.428.626,1.56.7,3.328,1.505,4.8,1.275,2.324,4.035,3.356,6.615,3.958,2.6.609,5.409.958,7.866-.078a13.2,13.2,0,0,0,4.052-3.024,42.734,42.734,0,0,0,9.723-14.339,29.355,29.355,0,0,0,1.575-17.113c-.1-.419-.317-.928-.746-.918Z" transform="translate(118.863 120.739)" fill="#5ab540" fill-rule="evenodd"/>
        <path id="Path_11586" data-name="Path 11586" d="M965.8,506.213a187.4,187.4,0,0,1,24.465,2.146c6.27.969,13.85,3.635,14.584,9.936.266,2.282-.387,4.965,1.216,6.61a6.374,6.374,0,0,0,3.595,1.428q9.937,1.744,19.665,4.476c7.517,2.11,16.117,6,17.36,13.707.713,4.432-1.476,9.01-4.9,11.911a22.58,22.58,0,0,1-12.381,4.758c-8.985.924-17.921-1.66-26.582-4.216-13.353-3.942-27.193-8.147-37.514-17.492Z" transform="translate(144.327 126.922)" fill="#e1262e" fill-rule="evenodd"/>
        <path id="Path_11587" data-name="Path 11587" d="M1023.038,564.229c-7.01-.51-13.85-2.529-20.073-4.365-12.85-3.793-27.415-8.09-38.271-17.914l2.616-2.888c10.194,9.226,24.307,13.391,36.759,17.064,8.012,2.364,17.1,5.041,25.831,4.151a20.678,20.678,0,0,0,11.319-4.307c3.138-2.658,4.8-6.629,4.237-10.116-.859-5.324-6.227-9.41-15.963-12.144-6.4-1.8-12.956-3.288-19.477-4.432a8.107,8.107,0,0,1-4.65-1.983c-1.7-1.738-1.694-4.06-1.694-5.925a15.635,15.635,0,0,0-.063-1.821c-.666-5.732-9.276-7.669-12.945-8.236a185.3,185.3,0,0,0-24.214-2.123l.087-3.9a189.762,189.762,0,0,1,24.721,2.167c9.763,1.51,15.523,5.642,16.221,11.638a19.3,19.3,0,0,1,.091,2.271c0,1.4,0,2.6.584,3.2a5.142,5.142,0,0,0,2.538.867c6.648,1.169,13.33,2.69,19.856,4.521,11.325,3.178,17.637,8.319,18.756,15.271.787,4.883-1.345,10.135-5.563,13.709a24.491,24.491,0,0,1-13.442,5.21A41.443,41.443,0,0,1,1023.038,564.229Z" transform="translate(143.638 125.896)" fill="#b82934" fill-rule="evenodd"/>
        <g id="Group_4330" data-name="Group 4330" transform="translate(1037.647 627.418)">
          <path id="Path_11588" data-name="Path 11588" d="M931.755,515.887a61.243,61.243,0,0,0,.066,15.937c.309,2.269.6,5.073,2.51,6.614,2.62,2.115,7.356,1.379,8.763,4.438a8.215,8.215,0,0,1,.357,3.548,16.514,16.514,0,0,0,.757,5.086,2.183,2.183,0,0,0,.674,1.159c1.228.916,2.584-.99,2.943-2.48q2.791-11.552,5.474-23.133a39.754,39.754,0,0,0,10.294.474c-.958-3.692-2.438-7.23-3.081-11.089a57.951,57.951,0,0,1-.689-6.132c-.03-.505.047-5.648-.053-5.676a30.1,30.1,0,0,0-6.4-.871,57.822,57.822,0,0,0-9.738-.072c-3.148.332-6.253,1.18-9.416,1.129A60.806,60.806,0,0,0,931.755,515.887Z" transform="translate(-931.266 -503.509)" fill="#fdf6a5" fill-rule="evenodd"/>
        </g>
        <path id="Path_11589" data-name="Path 11589" d="M1005.65,536.387a8.923,8.923,0,0,1,.9,1.651c.271.137.713.345.981.467a7.9,7.9,0,0,0,2.643.569,16.324,16.324,0,0,0,3.44-.127,12.148,12.148,0,0,0,5.739-2.675l1.279-1.011,1.22,1.083c1.3,1.157,2.7,2.387,4.157,3.546,10.258,8.181,22.894,13.193,35.114,18.037,2.724,1.078,5.445,2.157,8.139,3.269a8.838,8.838,0,0,1,6.451,7.568c2.28,9.23,6.54,17.02,11.694,21.372a11.169,11.169,0,0,0,6.056,2.977h.008a16.343,16.343,0,0,0,2.277-.034,20.4,20.4,0,0,1,2.675-.036,9.036,9.036,0,0,1,1.675.273c3,.806,5.049,3.231,6.65,5.5a18.715,18.715,0,0,1,3.383,14.692c-2.138,11.393-13.571,20.048-18.388,23.239-16.113,10.681-36.173,15.749-56.484,14.273h0c-2.075-.15-4.168-.374-6.219-.66-9.985-1.4-19.93-4.707-31.3-10.414-6.5-3.263-14.151-5.377-21.552-7.42-3.686-1.019-7.5-2.072-11.093-3.248-12.776-4.189-27.261-8.934-37.489-19.528a13.494,13.494,0,0,1-2.981-4.2,14.517,14.517,0,0,1-.865-4.8,113.282,113.282,0,0,1,3.4-34.452,37.592,37.592,0,0,1-6.9.195c-5.6-.408-9.856-2.349-12.664-5.775-6.09-7.424-2.491-18.179.2-23.928a88.464,88.464,0,0,1,31.018-35.981l.907-.609.99.457a30.187,30.187,0,0,0,3.736,1.463c1.127.345,2.269.628,3.411.911,1.114.277,2.229.554,3.328.882.613.182,1.231.4,1.848.624a15.005,15.005,0,0,0,3.231.905l9.97,1.091,1.155,1.882c.939.068.049,1.444.2,1.133a72.044,72.044,0,0,0-2.358,10.829,54.8,54.8,0,0,1-.44,12.858c-.387,2.813-.554,5.87,1.131,7.228a9.13,9.13,0,0,0,3.3,1.285c2.142.556,4.806,1.248,6.008,3.857a8.25,8.25,0,0,1,.546,3.833l-.011.546a14.472,14.472,0,0,0,.425,3.631,2.583,2.583,0,0,0,.108-.342q2.788-11.545,5.47-23.114l.417-1.8,1.819.319a20.491,20.491,0,0,0,2.066.247c1.224.089,2.457.1,3.688.106,1.317.013,2.633.023,3.939.118,1.023.074,6.767,1.129,7.629,1.3Z" transform="translate(76.291 120.224)" fill="#b82934" fill-rule="evenodd"/>
        <path id="Path_11590" data-name="Path 11590" d="M965,507.3q-4.98-.542-9.962-1.089a31.7,31.7,0,0,1-5.424-1.6c-2.233-.668-4.525-1.114-6.754-1.8a31.723,31.723,0,0,1-3.978-1.558,87.029,87.029,0,0,0-30.337,35.19c-3.263,6.98-5.343,15.912-.457,21.871a13.1,13.1,0,0,0,5.386,3.815c1.406.554,5.261,1.981,6.722,1.3,1.415-.662,2.351-4.508,3.066-6q1.545-3.216,3.309-6.325a104.078,104.078,0,0,1,8.122-12.214q2.3-2.982,4.819-5.792c1.2-1.343,4-3.256,4.663-4.874-2.383,5.807-5.439,11.3-8.348,16.849-2.74,5.231-6.411,11.228-7.473,17.111-2.231,12.351-4.36,24.622-3.669,37.294a12.7,12.7,0,0,0,.723,4.166,11.7,11.7,0,0,0,2.578,3.584c9.672,10.017,23.465,14.694,36.7,19.029,10.727,3.514,22.945,5.775,32.913,10.78,9.845,4.94,19.712,8.689,30.693,10.224,21.152,2.962,43.479-1.453,61.362-13.3,11.542-7.651,23.973-21.755,14.487-35.186-1.434-2.032-3.157-4.1-5.561-4.741-2.036-.543-4.2.04-6.3-.144a13.228,13.228,0,0,1-7.143-3.432c-6.377-5.386-10.365-14.44-12.328-22.391a9.385,9.385,0,0,0-1.717-4.054,9.242,9.242,0,0,0-3.586-2.182c-15.085-6.219-30.97-11.408-43.725-21.581-1.451-1.157-2.851-2.379-4.238-3.614a14.02,14.02,0,0,1-6.654,3.073,15.328,15.328,0,0,1-5.9-.161c-1.021-.256-1.155-.713-1.816-1.468a24.137,24.137,0,0,0-2.212-2.125,31.2,31.2,0,0,1-2.089-2.5,10.272,10.272,0,0,0-5.743-3.2c-4.092-.793-8.357-.1-12.463-.823q-2.683,11.577-5.475,23.133c-.359,1.489-1.715,3.394-2.943,2.48a2.2,2.2,0,0,1-.675-1.159,16.478,16.478,0,0,1-.757-5.088,8.214,8.214,0,0,0-.357-3.548c-1.406-3.058-6.141-2.324-8.763-4.438-2.5-2.017-2.275-5.824-1.84-9.008a53.72,53.72,0,0,0,.425-12.505c-.393-3.973,2.62-8.08,2.347-11.886-2.907.67-6.132,3.231-8.67,4.823q-4.3,2.693-8.371,5.737c1.275-4.713,6.1-7.731,7.7-12.349Z" transform="translate(77.315 121.396)" fill="#e1262e" fill-rule="evenodd"/>
        <g id="Group_4331" data-name="Group 4331" transform="translate(982.494 651.213)">
          <path id="Path_11591" data-name="Path 11591" d="M918.126,539.126c-2.231,12.351-4.36,24.622-3.669,37.294a12.787,12.787,0,0,0,.721,4.168,11.777,11.777,0,0,0,2.58,3.58c7.23,7.488,16.762,11.992,26.641,15.6-1.958-2.614-3.722-5.386-5.449-8.162-6.153-9.9-12.44-20.145-14.326-31.653a44.583,44.583,0,0,1-.19-13.087,37.615,37.615,0,0,0,.818-5.775,87.979,87.979,0,0,1,.459-9.361,14.168,14.168,0,0,0-.11-2.484,54.511,54.511,0,0,1,.036-7.3c-1.159,2.275-2.476,4.544-3.646,6.845A38.1,38.1,0,0,0,918.126,539.126Z" transform="translate(-894.995 -506.752)" fill="#cb2b33" fill-rule="evenodd"/>
          <path id="Path_11592" data-name="Path 11592" d="M996.06,576.81c8.38-6.32,15.648-13.971,22.837-21.617a98.977,98.977,0,0,1-56.437,24.58c-3.21.309-6.568.558-9.991.7a89.415,89.415,0,0,0,23.08,6.674c2.434.34,4.885.573,7.344.717.467-.575.947-1.144,1.474-1.7C987.811,582.545,992.069,579.821,996.06,576.81Z" transform="translate(-852.482 -469.7)" fill="#cb2b33" fill-rule="evenodd"/>
          <path id="Path_11593" data-name="Path 11593" d="M923.224,541.6q1.541-3.223,3.307-6.329a103.9,103.9,0,0,1,8.122-12.211q2.3-2.985,4.819-5.794a25.513,25.513,0,0,1,1.928-1.8c-4.743.723-8.443,5.648-12.021,9.357a34.414,34.414,0,0,1-16.9,9.57,17.542,17.542,0,0,1-7.293.315,13.179,13.179,0,0,0,2.867,7.773,13.047,13.047,0,0,0,5.384,3.817c1.406.554,5.261,1.979,6.722,1.3C921.571,546.936,922.508,543.089,923.224,541.6Z" transform="translate(-905.183 -513.976)" fill="#cb2b33" fill-rule="evenodd"/>
          <path id="Path_11594" data-name="Path 11594" d="M1059.13,579.321c-1.829-.488-3.7-.3-6.207-.486a13.217,13.217,0,0,1-7.143-3.43c-6.378-5.386-10.365-14.442-12.328-22.391a9.391,9.391,0,0,0-1.717-4.054,9.25,9.25,0,0,0-3.586-2.184c-15.083-6.219-30.97-11.406-43.725-21.581-1.451-1.157-2.848-2.377-4.237-3.612a14.018,14.018,0,0,1-6.655,3.07,15.365,15.365,0,0,1-5.9-.159c-1.021-.258-1.155-.715-1.814-1.47A24.741,24.741,0,0,0,963.6,520.9a31.893,31.893,0,0,1-2.089-2.5,10.259,10.259,0,0,0-5.743-3.2,35.908,35.908,0,0,0-6.557-.444,16.152,16.152,0,0,0-.279,4.145c.421,4.094,3.756,7.164,6.029,10.6a31.939,31.939,0,0,1,4.369,11.657c.622,3.191,2.51,8.761-1.436,10.5a10.684,10.684,0,0,1-4.893.514q-6.252-.314-12.5-.632c-.364,1.5,1.489,2.51,2.99,2.861,11.2,2.628,22.888.691,34.374.008a4.063,4.063,0,0,1,2.252.3,5.346,5.346,0,0,1,1.615,1.96c1.892,2.922,5.252,4.485,8.437,5.9.48,1.311-1.04,2.527-2.421,2.728s-2.882-.078-4.11.583c-.753.9,0,2.254.823,3.092a17.531,17.531,0,0,0,15.132,4.91c3.709-.622,7.181-2.449,10.936-2.683,4.022-.249,7.9,1.349,11.649,2.821q8.691,3.41,17.635,6.122c7.1,2.148,15.631,4.3,22.75,1.062A8.609,8.609,0,0,0,1059.13,579.321Z" transform="translate(-865.873 -514.762)" fill="#cb2b33" fill-rule="evenodd"/>
        </g>
        <path id="Path_11595" data-name="Path 11595" d="M931.69,607.157a9.707,9.707,0,0,1-2.778-3.087c-3.544-6.371-6.858-15.14-2.531-20.721,1.512-1.947,4.28-3.939,9.2-3.544,3.98-4.341,12.524-15.187,9.059-25.074a11.156,11.156,0,0,1-1.356-.856c-2.11-1.554-4.7-4.576-5.06-10.16-.112-1.74-.452-7.037,3.529-10.27,3.719-3.022,8.532-2.231,12.753-1.062,6.4,1.776,20.611,6.5,21.211,6.7l.372.123.5.245a8.922,8.922,0,0,1,1.227.78,11.233,11.233,0,0,1,4.037,12.759c-.452,1.444-1.838,5.849-5.864,7.538-.233.1-.465.182-.7.256a62.459,62.459,0,0,1-.381,14.525c.169-.154.347-.3.535-.444a8.854,8.854,0,0,1,7.98-1.258,10.854,10.854,0,0,0,1.36.262,10.96,10.96,0,0,1,5.191,1.9c3.187,2.347,4.339,6.4,5.088,11.765,1.064,7.6,1.277,17.707-3.734,22.681a9.812,9.812,0,0,1-8.545,2.745c-1.15-.169-2.434-.372-3.781-.584-3.667-.579-10.465-1.649-12.29-1.467-4.593,1.044-27.269,1.952-35.015-3.749Z" transform="translate(98.646 154.928)" fill="#fefefe" fill-rule="evenodd"/>
        <path id="Path_11596" data-name="Path 11596" d="M986.183,585.259c-1.379-9.871-3.4-7.984-7.422-9.109s-4.028,2.895-4.028,2.895-.406,9.716-7.9,10.734a15.86,15.86,0,0,1-9.213-1.8c11.858-8.807,8.583-31.325,8.583-31.325s-.209-5.967,1.728-4.978,3.817,1.066,5.259-3.527a5.432,5.432,0,0,0-2.4-6.606s-14.595-4.855-20.93-6.612-9.3-1.028-8.887,5.327,4.937,6.783,4.937,6.783c9.05,17.32-11.378,35.952-11.378,35.952-11.825-3.1-6.766,9.443-3.59,15.155s28.912,4.838,31.245,4.024,12.275,1.024,18.363,1.92S987.561,595.13,986.183,585.259Z" transform="translate(101.73 158.01)" fill="#fce100" fill-rule="evenodd"/>
        <path id="Path_11597" data-name="Path 11597" d="M971.43,544.131s45.9,21.759,61.967,16.98,11.448-38.432-6.172-39.316-49.914-1.647-49.914-1.647Z" transform="translate(151.146 142.453)" fill="#5ab540" fill-rule="evenodd"/>
        <path id="Path_11598" data-name="Path 11598" d="M986.462,520.332c-.239,4.236,1.988,8.232,4.645,11.539s5.832,6.221,8.059,9.833c3.2,5.193,4.238,11.482,7.948,16.39-.509-.981-2.827-1.6-3.846-2.085q-2.521-1.2-5.043-2.4-4.916-2.338-9.833-4.682a51.73,51.73,0,0,1-4.942-3.239c-2.14-1.351-4.219-2.8-6.3-4.244-3.4-2.373-7.215-5.591-6.726-9.712Z" transform="translate(149.984 142.659)" fill="#0da945" fill-rule="evenodd"/>
        <g id="Group_4334" data-name="Group 4334" transform="translate(907.615 441.715)">
          <path id="Path_11599" data-name="Path 11599" d="M982.879,432.5c-.019-.061-.036-.121-.053-.182,3.146-1.256,7.331-1.334,10.721-2.1a86.114,86.114,0,0,1,10.48-1.967c4.9-.48,10.528-.7,13.738,2.827s2.465,9.086,1.376,13.871a165.59,165.59,0,0,1-13.023,37.387c-8.346-10.374-15.576-23.18-19.376-36.055-.759-2.571-.768-5.267-1.315-7.875C984.96,436.184,983.462,434.393,982.879,432.5Z" transform="translate(-743.767 -401.978)" fill="#1b4d24" fill-rule="evenodd"/>
          <path id="Path_11600" data-name="Path 11600" d="M990.151,430.738c3.764-.368,12.808.116,15.276,2.827,1.9,2.087,1.994,5.111,1.554,8.075h0s-.969,6.521-1.69,11.552c1.29-3.876,2.379-7.813,3.28-11.778.732-3.208,1.224-6.942-.92-9.3a7.417,7.417,0,0,0-4.337-2.17,25.687,25.687,0,0,0-5.716-.142Z" transform="translate(-735.604 -400.061)" fill="#5ab540" fill-rule="evenodd"/>
          <g id="Group_4332" data-name="Group 4332" transform="translate(215.291 132.372)">
            <path id="Path_11601" data-name="Path 11601" d="M993.939,478.3c3.483-.241,6.5,2.229,9.107,4.551l11.585,10.313c4.289,3.817,8.947,8.479,8.583,14.21-.362,5.709-5.551,9.757-10.372,12.835A187.286,187.286,0,0,1,971.586,540.4c1.941-15.9,6.781-32.885,14.4-46.977C988.794,488.239,994.279,484.192,993.939,478.3Z" transform="translate(-971.586 -478.288)" fill="#1b4d24" fill-rule="evenodd"/>
            <path id="Path_11602" data-name="Path 11602" d="M991.518,484.745c3.3,2.935,10.084,11.129,9.8,15.536-.216,3.385-2.641,6.01-5.441,8.12h0s-6.16,4.643-10.892,8.249c4.229-2.144,8.348-4.514,12.345-7.069,3.231-2.064,6.712-4.777,6.953-8.6a9.162,9.162,0,0,0-1.651-5.559,30.184,30.184,0,0,0-4.426-5.041Z" transform="translate(-956.646 -471.092)" fill="#5ab540" fill-rule="evenodd"/>
          </g>
          <path id="Path_11603" data-name="Path 11603" d="M999.592,454.388c3.483-.239,6.5,2.231,9.107,4.551l11.586,10.313c4.288,3.817,8.947,8.482,8.583,14.21-.362,5.709-5.553,9.757-10.372,12.837a187.476,187.476,0,0,1-41.257,20.186c1.941-15.9,6.779-32.885,14.4-46.975C994.447,464.323,999.932,460.275,999.592,454.388Z" transform="translate(-749.994 -372.571)" fill="#1b4d24" fill-rule="evenodd"/>
          <path id="Path_11604" data-name="Path 11604" d="M997.17,460.829c3.3,2.935,10.084,11.131,9.805,15.536-.214,3.386-2.641,6.01-5.439,8.12h0s-6.16,4.644-10.894,8.249c4.231-2.144,8.35-4.512,12.347-7.067,3.231-2.066,6.709-4.779,6.953-8.606a9.159,9.159,0,0,0-1.654-5.557,30.007,30.007,0,0,0-4.424-5.043Z" transform="translate(-735.056 -365.375)" fill="#5ab540" fill-rule="evenodd"/>
          <g id="Group_4333" data-name="Group 4333" transform="translate(208.083)">
            <path id="Path_11605" data-name="Path 11605" d="M982.545,418.414l3.077,3.2a66.581,66.581,0,0,1,14.755,23.319q.58,1.589,1.078,3.212c.209.694.4,1.368.573,2.026.761,2.9-.554,5.623-2.362,8.016-2.195,2.9-4.517,3.523-7.6,4.859-5.449,2.364-11.021,1.554-16.174-.522-2.654-1.068-5.458-4.722-4.885-7.526l.01-.055c1.14-5.453.218-15.62-2.664-29.4a8.145,8.145,0,0,1,4.792-9.213A8.479,8.479,0,0,1,982.545,418.414Z" transform="translate(-968.177 -415.688)" fill="#edddc6" fill-rule="evenodd"/>
            <path id="Path_11606" data-name="Path 11606" d="M978.235,418.751l3.3,3.432c.469.489.907,1.007,1.362,1.51l-8.148,4.992,9.864-3.051a65.725,65.725,0,0,1,6.826,9.849c-5.726,2.366-15.106.757-15.106.757,6.039,3.7,12.992,2.472,16.343,1.525a59.582,59.582,0,0,1,3.922,9.646,37.489,37.489,0,0,1,1.39,6.141c1.205,9.615-28.394,14.307-25.485.37.078-.383.144-.787.2-1.2a13.2,13.2,0,0,0,16.743-2.863c-7.515,3.941-14.622.421-16.43-1.307.139-7.312-1.44-17.024-3.189-25.379A4.938,4.938,0,0,1,978.235,418.751Z" transform="translate(-966.454 -413.985)" fill="#f5efce" fill-rule="evenodd"/>
          </g>
          <path id="Path_11607" data-name="Path 11607" d="M1137.333,466.58c-.744-4.161-2.04-9.484-5.474-13.726a16.277,16.277,0,0,0-10.6-6.005c-1.176-7.621-8.078-13.835-15.227-15.775a29.054,29.054,0,0,0-5.521-.924c-6.492-.474-13.123,1.064-18.454,2.3a162.2,162.2,0,0,0-35.535,12.491c-.766.381-2.688,1.51-4.166,2.39-12.958,7.71-19.67,12.233-23.18,15.032-15.593-13.647-30.464-21.64-44.033-26.434-13.717-4.844-27.347-9.065-41.424-10.186l-1.248-.1c-10.869-.789-19.073-.311-26.605,1.554-10.342,2.563-19.031,8-24.463,15.316-.486.658-.954,1.358-1.412,2.066-5.688.541-9.74,7.462-9.059,15.519a20.338,20.338,0,0,0,.966,4.7,82.562,82.562,0,0,0-.926,32.5c2.44,13.135,8.338,23,17.05,28.51a52.73,52.73,0,0,0,10.067,4.6,49.474,49.474,0,0,1,8.149,3.586,58.051,58.051,0,0,1,5.883,4.257c3.483,2.738,7.056,5.549,11.245,6.944a18.754,18.754,0,0,0-1.017,8.9,17.858,17.858,0,0,0,8.361,13.311c3.586,2.1,7.422,2.73,11.129,3.345,1.751.29,3.4.565,4.956.981,8.115,2.178,13.284,8.634,20.676,12.006a52.723,52.723,0,0,0,5.248,1.994,134.218,134.218,0,0,0,24.871,5.694c6.731.882,13.482.6,20.24.939,6.02.3,11.911,1.926,17.659,3.72a108.585,108.585,0,0,0,30.018,4.88c9.759.209,21.2.114,29.8-4.957a35.735,35.735,0,0,0,14.242-16.688,50.635,50.635,0,0,0,2.912-30.255c-.334-1.592-.709-3.191-1.083-4.794-1.66-7.1-3.227-13.8-1.345-20.293,1.721-5.935,5.1-11.954,10.623-18.934a7.678,7.678,0,0,1,2.54-2.409,8.133,8.133,0,0,1,1.643-.233,17.631,17.631,0,0,0,2.468-.332c5.977-1.328,10.059-7.338,10.921-16.071A70.944,70.944,0,0,0,1137.333,466.58Z" transform="translate(-869.772 -404.997)" fill="#1b4d24" fill-rule="evenodd"/>
        </g>
        <g id="Group_4336" data-name="Group 4336" transform="translate(911.509 465.989)">
          <path id="Path_11608" data-name="Path 11608" d="M1131.444,465.163c-.762-4.261-1.946-8.6-4.667-11.962s-13.106-10.317-17.253-9.078c4.438-3.988.624-9.444-6.57-11.393-6.331-1.719-12.989-.622-19.447.814a31.589,31.589,0,0,1,4.66,3.821c-6.1-2.709-14.755-1.252-15.409-1.136a151.393,151.393,0,0,0-26.557,10.095c-.5.249-1.933,1.072-3.91,2.248-6.016,3.58-17.049,10.42-22.334,14.377,13.812,14.812,18.012,40.193,18.012,40.193-10.177-34.833-40.487-51.335-42.137-52.409a150.8,150.8,0,0,0-24.254-13.317,131.972,131.972,0,0,0-33.418-9.141l.837.159-.839-.159c-2.263-.3-4.529-.573-6.8-.755-1.967-.156-3.944-.275-5.921-.353-12.935.746-23.311,6.745-22.581,6.113a45.673,45.673,0,0,1,8.19-5.578,58.048,58.048,0,0,0-6.295,1.176c-8.657,2.144-16.952,6.695-22.273,13.857-.188.254-.368.529-.552.793,5.825,2.6,8.12,9.644,8.12,9.644-4.627-6.553-7.885-7.494-9.615-7.338-4.986,1.017-8.443,7.306-7.83,14.576a19.209,19.209,0,0,0,.814,4.153c-4.4,20.6-1.165,45.843,14.639,55.852,3.7,2.345,7.94,3.662,12.032,5.263a35.714,35.714,0,0,1-5.682-17.09s.827,9.274,13.8,20.919a97.75,97.75,0,0,0,20.359,12.567c42.553,19.631,89.792,6.745,103.826,2.5a18.674,18.674,0,0,0-6.693-2.8c17.39-2.421,12.594,11.624,12.594,11.624a13.229,13.229,0,0,0-4.6-7.82c-52.971,26.328-100.492,6.014-108.366,1.436a12.089,12.089,0,0,0,5.3,14.927c3.364,1.964,17.187,4.713,17.187,4.713a211.4,211.4,0,0,0,28.965.015,140.273,140.273,0,0,1-21.551,3.474c2.165-.146,4.324,2.523,5.83,3.736a33.419,33.419,0,0,0,7.338,4.4,75.815,75.815,0,0,0,16.847,4.8q11.818,2.28,23.759,3.846c6.708.877,13.442-.92,19.793,1.664,6.587,2.683,14,4.026,21.033,4.916a109.416,109.416,0,0,0,32.619-.759c5.079-.89,8.851-1.639,12.744-4.99a33.413,33.413,0,0,0,8.742-12.085,46.632,46.632,0,0,0,2.673-27.908c-1.859-8.873-4.986-17.9-2.358-26.971,2.169-7.479,6.479-14.163,11.313-20.268,1.191-1.5,2.508-3.043,4.318-3.671,1.451-.5,3.042-.351,4.54-.685,5.2-1.157,7.367-7.352,7.889-12.651a66.937,66.937,0,0,0-.854-18.35Zm-248.026,2.373h0c-3.119.262-5.95-3.1-6.322-7.507s1.857-8.2,4.976-8.458,5.952,3.1,6.323,7.5-1.855,8.2-4.976,8.46Zm39.462,3.781h0c-2.694,3.51-6.891,4.809-9.376,2.9s-2.313-6.3.381-9.807,6.893-4.808,9.376-2.9,2.313,6.3-.381,9.807Zm7.065-5h0c.878-15.066-13.979-9.786-13.979-9.786C935.438,448.076,929.945,466.314,929.945,466.314Z" transform="translate(-871.613 -427.167)" fill="#5ab540" fill-rule="evenodd"/>
          <g id="Group_4335" data-name="Group 4335" transform="translate(83.556 5.441)">
            <path id="Path_11609" data-name="Path 11609" d="M991.772,443.375A45.1,45.1,0,0,0,987.4,429.74c-1.523.267-3.043.579-4.551.914a31.682,31.682,0,0,1,4.661,3.823c-6.1-2.709-14.755-1.252-15.409-1.138-3.444.968-6.847,2.079-10.224,3.267C971.477,435.225,981.955,440.435,991.772,443.375Z" transform="translate(-854.563 -429.74)" fill="#0da945" fill-rule="evenodd"/>
            <path id="Path_11610" data-name="Path 11610" d="M995.766,439.546a8.864,8.864,0,0,1,.886-.036c-3.766-2.343-7.984-4.178-10.285-3.491a6.325,6.325,0,0,0,1.307-1.6,8.019,8.019,0,0,0-4.54,3.819c-1.916,3.806-1,8.454.772,12.332C986.665,445.686,990.2,440.252,995.766,439.546Z" transform="translate(-832.062 -424.524)" fill="#0da945" fill-rule="evenodd"/>
            <path id="Path_11611" data-name="Path 11611" d="M959.72,494.813a13.93,13.93,0,0,0,.888-2.3c1.8-5.8-.385-8.7.135-14.747.66-7.65-2.607-15.944-1.047-23.463,1.4-6.75,10.985-16.052,16.61-19.866-2.806,1.171-5.589,2.4-8.319,3.758-.5.249-1.933,1.07-3.91,2.248-6.016,3.578-17.05,10.418-22.334,14.377C954.865,468.892,959.307,492.484,959.72,494.813Z" transform="translate(-877.005 -424.502)" fill="#0da945" fill-rule="evenodd"/>
            <path id="Path_11612" data-name="Path 11612" d="M1068.212,457.15a19.193,19.193,0,0,1-2.666-5.267,54.268,54.268,0,0,0,1.244,11.495c.888,4.168-.584,4.745-3.662,7.534-4.828,4.375-10.012,8.784-12.924,14.749-8.137,16.665,5.458,37.751-2.017,54.725-6.1,13.852-23.814,18.648-38.846,16.891-4.866-.512-9.661-.949-14.2-2.732-1.106-.434-2.392-1.1-2.461-2.288-.051-.861.539-1.905-.11-2.472a1.622,1.622,0,0,0-.968-.285c-8.9-.643-17.712-1.129-26.529-2.1-9.033-.992-18.646-.336-26.643-4.65-2.087-1.125-4.037-2.578-6.177-3.552a139.384,139.384,0,0,1-21.124,3.368c2.165-.144,4.324,2.523,5.83,3.736a33.614,33.614,0,0,0,7.337,4.407,76.007,76.007,0,0,0,16.847,4.8q11.815,2.277,23.759,3.844c6.707.88,13.442-.918,19.792,1.666,6.587,2.683,14,4.026,21.033,4.916a109.556,109.556,0,0,0,32.619-.759c5.079-.89,8.851-1.639,12.744-4.99a33.425,33.425,0,0,0,8.739-12.085,46.621,46.621,0,0,0,2.673-27.91c-1.857-8.873-4.984-17.9-2.356-26.969,2.167-7.479,6.479-14.163,11.313-20.268,1.248-1.575,2.821-3.43,4.785-4.119.746-.26,6.35-.182,5.542-1.243-1.533-2.017-4.644-3.392-6.817-4.529A19.5,19.5,0,0,1,1068.212,457.15Z" transform="translate(-911.128 -405.061)" fill="#0da945" fill-rule="evenodd"/>
            <path id="Path_11613" data-name="Path 11613" d="M934.77,449.638c3.455,9.336,5.663,19.215,10.528,27.9s13.239,16.282,23.184,16.713a6.558,6.558,0,0,0,4.007-.829,4.946,4.946,0,0,0,1.561-1.844c-10.224-34.717-40.439-51.172-42.084-52.244-1.036-.672-2.064-1.307-3.094-1.96A93.084,93.084,0,0,1,934.77,449.638Z" transform="translate(-891.352 -421.232)" fill="#0da945" fill-rule="evenodd"/>
          </g>
          <path id="Path_11614" data-name="Path 11614" d="M1034.59,453.836l-3.809-2.275a66.586,66.586,0,0,0-26.047-9.116q-1.678-.209-3.373-.326c-.721-.049-1.423-.083-2.1-.1-3-.085-5.352,1.808-7.276,4.113-2.334,2.791-2.413,5.193-3.022,8.494-1.074,5.845.973,11.091,4.157,15.641,1.639,2.345,5.832,4.252,8.435,3.062l.051-.025c5.056-2.339,15.168-3.734,29.24-4.032a8.15,8.15,0,0,0,7.9-6.748A8.48,8.48,0,0,0,1034.59,453.836Z" transform="translate(-741.144 -410.621)" fill="#edddc6" fill-rule="evenodd"/>
          <path id="Path_11615" data-name="Path 11615" d="M1033.107,455.1l-4.089-2.444c-.582-.349-1.184-.658-1.776-.987l-3.028,9.063.748-10.3a65.535,65.535,0,0,0-11.135-4.43c-1.015,6.113,2.669,14.888,2.669,14.888-4.971-5.047-5.339-12.1-5.172-15.578a59.673,59.673,0,0,0-10.281-1.647,37.735,37.735,0,0,0-6.3.032c-9.64,1-7.536,30.891,5.388,24.912.353-.163.734-.317,1.118-.47a13.2,13.2,0,0,1-.985-16.959c-2.144,8.213,2.888,14.341,4.98,15.711,7.092-1.783,16.91-2.436,25.442-2.618A4.937,4.937,0,0,0,1033.107,455.1Z" transform="translate(-741.063 -408.904)" fill="#f5efce" fill-rule="evenodd"/>
        </g>
        <path id="Path_11616" data-name="Path 11616" d="M991.568,535.934l-.265.146c-1.736.937-3.531,1.772-5.339,2.557a83.327,83.327,0,0,1-10.372,3.741,57.711,57.711,0,0,1-12.992,2.275,32.495,32.495,0,0,1-13.195-1.838,23.9,23.9,0,0,1-10.987-8.6,32.206,32.206,0,0,1-3.912-7.659,12.849,12.849,0,0,1-1.133-5.1c.1-1.766.683-4.254,2.013-5.538-2.428,2.339-3.434,5.39-4.153,8.579a18.974,18.974,0,0,0,.693,11.537c2.345,5.534,7.76,8.735,13.286,10.444,22.025,6.8,46.017-5.881,46.017-5.881Z" transform="translate(105.708 137.746)" fill="#963738" fill-rule="evenodd"/>
        <path id="Path_11617" data-name="Path 11617" d="M1025.519,564.643c-19.925-1.448-52.86-16.954-54.484-17.724l1.671-3.521c.453.216,45.406,21.38,60.578,16.87,6.978-2.074,9.185-10.638,8.276-18.2-.966-8.04-5.766-16.935-13.992-17.3-17.392-.873-49.54-1.639-49.863-1.645l.093-3.895c.321.008,32.522.772,49.965,1.647,10.5.6,16.512,11.114,17.665,20.727,1.1,9.19-1.88,19.68-11.034,22.4A25.5,25.5,0,0,1,1025.519,564.643Z" transform="translate(150.706 141.427)" fill="#1b4d24" fill-rule="evenodd"/>
        <g id="Group_4338" data-name="Group 4338" transform="translate(1076.96 634.61)">
          <path id="Path_11618" data-name="Path 11618" d="M976.781,578.461c-7.024-.575-13.089-4.836-15.087-10.606a14.085,14.085,0,0,1,1.112-11.421,13.4,13.4,0,0,1-.818-18.4c-.552-.448-1.121-.892-1.7-1.347-2.819-2.195-6.014-4.684-8.293-8.737-1.977-3.514-2.569-6.637-1.819-9.547.763-2.948,2.9-5.464,6.344-7.483,5.312-3.113,11.715-4.419,19.029-3.889a65.516,65.516,0,0,1,16.861,3.785c11.677,4.081,18.107,10.146,19.111,18.025a26.622,26.622,0,0,1-.207,6.6,19.8,19.8,0,0,0-.212,4.726,21.2,21.2,0,0,0,2.036,5.665c1.556,3.364,3.318,7.175,2.548,11.6-.744,4.278-3.65,7.963-8.881,11.264a77.506,77.506,0,0,1-13.724,6.553c-5.032,1.918-10.463,3.635-16.1,3.225Z" transform="translate(-949.858 -506.911)" fill="#62615f" fill-rule="evenodd"/>
          <path id="Path_11619" data-name="Path 11619" d="M1006.435,542.92a53.058,53.058,0,0,0-1.675,7.6c-2.662-4.582.315-13.438.315-13.438l0,0c-.045-3.263.932-6.555.52-9.807-.99-7.754-9.154-12.264-16.534-14.842-10.609-3.707-22.939-5.893-32.634-.211-2.015,1.18-3.954,2.833-4.542,5.1s.3,4.631,1.442,6.663a17.19,17.19,0,0,0,1.732,2.482,35.562,35.562,0,0,0,14.1,8.862,47.324,47.324,0,0,0,5.068,1.055,102.322,102.322,0,0,0,13.2,1.011,109.43,109.43,0,0,1-23.854.3,10.55,10.55,0,0,0-3.022,6.731,10.016,10.016,0,0,0,3.757,7.942c4.976,3.7,22.869,5.064,22.869,5.064-20.243,1.723-22.689-1.6-22.723-1.649a10.231,10.231,0,0,0-1.148,8.75c1.641,4.728,6.735,7.591,11.725,8s9.915-1.186,14.593-2.967c2.165-.825,4.318-1.7,6.424-2.675.1-.044.169-.076.286-.127.4-.186.791-.4,1.19-.592,5.058-2.876,6.809-8.957,6.809-8.957a19.969,19.969,0,0,1-.63,5.447c2.867-1.975,5.487-4.561,6.073-7.942C1010.5,550.611,1008.063,546.856,1006.435,542.92Z" transform="translate(-947.801 -504.858)" fill="#fefefe" fill-rule="evenodd"/>
          <g id="Group_4337" data-name="Group 4337" transform="translate(3.912 12.193)">
            <path id="Path_11620" data-name="Path 11620" d="M984.036,567.053a47.485,47.485,0,0,1-12.791-4.942c-.482-1.391,1.419-2.322,2.87-2.567q8.5-1.434,17-2.867c.123-4.5-4.9-7.312-9.331-8.095s-9.4-.778-12.717-3.821c-1.362-1.252-2.32-3.29-1.493-4.944s2.931-2.1,4.758-2.351l18.76-2.626a2.979,2.979,0,0,0,2.347-1.121c.746-1.349-.859-2.776-2.265-3.409-6.079-2.73-12.8-3.565-19.308-5.011s-13.159-3.707-17.735-8.549a13.819,13.819,0,0,1-2.159-4.073c-.026.082-.061.161-.085.243-.583,2.256.3,4.631,1.442,6.663a17.288,17.288,0,0,0,1.732,2.483,35.561,35.561,0,0,0,14.1,8.862,47.843,47.843,0,0,0,5.068,1.055,102.3,102.3,0,0,0,13.2,1.011,109.411,109.411,0,0,1-23.854.3,10.55,10.55,0,0,0-3.022,6.731,10.018,10.018,0,0,0,3.758,7.942c4.976,3.7,22.869,5.064,22.869,5.064-20.243,1.723-22.689-1.6-22.723-1.649a10.238,10.238,0,0,0-1.148,8.75c1.641,4.73,6.735,7.591,11.725,8A25.613,25.613,0,0,0,984.036,567.053Z" transform="translate(-951.707 -512.677)" fill="#e1dfd9" fill-rule="evenodd"/>
            <path id="Path_11621" data-name="Path 11621" d="M979.717,531.032c-3.024,1.362-3.905,4.758-4.819,8.175a18.122,18.122,0,0,0,3.6-6.333,19.9,19.9,0,0,1-.628,5.447c2.734-1.884,5.221-4.331,5.957-7.483A5.937,5.937,0,0,0,979.717,531.032Z" transform="translate(-925.861 -492.742)" fill="#e1dfd9" fill-rule="evenodd"/>
          </g>
        </g>
        <g id="Group_4339" data-name="Group 4339" transform="translate(1003.452 667.77)">
          <path id="Path_11622" data-name="Path 11622" d="M938.459,576.557a9.626,9.626,0,0,1-.88.649,3.514,3.514,0,0,1-2.269.459l-.047,0c-6.174-.448-11.645-14.108-14.36-22.211-3.768-11.239-6.879-25.1-.288-27.314a4.344,4.344,0,0,1,1.706-.273,3.011,3.011,0,0,1,.56.093v0c.021,0,5.762,1.165,9.552,1.44a11.024,11.024,0,0,0,2.205.011c1.4-.2,3.548-1.364,5.627-2.489a40.957,40.957,0,0,1,5.073-2.457,13.142,13.142,0,0,1,3.146-1.362,13.359,13.359,0,0,1,4.631-.469c7.832.571,15.254,7.824,18.052,17.637a26.989,26.989,0,0,1-.292,16.551c-1.9,5.159-5.43,8.708-9.941,9.991a11.614,11.614,0,0,1-1.358.3l-.023.309-1.848-.133a13.811,13.811,0,0,1-1.419-.029c-.338-.025-.679-.064-1.017-.112-3.3-.072-10.9.262-13.478,4.612-.161.4-.332.78-.52,1.15l-.065.173a2.959,2.959,0,0,0-.14.4Z" transform="translate(-913.221 -522.592)" fill="#cb4e3b" fill-rule="evenodd"/>
          <path id="Path_11623" data-name="Path 11623" d="M968.279,539.77c-3.144-11.034-12.222-18.12-20.276-15.825a11.38,11.38,0,0,0-2.838,1.252h0c-3.6,1.273-8.217,4.671-11.262,5.111s-12.529-1.493-12.529-1.493a2.052,2.052,0,0,0-1.155.144c-5.684,1.907-.277,19.5,1.516,24.848,1.146,3.417,7.137,20.486,12.611,20.883a1.866,1.866,0,0,0,1.154-.144,8.5,8.5,0,0,0,2.573-2.751l.081.207a8.065,8.065,0,0,1,.321-.918,13.089,13.089,0,0,0,.546-1.21c3-5.308,11.323-5.8,15.4-5.7a11.878,11.878,0,0,0,2.3.137h.009v0a11.143,11.143,0,0,0,2.65-.4C967.442,561.613,971.421,550.808,968.279,539.77Z" transform="translate(-912.205 -521.566)" fill="#f8db00" fill-rule="evenodd"/>
          <path id="Path_11624" data-name="Path 11624" d="M934.347,571.915c-5.475-.4-11.465-17.466-12.611-20.883-1.793-5.348-7.2-22.941-1.516-24.848a2.052,2.052,0,0,1,1.155-.144c10.511,2.719,16.062,15.062,17.208,18.479,1.791,5.346,4.341,22.433-3.081,27.252A1.865,1.865,0,0,1,934.347,571.915Z" transform="translate(-912.205 -518.791)" fill="#f4c200" fill-rule="evenodd"/>
          <path id="Path_11625" data-name="Path 11625" d="M956.344,531.532c-9.877-3.536-12.288,8.158-17.284,13.017s-20.708-7.976-20.716-7.983c.894,3.792,2,7.306,2.649,9.228,1.146,3.417,7.137,20.486,12.611,20.883a1.864,1.864,0,0,0,1.155-.142,8.506,8.506,0,0,0,2.573-2.753l.08.209a7.957,7.957,0,0,1,.321-.918c.2-.387.379-.793.545-1.209,3-5.31,11.324-5.8,15.4-5.7a11.874,11.874,0,0,0,2.3.135l.008,0v0a11.362,11.362,0,0,0,2.649-.4c5.667-1.616,9.3-7.448,9.873-14.6A26.82,26.82,0,0,0,956.344,531.532Z" transform="translate(-911.474 -513.358)" fill="#f3bd00" fill-rule="evenodd"/>
          <path id="Path_11626" data-name="Path 11626" d="M934.765,563.442c5.718-3.713,5.513-14.69,4.3-21.987-5,4.855-20.71-7.976-20.716-7.98.895,3.791,2,7.3,2.649,9.228,1.144,3.417,7.137,20.486,12.609,20.883A1.873,1.873,0,0,0,934.765,563.442Z" transform="translate(-911.466 -510.462)" fill="#efad07" fill-rule="evenodd"/>
          <path id="Path_11627" data-name="Path 11627" d="M931.112,546.5c3.878,11.569,5.1,21.589,2.743,22.38s-7.422-7.944-11.3-19.511-5.1-21.59-2.742-22.383S927.234,534.934,931.112,546.5Z" transform="translate(-911.177 -517.749)" fill="#cb4e3b" fill-rule="evenodd"/>
          <path id="Path_11628" data-name="Path 11628" d="M935.512,538.115l-.727-2.123-8.308,2.85a6.524,6.524,0,1,0,.732,2.121Z" transform="translate(-915.095 -507.937)" fill="#f3bd00" fill-rule="evenodd"/>
          <path id="Path_11629" data-name="Path 11629" d="M931.078,526.046s4.654-2.353,9.086-.417,9.993,9.7,6.934,10.727C940.938,538.42,943.9,526.082,931.078,526.046Z" transform="translate(-897.28 -520.059)" fill="#fefefe" fill-rule="evenodd"/>
        </g>
        <path id="Path_11630" data-name="Path 11630" d="M1099.821,632.669c20.972-29.043,22.2-67.266,33.245-101.465-19.97,34.979-37.846,71.165-59.017,105.436-5.153,8.338-10.609,16.686-18.075,23.038-5.58,4.749-12.326,8.467-18.155,12.905,2.208-.575,4.406-1.188,6.586-1.871C1066.157,663.894,1086.478,651.152,1099.821,632.669Z" transform="translate(225.139 154.776)" fill="#fdf6a5" fill-rule="evenodd"/>
        <path id="Path_11631" data-name="Path 11631" d="M1130.284,490.9c-17.2-45.7-37.474-73.817-38.331-74.992l-.5.364c.156-.653.247-1.08.247-1.08l-6.377.237-7.124,2.356a18.372,18.372,0,0,1,7.653,6.441c11.4,17.041,73.432,116.55,54.118,236.385-.328,2.022-.713,4.056-1.085,6.09-2.007,9.2-7.843,26.263-7.885,26.836l7.471-2.351,8.644-16.741s-.478-1.349-1.195-3.147l1.969.385C1162.11,598.724,1146.166,533.1,1130.284,490.9Z" transform="translate(270.147 25.469)" fill="#cacbcb" fill-rule="evenodd"/>
        <path id="Path_11632" data-name="Path 11632" d="M1027.567,729.53l-7.967-5.6,3.984,2.8-3.988-2.793c.579-.831,57.765-85.248,42.963-283.246l9.714-.725C1087.369,641.906,1030.015,726.046,1027.567,729.53Z" transform="translate(204.828 53.085)" fill="#cacbcb" fill-rule="evenodd"/>
        <path id="Path_11633" data-name="Path 11633" d="M1073.094,487.283l16.16-12.666a289.579,289.579,0,0,1,68.336-39.832l1.26-.505c-83.19-51.6-143.9-34.359-143.9-34.359Z" transform="translate(199.647 5.372)" fill="#e62129" fill-rule="evenodd"/>
        <path id="Path_11634" data-name="Path 11634" d="M1012.554,480.2,998.4,465.327a291.269,291.269,0,0,0-61.855-49.3l-1.174-.683c89.78-39.02,147.361-13.18,147.361-13.18Z" transform="translate(110.955 1.606)" fill="#e62129" fill-rule="evenodd"/>
        <path id="Path_11635" data-name="Path 11635" d="M1061.862,399.184l-19.816-1.44-.258.195A272.089,272.089,0,0,0,972.218,475.2l-.347.577,24.711-2.546c25.286-2.605,76.194.842,103.579,8.073l19.851,5.244-.089-.216A272.116,272.116,0,0,0,1061.862,399.184Z" transform="translate(151.638 6.028)" fill="#e62129" fill-rule="evenodd"/>
        <path id="Path_11636" data-name="Path 11636" d="M945.515,424.17c15.356-9,32.033-16.832,49.81-17.737s36.884,6.433,45.825,21.824c1.2,2.066,2.231,4.43,1.787,6.779-.412,2.186-2.019,3.925-3.527,5.563a166,166,0,0,0-26.992,39.627l19.156-1.25c1.81-6.128,6.132-11.144,10.34-15.954,5.735-6.555,11.549-13.184,18.718-18.134,16.711-11.539,38.464-12.491,58.713-10.926a10.316,10.316,0,0,1,3.453.677,10.571,10.571,0,0,1,3.857,3.681q14.226,19.186,28.453,38.379c1.7,2.3,3.461,4.728,3.855,7.564a328.026,328.026,0,0,1,8.135-43.232c1.469-5.684,3.146-11.448,6.5-16.265,4.385-6.289,11.2-10.37,17.807-14.261-19.762-11.313-43.9-10.727-66.648-9.82l-42.02,1.675c-19.574-9.8-43.363-9.391-65.181-7.642-28.248,2.267-57.1,6.4-81.981,19.959C937.816,416.534,943.276,422.311,945.515,424.17Z" transform="translate(111.186 1.568)" fill="#c7252e" fill-rule="evenodd"/>
        <g id="Group_4340" data-name="Group 4340" transform="translate(835.818 680.389)">
          <path id="Path_11637" data-name="Path 11637" d="M1547.542,630.506c-5.587-33.076-43.705-49.1-72.072-57.2-15.986-4.565-47.21-15.267-62.557-7.856-8.164,3.944-16.83,17.756-24.262,23.829-8.492,6.94-17.524,13.21-26.5,19.494-23.127,16.182-46.5,32.5-72.629,43.181-47.626,19.46-100.857,18.832-152.19,15.366-22.332-1.508-44.816-3.529-66.268-9.915-58.895-17.527-90.154-61.459-113.344-114.763-4.758-10.936-.875-9.579-12.463-11.839-6.619-1.292-15.787.858-22.461,1.651-13.73,1.633-27.531,4.284-40.513,9.158-17.986,6.756-36.22,18.189-42.435,37.434C822.385,633.1,911.777,710.37,1039.51,751.636c50.684,16.375,99.78,24.611,141.669,25.224,41.538,5.453,91.308,4.407,143.828-4.464C1457.367,750.041,1557,686.516,1547.542,630.506Z" transform="translate(-833.758 -526.508)" fill="#efefef" fill-rule="evenodd"/>
          <path id="Path_11638" data-name="Path 11638" d="M1340.535,547.538c-8.165,3.944-16.83,17.754-24.263,23.829-8.492,6.94-17.526,13.21-26.5,19.492-23.127,16.187-46.5,32.5-72.628,43.183-47.628,19.46-100.858,18.832-152.19,15.367-22.332-1.508-44.816-3.529-66.268-9.915-44.241-13.165-72.886-41.234-94.233-76.978,13.719,30.259,36.888,56.583,63.927,76.323,38.787,28.316,85.037,44.562,131.485,56.761,26.664,7,53.773,12.823,81.294,14.491,32.156,1.95,64.469-1.8,95.956-8.606,31.361-6.777,62.447-16.76,89.5-34.01s49.935-42.35,60.146-72.768a121.109,121.109,0,0,0,5.764-28.519,195.413,195.413,0,0,0-29.428-10.792C1387.105,550.828,1355.882,540.127,1340.535,547.538Z" transform="translate(-759.325 -510.242)" fill="#cacbcb" fill-rule="evenodd"/>
          <path id="Path_11639" data-name="Path 11639" d="M1182.843,784.353c-52.458-3.715-93.093-11-142.47-26.958-62.263-20.114-117.535-49.326-155.633-82.258-38.971-33.687-55.5-67.509-46.546-95.235,5.627-17.417,20.691-30.836,44.774-39.882,11.846-4.447,25.009-7.426,41.424-9.378,1.569-.188,3.28-.453,5.064-.725,6.052-.932,12.916-1.988,18.6-.882l1.842.355c7.572,1.453,9.247,1.975,11.3,8.09.476,1.421,1.068,3.189,2.146,5.663,27.878,64.079,61.038,97.749,110.883,112.583,21.435,6.38,44.071,8.314,65.42,9.763,50.6,3.417,103.856,3.952,150.454-15.087,25.853-10.564,49.244-26.935,71.867-42.767l1.3-.909c8.359-5.849,17-11.894,24.971-18.409a83.727,83.727,0,0,0,9.025-9.528c5.122-5.944,10.418-12.091,16.009-14.791,15.047-7.27,41.915.7,59.7,5.967,2.024.6,3.91,1.161,5.623,1.649,45.078,12.871,70.26,33.158,74.844,60.3,4.851,28.732-16.4,59.806-59.833,87.5-42.46,27.073-101.378,47.981-165.895,58.878-42.763,7.223-107.766,8.693-144.872,6.065Zm.632-8.678h0c35.69,2.595,92.44,3.461,142.942-5.066,63.515-10.729,121.4-31.242,163-57.769,40.627-25.9,60.637-54.183,56.338-79.632-4.041-23.924-27.356-42.124-69.3-54.1-1.734-.5-3.647-1.064-5.7-1.673-15.618-4.629-41.758-12.383-54.092-6.42-4.134,2-8.894,7.519-13.5,12.861-3.459,4.011-6.724,7.8-10,10.475-8.194,6.7-16.959,12.829-25.436,18.758l-1.3.909c-22.974,16.077-46.729,32.7-73.389,43.6-48.066,19.64-102.384,19.126-153.927,15.648-21.771-1.474-44.913-3.459-67.118-10.067C1005.9,643.518,975.393,590.362,956.2,546.25c-1.21-2.783-1.891-4.809-2.387-6.289-.239-.713-.505-1.508-.677-1.869a39.436,39.436,0,0,0-4.7-1.051l-1.865-.361c-4.356-.848-10.5.1-15.922.935-1.88.29-3.68.569-5.333.763-15.776,1.876-28.362,4.713-39.6,8.936-21.748,8.168-35.239,19.94-40.1,34.983-7.934,24.558,7.773,55.435,44.226,86.944,37.326,32.266,91.638,60.939,152.93,80.74C1091.5,765.724,1147.784,773.078,1183.475,775.675Z" transform="translate(-835.818 -528.56)" fill="#b7b7b8" fill-rule="evenodd"/>
          <path id="Path_11640" data-name="Path 11640" d="M922.967,538.814S816.389,567.5,902.809,641.8c0,0-63.109-69.721,31.255-88.2Z" transform="translate(-798.824 -517.131)" fill="#f7f8f8" fill-rule="evenodd"/>
        </g>
        <g id="Group_4341" data-name="Group 4341" transform="translate(1099.325 481.531)">
          <path id="Path_11641" data-name="Path 11641" d="M970.408,588.158c.463-40.868,5.445-91.26,18.906-151.518l-9.507-2.123c-13.586,60.817-18.762,111.57-19.373,152.831A44.394,44.394,0,0,1,970.408,588.158Z" transform="translate(-960.434 -434.517)" fill="#cacbcb" fill-rule="evenodd"/>
          <path id="Path_11642" data-name="Path 11642" d="M972.328,540.292c-2.024.719-6.314.95-9.985.916,6.05,44.241,16.762,66.583,17.682,68.406l8.7-4.383C988.506,604.8,978.234,583.759,972.328,540.292Z" transform="translate(-958.307 -316.626)" fill="#cacbcb" fill-rule="evenodd"/>
        </g>
        <g id="Group_4342" data-name="Group 4342" transform="translate(945.715 653.16)">
          <path id="Path_11643" data-name="Path 11643" d="M1119.3,633.471c-115.327-8.384-208.291-57.913-225.322-115.786a2.072,2.072,0,0,0-4.026.266q-.657,4.165-.968,8.414c-6.208,85.388,94.8,162.319,225.61,171.83s241.883-52,248.092-137.384a102.98,102.98,0,0,0-.307-18.191C1344.244,602.4,1240.738,642.3,1119.3,633.471Z" transform="translate(-886.765 -515.09)" fill="#efefef" fill-rule="evenodd"/>
          <path id="Path_11644" data-name="Path 11644" d="M1092.247,602.2C1019.1,596.885,954.986,575,913.5,544.949c43.234,57.19,109.428,97.419,180.722,104.025,23.478,2.176,47.2.848,70.52-2.635,19.12-2.855,38.254-7.238,55.469-16.041,23.594-12.064,42.369-31.792,58.7-52.667q4.726-6.039,9.217-12.256C1242.879,593.017,1171.376,607.956,1092.247,602.2Z" transform="translate(-859.135 -483.065)" fill="#cacbcb" fill-rule="evenodd"/>
          <path id="Path_11645" data-name="Path 11645" d="M1365.34,543.012l-1-9.6-2.8,9.232c-18.1,59.687-121.743,98.153-241.076,89.475-113.752-8.272-207.6-57.091-223.865-115.788a24.538,24.538,0,0,1-7.046-.651c-.036.129-.108.239-.133.372a104.365,104.365,0,0,0-1.353,10.761c-6.278,86.322,95.738,164.341,227.409,173.915s243.9-52.866,250.176-139.188a105.559,105.559,0,0,0-.311-18.532ZM1115.756,696.845h0C986.227,687.427,885.83,611.28,891.95,527.1c.211-2.912.56-5.859,1.034-8.779,17.164,59.966,112.244,109.331,227.2,117.687,115.317,8.386,216.361-27.163,241.83-83.578q.07,4.453-.245,8.832C1355.642,645.44,1245.284,706.263,1115.756,696.845Z" transform="translate(-887.79 -515.683)" fill="#b7b7b8" fill-rule="evenodd"/>
        </g>
        <path id="Path_11646" data-name="Path 11646" d="M955.729,446.849a6.418,6.418,0,0,1,1.332.636c2.635,1.793,2.827,5.756,1.036,8.331a15.78,15.78,0,0,1-5.2,4.183l8.448-3.047a8.8,8.8,0,0,0,5.942-8.583,6.424,6.424,0,0,0-2.611-5.269,11.5,11.5,0,0,0-9.069-1.706c-3.544.7-8.177,2.664-10.3,5.745C946.774,445,952.7,445.743,955.729,446.849Z" transform="translate(122.028 54.385)" fill="#1b4d24" fill-rule="evenodd"/>
        <path id="Path_11647" data-name="Path 11647" d="M961.154,457.809a6.306,6.306,0,0,1,1.332.634c2.637,1.8,2.827,5.758,1.036,8.331a15.8,15.8,0,0,1-5.2,4.183q4.222-1.523,8.446-3.047a8.8,8.8,0,0,0,5.942-8.581,6.424,6.424,0,0,0-2.609-5.272,11.5,11.5,0,0,0-9.069-1.7c-3.544.7-8.177,2.664-10.3,5.743C952.2,455.963,958.13,456.7,961.154,457.809Z" transform="translate(128.074 66.6)" fill="#1b4d24" fill-rule="evenodd"/>
        <path id="Path_11648" data-name="Path 11648" d="M1010.466,572.808a17.855,17.855,0,0,0,3.241.632,58.112,58.112,0,0,0,6.27.423,17.151,17.151,0,0,0,7.283-1.119,7.207,7.207,0,0,0,4.43-5.532,9.805,9.805,0,0,0-.766-4.178,13.521,13.521,0,0,0-3.246-5.551c-5.8-5.335-19.483-2.4-21.363,5.8-.7,3.041-.607,6.921,2.33,8.714A8.31,8.31,0,0,0,1010.466,572.808Z" transform="translate(189.626 181.066)" fill="#139944" fill-rule="evenodd"/>
        <path id="Path_11649" data-name="Path 11649" d="M1015.573,574.763c2.415-.943,8.308-3.859,6.684-7.261-1.533-3.214-8.331-2.281-10.974-1.554a3.125,3.125,0,0,0-1.224.567c-1.457,1.241-.8,4.878-.476,6.5a3.52,3.52,0,0,0,.368,1.1c.634,1.083,2.1,1.307,3.347,1.241A7.978,7.978,0,0,0,1015.573,574.763Z" transform="translate(193.188 192.707)" fill="#139944" fill-rule="evenodd"/>
        <path id="Path_11650" data-name="Path 11650" d="M1006.069,569.659c1.41.839,5.172,2.616,6.3.262,1.066-2.22-2.021-5.345-3.409-6.4a1.826,1.826,0,0,0-.763-.389c-1.2-.207-2.819,1.745-3.527,2.628a2.733,2.733,0,0,0-.429.683,2.389,2.389,0,0,0,.647,2.29A4.614,4.614,0,0,0,1006.069,569.659Z" transform="translate(187.603 190.349)" fill="#139944" fill-rule="evenodd"/>
        <g id="Group_4343" data-name="Group 4343" transform="translate(1269.6 715.231)">
          <path id="Path_11651" data-name="Path 11651" d="M1063.729,551.347s-25.546-1.011-5.986,24C1057.744,575.343,1029.749,547.348,1063.729,551.347Z" transform="translate(-1034.336 -538.44)" fill="#0da945" fill-rule="evenodd"/>
          <path id="Path_11652" data-name="Path 11652" d="M1049.966,573.845s-21.45-21.45,4.589-18.386C1054.555,555.459,1034.978,554.685,1049.966,573.845Z" transform="translate(-1040.179 -533.755)" fill="#0da945" fill-rule="evenodd"/>
          <path id="Path_11653" data-name="Path 11653" d="M1044.484,563.311s-11.258-18.839,6.468-12.089C1050.952,551.222,1037.355,547.221,1044.484,563.311Z" transform="translate(-1040.959 -539.772)" fill="#0da945" fill-rule="evenodd"/>
          <path id="Path_11654" data-name="Path 11654" d="M1048.808,560.374s-11.26-18.841,6.467-12.089C1055.275,548.285,1041.678,544.282,1048.808,560.374Z" transform="translate(-1036.141 -543.045)" fill="#0da945" fill-rule="evenodd"/>
          <path id="Path_11655" data-name="Path 11655" d="M1052.98,558.587s-11.26-18.841,6.467-12.089C1059.447,546.5,1045.852,542.5,1052.98,558.587Z" transform="translate(-1031.491 -545.037)" fill="#0da945" fill-rule="evenodd"/>
        </g>
        <path id="Path_11656" data-name="Path 11656" d="M905.489,429.868c-2.466-.852,60.8,17.426,45.374,29.69C944.439,464.663,922.668,435.8,905.489,429.868Z" transform="translate(77.574 41.8)" fill="#afd696" fill-rule="evenodd"/>
        <path id="Path_11657" data-name="Path 11657" d="M1252.49,437.17c-80.325-49.821-139.309-36.495-145.722-34.827l-19.926-1.451c-6.1-2.578-62.54-24.3-149.23,13.383l-5.3,2.3,6.149,3.569a286.6,286.6,0,0,1,61.231,48.8l12.622,13.258,3.434,2.556,25.224-2.6c23.55-2.425,74.538.6,102.535,7.991l20.382,5.384,4.062-1.332,15.208-11.92a286.534,286.534,0,0,1,67.617-39.419l3.778-1.5-2.064-4.2ZM945.214,417.4h0c70.184-28.906,119.846-17.5,134.919-12.685a273.513,273.513,0,0,0-64.674,72.324l-11.537-12.119a292.385,292.385,0,0,0-58.708-47.52ZM1145,484.508h0c-29.043-7.669-80.091-10.681-104.626-8.154l-18.834,1.939a267.749,267.749,0,0,1,65.485-71.527l17.623,1.281a267.773,267.773,0,0,1,54.418,80.175L1145,484.508Zm34.553-6.817h0l-13.96,10.943a273.512,273.512,0,0,0-53.61-81.4c14.535-2.552,66.031-7.566,132.534,31.928A292.389,292.389,0,0,0,1179.552,477.691Z" transform="translate(107.546 0)" fill="#ad2f33" fill-rule="evenodd"/>
        <path id="Path_11658" data-name="Path 11658" d="M1029.2,405.774c9.941,5.337,11.992,20.852,4.58,34.655s-21.478,20.668-31.418,15.33-11.99-20.852-4.578-34.655S1019.263,400.437,1029.2,405.774Z" transform="translate(175.559 12.961)" fill="#fff" fill-rule="evenodd"/>
        <path id="Path_11659" data-name="Path 11659" d="M1035.758,420.432c5.836,2.5,7.1,9.625,2.829,15.931s-12.472,9.393-18.31,6.9-7.1-9.625-2.829-15.929S1029.92,417.939,1035.758,420.432Z" transform="translate(199.615 30.353)" fill="#fff" fill-rule="evenodd"/>
        <path id="Path_11660" data-name="Path 11660" d="M947.573,407.036c37.652-12.182,68.158-12.918,89.149-10.643-1.362,14.709-15.419,29.27-35.412,35.063-24.135,6.993-47.774-1.425-52.815-18.8A23.956,23.956,0,0,1,947.573,407.036Z" transform="translate(124.556 3.388)" fill="#fff" fill-rule="evenodd"/>
        <path id="Path_11661" data-name="Path 11661" d="M1084.891,423.483c.383,7.811-6.836,13.057-16.125,11.717s-17.126-8.756-17.509-16.567,6.836-13.057,16.125-11.717S1084.508,415.672,1084.891,423.483Z" transform="translate(240.101 16.017)" fill="#fff" fill-rule="evenodd"/>
      </g>
      <path id="Path_11662" data-name="Path 11662" d="M12529.453,1071.3s-45.462-56.956,6.994-92.368-80.905-40.254-95.219,8.519,14.98,50.035,0,53.682-85.345-86.756,9.471-169.695,125.261-94.08,102.088-119.861-128.925,52.2-153.215,53.216-62.771-6-31.429-64.312,11.73-119.851-10.9-139.843-55.844-38.04-70.71-29.945-12.461,39.54,9.916,65.414,18.952,46.073,8.757,48.39-35.733-54.846-58.142-36.535,31.223,62.564,0,92.518-148.595,47.232-167.5,3.673,11.809-72.459,18.078-102.455,2.033-131.469-196.469-41.061S11723.2,781.024,11723.2,781.024V1071.3Z" transform="translate(-11822.999 61.497)" fill="url(#linear-gradient)"/>
      <path id="Path_11663" data-name="Path 11663" d="M11770.129,974.2s139.565-91.093,291.515,0,158.91,158.91,158.91,158.91h-450.425Z" transform="translate(-11823 -70)" fill="url(#linear-gradient-2)"/>
      <path id="Path_11665" data-name="Path 11665" d="M12682.739,166.984c45.374,75.128,8.4,177.245-68.7,204.661s-44.785-36.172-5.869-68.646,74.547-84.474,48.192-79.432-2.75,20.766-19.828,24.182-9.267-15.807,10.052-46.318,19.1-51.313,0-70.557S12637.365,91.856,12682.739,166.984Z" transform="translate(-8791.129 8617.541) rotate(-41)" fill="#a5e7ff"/>
      <path id="Path_11666" data-name="Path 11666" d="M12546.5,378.338c2.859,26.037-15.084,20.355,6.541,31.98s-33.624,37.125-41.26-6.818S12543.636,352.3,12546.5,378.338Z" transform="translate(-8791.129 8617.541) rotate(-41)" fill="#a5e7ff"/>
      <path id="Path_11667" data-name="Path 11667" d="M12586.339,39.7c-2.475-5.273,99.354-22.216,133.177,61.118s-36.6,30.969-51.208-5.7S12588.813,44.973,12586.339,39.7Z" transform="translate(-8791.129 8617.541) rotate(-41)" fill="#a5e7ff"/>
      <ellipse id="Ellipse_269" data-name="Ellipse 269" cx="13.5" cy="14" rx="13.5" ry="14" transform="translate(760 796)" fill="#a5e7ff"/>
    </g>
  </g>
</svg>
