<svg xmlns="http://www.w3.org/2000/svg" xmlns:xlink="http://www.w3.org/1999/xlink" width="1211" height="1075" viewBox="0 0 1211 1075">
  <defs>
    <clipPath id="clip-path">
      <rect id="Rectangle_10229" data-name="Rectangle 10229" width="1211" height="1075" transform="translate(712)" fill="#fff" stroke="#707070" stroke-width="1"/>
    </clipPath>
    <linearGradient id="linear-gradient" x1="0.5" x2="0.5" y2="0.842" gradientUnits="objectBoundingBox">
      <stop offset="0" stop-color="#53b84f"/>
      <stop offset="1" stop-color="#3e8e3b"/>
    </linearGradient>
  </defs>
  <g id="Mask_Group_4" data-name="Mask Group 4" transform="translate(-712)" clip-path="url(#clip-path)">
    <g id="Group_4345" data-name="Group 4345">
      <path id="Path_11563" data-name="Path 11563" d="M12792.4,0l-257.359,1074.8h1210.64V0Z" transform="translate(-11823)" fill="url(#linear-gradient)"/>
      <g id="Group_3477" data-name="Group 3477" transform="translate(6455.182 -1173.486) rotate(90)" opacity="0.541">
        <ellipse id="Ellipse_51" data-name="Ellipse 51" cx="3.735" cy="2.988" rx="3.735" ry="2.988" transform="translate(1380.661 4436.706)" fill="#94eb91"/>
        <circle id="Ellipse_142" data-name="Ellipse 142" cx="3.735" cy="3.735" r="3.735" transform="translate(1380.661 4545.768)" fill="#94eb91"/>
        <circle id="Ellipse_55" data-name="Ellipse 55" cx="3.735" cy="3.735" r="3.735" transform="translate(1380.661 4490.49)" fill="#94eb91"/>
        <circle id="Ellipse_123" data-name="Ellipse 123" cx="3.735" cy="3.735" r="3.735" transform="translate(1380.661 4599.552)" fill="#94eb91"/>
        <circle id="Ellipse_189" data-name="Ellipse 189" cx="3.735" cy="3.735" r="3.735" transform="translate(1380.661 4672.758)" fill="#94eb91"/>
        <ellipse id="Ellipse_52" data-name="Ellipse 52" cx="3.735" cy="2.988" rx="3.735" ry="2.988" transform="translate(1380.661 4454.633)" fill="#94eb91"/>
        <circle id="Ellipse_128" data-name="Ellipse 128" cx="3.735" cy="3.735" r="3.735" transform="translate(1380.661 4563.696)" fill="#94eb91"/>
        <circle id="Ellipse_67" data-name="Ellipse 67" cx="3.735" cy="3.735" r="3.735" transform="translate(1380.661 4508.417)" fill="#94eb91"/>
        <circle id="Ellipse_124" data-name="Ellipse 124" cx="3.735" cy="3.735" r="3.735" transform="translate(1380.661 4618.974)" fill="#94eb91"/>
        <ellipse id="Ellipse_190" data-name="Ellipse 190" cx="3.735" cy="2.988" rx="3.735" ry="2.988" transform="translate(1380.661 4692.18)" fill="#94eb91"/>
        <circle id="Ellipse_56" data-name="Ellipse 56" cx="3.735" cy="3.735" r="3.735" transform="translate(1380.661 4472.562)" fill="#94eb91"/>
        <circle id="Ellipse_125" data-name="Ellipse 125" cx="3.735" cy="3.735" r="3.735" transform="translate(1380.661 4581.624)" fill="#94eb91"/>
        <circle id="Ellipse_191" data-name="Ellipse 191" cx="3.735" cy="3.735" r="3.735" transform="translate(1380.661 4654.83)" fill="#94eb91"/>
        <ellipse id="Ellipse_86" data-name="Ellipse 86" cx="3.735" cy="2.988" rx="3.735" ry="2.988" transform="translate(1380.661 4526.346)" fill="#94eb91"/>
        <circle id="Ellipse_126" data-name="Ellipse 126" cx="3.735" cy="3.735" r="3.735" transform="translate(1380.661 4636.902)" fill="#94eb91"/>
        <ellipse id="Ellipse_192" data-name="Ellipse 192" cx="3.735" cy="2.988" rx="3.735" ry="2.988" transform="translate(1380.661 4710.108)" fill="#94eb91"/>
        <ellipse id="Ellipse_57" data-name="Ellipse 57" cx="3.735" cy="2.988" rx="3.735" ry="2.988" transform="translate(1416.517 4436.706)" fill="#94eb91"/>
        <circle id="Ellipse_151" data-name="Ellipse 151" cx="3.735" cy="3.735" r="3.735" transform="translate(1416.517 4545.768)" fill="#94eb91"/>
        <circle id="Ellipse_58" data-name="Ellipse 58" cx="3.735" cy="3.735" r="3.735" transform="translate(1416.517 4490.49)" fill="#94eb91"/>
        <circle id="Ellipse_152" data-name="Ellipse 152" cx="3.735" cy="3.735" r="3.735" transform="translate(1416.517 4599.552)" fill="#94eb91"/>
        <circle id="Ellipse_193" data-name="Ellipse 193" cx="3.735" cy="3.735" r="3.735" transform="translate(1416.517 4672.758)" fill="#94eb91"/>
        <ellipse id="Ellipse_59" data-name="Ellipse 59" cx="3.735" cy="2.988" rx="3.735" ry="2.988" transform="translate(1416.517 4454.633)" fill="#94eb91"/>
        <circle id="Ellipse_153" data-name="Ellipse 153" cx="3.735" cy="3.735" r="3.735" transform="translate(1416.517 4563.696)" fill="#94eb91"/>
        <circle id="Ellipse_68" data-name="Ellipse 68" cx="3.735" cy="3.735" r="3.735" transform="translate(1416.517 4508.417)" fill="#94eb91"/>
        <circle id="Ellipse_154" data-name="Ellipse 154" cx="3.735" cy="3.735" r="3.735" transform="translate(1416.517 4618.974)" fill="#94eb91"/>
        <ellipse id="Ellipse_194" data-name="Ellipse 194" cx="3.735" cy="2.988" rx="3.735" ry="2.988" transform="translate(1416.517 4692.18)" fill="#94eb91"/>
        <circle id="Ellipse_60" data-name="Ellipse 60" cx="3.735" cy="3.735" r="3.735" transform="translate(1416.517 4472.562)" fill="#94eb91"/>
        <circle id="Ellipse_155" data-name="Ellipse 155" cx="3.735" cy="3.735" r="3.735" transform="translate(1416.517 4581.624)" fill="#94eb91"/>
        <circle id="Ellipse_195" data-name="Ellipse 195" cx="3.735" cy="3.735" r="3.735" transform="translate(1416.517 4654.83)" fill="#94eb91"/>
        <ellipse id="Ellipse_87" data-name="Ellipse 87" cx="3.735" cy="2.988" rx="3.735" ry="2.988" transform="translate(1416.517 4526.346)" fill="#94eb91"/>
        <circle id="Ellipse_156" data-name="Ellipse 156" cx="3.735" cy="3.735" r="3.735" transform="translate(1416.517 4636.902)" fill="#94eb91"/>
        <ellipse id="Ellipse_196" data-name="Ellipse 196" cx="3.735" cy="2.988" rx="3.735" ry="2.988" transform="translate(1416.517 4710.108)" fill="#94eb91"/>
        <circle id="Ellipse_8" data-name="Ellipse 8" cx="2.988" cy="2.988" r="2.988" transform="translate(1308.948 4436.706)" fill="#94eb91"/>
        <ellipse id="Ellipse_144" data-name="Ellipse 144" cx="2.988" cy="3.735" rx="2.988" ry="3.735" transform="translate(1308.948 4545.768)" fill="#94eb91"/>
        <ellipse id="Ellipse_39" data-name="Ellipse 39" cx="2.988" cy="3.735" rx="2.988" ry="3.735" transform="translate(1308.948 4490.49)" fill="#94eb91"/>
        <ellipse id="Ellipse_101" data-name="Ellipse 101" cx="2.988" cy="3.735" rx="2.988" ry="3.735" transform="translate(1308.948 4599.552)" fill="#94eb91"/>
        <ellipse id="Ellipse_166" data-name="Ellipse 166" cx="2.988" cy="3.735" rx="2.988" ry="3.735" transform="translate(1308.948 4672.758)" fill="#94eb91"/>
        <circle id="Ellipse_13" data-name="Ellipse 13" cx="2.988" cy="2.988" r="2.988" transform="translate(1308.948 4454.633)" fill="#94eb91"/>
        <ellipse id="Ellipse_130" data-name="Ellipse 130" cx="2.988" cy="3.735" rx="2.988" ry="3.735" transform="translate(1308.948 4563.696)" fill="#94eb91"/>
        <ellipse id="Ellipse_40" data-name="Ellipse 40" cx="2.988" cy="3.735" rx="2.988" ry="3.735" transform="translate(1308.948 4508.417)" fill="#94eb91"/>
        <ellipse id="Ellipse_102" data-name="Ellipse 102" cx="2.988" cy="3.735" rx="2.988" ry="3.735" transform="translate(1308.948 4618.974)" fill="#94eb91"/>
        <circle id="Ellipse_167" data-name="Ellipse 167" cx="2.988" cy="2.988" r="2.988" transform="translate(1308.948 4692.18)" fill="#94eb91"/>
        <ellipse id="Ellipse_21" data-name="Ellipse 21" cx="2.988" cy="3.735" rx="2.988" ry="3.735" transform="translate(1308.948 4472.562)" fill="#94eb91"/>
        <ellipse id="Ellipse_114" data-name="Ellipse 114" cx="2.988" cy="3.735" rx="2.988" ry="3.735" transform="translate(1308.948 4581.624)" fill="#94eb91"/>
        <ellipse id="Ellipse_168" data-name="Ellipse 168" cx="2.988" cy="3.735" rx="2.988" ry="3.735" transform="translate(1308.948 4654.83)" fill="#94eb91"/>
        <circle id="Ellipse_41" data-name="Ellipse 41" cx="2.988" cy="2.988" r="2.988" transform="translate(1308.948 4526.346)" fill="#94eb91"/>
        <ellipse id="Ellipse_103" data-name="Ellipse 103" cx="2.988" cy="3.735" rx="2.988" ry="3.735" transform="translate(1308.948 4636.902)" fill="#94eb91"/>
        <circle id="Ellipse_174" data-name="Ellipse 174" cx="2.988" cy="2.988" r="2.988" transform="translate(1308.948 4710.108)" fill="#94eb91"/>
        <circle id="Ellipse_10" data-name="Ellipse 10" cx="2.988" cy="2.988" r="2.988" transform="translate(1344.805 4436.706)" fill="#94eb91"/>
        <ellipse id="Ellipse_145" data-name="Ellipse 145" cx="2.988" cy="3.735" rx="2.988" ry="3.735" transform="translate(1344.805 4545.768)" fill="#94eb91"/>
        <ellipse id="Ellipse_45" data-name="Ellipse 45" cx="2.988" cy="3.735" rx="2.988" ry="3.735" transform="translate(1344.805 4490.49)" fill="#94eb91"/>
        <ellipse id="Ellipse_109" data-name="Ellipse 109" cx="2.988" cy="3.735" rx="2.988" ry="3.735" transform="translate(1344.805 4599.552)" fill="#94eb91"/>
        <ellipse id="Ellipse_181" data-name="Ellipse 181" cx="2.988" cy="3.735" rx="2.988" ry="3.735" transform="translate(1344.805 4672.758)" fill="#94eb91"/>
        <circle id="Ellipse_14" data-name="Ellipse 14" cx="2.988" cy="2.988" r="2.988" transform="translate(1344.805 4454.633)" fill="#94eb91"/>
        <ellipse id="Ellipse_131" data-name="Ellipse 131" cx="2.988" cy="3.735" rx="2.988" ry="3.735" transform="translate(1344.805 4563.696)" fill="#94eb91"/>
        <ellipse id="Ellipse_46" data-name="Ellipse 46" cx="2.988" cy="3.735" rx="2.988" ry="3.735" transform="translate(1344.805 4508.417)" fill="#94eb91"/>
        <ellipse id="Ellipse_110" data-name="Ellipse 110" cx="2.988" cy="3.735" rx="2.988" ry="3.735" transform="translate(1344.805 4618.974)" fill="#94eb91"/>
        <circle id="Ellipse_182" data-name="Ellipse 182" cx="2.988" cy="2.988" r="2.988" transform="translate(1344.805 4692.18)" fill="#94eb91"/>
        <ellipse id="Ellipse_22" data-name="Ellipse 22" cx="2.988" cy="3.735" rx="2.988" ry="3.735" transform="translate(1344.805 4472.562)" fill="#94eb91"/>
        <ellipse id="Ellipse_115" data-name="Ellipse 115" cx="2.988" cy="3.735" rx="2.988" ry="3.735" transform="translate(1344.805 4581.624)" fill="#94eb91"/>
        <ellipse id="Ellipse_183" data-name="Ellipse 183" cx="2.988" cy="3.735" rx="2.988" ry="3.735" transform="translate(1344.805 4654.83)" fill="#94eb91"/>
        <circle id="Ellipse_47" data-name="Ellipse 47" cx="2.988" cy="2.988" r="2.988" transform="translate(1344.805 4526.346)" fill="#94eb91"/>
        <ellipse id="Ellipse_111" data-name="Ellipse 111" cx="2.988" cy="3.735" rx="2.988" ry="3.735" transform="translate(1344.805 4636.902)" fill="#94eb91"/>
        <circle id="Ellipse_184" data-name="Ellipse 184" cx="2.988" cy="2.988" r="2.988" transform="translate(1344.805 4710.108)" fill="#94eb91"/>
        <ellipse id="Ellipse_53" data-name="Ellipse 53" cx="2.241" cy="2.988" rx="2.241" ry="2.988" transform="translate(1400.083 4436.706)" fill="#94eb91"/>
        <ellipse id="Ellipse_147" data-name="Ellipse 147" cx="2.241" cy="3.735" rx="2.241" ry="3.735" transform="translate(1400.083 4545.768)" fill="#94eb91"/>
        <ellipse id="Ellipse_61" data-name="Ellipse 61" cx="2.241" cy="3.735" rx="2.241" ry="3.735" transform="translate(1400.083 4490.49)" fill="#94eb91"/>
        <ellipse id="Ellipse_136" data-name="Ellipse 136" cx="2.241" cy="3.735" rx="2.241" ry="3.735" transform="translate(1400.083 4599.552)" fill="#94eb91"/>
        <ellipse id="Ellipse_197" data-name="Ellipse 197" cx="2.241" cy="3.735" rx="2.241" ry="3.735" transform="translate(1400.083 4672.758)" fill="#94eb91"/>
        <ellipse id="Ellipse_54" data-name="Ellipse 54" cx="2.241" cy="2.988" rx="2.241" ry="2.988" transform="translate(1400.083 4454.633)" fill="#94eb91"/>
        <ellipse id="Ellipse_137" data-name="Ellipse 137" cx="2.241" cy="3.735" rx="2.241" ry="3.735" transform="translate(1400.083 4563.696)" fill="#94eb91"/>
        <ellipse id="Ellipse_74" data-name="Ellipse 74" cx="2.241" cy="3.735" rx="2.241" ry="3.735" transform="translate(1400.083 4508.417)" fill="#94eb91"/>
        <ellipse id="Ellipse_138" data-name="Ellipse 138" cx="2.241" cy="3.735" rx="2.241" ry="3.735" transform="translate(1400.083 4618.974)" fill="#94eb91"/>
        <ellipse id="Ellipse_198" data-name="Ellipse 198" cx="2.241" cy="2.988" rx="2.241" ry="2.988" transform="translate(1400.083 4692.18)" fill="#94eb91"/>
        <ellipse id="Ellipse_62" data-name="Ellipse 62" cx="2.241" cy="3.735" rx="2.241" ry="3.735" transform="translate(1400.083 4472.562)" fill="#94eb91"/>
        <ellipse id="Ellipse_139" data-name="Ellipse 139" cx="2.241" cy="3.735" rx="2.241" ry="3.735" transform="translate(1400.083 4581.624)" fill="#94eb91"/>
        <ellipse id="Ellipse_199" data-name="Ellipse 199" cx="2.241" cy="3.735" rx="2.241" ry="3.735" transform="translate(1400.083 4654.83)" fill="#94eb91"/>
        <ellipse id="Ellipse_90" data-name="Ellipse 90" cx="2.241" cy="2.988" rx="2.241" ry="2.988" transform="translate(1400.083 4526.346)" fill="#94eb91"/>
        <ellipse id="Ellipse_140" data-name="Ellipse 140" cx="2.241" cy="3.735" rx="2.241" ry="3.735" transform="translate(1400.083 4636.902)" fill="#94eb91"/>
        <ellipse id="Ellipse_200" data-name="Ellipse 200" cx="2.241" cy="2.988" rx="2.241" ry="2.988" transform="translate(1400.083 4710.108)" fill="#94eb91"/>
        <circle id="Ellipse_7" data-name="Ellipse 7" cx="2.988" cy="2.988" r="2.988" transform="translate(1325.383 4436.706)" fill="#94eb91"/>
        <ellipse id="Ellipse_149" data-name="Ellipse 149" cx="2.988" cy="3.735" rx="2.988" ry="3.735" transform="translate(1325.383 4545.768)" fill="#94eb91"/>
        <ellipse id="Ellipse_42" data-name="Ellipse 42" cx="2.988" cy="3.735" rx="2.988" ry="3.735" transform="translate(1325.383 4490.49)" fill="#94eb91"/>
        <ellipse id="Ellipse_106" data-name="Ellipse 106" cx="2.988" cy="3.735" rx="2.988" ry="3.735" transform="translate(1325.383 4599.552)" fill="#94eb91"/>
        <ellipse id="Ellipse_177" data-name="Ellipse 177" cx="2.988" cy="3.735" rx="2.988" ry="3.735" transform="translate(1325.383 4672.758)" fill="#94eb91"/>
        <circle id="Ellipse_17" data-name="Ellipse 17" cx="2.988" cy="2.988" r="2.988" transform="translate(1325.383 4454.633)" fill="#94eb91"/>
        <ellipse id="Ellipse_134" data-name="Ellipse 134" cx="2.988" cy="3.735" rx="2.988" ry="3.735" transform="translate(1325.383 4563.696)" fill="#94eb91"/>
        <ellipse id="Ellipse_43" data-name="Ellipse 43" cx="2.988" cy="3.735" rx="2.988" ry="3.735" transform="translate(1325.383 4508.417)" fill="#94eb91"/>
        <ellipse id="Ellipse_107" data-name="Ellipse 107" cx="2.988" cy="3.735" rx="2.988" ry="3.735" transform="translate(1325.383 4618.974)" fill="#94eb91"/>
        <circle id="Ellipse_178" data-name="Ellipse 178" cx="2.988" cy="2.988" r="2.988" transform="translate(1325.383 4692.18)" fill="#94eb91"/>
        <ellipse id="Ellipse_25" data-name="Ellipse 25" cx="2.988" cy="3.735" rx="2.988" ry="3.735" transform="translate(1325.383 4472.562)" fill="#94eb91"/>
        <ellipse id="Ellipse_118" data-name="Ellipse 118" cx="2.988" cy="3.735" rx="2.988" ry="3.735" transform="translate(1325.383 4581.624)" fill="#94eb91"/>
        <ellipse id="Ellipse_179" data-name="Ellipse 179" cx="2.988" cy="3.735" rx="2.988" ry="3.735" transform="translate(1325.383 4654.83)" fill="#94eb91"/>
        <circle id="Ellipse_44" data-name="Ellipse 44" cx="2.988" cy="2.988" r="2.988" transform="translate(1325.383 4526.346)" fill="#94eb91"/>
        <ellipse id="Ellipse_108" data-name="Ellipse 108" cx="2.988" cy="3.735" rx="2.988" ry="3.735" transform="translate(1325.383 4636.902)" fill="#94eb91"/>
        <circle id="Ellipse_180" data-name="Ellipse 180" cx="2.988" cy="2.988" r="2.988" transform="translate(1325.383 4710.108)" fill="#94eb91"/>
        <ellipse id="Ellipse_9" data-name="Ellipse 9" cx="3.735" cy="2.988" rx="3.735" ry="2.988" transform="translate(1362.733 4436.706)" fill="#94eb91"/>
        <circle id="Ellipse_150" data-name="Ellipse 150" cx="3.735" cy="3.735" r="3.735" transform="translate(1362.733 4545.768)" fill="#94eb91"/>
        <circle id="Ellipse_48" data-name="Ellipse 48" cx="3.735" cy="3.735" r="3.735" transform="translate(1362.733 4490.49)" fill="#94eb91"/>
        <circle id="Ellipse_119" data-name="Ellipse 119" cx="3.735" cy="3.735" r="3.735" transform="translate(1362.733 4599.552)" fill="#94eb91"/>
        <circle id="Ellipse_185" data-name="Ellipse 185" cx="3.735" cy="3.735" r="3.735" transform="translate(1362.733 4672.758)" fill="#94eb91"/>
        <ellipse id="Ellipse_18" data-name="Ellipse 18" cx="3.735" cy="2.988" rx="3.735" ry="2.988" transform="translate(1362.733 4454.633)" fill="#94eb91"/>
        <circle id="Ellipse_135" data-name="Ellipse 135" cx="3.735" cy="3.735" r="3.735" transform="translate(1362.733 4563.696)" fill="#94eb91"/>
        <circle id="Ellipse_49" data-name="Ellipse 49" cx="3.735" cy="3.735" r="3.735" transform="translate(1362.733 4508.417)" fill="#94eb91"/>
        <circle id="Ellipse_120" data-name="Ellipse 120" cx="3.735" cy="3.735" r="3.735" transform="translate(1362.733 4618.974)" fill="#94eb91"/>
        <ellipse id="Ellipse_186" data-name="Ellipse 186" cx="3.735" cy="2.988" rx="3.735" ry="2.988" transform="translate(1362.733 4692.18)" fill="#94eb91"/>
        <circle id="Ellipse_26" data-name="Ellipse 26" cx="3.735" cy="3.735" r="3.735" transform="translate(1362.733 4472.562)" fill="#94eb91"/>
        <circle id="Ellipse_121" data-name="Ellipse 121" cx="3.735" cy="3.735" r="3.735" transform="translate(1362.733 4581.624)" fill="#94eb91"/>
        <circle id="Ellipse_187" data-name="Ellipse 187" cx="3.735" cy="3.735" r="3.735" transform="translate(1362.733 4654.83)" fill="#94eb91"/>
        <ellipse id="Ellipse_50" data-name="Ellipse 50" cx="3.735" cy="2.988" rx="3.735" ry="2.988" transform="translate(1362.733 4526.346)" fill="#94eb91"/>
        <circle id="Ellipse_122" data-name="Ellipse 122" cx="3.735" cy="3.735" r="3.735" transform="translate(1362.733 4636.902)" fill="#94eb91"/>
        <ellipse id="Ellipse_188" data-name="Ellipse 188" cx="3.735" cy="2.988" rx="3.735" ry="2.988" transform="translate(1362.733 4710.108)" fill="#94eb91"/>
      </g>
      <circle id="Ellipse_236" data-name="Ellipse 236" cx="276" cy="276" r="276" transform="translate(1589 468)" fill="#c4c4c4" opacity="0.131"/>
      <g id="Ellipse_242" data-name="Ellipse 242" transform="translate(1689 433)" fill="none" stroke="#fff" stroke-width="1" opacity="0.33">
        <circle cx="80" cy="80" r="80" stroke="none"/>
        <circle cx="80" cy="80" r="79.5" fill="none"/>
      </g>
      <text id="_" data-name="+" transform="translate(1776 753)" fill="#fff" font-size="50" font-family="Montserrat-Medium, Montserrat" font-weight="500" opacity="0.294"><tspan x="0" y="0">+</tspan></text>
    </g>
  </g>
</svg>
