<svg xmlns="http://www.w3.org/2000/svg" xmlns:xlink="http://www.w3.org/1999/xlink" width="843" height="469" viewBox="0 0 843 469">
  <defs>
    <clipPath id="clip-path">
      <rect id="Rectangle_10229" data-name="Rectangle 10229" width="843" height="469" transform="translate(-10243 5311)" fill="rgba(255,255,255,0.39)"/>
    </clipPath>
    <linearGradient id="linear-gradient" x1="0.5" x2="0.5" y2="1" gradientUnits="objectBoundingBox">
      <stop offset="0" stop-color="#2d7c29"/>
      <stop offset="0" stop-color="#4aa845"/>
      <stop offset="1" stop-color="#2a6c27"/>
    </linearGradient>
    <linearGradient id="linear-gradient-2" x1="0.345" y1="0.062" x2="0.473" y2="1.158" gradientUnits="objectBoundingBox">
      <stop offset="0" stop-color="#53b84f"/>
      <stop offset="1" stop-color="#327c2e"/>
    </linearGradient>
    <linearGradient id="linear-gradient-3" y1="0.422" x2="1" y2="0.88" gradientUnits="objectBoundingBox">
      <stop offset="0" stop-color="#53b84f"/>
      <stop offset="1" stop-color="#509b4d"/>
    </linearGradient>
    <linearGradient id="linear-gradient-7" x1="-0.96" y1="0" y2="0.88" xlink:href="#linear-gradient-3"/>
  </defs>
  <g id="background-ticket-content" transform="translate(10243 -5311)" clip-path="url(#clip-path)">
    <g id="Group_4323" data-name="Group 4323">
      <path id="Path_10488" data-name="Path 10488" d="M2824.3,4691.168c-76.526-22.557-120.138-91.994-250.185-89.031s-160.5,76.142-156.905,139.994,41.547,170.293,156.905,171.876,138.88-40.959,210.852-39.563,174.424,44.606,274.176,39.563,127.251-79.715,125.057-134.693-25.353-119.1-125.057-122.327S2900.822,4713.725,2824.3,4691.168Z" transform="translate(-14345.129 2398.402) rotate(-25)" fill="#74e06f" opacity="0.446"/>
      <path id="Path_10489" data-name="Path 10489" d="M2732.878,4671.168c-59.353-17.494-93.178-71.349-194.041-69.051s-124.48,59.055-121.694,108.578,32.223,132.078,121.694,133.305,107.714-31.768,163.534-30.685,135.281,34.6,212.648,30.685,98.694-61.826,96.992-104.466-19.663-92.374-96.992-94.875S2792.231,4688.663,2732.878,4671.168Z" transform="translate(-9815.729 89.513) rotate(30)" opacity="0.83" fill="url(#linear-gradient)"/>
      <path id="Path_10487" data-name="Path 10487" d="M2813.183,4699.156c-74.439-24.578-116.861-100.239-243.361-97.01s-156.12,82.966-152.625,152.542,40.414,185.557,152.625,187.281,135.092-44.63,205.1-43.109,169.666,48.6,266.7,43.109,123.78-86.859,121.646-146.766-24.661-129.776-121.646-133.292S2887.622,4723.734,2813.183,4699.156Z" transform="matrix(0.996, 0.087, -0.087, 0.996, -12175.285, 559.072)" fill="#2d7c29" opacity="0.576"/>
      <path id="Path_10486" data-name="Path 10486" d="M2828.243,4664.94c-74.717-25-130.878-66.075-257.85-62.791s-156.7,84.393-153.195,155.165,40.564,188.749,153.195,190.5,207.266-37.748,277.535-36.2,98.63,41.79,196.023,36.2,124.242-88.353,122.1-149.29-24.753-132.008-122.1-135.584S2902.96,4689.941,2828.243,4664.94Z" transform="translate(-12626.668 782.144)" fill="url(#linear-gradient-2)"/>
      <circle id="Ellipse_224" data-name="Ellipse 224" cx="38" cy="38" r="38" transform="translate(-9476 5474)" fill="url(#linear-gradient-3)"/>
      <circle id="Ellipse_240" data-name="Ellipse 240" cx="64.5" cy="64.5" r="64.5" transform="translate(-10243 5393)" fill="url(#linear-gradient-3)"/>
      <circle id="Ellipse_225" data-name="Ellipse 225" cx="16" cy="16" r="16" transform="translate(-9521 5533)" fill="url(#linear-gradient-3)"/>
      <circle id="Ellipse_226" data-name="Ellipse 226" cx="16" cy="16" r="16" transform="translate(-9803 5726)" fill="url(#linear-gradient-3)"/>
      <circle id="Ellipse_227" data-name="Ellipse 227" cx="12" cy="12" r="12" transform="translate(-10206 5634)" fill="url(#linear-gradient-7)"/>
    </g>
  </g>
</svg>
