<svg xmlns="http://www.w3.org/2000/svg" width="24.426" height="25.904" viewBox="0 0 24.426 25.904">
  <g id="Group_4086" data-name="Group 4086" transform="translate(-115.294 -478.539)">
    <g id="Group_4081" data-name="Group 4081" transform="translate(115.294 478.539)">
      <path id="Path_11528" data-name="Path 11528" d="M122.35,485.529h-4.12a2.935,2.935,0,0,0-2.936,2.936v4.211a2.931,2.931,0,0,0,1.455,2.535.233.233,0,0,0,.352-.2v-6.286a.184.184,0,0,1,.184-.184h0a.184.184,0,0,1,.184.184v14.956a1.365,1.365,0,0,0,1.286,1.382,1.327,1.327,0,0,0,1.368-1.327v-7.589a.184.184,0,0,1,.185-.184h0a.184.184,0,0,1,.184.184v7.533a1.364,1.364,0,0,0,1.286,1.382,1.327,1.327,0,0,0,1.368-1.327V488.725a.184.184,0,0,1,.184-.184h0a.184.184,0,0,1,.184.184v6.265a.233.233,0,0,0,.354.2,2.934,2.934,0,0,0,1.418-2.512v-4.211A2.936,2.936,0,0,0,122.35,485.529Z" transform="translate(-115.294 -479.16)" fill="#c4c4c4"/>
      <circle id="Ellipse_242" data-name="Ellipse 242" cx="2.601" cy="2.601" r="2.601" transform="translate(1.879 5.062) rotate(-76.668)" fill="#c4c4c4"/>
    </g>
    <g id="Group_4082" data-name="Group 4082" transform="translate(128.869 478.605)">
      <circle id="Ellipse_243" data-name="Ellipse 243" cx="2.601" cy="2.601" r="2.601" transform="matrix(0.198, -0.98, 0.98, 0.198, 2.375, 5.1)" fill="#c4c4c4"/>
      <path id="Path_11529" data-name="Path 11529" d="M141.044,498.554l-1.436-3.674a2.918,2.918,0,0,0,1.007-2.2v-4.211a2.935,2.935,0,0,0-2.936-2.936h-4.121a2.935,2.935,0,0,0-2.936,2.936v4.211a2.921,2.921,0,0,0,1.006,2.2l-1.435,3.674h2.6v5.127a1.365,1.365,0,0,0,1.286,1.382,1.328,1.328,0,0,0,1.368-1.327v-5.182h.368v5.127a1.365,1.365,0,0,0,1.286,1.382,1.327,1.327,0,0,0,1.368-1.327v-5.182Zm-2.385-10.014h0a.185.185,0,0,1,.185.185v4.2l-.369-.943v-3.254A.185.185,0,0,1,138.659,488.54Zm-6.229,4.29v-4.105a.184.184,0,1,1,.368,0v3.162Z" transform="translate(-130.194 -479.227)" fill="#c4c4c4"/>
    </g>
  </g>
</svg>
