<svg xmlns="http://www.w3.org/2000/svg" width="14.551" height="15.431" viewBox="0 0 14.551 15.431">
  <g id="Group_4083" data-name="Group 4083" transform="translate(-115.294 -478.539)">
    <g id="Group_4081" data-name="Group 4081" transform="translate(115.294 478.539)">
      <path id="Path_11528" data-name="Path 11528" d="M119.5,485.529h-2.454a1.748,1.748,0,0,0-1.749,1.749v2.509a1.746,1.746,0,0,0,.867,1.51.139.139,0,0,0,.21-.119v-3.744a.109.109,0,0,1,.11-.11h0a.109.109,0,0,1,.11.11v8.909a.813.813,0,0,0,.766.823.79.79,0,0,0,.815-.79v-4.521a.11.11,0,0,1,.11-.11h0a.11.11,0,0,1,.11.11v4.487a.813.813,0,0,0,.766.823.791.791,0,0,0,.815-.79v-8.942a.11.11,0,0,1,.11-.11h0a.109.109,0,0,1,.11.11v3.732a.139.139,0,0,0,.211.118,1.748,1.748,0,0,0,.845-1.5v-2.509A1.749,1.749,0,0,0,119.5,485.529Z" transform="translate(-115.294 -481.735)" fill="#c4c4c4"/>
      <circle id="Ellipse_242" data-name="Ellipse 242" cx="1.55" cy="1.55" r="1.55" transform="translate(1.12 3.016) rotate(-76.668)" fill="#c4c4c4"/>
    </g>
    <g id="Group_4082" data-name="Group 4082" transform="translate(123.381 478.578)">
      <circle id="Ellipse_243" data-name="Ellipse 243" cx="1.55" cy="1.55" r="1.55" transform="matrix(0.198, -0.98, 0.98, 0.198, 1.415, 3.038)" fill="#c4c4c4"/>
      <path id="Path_11529" data-name="Path 11529" d="M136.658,493.288,135.8,491.1a1.738,1.738,0,0,0,.6-1.313v-2.509a1.749,1.749,0,0,0-1.749-1.749H132.2a1.748,1.748,0,0,0-1.749,1.749v2.509a1.74,1.74,0,0,0,.6,1.313l-.855,2.189h1.551v3.054a.813.813,0,0,0,.766.823.791.791,0,0,0,.815-.79v-3.087h.219v3.054a.813.813,0,0,0,.766.823.791.791,0,0,0,.815-.79v-3.087Zm-1.421-5.965h0a.11.11,0,0,1,.11.11v2.5l-.22-.562v-1.938A.11.11,0,0,1,135.237,487.323Zm-3.711,2.556v-2.446a.11.11,0,1,1,.219,0v1.884Z" transform="translate(-130.194 -481.775)" fill="#c4c4c4"/>
    </g>
  </g>
</svg>
