<svg xmlns="http://www.w3.org/2000/svg" width="18.994" height="20.143" viewBox="0 0 18.994 20.143">
  <g id="Group_4084" data-name="Group 4084" transform="translate(-115.294 -478.539)">
    <g id="Group_4081" data-name="Group 4081" transform="translate(115.294 478.539)">
      <path id="Path_11528" data-name="Path 11528" d="M120.781,485.529h-3.2a2.282,2.282,0,0,0-2.283,2.283v3.275a2.28,2.28,0,0,0,1.131,1.971.181.181,0,0,0,.273-.155v-4.888a.143.143,0,0,1,.143-.143h0a.143.143,0,0,1,.143.143v11.63a1.061,1.061,0,0,0,1,1.075,1.032,1.032,0,0,0,1.063-1.032v-5.9a.143.143,0,0,1,.144-.143h0a.143.143,0,0,1,.143.143v5.858a1.061,1.061,0,0,0,1,1.075,1.032,1.032,0,0,0,1.063-1.032V488.014a.143.143,0,0,1,.143-.143h0a.143.143,0,0,1,.143.143v4.872a.181.181,0,0,0,.276.154,2.282,2.282,0,0,0,1.1-1.953v-3.275A2.283,2.283,0,0,0,120.781,485.529Z" transform="translate(-115.294 -480.576)" fill="#c4c4c4"/>
      <circle id="Ellipse_242" data-name="Ellipse 242" cx="2.023" cy="2.023" r="2.023" transform="translate(1.461 3.937) rotate(-76.668)" fill="#c4c4c4"/>
    </g>
    <g id="Group_4082" data-name="Group 4082" transform="translate(125.851 478.59)">
      <circle id="Ellipse_243" data-name="Ellipse 243" cx="2.023" cy="2.023" r="2.023" transform="matrix(0.198, -0.98, 0.98, 0.198, 1.847, 3.966)" fill="#c4c4c4"/>
      <path id="Path_11529" data-name="Path 11529" d="M138.631,495.658l-1.117-2.857a2.269,2.269,0,0,0,.783-1.714v-3.275a2.283,2.283,0,0,0-2.283-2.283h-3.2a2.282,2.282,0,0,0-2.283,2.283v3.275a2.271,2.271,0,0,0,.782,1.714l-1.116,2.857h2.025v3.987a1.061,1.061,0,0,0,1,1.075,1.033,1.033,0,0,0,1.064-1.032v-4.03h.286v3.987a1.061,1.061,0,0,0,1,1.075,1.032,1.032,0,0,0,1.063-1.032v-4.03Zm-1.855-7.787h0a.144.144,0,0,1,.144.144v3.263l-.287-.733v-2.53A.144.144,0,0,1,136.777,487.871Zm-4.844,3.336v-3.193a.143.143,0,1,1,.286,0v2.459Z" transform="translate(-130.194 -480.628)" fill="#c4c4c4"/>
    </g>
  </g>
</svg>
