<svg xmlns="http://www.w3.org/2000/svg" width="1920.001" height="150.999" viewBox="0 0 1920.001 150.999">
  <defs>
    <style>
      .cls-1 {
        fill: #fff;
      }
    </style>
  </defs>
  <path id="Intersection_1" data-name="Intersection 1" class="cls-1" d="M-1770,166V16.5q2.586-.859,5.179-1.5h34.252c46,10.228,84.243,56.24,84.243,56.24,21.564-34.875,49.583,11.408,49.583,11.408,52.725-31.454,62.51,10.082,64.292,29.022a244.477,244.477,0,0,1,34.141,2.209c7.759-30.158,79.8-17.473,79.8-17.473,50.369-37.808,107.623-27.127,146.8-11.507,59.438-58.154,124.381-10.521,156.63,21.442,22-9.438,66.091-4.12,66.091-4.12C-999.7,67.784-937.6,78.063-896.892,91.194c54.752-51.309,118.133-9.76,150.848,19.331a39.694,39.694,0,0,1,4.53,1.4c18.352-15.8,68.752-10.3,68.752-10.3C-625.83,53.474-556.5,68.647-514.226,84.858c47.878-41.389,106.2-10.869,139.741,14.042,18,2.391,25.267,13.9,28.173,21.889,17.315-30.514,42.756-5.443,52.232,5.8q5.543.1,10.415.372c20.12-12.353,34.407-13.261,44.551-8.566a294.5,294.5,0,0,1,40.333.263c3.418-14.957,44.852-13.9,61.821-12.827,13.526-19.361,45.342-17.818,59.8-15.97q3.788-.392,7.569-.607c5.726-46.672,68.8-30.019,68.8-30.019C17.545,31.175,37.881,18.443,57.971,15H82.2C108.888,19.254,133.4,36.289,150,50.679V166Zm1552.9-14.671a37.4,37.4,0,0,1,2.81-2.975h-3.595Q-217.456,149.864-217.1,151.329Z" transform="translate(1770 -15)"/>
</svg>
