<svg xmlns="http://www.w3.org/2000/svg" xmlns:xlink="http://www.w3.org/1999/xlink" width="513.427" height="291.026" viewBox="0 0 513.427 291.026">
  <defs>
    <clipPath id="clip-path">
      <path id="Path_11770" data-name="Path 11770" d="M-159.449,290.973s4.8,1.516,3.933,6.557-19.314,12.017-47.975,7.212-42.13-22.927-41.608-25.767,1.981-4.412,5.1-3.4c10.293,3.328,7.067-36.777,7.067-36.777l31.978-.8C-182.574,245.2-161.671,268.607-159.449,290.973Z" transform="translate(245.114 -237.999)" fill="none" clip-rule="evenodd"/>
    </clipPath>
  </defs>
  <g id="Group_4164" data-name="Group 4164" transform="translate(-942 -778)">
    <g id="Group_4160" data-name="Group 4160" transform="translate(1185.5 805)">
      <g id="Group_4128" data-name="Group 4128" transform="translate(99.567 136.745)">
        <path id="Path_11706" data-name="Path 11706" d="M-181.4,259.966a9.524,9.524,0,0,1,2.968.069,35.061,35.061,0,0,1,3.8.771l.846.222,6.083-9.784-1.206-.568c-1.713-.805-3.422-1.715-5.076-2.634a9.75,9.75,0,0,0-7.805-.935,13.714,13.714,0,0,0-4.927,2.872,27.2,27.2,0,0,0-4.938,5.933,29.706,29.706,0,0,0-1.812,3.237l-.234.5,5.1,10.968,1.169-1.779q1.534-2.335,3.094-4.654c.6-.894,1.206-1.788,1.822-2.673C-182.17,261.008-181.795,260.445-181.4,259.966Z" transform="translate(193.706 -246.677)" fill="#337321" fill-rule="evenodd"/>
        <path id="Path_11707" data-name="Path 11707" d="M-174.218,259.461s-6.853-1.8-7.925-.517-6.167,9.046-6.167,9.046l-3.97-8.539s7.565-16.272,17.831-10.57c2.966,1.647,5.148,2.67,5.148,2.67Z" transform="translate(193.588 -246.479)" fill="#54c247" fill-rule="evenodd"/>
      </g>
      <g id="Group_4130" data-name="Group 4130" transform="translate(73.716 146.966)">
        <g id="Group_4129" data-name="Group 4129" transform="translate(19.322)">
          <path id="Path_11708" data-name="Path 11708" d="M-178.271,255.22c6.984-.328,12.189,4.737,15.149,9.809.672,1.779-3.3.847-6.525,3.748-1.178,3.279-6.59-.482-9.892-3.058-2.38-1.481-7.236-5.232-3.229-7.374C-179.94,257.774-180.669,255.474-178.271,255.22Z" transform="translate(184.299 -255.204)" fill="#595959" fill-rule="evenodd"/>
          <path id="Path_11709" data-name="Path 11709" d="M-177.933,255.944c6.167-.29,10.762,4.182,13.376,8.66.52,1.38-2.418.664-5.066,2.2a9.439,9.439,0,0,0-2.042-4.671,22.188,22.188,0,0,1,1.113,5.325c-.049.041-.1.084-.146.127-1.04,2.9-5.439-.1-8.354-2.376-2.1-1.308-6.387-4.619-2.85-6.511a3.874,3.874,0,0,0,.42-.108,21.079,21.079,0,0,1,4.066.458,13.422,13.422,0,0,0-2.855-1.2C-179.536,257.079-179.369,256.1-177.933,255.944Z" transform="translate(184.497 -255.06)" fill="#fefefe" fill-rule="evenodd"/>
        </g>
        <path id="Path_11710" data-name="Path 11710" d="M-151.143,262.546c-6.348-4.084-13.243-4.3-23.426,3.5-5.383,3.923-6.332,8.15-1.267,10.962-.394,2.39.294,3.909,1.923,4.666-5.735,5.7-3.851,11.347,1.6,15.114,2.887,2.6,8.4-3.608,5.621-8.309,1.972-1.878,5.778-4.821,9.106-3.892,2.654.964,1.606,2.365,2.313,3.8,3.354,9.436,12.575,4.045,10.124-.883-2.543-5.211-.538-9.414-.527-14.246C-145.12,270.711-147.027,265.19-151.143,262.546Z" transform="translate(179.164 -254.301)" fill="#5f5d5d" fill-rule="evenodd"/>
        <path id="Path_11711" data-name="Path 11711" d="M-151.242,263.382c-6.224-4-12.619-4.956-22.6,2.691-4.909,3.577-6.058,7.413-2.2,10.151,6.327.441,12.647,2.626,12.981-1.232-.216-5.072-4.827-5.4-11.482-5.626a8.068,8.068,0,0,0,6.216-3.773,4.215,4.215,0,0,1-1.744,3.053c4.2.713,7.266,2.488,8.057,5.728,7.632,3.61,4.2,7.274.454,8.124-5.076,1.262-8.542.672-11.895-.845-5.313,5.505-3.442,10.925,1.816,14.564,2.566,1.26,5.877-2.837,4.293-7.082a12.733,12.733,0,0,0-2-3.1,5.876,5.876,0,0,1,2.08,1.429c2.332-1.875,7.294-4.533,10.26-3.7,2.6.944,1.386,2.814,2.08,4.223,3.288,9.253,10.991,3.828,8.588-1-2.494-5.11-.529-9.229-.518-13.968a9.643,9.643,0,0,0-4.382-9.625Zm1.225,6.369c-.867,3.038-4.481,5.436-9.175,4.912,2.972-.792,6.978-2.463,9.175-4.912Zm-25.1,7.3c2.947.9,5.957.58,9.049,1.185,1.95.279,3.152-.253,4.063-2.479,2.553.223,4.585,2.947,2.576,4.607-3.932,2.555-9,1.942-13.878.982C-174.779,280.608-175.421,279.207-175.121,277.047Z" transform="translate(179.329 -254.186)" fill="#fefefe" fill-rule="evenodd"/>
      </g>
      <path id="Path_11712" data-name="Path 11712" d="M-156.684,282.854c-5.626-6.249-16.406-8.536-22.913-8.86-12.519.473.185,22.611-.654,28.93C-180.251,302.924-156.675,283.1-156.684,282.854Z" transform="translate(271.987 -104.508)" fill="#337321" fill-rule="evenodd"/>
      <path id="Path_11713" data-name="Path 11713" d="M-160.894,276.279c-9.861-2.8-12.382,1.408-10.526,8.022C-171.449,277.871-167.924,275-160.894,276.279Z" transform="translate(260.425 -104.229)" fill="#0db02b" fill-rule="evenodd"/>
      <path id="Path_11714" data-name="Path 11714" d="M-113.64,288.019c2.833-3.529,3.116-9.453,2.726-12.937-.7-4.305-13.152-4.158-16.581-4.056C-127.5,271.026-113.769,288.044-113.64,288.019Z" transform="translate(156.983 -105.104)" fill="#337321" fill-rule="evenodd"/>
      <path id="Path_11715" data-name="Path 11715" d="M-114.535,301.076c2.493-6.924-.2-16.184-2.643-21.338-3.35-6.254-22.426.553-27.647,2.518C-144.825,282.256-114.72,301.183-114.535,301.076Z" transform="translate(180.519 -103.881)" fill="#337321" fill-rule="evenodd"/>
      <path id="Path_11716" data-name="Path 11716" d="M-134.73,299.284c-1.8-9.1-10.732-17.362-16.719-21.347-12.138-6.623-12.6,21.544-16.965,27.061C-168.413,305-134.859,299.521-134.73,299.284Z" transform="translate(229.979 -103.924)" fill="#337321" fill-rule="evenodd"/>
      <path id="Path_11717" data-name="Path 11717" d="M-144.392,284.012c-7.767-8.228-12.536-5.661-14.512,1.66C-155.3,279.558-150.331,278.823-144.392,284.012Z" transform="translate(228.244 -103.532)" fill="#0db02b" fill-rule="evenodd"/>
      <path id="Path_11718" data-name="Path 11718" d="M-128.194,289.063c.2-11.323-6.024-12.983-13.808-9.324C-133.828,278.095-128.963,281.17-128.194,289.063Z" transform="translate(191.784 -103.712)" fill="#0db02b" fill-rule="evenodd"/>
      <path id="Path_11719" data-name="Path 11719" d="M-120.025,281.223c2.56-6.94-.917-9.3-6.506-8.724C-121.137,273.247-118.8,276.192-120.025,281.223Z" transform="translate(164.221 -104.821)" fill="#0db02b" fill-rule="evenodd"/>
      <path id="Path_11720" data-name="Path 11720" d="M-225.766,235.092l22.929,33.338.583.091a5.081,5.081,0,0,0,3.574-.974c2.557-1.888,3.012-5.652,2.965-8.585-.062-3.9-2.346-7.923-4.568-11.009a59.6,59.6,0,0,0-6.5-7.468c-1.086-1.072-2.231-2.159-3.4-3.141l-.307-.257Z" transform="translate(359.703 -112.232)" fill="#b01c2e" fill-rule="evenodd"/>
      <path id="Path_11721" data-name="Path 11721" d="M-224.624,236.556l11.836,1.545s13.834,11.613,13.978,20.593-4.96,8.185-4.96,8.185Z" transform="translate(361.429 -111.942)" fill="#c7252e" fill-rule="evenodd"/>
      <path id="Path_11743" data-name="Path 11743" d="M-116.09,206.734l-28.793,8.548.864,1.646q3.3,6.271,6.442,12.631c1.618,3.269,3.294,6.638,4.682,10.008a58.97,58.97,0,0,1,2.667,8.365,69.784,69.784,0,0,1,1.957,13.912,60.672,60.672,0,0,1-10.079,36.375c-4.473,6.749-10.577,11.29-18.676,12.5-6.133.917-12.5-.213-18.3-2.244a66.336,66.336,0,0,1-23.153-14.207,95.722,95.722,0,0,0-12.7-10.182q-4.43-3.038-9.1-5.729c-2.745-1.583-5.563-3.088-8.44-4.417a40.97,40.97,0,0,0-6.719-2.555c-1.466-.379-3.626-.79-4.852.374a3.951,3.951,0,0,0-1.323,2.344c-.236,1.816,1.2,3.493,2.307,4.768.843.968,1.724,1.909,2.589,2.857,1.176,1.29,2.336,2.59,3.466,3.919,8.525,10.027,15.392,21.568,21.293,33.293a64.42,64.42,0,0,0,6.5,10.311c12.643,16.436,32.456,26.521,52.331,31.177,16.671,3.9,35.222,4.432,51.908.325C-86.9,357.23-72.492,349.807-64.9,336.618a47.052,47.052,0,0,0,6.212-26.34,68.037,68.037,0,0,0-5.687-23.04c-4.742-11.124-11.837-21.609-19.63-30.821-3.018-3.567-6.206-7.022-9.548-10.287-1.2-1.17-2.42-2.32-3.674-3.429-.832-.736-1.691-1.475-2.579-2.141-6.264-4.7-13.45-24.679-15.834-32.383Z" transform="translate(241.638 -117.863)" fill="#337321" fill-rule="evenodd"/>
      <path id="Path_11744" data-name="Path 11744" d="M-117.356,208.314s8.389,27.162,16.377,33.154,57.6,53.928,34.5,94.075-118.335,34.116-144.365-17.6c-19.748-39.233-33.146-41.116-28.645-45.386,2.783-2.642,27.226,10.322,39.689,22.494s45.177,29.792,62.472,3.7,8.389-53.286,5.594-60.077S-142.921,215.9-142.921,215.9Z" transform="translate(241.891 -117.55)" fill="#54c247" fill-rule="evenodd"/>
      <path id="Path_11745" data-name="Path 11745" d="M-163.351,336.231c-15.388,6.459-35.064,8.141-54.314,5.069,1.962-19.847,12.512-40.143,39.566-35.589,3.805.641,5.831-3.683,8.415-1C-159.516,310.028-158.635,324.047-163.351,336.231Z" transform="translate(314.883 -98.585)" fill="#0db02b" fill-rule="evenodd"/>
      <path id="Path_11746" data-name="Path 11746" d="M-136.773,212.523c2.847,8.15,8.877,23.745,14.7,28.109,7.988,5.992,57.6,53.928,34.5,94.075s-118.335,34.116-144.365-17.6c-2.859-5.68-5.729-10.7-8.42-15.271,7.353,9.8,12.011,16.248,14.873,20.215,29.655,41.1,120.306,40.416,126.486-11.3,4.268-35.727-48.455-89.4-48.455-89.4Z" transform="translate(262.989 -116.714)" fill="#fff7a0" fill-rule="evenodd"/>
      <path id="Path_11747" data-name="Path 11747" d="M-163.349,334.3c-15.388,6.459-35.064,8.141-54.314,5.069a65.168,65.168,0,0,1,1.34-8.245c21.441,1.226,42.566-4.46,54.872-17.589C-159.785,319.742-160.647,327.322-163.349,334.3Z" transform="translate(314.882 -96.656)" fill="#f3ec8b" fill-rule="evenodd"/>
      <g id="Group_4138" data-name="Group 4138" transform="translate(115.746 229.578)">
        <path id="Path_11750" data-name="Path 11750" d="M-184.432,331.193c-8.5,5.189-6.906-1.827-5.094-7.063C-190.356,330.56-191.353,333.28-184.432,331.193Z" transform="translate(190.964 -324.13)" fill="#0db02b" fill-rule="evenodd"/>
        <g id="Group_4137" data-name="Group 4137" transform="translate(1.347 2.845)">
          <path id="Path_11751" data-name="Path 11751" d="M-200.1,326.5c-.606,13.612,6.749,7.072,11.83,1.443C-195.435,333.187-198.036,336.176-200.1,326.5Z" transform="translate(204.458 -326.504)" fill="#0db02b" fill-rule="evenodd"/>
          <path id="Path_11752" data-name="Path 11752" d="M-191.677,330.549c-2.885,7.338,2.368,5.137,6.205,3.01C-190.374,335.083-192.359,336.233-191.677,330.549Z" transform="translate(192.508 -325.701)" fill="#0db02b" fill-rule="evenodd"/>
          <path id="Path_11753" data-name="Path 11753" d="M-202.315,331.955c-.489,10.96,5.434,5.693,9.525,1.163C-198.555,337.335-200.649,339.743-202.315,331.955Z" transform="translate(211.613 -325.422)" fill="#0db02b" fill-rule="evenodd"/>
          <path id="Path_11754" data-name="Path 11754" d="M-194.369,334.147c-2.885,7.336,2.368,5.137,6.205,3.008C-193.066,338.68-195.051,339.829-194.369,334.147Z" transform="translate(198.427 -324.986)" fill="#0db02b" fill-rule="evenodd"/>
        </g>
      </g>
      <path id="Path_11755" data-name="Path 11755" d="M-179.029,309.682c-5.7,3.375-8.126,11.34-4.244,18.513C-184.1,322.188-182.14,313.514-179.029,309.682Z" transform="translate(294.359 -97.421)" fill="#98da91" fill-rule="evenodd"/>
      <path id="Path_11766" data-name="Path 11766" d="M-157.951,290.247c-1.259-10.6-6.439-20.914-12.768-29.357-7.292-9.726-18.074-19.46-29.511-23.938l-.258-.1-33.7.84.116,1.442c.156,1.93.252,3.883.33,5.817.17,4.2.218,8.437.048,12.64a59.194,59.194,0,0,1-1.37,11.558c-.368,1.485-1.348,4.845-3.022,5.4a2.016,2.016,0,0,1-1.266-.049c-3.846-1.244-6.18.707-6.868,4.459-.312,1.7,1.544,4.345,2.5,5.619a44.993,44.993,0,0,0,7.851,7.846c9.279,7.394,20.727,11.947,32.375,13.9,11.177,1.873,23.765,2.457,34.92.073,3.924-.838,13.786-3.536,14.629-8.4a6.793,6.793,0,0,0-2.046-6.4A8.571,8.571,0,0,0-157.951,290.247Z" transform="translate(342.367 -111.883)" fill="#b01c2e" fill-rule="evenodd"/>
      <path id="Path_11767" data-name="Path 11767" d="M-159.449,290.973s4.8,1.516,3.933,6.557-19.314,12.017-47.975,7.212-42.13-22.927-41.608-25.767,1.981-4.412,5.1-3.4c10.293,3.328,7.067-36.777,7.067-36.777l31.978-.8C-182.574,245.2-161.671,268.607-159.449,290.973Z" transform="translate(342.592 -111.655)" fill="#e62129" fill-rule="evenodd"/>
      <g id="Group_4145" data-name="Group 4145" transform="translate(97.478 126.344)">
        <g id="Group_4144" data-name="Group 4144" clip-path="url(#clip-path)">
          <g id="Group_4143" data-name="Group 4143" transform="translate(64.11 12.51)">
            <g id="Group_4142" data-name="Group 4142">
              <path id="Path_11768" data-name="Path 11768" d="M-242.356,262.874c.3,1.189.571,2.374.98,3.533a15.945,15.945,0,0,0,1.71,3.485c-.017-.02-.034-.041-.052-.06a2.9,2.9,0,0,0-1.257-.844,4.772,4.772,0,0,0-4.157.97,4.5,4.5,0,0,0-1.973,3.451,2.56,2.56,0,0,0,.029.449,39.3,39.3,0,0,0,.838,4.146,17.858,17.858,0,0,0,.972,2.827,5.65,5.65,0,0,0,3.654,3.515,4.346,4.346,0,0,0,3.684-.98,24.291,24.291,0,0,1,6.2-2.733,69.326,69.326,0,0,0,6.611-2.354,10.26,10.26,0,0,0,5.3-4.451,6.923,6.923,0,0,0,.579-4.293l-.014-.083c-.367-1.933-1.149-4.1-3.394-4.422a3.322,3.322,0,0,0-.779-.014,3.952,3.952,0,0,0-.871.194,6.976,6.976,0,0,0-1.049.471c-.079.043-.175.1-.271.149a5.883,5.883,0,0,1-2.493-1.612q-.2-.212-.388-.439a14.433,14.433,0,0,1-2.509-5.063,19.258,19.258,0,0,1-.508-2.159,4.381,4.381,0,0,0,.653-.868,5.191,5.191,0,0,0,.618-2.823,4.394,4.394,0,0,0-2.712-4.155c-1.707-.736-3.545.134-5.01,1.028a43.892,43.892,0,0,0-4.428,3.234c-1.038.828-2.063,1.673-3.105,2.5-.035.028-.07.056-.1.085a3.383,3.383,0,0,0-1.038,1.647C-247.372,259.833-244.908,263.015-242.356,262.874Z" transform="translate(247.104 -248.437)" fill="#fefefe" fill-rule="evenodd"/>
              <path id="Path_11769" data-name="Path 11769" d="M-242.274,260.173c.182-.12.491-.375.7-.284.42.18.678,1.171.783,1.563.321,1.195.556,2.374.948,3.557a12.422,12.422,0,0,0,6.293,7.526l-.579.373a12.975,12.975,0,0,1-2.482,1.356,2.271,2.271,0,0,1-1.306.073,4.046,4.046,0,0,1-1.624-.943A15.377,15.377,0,0,1-241.575,271c-.675-1.195-3.717.428-3.755,2.1a.44.44,0,0,0,.006.079,37.05,37.05,0,0,0,.791,3.922c.4,1.489,1.285,4.429,3.031,4.815a2.3,2.3,0,0,0,1.944-.6,26.007,26.007,0,0,1,6.809-3.054,67.807,67.807,0,0,0,6.41-2.276c1.638-.736,3.443-1.783,4.271-3.454a4.855,4.855,0,0,0,.381-3.04c-.167-.879-.5-2.558-1.606-2.714-1.008-.144-1.949,1.067-2.825.856a7.86,7.86,0,0,1-3.876-2.306q-.254-.268-.488-.551a16.608,16.608,0,0,1-2.946-5.94,20.974,20.974,0,0,1-.559-2.459,7.913,7.913,0,0,1-.128-1.1c.095-.074.283-.183.36-.24a2.374,2.374,0,0,0,.7-.76,3.125,3.125,0,0,0,.339-1.662c-.041-.843-.4-2.047-1.339-2.263-.915-.488-2.4.384-3.155.845a42.408,42.408,0,0,0-4.211,3.08c-1.042.832-2.07,1.679-3.115,2.5l-.018.016C-245.978,258.054-243.643,261.22-242.274,260.173Z" transform="translate(247.454 -248.084)" fill="#fddc00" fill-rule="evenodd"/>
            </g>
          </g>
        </g>
      </g>
      <path id="Path_11771" data-name="Path 11771" d="M-210.448,282.984h0q-.964.615-2.02,1.183c-10.376,5.57-29.282,3.464-29.282,3.464s17.7,1.431,30.553-9.4A43.554,43.554,0,0,1-210.448,282.984Z" transform="translate(393.591 -103.666)" fill="#c7252e" fill-rule="evenodd"/>
      <g id="Group_4152" data-name="Group 4152" transform="translate(41.371 0)">
        <g id="Group_4146" data-name="Group 4146" transform="translate(33.131)">
          <path id="Path_11772" data-name="Path 11772" d="M-147.789,147.2a2.269,2.269,0,0,1,.243.754c.324,2.376-2.968,4.454-4.893,5.277-2.445,1.046-6.458,1.773-7.885-1.086a36.23,36.23,0,0,1-2.25-7.026,13.657,13.657,0,0,0-4.662-7.683c-.129-.108-.255-.222-.375-.339-.858-.841-2.054-2.57-1.259-3.768.622-.938,1.955-.811,2.91-.578l.03.007C-157.732,135.111-151.432,139.719-147.789,147.2Z" transform="translate(169.131 -132.587)" fill="#e8d4bf" fill-rule="evenodd"/>
          <path id="Path_11773" data-name="Path 11773" d="M-148.606,147.421c-3.3-6.781-9.041-11.6-17.684-14.076-3.337-.815-2.336,1.92-.577,3.42,5.627,4.665,4.533,9.713,7.1,14.94C-157.579,156-146.905,150.639-148.606,147.421Z" transform="translate(169.266 -132.466)" fill="#f0eada" fill-rule="evenodd"/>
          <path id="Path_11774" data-name="Path 11774" d="M-156.2,138.188q-.451-.351-.924-.686c-2.451.378-4.972.926-6.566,2.106a31.945,31.945,0,0,1,7.49-1.42Zm-5.3-3.212c-.235-.11-.473-.217-.714-.322a10.391,10.391,0,0,0-3.137,2.561,39.948,39.948,0,0,1,3.851-2.239Zm-.261,11.783q.149.588.314,1.181c2.006-2.294,5.314-4.048,8.862-5.324A12.894,12.894,0,0,0-161.756,146.759Z" transform="translate(169.651 -132.177)" fill="#e8d4bf" fill-rule="evenodd"/>
        </g>
        <g id="Group_4147" data-name="Group 4147" transform="translate(39.074 9.671)">
          <path id="Path_11775" data-name="Path 11775" d="M-169.212,145.346s.141-3.536,6.26-4.537a10.347,10.347,0,0,1,9.5,3.219l-11.694,3.151Z" transform="translate(169.212 -140.656)" fill="#337321" fill-rule="evenodd"/>
          <path id="Path_11776" data-name="Path 11776" d="M-169.345,145.616s.246-3.137,6.364-4.137a10.39,10.39,0,0,1,9.4,2.82l-11.694,3.151Z" transform="translate(169.506 -140.526)" fill="#0db02b" fill-rule="evenodd"/>
        </g>
        <path id="Path_11777" data-name="Path 11777" d="M-143.838,165.21a4.329,4.329,0,0,0,3.671.855l0,.034,6.774-.479-.084.09C-139.934,172.66-145.637,170.275-143.838,165.21Z" transform="translate(158.216 -126.109)" fill="#337321" fill-rule="evenodd"/>
        <path id="Path_11778" data-name="Path 11778" d="M-259.38,173.143c-1.719-4.2-4.806-5.156-6.627-2.541-1.708,2.507-.435,7.152,2.177,9.438C-260.683,182.56-257.984,176.878-259.38,173.143Z" transform="translate(430.787 -125.327)" fill="#337321" fill-rule="evenodd"/>
        <path id="Path_11779" data-name="Path 11779" d="M-241.451,214.526c-2.639-.213-1.553-4.045-1.206-5.591a.46.46,0,0,1,.455-.352c.31,0,.671-.037.985-.055.612-.036,1.226-.066,1.84-.077.706-.013,3.55-.161,3.327,1.052a.418.418,0,0,1-.06.152c-1.154,1.835-2.712,4.853-5.3,4.873Z" transform="translate(379.522 -117.525)" fill="#e8d4bf" fill-rule="evenodd"/>
        <path id="Path_11780" data-name="Path 11780" d="M-242.283,208.949c.49,0,5.875-.5,5.708.408-1.039,1.653-2.571,4.638-4.907,4.656C-243.336,213.864-242.84,211.421-242.283,208.949Z" transform="translate(379.597 -117.451)" fill="#fef3d8" fill-rule="evenodd"/>
        <path id="Path_11781" data-name="Path 11781" d="M-148.117,203.222c-10.208,1.249-18.4,10.352-22.1,16.579-5.835,12.74,23.051,10.9,30.039,16.11C-140.18,235.911-147.826,203.383-148.117,203.222Z" transform="translate(197.15 -118.561)" fill="#337321" fill-rule="evenodd"/>
        <path id="Path_11782" data-name="Path 11782" d="M-145.841,209.847c-15.317,7.754-12.9,14.512-5.554,16.616C-153.308,223.729-160.784,221.208-145.841,209.847Z" transform="translate(186.23 -117.245)" fill="#54c247" fill-rule="evenodd"/>
        <path id="Path_11783" data-name="Path 11783" d="M-141.433,186.028c-10.209,1.249-18.4,10.352-22.1,16.579-5.836,12.74,23.05,10.9,30.039,16.11C-133.5,218.717-141.142,186.189-141.433,186.028Z" transform="translate(182.455 -121.975)" fill="#337321" fill-rule="evenodd"/>
        <path id="Path_11784" data-name="Path 11784" d="M-138.984,192.318c-14.112,9.593-10.793,15.964-3.227,17.113C-144.48,206.972-152.233,205.428-138.984,192.318Z" transform="translate(169.268 -120.726)" fill="#54c247" fill-rule="evenodd"/>
        <path id="Path_11785" data-name="Path 11785" d="M-122.535,160.228c-8.943-11.086-31.5-14.493-40.241-15.8-16.559-.681,7.559,34.089,7.911,44.528C-154.865,188.959-122.467,160.636-122.535,160.228Z" transform="translate(176.61 -130.237)" fill="#337321" fill-rule="evenodd"/>
        <path id="Path_11786" data-name="Path 11786" d="M-129.068,163.444c-10.209,1.249-19.214,10.122-22.1,16.579-5.836,12.74,23.05,10.9,30.039,16.11C-121.131,196.133-128.777,163.6-129.068,163.444Z" transform="translate(155.27 -126.46)" fill="#337321" fill-rule="evenodd"/>
        <path id="Path_11787" data-name="Path 11787" d="M-126.342,169.465c-13.83,10.787-9.959,17.113-2.092,17.793C-130.945,184.882-139.032,183.808-126.342,169.465Z" transform="translate(140.818 -125.264)" fill="#0db02b" fill-rule="evenodd"/>
        <path id="Path_11788" data-name="Path 11788" d="M-127.6,152.329c-19.652-7.958-29.528-10.243-23.644,5.162C-154.391,143.693-143.255,147.761-127.6,152.329Z" transform="translate(162.921 -129.9)" fill="#0db02b" fill-rule="evenodd"/>
        <path id="Path_11789" data-name="Path 11789" d="M-248.97,150.557a17.4,17.4,0,0,1,10.774-8.366c11.083-2.861,24.236,4.973,29.3,14.209,1.643,1.928,3.326,3.847,5.1,5.669a34.547,34.547,0,0,0,3.682,3.381c.893.684,2.33,1.708,3.574,1.491a15.609,15.609,0,0,0,3.814-1.964c9.2-5.392,23.286-7.847,33.878-8.209,11.741-.4,27.252,1.433,35.942,10.031l.1-.091,1.328.8a27.133,27.133,0,0,1,12.152,15.97c1.551,5.729,1.066,12.374-2.951,17.173l-.882,1.054-.532-.158c-.839,5.9-3.3,11.37-8.491,15.454-7.022,5.527-17.107,6.964-25.848,7.465-4.644.266-9.287.273-13.933.332-2.717.035-5.575.061-8.35.288a44.914,44.914,0,0,0,5.444,4.8c2.9,2.371,6.315,5.314,7.1,9.068a8.934,8.934,0,0,1-1.738,7.067l-.037.054-.083.1-.044.048a14.38,14.38,0,0,1-3.659,2.872c-4.408,2.438-10.038,2.637-14.979,2.793-5.863.186-11.519.3-17.243,1.815a56.14,56.14,0,0,1-23.281,1.318c-8.8-1.505-16.353-5.577-21.438-12.719-4.664-6.551-6.108-12.669-7.455-20.347l-.013-.077-.014-.155v-.078c-.048-5.5.306-12.1-1.806-17.259a14.968,14.968,0,0,0-3.669-5.344c-7.37-6.9-13.419-16.043-14.373-26.126-.678-7.163,1.444-15.012,7.858-19.407A17.621,17.621,0,0,1-248.97,150.557Z" transform="translate(281.419 -130.799)" fill="#337321" fill-rule="evenodd"/>
        <path id="Path_11790" data-name="Path 11790" d="M-210.953,157.172c12.344,14.512,13.684,12.227,18.934,9.151,16.494-9.663,59.709-13.529,70.653,5.905a30.091,30.091,0,0,0-1.557-3.38c11.793,7.126,15.373,22.305,8.716,30.259a14.524,14.524,0,0,0-1.646-6.283c2.71,36.822-39.7,27.609-58.083,30.331,1.86,6.706,19.142,11.844,12.4,21.459-7.064,7.7-20.528,3.037-34.875,6.875-13.066,3.42-32.46,3.5-42.506-10.629-4.742-6.65-5.949-12.84-7.13-19.575-.077-8.961.53-17.781-6.084-23.979-22.857-21.394-14.637-47.009,3.994-45.022C-239.664,135.7-217.651,144.67-210.953,157.172Z" transform="translate(281.758 -130.472)" fill="#54c247" fill-rule="evenodd"/>
        <path id="Path_11791" data-name="Path 11791" d="M-177.95,145.644c1.425-2.68,14.185-5.477,8.817,3.634C-170.709,150.358-179.66,149.181-177.95,145.644Z" transform="translate(233.39 -130.512)" fill="#337321" fill-rule="evenodd"/>
        <path id="Path_11792" data-name="Path 11792" d="M-138.17,231.542a62.1,62.1,0,0,1-2.859-11.608l0-.421h0v-.419l0-.419V217h0v-.417h0l0-.416,0-.416h0l0-.415,0-.414,0-.413-.006-.412h0l-.008-.411-.01-.41h0l-.012-.409-.014-.408h0l-.017-.406-.018-.405-.022-.4-.024-.4c-.008-.134-.018-.267-.026-.4h0l-.03-.4c-.011-.133-.023-.265-.034-.4s-.024-.264-.037-.4-.026-.264-.041-.4h0c-.014-.131-.029-.262-.044-.393s-.032-.261-.048-.391-.035-.26-.053-.39h0c-.018-.129-.037-.258-.056-.387s-.041-.257-.062-.385-.043-.257-.066-.384h0q-.036-.192-.072-.381c-.025-.127-.05-.253-.077-.38h0c-.026-.126-.054-.252-.083-.376h0c-.028-.126-.058-.251-.087-.375s-.061-.248-.092-.372-.066-.247-.1-.37-.07-.246-.105-.368-.073-.243-.111-.364-.077-.243-.117-.363-.082-.24-.125-.36-.086-.239-.131-.357-.091-.237-.139-.355-.095-.235-.145-.352-.1-.233-.152-.349-.105-.231-.161-.346-.11-.229-.168-.343-.115-.228-.175-.34h0c-.06-.113-.121-.225-.183-.337s-.126-.224-.192-.334-.132-.222-.2-.331h0c-.068-.11-.138-.219-.209-.328h0c-.072-.108-.144-.217-.218-.324h0c-.074-.108-.15-.215-.227-.321s-.156-.212-.236-.318h0c-.08-.105-.162-.211-.245-.315h0c-.084-.1-.168-.207-.255-.31s-.174-.2-.264-.307-.181-.2-.274-.3h0c-.092-.1-.187-.2-.284-.3h0c-.1-.1-.194-.2-.294-.3h0c-.1-.1-.2-.2-.3-.292h0l-.023-.022c-.308-.289-.609-.579-.906-.869l-.211-.206q-.439-.433-.862-.87l-.151-.157q-.385-.4-.756-.8l-.147-.158q-.4-.435-.783-.873l-.188-.217c-.26-.3-.515-.6-.763-.9l-.034-.041q-.36-.435-.7-.87l-.17-.216q-.342-.437-.668-.875l-.133-.18c-.2-.268-.393-.537-.583-.805l-.1-.146q-.309-.442-.6-.883l-.146-.221c-.2-.3-.39-.6-.575-.9l-.04-.065c-.177-.286-.35-.572-.518-.858l-.117-.2c-.169-.289-.332-.579-.491-.868l-.116-.215q-.207-.387-.405-.769l-.08-.156c-.147-.29-.289-.58-.427-.87l-.108-.229c-.134-.289-.266-.577-.392-.864l-.056-.132c-.113-.261-.221-.521-.326-.78l-.086-.212q-.169-.426-.325-.85l-.072-.2c-.091-.254-.18-.507-.264-.76l-.053-.155c-.091-.278-.176-.554-.259-.829l-.073-.246q-.119-.408-.225-.814l-.048-.187c-.059-.23-.114-.46-.168-.688l-.054-.236c-.059-.262-.113-.524-.164-.784l-.046-.247q-.063-.34-.117-.676c-.01-.058-.02-.115-.029-.174-.041-.259-.076-.518-.109-.774l-.03-.253c-.03-.25-.058-.5-.079-.751-.007-.078-.012-.155-.019-.233q-.023-.291-.04-.579c-.006-.089-.011-.177-.016-.266-.012-.239-.019-.477-.024-.713,0-.087,0-.174,0-.26,0-.2,0-.4,0-.591,0-.084,0-.168,0-.251,0-.215.014-.427.024-.638l.016-.273q.022-.336.05-.669c.008-.086.018-.171.026-.257.017-.163.036-.325.055-.485.012-.092.023-.186.036-.278.029-.207.06-.413.095-.617.016-.1.034-.2.052-.3.029-.153.059-.308.09-.46q.036-.18.076-.36c.035-.156.072-.31.109-.464.025-.1.05-.2.077-.3.05-.191.1-.381.157-.568.028-.09.056-.179.084-.268.04-.127.08-.253.122-.379.032-.1.064-.193.1-.289.062-.177.128-.354.2-.527.037-.1.077-.193.115-.289.047-.115.1-.23.145-.344.06-.141.122-.28.187-.421.05-.11.1-.219.155-.328s.1-.2.144-.291c.071-.139.144-.277.218-.412l.028-.053c1.932.061,5.675-1.588,7.664-1.616a2.7,2.7,0,0,1,2.751,3.488c.813,6.7-9.749,11.1-5.418,18.792,16.423,27.179,23.379,17.2,15.476,52.126Zm-19.884-73.778c8.859-7.179,12.758-4.926,26.31-7.719-3.834.693-7.6.465-11.177.519-.066.123-.133.243-.2.369a15.343,15.343,0,0,0-12.768,4.145l-.092.095c-.034.034-.065.068-.1.1a19.054,19.054,0,0,0-1.976,2.488Z" transform="translate(176.738 -129.12)" fill="#0db02b" fill-rule="evenodd"/>
        <path id="Path_11793" data-name="Path 11793" d="M-153.6,213.83c5.314,4.768,13.978,9.479,8.891,16.752l0,.007,0,.006-.076.08c-7.085,7.582-20.5,2.971-34.8,6.8-13.066,3.42-32.46,3.5-42.506-10.629a35.379,35.379,0,0,1-2.959-4.939c7.42,9.635,13.021,15.8,34.285,10.459,13.517-3.778,29.414,3.61,39.719-.544C-143.017,227.9-149.046,220.693-153.6,213.83Z" transform="translate(264.941 -116.454)" fill="#0db02b" fill-rule="evenodd"/>
        <path id="Path_11794" data-name="Path 11794" d="M-157.356,160.454c3.713,3.694,5.934,4.865,7.834,4.766-7.121,6.882-10.935,12.48-14.288,16.337-5.837,6.312-17.587,18.37-30.337,3.7C-181.451,176.14-169.736,168.951-157.356,160.454Z" transform="translate(234.245 -127.053)" fill="#0db02b" fill-rule="evenodd"/>
        <path id="Path_11795" data-name="Path 11795" d="M-199.065,211.3c10.963,9.989,24.445,16.818,25.086,15.476-17.97,4.239-39.167-11.746-40.953-27.94C-215.507,200.18-202.359,210.022-199.065,211.3Z" transform="translate(283.636 -119.431)" fill="#0db02b" fill-rule="evenodd"/>
        <path id="Path_11796" data-name="Path 11796" d="M-245.3,178.491c-2.232-1.867-4.264-1.549-4.509.416-.212,1.873,1.9,4.116,4.066,4.668C-243.21,184.112-243.391,180.192-245.3,178.491Z" transform="translate(395.314 -123.718)" fill="#337321" fill-rule="evenodd"/>
        <path id="Path_11797" data-name="Path 11797" d="M-221.89,208.7c3.4,12.947,14.14,26.693,32.08,21.156,6.668-3.869-5.006-14.971-6.035-19.731C-208.522,211.218-214.961,215.264-221.89,208.7Z" transform="translate(305.739 -117.474)" fill="#264631" fill-rule="evenodd"/>
        <path id="Path_11798" data-name="Path 11798" d="M-220.165,213.084c.813,2.358,1.255,5.522,4.417,8.517,6.435,6.245,11.012,8.076,19.424,7.854,3.288-1.016,6.056-1.855,2.823-7.549-5.666-7.854-18.813-9.689-25.763-10.29,5.052,1.484,9,3.526,11.5,6.869C-212.227,214.925-216.411,212.864-220.165,213.084Z" transform="translate(307.968 -116.894)" fill="#ba122b" fill-rule="evenodd"/>
        <path id="Path_11799" data-name="Path 11799" d="M-241.09,175.805c-4.5-.852-6.179.856-5,4.653C-249.259,176.177-245.022,173.518-241.09,175.805Z" transform="translate(389.398 -124.172)" fill="#337321" fill-rule="evenodd"/>
        <path id="Path_11800" data-name="Path 11800" d="M-259.338,171.717c-2.933-2.408-4.9-1.8-5.658,1.483C-265.489,168.768-261.243,168.465-259.338,171.717Z" transform="translate(429.026 -125.249)" fill="#337321" fill-rule="evenodd"/>
        <path id="Path_11801" data-name="Path 11801" d="M-120.1,159.156a2.357,2.357,0,0,1,.562.572c1.371,1.99-.662,5.228-2.028,6.772-1.738,1.961-5.039,4.292-7.63,2.331a37.767,37.767,0,0,1-5.227-5.344,14.363,14.363,0,0,0-7.709-4.921c-.168-.043-.332-.092-.5-.147-1.158-.392-3.025-1.438-2.85-2.845.137-1.1,1.4-1.544,2.371-1.736l.031,0C-134.608,152.5-126.793,153.992-120.1,159.156Z" transform="translate(145.492 -128.46)" fill="#e8d4bf" fill-rule="evenodd"/>
        <path id="Path_11802" data-name="Path 11802" d="M-120.69,159.622c-6.07-4.686-13.45-6.592-22.4-5.189-3.388.669-1.241,2.7,1.033,3.3,7.212,1.818,8.515,6.793,13.209,10.4C-124.912,171.057-117.689,161.789-120.69,159.622Z" transform="translate(145.615 -128.338)" fill="#f2e8c7" fill-rule="evenodd"/>
        <path id="Path_11803" data-name="Path 11803" d="M-131.118,154.639c-.379-.084-.76-.159-1.147-.227-2.047,1.364-4.076,2.911-4.984,4.635a31.112,31.112,0,0,1,6.131-4.408Zm-6.249-.657c-.264,0-.527,0-.795.011a9.839,9.839,0,0,0-1.673,3.607,37.872,37.872,0,0,1,2.468-3.617Zm5.117,10.654a12.33,12.33,0,0,1,6.421-7.551c-2.63,2.627-4.827,5.583-5.6,8.475Q-131.848,165.1-132.25,164.636Z" transform="translate(145.456 -128.338)" fill="#e8d4bf" fill-rule="evenodd"/>
        <path id="Path_11804" data-name="Path 11804" d="M-208.974,162.989c.6,4.641-22.589-6.967-37.075-1.755C-235.206,154.7-209.469,158.745-208.974,162.989Z" transform="translate(355.894 -127.581)" fill="#a1de9a" fill-rule="evenodd"/>
        <path id="Path_11805" data-name="Path 11805" d="M-177.012,196.815c-4.154,2.09-5.789,1.883-7.748,7.637C-185.074,198.449-182.61,197.244-177.012,196.815Z" transform="translate(250.515 -119.833)" fill="#337321" fill-rule="evenodd"/>
        <path id="Path_11806" data-name="Path 11806" d="M-259.457,173.493c-1.617-3.947-4.52-4.849-6.233-2.39-1.6,2.358-.409,6.725,2.047,8.873C-260.682,182.347-258.145,177.006-259.457,173.493Z" transform="translate(430.451 -125.21)" fill="#54c247" fill-rule="evenodd"/>
        <path id="Path_11807" data-name="Path 11807" d="M-260.96,174.017c-1.086-2.65-3.035-3.257-4.185-1.6-1.079,1.583-.274,4.517,1.375,5.96C-261.784,179.964-260.078,176.377-260.96,174.017Z" transform="translate(431.13 -124.861)" fill="#337321" fill-rule="evenodd"/>
        <path id="Path_11808" data-name="Path 11808" d="M-147.738,167.173s3.345,1.921,7.342-2.38,1.877-7.42.814-7.792c9.321-2.372,6.09,5.379,1.661,10.073C-144.227,173.758-148.58,172.152-147.738,167.173Z" transform="translate(162.801 -127.827)" fill="#54c247" fill-rule="evenodd"/>
        <path id="Path_11809" data-name="Path 11809" d="M-170.812,157.237c-6.429,4.555-6.348,15.185.182,23.74a19.615,19.615,0,0,0,15.053,9.433c2.453-4.341,6.9-9.193,12.415-13.642-.18-5.784-1.533-7.917-4.188-12.285C-153.879,155.927-164.384,152.682-170.812,157.237Z" transform="translate(205.632 -128.102)" fill="#337321" fill-rule="evenodd"/>
        <path id="Path_11810" data-name="Path 11810" d="M-170.5,158.106c-5.946,4.212-5.869,14.042.169,21.957a18,18,0,0,0,14.66,8.746,53.865,53.865,0,0,1,10.764-11.587c-.032-6.163-1.282-8.12-3.892-12.416C-154.838,156.893-164.554,153.893-170.5,158.106Z" transform="translate(206.573 -127.898)" fill="#fff" fill-rule="evenodd"/>
        <g id="Group_4148" data-name="Group 4148" transform="translate(35.942 35.584)">
          <path id="Path_11811" data-name="Path 11811" d="M-168.15,163.82c-4.238,3-4.184,10.012.121,15.653,4.752,7.913,17.551,9.321,18.125-1.8.006-4.568-.883-5.958-2.775-9.072C-156.985,162.956-163.911,160.818-168.15,163.82Z" transform="translate(171.294 -162.239)" fill="#54c247" fill-rule="evenodd"/>
          <path id="Path_11812" data-name="Path 11812" d="M-166.752,165.87c-3.633,2.575-3.587,8.581.1,13.416,4.073,6.781,15.042,7.988,15.535-1.546,0-3.915-.757-5.107-2.378-7.775C-157.183,165.129-163.119,163.3-166.752,165.87Z" transform="translate(170.29 -161.794)" fill="#212121" fill-rule="evenodd"/>
          <path id="Path_11813" data-name="Path 11813" d="M-162.46,164.213c-1.288.912-1.272,3.043.037,4.76,1.445,2.406,5.336,2.833,5.511-.549a4.176,4.176,0,0,0-.844-2.758C-159.064,163.949-161.17,163.3-162.46,164.213Z" transform="translate(168.857 -161.974)" fill="#fefefe" fill-rule="evenodd"/>
          <path id="Path_11814" data-name="Path 11814" d="M-163.674,162.517c-.75.532-.741,1.773.022,2.772.841,1.4,3.108,1.65,3.21-.32a2.438,2.438,0,0,0-.493-1.606A2.129,2.129,0,0,0-163.674,162.517Z" transform="translate(173.367 -162.276)" fill="#fefefe" fill-rule="evenodd"/>
          <path id="Path_11815" data-name="Path 11815" d="M-162.049,171.16a1.321,1.321,0,0,0,.014,1.869c.567.944,2.1,1.112,2.163-.215a1.644,1.644,0,0,0-.332-1.084A1.435,1.435,0,0,0-162.049,171.16Z" transform="translate(170.629 -160.544)" fill="#fefefe" fill-rule="evenodd"/>
        </g>
        <path id="Path_11816" data-name="Path 11816" d="M-177.215,146.479c1.4-2.638,13.383-5.651,8.682,3.58C-170.061,151.136-179.146,147.885-177.215,146.479Z" transform="translate(232.195 -130.357)" fill="#54c247" fill-rule="evenodd"/>
        <g id="Group_4150" data-name="Group 4150" transform="translate(56.54 14.615)">
          <path id="Path_11817" data-name="Path 11817" d="M-188.22,146.128c-5.726,3.446-6.374,12.426-1.447,20.056a16.776,16.776,0,0,0,8.893,8.082,72.067,72.067,0,0,1,14.217-7.292c.1-.445.179-.907.242-1.392.476-5.849-.52-7.714-2.62-11.879C-173.86,146.073-182.5,142.681-188.22,146.128Z" transform="translate(192.977 -144.78)" fill="#337321" fill-rule="evenodd"/>
          <path id="Path_11818" data-name="Path 11818" d="M-187.735,146.97c-5.3,3.191-5.9,11.5-1.34,18.568a15.47,15.47,0,0,0,9.26,7.83,72.285,72.285,0,0,1,11.887-6.112,15.042,15.042,0,0,0,.473-2.275c.44-5.416-.482-7.142-2.425-11C-174.441,146.921-182.435,143.779-187.735,146.97Z" transform="translate(193.122 -144.593)" fill="#fff" fill-rule="evenodd"/>
          <g id="Group_4149" data-name="Group 4149" transform="translate(2.801 5.476)">
            <path id="Path_11819" data-name="Path 11819" d="M-186,150.347c-4.243,2.554-4.724,9.209-1.073,14.865a12.116,12.116,0,0,0,9.338,6.64,74.714,74.714,0,0,1,7-3.759,10.5,10.5,0,0,0,.966-3.327c.352-4.335-.386-5.717-1.942-8.8C-175.361,150.308-181.76,147.794-186,150.347Z" transform="translate(189.529 -149.349)" fill="#54c247" fill-rule="evenodd"/>
            <path id="Path_11820" data-name="Path 11820" d="M-184.716,152.323c-3.636,2.189-4.048,7.893-.918,12.738,2.1,4.218,6.939,6.542,10.545,5.458q1.028-.592,2.075-1.151a7.317,7.317,0,0,0,2.215-4.689c.3-3.716-.332-4.9-1.665-7.545C-175.593,152.288-181.078,150.133-184.716,152.323Z" transform="translate(188.424 -148.929)" fill="#212121" fill-rule="evenodd"/>
            <path id="Path_11821" data-name="Path 11821" d="M-181.511,150.942c-1.291.777-1.436,2.8-.327,4.52,1.188,2.384,4.841,3.062,5.264-.135a3.966,3.966,0,0,0-.591-2.676C-178.275,150.93-180.221,150.166-181.511,150.942Z" transform="translate(188.069 -149.093)" fill="#fefefe" fill-rule="evenodd"/>
            <path id="Path_11822" data-name="Path 11822" d="M-182.958,149.532a1.869,1.869,0,0,0-.191,2.632c.692,1.388,2.819,1.783,3.065-.079a2.311,2.311,0,0,0-.343-1.559A2.014,2.014,0,0,0-182.958,149.532Z" transform="translate(192.789 -149.348)" fill="#fefefe" fill-rule="evenodd"/>
            <path id="Path_11823" data-name="Path 11823" d="M-180.84,157.673a1.259,1.259,0,0,0-.128,1.774c.465.936,1.9,1.2,2.065-.053a1.558,1.558,0,0,0-.231-1.051A1.358,1.358,0,0,0-180.84,157.673Z" transform="translate(188.831 -147.72)" fill="#fefefe" fill-rule="evenodd"/>
          </g>
        </g>
        <path id="Path_11824" data-name="Path 11824" d="M-197.936,193.415c2.286-9.363,18.107-23.589,34.472-29.745,1.432,1.569,5.958-4.027,6.544-.757-6.279,4.841-16.429,14.51-19.124,19.372,1.525-5.111,3.675-8.207,8.015-13.032C-179.355,175.409-190.755,182.645-197.936,193.415Z" transform="translate(246.184 -126.772)" fill="#337321" fill-rule="evenodd"/>
        <g id="Group_4151" data-name="Group 4151" transform="translate(101.478 93.945)">
          <path id="Path_11825" data-name="Path 11825" d="M-207.556,210.968c.561,1.611,1.61,5.132-.71,5.636a.254.254,0,0,1-.042.007c-2.3.29-5.005-2.388-6.357-4.013A59.682,59.682,0,0,0-207.556,210.968Z" transform="translate(214.665 -210.968)" fill="#e8d4bf" fill-rule="evenodd"/>
          <path id="Path_11826" data-name="Path 11826" d="M-214.287,212.491c1.256,1.463,3.768,3.917,5.783,3.663,1.641-.356,1.118-2.907.366-5.078A60.231,60.231,0,0,1-214.287,212.491Z" transform="translate(214.807 -210.947)" fill="#f2e8c7" fill-rule="evenodd"/>
        </g>
        <path id="Path_11827" data-name="Path 11827" d="M-226.6,198.323c17.7,16.55,28.284,17.6,55.946,10.02C-204.83,224.847-221.5,206.653-226.6,198.323Z" transform="translate(294.281 -119.534)" fill="#337321" fill-rule="evenodd"/>
      </g>
      <path id="Path_11828" data-name="Path 11828" d="M-216.4,256.79a10.375,10.375,0,0,1-2.915-1.443,37.664,37.664,0,0,1-3.415-2.523l-.738-.61-10.568,6.9.935,1.122c1.328,1.594,2.6,3.288,3.821,4.964a10.676,10.676,0,0,0,7.316,4.543,15.025,15.025,0,0,0,6.222-.572,29.8,29.8,0,0,0,7.648-3.605,32.2,32.2,0,0,0,3.3-2.376l.463-.388.013-13.251-1.984,1.225q-2.605,1.609-5.226,3.189c-1.012.61-2.026,1.217-3.046,1.81C-215.152,256.11-215.786,256.5-216.4,256.79Z" transform="translate(378.212 -109.362)" fill="#337321" fill-rule="evenodd"/>
      <path id="Path_11829" data-name="Path 11829" d="M-136.705,295.023c-14.359,5.088-22.009,5.075-31.507-.718C-158.064,306.305-145.726,301.433-136.705,295.023Z" transform="translate(231.714 -100.474)" fill="#98da91" fill-rule="evenodd"/>
      <path id="Path_11830" data-name="Path 11830" d="M-225.15,266.173a4.994,4.994,0,0,0,2.511,4.253c2.331,1.431,5.8.917,8.239.055a9.427,9.427,0,0,0,2.609-1.176c7.656,9.584,23.119-3.209,23.119-3.209l.011-10.315s-8.651,5.347-10.31,6.127c-.932.439-3.231-.94-5.064-2.231a12.871,12.871,0,0,0,.342-5.044c-.28-2.082-1.314-4.911-3.4-5.806a6.454,6.454,0,0,0-1.743-.477,16.545,16.545,0,0,0-8.516-5.688,10.553,10.553,0,0,0-9.143-.31c-4.3,1.853-6,4.887-6.065,8.249C-233.541,254.93-231.733,260.485-225.15,266.173Z" transform="translate(361.096 -110.969)" fill-rule="evenodd" opacity="0.1"/>
      <g id="Group_4154" data-name="Group 4154" transform="translate(128.444 128.191)">
        <path id="Path_11831" data-name="Path 11831" d="M-224.4,253.438s5.97,4.961,7.629,4.181,10.309-6.127,10.309-6.127l-.01,10.315s-15.043,12.655-22.6,2.243c-2.183-3.008-3.874-5.034-3.874-5.034Z" transform="translate(250.616 -237.167)" fill="#54c247" fill-rule="evenodd"/>
        <g id="Group_4153" data-name="Group 4153">
          <path id="Path_11832" data-name="Path 11832" d="M-212.831,264.136a4.991,4.991,0,0,0,2.51,4.253c2.332,1.43,5.8.917,8.24.054a16.887,16.887,0,0,0,8.4-6.467,13.742,13.742,0,0,0,2.307-9.379c-.279-2.081-1.312-4.909-3.4-5.8a6.465,6.465,0,0,0-1.743-.477C-209.12,231.014-232.694,246.973-212.831,264.136Z" transform="translate(220.495 -239.418)" fill="#b01c2e" fill-rule="evenodd"/>
          <path id="Path_11833" data-name="Path 11833" d="M-196.434,247.442c-3.072-3.833-9.27-10.277-16.866-7-11.1,4.779-4.927,17.424,2.259,23.28a3.809,3.809,0,0,0,1.911,3.8c3.183,1.953,11.135-.076,15.154-6.133s1.873-12.489-.539-13.522A5.026,5.026,0,0,0-196.434,247.442Z" transform="translate(219.616 -239.54)" fill="#e62129" fill-rule="evenodd"/>
        </g>
      </g>
      <g id="Group_4157" data-name="Group 4157" transform="translate(161.847 105.163)">
        <path id="Path_11834" data-name="Path 11834" d="M-253.233,270.333c12.259,3.032,21.451-2.255,29.345-9.028,6.827-5.851,7.623-15.173,1.3-18.255.483-2.033-1.386-3.478-2.85-5.529,5.021-11.122-6.387-24.054-18.909-12.942a24.754,24.754,0,0,0-4.363,4c-7.6-9.245-22.561,6.1-17.81,22.73C-263.524,261.129-258.454,268.278-253.233,270.333Z" transform="translate(270.365 -220.327)" fill="#595959" fill-rule="evenodd"/>
        <path id="Path_11835" data-name="Path 11835" d="M-254.9,269.108c12.259,3.034,21.451-2.255,29.345-9.028,6.162-5.281,6.669-12.786,2.059-16.466a19.329,19.329,0,0,1-2.821,5.741,34.8,34.8,0,0,0,1.467-6.072c.316-1.489-.609-3.839-1.934-5.809a19.4,19.4,0,0,1-4.435,3.891,40.911,40.911,0,0,0,4.513-6.412c-.03.095-.061.191-.093.285,3.578-10.549-6.415-19.576-18.4-8.937a31.271,31.271,0,0,0-2.686,2.223c2.845-1.486,6.729-2.406,11.789-2.681-5.8,1.68-12.578,3.559-16.561,7.049a10.55,10.55,0,0,1,2.7-3.049c-7.642-8.329-19.912,4.926-15.242,21.267C-262.207,260.935-260.122,267.053-254.9,269.108Z" transform="translate(271.081 -220.088)" fill="#fff" fill-rule="evenodd"/>
        <g id="Group_4155" data-name="Group 4155" transform="translate(0 36.257)">
          <path id="Path_11836" data-name="Path 11836" d="M-227.966,266.849c-6.911-1.413-10.743-7.658-12.379-13.352-.215-1.906,3.441-.007,7.31-2.044,1.967-2.916,6.325,2.106,8.915,5.444,1.96,2.04,5.775,6.912,1.326,8.011C-225.7,264.766-225.559,267.2-227.966,266.849Z" transform="translate(240.354 -250.577)" fill="#595959" fill-rule="evenodd"/>
          <path id="Path_11837" data-name="Path 11837" d="M-228.453,265.653c-6.1-1.247-9.484-6.76-10.929-11.788-.167-1.478,2.528-.049,5.5-.9a9.523,9.523,0,0,0,.838,5.075,22.4,22.4,0,0,1,.233-5.483c.059-.029.116-.058.175-.089,1.736-2.573,5.293,1.45,7.579,4.4,1.731,1.8,5.1,6.1,1.171,7.074a4.092,4.092,0,0,0-.437,0,21.14,21.14,0,0,1-3.861-1.457,13.452,13.452,0,0,0,2.493,1.883C-226.6,264.941-227.011,265.861-228.453,265.653Z" transform="translate(240.531 -250.365)" fill="#d9d6d1" fill-rule="evenodd"/>
          <path id="Path_11838" data-name="Path 11838" d="M-228.518,265.067c-4.855-.992-7.988-4.686-9.795-8.687a6.086,6.086,0,0,0,4.537-.84l.037-.019a15.757,15.757,0,0,0,.63,1.936,19.18,19.18,0,0,1-.065-2.48c1.9-1.569,5.124,2.077,7.248,4.805a14.453,14.453,0,0,1,2.512,3.4,4.12,4.12,0,0,1-.538.171,4.092,4.092,0,0,0-.437,0,21.141,21.141,0,0,1-3.861-1.457,13.453,13.453,0,0,0,2.493,1.883C-226.67,264.355-227.076,265.275-228.518,265.067Z" transform="translate(240.597 -249.779)" fill="#fff" fill-rule="evenodd"/>
        </g>
        <g id="Group_4156" data-name="Group 4156" transform="translate(20.46 23.06)">
          <path id="Path_11839" data-name="Path 11839" d="M-249.607,257.626c-1.442-6.2-.62-12.182,1.416-18.059C-247.387,239.64-247.626,253.736-249.607,257.626Z" transform="translate(258.891 -239.567)" fill="#5f5d5d" fill-rule="evenodd"/>
          <path id="Path_11840" data-name="Path 11840" d="M-237.857,247a36.347,36.347,0,0,0-19.256,2.142C-256.954,249.939-241.836,249.129-237.857,247Z" transform="translate(257.113 -238.189)" fill="#5f5d5d" fill-rule="evenodd"/>
          <path id="Path_11841" data-name="Path 11841" d="M-240.586,250.4c1.05-3.531-1.273-7.336-5.186-8.5s-7.936.758-8.984,4.288,1.272,7.338,5.185,8.5S-241.635,253.933-240.586,250.4Z" transform="translate(257.069 -239.171)" fill="#5f5d5d" fill-rule="evenodd"/>
          <path id="Path_11842" data-name="Path 11842" d="M-240.9,251.281c1.05-3.531-1.272-7.336-5.185-8.5s-7.936.758-8.986,4.288,1.272,7.338,5.186,8.5S-241.951,254.813-240.9,251.281Z" transform="translate(257.762 -238.996)" fill="#d9d6d1" fill-rule="evenodd"/>
          <path id="Path_11843" data-name="Path 11843" d="M-247.271,247.818a.957.957,0,0,0-.645-1.19.957.957,0,0,0-1.19.645.958.958,0,0,0,.645,1.19A.956.956,0,0,0-247.271,247.818Z" transform="translate(256.937 -238.173)" fill="#5f5d5d" fill-rule="evenodd"/>
          <path id="Path_11844" data-name="Path 11844" d="M-249.627,250.5a.957.957,0,0,0-.645-1.19.955.955,0,0,0-1.189.645.957.957,0,0,0,.645,1.19A.955.955,0,0,0-249.627,250.5Z" transform="translate(262.116 -237.641)" fill="#5f5d5d" fill-rule="evenodd"/>
        </g>
      </g>
      <g id="Group_4159" data-name="Group 4159" transform="translate(70.646 204.117)">
        <path id="Path_11845" data-name="Path 11845" d="M-160.813,310.3c-6.711-8.925,1.291-7.906,7.33-6.451C-160.748,303.617-163.891,302.8-160.813,310.3Z" transform="translate(172.028 -302.887)" fill="#0db02b" fill-rule="evenodd"/>
        <g id="Group_4158" data-name="Group 4158" transform="translate(0 2.033)">
          <path id="Path_11846" data-name="Path 11846" d="M-152.406,307.913c-15.257.8-7.16,8.3-.328,13.359C-159.358,313.849-162.976,311.27-152.406,307.913Z" transform="translate(168.238 -303.922)" fill="#0db02b" fill-rule="evenodd"/>
          <path id="Path_11847" data-name="Path 11847" d="M-150.684,305.169c-8.5-2.425-5.476,3.2-2.686,7.25C-155.6,307.114-157.1,305.024-150.684,305.169Z" transform="translate(160.723 -304.583)" fill="#0db02b" fill-rule="evenodd"/>
          <path id="Path_11848" data-name="Path 11848" d="M-148.463,313.109c-12.284.642-5.765,6.681-.265,10.756C-154.059,317.888-156.974,315.812-148.463,313.109Z" transform="translate(157.54 -302.89)" fill="#0db02b" fill-rule="evenodd"/>
          <path id="Path_11849" data-name="Path 11849" d="M-146.962,308.563c-8.5-2.425-5.475,3.2-2.685,7.251C-151.879,310.508-153.378,308.418-146.962,308.563Z" transform="translate(152.539 -303.909)" fill="#0db02b" fill-rule="evenodd"/>
        </g>
      </g>
    </g>
    <path id="Path_11705" data-name="Path 11705" d="M523.722,605.611h484.1s22.563-45.3-72.878-37.752c0,0,1.742-62.308-52.051-30.218,0,0-22.551-37.251-39.907-9.182,0,0-81.547-98.1-138.806-10.472,0,0-52.064-13.749-55.53,25.61,0,0-62.466-13.5-58.988,33.69C589.663,577.288,530.667,569.745,523.722,605.611Z" transform="translate(445.278 463.415)" fill="#fff" opacity="0.996"/>
    <g id="Group_4161" data-name="Group 4161" transform="translate(127 154)">
      <ellipse id="Ellipse_244" data-name="Ellipse 244" cx="129" cy="59" rx="129" ry="59" transform="translate(818 630)" fill="#fff"/>
      <ellipse id="Ellipse_245" data-name="Ellipse 245" cx="32" cy="24" rx="32" ry="24" transform="translate(985 627)" fill="#fff"/>
      <ellipse id="Ellipse_246" data-name="Ellipse 246" cx="32" cy="24" rx="32" ry="24" transform="translate(826 694)" fill="#fff"/>
      <ellipse id="Ellipse_247" data-name="Ellipse 247" cx="32" cy="24" rx="32" ry="24" transform="translate(815 679)" fill="#fff"/>
      <ellipse id="Ellipse_248" data-name="Ellipse 248" cx="32" cy="24" rx="32" ry="24" transform="translate(938 624)" fill="#fff"/>
      <path id="Path_11850" data-name="Path 11850" d="M1054.56,705.425s14.159,19.4,35.04,13.946c6.055-1.582,6.367.088,2.887,2.636-7.974,5.844-37.883,16.378-58.586-5.037C1004.742,686.807,1054.56,705.425,1054.56,705.425Z" transform="translate(-4)" fill="#fff"/>
    </g>
  </g>
</svg>
